<?xml version="1.0" encoding="UTF-8" standalone="no"?>
<!DOCTYPE svg PUBLIC "-//W3C//DTD SVG 1.1//EN"
 "http://www.w3.org/Graphics/SVG/1.1/DTD/svg11.dtd">
<!-- Generated by graphviz version 2.36.0 (20140111.2315)
 -->
<!-- Title: TGUINeedle_Surrogate_Stats_Record Pages: 1 -->
<svg width="236pt" height="420pt"
 viewBox="0.00 0.00 236.00 420.00" xmlns="http://www.w3.org/2000/svg" xmlns:xlink="http://www.w3.org/1999/xlink">
<g id="graph0" class="graph" transform="scale(1 1) rotate(0) translate(4 416)">
<title>TGUINeedle_Surrogate_Stats_Record</title>
<polygon fill="white" stroke="none" points="-4,4 -4,-416 232,-416 232,4 -4,4"/>
<!-- Node1 -->
<g id="node1" class="node"><title>Node1</title>
<polygon fill="#bfbfbf" stroke="black" points="0,-0.5 0,-123.5 128,-123.5 128,-0.5 0,-0.5"/>
<text text-anchor="start" x="8" y="-111.5" font-family="Helvetica,sans-Serif" font-size="10.00">TGUINeedle_Surrogate</text>
<text text-anchor="middle" x="64" y="-100.5" font-family="Helvetica,sans-Serif" font-size="10.00">_Stats_Record</text>
<polyline fill="none" stroke="black" points="0,-93.5 128,-93.5 "/>
<text text-anchor="middle" x="64" y="-81.5" font-family="Helvetica,sans-Serif" font-size="10.00"> </text>
<polyline fill="none" stroke="black" points="0,-74.5 128,-74.5 "/>
<text text-anchor="start" x="8" y="-62.5" font-family="Helvetica,sans-Serif" font-size="10.00">+ TGUINeedle_Surrogate</text>
<text text-anchor="start" x="8" y="-51.5" font-family="Helvetica,sans-Serif" font-size="10.00">_Stats_Record()</text>
<text text-anchor="start" x="8" y="-40.5" font-family="Helvetica,sans-Serif" font-size="10.00">+ GetDumpStr()</text>
<text text-anchor="start" x="8" y="-29.5" font-family="Helvetica,sans-Serif" font-size="10.00">~ SetCalcSection()</text>
<text text-anchor="start" x="8" y="-18.5" font-family="Helvetica,sans-Serif" font-size="10.00">~ SetDBValue()</text>
<text text-anchor="start" x="8" y="-7.5" font-family="Helvetica,sans-Serif" font-size="10.00">~ SetDisplayValue()</text>
</g>
<!-- Node2 -->
<g id="node2" class="node"><title>Node2</title>
<polygon fill="white" stroke="#bfbfbf" points="50.5,-354.5 50.5,-411.5 127.5,-411.5 127.5,-354.5 50.5,-354.5"/>
<text text-anchor="middle" x="89" y="-399.5" font-family="Helvetica,sans-Serif" font-size="10.00">AtomicInteger</text>
<polyline fill="none" stroke="#bfbfbf" points="50.5,-392.5 127.5,-392.5 "/>
<text text-anchor="middle" x="89" y="-380.5" font-family="Helvetica,sans-Serif" font-size="10.00"> </text>
<polyline fill="none" stroke="#bfbfbf" points="50.5,-373.5 127.5,-373.5 "/>
<text text-anchor="middle" x="89" y="-361.5" font-family="Helvetica,sans-Serif" font-size="10.00"> </text>
</g>
<!-- Node2&#45;&gt;Node1 -->
<g id="edge1" class="edge"><title>Node2&#45;&gt;Node1</title>
<path fill="none" stroke="#404040" d="M74.6716,-354.296C68.1912,-340.232 61.2633,-322.64 58,-306 46.9199,-249.499 49.3546,-184.2 54.0456,-135.531"/>
<polygon fill="none" stroke="#404040" points="54.052,-135.468 50.687,-129.09 55.28,-123.531 58.645,-129.909 54.052,-135.468"/>
<text text-anchor="middle" x="89.5" y="-241.5" font-family="Helvetica,sans-Serif" font-size="10.00"> &#45;fCalcSection</text>
</g>
<!-- Node3 -->
<g id="node3" class="node"><title>Node3</title>
<g id="a_node3"><a xlink:href="../../d2/df7/classppm__java_1_1util_1_1storage_1_1_t_atomic_double.html" target="_top" xlink:title="An thread safe double value. ">
<polygon fill="white" stroke="black" points="129.5,-182.5 129.5,-305.5 228.5,-305.5 228.5,-182.5 129.5,-182.5"/>
<text text-anchor="middle" x="179" y="-293.5" font-family="Helvetica,sans-Serif" font-size="10.00">TAtomicDouble</text>
<polyline fill="none" stroke="black" points="129.5,-286.5 228.5,-286.5 "/>
<text text-anchor="start" x="137.5" y="-274.5" font-family="Helvetica,sans-Serif" font-size="10.00">&#45; fValue</text>
<text text-anchor="start" x="137.5" y="-263.5" font-family="Helvetica,sans-Serif" font-size="10.00">&#45; gkLocked</text>
<text text-anchor="start" x="137.5" y="-252.5" font-family="Helvetica,sans-Serif" font-size="10.00">&#45; gkUnlocked</text>
<polyline fill="none" stroke="black" points="129.5,-245.5 228.5,-245.5 "/>
<text text-anchor="start" x="137.5" y="-233.5" font-family="Helvetica,sans-Serif" font-size="10.00">+ TAtomicDouble()</text>
<text text-anchor="start" x="137.5" y="-222.5" font-family="Helvetica,sans-Serif" font-size="10.00">+ Get()</text>
<text text-anchor="start" x="137.5" y="-211.5" font-family="Helvetica,sans-Serif" font-size="10.00">+ Set()</text>
<text text-anchor="start" x="137.5" y="-200.5" font-family="Helvetica,sans-Serif" font-size="10.00">&#45; _Lock()</text>
<text text-anchor="start" x="137.5" y="-189.5" font-family="Helvetica,sans-Serif" font-size="10.00">&#45; _Unlock()</text>
</a>
</g>
</g>
<!-- Node2&#45;&gt;Node3 -->
<g id="edge3" class="edge"><title>Node2&#45;&gt;Node3</title>
<path fill="none" stroke="#404040" d="M107.213,-354.276C114.58,-343.061 123.454,-329.553 132.412,-315.918"/>
<polygon fill="none" stroke="#404040" points="132.666,-315.531 132.617,-308.32 139.255,-305.501 139.303,-312.712 132.666,-315.531"/>
<text text-anchor="middle" x="140.5" y="-327.5" font-family="Helvetica,sans-Serif" font-size="10.00"> &#45;fLock</text>
</g>
<!-- Node3&#45;&gt;Node1 -->
<g id="edge2" class="edge"><title>Node3&#45;&gt;Node1</title>
<path fill="none" stroke="#404040" d="M140.227,-182.311C130.331,-166.822 119.605,-150.033 109.41,-134.076"/>
<polygon fill="none" stroke="#404040" points="109.261,-133.844 102.66,-130.941 102.801,-123.731 109.402,-126.634 109.261,-133.844"/>
<text text-anchor="middle" x="171" y="-156" font-family="Helvetica,sans-Serif" font-size="10.00"> &#45;fLastDisplayValue</text>
<text text-anchor="middle" x="171" y="-145" font-family="Helvetica,sans-Serif" font-size="10.00">&#45;fLastDBValue</text>
</g>
</g>
</svg>
