<?xml version="1.0" encoding="UTF-8" standalone="no"?>
<!DOCTYPE svg PUBLIC "-//W3C//DTD SVG 1.1//EN"
 "http://www.w3.org/Graphics/SVG/1.1/DTD/svg11.dtd">
<!-- Generated by graphviz version 2.36.0 (20140111.2315)
 -->
<!-- Title: TAtomicBuffer Pages: 1 -->
<!--zoomable 608 -->
<svg id="main" version="1.1" xmlns="http://www.w3.org/2000/svg" xmlns:xlink="http://www.w3.org/1999/xlink" xml:space="preserve" onload="init(evt)">
<style type="text/css"><![CDATA[
.edge:hover path { stroke: red; }
.edge:hover polygon { stroke: red; fill: red; }
]]></style>
<script type="text/javascript"><![CDATA[
var edges = document.getElementsByTagName('g');
if (edges && edges.length) {
  for (var i=0;i<edges.length;i++) {
    if (edges[i].id.substr(0,4)=='edge') {
      edges[i].setAttribute('class','edge');
    }
  }
}
]]></script>
        <defs>
                <circle id="rim" cx="0" cy="0" r="7"/>
                <circle id="rim2" cx="0" cy="0" r="3.5"/>
                <g id="zoomPlus">
                        <use xlink:href="#rim" fill="#404040">
                                <set attributeName="fill" to="#808080" begin="zoomplus.mouseover" end="zoomplus.mouseout"/>
                        </use>
                        <path d="M-4,0h8M0,-4v8" fill="none" stroke="white" stroke-width="1.5" pointer-events="none"/>
                </g>
                <g id="zoomMin">
                        <use xlink:href="#rim" fill="#404040">
                                <set attributeName="fill" to="#808080" begin="zoomminus.mouseover" end="zoomminus.mouseout"/>
                        </use>
                        <path d="M-4,0h8" fill="none" stroke="white" stroke-width="1.5" pointer-events="none"/>
                </g>
                <g id="dirArrow">
                        <path fill="none" stroke="white" stroke-width="1.5" d="M0,-3.0v7 M-2.5,-0.5L0,-3.0L2.5,-0.5"/>
                </g>
               <g id="resetDef">
                       <use xlink:href="#rim2" fill="#404040">
                               <set attributeName="fill" to="#808080" begin="reset.mouseover" end="reset.mouseout"/>
                       </use>
               </g>
        </defs>

<script type="text/javascript">
var viewWidth = 694;
var viewHeight = 608;
var sectionId = 'dynsection-1';
</script>
<script xlink:href="../../svgpan.js"/>
<svg id="graph" class="graph">
<g id="viewport">
<title>TAtomicBuffer</title>
<polygon fill="white" stroke="none" points="-4,4 -4,-604 690,-604 690,4 -4,4"/>
<!-- Node1 -->
<g id="node1" class="node"><title>Node1</title>
<polygon fill="#bfbfbf" stroke="black" points="251.5,-0.5 251.5,-233.5 358.5,-233.5 358.5,-0.5 251.5,-0.5"/>
<text text-anchor="middle" x="305" y="-221.5" font-family="Helvetica,sans-Serif" font-size="10.00">TAtomicBuffer</text>
<polyline fill="none" stroke="black" points="251.5,-214.5 358.5,-214.5 "/>
<text text-anchor="start" x="259.5" y="-202.5" font-family="Helvetica,sans-Serif" font-size="10.00">&#45; fHasBeenCollected</text>
<text text-anchor="start" x="259.5" y="-191.5" font-family="Helvetica,sans-Serif" font-size="10.00">&#45; gkLocked</text>
<text text-anchor="start" x="259.5" y="-180.5" font-family="Helvetica,sans-Serif" font-size="10.00">&#45; gkUnlocked</text>
<polyline fill="none" stroke="black" points="251.5,-173.5 358.5,-173.5 "/>
<text text-anchor="start" x="259.5" y="-161.5" font-family="Helvetica,sans-Serif" font-size="10.00">+ TAtomicBuffer()</text>
<text text-anchor="start" x="259.5" y="-150.5" font-family="Helvetica,sans-Serif" font-size="10.00">+ TAtomicBuffer()</text>
<text text-anchor="start" x="259.5" y="-139.5" font-family="Helvetica,sans-Serif" font-size="10.00">+ TAtomicBuffer()</text>
<text text-anchor="start" x="259.5" y="-128.5" font-family="Helvetica,sans-Serif" font-size="10.00">+ Get()</text>
<text text-anchor="start" x="259.5" y="-117.5" font-family="Helvetica,sans-Serif" font-size="10.00">+ IsLocked()</text>
<text text-anchor="start" x="259.5" y="-106.5" font-family="Helvetica,sans-Serif" font-size="10.00">+ Set()</text>
<text text-anchor="start" x="259.5" y="-95.5" font-family="Helvetica,sans-Serif" font-size="10.00">+ StatsClear()</text>
<text text-anchor="start" x="259.5" y="-84.5" font-family="Helvetica,sans-Serif" font-size="10.00">+ StatsGet()</text>
<text text-anchor="start" x="259.5" y="-73.5" font-family="Helvetica,sans-Serif" font-size="10.00">&#45; _DataGet()</text>
<text text-anchor="start" x="259.5" y="-62.5" font-family="Helvetica,sans-Serif" font-size="10.00">&#45; _DataSet()</text>
<text text-anchor="start" x="259.5" y="-51.5" font-family="Helvetica,sans-Serif" font-size="10.00">&#45; _GetDeepCopy()</text>
<text text-anchor="start" x="259.5" y="-40.5" font-family="Helvetica,sans-Serif" font-size="10.00">&#45; _Init()</text>
<text text-anchor="start" x="259.5" y="-29.5" font-family="Helvetica,sans-Serif" font-size="10.00">&#45; _Lock()</text>
<text text-anchor="start" x="259.5" y="-18.5" font-family="Helvetica,sans-Serif" font-size="10.00">&#45; _TryLock()</text>
<text text-anchor="start" x="259.5" y="-7.5" font-family="Helvetica,sans-Serif" font-size="10.00">&#45; _Unlock()</text>
</g>
<!-- Node2 -->
<g id="node2" class="node"><title>Node2</title>
<g id="a_node2"><a xlink:href="../../dc/dc0/interfaceppm__java_1_1typelib_1_1_i_stat_enabled.html" target="_top" xlink:title="Interface for an object that supports runtime statistics. ">
<polygon fill="white" stroke="black" points="-0.5,-359.5 -0.5,-416.5 72.5,-416.5 72.5,-359.5 -0.5,-359.5"/>
<text text-anchor="middle" x="36" y="-404.5" font-family="Helvetica,sans-Serif" font-size="10.00">IStatEnabled</text>
<polyline fill="none" stroke="black" points="-0.5,-397.5 72.5,-397.5 "/>
<text text-anchor="middle" x="36" y="-385.5" font-family="Helvetica,sans-Serif" font-size="10.00"> </text>
<polyline fill="none" stroke="black" points="-0.5,-378.5 72.5,-378.5 "/>
<text text-anchor="start" x="7.5" y="-366.5" font-family="Helvetica,sans-Serif" font-size="10.00">+ StatsGet()</text>
</a>
</g>
</g>
<!-- Node2&#45;&gt;Node1 -->
<g id="edge1" class="edge"><title>Node2&#45;&gt;Node1</title>
<path fill="none" stroke="midnightblue" d="M45.8282,-349.518C54.8983,-320.441 70.6883,-280.432 95,-252 138.003,-201.708 204.614,-163.667 251.254,-141.197"/>
<polygon fill="none" stroke="midnightblue" points="42.4117,-348.727 42.8972,-359.31 49.1178,-350.734 42.4117,-348.727"/>
</g>
<!-- Node3 -->
<g id="node3" class="node"><title>Node3</title>
<polygon fill="white" stroke="#bfbfbf" points="75.5,-542.5 75.5,-599.5 152.5,-599.5 152.5,-542.5 75.5,-542.5"/>
<text text-anchor="middle" x="114" y="-587.5" font-family="Helvetica,sans-Serif" font-size="10.00">AtomicInteger</text>
<polyline fill="none" stroke="#bfbfbf" points="75.5,-580.5 152.5,-580.5 "/>
<text text-anchor="middle" x="114" y="-568.5" font-family="Helvetica,sans-Serif" font-size="10.00"> </text>
<polyline fill="none" stroke="#bfbfbf" points="75.5,-561.5 152.5,-561.5 "/>
<text text-anchor="middle" x="114" y="-549.5" font-family="Helvetica,sans-Serif" font-size="10.00"> </text>
</g>
<!-- Node3&#45;&gt;Node1 -->
<g id="edge2" class="edge"><title>Node3&#45;&gt;Node1</title>
<path fill="none" stroke="#404040" d="M107.26,-542.18C95.823,-488.822 77.5612,-369.628 118,-282 143.461,-226.827 197.434,-182.756 240.88,-154.253"/>
<polygon fill="none" stroke="#404040" points="241.002,-154.175 243.896,-147.57 251.106,-147.701 248.212,-154.306 241.002,-154.175"/>
<text text-anchor="middle" x="132" y="-385.5" font-family="Helvetica,sans-Serif" font-size="10.00"> &#45;fFlag</text>
</g>
<!-- Node7 -->
<g id="node7" class="node"><title>Node7</title>
<g id="a_node7"><a xlink:href="../../d4/dc0/classppm__java_1_1util_1_1storage_1_1atomic_buffer_1_1_t_atomic_buffer___stats.html" target="_top" xlink:title="Runtime statistics of a TAtomicBuffer. ">
<polygon fill="white" stroke="black" points="155,-282.5 155,-493.5 283,-493.5 283,-282.5 155,-282.5"/>
<text text-anchor="middle" x="219" y="-481.5" font-family="Helvetica,sans-Serif" font-size="10.00">TAtomicBuffer_Stats</text>
<polyline fill="none" stroke="black" points="155,-474.5 283,-474.5 "/>
<text text-anchor="start" x="163" y="-462.5" font-family="Helvetica,sans-Serif" font-size="10.00">~ fNumContentions</text>
<text text-anchor="start" x="163" y="-451.5" font-family="Helvetica,sans-Serif" font-size="10.00">~ fNumOverruns</text>
<text text-anchor="start" x="163" y="-440.5" font-family="Helvetica,sans-Serif" font-size="10.00">&#45; fNumUnderruns</text>
<text text-anchor="start" x="163" y="-429.5" font-family="Helvetica,sans-Serif" font-size="10.00">&#45; gkLocked</text>
<text text-anchor="start" x="163" y="-418.5" font-family="Helvetica,sans-Serif" font-size="10.00">&#45; gkUnlocked</text>
<polyline fill="none" stroke="black" points="155,-411.5 283,-411.5 "/>
<text text-anchor="start" x="163" y="-399.5" font-family="Helvetica,sans-Serif" font-size="10.00">+ TAtomicBuffer_Stats()</text>
<text text-anchor="start" x="163" y="-388.5" font-family="Helvetica,sans-Serif" font-size="10.00">+ Clear()</text>
<text text-anchor="start" x="163" y="-377.5" font-family="Helvetica,sans-Serif" font-size="10.00">+ GetDumpStr()</text>
<text text-anchor="start" x="163" y="-366.5" font-family="Helvetica,sans-Serif" font-size="10.00">+ GetRecord()</text>
<text text-anchor="start" x="163" y="-355.5" font-family="Helvetica,sans-Serif" font-size="10.00">~ IncrementContentions()</text>
<text text-anchor="start" x="163" y="-344.5" font-family="Helvetica,sans-Serif" font-size="10.00">~ IncrementOverruns()</text>
<text text-anchor="start" x="163" y="-333.5" font-family="Helvetica,sans-Serif" font-size="10.00">~ IncrementUnderruns()</text>
<text text-anchor="start" x="163" y="-322.5" font-family="Helvetica,sans-Serif" font-size="10.00">&#45; _Clear()</text>
<text text-anchor="start" x="163" y="-311.5" font-family="Helvetica,sans-Serif" font-size="10.00">&#45; _Increment()</text>
<text text-anchor="start" x="163" y="-300.5" font-family="Helvetica,sans-Serif" font-size="10.00">&#45; _Lock()</text>
<text text-anchor="start" x="163" y="-289.5" font-family="Helvetica,sans-Serif" font-size="10.00">&#45; _Unlock()</text>
</a>
</g>
</g>
<!-- Node3&#45;&gt;Node7 -->
<g id="edge8" class="edge"><title>Node3&#45;&gt;Node7</title>
<path fill="none" stroke="#404040" d="M130.176,-542.115C136.411,-531.369 143.985,-518.311 152.054,-504.403"/>
<polygon fill="none" stroke="#404040" points="152.284,-504.005 151.835,-496.808 158.306,-493.625 158.755,-500.822 152.284,-504.005"/>
<text text-anchor="middle" x="161.5" y="-515.5" font-family="Helvetica,sans-Serif" font-size="10.00"> &#45;fLock</text>
</g>
<!-- Node4 -->
<g id="node4" class="node"><title>Node4</title>
<polygon fill="white" stroke="#bfbfbf" points="301.5,-359.5 301.5,-416.5 366.5,-416.5 366.5,-359.5 301.5,-359.5"/>
<text text-anchor="middle" x="334" y="-404.5" font-family="Helvetica,sans-Serif" font-size="10.00">FloatBuffer</text>
<polyline fill="none" stroke="#bfbfbf" points="301.5,-397.5 366.5,-397.5 "/>
<text text-anchor="middle" x="334" y="-385.5" font-family="Helvetica,sans-Serif" font-size="10.00"> </text>
<polyline fill="none" stroke="#bfbfbf" points="301.5,-378.5 366.5,-378.5 "/>
<text text-anchor="middle" x="334" y="-366.5" font-family="Helvetica,sans-Serif" font-size="10.00"> </text>
</g>
<!-- Node4&#45;&gt;Node1 -->
<g id="edge3" class="edge"><title>Node4&#45;&gt;Node1</title>
<path fill="none" stroke="#404040" d="M331.033,-359.476C328.097,-332.243 323.386,-288.543 318.773,-245.756"/>
<polygon fill="none" stroke="#404040" points="318.762,-245.657 314.142,-240.121 317.476,-233.726 322.096,-239.263 318.762,-245.657"/>
<text text-anchor="middle" x="339" y="-255.5" font-family="Helvetica,sans-Serif" font-size="10.00"> &#45;fBuffer</text>
</g>
<!-- Node5 -->
<g id="node5" class="node"><title>Node5</title>
<g id="a_node5"><a xlink:href="../../df/d84/enumppm__java_1_1util_1_1storage_1_1atomic_buffer_1_1_e_atomic_buffer___if_invalid_policy.html" target="_top" xlink:title="The Invalid data policy. ">
<polygon fill="white" stroke="black" points="384.5,-354 384.5,-422 531.5,-422 531.5,-354 384.5,-354"/>
<text text-anchor="middle" x="458" y="-410" font-family="Helvetica,sans-Serif" font-size="10.00">EAtomicBuffer_IfInvalidPolicy</text>
<polyline fill="none" stroke="black" points="384.5,-403 531.5,-403 "/>
<text text-anchor="start" x="392.5" y="-391" font-family="Helvetica,sans-Serif" font-size="10.00">+ kReturnEmpty</text>
<text text-anchor="start" x="392.5" y="-380" font-family="Helvetica,sans-Serif" font-size="10.00">+ kReturnNull</text>
<polyline fill="none" stroke="black" points="384.5,-373 531.5,-373 "/>
<text text-anchor="middle" x="458" y="-361" font-family="Helvetica,sans-Serif" font-size="10.00"> </text>
</a>
</g>
</g>
<!-- Node5&#45;&gt;Node1 -->
<g id="edge4" class="edge"><title>Node5&#45;&gt;Node1</title>
<path fill="none" stroke="#404040" d="M439.086,-353.746C420.466,-321.009 391.043,-269.279 364.498,-222.607"/>
<polygon fill="none" stroke="#404040" points="364.463,-222.545 358.019,-219.308 358.53,-212.115 364.973,-215.352 364.463,-222.545"/>
<text text-anchor="middle" x="422.5" y="-255.5" font-family="Helvetica,sans-Serif" font-size="10.00"> &#45;fIfInvalidPolicy</text>
</g>
<!-- Node6 -->
<g id="node6" class="node"><title>Node6</title>
<g id="a_node6"><a xlink:href="../../d4/d79/enumppm__java_1_1util_1_1storage_1_1atomic_buffer_1_1_e_atomic_buffer___copy_policy.html" target="_top" xlink:title="The Copy policy. ">
<polygon fill="white" stroke="black" points="550,-348.5 550,-427.5 686,-427.5 686,-348.5 550,-348.5"/>
<text text-anchor="middle" x="618" y="-415.5" font-family="Helvetica,sans-Serif" font-size="10.00">EAtomicBuffer_CopyPolicy</text>
<polyline fill="none" stroke="black" points="550,-408.5 686,-408.5 "/>
<text text-anchor="start" x="558" y="-396.5" font-family="Helvetica,sans-Serif" font-size="10.00">+ kCopyOnGet</text>
<text text-anchor="start" x="558" y="-385.5" font-family="Helvetica,sans-Serif" font-size="10.00">+ kCopyOnSet</text>
<text text-anchor="start" x="558" y="-374.5" font-family="Helvetica,sans-Serif" font-size="10.00">+ kNoCopy</text>
<polyline fill="none" stroke="black" points="550,-367.5 686,-367.5 "/>
<text text-anchor="middle" x="618" y="-355.5" font-family="Helvetica,sans-Serif" font-size="10.00"> </text>
</a>
</g>
</g>
<!-- Node6&#45;&gt;Node1 -->
<g id="edge5" class="edge"><title>Node6&#45;&gt;Node1</title>
<path fill="none" stroke="#404040" d="M593.799,-348.438C579.593,-327.474 560.448,-301.851 540,-282 487.845,-231.367 418.675,-185.109 368.901,-154.725"/>
<polygon fill="none" stroke="#404040" points="368.855,-154.698 361.651,-155.015 358.587,-148.487 365.792,-148.17 368.855,-154.698"/>
<text text-anchor="middle" x="548" y="-255.5" font-family="Helvetica,sans-Serif" font-size="10.00"> &#45;fCopyPolicy</text>
</g>
<!-- Node7&#45;&gt;Node1 -->
<g id="edge6" class="edge"><title>Node7&#45;&gt;Node1</title>
<path fill="none" stroke="#404040" d="M252.496,-282.227C256.356,-270.154 260.324,-257.744 264.266,-245.413"/>
<polygon fill="none" stroke="#404040" points="264.379,-245.059 262.396,-238.126 268.033,-233.629 270.016,-240.562 264.379,-245.059"/>
<text text-anchor="middle" x="278.5" y="-255.5" font-family="Helvetica,sans-Serif" font-size="10.00"> &#45;fStats</text>
</g>
<!-- Node8 -->
<g id="node8" class="node"><title>Node8</title>
<g id="a_node8"><a xlink:href="../../d7/d5a/interfaceppm__java_1_1typelib_1_1_i_stats.html" target="_top" xlink:title="Interface for a statistics record. ">
<polygon fill="white" stroke="black" points="176,-542.5 176,-599.5 262,-599.5 262,-542.5 176,-542.5"/>
<text text-anchor="middle" x="219" y="-587.5" font-family="Helvetica,sans-Serif" font-size="10.00">IStats</text>
<polyline fill="none" stroke="black" points="176,-580.5 262,-580.5 "/>
<text text-anchor="middle" x="219" y="-568.5" font-family="Helvetica,sans-Serif" font-size="10.00"> </text>
<polyline fill="none" stroke="black" points="176,-561.5 262,-561.5 "/>
<text text-anchor="start" x="184" y="-549.5" font-family="Helvetica,sans-Serif" font-size="10.00">+ GetDumpStr()</text>
</a>
</g>
</g>
<!-- Node8&#45;&gt;Node7 -->
<g id="edge7" class="edge"><title>Node8&#45;&gt;Node7</title>
<path fill="none" stroke="midnightblue" d="M219,-532.07C219,-520.56 219,-507.314 219,-493.625"/>
<polygon fill="none" stroke="midnightblue" points="215.5,-532.115 219,-542.115 222.5,-532.115 215.5,-532.115"/>
</g>
</g>
</svg>
        <g id="navigator" transform="translate(0 0)" fill="#404254">
                <rect fill="#f2f5e9" fill-opacity="0.5" stroke="#606060" stroke-width=".5" x="0" y="0" width="60" height="60"/>
                <use id="zoomplus" xlink:href="#zoomPlus" x="17" y="9" onmousedown="handleZoom(evt,'in')"/>
                <use id="zoomminus" xlink:href="#zoomMin" x="42" y="9" onmousedown="handleZoom(evt,'out')"/>
                <use id="reset" xlink:href="#resetDef" x="30" y="36" onmousedown="handleReset()"/>
                <g id="arrowUp" xlink:href="#dirArrow" transform="translate(30 24)" onmousedown="handlePan(0,-1)">
                  <use xlink:href="#rim" fill="#404040">
                        <set attributeName="fill" to="#808080" begin="arrowUp.mouseover" end="arrowUp.mouseout"/>
                  </use>
                  <path fill="none" stroke="white" stroke-width="1.5" d="M0,-3.0v7 M-2.5,-0.5L0,-3.0L2.5,-0.5"/>
                </g>
                <g id="arrowRight" xlink:href="#dirArrow" transform="rotate(90) translate(36 -43)" onmousedown="handlePan(1,0)">
                  <use xlink:href="#rim" fill="#404040">
                        <set attributeName="fill" to="#808080" begin="arrowRight.mouseover" end="arrowRight.mouseout"/>
                  </use>
                  <path fill="none" stroke="white" stroke-width="1.5" d="M0,-3.0v7 M-2.5,-0.5L0,-3.0L2.5,-0.5"/>
                </g>
                <g id="arrowDown" xlink:href="#dirArrow" transform="rotate(180) translate(-30 -48)" onmousedown="handlePan(0,1)">
                  <use xlink:href="#rim" fill="#404040">
                        <set attributeName="fill" to="#808080" begin="arrowDown.mouseover" end="arrowDown.mouseout"/>
                  </use>
                  <path fill="none" stroke="white" stroke-width="1.5" d="M0,-3.0v7 M-2.5,-0.5L0,-3.0L2.5,-0.5"/>
                </g>
                <g id="arrowLeft" xlink:href="#dirArrow" transform="rotate(270) translate(-36 17)" onmousedown="handlePan(-1,0)">
                  <use xlink:href="#rim" fill="#404040">
                        <set attributeName="fill" to="#808080" begin="arrowLeft.mouseover" end="arrowLeft.mouseout"/>
                  </use>
                  <path fill="none" stroke="white" stroke-width="1.5" d="M0,-3.0v7 M-2.5,-0.5L0,-3.0L2.5,-0.5"/>
                </g>
        </g>
        <svg viewBox="0 0 15 15" width="100%" height="30px" preserveAspectRatio="xMaxYMin meet">
         <g id="arrow_out" transform="scale(0.3 0.3)">
          <a xlink:href="classppm__java_1_1util_1_1storage_1_1atomic_buffer_1_1_t_atomic_buffer__coll__graph_org.svg" target="_base">
           <rect id="button" ry="5" rx="5" y="6" x="6" height="38" width="38"
                fill="#f2f5e9" fill-opacity="0.5" stroke="#606060" stroke-width="1.0"/>
           <path id="arrow"
             d="M 11.500037,31.436501 C 11.940474,20.09759 22.043105,11.32322 32.158766,21.979434 L 37.068811,17.246167 C 37.068811,17.246167 37.088388,32 37.088388,32 L 22.160133,31.978069 C 22.160133,31.978069 26.997745,27.140456 26.997745,27.140456 C 18.528582,18.264221 13.291696,25.230495 11.500037,31.436501 z"
             style="fill:#404040;"/>
          </a>
         </g>
        </svg>
</svg>
