<?xml version="1.0" encoding="UTF-8" standalone="no"?>
<!DOCTYPE svg PUBLIC "-//W3C//DTD SVG 1.1//EN"
 "http://www.w3.org/Graphics/SVG/1.1/DTD/svg11.dtd">
<!-- Generated by graphviz version 2.36.0 (20140111.2315)
 -->
<!-- Title: TAtomicBuffer Pages: 1 -->
<!--zoomable 642 -->
<svg id="main" version="1.1" xmlns="http://www.w3.org/2000/svg" xmlns:xlink="http://www.w3.org/1999/xlink" xml:space="preserve" onload="init(evt)">
<style type="text/css"><![CDATA[
.edge:hover path { stroke: red; }
.edge:hover polygon { stroke: red; fill: red; }
]]></style>
<script type="text/javascript"><![CDATA[
var edges = document.getElementsByTagName('g');
if (edges && edges.length) {
  for (var i=0;i<edges.length;i++) {
    if (edges[i].id.substr(0,4)=='edge') {
      edges[i].setAttribute('class','edge');
    }
  }
}
]]></script>
        <defs>
                <circle id="rim" cx="0" cy="0" r="7"/>
                <circle id="rim2" cx="0" cy="0" r="3.5"/>
                <g id="zoomPlus">
                        <use xlink:href="#rim" fill="#404040">
                                <set attributeName="fill" to="#808080" begin="zoomplus.mouseover" end="zoomplus.mouseout"/>
                        </use>
                        <path d="M-4,0h8M0,-4v8" fill="none" stroke="white" stroke-width="1.5" pointer-events="none"/>
                </g>
                <g id="zoomMin">
                        <use xlink:href="#rim" fill="#404040">
                                <set attributeName="fill" to="#808080" begin="zoomminus.mouseover" end="zoomminus.mouseout"/>
                        </use>
                        <path d="M-4,0h8" fill="none" stroke="white" stroke-width="1.5" pointer-events="none"/>
                </g>
                <g id="dirArrow">
                        <path fill="none" stroke="white" stroke-width="1.5" d="M0,-3.0v7 M-2.5,-0.5L0,-3.0L2.5,-0.5"/>
                </g>
               <g id="resetDef">
                       <use xlink:href="#rim2" fill="#404040">
                               <set attributeName="fill" to="#808080" begin="reset.mouseover" end="reset.mouseout"/>
                       </use>
               </g>
        </defs>

<script type="text/javascript">
var viewWidth = 694;
var viewHeight = 642;
var sectionId = 'dynsection-1';
</script>
<script xlink:href="../../svgpan.js"/>
<svg id="graph" class="graph">
<g id="viewport">
<title>TAtomicBuffer</title>
<polygon fill="white" stroke="none" points="-4,4 -4,-638 690,-638 690,4 -4,4"/>
<!-- Node1 -->
<g id="node1" class="node"><title>Node1</title>
<polygon fill="#bfbfbf" stroke="black" points="251.5,-0.5 251.5,-233.5 358.5,-233.5 358.5,-0.5 251.5,-0.5"/>
<text text-anchor="middle" x="305" y="-221.5" font-family="Helvetica,sans-Serif" font-size="10.00">TAtomicBuffer</text>
<polyline fill="none" stroke="black" points="251.5,-214.5 358.5,-214.5 "/>
<text text-anchor="start" x="259.5" y="-202.5" font-family="Helvetica,sans-Serif" font-size="10.00">&#45; fHasBeenCollected</text>
<text text-anchor="start" x="259.5" y="-191.5" font-family="Helvetica,sans-Serif" font-size="10.00">&#45; gkLocked</text>
<text text-anchor="start" x="259.5" y="-180.5" font-family="Helvetica,sans-Serif" font-size="10.00">&#45; gkUnlocked</text>
<polyline fill="none" stroke="black" points="251.5,-173.5 358.5,-173.5 "/>
<text text-anchor="start" x="259.5" y="-161.5" font-family="Helvetica,sans-Serif" font-size="10.00">+ TAtomicBuffer()</text>
<text text-anchor="start" x="259.5" y="-150.5" font-family="Helvetica,sans-Serif" font-size="10.00">+ TAtomicBuffer()</text>
<text text-anchor="start" x="259.5" y="-139.5" font-family="Helvetica,sans-Serif" font-size="10.00">+ TAtomicBuffer()</text>
<text text-anchor="start" x="259.5" y="-128.5" font-family="Helvetica,sans-Serif" font-size="10.00">+ Get()</text>
<text text-anchor="start" x="259.5" y="-117.5" font-family="Helvetica,sans-Serif" font-size="10.00">+ IsLocked()</text>
<text text-anchor="start" x="259.5" y="-106.5" font-family="Helvetica,sans-Serif" font-size="10.00">+ Set()</text>
<text text-anchor="start" x="259.5" y="-95.5" font-family="Helvetica,sans-Serif" font-size="10.00">+ StatsClear()</text>
<text text-anchor="start" x="259.5" y="-84.5" font-family="Helvetica,sans-Serif" font-size="10.00">+ StatsGet()</text>
<text text-anchor="start" x="259.5" y="-73.5" font-family="Helvetica,sans-Serif" font-size="10.00">&#45; _DataGet()</text>
<text text-anchor="start" x="259.5" y="-62.5" font-family="Helvetica,sans-Serif" font-size="10.00">&#45; _DataSet()</text>
<text text-anchor="start" x="259.5" y="-51.5" font-family="Helvetica,sans-Serif" font-size="10.00">&#45; _GetDeepCopy()</text>
<text text-anchor="start" x="259.5" y="-40.5" font-family="Helvetica,sans-Serif" font-size="10.00">&#45; _Init()</text>
<text text-anchor="start" x="259.5" y="-29.5" font-family="Helvetica,sans-Serif" font-size="10.00">&#45; _Lock()</text>
<text text-anchor="start" x="259.5" y="-18.5" font-family="Helvetica,sans-Serif" font-size="10.00">&#45; _TryLock()</text>
<text text-anchor="start" x="259.5" y="-7.5" font-family="Helvetica,sans-Serif" font-size="10.00">&#45; _Unlock()</text>
</g>
<!-- Node2 -->
<g id="node2" class="node"><title>Node2</title>
<g id="a_node2"><a xlink:href="../../dc/dc0/interfaceppm__java_1_1typelib_1_1_i_stat_enabled.html" target="_top" xlink:title="Interface for an object that supports runtime statistics. ">
<polygon fill="white" stroke="black" points="-0.5,-376.5 -0.5,-433.5 72.5,-433.5 72.5,-376.5 -0.5,-376.5"/>
<text text-anchor="middle" x="36" y="-421.5" font-family="Helvetica,sans-Serif" font-size="10.00">IStatEnabled</text>
<polyline fill="none" stroke="black" points="-0.5,-414.5 72.5,-414.5 "/>
<text text-anchor="middle" x="36" y="-402.5" font-family="Helvetica,sans-Serif" font-size="10.00"> </text>
<polyline fill="none" stroke="black" points="-0.5,-395.5 72.5,-395.5 "/>
<text text-anchor="start" x="7.5" y="-383.5" font-family="Helvetica,sans-Serif" font-size="10.00">+ StatsGet()</text>
</a>
</g>
</g>
<!-- Node2&#45;&gt;Node1 -->
<g id="edge1" class="edge"><title>Node2&#45;&gt;Node1</title>
<path fill="none" stroke="midnightblue" d="M43.5375,-366.644C51.7097,-333.629 67.4378,-285.631 95,-252 137.08,-200.654 204.199,-162.706 251.2,-140.549"/>
<polygon fill="none" stroke="midnightblue" points="40.1312,-365.84 41.2391,-376.376 46.9438,-367.449 40.1312,-365.84"/>
</g>
<!-- Node3 -->
<g id="node3" class="node"><title>Node3</title>
<polygon fill="white" stroke="#bfbfbf" points="75.5,-576.5 75.5,-633.5 152.5,-633.5 152.5,-576.5 75.5,-576.5"/>
<text text-anchor="middle" x="114" y="-621.5" font-family="Helvetica,sans-Serif" font-size="10.00">AtomicInteger</text>
<polyline fill="none" stroke="#bfbfbf" points="75.5,-614.5 152.5,-614.5 "/>
<text text-anchor="middle" x="114" y="-602.5" font-family="Helvetica,sans-Serif" font-size="10.00"> </text>
<polyline fill="none" stroke="#bfbfbf" points="75.5,-595.5 152.5,-595.5 "/>
<text text-anchor="middle" x="114" y="-583.5" font-family="Helvetica,sans-Serif" font-size="10.00"> </text>
</g>
<!-- Node3&#45;&gt;Node1 -->
<g id="edge2" class="edge"><title>Node3&#45;&gt;Node1</title>
<path fill="none" stroke="#404040" d="M107.1,-576.073C94.2797,-518.098 72.0413,-381.782 118,-282 143.421,-226.808 197.397,-182.74 240.855,-154.242"/>
<polygon fill="none" stroke="#404040" points="240.979,-154.163 243.874,-147.558 251.084,-147.691 248.189,-154.295 240.979,-154.163"/>
<text text-anchor="middle" x="132" y="-402.5" font-family="Helvetica,sans-Serif" font-size="10.00"> &#45;fFlag</text>
</g>
<!-- Node7 -->
<g id="node7" class="node"><title>Node7</title>
<g id="a_node7"><a xlink:href="../../d4/dc0/classppm__java_1_1util_1_1storage_1_1atomic_buffer_1_1_t_atomic_buffer___stats.html" target="_top" xlink:title="Runtime statistics of a TAtomicBuffer. ">
<polygon fill="white" stroke="black" points="155,-283 155,-527 283,-527 283,-283 155,-283"/>
<text text-anchor="middle" x="219" y="-515" font-family="Helvetica,sans-Serif" font-size="10.00">TAtomicBuffer_Stats</text>
<polyline fill="none" stroke="black" points="155,-508 283,-508 "/>
<text text-anchor="start" x="163" y="-496" font-family="Helvetica,sans-Serif" font-size="10.00">&#45; fNumContentions</text>
<text text-anchor="start" x="163" y="-485" font-family="Helvetica,sans-Serif" font-size="10.00">&#45; fNumOverruns</text>
<text text-anchor="start" x="163" y="-474" font-family="Helvetica,sans-Serif" font-size="10.00">&#45; fNumUnderruns</text>
<text text-anchor="start" x="163" y="-463" font-family="Helvetica,sans-Serif" font-size="10.00">&#45; fTot_NumContentions</text>
<text text-anchor="start" x="163" y="-452" font-family="Helvetica,sans-Serif" font-size="10.00">&#45; fTot_NumOverruns</text>
<text text-anchor="start" x="163" y="-441" font-family="Helvetica,sans-Serif" font-size="10.00">&#45; fTot_NumUnderruns</text>
<text text-anchor="start" x="163" y="-430" font-family="Helvetica,sans-Serif" font-size="10.00">&#45; gkLocked</text>
<text text-anchor="start" x="163" y="-419" font-family="Helvetica,sans-Serif" font-size="10.00">&#45; gkUnlocked</text>
<polyline fill="none" stroke="black" points="155,-412 283,-412 "/>
<text text-anchor="start" x="163" y="-400" font-family="Helvetica,sans-Serif" font-size="10.00">+ TAtomicBuffer_Stats()</text>
<text text-anchor="start" x="163" y="-389" font-family="Helvetica,sans-Serif" font-size="10.00">+ Clear()</text>
<text text-anchor="start" x="163" y="-378" font-family="Helvetica,sans-Serif" font-size="10.00">+ GetDumpStr()</text>
<text text-anchor="start" x="163" y="-367" font-family="Helvetica,sans-Serif" font-size="10.00">+ GetRecord()</text>
<text text-anchor="start" x="163" y="-356" font-family="Helvetica,sans-Serif" font-size="10.00">~ IncrementContentions()</text>
<text text-anchor="start" x="163" y="-345" font-family="Helvetica,sans-Serif" font-size="10.00">~ IncrementOverruns()</text>
<text text-anchor="start" x="163" y="-334" font-family="Helvetica,sans-Serif" font-size="10.00">~ IncrementUnderruns()</text>
<text text-anchor="start" x="163" y="-323" font-family="Helvetica,sans-Serif" font-size="10.00">&#45; _Clear()</text>
<text text-anchor="start" x="163" y="-312" font-family="Helvetica,sans-Serif" font-size="10.00">&#45; _Increment()</text>
<text text-anchor="start" x="163" y="-301" font-family="Helvetica,sans-Serif" font-size="10.00">&#45; _Lock()</text>
<text text-anchor="start" x="163" y="-290" font-family="Helvetica,sans-Serif" font-size="10.00">&#45; _Unlock()</text>
</a>
</g>
</g>
<!-- Node3&#45;&gt;Node7 -->
<g id="edge8" class="edge"><title>Node3&#45;&gt;Node7</title>
<path fill="none" stroke="#404040" d="M128.6,-576.469C134.404,-565.524 141.531,-552.084 149.214,-537.596"/>
<polygon fill="none" stroke="#404040" points="149.274,-537.483 148.552,-530.308 154.896,-526.881 155.619,-534.056 149.274,-537.483"/>
<text text-anchor="middle" x="158.5" y="-549.5" font-family="Helvetica,sans-Serif" font-size="10.00"> &#45;fLock</text>
</g>
<!-- Node4 -->
<g id="node4" class="node"><title>Node4</title>
<polygon fill="white" stroke="#bfbfbf" points="301.5,-376.5 301.5,-433.5 366.5,-433.5 366.5,-376.5 301.5,-376.5"/>
<text text-anchor="middle" x="334" y="-421.5" font-family="Helvetica,sans-Serif" font-size="10.00">FloatBuffer</text>
<polyline fill="none" stroke="#bfbfbf" points="301.5,-414.5 366.5,-414.5 "/>
<text text-anchor="middle" x="334" y="-402.5" font-family="Helvetica,sans-Serif" font-size="10.00"> </text>
<polyline fill="none" stroke="#bfbfbf" points="301.5,-395.5 366.5,-395.5 "/>
<text text-anchor="middle" x="334" y="-383.5" font-family="Helvetica,sans-Serif" font-size="10.00"> </text>
</g>
<!-- Node4&#45;&gt;Node1 -->
<g id="edge3" class="edge"><title>Node4&#45;&gt;Node1</title>
<path fill="none" stroke="#404040" d="M331.193,-376.317C328.1,-345.818 322.907,-294.597 317.956,-245.771"/>
<polygon fill="none" stroke="#404040" points="317.948,-245.694 313.363,-240.128 316.737,-233.755 321.322,-239.321 317.948,-245.694"/>
<text text-anchor="middle" x="338" y="-255.5" font-family="Helvetica,sans-Serif" font-size="10.00"> &#45;fBuffer</text>
</g>
<!-- Node5 -->
<g id="node5" class="node"><title>Node5</title>
<g id="a_node5"><a xlink:href="../../df/d84/enumppm__java_1_1util_1_1storage_1_1atomic_buffer_1_1_e_atomic_buffer___if_invalid_policy.html" target="_top" xlink:title="The Invalid data policy. ">
<polygon fill="white" stroke="black" points="384.5,-371 384.5,-439 531.5,-439 531.5,-371 384.5,-371"/>
<text text-anchor="middle" x="458" y="-427" font-family="Helvetica,sans-Serif" font-size="10.00">EAtomicBuffer_IfInvalidPolicy</text>
<polyline fill="none" stroke="black" points="384.5,-420 531.5,-420 "/>
<text text-anchor="start" x="392.5" y="-408" font-family="Helvetica,sans-Serif" font-size="10.00">+ kReturnEmpty</text>
<text text-anchor="start" x="392.5" y="-397" font-family="Helvetica,sans-Serif" font-size="10.00">+ kReturnNull</text>
<polyline fill="none" stroke="black" points="384.5,-390 531.5,-390 "/>
<text text-anchor="middle" x="458" y="-378" font-family="Helvetica,sans-Serif" font-size="10.00"> </text>
</a>
</g>
</g>
<!-- Node5&#45;&gt;Node1 -->
<g id="edge4" class="edge"><title>Node5&#45;&gt;Node1</title>
<path fill="none" stroke="#404040" d="M440.299,-370.913C421.72,-336.182 391.488,-279.67 364.309,-228.865"/>
<polygon fill="none" stroke="#404040" points="364.222,-228.702 357.864,-225.298 358.561,-218.121 364.918,-221.524 364.222,-228.702"/>
<text text-anchor="middle" x="417.5" y="-255.5" font-family="Helvetica,sans-Serif" font-size="10.00"> &#45;fIfInvalidPolicy</text>
</g>
<!-- Node6 -->
<g id="node6" class="node"><title>Node6</title>
<g id="a_node6"><a xlink:href="../../d4/d79/enumppm__java_1_1util_1_1storage_1_1atomic_buffer_1_1_e_atomic_buffer___copy_policy.html" target="_top" xlink:title="The Copy policy. ">
<polygon fill="white" stroke="black" points="550,-365.5 550,-444.5 686,-444.5 686,-365.5 550,-365.5"/>
<text text-anchor="middle" x="618" y="-432.5" font-family="Helvetica,sans-Serif" font-size="10.00">EAtomicBuffer_CopyPolicy</text>
<polyline fill="none" stroke="black" points="550,-425.5 686,-425.5 "/>
<text text-anchor="start" x="558" y="-413.5" font-family="Helvetica,sans-Serif" font-size="10.00">+ kCopyOnGet</text>
<text text-anchor="start" x="558" y="-402.5" font-family="Helvetica,sans-Serif" font-size="10.00">+ kCopyOnSet</text>
<text text-anchor="start" x="558" y="-391.5" font-family="Helvetica,sans-Serif" font-size="10.00">+ kNoCopy</text>
<polyline fill="none" stroke="black" points="550,-384.5 686,-384.5 "/>
<text text-anchor="middle" x="618" y="-372.5" font-family="Helvetica,sans-Serif" font-size="10.00"> </text>
</a>
</g>
</g>
<!-- Node6&#45;&gt;Node1 -->
<g id="edge5" class="edge"><title>Node6&#45;&gt;Node1</title>
<path fill="none" stroke="#404040" d="M598.417,-365.247C584.366,-339.792 563.769,-306.75 540,-282 489.489,-229.404 419.781,-183.274 369.417,-153.447"/>
<polygon fill="none" stroke="#404040" points="369.333,-153.398 362.134,-153.817 358.978,-147.334 366.177,-146.914 369.333,-153.398"/>
<text text-anchor="middle" x="548" y="-255.5" font-family="Helvetica,sans-Serif" font-size="10.00"> &#45;fCopyPolicy</text>
</g>
<!-- Node7&#45;&gt;Node1 -->
<g id="edge6" class="edge"><title>Node7&#45;&gt;Node1</title>
<path fill="none" stroke="#404040" d="M255.472,-282.71C259.184,-270.365 262.962,-257.799 266.693,-245.392"/>
<polygon fill="none" stroke="#404040" points="266.796,-245.049 264.694,-238.151 270.252,-233.557 272.355,-240.455 266.796,-245.049"/>
<text text-anchor="middle" x="281.5" y="-255.5" font-family="Helvetica,sans-Serif" font-size="10.00"> &#45;fStats</text>
</g>
<!-- Node8 -->
<g id="node8" class="node"><title>Node8</title>
<g id="a_node8"><a xlink:href="../../d7/d5a/interfaceppm__java_1_1typelib_1_1_i_stats.html" target="_top" xlink:title="Interface for a statistics record. ">
<polygon fill="white" stroke="black" points="176,-576.5 176,-633.5 262,-633.5 262,-576.5 176,-576.5"/>
<text text-anchor="middle" x="219" y="-621.5" font-family="Helvetica,sans-Serif" font-size="10.00">IStats</text>
<polyline fill="none" stroke="black" points="176,-614.5 262,-614.5 "/>
<text text-anchor="middle" x="219" y="-602.5" font-family="Helvetica,sans-Serif" font-size="10.00"> </text>
<polyline fill="none" stroke="black" points="176,-595.5 262,-595.5 "/>
<text text-anchor="start" x="184" y="-583.5" font-family="Helvetica,sans-Serif" font-size="10.00">+ GetDumpStr()</text>
</a>
</g>
</g>
<!-- Node8&#45;&gt;Node7 -->
<g id="edge7" class="edge"><title>Node8&#45;&gt;Node7</title>
<path fill="none" stroke="midnightblue" d="M219,-566.39C219,-554.81 219,-541.38 219,-527.315"/>
<polygon fill="none" stroke="midnightblue" points="215.5,-566.469 219,-576.469 222.5,-566.469 215.5,-566.469"/>
</g>
</g>
</svg>
        <g id="navigator" transform="translate(0 0)" fill="#404254">
                <rect fill="#f2f5e9" fill-opacity="0.5" stroke="#606060" stroke-width=".5" x="0" y="0" width="60" height="60"/>
                <use id="zoomplus" xlink:href="#zoomPlus" x="17" y="9" onmousedown="handleZoom(evt,'in')"/>
                <use id="zoomminus" xlink:href="#zoomMin" x="42" y="9" onmousedown="handleZoom(evt,'out')"/>
                <use id="reset" xlink:href="#resetDef" x="30" y="36" onmousedown="handleReset()"/>
                <g id="arrowUp" xlink:href="#dirArrow" transform="translate(30 24)" onmousedown="handlePan(0,-1)">
                  <use xlink:href="#rim" fill="#404040">
                        <set attributeName="fill" to="#808080" begin="arrowUp.mouseover" end="arrowUp.mouseout"/>
                  </use>
                  <path fill="none" stroke="white" stroke-width="1.5" d="M0,-3.0v7 M-2.5,-0.5L0,-3.0L2.5,-0.5"/>
                </g>
                <g id="arrowRight" xlink:href="#dirArrow" transform="rotate(90) translate(36 -43)" onmousedown="handlePan(1,0)">
                  <use xlink:href="#rim" fill="#404040">
                        <set attributeName="fill" to="#808080" begin="arrowRight.mouseover" end="arrowRight.mouseout"/>
                  </use>
                  <path fill="none" stroke="white" stroke-width="1.5" d="M0,-3.0v7 M-2.5,-0.5L0,-3.0L2.5,-0.5"/>
                </g>
                <g id="arrowDown" xlink:href="#dirArrow" transform="rotate(180) translate(-30 -48)" onmousedown="handlePan(0,1)">
                  <use xlink:href="#rim" fill="#404040">
                        <set attributeName="fill" to="#808080" begin="arrowDown.mouseover" end="arrowDown.mouseout"/>
                  </use>
                  <path fill="none" stroke="white" stroke-width="1.5" d="M0,-3.0v7 M-2.5,-0.5L0,-3.0L2.5,-0.5"/>
                </g>
                <g id="arrowLeft" xlink:href="#dirArrow" transform="rotate(270) translate(-36 17)" onmousedown="handlePan(-1,0)">
                  <use xlink:href="#rim" fill="#404040">
                        <set attributeName="fill" to="#808080" begin="arrowLeft.mouseover" end="arrowLeft.mouseout"/>
                  </use>
                  <path fill="none" stroke="white" stroke-width="1.5" d="M0,-3.0v7 M-2.5,-0.5L0,-3.0L2.5,-0.5"/>
                </g>
        </g>
        <svg viewBox="0 0 15 15" width="100%" height="30px" preserveAspectRatio="xMaxYMin meet">
         <g id="arrow_out" transform="scale(0.3 0.3)">
          <a xlink:href="classppm__java_1_1util_1_1storage_1_1atomic_buffer_1_1_t_atomic_buffer__coll__graph_org.svg" target="_base">
           <rect id="button" ry="5" rx="5" y="6" x="6" height="38" width="38"
                fill="#f2f5e9" fill-opacity="0.5" stroke="#606060" stroke-width="1.0"/>
           <path id="arrow"
             d="M 11.500037,31.436501 C 11.940474,20.09759 22.043105,11.32322 32.158766,21.979434 L 37.068811,17.246167 C 37.068811,17.246167 37.088388,32 37.088388,32 L 22.160133,31.978069 C 22.160133,31.978069 26.997745,27.140456 26.997745,27.140456 C 18.528582,18.264221 13.291696,25.230495 11.500037,31.436501 z"
             style="fill:#404040;"/>
          </a>
         </g>
        </svg>
</svg>
