<?xml version="1.0" encoding="UTF-8" standalone="no"?>
<!DOCTYPE svg PUBLIC "-//W3C//DTD SVG 1.1//EN"
 "http://www.w3.org/Graphics/SVG/1.1/DTD/svg11.dtd">
<!-- Generated by graphviz version 2.36.0 (20140111.2315)
 -->
<!-- Title: CreateInstance Pages: 1 -->
<svg width="364pt" height="77pt"
 viewBox="0.00 0.00 364.00 77.00" xmlns="http://www.w3.org/2000/svg" xmlns:xlink="http://www.w3.org/1999/xlink">
<g id="graph0" class="graph" transform="scale(1 1) rotate(0) translate(4 73)">
<title>CreateInstance</title>
<polygon fill="white" stroke="none" points="-4,4 -4,-73 360,-73 360,4 -4,4"/>
<!-- Node1 -->
<g id="node1" class="node"><title>Node1</title>
<polygon fill="#bfbfbf" stroke="black" points="0.5,-22.5 0.5,-41.5 83.5,-41.5 83.5,-22.5 0.5,-22.5"/>
<text text-anchor="middle" x="42" y="-29.5" font-family="Helvetica,sans-Serif" font-size="10.00">CreateInstance</text>
</g>
<!-- Node2 -->
<g id="node2" class="node"><title>Node2</title>
<g id="a_node2"><a xlink:href="../../df/d79/classppm__java_1_1backend_1_1_t_controller.html#ab984ae717bee55f967c52f6b7a5d091e" target="_top" xlink:title="Looks up an audio object by ID. ">
<polygon fill="white" stroke="black" points="120,-39 120,-69 272,-69 272,-39 120,-39"/>
<text text-anchor="start" x="128" y="-57" font-family="Helvetica,sans-Serif" font-size="10.00">ppm_java.backend.TController.</text>
<text text-anchor="middle" x="196" y="-46" font-family="Helvetica,sans-Serif" font-size="10.00">GetObject</text>
</a>
</g>
</g>
<!-- Node1&#45;&gt;Node2 -->
<g id="edge1" class="edge"><title>Node1&#45;&gt;Node2</title>
<path fill="none" stroke="midnightblue" d="M83.7332,-37.8956C91.9348,-39.0827 100.84,-40.3716 109.922,-41.686"/>
<polygon fill="midnightblue" stroke="midnightblue" points="109.421,-45.15 119.819,-43.1186 110.424,-38.2221 109.421,-45.15"/>
</g>
<!-- Node3 -->
<g id="node3" class="node"><title>Node3</title>
<g id="a_node3"><a xlink:href="../../d7/d43/classppm__java_1_1backend_1_1_t_connection.html#a8ccbf90d445a6fb8dd00026b670f67ad" target="_top" xlink:title="cTor. ">
<polygon fill="white" stroke="black" points="160,-0.5 160,-19.5 232,-19.5 232,-0.5 160,-0.5"/>
<text text-anchor="middle" x="196" y="-7.5" font-family="Helvetica,sans-Serif" font-size="10.00">TConnection</text>
</a>
</g>
</g>
<!-- Node1&#45;&gt;Node3 -->
<g id="edge2" class="edge"><title>Node1&#45;&gt;Node3</title>
<path fill="none" stroke="midnightblue" d="M83.7332,-26.1044C104.138,-23.1511 128.9,-19.5672 149.879,-16.5306"/>
<polygon fill="midnightblue" stroke="midnightblue" points="150.443,-19.9856 159.839,-15.0891 149.44,-13.0578 150.443,-19.9856"/>
</g>
<!-- Node4 -->
<g id="node4" class="node"><title>Node4</title>
<g id="a_node4"><a xlink:href="../../d7/d43/classppm__java_1_1backend_1_1_t_connection.html#a163220239ee561b3890444af7653dcee" target="_top" xlink:title="_GetID">
<polygon fill="white" stroke="black" points="308,-0.5 308,-19.5 356,-19.5 356,-0.5 308,-0.5"/>
<text text-anchor="middle" x="332" y="-7.5" font-family="Helvetica,sans-Serif" font-size="10.00">_GetID</text>
</a>
</g>
</g>
<!-- Node3&#45;&gt;Node4 -->
<g id="edge3" class="edge"><title>Node3&#45;&gt;Node4</title>
<path fill="none" stroke="midnightblue" d="M232.207,-10C252.452,-10 277.738,-10 297.66,-10"/>
<polygon fill="midnightblue" stroke="midnightblue" points="297.822,-13.5001 307.822,-10 297.821,-6.5001 297.822,-13.5001"/>
</g>
</g>
</svg>
