<?xml version="1.0" encoding="UTF-8" standalone="no"?>
<!DOCTYPE svg PUBLIC "-//W3C//DTD SVG 1.1//EN"
 "http://www.w3.org/Graphics/SVG/1.1/DTD/svg11.dtd">
<!-- Generated by graphviz version 2.36.0 (20140111.2315)
 -->
<!-- Title: _GetID Pages: 1 -->
<svg width="284pt" height="28pt"
 viewBox="0.00 0.00 284.00 28.00" xmlns="http://www.w3.org/2000/svg" xmlns:xlink="http://www.w3.org/1999/xlink">
<g id="graph0" class="graph" transform="scale(1 1) rotate(0) translate(4 24)">
<title>_GetID</title>
<polygon fill="white" stroke="none" points="-4,4 -4,-24 280,-24 280,4 -4,4"/>
<!-- Node1 -->
<g id="node1" class="node"><title>Node1</title>
<polygon fill="#bfbfbf" stroke="black" points="0,-0.5 0,-19.5 48,-19.5 48,-0.5 0,-0.5"/>
<text text-anchor="middle" x="24" y="-7.5" font-family="Helvetica,sans-Serif" font-size="10.00">_GetID</text>
</g>
<!-- Node2 -->
<g id="node2" class="node"><title>Node2</title>
<g id="a_node2"><a xlink:href="../../d7/d43/classppm__java_1_1backend_1_1_t_connection.html#a8ccbf90d445a6fb8dd00026b670f67ad" target="_top" xlink:title="cTor. ">
<polygon fill="white" stroke="black" points="84,-0.5 84,-19.5 156,-19.5 156,-0.5 84,-0.5"/>
<text text-anchor="middle" x="120" y="-7.5" font-family="Helvetica,sans-Serif" font-size="10.00">TConnection</text>
</a>
</g>
</g>
<!-- Node1&#45;&gt;Node2 -->
<g id="edge1" class="edge"><title>Node1&#45;&gt;Node2</title>
<path fill="none" stroke="midnightblue" d="M58.3323,-10C66.6355,-10 75.5622,-10 83.9457,-10"/>
<polygon fill="midnightblue" stroke="midnightblue" points="58.236,-6.5001 48.236,-10 58.2359,-13.5001 58.236,-6.5001"/>
</g>
<!-- Node3 -->
<g id="node3" class="node"><title>Node3</title>
<g id="a_node3"><a xlink:href="../../d7/d43/classppm__java_1_1backend_1_1_t_connection.html#aa0e9df98c52772534f0f78b5eaaedd2a" target="_top" xlink:title="Creates a connection from endpoint idFromPort to endpoint idToPort. ">
<polygon fill="white" stroke="black" points="192.5,-0.5 192.5,-19.5 275.5,-19.5 275.5,-0.5 192.5,-0.5"/>
<text text-anchor="middle" x="234" y="-7.5" font-family="Helvetica,sans-Serif" font-size="10.00">CreateInstance</text>
</a>
</g>
</g>
<!-- Node2&#45;&gt;Node3 -->
<g id="edge2" class="edge"><title>Node2&#45;&gt;Node3</title>
<path fill="none" stroke="midnightblue" d="M166.315,-10C174.851,-10 183.731,-10 192.121,-10"/>
<polygon fill="midnightblue" stroke="midnightblue" points="166.13,-6.5001 156.13,-10 166.13,-13.5001 166.13,-6.5001"/>
</g>
</g>
</svg>
