<?xml version="1.0" encoding="UTF-8" standalone="no"?>
<!DOCTYPE svg PUBLIC "-//W3C//DTD SVG 1.1//EN"
 "http://www.w3.org/Graphics/SVG/1.1/DTD/svg11.dtd">
<!-- Generated by graphviz version 2.36.0 (20140111.2315)
 -->
<!-- Title: trial Pages: 1 -->
<svg width="596pt" height="111pt"
 viewBox="0.00 0.00 596.00 111.00" xmlns="http://www.w3.org/2000/svg" xmlns:xlink="http://www.w3.org/1999/xlink">
<g id="graph0" class="graph" transform="scale(1 1) rotate(0) translate(4 107)">
<title>trial</title>
<polygon fill="white" stroke="none" points="-4,4 -4,-107 592,-107 592,4 -4,4"/>
<g id="clust1" class="cluster"><title>clusterdir_ddcced566fb578f9b459289eaf15d930</title>
<g id="a_clust1"><a xlink:href="dir_ddcced566fb578f9b459289eaf15d930.html" target="_top" xlink:title="concept">
<polygon fill="#ddddee" stroke="black" points="8,-8 8,-95 580,-95 580,-8 8,-8"/>
<text text-anchor="middle" x="294" y="-83" font-family="Helvetica,sans-Serif" font-size="10.00">concept</text>
</a>
</g>
</g>
<g id="clust2" class="cluster"><title>clusterdir_6dbecfab4c321e19ed3a9cfdb0f60a35</title>
<g id="a_clust2"><a xlink:href="dir_6dbecfab4c321e19ed3a9cfdb0f60a35.html" target="_top">
<polygon fill="#eeeeff" stroke="black" points="16,-16 16,-68 572,-68 572,-16 16,-16"/>
</a>
</g>
</g>
<!-- dir_6dbecfab4c321e19ed3a9cfdb0f60a35 -->
<g id="node1" class="node"><title>dir_6dbecfab4c321e19ed3a9cfdb0f60a35</title>
<text text-anchor="middle" x="537" y="-39.5" font-family="Helvetica,sans-Serif" font-size="10.00">trial</text>
</g>
<!-- dir_f03ca5d6332983ee9cc5c3b56b9a8e9c -->
<g id="node2" class="node"><title>dir_f03ca5d6332983ee9cc5c3b56b9a8e9c</title>
<g id="a_node2"><a xlink:href="dir_f03ca5d6332983ee9cc5c3b56b9a8e9c.html" target="_top" xlink:title="call_virtual">
<polygon fill="white" stroke="red" points="491.25,-60 428.75,-60 428.75,-24 491.25,-24 491.25,-60"/>
<text text-anchor="middle" x="460" y="-39.5" font-family="Helvetica,sans-Serif" font-size="10.00">call_virtual</text>
</a>
</g>
</g>
<!-- dir_5e2b6aaa1e4bf3800b3b003dbe36c870 -->
<g id="node3" class="node"><title>dir_5e2b6aaa1e4bf3800b3b003dbe36c870</title>
<g id="a_node3"><a xlink:href="dir_5e2b6aaa1e4bf3800b3b003dbe36c870.html" target="_top" xlink:title="console">
<polygon fill="white" stroke="black" points="410,-60 356,-60 356,-24 410,-24 410,-60"/>
<text text-anchor="middle" x="383" y="-39.5" font-family="Helvetica,sans-Serif" font-size="10.00">console</text>
</a>
</g>
</g>
<!-- dir_c4bfb95084d49d3f37727893fc3c33df -->
<g id="node4" class="node"><title>dir_c4bfb95084d49d3f37727893fc3c33df</title>
<g id="a_node4"><a xlink:href="dir_c4bfb95084d49d3f37727893fc3c33df.html" target="_top" xlink:title="FloatBuffer">
<polygon fill="white" stroke="red" points="337.25,-60 272.75,-60 272.75,-24 337.25,-24 337.25,-60"/>
<text text-anchor="middle" x="305" y="-39.5" font-family="Helvetica,sans-Serif" font-size="10.00">FloatBuffer</text>
</a>
</g>
</g>
<!-- dir_b5b5118da0090fa58c66115a8f7652ab -->
<g id="node5" class="node"><title>dir_b5b5118da0090fa58c66115a8f7652ab</title>
<g id="a_node5"><a xlink:href="dir_b5b5118da0090fa58c66115a8f7652ab.html" target="_top" xlink:title="JJack">
<polygon fill="white" stroke="black" points="254,-60 200,-60 200,-24 254,-24 254,-60"/>
<text text-anchor="middle" x="227" y="-39.5" font-family="Helvetica,sans-Serif" font-size="10.00">JJack</text>
</a>
</g>
</g>
<!-- dir_ffae849a4f1167942a0782869cf74905 -->
<g id="node6" class="node"><title>dir_ffae849a4f1167942a0782869cf74905</title>
<g id="a_node6"><a xlink:href="dir_ffae849a4f1167942a0782869cf74905.html" target="_top" xlink:title="net_setup">
<polygon fill="white" stroke="red" points="181.25,-60 122.75,-60 122.75,-24 181.25,-24 181.25,-60"/>
<text text-anchor="middle" x="152" y="-39.5" font-family="Helvetica,sans-Serif" font-size="10.00">net_setup</text>
</a>
</g>
</g>
<!-- dir_2dfcd65e3c2d0fe01c1a4b49f0ba624d -->
<g id="node7" class="node"><title>dir_2dfcd65e3c2d0fe01c1a4b49f0ba624d</title>
<g id="a_node7"><a xlink:href="dir_2dfcd65e3c2d0fe01c1a4b49f0ba624d.html" target="_top" xlink:title="TAtomicBuffer">
<polygon fill="white" stroke="black" points="104,-60 24,-60 24,-24 104,-24 104,-60"/>
<text text-anchor="middle" x="64" y="-39.5" font-family="Helvetica,sans-Serif" font-size="10.00">TAtomicBuffer</text>
</a>
</g>
</g>
</g>
</svg>
