<?xml version="1.0" encoding="UTF-8" standalone="no"?>
<!DOCTYPE svg PUBLIC "-//W3C//DTD SVG 1.1//EN"
 "http://www.w3.org/Graphics/SVG/1.1/DTD/svg11.dtd">
<!-- Generated by graphviz version 2.36.0 (20140111.2315)
 -->
<!-- Title: example Pages: 1 -->
<svg width="436pt" height="111pt"
 viewBox="0.00 0.00 436.00 111.00" xmlns="http://www.w3.org/2000/svg" xmlns:xlink="http://www.w3.org/1999/xlink">
<g id="graph0" class="graph" transform="scale(1 1) rotate(0) translate(4 107)">
<title>example</title>
<polygon fill="white" stroke="none" points="-4,4 -4,-107 432,-107 432,4 -4,4"/>
<g id="clust1" class="cluster"><title>clusterdir_ddcced566fb578f9b459289eaf15d930</title>
<g id="a_clust1"><a xlink:href="dir_ddcced566fb578f9b459289eaf15d930.html" target="_top" xlink:title="concept">
<polygon fill="#ddddee" stroke="black" points="8,-8 8,-95 420,-95 420,-8 8,-8"/>
<text text-anchor="middle" x="214" y="-83" font-family="Helvetica,sans-Serif" font-size="10.00">concept</text>
</a>
</g>
</g>
<g id="clust2" class="cluster"><title>clusterdir_b9abe2979d23383bb0094cba3fc697b3</title>
<g id="a_clust2"><a xlink:href="dir_b9abe2979d23383bb0094cba3fc697b3.html" target="_top">
<polygon fill="#eeeeff" stroke="black" points="16,-16 16,-68 412,-68 412,-16 16,-16"/>
</a>
</g>
</g>
<!-- dir_b9abe2979d23383bb0094cba3fc697b3 -->
<g id="node1" class="node"><title>dir_b9abe2979d23383bb0094cba3fc697b3</title>
<text text-anchor="middle" x="377" y="-39.5" font-family="Helvetica,sans-Serif" font-size="10.00">example</text>
</g>
<!-- dir_89d1c72ded67c5e49285718414561d0d -->
<g id="node2" class="node"><title>dir_89d1c72ded67c5e49285718414561d0d</title>
<g id="a_node2"><a xlink:href="dir_89d1c72ded67c5e49285718414561d0d.html" target="_top" xlink:title="event">
<polygon fill="white" stroke="black" points="332,-60 278,-60 278,-24 332,-24 332,-60"/>
<text text-anchor="middle" x="305" y="-39.5" font-family="Helvetica,sans-Serif" font-size="10.00">event</text>
</a>
</g>
</g>
<!-- dir_fae5c424dedd4ed38182ff8eeb595d73 -->
<g id="node3" class="node"><title>dir_fae5c424dedd4ed38182ff8eeb595d73</title>
<g id="a_node3"><a xlink:href="dir_fae5c424dedd4ed38182ff8eeb595d73.html" target="_top" xlink:title="multithread">
<polygon fill="white" stroke="red" points="259.25,-60 194.75,-60 194.75,-24 259.25,-24 259.25,-60"/>
<text text-anchor="middle" x="227" y="-39.5" font-family="Helvetica,sans-Serif" font-size="10.00">multithread</text>
</a>
</g>
</g>
<!-- dir_77fc190b7b8eac3a873bdc855ab7d84c -->
<g id="node4" class="node"><title>dir_77fc190b7b8eac3a873bdc855ab7d84c</title>
<g id="a_node4"><a xlink:href="dir_77fc190b7b8eac3a873bdc855ab7d84c.html" target="_top" xlink:title="stats">
<polygon fill="white" stroke="black" points="176,-60 122,-60 122,-24 176,-24 176,-60"/>
<text text-anchor="middle" x="149" y="-39.5" font-family="Helvetica,sans-Serif" font-size="10.00">stats</text>
</a>
</g>
</g>
<!-- dir_b33479eb96f329c74e472ae2153e484d -->
<g id="node5" class="node"><title>dir_b33479eb96f329c74e472ae2153e484d</title>
<g id="a_node5"><a xlink:href="dir_b33479eb96f329c74e472ae2153e484d.html" target="_top" xlink:title="TAtomicBuffer">
<polygon fill="white" stroke="black" points="104,-60 24,-60 24,-24 104,-24 104,-60"/>
<text text-anchor="middle" x="64" y="-39.5" font-family="Helvetica,sans-Serif" font-size="10.00">TAtomicBuffer</text>
</a>
</g>
</g>
</g>
</svg>
