<?xml version="1.0" encoding="UTF-8" standalone="no"?>
<!DOCTYPE svg PUBLIC "-//W3C//DTD SVG 1.1//EN"
 "http://www.w3.org/Graphics/SVG/1.1/DTD/svg11.dtd">
<!-- Generated by graphviz version 2.36.0 (20140111.2315)
 -->
<!-- Title: concept Pages: 1 -->
<svg width="254pt" height="111pt"
 viewBox="0.00 0.00 254.00 111.00" xmlns="http://www.w3.org/2000/svg" xmlns:xlink="http://www.w3.org/1999/xlink">
<g id="graph0" class="graph" transform="scale(1 1) rotate(0) translate(4 107)">
<title>concept</title>
<polygon fill="white" stroke="none" points="-4,4 -4,-107 250,-107 250,4 -4,4"/>
<g id="clust1" class="cluster"><title>clusterdir_bc0f1d31cb7ab9d4143cba1d92900cef</title>
<g id="a_clust1"><a xlink:href="dir_bc0f1d31cb7ab9d4143cba1d92900cef.html" target="_top" xlink:title="_dev">
<polygon fill="#ddddee" stroke="black" points="8,-8 8,-95 238,-95 238,-8 8,-8"/>
<text text-anchor="middle" x="123" y="-83" font-family="Helvetica,sans-Serif" font-size="10.00">_dev</text>
</a>
</g>
</g>
<g id="clust2" class="cluster"><title>clusterdir_ddcced566fb578f9b459289eaf15d930</title>
<g id="a_clust2"><a xlink:href="dir_ddcced566fb578f9b459289eaf15d930.html" target="_top">
<polygon fill="#eeeeff" stroke="black" points="16,-16 16,-68 230,-68 230,-16 16,-16"/>
</a>
</g>
</g>
<!-- dir_ddcced566fb578f9b459289eaf15d930 -->
<g id="node1" class="node"><title>dir_ddcced566fb578f9b459289eaf15d930</title>
<text text-anchor="middle" x="195" y="-39.5" font-family="Helvetica,sans-Serif" font-size="10.00">concept</text>
</g>
<!-- dir_b9abe2979d23383bb0094cba3fc697b3 -->
<g id="node2" class="node"><title>dir_b9abe2979d23383bb0094cba3fc697b3</title>
<g id="a_node2"><a xlink:href="dir_b9abe2979d23383bb0094cba3fc697b3.html" target="_top" xlink:title="example">
<polygon fill="white" stroke="red" points="150,-60 96,-60 96,-24 150,-24 150,-60"/>
<text text-anchor="middle" x="123" y="-39.5" font-family="Helvetica,sans-Serif" font-size="10.00">example</text>
</a>
</g>
</g>
<!-- dir_6dbecfab4c321e19ed3a9cfdb0f60a35 -->
<g id="node3" class="node"><title>dir_6dbecfab4c321e19ed3a9cfdb0f60a35</title>
<g id="a_node3"><a xlink:href="dir_6dbecfab4c321e19ed3a9cfdb0f60a35.html" target="_top" xlink:title="trial">
<polygon fill="white" stroke="red" points="78,-60 24,-60 24,-24 78,-24 78,-60"/>
<text text-anchor="middle" x="51" y="-39.5" font-family="Helvetica,sans-Serif" font-size="10.00">trial</text>
</a>
</g>
</g>
</g>
</svg>
