<?xml version="1.0" encoding="UTF-8" standalone="no"?>
<!DOCTYPE svg PUBLIC "-//W3C//DTD SVG 1.1//EN"
 "http://www.w3.org/Graphics/SVG/1.1/DTD/svg11.dtd">
<!-- Generated by graphviz version 2.36.0 (20140111.2315)
 -->
<!-- Title: storage Pages: 1 -->
<svg width="276pt" height="111pt"
 viewBox="0.00 0.00 276.00 111.00" xmlns="http://www.w3.org/2000/svg" xmlns:xlink="http://www.w3.org/1999/xlink">
<g id="graph0" class="graph" transform="scale(1 1) rotate(0) translate(4 107)">
<title>storage</title>
<polygon fill="white" stroke="none" points="-4,4 -4,-107 272,-107 272,4 -4,4"/>
<g id="clust1" class="cluster"><title>clusterdir_60e253044a2133bf2f7737eb75bc4207</title>
<g id="a_clust1"><a xlink:href="dir_60e253044a2133bf2f7737eb75bc4207.html" target="_top" xlink:title="util">
<polygon fill="#ddddee" stroke="black" points="8,-8 8,-95 260,-95 260,-8 8,-8"/>
<text text-anchor="middle" x="134" y="-83" font-family="Helvetica,sans-Serif" font-size="10.00">util</text>
</a>
</g>
</g>
<g id="clust2" class="cluster"><title>clusterdir_b4e01c056486a1d5649e8ade1c0083fb</title>
<g id="a_clust2"><a xlink:href="dir_b4e01c056486a1d5649e8ade1c0083fb.html" target="_top">
<polygon fill="#eeeeff" stroke="black" points="16,-16 16,-68 252,-68 252,-16 16,-16"/>
</a>
</g>
</g>
<!-- dir_b4e01c056486a1d5649e8ade1c0083fb -->
<g id="node1" class="node"><title>dir_b4e01c056486a1d5649e8ade1c0083fb</title>
<text text-anchor="middle" x="217" y="-39.5" font-family="Helvetica,sans-Serif" font-size="10.00">storage</text>
</g>
<!-- dir_630eb5ce52a6c0aa1c2c0f5641fbf6fd -->
<g id="node2" class="node"><title>dir_630eb5ce52a6c0aa1c2c0f5641fbf6fd</title>
<g id="a_node2"><a xlink:href="dir_630eb5ce52a6c0aa1c2c0f5641fbf6fd.html" target="_top" xlink:title="arrayMap">
<polygon fill="white" stroke="black" points="171.25,-60 114.75,-60 114.75,-24 171.25,-24 171.25,-60"/>
<text text-anchor="middle" x="143" y="-39.5" font-family="Helvetica,sans-Serif" font-size="10.00">arrayMap</text>
</a>
</g>
</g>
<!-- dir_2c32bb1e0ea62713d21250634158daa9 -->
<g id="node3" class="node"><title>dir_2c32bb1e0ea62713d21250634158daa9</title>
<g id="a_node3"><a xlink:href="dir_2c32bb1e0ea62713d21250634158daa9.html" target="_top" xlink:title="atomicBuffer">
<polygon fill="white" stroke="black" points="96,-60 24,-60 24,-24 96,-24 96,-60"/>
<text text-anchor="middle" x="60" y="-39.5" font-family="Helvetica,sans-Serif" font-size="10.00">atomicBuffer</text>
</a>
</g>
</g>
</g>
</svg>
