<?xml version="1.0" encoding="UTF-8" standalone="no"?>
<!DOCTYPE svg PUBLIC "-//W3C//DTD SVG 1.1//EN"
 "http://www.w3.org/Graphics/SVG/1.1/DTD/svg11.dtd">
<!-- Generated by graphviz version 2.36.0 (20140111.2315)
 -->
<!-- Title: call_virtual Pages: 1 -->
<svg width="264pt" height="111pt"
 viewBox="0.00 0.00 264.00 111.00" xmlns="http://www.w3.org/2000/svg" xmlns:xlink="http://www.w3.org/1999/xlink">
<g id="graph0" class="graph" transform="scale(1 1) rotate(0) translate(4 107)">
<title>call_virtual</title>
<polygon fill="white" stroke="none" points="-4,4 -4,-107 260,-107 260,4 -4,4"/>
<g id="clust1" class="cluster"><title>clusterdir_6dbecfab4c321e19ed3a9cfdb0f60a35</title>
<g id="a_clust1"><a xlink:href="dir_6dbecfab4c321e19ed3a9cfdb0f60a35.html" target="_top" xlink:title="trial">
<polygon fill="#ddddee" stroke="black" points="8,-8 8,-95 248,-95 248,-8 8,-8"/>
<text text-anchor="middle" x="128" y="-83" font-family="Helvetica,sans-Serif" font-size="10.00">trial</text>
</a>
</g>
</g>
<g id="clust2" class="cluster"><title>clusterdir_f03ca5d6332983ee9cc5c3b56b9a8e9c</title>
<g id="a_clust2"><a xlink:href="dir_f03ca5d6332983ee9cc5c3b56b9a8e9c.html" target="_top">
<polygon fill="#eeeeff" stroke="black" points="16,-16 16,-68 240,-68 240,-16 16,-16"/>
</a>
</g>
</g>
<!-- dir_f03ca5d6332983ee9cc5c3b56b9a8e9c -->
<g id="node1" class="node"><title>dir_f03ca5d6332983ee9cc5c3b56b9a8e9c</title>
<text text-anchor="middle" x="200" y="-39.5" font-family="Helvetica,sans-Serif" font-size="10.00">call_virtual</text>
</g>
<!-- dir_73dac76ba5244d13fd99198699349104 -->
<g id="node2" class="node"><title>dir_73dac76ba5244d13fd99198699349104</title>
<g id="a_node2"><a xlink:href="dir_73dac76ba5244d13fd99198699349104.html" target="_top" xlink:title="test01">
<polygon fill="white" stroke="black" points="150,-60 96,-60 96,-24 150,-24 150,-60"/>
<text text-anchor="middle" x="123" y="-39.5" font-family="Helvetica,sans-Serif" font-size="10.00">test01</text>
</a>
</g>
</g>
<!-- dir_5525adf0784b67baf7871c3ed6795ac7 -->
<g id="node3" class="node"><title>dir_5525adf0784b67baf7871c3ed6795ac7</title>
<g id="a_node3"><a xlink:href="dir_5525adf0784b67baf7871c3ed6795ac7.html" target="_top" xlink:title="test02">
<polygon fill="white" stroke="black" points="78,-60 24,-60 24,-24 78,-24 78,-60"/>
<text text-anchor="middle" x="51" y="-39.5" font-family="Helvetica,sans-Serif" font-size="10.00">test02</text>
</a>
</g>
</g>
</g>
</svg>
