<?xml version="1.0" encoding="UTF-8" standalone="no"?>
<!DOCTYPE svg PUBLIC "-//W3C//DTD SVG 1.1//EN"
 "http://www.w3.org/Graphics/SVG/1.1/DTD/svg11.dtd">
<!-- Generated by graphviz version 2.36.0 (20140111.2315)
 -->
<!-- Title: frontend Pages: 1 -->
<svg width="254pt" height="111pt"
 viewBox="0.00 0.00 254.00 111.00" xmlns="http://www.w3.org/2000/svg" xmlns:xlink="http://www.w3.org/1999/xlink">
<g id="graph0" class="graph" transform="scale(1 1) rotate(0) translate(4 107)">
<title>frontend</title>
<polygon fill="white" stroke="none" points="-4,4 -4,-107 250,-107 250,4 -4,4"/>
<g id="clust1" class="cluster"><title>clusterdir_69358e332a9b9200086dc90cc57c3eaa</title>
<g id="a_clust1"><a xlink:href="dir_69358e332a9b9200086dc90cc57c3eaa.html" target="_top" xlink:title="ppm_java">
<polygon fill="#ddddee" stroke="black" points="8,-8 8,-95 238,-95 238,-8 8,-8"/>
<text text-anchor="middle" x="123" y="-83" font-family="Helvetica,sans-Serif" font-size="10.00">ppm_java</text>
</a>
</g>
</g>
<g id="clust2" class="cluster"><title>clusterdir_e6f277015376d7ff34d6e4779f667067</title>
<g id="a_clust2"><a xlink:href="dir_e6f277015376d7ff34d6e4779f667067.html" target="_top">
<polygon fill="#eeeeff" stroke="black" points="16,-16 16,-68 230,-68 230,-16 16,-16"/>
</a>
</g>
</g>
<!-- dir_e6f277015376d7ff34d6e4779f667067 -->
<g id="node1" class="node"><title>dir_e6f277015376d7ff34d6e4779f667067</title>
<text text-anchor="middle" x="195" y="-39.5" font-family="Helvetica,sans-Serif" font-size="10.00">frontend</text>
</g>
<!-- dir_2309db03659c5a2b63b7ec279df40ea7 -->
<g id="node2" class="node"><title>dir_2309db03659c5a2b63b7ec279df40ea7</title>
<g id="a_node2"><a xlink:href="dir_2309db03659c5a2b63b7ec279df40ea7.html" target="_top" xlink:title="console">
<polygon fill="white" stroke="red" points="150,-60 96,-60 96,-24 150,-24 150,-60"/>
<text text-anchor="middle" x="123" y="-39.5" font-family="Helvetica,sans-Serif" font-size="10.00">console</text>
</a>
</g>
</g>
<!-- dir_7b8e9641854e9cfa83029511061f0dfe -->
<g id="node3" class="node"><title>dir_7b8e9641854e9cfa83029511061f0dfe</title>
<g id="a_node3"><a xlink:href="dir_7b8e9641854e9cfa83029511061f0dfe.html" target="_top" xlink:title="gui">
<polygon fill="white" stroke="red" points="78,-60 24,-60 24,-24 78,-24 78,-60"/>
<text text-anchor="middle" x="51" y="-39.5" font-family="Helvetica,sans-Serif" font-size="10.00">gui</text>
</a>
</g>
</g>
</g>
</svg>
