<?xml version="1.0" encoding="UTF-8" standalone="no"?>
<!DOCTYPE svg PUBLIC "-//W3C//DTD SVG 1.1//EN"
 "http://www.w3.org/Graphics/SVG/1.1/DTD/svg11.dtd">
<!-- Generated by graphviz version 2.36.0 (20140111.2315)
 -->
<!-- Title: util Pages: 1 -->
<svg width="398pt" height="111pt"
 viewBox="0.00 0.00 398.00 111.00" xmlns="http://www.w3.org/2000/svg" xmlns:xlink="http://www.w3.org/1999/xlink">
<g id="graph0" class="graph" transform="scale(1 1) rotate(0) translate(4 107)">
<title>util</title>
<polygon fill="white" stroke="none" points="-4,4 -4,-107 394,-107 394,4 -4,4"/>
<g id="clust1" class="cluster"><title>clusterdir_69358e332a9b9200086dc90cc57c3eaa</title>
<g id="a_clust1"><a xlink:href="dir_69358e332a9b9200086dc90cc57c3eaa.html" target="_top" xlink:title="ppm_java">
<polygon fill="#ddddee" stroke="black" points="8,-8 8,-95 382,-95 382,-8 8,-8"/>
<text text-anchor="middle" x="195" y="-83" font-family="Helvetica,sans-Serif" font-size="10.00">ppm_java</text>
</a>
</g>
</g>
<g id="clust2" class="cluster"><title>clusterdir_60e253044a2133bf2f7737eb75bc4207</title>
<g id="a_clust2"><a xlink:href="dir_60e253044a2133bf2f7737eb75bc4207.html" target="_top">
<polygon fill="#eeeeff" stroke="black" points="16,-16 16,-68 374,-68 374,-16 16,-16"/>
</a>
</g>
</g>
<!-- dir_60e253044a2133bf2f7737eb75bc4207 -->
<g id="node1" class="node"><title>dir_60e253044a2133bf2f7737eb75bc4207</title>
<text text-anchor="middle" x="339" y="-39.5" font-family="Helvetica,sans-Serif" font-size="10.00">util</text>
</g>
<!-- dir_972256c9f516bbbe567b0f0a12a97523 -->
<g id="node2" class="node"><title>dir_972256c9f516bbbe567b0f0a12a97523</title>
<g id="a_node2"><a xlink:href="dir_972256c9f516bbbe567b0f0a12a97523.html" target="_top" xlink:title="debug">
<polygon fill="white" stroke="black" points="294,-60 240,-60 240,-24 294,-24 294,-60"/>
<text text-anchor="middle" x="267" y="-39.5" font-family="Helvetica,sans-Serif" font-size="10.00">debug</text>
</a>
</g>
</g>
<!-- dir_92956e360d8a96f96a9c0ddf3ff83122 -->
<g id="node3" class="node"><title>dir_92956e360d8a96f96a9c0ddf3ff83122</title>
<g id="a_node3"><a xlink:href="dir_92956e360d8a96f96a9c0ddf3ff83122.html" target="_top" xlink:title="logging">
<polygon fill="white" stroke="black" points="222,-60 168,-60 168,-24 222,-24 222,-60"/>
<text text-anchor="middle" x="195" y="-39.5" font-family="Helvetica,sans-Serif" font-size="10.00">logging</text>
</a>
</g>
</g>
<!-- dir_b4e01c056486a1d5649e8ade1c0083fb -->
<g id="node4" class="node"><title>dir_b4e01c056486a1d5649e8ade1c0083fb</title>
<g id="a_node4"><a xlink:href="dir_b4e01c056486a1d5649e8ade1c0083fb.html" target="_top" xlink:title="storage">
<polygon fill="white" stroke="red" points="150,-60 96,-60 96,-24 150,-24 150,-60"/>
<text text-anchor="middle" x="123" y="-39.5" font-family="Helvetica,sans-Serif" font-size="10.00">storage</text>
</a>
</g>
</g>
<!-- dir_51df21ae0d29b0e1ccaf881627586453 -->
<g id="node5" class="node"><title>dir_51df21ae0d29b0e1ccaf881627586453</title>
<g id="a_node5"><a xlink:href="dir_51df21ae0d29b0e1ccaf881627586453.html" target="_top" xlink:title="timer">
<polygon fill="white" stroke="black" points="78,-60 24,-60 24,-24 78,-24 78,-60"/>
<text text-anchor="middle" x="51" y="-39.5" font-family="Helvetica,sans-Serif" font-size="10.00">timer</text>
</a>
</g>
</g>
</g>
</svg>
