<?xml version="1.0" encoding="UTF-8" standalone="no"?>
<!DOCTYPE svg PUBLIC "-//W3C//DTD SVG 1.1//EN"
 "http://www.w3.org/Graphics/SVG/1.1/DTD/svg11.dtd">
<!-- Generated by graphviz version 2.36.0 (20140111.2315)
 -->
<!-- Title: backend Pages: 1 -->
<svg width="326pt" height="111pt"
 viewBox="0.00 0.00 326.00 111.00" xmlns="http://www.w3.org/2000/svg" xmlns:xlink="http://www.w3.org/1999/xlink">
<g id="graph0" class="graph" transform="scale(1 1) rotate(0) translate(4 107)">
<title>backend</title>
<polygon fill="white" stroke="none" points="-4,4 -4,-107 322,-107 322,4 -4,4"/>
<g id="clust1" class="cluster"><title>clusterdir_69358e332a9b9200086dc90cc57c3eaa</title>
<g id="a_clust1"><a xlink:href="dir_69358e332a9b9200086dc90cc57c3eaa.html" target="_top" xlink:title="ppm_java">
<polygon fill="#ddddee" stroke="black" points="8,-8 8,-95 310,-95 310,-8 8,-8"/>
<text text-anchor="middle" x="159" y="-83" font-family="Helvetica,sans-Serif" font-size="10.00">ppm_java</text>
</a>
</g>
</g>
<g id="clust2" class="cluster"><title>clusterdir_5729df8d7e1fa84253ef8f04259beaf5</title>
<g id="a_clust2"><a xlink:href="dir_5729df8d7e1fa84253ef8f04259beaf5.html" target="_top">
<polygon fill="#eeeeff" stroke="black" points="16,-16 16,-68 302,-68 302,-16 16,-16"/>
</a>
</g>
</g>
<!-- dir_5729df8d7e1fa84253ef8f04259beaf5 -->
<g id="node1" class="node"><title>dir_5729df8d7e1fa84253ef8f04259beaf5</title>
<text text-anchor="middle" x="267" y="-39.5" font-family="Helvetica,sans-Serif" font-size="10.00">backend</text>
</g>
<!-- dir_0a6136145a71a2f52f7d5151e260cb38 -->
<g id="node2" class="node"><title>dir_0a6136145a71a2f52f7d5151e260cb38</title>
<g id="a_node2"><a xlink:href="dir_0a6136145a71a2f52f7d5151e260cb38.html" target="_top" xlink:title="boot">
<polygon fill="white" stroke="black" points="222,-60 168,-60 168,-24 222,-24 222,-60"/>
<text text-anchor="middle" x="195" y="-39.5" font-family="Helvetica,sans-Serif" font-size="10.00">boot</text>
</a>
</g>
</g>
<!-- dir_16a6615dd5ae5d73000ffbbc3da99eee -->
<g id="node3" class="node"><title>dir_16a6615dd5ae5d73000ffbbc3da99eee</title>
<g id="a_node3"><a xlink:href="dir_16a6615dd5ae5d73000ffbbc3da99eee.html" target="_top" xlink:title="event">
<polygon fill="white" stroke="black" points="150,-60 96,-60 96,-24 150,-24 150,-60"/>
<text text-anchor="middle" x="123" y="-39.5" font-family="Helvetica,sans-Serif" font-size="10.00">event</text>
</a>
</g>
</g>
<!-- dir_730b1fb021ba1451da63c81da6375d6f -->
<g id="node4" class="node"><title>dir_730b1fb021ba1451da63c81da6375d6f</title>
<g id="a_node4"><a xlink:href="dir_730b1fb021ba1451da63c81da6375d6f.html" target="_top" xlink:title="module">
<polygon fill="white" stroke="red" points="78,-60 24,-60 24,-24 78,-24 78,-60"/>
<text text-anchor="middle" x="51" y="-39.5" font-family="Helvetica,sans-Serif" font-size="10.00">module</text>
</a>
</g>
</g>
</g>
</svg>
