<?xml version="1.0" encoding="UTF-8" standalone="no"?>
<!DOCTYPE svg PUBLIC "-//W3C//DTD SVG 1.1//EN"
 "http://www.w3.org/Graphics/SVG/1.1/DTD/svg11.dtd">
<!-- Generated by graphviz version 2.36.0 (20140111.2315)
 -->
<!-- Title: gui Pages: 1 -->
<svg width="266pt" height="111pt"
 viewBox="0.00 0.00 266.00 111.00" xmlns="http://www.w3.org/2000/svg" xmlns:xlink="http://www.w3.org/1999/xlink">
<g id="graph0" class="graph" transform="scale(1 1) rotate(0) translate(4 107)">
<title>gui</title>
<polygon fill="white" stroke="none" points="-4,4 -4,-107 262,-107 262,4 -4,4"/>
<g id="clust1" class="cluster"><title>clusterdir_e6f277015376d7ff34d6e4779f667067</title>
<g id="a_clust1"><a xlink:href="dir_e6f277015376d7ff34d6e4779f667067.html" target="_top" xlink:title="frontend">
<polygon fill="#ddddee" stroke="black" points="8,-8 8,-95 250,-95 250,-8 8,-8"/>
<text text-anchor="middle" x="129" y="-83" font-family="Helvetica,sans-Serif" font-size="10.00">frontend</text>
</a>
</g>
</g>
<g id="clust2" class="cluster"><title>clusterdir_7b8e9641854e9cfa83029511061f0dfe</title>
<g id="a_clust2"><a xlink:href="dir_7b8e9641854e9cfa83029511061f0dfe.html" target="_top">
<polygon fill="#eeeeff" stroke="black" points="16,-16 16,-68 242,-68 242,-16 16,-16"/>
</a>
</g>
</g>
<!-- dir_7b8e9641854e9cfa83029511061f0dfe -->
<g id="node1" class="node"><title>dir_7b8e9641854e9cfa83029511061f0dfe</title>
<text text-anchor="middle" x="207" y="-39.5" font-family="Helvetica,sans-Serif" font-size="10.00">gui</text>
</g>
<!-- dir_1569d45add616ba26f0de616456a7fd2 -->
<g id="node2" class="node"><title>dir_1569d45add616ba26f0de616456a7fd2</title>
<g id="a_node2"><a xlink:href="dir_1569d45add616ba26f0de616456a7fd2.html" target="_top" xlink:title="lineargauge">
<polygon fill="white" stroke="black" points="162,-60 96,-60 96,-24 162,-24 162,-60"/>
<text text-anchor="middle" x="129" y="-39.5" font-family="Helvetica,sans-Serif" font-size="10.00">lineargauge</text>
</a>
</g>
</g>
<!-- dir_4d09e7dda2e5ebf0ed5946a994fa9413 -->
<g id="node3" class="node"><title>dir_4d09e7dda2e5ebf0ed5946a994fa9413</title>
<g id="a_node3"><a xlink:href="dir_4d09e7dda2e5ebf0ed5946a994fa9413.html" target="_top" xlink:title="needle">
<polygon fill="white" stroke="black" points="78,-60 24,-60 24,-24 78,-24 78,-60"/>
<text text-anchor="middle" x="51" y="-39.5" font-family="Helvetica,sans-Serif" font-size="10.00">needle</text>
</a>
</g>
</g>
</g>
</svg>
