<?xml version="1.0" encoding="UTF-8" standalone="no"?>
<!DOCTYPE svg PUBLIC "-//W3C//DTD SVG 1.1//EN"
 "http://www.w3.org/Graphics/SVG/1.1/DTD/svg11.dtd">
<!-- Generated by graphviz version 2.36.0 (20140111.2315)
 -->
<!-- Title: ppm_java Pages: 1 -->
<svg width="476pt" height="111pt"
 viewBox="0.00 0.00 476.00 111.00" xmlns="http://www.w3.org/2000/svg" xmlns:xlink="http://www.w3.org/1999/xlink">
<g id="graph0" class="graph" transform="scale(1 1) rotate(0) translate(4 107)">
<title>ppm_java</title>
<polygon fill="white" stroke="none" points="-4,4 -4,-107 472,-107 472,4 -4,4"/>
<g id="clust1" class="cluster"><title>clusterdir_efffc6d857182db9ecac9393fda051c0</title>
<g id="a_clust1"><a xlink:href="dir_efffc6d857182db9ecac9393fda051c0.html" target="_top" xlink:title="src">
<polygon fill="#ddddee" stroke="black" points="8,-8 8,-95 460,-95 460,-8 8,-8"/>
<text text-anchor="middle" x="234" y="-83" font-family="Helvetica,sans-Serif" font-size="10.00">src</text>
</a>
</g>
</g>
<g id="clust2" class="cluster"><title>clusterdir_69358e332a9b9200086dc90cc57c3eaa</title>
<g id="a_clust2"><a xlink:href="dir_69358e332a9b9200086dc90cc57c3eaa.html" target="_top">
<polygon fill="#eeeeff" stroke="black" points="16,-16 16,-68 452,-68 452,-16 16,-16"/>
</a>
</g>
</g>
<!-- dir_69358e332a9b9200086dc90cc57c3eaa -->
<g id="node1" class="node"><title>dir_69358e332a9b9200086dc90cc57c3eaa</title>
<text text-anchor="middle" x="414" y="-39.5" font-family="Helvetica,sans-Serif" font-size="10.00">ppm_java</text>
</g>
<!-- dir_bc0f1d31cb7ab9d4143cba1d92900cef -->
<g id="node2" class="node"><title>dir_bc0f1d31cb7ab9d4143cba1d92900cef</title>
<g id="a_node2"><a xlink:href="dir_bc0f1d31cb7ab9d4143cba1d92900cef.html" target="_top" xlink:title="_dev">
<polygon fill="white" stroke="red" points="366,-60 312,-60 312,-24 366,-24 366,-60"/>
<text text-anchor="middle" x="339" y="-39.5" font-family="Helvetica,sans-Serif" font-size="10.00">_dev</text>
</a>
</g>
</g>
<!-- dir_5729df8d7e1fa84253ef8f04259beaf5 -->
<g id="node3" class="node"><title>dir_5729df8d7e1fa84253ef8f04259beaf5</title>
<g id="a_node3"><a xlink:href="dir_5729df8d7e1fa84253ef8f04259beaf5.html" target="_top" xlink:title="backend">
<polygon fill="white" stroke="red" points="294,-60 240,-60 240,-24 294,-24 294,-60"/>
<text text-anchor="middle" x="267" y="-39.5" font-family="Helvetica,sans-Serif" font-size="10.00">backend</text>
</a>
</g>
</g>
<!-- dir_e6f277015376d7ff34d6e4779f667067 -->
<g id="node4" class="node"><title>dir_e6f277015376d7ff34d6e4779f667067</title>
<g id="a_node4"><a xlink:href="dir_e6f277015376d7ff34d6e4779f667067.html" target="_top" xlink:title="frontend">
<polygon fill="white" stroke="red" points="222,-60 168,-60 168,-24 222,-24 222,-60"/>
<text text-anchor="middle" x="195" y="-39.5" font-family="Helvetica,sans-Serif" font-size="10.00">frontend</text>
</a>
</g>
</g>
<!-- dir_b38c8699a50e000c6faa9ddf4c8ddc66 -->
<g id="node5" class="node"><title>dir_b38c8699a50e000c6faa9ddf4c8ddc66</title>
<g id="a_node5"><a xlink:href="dir_b38c8699a50e000c6faa9ddf4c8ddc66.html" target="_top" xlink:title="typelib">
<polygon fill="white" stroke="black" points="150,-60 96,-60 96,-24 150,-24 150,-60"/>
<text text-anchor="middle" x="123" y="-39.5" font-family="Helvetica,sans-Serif" font-size="10.00">typelib</text>
</a>
</g>
</g>
<!-- dir_60e253044a2133bf2f7737eb75bc4207 -->
<g id="node6" class="node"><title>dir_60e253044a2133bf2f7737eb75bc4207</title>
<g id="a_node6"><a xlink:href="dir_60e253044a2133bf2f7737eb75bc4207.html" target="_top" xlink:title="util">
<polygon fill="white" stroke="red" points="78,-60 24,-60 24,-24 78,-24 78,-60"/>
<text text-anchor="middle" x="51" y="-39.5" font-family="Helvetica,sans-Serif" font-size="10.00">util</text>
</a>
</g>
</g>
</g>
</svg>
