<?xml version="1.0" encoding="UTF-8" standalone="no"?>
<!DOCTYPE svg PUBLIC "-//W3C//DTD SVG 1.1//EN"
 "http://www.w3.org/Graphics/SVG/1.1/DTD/svg11.dtd">
<!-- Generated by graphviz version 2.36.0 (20140111.2315)
 -->
<!-- Title: multithread Pages: 1 -->
<svg width="520pt" height="111pt"
 viewBox="0.00 0.00 520.00 111.00" xmlns="http://www.w3.org/2000/svg" xmlns:xlink="http://www.w3.org/1999/xlink">
<g id="graph0" class="graph" transform="scale(1 1) rotate(0) translate(4 107)">
<title>multithread</title>
<polygon fill="white" stroke="none" points="-4,4 -4,-107 516,-107 516,4 -4,4"/>
<g id="clust1" class="cluster"><title>clusterdir_b9abe2979d23383bb0094cba3fc697b3</title>
<g id="a_clust1"><a xlink:href="dir_b9abe2979d23383bb0094cba3fc697b3.html" target="_top" xlink:title="example">
<polygon fill="#ddddee" stroke="black" points="8,-8 8,-95 504,-95 504,-8 8,-8"/>
<text text-anchor="middle" x="256" y="-83" font-family="Helvetica,sans-Serif" font-size="10.00">example</text>
</a>
</g>
</g>
<g id="clust2" class="cluster"><title>clusterdir_fae5c424dedd4ed38182ff8eeb595d73</title>
<g id="a_clust2"><a xlink:href="dir_fae5c424dedd4ed38182ff8eeb595d73.html" target="_top">
<polygon fill="#eeeeff" stroke="black" points="16,-16 16,-68 496,-68 496,-16 16,-16"/>
</a>
</g>
</g>
<!-- dir_fae5c424dedd4ed38182ff8eeb595d73 -->
<g id="node1" class="node"><title>dir_fae5c424dedd4ed38182ff8eeb595d73</title>
<text text-anchor="middle" x="455" y="-39.5" font-family="Helvetica,sans-Serif" font-size="10.00">multithread</text>
</g>
<!-- dir_a1e94b0e3bf98334eb2120b38f009f42 -->
<g id="node2" class="node"><title>dir_a1e94b0e3bf98334eb2120b38f009f42</title>
<g id="a_node2"><a xlink:href="dir_a1e94b0e3bf98334eb2120b38f009f42.html" target="_top" xlink:title="safe">
<polygon fill="white" stroke="black" points="404,-60 350,-60 350,-24 404,-24 404,-60"/>
<text text-anchor="middle" x="377" y="-39.5" font-family="Helvetica,sans-Serif" font-size="10.00">safe</text>
</a>
</g>
</g>
<!-- dir_42062ea533949e800df58b23441b85ec -->
<g id="node3" class="node"><title>dir_42062ea533949e800df58b23441b85ec</title>
<g id="a_node3"><a xlink:href="dir_42062ea533949e800df58b23441b85ec.html" target="_top" xlink:title="unsafe">
<polygon fill="white" stroke="black" points="332,-60 278,-60 278,-24 332,-24 332,-60"/>
<text text-anchor="middle" x="305" y="-39.5" font-family="Helvetica,sans-Serif" font-size="10.00">unsafe</text>
</a>
</g>
</g>
<!-- dir_31e88b74cb08bd4656cbc3e8fe4cb129 -->
<g id="node4" class="node"><title>dir_31e88b74cb08bd4656cbc3e8fe4cb129</title>
<g id="a_node4"><a xlink:href="dir_31e88b74cb08bd4656cbc3e8fe4cb129.html" target="_top" xlink:title="wait">
<polygon fill="white" stroke="black" points="260,-60 206,-60 206,-24 260,-24 260,-60"/>
<text text-anchor="middle" x="233" y="-39.5" font-family="Helvetica,sans-Serif" font-size="10.00">wait</text>
</a>
</g>
</g>
<!-- dir_e25b9739683e9c26c921d164c67e2a1a -->
<g id="node5" class="node"><title>dir_e25b9739683e9c26c921d164c67e2a1a</title>
<g id="a_node5"><a xlink:href="dir_e25b9739683e9c26c921d164c67e2a1a.html" target="_top" xlink:title="waitfree">
<polygon fill="white" stroke="black" points="188,-60 134,-60 134,-24 188,-24 188,-60"/>
<text text-anchor="middle" x="161" y="-39.5" font-family="Helvetica,sans-Serif" font-size="10.00">waitfree</text>
</a>
</g>
</g>
<!-- dir_4f31a92527015fe2e881b752c461039c -->
<g id="node6" class="node"><title>dir_4f31a92527015fe2e881b752c461039c</title>
<g id="a_node6"><a xlink:href="dir_4f31a92527015fe2e881b752c461039c.html" target="_top" xlink:title="waitfree_testsafe">
<polygon fill="white" stroke="black" points="116,-60 24,-60 24,-24 116,-24 116,-60"/>
<text text-anchor="middle" x="70" y="-39.5" font-family="Helvetica,sans-Serif" font-size="10.00">waitfree_testsafe</text>
</a>
</g>
</g>
</g>
</svg>
