<?xml version="1.0" encoding="UTF-8" standalone="no"?>
<!DOCTYPE svg PUBLIC "-//W3C//DTD SVG 1.1//EN"
 "http://www.w3.org/Graphics/SVG/1.1/DTD/svg11.dtd">
<!-- Generated by graphviz version 2.36.0 (20140111.2315)
 -->
<!-- Title: module Pages: 1 -->
<svg width="707pt" height="111pt"
 viewBox="0.00 0.00 707.00 111.00" xmlns="http://www.w3.org/2000/svg" xmlns:xlink="http://www.w3.org/1999/xlink">
<g id="graph0" class="graph" transform="scale(1 1) rotate(0) translate(4 107)">
<title>module</title>
<polygon fill="white" stroke="none" points="-4,4 -4,-107 703,-107 703,4 -4,4"/>
<g id="clust1" class="cluster"><title>clusterdir_5729df8d7e1fa84253ef8f04259beaf5</title>
<g id="a_clust1"><a xlink:href="dir_5729df8d7e1fa84253ef8f04259beaf5.html" target="_top" xlink:title="backend">
<polygon fill="#ddddee" stroke="black" points="8,-8 8,-95 691,-95 691,-8 8,-8"/>
<text text-anchor="middle" x="349.5" y="-83" font-family="Helvetica,sans-Serif" font-size="10.00">backend</text>
</a>
</g>
</g>
<g id="clust2" class="cluster"><title>clusterdir_730b1fb021ba1451da63c81da6375d6f</title>
<g id="a_clust2"><a xlink:href="dir_730b1fb021ba1451da63c81da6375d6f.html" target="_top">
<polygon fill="#eeeeff" stroke="black" points="16,-16 16,-68 683,-68 683,-16 16,-16"/>
</a>
</g>
</g>
<!-- dir_730b1fb021ba1451da63c81da6375d6f -->
<g id="node1" class="node"><title>dir_730b1fb021ba1451da63c81da6375d6f</title>
<text text-anchor="middle" x="648" y="-39.5" font-family="Helvetica,sans-Serif" font-size="10.00">module</text>
</g>
<!-- dir_8aeec66f04302f3f27700362db1a88a5 -->
<g id="node2" class="node"><title>dir_8aeec66f04302f3f27700362db1a88a5</title>
<g id="a_node2"><a xlink:href="dir_8aeec66f04302f3f27700362db1a88a5.html" target="_top" xlink:title="_deprecated_ppm">
<polygon fill="white" stroke="black" points="603,-60 509,-60 509,-24 603,-24 603,-60"/>
<text text-anchor="middle" x="556" y="-39.5" font-family="Helvetica,sans-Serif" font-size="10.00">_deprecated_ppm</text>
</a>
</g>
</g>
<!-- dir_1cdecacfc74479531dea53b1aa959151 -->
<g id="node3" class="node"><title>dir_1cdecacfc74479531dea53b1aa959151</title>
<g id="a_node3"><a xlink:href="dir_1cdecacfc74479531dea53b1aa959151.html" target="_top" xlink:title="converter_db">
<polygon fill="white" stroke="black" points="490.25,-60 417.75,-60 417.75,-24 490.25,-24 490.25,-60"/>
<text text-anchor="middle" x="454" y="-39.5" font-family="Helvetica,sans-Serif" font-size="10.00">converter_db</text>
</a>
</g>
</g>
<!-- dir_0697d81f6dd8c03c64bc8c5e18448813 -->
<g id="node4" class="node"><title>dir_0697d81f6dd8c03c64bc8c5e18448813</title>
<g id="a_node4"><a xlink:href="dir_0697d81f6dd8c03c64bc8c5e18448813.html" target="_top" xlink:title="integrator">
<polygon fill="white" stroke="black" points="399.25,-60 342.75,-60 342.75,-24 399.25,-24 399.25,-60"/>
<text text-anchor="middle" x="371" y="-39.5" font-family="Helvetica,sans-Serif" font-size="10.00">integrator</text>
</a>
</g>
</g>
<!-- dir_f850bc9845a082db5a1cb0c69f45840d -->
<g id="node5" class="node"><title>dir_f850bc9845a082db5a1cb0c69f45840d</title>
<g id="a_node5"><a xlink:href="dir_f850bc9845a082db5a1cb0c69f45840d.html" target="_top" xlink:title="jackd">
<polygon fill="white" stroke="black" points="324,-60 270,-60 270,-24 324,-24 324,-60"/>
<text text-anchor="middle" x="297" y="-39.5" font-family="Helvetica,sans-Serif" font-size="10.00">jackd</text>
</a>
</g>
</g>
<!-- dir_66ff6833b7d5593f43c18123fa3de0a8 -->
<g id="node6" class="node"><title>dir_66ff6833b7d5593f43c18123fa3de0a8</title>
<g id="a_node6"><a xlink:href="dir_66ff6833b7d5593f43c18123fa3de0a8.html" target="_top" xlink:title="peak_estimator">
<polygon fill="white" stroke="black" points="251.25,-60 168.75,-60 168.75,-24 251.25,-24 251.25,-60"/>
<text text-anchor="middle" x="210" y="-39.5" font-family="Helvetica,sans-Serif" font-size="10.00">peak_estimator</text>
</a>
</g>
</g>
<!-- dir_84fdd8c619e1606d8996f06f1f0fc243 -->
<g id="node7" class="node"><title>dir_84fdd8c619e1606d8996f06f1f0fc243</title>
<g id="a_node7"><a xlink:href="dir_84fdd8c619e1606d8996f06f1f0fc243.html" target="_top" xlink:title="pump">
<polygon fill="white" stroke="black" points="150,-60 96,-60 96,-24 150,-24 150,-60"/>
<text text-anchor="middle" x="123" y="-39.5" font-family="Helvetica,sans-Serif" font-size="10.00">pump</text>
</a>
</g>
</g>
<!-- dir_a085e0bdc90e26c99bdd5408d202e427 -->
<g id="node8" class="node"><title>dir_a085e0bdc90e26c99bdd5408d202e427</title>
<g id="a_node8"><a xlink:href="dir_a085e0bdc90e26c99bdd5408d202e427.html" target="_top" xlink:title="timer">
<polygon fill="white" stroke="black" points="78,-60 24,-60 24,-24 78,-24 78,-60"/>
<text text-anchor="middle" x="51" y="-39.5" font-family="Helvetica,sans-Serif" font-size="10.00">timer</text>
</a>
</g>
</g>
</g>
</svg>
