<?xml version="1.0" encoding="UTF-8" standalone="no"?>
<!DOCTYPE svg PUBLIC "-//W3C//DTD SVG 1.1//EN"
 "http://www.w3.org/Graphics/SVG/1.1/DTD/svg11.dtd">
<!-- Generated by graphviz version 2.36.0 (20140111.2315)
 -->
<!-- Title: FloatBuffer Pages: 1 -->
<svg width="272pt" height="111pt"
 viewBox="0.00 0.00 272.00 111.00" xmlns="http://www.w3.org/2000/svg" xmlns:xlink="http://www.w3.org/1999/xlink">
<g id="graph0" class="graph" transform="scale(1 1) rotate(0) translate(4 107)">
<title>FloatBuffer</title>
<polygon fill="white" stroke="none" points="-4,4 -4,-107 268,-107 268,4 -4,4"/>
<g id="clust1" class="cluster"><title>clusterdir_6dbecfab4c321e19ed3a9cfdb0f60a35</title>
<g id="a_clust1"><a xlink:href="dir_6dbecfab4c321e19ed3a9cfdb0f60a35.html" target="_top" xlink:title="trial">
<polygon fill="#ddddee" stroke="black" points="8,-8 8,-95 256,-95 256,-8 8,-8"/>
<text text-anchor="middle" x="132" y="-83" font-family="Helvetica,sans-Serif" font-size="10.00">trial</text>
</a>
</g>
</g>
<g id="clust2" class="cluster"><title>clusterdir_c4bfb95084d49d3f37727893fc3c33df</title>
<g id="a_clust2"><a xlink:href="dir_c4bfb95084d49d3f37727893fc3c33df.html" target="_top">
<polygon fill="#eeeeff" stroke="black" points="16,-16 16,-68 248,-68 248,-16 16,-16"/>
</a>
</g>
</g>
<!-- dir_c4bfb95084d49d3f37727893fc3c33df -->
<g id="node1" class="node"><title>dir_c4bfb95084d49d3f37727893fc3c33df</title>
<text text-anchor="middle" x="207" y="-39.5" font-family="Helvetica,sans-Serif" font-size="10.00">FloatBuffer</text>
</g>
<!-- dir_5e5d9f13d369a9bf97d940310b4d4a92 -->
<g id="node2" class="node"><title>dir_5e5d9f13d369a9bf97d940310b4d4a92</title>
<g id="a_node2"><a xlink:href="dir_5e5d9f13d369a9bf97d940310b4d4a92.html" target="_top" xlink:title="create">
<polygon fill="white" stroke="black" points="156,-60 102,-60 102,-24 156,-24 156,-60"/>
<text text-anchor="middle" x="129" y="-39.5" font-family="Helvetica,sans-Serif" font-size="10.00">create</text>
</a>
</g>
</g>
<!-- dir_60ada450ebb0c4ff6c8f289fd378427f -->
<g id="node3" class="node"><title>dir_60ada450ebb0c4ff6c8f289fd378427f</title>
<g id="a_node3"><a xlink:href="dir_60ada450ebb0c4ff6c8f289fd378427f.html" target="_top" xlink:title="readWrite">
<polygon fill="white" stroke="black" points="83.25,-60 24.75,-60 24.75,-24 83.25,-24 83.25,-60"/>
<text text-anchor="middle" x="54" y="-39.5" font-family="Helvetica,sans-Serif" font-size="10.00">readWrite</text>
</a>
</g>
</g>
</g>
</svg>
