<?xml version="1.0" encoding="UTF-8" standalone="no"?>
<!DOCTYPE svg PUBLIC "-//W3C//DTD SVG 1.1//EN"
 "http://www.w3.org/Graphics/SVG/1.1/DTD/svg11.dtd">
<!-- Generated by graphviz version 2.36.0 (20140111.2315)
 -->
<!-- Title: Graphical Class Hierarchy Pages: 1 -->
<svg width="158pt" height="66pt"
 viewBox="0.00 0.00 158.00 66.00" xmlns="http://www.w3.org/2000/svg" xmlns:xlink="http://www.w3.org/1999/xlink">
<g id="graph0" class="graph" transform="scale(1 1) rotate(0) translate(4 62)">
<title>Graphical Class Hierarchy</title>
<polygon fill="white" stroke="none" points="-4,4 -4,-62 154,-62 154,4 -4,4"/>
<!-- Node1 -->
<g id="node1" class="node"><title>Node1</title>
<g id="a_node1"><a xlink:href="dd/d22/classppm__java_1_1__dev_1_1concept_1_1trial_1_1call__virtual_1_1test02_1_1_v_target.html" target="_top" xlink:title="VTarget">
<polygon fill="white" stroke="black" points="0.5,-19.5 0.5,-38.5 51.5,-38.5 51.5,-19.5 0.5,-19.5"/>
<text text-anchor="middle" x="26" y="-26.5" font-family="Helvetica,sans-Serif" font-size="10.00">VTarget</text>
</a>
</g>
</g>
<!-- Node2 -->
<g id="node2" class="node"><title>Node2</title>
<g id="a_node2"><a xlink:href="d2/df5/classppm__java_1_1__dev_1_1concept_1_1trial_1_1call__virtual_1_1test02_1_1_t_target___a.html" target="_top" xlink:title="TTarget_A">
<polygon fill="white" stroke="black" points="88,-38.5 88,-57.5 150,-57.5 150,-38.5 88,-38.5"/>
<text text-anchor="middle" x="119" y="-45.5" font-family="Helvetica,sans-Serif" font-size="10.00">TTarget_A</text>
</a>
</g>
</g>
<!-- Node1&#45;&gt;Node2 -->
<g id="edge1" class="edge"><title>Node1&#45;&gt;Node2</title>
<path fill="none" stroke="midnightblue" d="M61.6963,-36.2443C70.3561,-38.0524 79.5702,-39.9762 87.9825,-41.7326"/>
<polygon fill="midnightblue" stroke="midnightblue" points="62.3704,-32.8096 51.8661,-34.1918 60.9397,-39.6619 62.3704,-32.8096"/>
</g>
<!-- Node3 -->
<g id="node3" class="node"><title>Node3</title>
<g id="a_node3"><a xlink:href="d8/d55/classppm__java_1_1__dev_1_1concept_1_1trial_1_1call__virtual_1_1test02_1_1_t_target___b.html" target="_top" xlink:title="TTarget_B">
<polygon fill="white" stroke="black" points="88,-0.5 88,-19.5 150,-19.5 150,-0.5 88,-0.5"/>
<text text-anchor="middle" x="119" y="-7.5" font-family="Helvetica,sans-Serif" font-size="10.00">TTarget_B</text>
</a>
</g>
</g>
<!-- Node1&#45;&gt;Node3 -->
<g id="edge2" class="edge"><title>Node1&#45;&gt;Node3</title>
<path fill="none" stroke="midnightblue" d="M61.6963,-21.7557C70.3561,-19.9476 79.5702,-18.0238 87.9825,-16.2674"/>
<polygon fill="midnightblue" stroke="midnightblue" points="60.9397,-18.3381 51.8661,-23.8082 62.3704,-25.1904 60.9397,-18.3381"/>
</g>
</g>
</svg>
