<?xml version="1.0" encoding="UTF-8" standalone="no"?>
<!DOCTYPE svg PUBLIC "-//W3C//DTD SVG 1.1//EN"
 "http://www.w3.org/Graphics/SVG/1.1/DTD/svg11.dtd">
<!-- Generated by graphviz version 2.36.0 (20140111.2315)
 -->
<!-- Title: Graphical Class Hierarchy Pages: 1 -->
<svg width="164pt" height="66pt"
 viewBox="0.00 0.00 164.00 66.00" xmlns="http://www.w3.org/2000/svg" xmlns:xlink="http://www.w3.org/1999/xlink">
<g id="graph0" class="graph" transform="scale(1 1) rotate(0) translate(4 62)">
<title>Graphical Class Hierarchy</title>
<polygon fill="white" stroke="none" points="-4,4 -4,-62 160,-62 160,4 -4,4"/>
<!-- Node1 -->
<g id="node1" class="node"><title>Node1</title>
<g id="a_node1"><a xlink:href="d4/d02/classppm__java_1_1__dev_1_1concept_1_1trial_1_1call__virtual_1_1test01_1_1_v_source.html" target="_top" xlink:title="VSource">
<polygon fill="white" stroke="black" points="0,-19.5 0,-38.5 54,-38.5 54,-19.5 0,-19.5"/>
<text text-anchor="middle" x="27" y="-26.5" font-family="Helvetica,sans-Serif" font-size="10.00">VSource</text>
</a>
</g>
</g>
<!-- Node2 -->
<g id="node2" class="node"><title>Node2</title>
<g id="a_node2"><a xlink:href="d8/d64/classppm__java_1_1__dev_1_1concept_1_1trial_1_1call__virtual_1_1test01_1_1_t_source___a.html" target="_top" xlink:title="TSource_A">
<polygon fill="white" stroke="black" points="90.5,-38.5 90.5,-57.5 155.5,-57.5 155.5,-38.5 90.5,-38.5"/>
<text text-anchor="middle" x="123" y="-45.5" font-family="Helvetica,sans-Serif" font-size="10.00">TSource_A</text>
</a>
</g>
</g>
<!-- Node1&#45;&gt;Node2 -->
<g id="edge1" class="edge"><title>Node1&#45;&gt;Node2</title>
<path fill="none" stroke="midnightblue" d="M64.019,-36.2804C72.6668,-38.0284 81.8399,-39.8825 90.2762,-41.5877"/>
<polygon fill="midnightblue" stroke="midnightblue" points="64.6795,-32.8432 54.1842,-34.2926 63.2926,-39.7045 64.6795,-32.8432"/>
</g>
<!-- Node3 -->
<g id="node3" class="node"><title>Node3</title>
<g id="a_node3"><a xlink:href="df/d4f/classppm__java_1_1__dev_1_1concept_1_1trial_1_1call__virtual_1_1test01_1_1_t_source___b.html" target="_top" xlink:title="TSource_B">
<polygon fill="white" stroke="black" points="90.5,-0.5 90.5,-19.5 155.5,-19.5 155.5,-0.5 90.5,-0.5"/>
<text text-anchor="middle" x="123" y="-7.5" font-family="Helvetica,sans-Serif" font-size="10.00">TSource_B</text>
</a>
</g>
</g>
<!-- Node1&#45;&gt;Node3 -->
<g id="edge2" class="edge"><title>Node1&#45;&gt;Node3</title>
<path fill="none" stroke="midnightblue" d="M64.019,-21.7196C72.6668,-19.9716 81.8399,-18.1175 90.2762,-16.4123"/>
<polygon fill="midnightblue" stroke="midnightblue" points="63.2926,-18.2955 54.1842,-23.7074 64.6795,-25.1568 63.2926,-18.2955"/>
</g>
</g>
</svg>
