<?xml version="1.0" encoding="UTF-8" standalone="no"?>
<!DOCTYPE svg PUBLIC "-//W3C//DTD SVG 1.1//EN"
 "http://www.w3.org/Graphics/SVG/1.1/DTD/svg11.dtd">
<!-- Generated by graphviz version 2.36.0 (20140111.2315)
 -->
<!-- Title: Graphical Class Hierarchy Pages: 1 -->
<svg width="254pt" height="534pt"
 viewBox="0.00 0.00 254.00 534.00" xmlns="http://www.w3.org/2000/svg" xmlns:xlink="http://www.w3.org/1999/xlink">
<g id="graph0" class="graph" transform="scale(1 1) rotate(0) translate(4 530)">
<title>Graphical Class Hierarchy</title>
<polygon fill="white" stroke="none" points="-4,4 -4,-530 250,-530 250,4 -4,4"/>
<!-- Node1 -->
<g id="node1" class="node"><title>Node1</title>
<polygon fill="white" stroke="#bfbfbf" points="0.5,-259.5 0.5,-278.5 47.5,-278.5 47.5,-259.5 0.5,-259.5"/>
<text text-anchor="middle" x="24" y="-266.5" font-family="Helvetica,sans-Serif" font-size="10.00">Thread</text>
</g>
<!-- Node2 -->
<g id="node2" class="node"><title>Node2</title>
<g id="a_node2"><a xlink:href="db/dcc/classppm__java_1_1__dev_1_1concept_1_1example_1_1multithread_1_1safe_1_1_t_thread_consumer.html" target="_top" xlink:title="TThreadConsumer">
<polygon fill="white" stroke="black" points="116,-506.5 116,-525.5 214,-525.5 214,-506.5 116,-506.5"/>
<text text-anchor="middle" x="165" y="-513.5" font-family="Helvetica,sans-Serif" font-size="10.00">TThreadConsumer</text>
</a>
</g>
</g>
<!-- Node1&#45;&gt;Node2 -->
<g id="edge1" class="edge"><title>Node1&#45;&gt;Node2</title>
<path fill="none" stroke="midnightblue" d="M27.48,-288.688C34.1457,-338.487 53.9982,-467.593 84,-497 92.5636,-505.394 104.121,-510.325 115.785,-513.162"/>
<polygon fill="midnightblue" stroke="midnightblue" points="30.9257,-288.044 26.1638,-278.58 23.9843,-288.948 30.9257,-288.044"/>
</g>
<!-- Node3 -->
<g id="node3" class="node"><title>Node3</title>
<g id="a_node3"><a xlink:href="d7/d80/classppm__java_1_1__dev_1_1concept_1_1example_1_1multithread_1_1safe_1_1_t_thread_producer.html" target="_top" xlink:title="TThreadProducer">
<polygon fill="white" stroke="black" points="119,-468.5 119,-487.5 211,-487.5 211,-468.5 119,-468.5"/>
<text text-anchor="middle" x="165" y="-475.5" font-family="Helvetica,sans-Serif" font-size="10.00">TThreadProducer</text>
</a>
</g>
</g>
<!-- Node1&#45;&gt;Node3 -->
<g id="edge2" class="edge"><title>Node1&#45;&gt;Node3</title>
<path fill="none" stroke="midnightblue" d="M25.0913,-289.023C26.4069,-327.784 35.0533,-413.269 84,-459 93.4922,-467.869 106.345,-472.833 118.969,-475.548"/>
<polygon fill="midnightblue" stroke="midnightblue" points="28.5819,-288.517 24.8818,-278.59 21.5833,-288.658 28.5819,-288.517"/>
</g>
<!-- Node4 -->
<g id="node4" class="node"><title>Node4</title>
<g id="a_node4"><a xlink:href="da/dc2/classppm__java_1_1__dev_1_1concept_1_1example_1_1multithread_1_1unsafe_1_1_t_thread_consumer.html" target="_top" xlink:title="TThreadConsumer">
<polygon fill="white" stroke="black" points="116,-430.5 116,-449.5 214,-449.5 214,-430.5 116,-430.5"/>
<text text-anchor="middle" x="165" y="-437.5" font-family="Helvetica,sans-Serif" font-size="10.00">TThreadConsumer</text>
</a>
</g>
</g>
<!-- Node1&#45;&gt;Node4 -->
<g id="edge3" class="edge"><title>Node1&#45;&gt;Node4</title>
<path fill="none" stroke="midnightblue" d="M26.8538,-288.617C31.0128,-321.177 44.1034,-386.229 84,-421 92.8246,-428.691 104.204,-433.404 115.596,-436.258"/>
<polygon fill="midnightblue" stroke="midnightblue" points="30.3185,-288.106 25.7259,-278.558 23.3621,-288.886 30.3185,-288.106"/>
</g>
<!-- Node5 -->
<g id="node5" class="node"><title>Node5</title>
<g id="a_node5"><a xlink:href="d7/da6/classppm__java_1_1__dev_1_1concept_1_1example_1_1multithread_1_1unsafe_1_1_t_thread_producer.html" target="_top" xlink:title="TThreadProducer">
<polygon fill="white" stroke="black" points="119,-392.5 119,-411.5 211,-411.5 211,-392.5 119,-392.5"/>
<text text-anchor="middle" x="165" y="-399.5" font-family="Helvetica,sans-Serif" font-size="10.00">TThreadProducer</text>
</a>
</g>
</g>
<!-- Node1&#45;&gt;Node5 -->
<g id="edge4" class="edge"><title>Node1&#45;&gt;Node5</title>
<path fill="none" stroke="midnightblue" d="M29.6443,-288.421C36.8189,-314.089 53.1139,-358.871 84,-383 93.8994,-390.734 106.446,-395.396 118.65,-398.184"/>
<polygon fill="midnightblue" stroke="midnightblue" points="33.0213,-287.5 27.1119,-278.706 26.2476,-289.266 33.0213,-287.5"/>
</g>
<!-- Node6 -->
<g id="node6" class="node"><title>Node6</title>
<g id="a_node6"><a xlink:href="d7/da5/classppm__java_1_1__dev_1_1concept_1_1example_1_1multithread_1_1wait_1_1_t_visitor.html" target="_top" xlink:title="TVisitor">
<polygon fill="white" stroke="black" points="140,-354.5 140,-373.5 190,-373.5 190,-354.5 140,-354.5"/>
<text text-anchor="middle" x="165" y="-361.5" font-family="Helvetica,sans-Serif" font-size="10.00">TVisitor</text>
</a>
</g>
</g>
<!-- Node1&#45;&gt;Node6 -->
<g id="edge5" class="edge"><title>Node1&#45;&gt;Node6</title>
<path fill="none" stroke="midnightblue" d="M34.7228,-287.886C44.7196,-305.387 61.9266,-330.792 84,-345 100.805,-355.817 123.155,-360.485 139.96,-362.495"/>
<polygon fill="midnightblue" stroke="midnightblue" points="37.5441,-285.749 29.6878,-278.64 31.3966,-289.097 37.5441,-285.749"/>
</g>
<!-- Node7 -->
<g id="node7" class="node"><title>Node7</title>
<g id="a_node7"><a xlink:href="d3/db6/classppm__java_1_1__dev_1_1concept_1_1example_1_1multithread_1_1waitfree_1_1_t_visitor.html" target="_top" xlink:title="TVisitor">
<polygon fill="white" stroke="black" points="140,-316.5 140,-335.5 190,-335.5 190,-316.5 140,-316.5"/>
<text text-anchor="middle" x="165" y="-323.5" font-family="Helvetica,sans-Serif" font-size="10.00">TVisitor</text>
</a>
</g>
</g>
<!-- Node1&#45;&gt;Node7 -->
<g id="edge6" class="edge"><title>Node1&#45;&gt;Node7</title>
<path fill="none" stroke="midnightblue" d="M45.7885,-284.868C56.6725,-292.517 70.514,-301.255 84,-307 101.993,-314.664 123.639,-319.567 139.875,-322.469"/>
<polygon fill="midnightblue" stroke="midnightblue" points="47.5627,-281.831 37.4141,-278.789 43.4503,-287.496 47.5627,-281.831"/>
</g>
<!-- Node8 -->
<g id="node8" class="node"><title>Node8</title>
<g id="a_node8"><a xlink:href="d5/d38/classppm__java_1_1__dev_1_1concept_1_1example_1_1multithread_1_1waitfree__testsafe_1_1_t_thread_consumer.html" target="_top" xlink:title="TThreadConsumer">
<polygon fill="white" stroke="black" points="116,-278.5 116,-297.5 214,-297.5 214,-278.5 116,-278.5"/>
<text text-anchor="middle" x="165" y="-285.5" font-family="Helvetica,sans-Serif" font-size="10.00">TThreadConsumer</text>
</a>
</g>
</g>
<!-- Node1&#45;&gt;Node8 -->
<g id="edge7" class="edge"><title>Node1&#45;&gt;Node8</title>
<path fill="none" stroke="midnightblue" d="M57.7889,-273.482C75.0609,-275.843 96.5757,-278.784 115.716,-281.4"/>
<polygon fill="midnightblue" stroke="midnightblue" points="58.024,-269.982 47.6421,-272.095 57.0759,-276.917 58.024,-269.982"/>
</g>
<!-- Node9 -->
<g id="node9" class="node"><title>Node9</title>
<g id="a_node9"><a xlink:href="de/d27/classppm__java_1_1__dev_1_1concept_1_1example_1_1multithread_1_1waitfree__testsafe_1_1_t_thread_producer.html" target="_top" xlink:title="TThreadProducer">
<polygon fill="white" stroke="black" points="119,-240.5 119,-259.5 211,-259.5 211,-240.5 119,-240.5"/>
<text text-anchor="middle" x="165" y="-247.5" font-family="Helvetica,sans-Serif" font-size="10.00">TThreadProducer</text>
</a>
</g>
</g>
<!-- Node1&#45;&gt;Node9 -->
<g id="edge8" class="edge"><title>Node1&#45;&gt;Node9</title>
<path fill="none" stroke="midnightblue" d="M57.7726,-264.52C76.0071,-262.028 98.9744,-258.888 118.884,-256.167"/>
<polygon fill="midnightblue" stroke="midnightblue" points="57.0759,-261.083 47.6421,-265.905 58.024,-268.018 57.0759,-261.083"/>
</g>
<!-- Node10 -->
<g id="node10" class="node"><title>Node10</title>
<g id="a_node10"><a xlink:href="da/dea/classppm__java_1_1__dev_1_1concept_1_1trial_1_1_j_jack_1_1_t_dev___trial___j_jack__process__02_1_1_t_timeout.html" target="_top" xlink:title="Termination timer. ">
<polygon fill="white" stroke="black" points="97,-191 97,-221 233,-221 233,-191 97,-191"/>
<text text-anchor="start" x="105" y="-209" font-family="Helvetica,sans-Serif" font-size="10.00">TDev_Trial_JJack_process</text>
<text text-anchor="middle" x="165" y="-198" font-family="Helvetica,sans-Serif" font-size="10.00">_02.TTimeout</text>
</a>
</g>
</g>
<!-- Node1&#45;&gt;Node10 -->
<g id="edge9" class="edge"><title>Node1&#45;&gt;Node10</title>
<path fill="none" stroke="midnightblue" d="M45.9641,-253.525C56.8934,-245.977 70.7223,-237.211 84,-231 91.9083,-227.301 100.504,-223.962 109.031,-221.018"/>
<polygon fill="midnightblue" stroke="midnightblue" points="43.6752,-250.857 37.5411,-259.496 47.7234,-256.568 43.6752,-250.857"/>
</g>
<!-- Node11 -->
<g id="node11" class="node"><title>Node11</title>
<g id="a_node11"><a xlink:href="d0/d25/classppm__java_1_1backend_1_1module_1_1timer_1_1_t_timer_worker.html" target="_top" xlink:title="Internal worker thread. ">
<polygon fill="white" stroke="black" points="125.5,-152.5 125.5,-171.5 204.5,-171.5 204.5,-152.5 125.5,-152.5"/>
<text text-anchor="middle" x="165" y="-159.5" font-family="Helvetica,sans-Serif" font-size="10.00">TTimerWorker</text>
</a>
</g>
</g>
<!-- Node1&#45;&gt;Node11 -->
<g id="edge10" class="edge"><title>Node1&#45;&gt;Node11</title>
<path fill="none" stroke="midnightblue" d="M32.8179,-250.139C42.079,-230.16 59.4144,-199.181 84,-182 96.087,-173.553 111.398,-168.666 125.382,-165.841"/>
<polygon fill="midnightblue" stroke="midnightblue" points="29.5435,-248.89 28.7153,-259.452 35.9496,-251.712 29.5435,-248.89"/>
</g>
<!-- Node12 -->
<g id="node12" class="node"><title>Node12</title>
<g id="a_node12"><a xlink:href="d2/dd1/classppm__java_1_1backend_1_1_t_shutdown_hook.html" target="_top" xlink:title="JVM shutdown hook, when user presses ctrl&#45;c. ">
<polygon fill="white" stroke="black" points="120.5,-114.5 120.5,-133.5 209.5,-133.5 209.5,-114.5 120.5,-114.5"/>
<text text-anchor="middle" x="165" y="-121.5" font-family="Helvetica,sans-Serif" font-size="10.00">TShutdownHook</text>
</a>
</g>
</g>
<!-- Node1&#45;&gt;Node12 -->
<g id="edge11" class="edge"><title>Node1&#45;&gt;Node12</title>
<path fill="none" stroke="midnightblue" d="M28.6687,-249.205C34.9285,-221.186 50.4073,-170.334 84,-143 94.187,-134.711 107.384,-129.926 120.112,-127.197"/>
<polygon fill="midnightblue" stroke="midnightblue" points="25.1656,-248.866 26.5831,-259.365 32.0226,-250.273 25.1656,-248.866"/>
</g>
<!-- Node13 -->
<g id="node13" class="node"><title>Node13</title>
<g id="a_node13"><a xlink:href="d4/dcb/classppm__java_1_1frontend_1_1gui_1_1lineargauge_1_1_t_g_u_i_linear_gauge___timer_clipping.html" target="_top" xlink:title="A monostable timer for a clipping LED on our PPM GUI. ">
<polygon fill="white" stroke="black" points="84.5,-76.5 84.5,-95.5 245.5,-95.5 245.5,-76.5 84.5,-76.5"/>
<text text-anchor="middle" x="165" y="-83.5" font-family="Helvetica,sans-Serif" font-size="10.00">TGUILinearGauge_TimerClipping</text>
</a>
</g>
</g>
<!-- Node1&#45;&gt;Node13 -->
<g id="edge12" class="edge"><title>Node1&#45;&gt;Node13</title>
<path fill="none" stroke="midnightblue" d="M26.2632,-248.83C29.5624,-214.09 41.4323,-143.042 84,-105 88.2576,-101.195 93.1378,-98.1152 98.3422,-95.6269"/>
<polygon fill="midnightblue" stroke="midnightblue" points="22.7488,-248.872 25.441,-259.119 29.7265,-249.43 22.7488,-248.872"/>
</g>
<!-- Node14 -->
<g id="node14" class="node"><title>Node14</title>
<g id="a_node14"><a xlink:href="d2/d93/classppm__java_1_1frontend_1_1gui_1_1needle_1_1_t_g_u_i_needle___timer_clipping.html" target="_top" xlink:title="A monostable timer for a clipping LED on our PPM GUI. ">
<polygon fill="white" stroke="black" points="96.5,-38.5 96.5,-57.5 233.5,-57.5 233.5,-38.5 96.5,-38.5"/>
<text text-anchor="middle" x="165" y="-45.5" font-family="Helvetica,sans-Serif" font-size="10.00">TGUINeedle_TimerClipping</text>
</a>
</g>
</g>
<!-- Node1&#45;&gt;Node14 -->
<g id="edge13" class="edge"><title>Node1&#45;&gt;Node14</title>
<path fill="none" stroke="midnightblue" d="M24.6487,-249.106C25.0756,-208.628 32.0636,-116.353 84,-67 88.0358,-63.1649 92.6986,-60.0574 97.7038,-57.5448"/>
<polygon fill="midnightblue" stroke="midnightblue" points="21.149,-249.288 24.6737,-259.279 28.149,-249.271 21.149,-249.288"/>
</g>
<!-- Node15 -->
<g id="node15" class="node"><title>Node15</title>
<g id="a_node15"><a xlink:href="de/dac/classppm__java_1_1util_1_1debug_1_1_t_timer_debug_update.html" target="_top" xlink:title="Debug update worker thread. ">
<polygon fill="white" stroke="black" points="111.5,-0.5 111.5,-19.5 218.5,-19.5 218.5,-0.5 111.5,-0.5"/>
<text text-anchor="middle" x="165" y="-7.5" font-family="Helvetica,sans-Serif" font-size="10.00">TTimerDebugUpdate</text>
</a>
</g>
</g>
<!-- Node1&#45;&gt;Node15 -->
<g id="edge14" class="edge"><title>Node1&#45;&gt;Node15</title>
<path fill="none" stroke="midnightblue" d="M27.2052,-249.317C33.3828,-197.699 52.4967,-60.2562 84,-29 91.3977,-21.6604 101.081,-16.9616 111.146,-13.9945"/>
<polygon fill="midnightblue" stroke="midnightblue" points="23.7028,-249.136 26.0258,-259.473 30.656,-249.944 23.7028,-249.136"/>
</g>
</g>
</svg>
