<?xml version="1.0" encoding="UTF-8" standalone="no"?>
<!DOCTYPE svg PUBLIC "-//W3C//DTD SVG 1.1//EN"
 "http://www.w3.org/Graphics/SVG/1.1/DTD/svg11.dtd">
<!-- Generated by graphviz version 2.36.0 (20140111.2315)
 -->
<!-- Title: Graphical Class Hierarchy Pages: 1 -->
<svg width="238pt" height="66pt"
 viewBox="0.00 0.00 238.00 66.00" xmlns="http://www.w3.org/2000/svg" xmlns:xlink="http://www.w3.org/1999/xlink">
<g id="graph0" class="graph" transform="scale(1 1) rotate(0) translate(4 62)">
<title>Graphical Class Hierarchy</title>
<polygon fill="white" stroke="none" points="-4,4 -4,-62 234,-62 234,4 -4,4"/>
<!-- Node1 -->
<g id="node1" class="node"><title>Node1</title>
<polygon fill="white" stroke="#bfbfbf" points="0,-19.5 0,-38.5 50,-38.5 50,-19.5 0,-19.5"/>
<text text-anchor="middle" x="25" y="-26.5" font-family="Helvetica,sans-Serif" font-size="10.00">JFrame</text>
</g>
<!-- Node2 -->
<g id="node2" class="node"><title>Node2</title>
<g id="a_node2"><a xlink:href="d1/dd6/classppm__java_1_1frontend_1_1gui_1_1lineargauge_1_1_t_g_u_i_linear_gauge___wnd_p_p_m.html" target="_top" xlink:title="The PPM UI. ">
<polygon fill="white" stroke="black" points="86.5,-38.5 86.5,-57.5 229.5,-57.5 229.5,-38.5 86.5,-38.5"/>
<text text-anchor="middle" x="158" y="-45.5" font-family="Helvetica,sans-Serif" font-size="10.00">TGUILinearGauge_WndPPM</text>
</a>
</g>
</g>
<!-- Node1&#45;&gt;Node2 -->
<g id="edge1" class="edge"><title>Node1&#45;&gt;Node2</title>
<path fill="none" stroke="midnightblue" d="M59.9695,-33.9269C69.6174,-35.3262 80.4639,-36.8993 91.3171,-38.4735"/>
<polygon fill="midnightblue" stroke="midnightblue" points="60.4263,-30.4566 50.0274,-32.4849 59.4215,-37.3841 60.4263,-30.4566"/>
</g>
<!-- Node3 -->
<g id="node3" class="node"><title>Node3</title>
<g id="a_node3"><a xlink:href="de/d2b/classppm__java_1_1frontend_1_1gui_1_1needle_1_1_t_g_u_i_needle___wnd_p_p_m.html" target="_top" xlink:title="The PPM UI. ">
<polygon fill="white" stroke="black" points="98.5,-0.5 98.5,-19.5 217.5,-19.5 217.5,-0.5 98.5,-0.5"/>
<text text-anchor="middle" x="158" y="-7.5" font-family="Helvetica,sans-Serif" font-size="10.00">TGUINeedle_WndPPM</text>
</a>
</g>
</g>
<!-- Node1&#45;&gt;Node3 -->
<g id="edge2" class="edge"><title>Node1&#45;&gt;Node3</title>
<path fill="none" stroke="midnightblue" d="M60.1905,-24.0411C71.8524,-22.3497 85.2458,-20.4071 98.2775,-18.517"/>
<polygon fill="midnightblue" stroke="midnightblue" points="59.4215,-20.6159 50.0274,-25.5151 60.4263,-27.5434 59.4215,-20.6159"/>
</g>
</g>
</svg>
