<?xml version="1.0" encoding="UTF-8" standalone="no"?>
<!DOCTYPE svg PUBLIC "-//W3C//DTD SVG 1.1//EN"
 "http://www.w3.org/Graphics/SVG/1.1/DTD/svg11.dtd">
<!-- Generated by graphviz version 2.36.0 (20140111.2315)
 -->
<!-- Title: Graphical Class Hierarchy Pages: 1 -->
<svg width="242pt" height="427pt"
 viewBox="0.00 0.00 242.00 427.00" xmlns="http://www.w3.org/2000/svg" xmlns:xlink="http://www.w3.org/1999/xlink">
<g id="graph0" class="graph" transform="scale(1 1) rotate(0) translate(4 423)">
<title>Graphical Class Hierarchy</title>
<polygon fill="white" stroke="none" points="-4,4 -4,-423 238,-423 238,4 -4,4"/>
<!-- Node1 -->
<g id="node1" class="node"><title>Node1</title>
<g id="a_node1"><a xlink:href="d7/d5a/interfaceppm__java_1_1typelib_1_1_i_stats.html" target="_top" xlink:title="Interface for a statistics record. ">
<polygon fill="white" stroke="black" points="0.5,-205.5 0.5,-224.5 43.5,-224.5 43.5,-205.5 0.5,-205.5"/>
<text text-anchor="middle" x="22" y="-212.5" font-family="Helvetica,sans-Serif" font-size="10.00">IStats</text>
</a>
</g>
</g>
<!-- Node2 -->
<g id="node2" class="node"><title>Node2</title>
<g id="a_node2"><a xlink:href="d6/d84/classppm__java_1_1__dev_1_1concept_1_1example_1_1stats_1_1_t_stats_of_worker.html" target="_top" xlink:title="TStatsOfWorker">
<polygon fill="white" stroke="black" points="113,-399.5 113,-418.5 201,-418.5 201,-399.5 113,-399.5"/>
<text text-anchor="middle" x="157" y="-406.5" font-family="Helvetica,sans-Serif" font-size="10.00">TStatsOfWorker</text>
</a>
</g>
</g>
<!-- Node1&#45;&gt;Node2 -->
<g id="edge1" class="edge"><title>Node1&#45;&gt;Node2</title>
<path fill="none" stroke="midnightblue" d="M23.5155,-234.898C25.5734,-271.211 35.2942,-348.315 80,-390 88.9525,-398.348 101.004,-403.174 112.868,-405.924"/>
<polygon fill="midnightblue" stroke="midnightblue" points="27.0011,-234.481 23.0819,-224.638 20.0073,-234.777 27.0011,-234.481"/>
</g>
<!-- Node3 -->
<g id="node3" class="node"><title>Node3</title>
<g id="a_node3"><a xlink:href="df/daf/classppm__java_1_1backend_1_1module_1_1__deprecated__ppm_1_1_t_node_p_p_m_processor___stats.html" target="_top" xlink:title="Runtime statistics of a TNodePPMProcessor. ">
<polygon fill="white" stroke="black" points="87,-361.5 87,-380.5 227,-380.5 227,-361.5 87,-361.5"/>
<text text-anchor="middle" x="157" y="-368.5" font-family="Helvetica,sans-Serif" font-size="10.00">TNodePPMProcessor_Stats</text>
</a>
</g>
</g>
<!-- Node1&#45;&gt;Node3 -->
<g id="edge2" class="edge"><title>Node1&#45;&gt;Node3</title>
<path fill="none" stroke="midnightblue" d="M25.5731,-234.729C30.5472,-264.661 44.3372,-321.3 80,-352 84.4322,-355.815 89.5197,-358.885 94.9173,-361.352"/>
<polygon fill="midnightblue" stroke="midnightblue" points="29.0102,-234.048 24.0711,-224.675 22.0871,-235.082 29.0102,-234.048"/>
</g>
<!-- Node4 -->
<g id="node4" class="node"><title>Node4</title>
<g id="a_node4"><a xlink:href="d0/db3/classppm__java_1_1backend_1_1module_1_1converter__db_1_1_t_node_converter_db___stats.html" target="_top" xlink:title="Runtime statistics of a TNodeConverterDb. ">
<polygon fill="white" stroke="black" points="92,-323.5 92,-342.5 222,-342.5 222,-323.5 92,-323.5"/>
<text text-anchor="middle" x="157" y="-330.5" font-family="Helvetica,sans-Serif" font-size="10.00">TNodeConverterDb_Stats</text>
</a>
</g>
</g>
<!-- Node1&#45;&gt;Node4 -->
<g id="edge3" class="edge"><title>Node1&#45;&gt;Node4</title>
<path fill="none" stroke="midnightblue" d="M29.1854,-234.505C37.2787,-256.838 53.6209,-292.919 80,-313 85.7537,-317.38 92.3825,-320.804 99.2775,-323.479"/>
<polygon fill="midnightblue" stroke="midnightblue" points="32.4079,-233.11 25.8671,-224.776 25.7827,-235.37 32.4079,-233.11"/>
</g>
<!-- Node5 -->
<g id="node5" class="node"><title>Node5</title>
<g id="a_node5"><a xlink:href="d6/d19/classppm__java_1_1backend_1_1module_1_1integrator_1_1_t_node_integrator___p_p_m_ballistics___stats.html" target="_top" xlink:title="Runtime statistics of a TNodeIntegrator_PPMBallistics. ">
<polygon fill="white" stroke="black" points="80,-274 80,-304 234,-304 234,-274 80,-274"/>
<text text-anchor="start" x="88" y="-292" font-family="Helvetica,sans-Serif" font-size="10.00">TNodeIntegrator_PPMBallistics</text>
<text text-anchor="middle" x="157" y="-281" font-family="Helvetica,sans-Serif" font-size="10.00">_Stats</text>
</a>
</g>
</g>
<!-- Node1&#45;&gt;Node5 -->
<g id="edge4" class="edge"><title>Node1&#45;&gt;Node5</title>
<path fill="none" stroke="midnightblue" d="M39.1525,-231.951C49.8967,-242.405 64.7865,-255.411 80,-264 86.6526,-267.756 93.9547,-271.051 101.32,-273.912"/>
<polygon fill="midnightblue" stroke="midnightblue" points="41.3421,-229.189 31.8077,-224.569 36.3798,-234.126 41.3421,-229.189"/>
</g>
<!-- Node6 -->
<g id="node6" class="node"><title>Node6</title>
<g id="a_node6"><a xlink:href="d3/df6/classppm__java_1_1backend_1_1module_1_1jackd_1_1_t_audio_context___jack_d___stats.html" target="_top" xlink:title="Runtime statistics for a TAudioContext_JackD. ">
<polygon fill="white" stroke="black" points="99,-225 99,-255 215,-255 215,-225 99,-225"/>
<text text-anchor="start" x="107" y="-243" font-family="Helvetica,sans-Serif" font-size="10.00">TAudioContext_JackD</text>
<text text-anchor="middle" x="157" y="-232" font-family="Helvetica,sans-Serif" font-size="10.00">_Stats</text>
</a>
</g>
</g>
<!-- Node1&#45;&gt;Node6 -->
<g id="edge5" class="edge"><title>Node1&#45;&gt;Node6</title>
<path fill="none" stroke="midnightblue" d="M53.8858,-220.806C67.3002,-223.327 83.4573,-226.364 98.9207,-229.271"/>
<polygon fill="midnightblue" stroke="midnightblue" points="54.2557,-217.314 43.7812,-218.906 52.9625,-224.193 54.2557,-217.314"/>
</g>
<!-- Node7 -->
<g id="node7" class="node"><title>Node7</title>
<g id="a_node7"><a xlink:href="d8/ddb/classppm__java_1_1backend_1_1module_1_1peak__estimator_1_1_t_node_peak_estimator___stats.html" target="_top" xlink:title="Runtime statistics for a TNodePeakEstimator. ">
<polygon fill="white" stroke="black" points="102,-176 102,-206 212,-206 212,-176 102,-176"/>
<text text-anchor="start" x="110" y="-194" font-family="Helvetica,sans-Serif" font-size="10.00">TNodePeakEstimator</text>
<text text-anchor="middle" x="157" y="-183" font-family="Helvetica,sans-Serif" font-size="10.00">_Stats</text>
</a>
</g>
</g>
<!-- Node1&#45;&gt;Node7 -->
<g id="edge6" class="edge"><title>Node1&#45;&gt;Node7</title>
<path fill="none" stroke="midnightblue" d="M53.9977,-209.406C68.2285,-206.838 85.528,-203.717 101.808,-200.779"/>
<polygon fill="midnightblue" stroke="midnightblue" points="53.0007,-206.03 43.7812,-211.25 54.2439,-212.918 53.0007,-206.03"/>
</g>
<!-- Node8 -->
<g id="node8" class="node"><title>Node8</title>
<g id="a_node8"><a xlink:href="d7/dba/classppm__java_1_1backend_1_1module_1_1pump_1_1_t_node_pump___stats.html" target="_top" xlink:title="Runtime statistics for a TNodePump. ">
<polygon fill="white" stroke="black" points="107,-137.5 107,-156.5 207,-156.5 207,-137.5 107,-137.5"/>
<text text-anchor="middle" x="157" y="-144.5" font-family="Helvetica,sans-Serif" font-size="10.00">TNodePump_Stats</text>
</a>
</g>
</g>
<!-- Node1&#45;&gt;Node8 -->
<g id="edge7" class="edge"><title>Node1&#45;&gt;Node8</title>
<path fill="none" stroke="midnightblue" d="M39.0432,-198.097C49.7439,-187.737 64.6264,-174.976 80,-167 88.3563,-162.664 97.7293,-159.213 106.964,-156.484"/>
<polygon fill="midnightblue" stroke="midnightblue" points="36.3141,-195.877 31.7365,-205.432 41.2735,-200.817 36.3141,-195.877"/>
</g>
<!-- Node9 -->
<g id="node9" class="node"><title>Node9</title>
<g id="a_node9"><a xlink:href="d2/dbc/classppm__java_1_1frontend_1_1gui_1_1lineargauge_1_1_t_g_u_i_linear_gauge___surrogate___stats.html" target="_top" xlink:title="Combined runtime statistics for all channels. ">
<polygon fill="white" stroke="black" points="85.5,-88 85.5,-118 228.5,-118 228.5,-88 85.5,-88"/>
<text text-anchor="start" x="93.5" y="-106" font-family="Helvetica,sans-Serif" font-size="10.00">TGUILinearGauge_Surrogate</text>
<text text-anchor="middle" x="157" y="-95" font-family="Helvetica,sans-Serif" font-size="10.00">_Stats</text>
</a>
</g>
</g>
<!-- Node1&#45;&gt;Node9 -->
<g id="edge8" class="edge"><title>Node1&#45;&gt;Node9</title>
<path fill="none" stroke="midnightblue" d="M30.7721,-196.17C39.8205,-176.472 56.5737,-145.968 80,-128 85.0698,-124.111 90.7715,-120.813 96.7144,-118.018"/>
<polygon fill="midnightblue" stroke="midnightblue" points="27.5521,-194.798 26.7482,-205.363 33.9646,-197.605 27.5521,-194.798"/>
</g>
<!-- Node10 -->
<g id="node10" class="node"><title>Node10</title>
<g id="a_node10"><a xlink:href="dc/d65/classppm__java_1_1frontend_1_1gui_1_1needle_1_1_t_g_u_i_needle___surrogate___stats.html" target="_top" xlink:title="Combined runtime statistics for all channels. ">
<polygon fill="white" stroke="black" points="97.5,-39 97.5,-69 216.5,-69 216.5,-39 97.5,-39"/>
<text text-anchor="start" x="105.5" y="-57" font-family="Helvetica,sans-Serif" font-size="10.00">TGUINeedle_Surrogate</text>
<text text-anchor="middle" x="157" y="-46" font-family="Helvetica,sans-Serif" font-size="10.00">_Stats</text>
</a>
</g>
</g>
<!-- Node1&#45;&gt;Node10 -->
<g id="edge9" class="edge"><title>Node1&#45;&gt;Node10</title>
<path fill="none" stroke="midnightblue" d="M25.976,-195.296C31.4401,-165.883 45.8184,-110.58 80,-79 85.1011,-74.2871 91.1088,-70.4615 97.4743,-67.3564"/>
<polygon fill="midnightblue" stroke="midnightblue" points="22.5181,-194.754 24.2956,-205.198 29.4195,-195.925 22.5181,-194.754"/>
</g>
<!-- Node11 -->
<g id="node11" class="node"><title>Node11</title>
<g id="a_node11"><a xlink:href="d4/dc0/classppm__java_1_1util_1_1storage_1_1atomic_buffer_1_1_t_atomic_buffer___stats.html" target="_top" xlink:title="Runtime statistics of a TAtomicBuffer. ">
<polygon fill="white" stroke="black" points="103,-0.5 103,-19.5 211,-19.5 211,-0.5 103,-0.5"/>
<text text-anchor="middle" x="157" y="-7.5" font-family="Helvetica,sans-Serif" font-size="10.00">TAtomicBuffer_Stats</text>
</a>
</g>
</g>
<!-- Node1&#45;&gt;Node11 -->
<g id="edge10" class="edge"><title>Node1&#45;&gt;Node11</title>
<path fill="none" stroke="midnightblue" d="M23.1519,-195.079C24.5614,-157.276 33.1841,-74.9098 80,-30 86.3998,-23.8607 94.4493,-19.5497 102.898,-16.5343"/>
<polygon fill="midnightblue" stroke="midnightblue" points="19.648,-195.21 22.9118,-205.289 26.6461,-195.374 19.648,-195.21"/>
</g>
</g>
</svg>
