<?xml version="1.0" encoding="UTF-8" standalone="no"?>
<!DOCTYPE svg PUBLIC "-//W3C//DTD SVG 1.1//EN"
 "http://www.w3.org/Graphics/SVG/1.1/DTD/svg11.dtd">
<!-- Generated by graphviz version 2.36.0 (20140111.2315)
 -->
<!-- Title: Graphical Class Hierarchy Pages: 1 -->
<svg width="252pt" height="185pt"
 viewBox="0.00 0.00 252.00 185.00" xmlns="http://www.w3.org/2000/svg" xmlns:xlink="http://www.w3.org/1999/xlink">
<g id="graph0" class="graph" transform="scale(1 1) rotate(0) translate(4 181)">
<title>Graphical Class Hierarchy</title>
<polygon fill="white" stroke="none" points="-4,4 -4,-181 248,-181 248,4 -4,4"/>
<!-- Node1 -->
<g id="node1" class="node"><title>Node1</title>
<polygon fill="white" stroke="#bfbfbf" points="0,-78.5 0,-97.5 58,-97.5 58,-78.5 0,-78.5"/>
<text text-anchor="middle" x="29" y="-85.5" font-family="Helvetica,sans-Serif" font-size="10.00">Runnable</text>
</g>
<!-- Node2 -->
<g id="node2" class="node"><title>Node2</title>
<g id="a_node2"><a xlink:href="d1/d82/classppm__java_1_1__dev_1_1concept_1_1example_1_1_t_atomic_buffer_1_1_t_dev___example___atomic_b97e95d2d901073869329a4f73ca83d96.html" target="_top" xlink:title="The producer. ">
<polygon fill="white" stroke="black" points="94.5,-147 94.5,-177 243.5,-177 243.5,-147 94.5,-147"/>
<text text-anchor="start" x="102.5" y="-165" font-family="Helvetica,sans-Serif" font-size="10.00">TDev_Example_AtomicBuffer.</text>
<text text-anchor="middle" x="169" y="-154" font-family="Helvetica,sans-Serif" font-size="10.00">THighPriority_Producer</text>
</a>
</g>
</g>
<!-- Node1&#45;&gt;Node2 -->
<g id="edge1" class="edge"><title>Node1&#45;&gt;Node2</title>
<path fill="none" stroke="midnightblue" d="M48.2378,-104.567C60.4731,-114.999 77.3434,-128.124 94,-137 100.941,-140.699 108.535,-144.005 116.131,-146.906"/>
<polygon fill="midnightblue" stroke="midnightblue" points="50.3992,-101.807 40.5673,-97.8597 45.7914,-107.077 50.3992,-101.807"/>
</g>
<!-- Node3 -->
<g id="node3" class="node"><title>Node3</title>
<g id="a_node3"><a xlink:href="d8/d1e/classppm__java_1_1__dev_1_1concept_1_1example_1_1_t_atomic_buffer_1_1_t_dev___example___atomic_bc460d210c001fecbfdf03e5fb16d4c64.html" target="_top" xlink:title="The consumer. ">
<polygon fill="white" stroke="black" points="94.5,-98 94.5,-128 243.5,-128 243.5,-98 94.5,-98"/>
<text text-anchor="start" x="102.5" y="-116" font-family="Helvetica,sans-Serif" font-size="10.00">TDev_Example_AtomicBuffer.</text>
<text text-anchor="middle" x="169" y="-105" font-family="Helvetica,sans-Serif" font-size="10.00">TLowPriority_Consumer</text>
</a>
</g>
</g>
<!-- Node1&#45;&gt;Node3 -->
<g id="edge2" class="edge"><title>Node1&#45;&gt;Node3</title>
<path fill="none" stroke="midnightblue" d="M68.2262,-94.925C76.441,-96.4132 85.3878,-98.034 94.4396,-99.6738"/>
<polygon fill="midnightblue" stroke="midnightblue" points="68.7231,-91.4582 58.2594,-93.1195 67.4753,-98.3461 68.7231,-91.4582"/>
</g>
<!-- Node4 -->
<g id="node4" class="node"><title>Node4</title>
<g id="a_node4"><a xlink:href="d2/df2/classppm__java_1_1__dev_1_1concept_1_1trial_1_1_t_atomic_buffer_1_1_t_dev___trial___atomic_buffed45a420e4fba64d481cf2bcce0c03f63.html" target="_top" xlink:title="TDev_Trial_AtomicBuffer\l_Contention_01.TConsumer">
<polygon fill="white" stroke="black" points="99.5,-49 99.5,-79 238.5,-79 238.5,-49 99.5,-49"/>
<text text-anchor="start" x="107.5" y="-67" font-family="Helvetica,sans-Serif" font-size="10.00">TDev_Trial_AtomicBuffer</text>
<text text-anchor="middle" x="169" y="-56" font-family="Helvetica,sans-Serif" font-size="10.00">_Contention_01.TConsumer</text>
</a>
</g>
</g>
<!-- Node1&#45;&gt;Node4 -->
<g id="edge3" class="edge"><title>Node1&#45;&gt;Node4</title>
<path fill="none" stroke="midnightblue" d="M68.3033,-81.3386C77.9691,-79.6576 88.6442,-77.801 99.3095,-75.9462"/>
<polygon fill="midnightblue" stroke="midnightblue" points="67.5118,-77.9236 58.2594,-83.0853 68.7112,-84.8201 67.5118,-77.9236"/>
</g>
<!-- Node5 -->
<g id="node5" class="node"><title>Node5</title>
<g id="a_node5"><a xlink:href="db/ded/classppm__java_1_1__dev_1_1concept_1_1trial_1_1_t_atomic_buffer_1_1_t_dev___trial___atomic_buffe0e8937bd81dc59db72ba674899a04877.html" target="_top" xlink:title="TDev_Trial_AtomicBuffer\l_Contention_01.TProducer">
<polygon fill="white" stroke="black" points="102.5,-0 102.5,-30 235.5,-30 235.5,-0 102.5,-0"/>
<text text-anchor="start" x="110.5" y="-18" font-family="Helvetica,sans-Serif" font-size="10.00">TDev_Trial_AtomicBuffer</text>
<text text-anchor="middle" x="169" y="-7" font-family="Helvetica,sans-Serif" font-size="10.00">_Contention_01.TProducer</text>
</a>
</g>
</g>
<!-- Node1&#45;&gt;Node5 -->
<g id="edge4" class="edge"><title>Node1&#45;&gt;Node5</title>
<path fill="none" stroke="midnightblue" d="M48.2924,-71.7931C60.55,-61.5824 77.4246,-48.7275 94,-40 101.079,-36.2725 108.826,-32.9352 116.557,-30.0063"/>
<polygon fill="midnightblue" stroke="midnightblue" points="45.9374,-69.2016 40.6044,-78.3564 50.4824,-74.5254 45.9374,-69.2016"/>
</g>
</g>
</svg>
