<?xml version="1.0" encoding="UTF-8" standalone="no"?>
<!DOCTYPE svg PUBLIC "-//W3C//DTD SVG 1.1//EN"
 "http://www.w3.org/Graphics/SVG/1.1/DTD/svg11.dtd">
<!-- Generated by graphviz version 2.36.0 (20140111.2315)
 -->
<!-- Title: GetDumpStr Pages: 1 -->
<svg width="288pt" height="136pt"
 viewBox="0.00 0.00 288.00 136.00" xmlns="http://www.w3.org/2000/svg" xmlns:xlink="http://www.w3.org/1999/xlink">
<g id="graph0" class="graph" transform="scale(1 1) rotate(0) translate(4 132)">
<title>GetDumpStr</title>
<polygon fill="white" stroke="none" points="-4,4 -4,-132 284,-132 284,4 -4,4"/>
<!-- Node1 -->
<g id="node1" class="node"><title>Node1</title>
<polygon fill="#bfbfbf" stroke="black" points="0.5,-54.5 0.5,-73.5 71.5,-73.5 71.5,-54.5 0.5,-54.5"/>
<text text-anchor="middle" x="36" y="-61.5" font-family="Helvetica,sans-Serif" font-size="10.00">GetDumpStr</text>
</g>
<!-- Node2 -->
<g id="node2" class="node"><title>Node2</title>
<g id="a_node2"><a xlink:href="../../d5/d6a/classppm__java_1_1typelib_1_1_v_audio_processor.html#a5bfd065f6711c094469beafa8b649b71" target="_top" xlink:title="Returns the ith input port. ">
<polygon fill="white" stroke="black" points="108,-98 108,-128 280,-128 280,-98 108,-98"/>
<text text-anchor="start" x="116" y="-116" font-family="Helvetica,sans-Serif" font-size="10.00">ppm_java.typelib.VAudioProcessor.</text>
<text text-anchor="middle" x="194" y="-105" font-family="Helvetica,sans-Serif" font-size="10.00">GetPortIn</text>
</a>
</g>
</g>
<!-- Node1&#45;&gt;Node2 -->
<g id="edge1" class="edge"><title>Node1&#45;&gt;Node2</title>
<path fill="none" stroke="midnightblue" d="M64.5646,-73.6029C77.6806,-78.099 93.6078,-83.453 108,-88 115.425,-90.3459 123.238,-92.7417 130.994,-95.0758"/>
<polygon fill="midnightblue" stroke="midnightblue" points="130.172,-98.483 140.756,-97.9911 132.175,-91.7757 130.172,-98.483"/>
</g>
<!-- Node3 -->
<g id="node3" class="node"><title>Node3</title>
<g id="a_node3"><a xlink:href="../../d5/d6a/classppm__java_1_1typelib_1_1_v_audio_processor.html#a2a3eff032668d4235f02e6cad3f43a66" target="_top" xlink:title="Returns the ith output port. ">
<polygon fill="white" stroke="black" points="108,-49 108,-79 280,-79 280,-49 108,-49"/>
<text text-anchor="start" x="116" y="-67" font-family="Helvetica,sans-Serif" font-size="10.00">ppm_java.typelib.VAudioProcessor.</text>
<text text-anchor="middle" x="194" y="-56" font-family="Helvetica,sans-Serif" font-size="10.00">GetPortOut</text>
</a>
</g>
</g>
<!-- Node1&#45;&gt;Node3 -->
<g id="edge2" class="edge"><title>Node1&#45;&gt;Node3</title>
<path fill="none" stroke="midnightblue" d="M71.6215,-64C79.5978,-64 88.4615,-64 97.6643,-64"/>
<polygon fill="midnightblue" stroke="midnightblue" points="97.7575,-67.5001 107.757,-64 97.7575,-60.5001 97.7575,-67.5001"/>
</g>
<!-- Node4 -->
<g id="node4" class="node"><title>Node4</title>
<g id="a_node4"><a xlink:href="../../dc/da9/classppm__java_1_1backend_1_1module_1_1jackd_1_1_t_audio_context___jack_d.html#a70a3bb6a43a5f85e548047fb0131ff03" target="_top" xlink:title="ppm_java.backend.module.jackd.\lTAudioContext_JackD.IsWorking">
<polygon fill="white" stroke="black" points="112.5,-0 112.5,-30 275.5,-30 275.5,-0 112.5,-0"/>
<text text-anchor="start" x="120.5" y="-18" font-family="Helvetica,sans-Serif" font-size="10.00">ppm_java.backend.module.jackd.</text>
<text text-anchor="middle" x="194" y="-7" font-family="Helvetica,sans-Serif" font-size="10.00">TAudioContext_JackD.IsWorking</text>
</a>
</g>
</g>
<!-- Node1&#45;&gt;Node4 -->
<g id="edge3" class="edge"><title>Node1&#45;&gt;Node4</title>
<path fill="none" stroke="midnightblue" d="M64.5646,-54.3971C77.6806,-49.901 93.6078,-44.547 108,-40 115.425,-37.6541 123.238,-35.2583 130.994,-32.9242"/>
<polygon fill="midnightblue" stroke="midnightblue" points="132.175,-36.2243 140.756,-30.0089 130.172,-29.517 132.175,-36.2243"/>
</g>
</g>
</svg>
