<?xml version="1.0" encoding="UTF-8" standalone="no"?>
<!DOCTYPE svg PUBLIC "-//W3C//DTD SVG 1.1//EN"
 "http://www.w3.org/Graphics/SVG/1.1/DTD/svg11.dtd">
<!-- Generated by graphviz version 2.36.0 (20140111.2315)
 -->
<!-- Title: GetHelpText Pages: 1 -->
<svg width="532pt" height="28pt"
 viewBox="0.00 0.00 532.00 28.00" xmlns="http://www.w3.org/2000/svg" xmlns:xlink="http://www.w3.org/1999/xlink">
<g id="graph0" class="graph" transform="scale(1 1) rotate(0) translate(4 24)">
<title>GetHelpText</title>
<polygon fill="white" stroke="none" points="-4,4 -4,-24 528,-24 528,4 -4,4"/>
<!-- Node1 -->
<g id="node1" class="node"><title>Node1</title>
<polygon fill="#bfbfbf" stroke="black" points="0,-0.5 0,-19.5 72,-19.5 72,-0.5 0,-0.5"/>
<text text-anchor="middle" x="36" y="-7.5" font-family="Helvetica,sans-Serif" font-size="10.00">GetHelpText</text>
</g>
<!-- Node2 -->
<g id="node2" class="node"><title>Node2</title>
<g id="a_node2"><a xlink:href="../../da/dd4/classppm__java_1_1_t_main.html#a71fb0cb3dd3880a4a9dd86b168f00ee6" target="_top" xlink:title="Initializer. ">
<polygon fill="white" stroke="black" points="108,-0.5 108,-19.5 218,-19.5 218,-0.5 108,-0.5"/>
<text text-anchor="middle" x="163" y="-7.5" font-family="Helvetica,sans-Serif" font-size="10.00">ppm_java.TMain._Init</text>
</a>
</g>
</g>
<!-- Node1&#45;&gt;Node2 -->
<g id="edge1" class="edge"><title>Node1&#45;&gt;Node2</title>
<path fill="none" stroke="midnightblue" d="M82.3877,-10C90.6915,-10 99.4319,-10 107.958,-10"/>
<polygon fill="midnightblue" stroke="midnightblue" points="82.1522,-6.5001 72.1521,-10 82.1521,-13.5001 82.1522,-6.5001"/>
</g>
<!-- Node3 -->
<g id="node3" class="node"><title>Node3</title>
<g id="a_node3"><a xlink:href="../../da/dd4/classppm__java_1_1_t_main.html#a8e318939c3e363b0640af8624c89489a" target="_top" xlink:title="cTor. ">
<polygon fill="white" stroke="black" points="254.5,-0.5 254.5,-19.5 373.5,-19.5 373.5,-0.5 254.5,-0.5"/>
<text text-anchor="middle" x="314" y="-7.5" font-family="Helvetica,sans-Serif" font-size="10.00">ppm_java.TMain.TMain</text>
</a>
</g>
</g>
<!-- Node2&#45;&gt;Node3 -->
<g id="edge2" class="edge"><title>Node2&#45;&gt;Node3</title>
<path fill="none" stroke="midnightblue" d="M228.257,-10C236.91,-10 245.751,-10 254.301,-10"/>
<polygon fill="midnightblue" stroke="midnightblue" points="228.214,-6.5001 218.214,-10 228.214,-13.5001 228.214,-6.5001"/>
</g>
<!-- Node4 -->
<g id="node4" class="node"><title>Node4</title>
<g id="a_node4"><a xlink:href="../../da/dd4/classppm__java_1_1_t_main.html#a8b260eecbaabcef8473fd87ada040682" target="_top" xlink:title="Application entry point. ">
<polygon fill="white" stroke="black" points="410.5,-0.5 410.5,-19.5 523.5,-19.5 523.5,-0.5 410.5,-0.5"/>
<text text-anchor="middle" x="467" y="-7.5" font-family="Helvetica,sans-Serif" font-size="10.00">ppm_java.TMain.main</text>
</a>
</g>
</g>
<!-- Node3&#45;&gt;Node4 -->
<g id="edge3" class="edge"><title>Node3&#45;&gt;Node4</title>
<path fill="none" stroke="midnightblue" d="M383.985,-10C392.719,-10 401.571,-10 410.068,-10"/>
<polygon fill="midnightblue" stroke="midnightblue" points="383.813,-6.5001 373.813,-10 383.813,-13.5001 383.813,-6.5001"/>
</g>
</g>
</svg>
