<?xml version="1.0" encoding="UTF-8" standalone="no"?>
<!DOCTYPE svg PUBLIC "-//W3C//DTD SVG 1.1//EN"
 "http://www.w3.org/Graphics/SVG/1.1/DTD/svg11.dtd">
<!-- Generated by graphviz version 2.36.0 (20140111.2315)
 -->
<!-- Title: _SetLED Pages: 1 -->
<svg width="244pt" height="28pt"
 viewBox="0.00 0.00 244.00 28.00" xmlns="http://www.w3.org/2000/svg" xmlns:xlink="http://www.w3.org/1999/xlink">
<g id="graph0" class="graph" transform="scale(1 1) rotate(0) translate(4 24)">
<title>_SetLED</title>
<polygon fill="white" stroke="none" points="-4,4 -4,-24 240,-24 240,4 -4,4"/>
<!-- Node1 -->
<g id="node1" class="node"><title>Node1</title>
<polygon fill="#bfbfbf" stroke="black" points="0,-0.5 0,-19.5 56,-19.5 56,-0.5 0,-0.5"/>
<text text-anchor="middle" x="28" y="-7.5" font-family="Helvetica,sans-Serif" font-size="10.00">_SetLED</text>
</g>
<!-- Node2 -->
<g id="node2" class="node"><title>Node2</title>
<g id="a_node2"><a xlink:href="../../d2/d93/classppm__java_1_1frontend_1_1gui_1_1needle_1_1_t_g_u_i_needle___timer_clipping.html#a94ad2dfa4735f3b6549366828db0bb92" target="_top" xlink:title="Automaton core method. ">
<polygon fill="white" stroke="black" points="92.5,-0.5 92.5,-19.5 169.5,-19.5 169.5,-0.5 92.5,-0.5"/>
<text text-anchor="middle" x="131" y="-7.5" font-family="Helvetica,sans-Serif" font-size="10.00">_DoTransition</text>
</a>
</g>
</g>
<!-- Node1&#45;&gt;Node2 -->
<g id="edge1" class="edge"><title>Node1&#45;&gt;Node2</title>
<path fill="none" stroke="midnightblue" d="M66.1088,-10C74.6233,-10 83.6853,-10 92.2275,-10"/>
<polygon fill="midnightblue" stroke="midnightblue" points="66.0662,-6.5001 56.0661,-10 66.0661,-13.5001 66.0662,-6.5001"/>
</g>
<!-- Node3 -->
<g id="node3" class="node"><title>Node3</title>
<g id="a_node3"><a xlink:href="../../d2/d93/classppm__java_1_1frontend_1_1gui_1_1needle_1_1_t_g_u_i_needle___timer_clipping.html#a13a43e6d814de94978c515cb084873b1" target="_top" xlink:title="run">
<polygon fill="white" stroke="black" points="206,-0.5 206,-19.5 236,-19.5 236,-0.5 206,-0.5"/>
<text text-anchor="middle" x="221" y="-7.5" font-family="Helvetica,sans-Serif" font-size="10.00">run</text>
</a>
</g>
</g>
<!-- Node2&#45;&gt;Node3 -->
<g id="edge2" class="edge"><title>Node2&#45;&gt;Node3</title>
<path fill="none" stroke="midnightblue" d="M179.619,-10C189.252,-10 198.651,-10 205.954,-10"/>
<polygon fill="midnightblue" stroke="midnightblue" points="179.575,-6.5001 169.575,-10 179.575,-13.5001 179.575,-6.5001"/>
</g>
</g>
</svg>
