<?xml version="1.0" encoding="UTF-8" standalone="no"?>
<!DOCTYPE svg PUBLIC "-//W3C//DTD SVG 1.1//EN"
 "http://www.w3.org/Graphics/SVG/1.1/DTD/svg11.dtd">
<!-- Generated by graphviz version 2.36.0 (20140111.2315)
 -->
<!-- Title: run Pages: 1 -->
<svg width="250pt" height="66pt"
 viewBox="0.00 0.00 250.00 66.00" xmlns="http://www.w3.org/2000/svg" xmlns:xlink="http://www.w3.org/1999/xlink">
<g id="graph0" class="graph" transform="scale(1 1) rotate(0) translate(4 62)">
<title>run</title>
<polygon fill="white" stroke="none" points="-4,4 -4,-62 246,-62 246,4 -4,4"/>
<!-- Node1 -->
<g id="node1" class="node"><title>Node1</title>
<polygon fill="#bfbfbf" stroke="black" points="0,-19.5 0,-38.5 30,-38.5 30,-19.5 0,-19.5"/>
<text text-anchor="middle" x="15" y="-26.5" font-family="Helvetica,sans-Serif" font-size="10.00">run</text>
</g>
<!-- Node2 -->
<g id="node2" class="node"><title>Node2</title>
<g id="a_node2"><a xlink:href="../../d2/d93/classppm__java_1_1frontend_1_1gui_1_1needle_1_1_t_g_u_i_needle___timer_clipping.html#a94ad2dfa4735f3b6549366828db0bb92" target="_top" xlink:title="Automaton core method. ">
<polygon fill="white" stroke="black" points="66.5,-19.5 66.5,-38.5 143.5,-38.5 143.5,-19.5 66.5,-19.5"/>
<text text-anchor="middle" x="105" y="-26.5" font-family="Helvetica,sans-Serif" font-size="10.00">_DoTransition</text>
</a>
</g>
</g>
<!-- Node1&#45;&gt;Node2 -->
<g id="edge1" class="edge"><title>Node1&#45;&gt;Node2</title>
<path fill="none" stroke="midnightblue" d="M30.1387,-29C37.346,-29 46.5773,-29 56.0546,-29"/>
<polygon fill="midnightblue" stroke="midnightblue" points="56.351,-32.5001 66.351,-29 56.351,-25.5001 56.351,-32.5001"/>
</g>
<!-- Node3 -->
<g id="node3" class="node"><title>Node3</title>
<g id="a_node3"><a xlink:href="../../d2/d93/classppm__java_1_1frontend_1_1gui_1_1needle_1_1_t_g_u_i_needle___timer_clipping.html#a76707c44f20cff55020b732328f08945" target="_top" xlink:title="Tells the hosting GUI to set the associated clipping LED. ">
<polygon fill="white" stroke="black" points="183,-38.5 183,-57.5 239,-57.5 239,-38.5 183,-38.5"/>
<text text-anchor="middle" x="211" y="-45.5" font-family="Helvetica,sans-Serif" font-size="10.00">_SetLED</text>
</a>
</g>
</g>
<!-- Node2&#45;&gt;Node3 -->
<g id="edge2" class="edge"><title>Node2&#45;&gt;Node3</title>
<path fill="none" stroke="midnightblue" d="M143.546,-35.8594C153.117,-37.608 163.398,-39.4862 172.944,-41.2302"/>
<polygon fill="midnightblue" stroke="midnightblue" points="172.48,-44.7033 182.947,-43.0576 173.739,-37.8173 172.48,-44.7033"/>
</g>
<!-- Node4 -->
<g id="node4" class="node"><title>Node4</title>
<g id="a_node4"><a xlink:href="../../d2/d93/classppm__java_1_1frontend_1_1gui_1_1needle_1_1_t_g_u_i_needle___timer_clipping.html#af3f4cc2e56d26e61c9a90be2493d1e30" target="_top" xlink:title="Reset the clip/warn condition if wait interval has passed. ">
<polygon fill="white" stroke="black" points="180,-0.5 180,-19.5 242,-19.5 242,-0.5 180,-0.5"/>
<text text-anchor="middle" x="211" y="-7.5" font-family="Helvetica,sans-Serif" font-size="10.00">_TryReset</text>
</a>
</g>
</g>
<!-- Node2&#45;&gt;Node4 -->
<g id="edge3" class="edge"><title>Node2&#45;&gt;Node4</title>
<path fill="none" stroke="midnightblue" d="M143.546,-22.1406C152.077,-20.582 161.172,-18.9205 169.808,-17.3427"/>
<polygon fill="midnightblue" stroke="midnightblue" points="170.466,-20.7805 179.674,-15.5403 169.208,-13.8945 170.466,-20.7805"/>
</g>
</g>
</svg>
