<?xml version="1.0" encoding="UTF-8" standalone="no"?>
<!DOCTYPE svg PUBLIC "-//W3C//DTD SVG 1.1//EN"
 "http://www.w3.org/Graphics/SVG/1.1/DTD/svg11.dtd">
<!-- Generated by graphviz version 2.36.0 (20140111.2315)
 -->
<!-- Title: _DoTransition Pages: 1 -->
<svg width="184pt" height="66pt"
 viewBox="0.00 0.00 184.00 66.00" xmlns="http://www.w3.org/2000/svg" xmlns:xlink="http://www.w3.org/1999/xlink">
<g id="graph0" class="graph" transform="scale(1 1) rotate(0) translate(4 62)">
<title>_DoTransition</title>
<polygon fill="white" stroke="none" points="-4,4 -4,-62 180,-62 180,4 -4,4"/>
<!-- Node1 -->
<g id="node1" class="node"><title>Node1</title>
<polygon fill="#bfbfbf" stroke="black" points="0.5,-19.5 0.5,-38.5 77.5,-38.5 77.5,-19.5 0.5,-19.5"/>
<text text-anchor="middle" x="39" y="-26.5" font-family="Helvetica,sans-Serif" font-size="10.00">_DoTransition</text>
</g>
<!-- Node2 -->
<g id="node2" class="node"><title>Node2</title>
<g id="a_node2"><a xlink:href="../../d2/d93/classppm__java_1_1frontend_1_1gui_1_1needle_1_1_t_g_u_i_needle___timer_clipping.html#a76707c44f20cff55020b732328f08945" target="_top" xlink:title="Tells the hosting GUI to set the associated clipping LED. ">
<polygon fill="white" stroke="black" points="117,-38.5 117,-57.5 173,-57.5 173,-38.5 117,-38.5"/>
<text text-anchor="middle" x="145" y="-45.5" font-family="Helvetica,sans-Serif" font-size="10.00">_SetLED</text>
</a>
</g>
</g>
<!-- Node1&#45;&gt;Node2 -->
<g id="edge1" class="edge"><title>Node1&#45;&gt;Node2</title>
<path fill="none" stroke="midnightblue" d="M77.5464,-35.8594C87.1174,-37.608 97.3981,-39.4862 106.944,-41.2302"/>
<polygon fill="midnightblue" stroke="midnightblue" points="106.48,-44.7033 116.947,-43.0576 107.739,-37.8173 106.48,-44.7033"/>
</g>
<!-- Node3 -->
<g id="node3" class="node"><title>Node3</title>
<g id="a_node3"><a xlink:href="../../d2/d93/classppm__java_1_1frontend_1_1gui_1_1needle_1_1_t_g_u_i_needle___timer_clipping.html#af3f4cc2e56d26e61c9a90be2493d1e30" target="_top" xlink:title="Reset the clip/warn condition if wait interval has passed. ">
<polygon fill="white" stroke="black" points="114,-0.5 114,-19.5 176,-19.5 176,-0.5 114,-0.5"/>
<text text-anchor="middle" x="145" y="-7.5" font-family="Helvetica,sans-Serif" font-size="10.00">_TryReset</text>
</a>
</g>
</g>
<!-- Node1&#45;&gt;Node3 -->
<g id="edge2" class="edge"><title>Node1&#45;&gt;Node3</title>
<path fill="none" stroke="midnightblue" d="M77.5464,-22.1406C86.0774,-20.582 95.1723,-18.9205 103.808,-17.3427"/>
<polygon fill="midnightblue" stroke="midnightblue" points="104.466,-20.7805 113.674,-15.5403 103.208,-13.8945 104.466,-20.7805"/>
</g>
</g>
</svg>
