<?xml version="1.0" encoding="UTF-8" standalone="no"?>
<!DOCTYPE svg PUBLIC "-//W3C//DTD SVG 1.1//EN"
 "http://www.w3.org/Graphics/SVG/1.1/DTD/svg11.dtd">
<!-- Generated by graphviz version 2.36.0 (20140111.2315)
 -->
<!-- Title: TGUINeedle_Surrogate Pages: 1 -->
<svg width="291pt" height="740pt"
 viewBox="0.00 0.00 291.00 740.00" xmlns="http://www.w3.org/2000/svg" xmlns:xlink="http://www.w3.org/1999/xlink">
<g id="graph0" class="graph" transform="scale(1 1) rotate(0) translate(4 736)">
<title>TGUINeedle_Surrogate</title>
<polygon fill="white" stroke="none" points="-4,4 -4,-736 287,-736 287,4 -4,4"/>
<!-- Node1 -->
<g id="node1" class="node"><title>Node1</title>
<polygon fill="#bfbfbf" stroke="black" points="91.5,-0.5 91.5,-189.5 222.5,-189.5 222.5,-0.5 91.5,-0.5"/>
<text text-anchor="middle" x="157" y="-177.5" font-family="Helvetica,sans-Serif" font-size="10.00">TGUINeedle_Surrogate</text>
<polyline fill="none" stroke="black" points="91.5,-170.5 222.5,-170.5 "/>
<text text-anchor="start" x="99.5" y="-158.5" font-family="Helvetica,sans-Serif" font-size="10.00">&#45; fGUI</text>
<text text-anchor="start" x="99.5" y="-147.5" font-family="Helvetica,sans-Serif" font-size="10.00">&#45; fStat</text>
<text text-anchor="start" x="99.5" y="-136.5" font-family="Helvetica,sans-Serif" font-size="10.00">&#45; gGUI</text>
<text text-anchor="start" x="99.5" y="-125.5" font-family="Helvetica,sans-Serif" font-size="10.00">&#45; gkLvlClip</text>
<text text-anchor="start" x="99.5" y="-114.5" font-family="Helvetica,sans-Serif" font-size="10.00">&#45; gkLvlWarn</text>
<polyline fill="none" stroke="black" points="91.5,-107.5 222.5,-107.5 "/>
<text text-anchor="start" x="99.5" y="-95.5" font-family="Helvetica,sans-Serif" font-size="10.00">+ CreatePort_In()</text>
<text text-anchor="start" x="99.5" y="-84.5" font-family="Helvetica,sans-Serif" font-size="10.00">+ Start()</text>
<text text-anchor="start" x="99.5" y="-73.5" font-family="Helvetica,sans-Serif" font-size="10.00">+ StatsGet()</text>
<text text-anchor="start" x="99.5" y="-62.5" font-family="Helvetica,sans-Serif" font-size="10.00">+ Stop()</text>
<text text-anchor="start" x="99.5" y="-51.5" font-family="Helvetica,sans-Serif" font-size="10.00">+ CreateInstance()</text>
<text text-anchor="start" x="99.5" y="-40.5" font-family="Helvetica,sans-Serif" font-size="10.00">~ OnTerminate()</text>
<text text-anchor="start" x="99.5" y="-29.5" font-family="Helvetica,sans-Serif" font-size="10.00">~ SetLevel()</text>
<text text-anchor="start" x="99.5" y="-18.5" font-family="Helvetica,sans-Serif" font-size="10.00"># _Register()</text>
<text text-anchor="start" x="99.5" y="-7.5" font-family="Helvetica,sans-Serif" font-size="10.00">&#45; TGUINeedle_Surrogate()</text>
</g>
<!-- Node2 -->
<g id="node2" class="node"><title>Node2</title>
<g id="a_node2"><a xlink:href="../../da/d04/classppm__java_1_1typelib_1_1_v_frontend.html" target="_top" xlink:title="Base class for a front end. ">
<polygon fill="white" stroke="black" points="3,-226.5 3,-305.5 103,-305.5 103,-226.5 3,-226.5"/>
<text text-anchor="middle" x="53" y="-293.5" font-family="Helvetica,sans-Serif" font-size="10.00">VFrontend</text>
<polyline fill="none" stroke="black" points="3,-286.5 103,-286.5 "/>
<text text-anchor="middle" x="53" y="-274.5" font-family="Helvetica,sans-Serif" font-size="10.00"> </text>
<polyline fill="none" stroke="black" points="3,-267.5 103,-267.5 "/>
<text text-anchor="start" x="11" y="-255.5" font-family="Helvetica,sans-Serif" font-size="10.00">+ VFrontend()</text>
<text text-anchor="start" x="11" y="-244.5" font-family="Helvetica,sans-Serif" font-size="10.00">+ CreatePort_Out()</text>
<text text-anchor="start" x="11" y="-233.5" font-family="Helvetica,sans-Serif" font-size="10.00"># _OnTerminate()</text>
</a>
</g>
</g>
<!-- Node2&#45;&gt;Node1 -->
<g id="edge1" class="edge"><title>Node2&#45;&gt;Node1</title>
<path fill="none" stroke="midnightblue" d="M82.1494,-217.632C87.5898,-208.792 93.4467,-199.274 99.4027,-189.596"/>
<polygon fill="none" stroke="midnightblue" points="79.1199,-215.877 76.8597,-226.228 85.0815,-219.546 79.1199,-215.877"/>
</g>
<!-- Node3 -->
<g id="node3" class="node"><title>Node3</title>
<g id="a_node3"><a xlink:href="../../d5/d6a/classppm__java_1_1typelib_1_1_v_audio_processor.html" target="_top" xlink:title="Base class for all modules processing audio samples. ">
<polygon fill="white" stroke="black" points="-0.5,-343 -0.5,-521 106.5,-521 106.5,-343 -0.5,-343"/>
<text text-anchor="middle" x="53" y="-509" font-family="Helvetica,sans-Serif" font-size="10.00">VAudioProcessor</text>
<polyline fill="none" stroke="black" points="-0.5,-502 106.5,-502 "/>
<text text-anchor="start" x="7.5" y="-490" font-family="Helvetica,sans-Serif" font-size="10.00">&#45; fPortsIn</text>
<text text-anchor="start" x="7.5" y="-479" font-family="Helvetica,sans-Serif" font-size="10.00">&#45; fPortsOut</text>
<polyline fill="none" stroke="black" points="-0.5,-472 106.5,-472 "/>
<text text-anchor="start" x="7.5" y="-460" font-family="Helvetica,sans-Serif" font-size="10.00">+ VAudioProcessor()</text>
<text text-anchor="start" x="7.5" y="-449" font-family="Helvetica,sans-Serif" font-size="10.00">+ CreatePort_In()</text>
<text text-anchor="start" x="7.5" y="-438" font-family="Helvetica,sans-Serif" font-size="10.00">+ CreatePort_Out()</text>
<text text-anchor="start" x="7.5" y="-427" font-family="Helvetica,sans-Serif" font-size="10.00">+ GetNumPortsIn()</text>
<text text-anchor="start" x="7.5" y="-416" font-family="Helvetica,sans-Serif" font-size="10.00">+ GetNumPortsOut()</text>
<text text-anchor="start" x="7.5" y="-405" font-family="Helvetica,sans-Serif" font-size="10.00">+ GetPortIn()</text>
<text text-anchor="start" x="7.5" y="-394" font-family="Helvetica,sans-Serif" font-size="10.00">+ GetPortIn()</text>
<text text-anchor="start" x="7.5" y="-383" font-family="Helvetica,sans-Serif" font-size="10.00">+ GetPortOut()</text>
<text text-anchor="start" x="7.5" y="-372" font-family="Helvetica,sans-Serif" font-size="10.00">+ GetPortOut()</text>
<text text-anchor="start" x="7.5" y="-361" font-family="Helvetica,sans-Serif" font-size="10.00"># AddPortIn()</text>
<text text-anchor="start" x="7.5" y="-350" font-family="Helvetica,sans-Serif" font-size="10.00"># AddPortOut()</text>
</a>
</g>
</g>
<!-- Node3&#45;&gt;Node2 -->
<g id="edge2" class="edge"><title>Node3&#45;&gt;Node2</title>
<path fill="none" stroke="midnightblue" d="M53,-332.738C53,-323.207 53,-313.98 53,-305.603"/>
<polygon fill="none" stroke="midnightblue" points="49.5001,-332.759 53,-342.759 56.5001,-332.759 49.5001,-332.759"/>
</g>
<!-- Node4 -->
<g id="node4" class="node"><title>Node4</title>
<g id="a_node4"><a xlink:href="../../d1/db3/classppm__java_1_1typelib_1_1_v_audio_object.html" target="_top" xlink:title="Base class for all browseable audio objects. ">
<polygon fill="white" stroke="black" points="7,-558.5 7,-615.5 99,-615.5 99,-558.5 7,-558.5"/>
<text text-anchor="middle" x="53" y="-603.5" font-family="Helvetica,sans-Serif" font-size="10.00">VAudioObject</text>
<polyline fill="none" stroke="black" points="7,-596.5 99,-596.5 "/>
<text text-anchor="middle" x="53" y="-584.5" font-family="Helvetica,sans-Serif" font-size="10.00"> </text>
<polyline fill="none" stroke="black" points="7,-577.5 99,-577.5 "/>
<text text-anchor="start" x="15" y="-565.5" font-family="Helvetica,sans-Serif" font-size="10.00">+ VAudioObject()</text>
</a>
</g>
</g>
<!-- Node4&#45;&gt;Node3 -->
<g id="edge3" class="edge"><title>Node4&#45;&gt;Node3</title>
<path fill="none" stroke="midnightblue" d="M53,-548.166C53,-539.781 53,-530.554 53,-521.086"/>
<polygon fill="none" stroke="midnightblue" points="49.5001,-548.293 53,-558.293 56.5001,-548.293 49.5001,-548.293"/>
</g>
<!-- Node5 -->
<g id="node5" class="node"><title>Node5</title>
<g id="a_node5"><a xlink:href="../../de/dd1/classppm__java_1_1typelib_1_1_v_browseable.html" target="_top" xlink:title="Base class for all browseable objects. ">
<polygon fill="white" stroke="black" points="8.5,-652.5 8.5,-731.5 97.5,-731.5 97.5,-652.5 8.5,-652.5"/>
<text text-anchor="middle" x="53" y="-719.5" font-family="Helvetica,sans-Serif" font-size="10.00">VBrowseable</text>
<polyline fill="none" stroke="black" points="8.5,-712.5 97.5,-712.5 "/>
<text text-anchor="start" x="16.5" y="-700.5" font-family="Helvetica,sans-Serif" font-size="10.00">&#45; fID</text>
<polyline fill="none" stroke="black" points="8.5,-693.5 97.5,-693.5 "/>
<text text-anchor="start" x="16.5" y="-681.5" font-family="Helvetica,sans-Serif" font-size="10.00">+ VBrowseable()</text>
<text text-anchor="start" x="16.5" y="-670.5" font-family="Helvetica,sans-Serif" font-size="10.00">+ GetID()</text>
<text text-anchor="start" x="16.5" y="-659.5" font-family="Helvetica,sans-Serif" font-size="10.00"># _Register()</text>
</a>
</g>
</g>
<!-- Node5&#45;&gt;Node4 -->
<g id="edge4" class="edge"><title>Node5&#45;&gt;Node4</title>
<path fill="none" stroke="midnightblue" d="M53,-642.163C53,-633.04 53,-623.806 53,-615.61"/>
<polygon fill="none" stroke="midnightblue" points="49.5001,-642.354 53,-652.354 56.5001,-642.354 49.5001,-642.354"/>
</g>
<!-- Node6 -->
<g id="node6" class="node"><title>Node6</title>
<g id="a_node6"><a xlink:href="../../db/d44/interfaceppm__java_1_1typelib_1_1_i_controllable.html" target="_top" xlink:title="A module or construct which can receive some low level control commands (start/stop etc...">
<polygon fill="white" stroke="black" points="121.5,-232 121.5,-300 192.5,-300 192.5,-232 121.5,-232"/>
<text text-anchor="middle" x="157" y="-288" font-family="Helvetica,sans-Serif" font-size="10.00">IControllable</text>
<polyline fill="none" stroke="black" points="121.5,-281 192.5,-281 "/>
<text text-anchor="middle" x="157" y="-269" font-family="Helvetica,sans-Serif" font-size="10.00"> </text>
<polyline fill="none" stroke="black" points="121.5,-262 192.5,-262 "/>
<text text-anchor="start" x="129.5" y="-250" font-family="Helvetica,sans-Serif" font-size="10.00">+ Start()</text>
<text text-anchor="start" x="129.5" y="-239" font-family="Helvetica,sans-Serif" font-size="10.00">+ Stop()</text>
</a>
</g>
</g>
<!-- Node6&#45;&gt;Node1 -->
<g id="edge5" class="edge"><title>Node6&#45;&gt;Node1</title>
<path fill="none" stroke="midnightblue" d="M157,-221.344C157,-211.497 157,-200.676 157,-189.644"/>
<polygon fill="none" stroke="midnightblue" points="153.5,-221.611 157,-231.611 160.5,-221.611 153.5,-221.611"/>
</g>
<!-- Node7 -->
<g id="node7" class="node"><title>Node7</title>
<g id="a_node7"><a xlink:href="../../dc/dc0/interfaceppm__java_1_1typelib_1_1_i_stat_enabled.html" target="_top" xlink:title="Interface for an object that supports runtime statistics. ">
<polygon fill="white" stroke="black" points="210.5,-237.5 210.5,-294.5 283.5,-294.5 283.5,-237.5 210.5,-237.5"/>
<text text-anchor="middle" x="247" y="-282.5" font-family="Helvetica,sans-Serif" font-size="10.00">IStatEnabled</text>
<polyline fill="none" stroke="black" points="210.5,-275.5 283.5,-275.5 "/>
<text text-anchor="middle" x="247" y="-263.5" font-family="Helvetica,sans-Serif" font-size="10.00"> </text>
<polyline fill="none" stroke="black" points="210.5,-256.5 283.5,-256.5 "/>
<text text-anchor="start" x="218.5" y="-244.5" font-family="Helvetica,sans-Serif" font-size="10.00">+ StatsGet()</text>
</a>
</g>
</g>
<!-- Node7&#45;&gt;Node1 -->
<g id="edge6" class="edge"><title>Node7&#45;&gt;Node1</title>
<path fill="none" stroke="midnightblue" d="M227.594,-228.56C221.399,-216.926 214.233,-203.472 206.892,-189.687"/>
<polygon fill="none" stroke="midnightblue" points="224.55,-230.29 232.34,-237.471 230.728,-226.999 224.55,-230.29"/>
</g>
</g>
</svg>
