<?xml version="1.0" encoding="UTF-8" standalone="no"?>
<!DOCTYPE svg PUBLIC "-//W3C//DTD SVG 1.1//EN"
 "http://www.w3.org/Graphics/SVG/1.1/DTD/svg11.dtd">
<!-- Generated by graphviz version 2.36.0 (20140111.2315)
 -->
<!-- Title: TConsole_TextOut Pages: 1 -->
<svg width="505pt" height="836pt"
 viewBox="0.00 0.00 505.00 836.00" xmlns="http://www.w3.org/2000/svg" xmlns:xlink="http://www.w3.org/1999/xlink">
<g id="graph0" class="graph" transform="scale(1 1) rotate(0) translate(4 832)">
<title>TConsole_TextOut</title>
<polygon fill="white" stroke="none" points="-4,4 -4,-832 501,-832 501,4 -4,4"/>
<!-- Node1 -->
<g id="node1" class="node"><title>Node1</title>
<polygon fill="#bfbfbf" stroke="black" points="229.5,-0.5 229.5,-189.5 348.5,-189.5 348.5,-0.5 229.5,-0.5"/>
<text text-anchor="middle" x="289" y="-177.5" font-family="Helvetica,sans-Serif" font-size="10.00">TConsole_TextOut</text>
<polyline fill="none" stroke="black" points="229.5,-170.5 348.5,-170.5 "/>
<text text-anchor="start" x="237.5" y="-158.5" font-family="Helvetica,sans-Serif" font-size="10.00">&#45; gkRecordTypeInfo</text>
<text text-anchor="start" x="237.5" y="-147.5" font-family="Helvetica,sans-Serif" font-size="10.00">&#45; gkRecordTypeSample</text>
<polyline fill="none" stroke="black" points="229.5,-140.5 348.5,-140.5 "/>
<text text-anchor="start" x="237.5" y="-128.5" font-family="Helvetica,sans-Serif" font-size="10.00">+ CreatePort_In()</text>
<text text-anchor="start" x="237.5" y="-117.5" font-family="Helvetica,sans-Serif" font-size="10.00">+ OnEvent()</text>
<text text-anchor="start" x="237.5" y="-106.5" font-family="Helvetica,sans-Serif" font-size="10.00">+ OnEvent()</text>
<text text-anchor="start" x="237.5" y="-95.5" font-family="Helvetica,sans-Serif" font-size="10.00">+ OnEvent()</text>
<text text-anchor="start" x="237.5" y="-84.5" font-family="Helvetica,sans-Serif" font-size="10.00">+ OnEvent()</text>
<text text-anchor="start" x="237.5" y="-73.5" font-family="Helvetica,sans-Serif" font-size="10.00">+ Start()</text>
<text text-anchor="start" x="237.5" y="-62.5" font-family="Helvetica,sans-Serif" font-size="10.00">+ Stop()</text>
<text text-anchor="start" x="237.5" y="-51.5" font-family="Helvetica,sans-Serif" font-size="10.00">+ CreateInstance()</text>
<text text-anchor="start" x="237.5" y="-40.5" font-family="Helvetica,sans-Serif" font-size="10.00">~ Receive()</text>
<text text-anchor="start" x="237.5" y="-29.5" font-family="Helvetica,sans-Serif" font-size="10.00"># _Register()</text>
<text text-anchor="start" x="237.5" y="-18.5" font-family="Helvetica,sans-Serif" font-size="10.00">&#45; TConsole_TextOut()</text>
<text text-anchor="start" x="237.5" y="-7.5" font-family="Helvetica,sans-Serif" font-size="10.00">&#45; _PushRecord()</text>
</g>
<!-- Node2 -->
<g id="node2" class="node"><title>Node2</title>
<g id="a_node2"><a xlink:href="../../da/d04/classppm__java_1_1typelib_1_1_v_frontend.html" target="_top" xlink:title="Base class for a front end. ">
<polygon fill="white" stroke="black" points="135,-267.5 135,-346.5 235,-346.5 235,-267.5 135,-267.5"/>
<text text-anchor="middle" x="185" y="-334.5" font-family="Helvetica,sans-Serif" font-size="10.00">VFrontend</text>
<polyline fill="none" stroke="black" points="135,-327.5 235,-327.5 "/>
<text text-anchor="middle" x="185" y="-315.5" font-family="Helvetica,sans-Serif" font-size="10.00"> </text>
<polyline fill="none" stroke="black" points="135,-308.5 235,-308.5 "/>
<text text-anchor="start" x="143" y="-296.5" font-family="Helvetica,sans-Serif" font-size="10.00">+ VFrontend()</text>
<text text-anchor="start" x="143" y="-285.5" font-family="Helvetica,sans-Serif" font-size="10.00">+ CreatePort_Out()</text>
<text text-anchor="start" x="143" y="-274.5" font-family="Helvetica,sans-Serif" font-size="10.00"># _OnTerminate()</text>
</a>
</g>
</g>
<!-- Node2&#45;&gt;Node1 -->
<g id="edge1" class="edge"><title>Node2&#45;&gt;Node1</title>
<path fill="none" stroke="midnightblue" d="M208.561,-258.426C218.659,-238.035 230.824,-213.471 242.601,-189.691"/>
<polygon fill="none" stroke="midnightblue" points="205.377,-256.968 204.075,-267.483 211.65,-260.075 205.377,-256.968"/>
</g>
<!-- Node3 -->
<g id="node3" class="node"><title>Node3</title>
<g id="a_node3"><a xlink:href="../../d5/d6a/classppm__java_1_1typelib_1_1_v_audio_processor.html" target="_top" xlink:title="Base class for all modules processing audio samples. ">
<polygon fill="white" stroke="black" points="131.5,-424.5 131.5,-591.5 238.5,-591.5 238.5,-424.5 131.5,-424.5"/>
<text text-anchor="middle" x="185" y="-579.5" font-family="Helvetica,sans-Serif" font-size="10.00">VAudioProcessor</text>
<polyline fill="none" stroke="black" points="131.5,-572.5 238.5,-572.5 "/>
<text text-anchor="middle" x="185" y="-560.5" font-family="Helvetica,sans-Serif" font-size="10.00"> </text>
<polyline fill="none" stroke="black" points="131.5,-553.5 238.5,-553.5 "/>
<text text-anchor="start" x="139.5" y="-541.5" font-family="Helvetica,sans-Serif" font-size="10.00">+ VAudioProcessor()</text>
<text text-anchor="start" x="139.5" y="-530.5" font-family="Helvetica,sans-Serif" font-size="10.00">+ CreatePort_In()</text>
<text text-anchor="start" x="139.5" y="-519.5" font-family="Helvetica,sans-Serif" font-size="10.00">+ CreatePort_Out()</text>
<text text-anchor="start" x="139.5" y="-508.5" font-family="Helvetica,sans-Serif" font-size="10.00">+ GetNumPortsIn()</text>
<text text-anchor="start" x="139.5" y="-497.5" font-family="Helvetica,sans-Serif" font-size="10.00">+ GetNumPortsOut()</text>
<text text-anchor="start" x="139.5" y="-486.5" font-family="Helvetica,sans-Serif" font-size="10.00">+ GetPortIn()</text>
<text text-anchor="start" x="139.5" y="-475.5" font-family="Helvetica,sans-Serif" font-size="10.00">+ GetPortIn()</text>
<text text-anchor="start" x="139.5" y="-464.5" font-family="Helvetica,sans-Serif" font-size="10.00">+ GetPortOut()</text>
<text text-anchor="start" x="139.5" y="-453.5" font-family="Helvetica,sans-Serif" font-size="10.00">+ GetPortOut()</text>
<text text-anchor="start" x="139.5" y="-442.5" font-family="Helvetica,sans-Serif" font-size="10.00"># AddPortIn()</text>
<text text-anchor="start" x="139.5" y="-431.5" font-family="Helvetica,sans-Serif" font-size="10.00"># AddPortOut()</text>
</a>
</g>
</g>
<!-- Node3&#45;&gt;Node2 -->
<g id="edge2" class="edge"><title>Node3&#45;&gt;Node2</title>
<path fill="none" stroke="midnightblue" d="M185,-414.18C185,-390.375 185,-366.058 185,-346.712"/>
<polygon fill="none" stroke="midnightblue" points="181.5,-414.335 185,-424.335 188.5,-414.335 181.5,-414.335"/>
</g>
<!-- Node4 -->
<g id="node4" class="node"><title>Node4</title>
<g id="a_node4"><a xlink:href="../../d1/db3/classppm__java_1_1typelib_1_1_v_audio_object.html" target="_top" xlink:title="Base class for all browseable audio objects. ">
<polygon fill="white" stroke="black" points="0,-646.5 0,-703.5 92,-703.5 92,-646.5 0,-646.5"/>
<text text-anchor="middle" x="46" y="-691.5" font-family="Helvetica,sans-Serif" font-size="10.00">VAudioObject</text>
<polyline fill="none" stroke="black" points="0,-684.5 92,-684.5 "/>
<text text-anchor="middle" x="46" y="-672.5" font-family="Helvetica,sans-Serif" font-size="10.00"> </text>
<polyline fill="none" stroke="black" points="0,-665.5 92,-665.5 "/>
<text text-anchor="start" x="8" y="-653.5" font-family="Helvetica,sans-Serif" font-size="10.00">+ VAudioObject()</text>
</a>
</g>
</g>
<!-- Node4&#45;&gt;Node3 -->
<g id="edge3" class="edge"><title>Node4&#45;&gt;Node3</title>
<path fill="none" stroke="midnightblue" d="M75.9091,-638.496C92.0628,-619.321 112.498,-595.064 131.303,-572.741"/>
<polygon fill="none" stroke="midnightblue" points="73.0315,-636.48 69.2655,-646.383 78.3851,-640.99 73.0315,-636.48"/>
</g>
<!-- Node5 -->
<g id="node5" class="node"><title>Node5</title>
<g id="a_node5"><a xlink:href="../../de/dd1/classppm__java_1_1typelib_1_1_v_browseable.html" target="_top" xlink:title="Base class for all browseable objects. ">
<polygon fill="white" stroke="black" points="1.5,-748.5 1.5,-827.5 90.5,-827.5 90.5,-748.5 1.5,-748.5"/>
<text text-anchor="middle" x="46" y="-815.5" font-family="Helvetica,sans-Serif" font-size="10.00">VBrowseable</text>
<polyline fill="none" stroke="black" points="1.5,-808.5 90.5,-808.5 "/>
<text text-anchor="start" x="9.5" y="-796.5" font-family="Helvetica,sans-Serif" font-size="10.00">&#45; fID</text>
<polyline fill="none" stroke="black" points="1.5,-789.5 90.5,-789.5 "/>
<text text-anchor="start" x="9.5" y="-777.5" font-family="Helvetica,sans-Serif" font-size="10.00">+ VBrowseable()</text>
<text text-anchor="start" x="9.5" y="-766.5" font-family="Helvetica,sans-Serif" font-size="10.00">+ GetID()</text>
<text text-anchor="start" x="9.5" y="-755.5" font-family="Helvetica,sans-Serif" font-size="10.00"># _Register()</text>
</a>
</g>
</g>
<!-- Node5&#45;&gt;Node4 -->
<g id="edge4" class="edge"><title>Node5&#45;&gt;Node4</title>
<path fill="none" stroke="midnightblue" d="M46,-738.227C46,-726.364 46,-714.085 46,-703.601"/>
<polygon fill="none" stroke="midnightblue" points="42.5001,-738.489 46,-748.489 49.5001,-738.489 42.5001,-738.489"/>
</g>
<!-- Node6 -->
<g id="node6" class="node"><title>Node6</title>
<polygon fill="white" stroke="#bfbfbf" points="110,-641 110,-709 260,-709 260,-641 110,-641"/>
<text text-anchor="start" x="118" y="-697" font-family="Helvetica,sans-Serif" font-size="10.00">TArrayMap&lt; ppm_java.typelib.</text>
<text text-anchor="middle" x="185" y="-686" font-family="Helvetica,sans-Serif" font-size="10.00">VAudioPort_Output &gt;</text>
<polyline fill="none" stroke="#bfbfbf" points="110,-679 260,-679 "/>
<text text-anchor="middle" x="185" y="-667" font-family="Helvetica,sans-Serif" font-size="10.00"> </text>
<polyline fill="none" stroke="#bfbfbf" points="110,-660 260,-660 "/>
<text text-anchor="middle" x="185" y="-648" font-family="Helvetica,sans-Serif" font-size="10.00"> </text>
</g>
<!-- Node6&#45;&gt;Node3 -->
<g id="edge5" class="edge"><title>Node6&#45;&gt;Node3</title>
<path fill="none" stroke="#404040" d="M185,-640.61C185,-629.723 185,-617.043 185,-603.934"/>
<polygon fill="none" stroke="#404040" points="185,-603.813 181,-597.813 185,-591.813 189,-597.813 185,-603.813"/>
<text text-anchor="middle" x="209.5" y="-613.5" font-family="Helvetica,sans-Serif" font-size="10.00"> &#45;fPortsOut</text>
</g>
<!-- Node7 -->
<g id="node7" class="node"><title>Node7</title>
<polygon fill="white" stroke="#bfbfbf" points="278,-641 278,-709 428,-709 428,-641 278,-641"/>
<text text-anchor="start" x="286" y="-697" font-family="Helvetica,sans-Serif" font-size="10.00">TArrayMap&lt; ppm_java.typelib.</text>
<text text-anchor="middle" x="353" y="-686" font-family="Helvetica,sans-Serif" font-size="10.00">VAudioPort_Input &gt;</text>
<polyline fill="none" stroke="#bfbfbf" points="278,-679 428,-679 "/>
<text text-anchor="middle" x="353" y="-667" font-family="Helvetica,sans-Serif" font-size="10.00"> </text>
<polyline fill="none" stroke="#bfbfbf" points="278,-660 428,-660 "/>
<text text-anchor="middle" x="353" y="-648" font-family="Helvetica,sans-Serif" font-size="10.00"> </text>
</g>
<!-- Node7&#45;&gt;Node3 -->
<g id="edge6" class="edge"><title>Node7&#45;&gt;Node3</title>
<path fill="none" stroke="#404040" d="M319.003,-640.61C298.509,-620.482 271.771,-594.221 247.575,-570.457"/>
<polygon fill="none" stroke="#404040" points="247.353,-570.24 240.269,-568.889 238.792,-561.831 245.875,-563.182 247.353,-570.24"/>
<text text-anchor="middle" x="319.5" y="-613.5" font-family="Helvetica,sans-Serif" font-size="10.00"> &#45;fPortsIn</text>
</g>
<!-- Node8 -->
<g id="node8" class="node"><title>Node8</title>
<g id="a_node8"><a xlink:href="../../db/d44/interfaceppm__java_1_1typelib_1_1_i_controllable.html" target="_top" xlink:title="A module or construct which can receive some low level control commands (start/stop etc...">
<polygon fill="white" stroke="black" points="253.5,-273 253.5,-341 324.5,-341 324.5,-273 253.5,-273"/>
<text text-anchor="middle" x="289" y="-329" font-family="Helvetica,sans-Serif" font-size="10.00">IControllable</text>
<polyline fill="none" stroke="black" points="253.5,-322 324.5,-322 "/>
<text text-anchor="middle" x="289" y="-310" font-family="Helvetica,sans-Serif" font-size="10.00"> </text>
<polyline fill="none" stroke="black" points="253.5,-303 324.5,-303 "/>
<text text-anchor="start" x="261.5" y="-291" font-family="Helvetica,sans-Serif" font-size="10.00">+ Start()</text>
<text text-anchor="start" x="261.5" y="-280" font-family="Helvetica,sans-Serif" font-size="10.00">+ Stop()</text>
</a>
</g>
</g>
<!-- Node8&#45;&gt;Node1 -->
<g id="edge7" class="edge"><title>Node8&#45;&gt;Node1</title>
<path fill="none" stroke="midnightblue" d="M289,-262.501C289,-241.408 289,-215.202 289,-189.87"/>
<polygon fill="none" stroke="midnightblue" points="285.5,-262.725 289,-272.725 292.5,-262.725 285.5,-262.725"/>
</g>
<!-- Node9 -->
<g id="node9" class="node"><title>Node9</title>
<g id="a_node9"><a xlink:href="../../df/dbb/interfaceppm__java_1_1typelib_1_1_i_evented.html" target="_top" xlink:title="Base interface for the event system. ">
<polygon fill="white" stroke="black" points="343,-229 343,-385 497,-385 497,-229 343,-229"/>
<text text-anchor="middle" x="420" y="-373" font-family="Helvetica,sans-Serif" font-size="10.00">IEvented</text>
<polyline fill="none" stroke="black" points="343,-366 497,-366 "/>
<text text-anchor="start" x="351" y="-354" font-family="Helvetica,sans-Serif" font-size="10.00">+ gkEventBufferNotifyOverrun</text>
<text text-anchor="start" x="351" y="-343" font-family="Helvetica,sans-Serif" font-size="10.00">+ gkEventBufferNotifyUnderrun</text>
<text text-anchor="start" x="351" y="-332" font-family="Helvetica,sans-Serif" font-size="10.00">+ gkEventStart</text>
<text text-anchor="start" x="351" y="-321" font-family="Helvetica,sans-Serif" font-size="10.00">+ gkEventStop</text>
<text text-anchor="start" x="351" y="-310" font-family="Helvetica,sans-Serif" font-size="10.00">+ gkEventTimerAdjustInterval</text>
<text text-anchor="start" x="351" y="-299" font-family="Helvetica,sans-Serif" font-size="10.00">+ gkEventTimerNotifyInterval</text>
<text text-anchor="start" x="351" y="-288" font-family="Helvetica,sans-Serif" font-size="10.00">+ gkEventTimerTick</text>
<polyline fill="none" stroke="black" points="343,-281 497,-281 "/>
<text text-anchor="start" x="351" y="-269" font-family="Helvetica,sans-Serif" font-size="10.00">+ OnEvent()</text>
<text text-anchor="start" x="351" y="-258" font-family="Helvetica,sans-Serif" font-size="10.00">+ OnEvent()</text>
<text text-anchor="start" x="351" y="-247" font-family="Helvetica,sans-Serif" font-size="10.00">+ OnEvent()</text>
<text text-anchor="start" x="351" y="-236" font-family="Helvetica,sans-Serif" font-size="10.00">+ OnEvent()</text>
</a>
</g>
</g>
<!-- Node9&#45;&gt;Node1 -->
<g id="edge8" class="edge"><title>Node9&#45;&gt;Node1</title>
<path fill="none" stroke="midnightblue" d="M366.503,-220.242C360.238,-210.198 353.82,-199.91 347.491,-189.765"/>
<polygon fill="none" stroke="midnightblue" points="363.702,-222.364 371.964,-228.996 369.641,-218.659 363.702,-222.364"/>
</g>
</g>
</svg>
