<?xml version="1.0" encoding="UTF-8" standalone="no"?>
<!DOCTYPE svg PUBLIC "-//W3C//DTD SVG 1.1//EN"
 "http://www.w3.org/Graphics/SVG/1.1/DTD/svg11.dtd">
<!-- Generated by graphviz version 2.36.0 (20140111.2315)
 -->
<!-- Title: VAudioPort_Input Pages: 1 -->
<!--zoomable 658 -->
<svg id="main" version="1.1" xmlns="http://www.w3.org/2000/svg" xmlns:xlink="http://www.w3.org/1999/xlink" xml:space="preserve" onload="init(evt)">
<style type="text/css"><![CDATA[
.edge:hover path { stroke: red; }
.edge:hover polygon { stroke: red; fill: red; }
]]></style>
<script type="text/javascript"><![CDATA[
var edges = document.getElementsByTagName('g');
if (edges && edges.length) {
  for (var i=0;i<edges.length;i++) {
    if (edges[i].id.substr(0,4)=='edge') {
      edges[i].setAttribute('class','edge');
    }
  }
}
]]></script>
        <defs>
                <circle id="rim" cx="0" cy="0" r="7"/>
                <circle id="rim2" cx="0" cy="0" r="3.5"/>
                <g id="zoomPlus">
                        <use xlink:href="#rim" fill="#404040">
                                <set attributeName="fill" to="#808080" begin="zoomplus.mouseover" end="zoomplus.mouseout"/>
                        </use>
                        <path d="M-4,0h8M0,-4v8" fill="none" stroke="white" stroke-width="1.5" pointer-events="none"/>
                </g>
                <g id="zoomMin">
                        <use xlink:href="#rim" fill="#404040">
                                <set attributeName="fill" to="#808080" begin="zoomminus.mouseover" end="zoomminus.mouseout"/>
                        </use>
                        <path d="M-4,0h8" fill="none" stroke="white" stroke-width="1.5" pointer-events="none"/>
                </g>
                <g id="dirArrow">
                        <path fill="none" stroke="white" stroke-width="1.5" d="M0,-3.0v7 M-2.5,-0.5L0,-3.0L2.5,-0.5"/>
                </g>
               <g id="resetDef">
                       <use xlink:href="#rim2" fill="#404040">
                               <set attributeName="fill" to="#808080" begin="reset.mouseover" end="reset.mouseout"/>
                       </use>
               </g>
        </defs>

<script type="text/javascript">
var viewWidth = 436;
var viewHeight = 658;
var sectionId = 'dynsection-1';
</script>
<script xlink:href="../../svgpan.js"/>
<svg id="graph" class="graph">
<g id="viewport">
<title>VAudioPort_Input</title>
<polygon fill="white" stroke="none" points="-4,4 -4,-654 432,-654 432,4 -4,4"/>
<!-- Node1 -->
<g id="node1" class="node"><title>Node1</title>
<polygon fill="#bfbfbf" stroke="black" points="274,-0.5 274,-79.5 382,-79.5 382,-0.5 274,-0.5"/>
<text text-anchor="middle" x="328" y="-67.5" font-family="Helvetica,sans-Serif" font-size="10.00">VAudioPort_Input</text>
<polyline fill="none" stroke="black" points="274,-60.5 382,-60.5 "/>
<text text-anchor="start" x="282" y="-48.5" font-family="Helvetica,sans-Serif" font-size="10.00">&#45; fIPort</text>
<polyline fill="none" stroke="black" points="274,-41.5 382,-41.5 "/>
<text text-anchor="start" x="282" y="-29.5" font-family="Helvetica,sans-Serif" font-size="10.00">+ VAudioPort_Input()</text>
<text text-anchor="start" x="282" y="-18.5" font-family="Helvetica,sans-Serif" font-size="10.00">+ GetPortNum()</text>
<text text-anchor="start" x="282" y="-7.5" font-family="Helvetica,sans-Serif" font-size="10.00"># _Accept()</text>
</g>
<!-- Node2 -->
<g id="node2" class="node"><title>Node2</title>
<g id="a_node2"><a xlink:href="../../de/dc9/classppm__java_1_1typelib_1_1_v_audio_port.html" target="_top" xlink:title="Base class for all audio ports. ">
<polygon fill="white" stroke="black" points="287.5,-118.5 287.5,-197.5 368.5,-197.5 368.5,-118.5 287.5,-118.5"/>
<text text-anchor="middle" x="328" y="-185.5" font-family="Helvetica,sans-Serif" font-size="10.00">VAudioPort</text>
<polyline fill="none" stroke="black" points="287.5,-178.5 368.5,-178.5 "/>
<text text-anchor="middle" x="328" y="-166.5" font-family="Helvetica,sans-Serif" font-size="10.00"> </text>
<polyline fill="none" stroke="black" points="287.5,-159.5 368.5,-159.5 "/>
<text text-anchor="start" x="295.5" y="-147.5" font-family="Helvetica,sans-Serif" font-size="10.00">+ VAudioPort()</text>
<text text-anchor="start" x="295.5" y="-136.5" font-family="Helvetica,sans-Serif" font-size="10.00"># _GetHost()</text>
<text text-anchor="start" x="295.5" y="-125.5" font-family="Helvetica,sans-Serif" font-size="10.00"># _GetType()</text>
</a>
</g>
</g>
<!-- Node2&#45;&gt;Node1 -->
<g id="edge1" class="edge"><title>Node2&#45;&gt;Node1</title>
<path fill="none" stroke="midnightblue" d="M328,-108.268C328,-98.7855 328,-88.9643 328,-79.8532"/>
<polygon fill="none" stroke="midnightblue" points="324.5,-108.374 328,-118.374 331.5,-108.374 324.5,-108.374"/>
</g>
<!-- Node3 -->
<g id="node3" class="node"><title>Node3</title>
<g id="a_node3"><a xlink:href="../../d1/db3/classppm__java_1_1typelib_1_1_v_audio_object.html" target="_top" xlink:title="Base class for all browseable audio objects. ">
<polygon fill="white" stroke="black" points="336,-468.5 336,-525.5 428,-525.5 428,-468.5 336,-468.5"/>
<text text-anchor="middle" x="382" y="-513.5" font-family="Helvetica,sans-Serif" font-size="10.00">VAudioObject</text>
<polyline fill="none" stroke="black" points="336,-506.5 428,-506.5 "/>
<text text-anchor="middle" x="382" y="-494.5" font-family="Helvetica,sans-Serif" font-size="10.00"> </text>
<polyline fill="none" stroke="black" points="336,-487.5 428,-487.5 "/>
<text text-anchor="start" x="344" y="-475.5" font-family="Helvetica,sans-Serif" font-size="10.00">+ VAudioObject()</text>
</a>
</g>
</g>
<!-- Node3&#45;&gt;Node2 -->
<g id="edge2" class="edge"><title>Node3&#45;&gt;Node2</title>
<path fill="none" stroke="midnightblue" d="M376.253,-458.036C368.049,-404.163 352.377,-302.464 338,-216 337.011,-210.053 335.937,-203.763 334.871,-197.617"/>
<polygon fill="none" stroke="midnightblue" points="372.828,-458.794 377.792,-468.154 379.749,-457.742 372.828,-458.794"/>
</g>
<!-- Node5 -->
<g id="node5" class="node"><title>Node5</title>
<g id="a_node5"><a xlink:href="../../d5/d6a/classppm__java_1_1typelib_1_1_v_audio_processor.html" target="_top" xlink:title="Base class for all modules processing audio samples. ">
<polygon fill="white" stroke="black" points="203.5,-246.5 203.5,-413.5 310.5,-413.5 310.5,-246.5 203.5,-246.5"/>
<text text-anchor="middle" x="257" y="-401.5" font-family="Helvetica,sans-Serif" font-size="10.00">VAudioProcessor</text>
<polyline fill="none" stroke="black" points="203.5,-394.5 310.5,-394.5 "/>
<text text-anchor="middle" x="257" y="-382.5" font-family="Helvetica,sans-Serif" font-size="10.00"> </text>
<polyline fill="none" stroke="black" points="203.5,-375.5 310.5,-375.5 "/>
<text text-anchor="start" x="211.5" y="-363.5" font-family="Helvetica,sans-Serif" font-size="10.00">+ VAudioProcessor()</text>
<text text-anchor="start" x="211.5" y="-352.5" font-family="Helvetica,sans-Serif" font-size="10.00">+ CreatePort_In()</text>
<text text-anchor="start" x="211.5" y="-341.5" font-family="Helvetica,sans-Serif" font-size="10.00">+ CreatePort_Out()</text>
<text text-anchor="start" x="211.5" y="-330.5" font-family="Helvetica,sans-Serif" font-size="10.00">+ GetNumPortsIn()</text>
<text text-anchor="start" x="211.5" y="-319.5" font-family="Helvetica,sans-Serif" font-size="10.00">+ GetNumPortsOut()</text>
<text text-anchor="start" x="211.5" y="-308.5" font-family="Helvetica,sans-Serif" font-size="10.00">+ GetPortIn()</text>
<text text-anchor="start" x="211.5" y="-297.5" font-family="Helvetica,sans-Serif" font-size="10.00">+ GetPortIn()</text>
<text text-anchor="start" x="211.5" y="-286.5" font-family="Helvetica,sans-Serif" font-size="10.00">+ GetPortOut()</text>
<text text-anchor="start" x="211.5" y="-275.5" font-family="Helvetica,sans-Serif" font-size="10.00">+ GetPortOut()</text>
<text text-anchor="start" x="211.5" y="-264.5" font-family="Helvetica,sans-Serif" font-size="10.00"># AddPortIn()</text>
<text text-anchor="start" x="211.5" y="-253.5" font-family="Helvetica,sans-Serif" font-size="10.00"># AddPortOut()</text>
</a>
</g>
</g>
<!-- Node3&#45;&gt;Node5 -->
<g id="edge5" class="edge"><title>Node3&#45;&gt;Node5</title>
<path fill="none" stroke="midnightblue" d="M354.965,-460.313C341.978,-443.172 325.939,-422 310.625,-401.786"/>
<polygon fill="none" stroke="midnightblue" points="352.249,-462.525 361.078,-468.383 357.829,-458.298 352.249,-462.525"/>
</g>
<!-- Node4 -->
<g id="node4" class="node"><title>Node4</title>
<g id="a_node4"><a xlink:href="../../de/dd1/classppm__java_1_1typelib_1_1_v_browseable.html" target="_top" xlink:title="Base class for all browseable objects. ">
<polygon fill="white" stroke="black" points="337.5,-570.5 337.5,-649.5 426.5,-649.5 426.5,-570.5 337.5,-570.5"/>
<text text-anchor="middle" x="382" y="-637.5" font-family="Helvetica,sans-Serif" font-size="10.00">VBrowseable</text>
<polyline fill="none" stroke="black" points="337.5,-630.5 426.5,-630.5 "/>
<text text-anchor="start" x="345.5" y="-618.5" font-family="Helvetica,sans-Serif" font-size="10.00">&#45; fID</text>
<polyline fill="none" stroke="black" points="337.5,-611.5 426.5,-611.5 "/>
<text text-anchor="start" x="345.5" y="-599.5" font-family="Helvetica,sans-Serif" font-size="10.00">+ VBrowseable()</text>
<text text-anchor="start" x="345.5" y="-588.5" font-family="Helvetica,sans-Serif" font-size="10.00">+ GetID()</text>
<text text-anchor="start" x="345.5" y="-577.5" font-family="Helvetica,sans-Serif" font-size="10.00"># _Register()</text>
</a>
</g>
</g>
<!-- Node4&#45;&gt;Node3 -->
<g id="edge3" class="edge"><title>Node4&#45;&gt;Node3</title>
<path fill="none" stroke="midnightblue" d="M382,-560.227C382,-548.364 382,-536.085 382,-525.601"/>
<polygon fill="none" stroke="midnightblue" points="378.5,-560.489 382,-570.489 385.5,-560.489 378.5,-560.489"/>
</g>
<!-- Node5&#45;&gt;Node2 -->
<g id="edge4" class="edge"><title>Node5&#45;&gt;Node2</title>
<path fill="none" stroke="#404040" d="M291.46,-246.49C296.813,-233.674 302.197,-220.782 307.126,-208.981"/>
<polygon fill="none" stroke="#404040" points="307.259,-208.66 305.881,-201.582 311.884,-197.587 313.263,-204.665 307.259,-208.66"/>
<text text-anchor="middle" x="318.5" y="-219.5" font-family="Helvetica,sans-Serif" font-size="10.00"> &#45;fHost</text>
</g>
<!-- Node6 -->
<g id="node6" class="node"><title>Node6</title>
<polygon fill="white" stroke="#bfbfbf" points="0,-463 0,-531 150,-531 150,-463 0,-463"/>
<text text-anchor="start" x="8" y="-519" font-family="Helvetica,sans-Serif" font-size="10.00">TArrayMap&lt; ppm_java.typelib.</text>
<text text-anchor="middle" x="75" y="-508" font-family="Helvetica,sans-Serif" font-size="10.00">VAudioPort_Output &gt;</text>
<polyline fill="none" stroke="#bfbfbf" points="0,-501 150,-501 "/>
<text text-anchor="middle" x="75" y="-489" font-family="Helvetica,sans-Serif" font-size="10.00"> </text>
<polyline fill="none" stroke="#bfbfbf" points="0,-482 150,-482 "/>
<text text-anchor="middle" x="75" y="-470" font-family="Helvetica,sans-Serif" font-size="10.00"> </text>
</g>
<!-- Node6&#45;&gt;Node5 -->
<g id="edge6" class="edge"><title>Node6&#45;&gt;Node5</title>
<path fill="none" stroke="#404040" d="M111.83,-462.61C135.44,-441.205 166.699,-412.866 194.162,-387.969"/>
<polygon fill="none" stroke="#404040" points="194.423,-387.732 196.181,-380.739 203.313,-379.672 201.555,-386.666 194.423,-387.732"/>
<text text-anchor="middle" x="169.5" y="-435.5" font-family="Helvetica,sans-Serif" font-size="10.00"> &#45;fPortsOut</text>
</g>
<!-- Node7 -->
<g id="node7" class="node"><title>Node7</title>
<polygon fill="white" stroke="#bfbfbf" points="168,-463 168,-531 318,-531 318,-463 168,-463"/>
<text text-anchor="start" x="176" y="-519" font-family="Helvetica,sans-Serif" font-size="10.00">TArrayMap&lt; ppm_java.typelib.</text>
<text text-anchor="middle" x="243" y="-508" font-family="Helvetica,sans-Serif" font-size="10.00">VAudioPort_Input &gt;</text>
<polyline fill="none" stroke="#bfbfbf" points="168,-501 318,-501 "/>
<text text-anchor="middle" x="243" y="-489" font-family="Helvetica,sans-Serif" font-size="10.00"> </text>
<polyline fill="none" stroke="#bfbfbf" points="168,-482 318,-482 "/>
<text text-anchor="middle" x="243" y="-470" font-family="Helvetica,sans-Serif" font-size="10.00"> </text>
</g>
<!-- Node7&#45;&gt;Node5 -->
<g id="edge7" class="edge"><title>Node7&#45;&gt;Node5</title>
<path fill="none" stroke="#404040" d="M245.833,-462.61C246.757,-451.723 247.833,-439.043 248.945,-425.934"/>
<polygon fill="none" stroke="#404040" points="248.959,-425.77 245.48,-419.454 249.973,-413.813 253.452,-420.13 248.959,-425.77"/>
<text text-anchor="middle" x="268.5" y="-435.5" font-family="Helvetica,sans-Serif" font-size="10.00"> &#45;fPortsIn</text>
</g>
</g>
</svg>
        <g id="navigator" transform="translate(0 0)" fill="#404254">
                <rect fill="#f2f5e9" fill-opacity="0.5" stroke="#606060" stroke-width=".5" x="0" y="0" width="60" height="60"/>
                <use id="zoomplus" xlink:href="#zoomPlus" x="17" y="9" onmousedown="handleZoom(evt,'in')"/>
                <use id="zoomminus" xlink:href="#zoomMin" x="42" y="9" onmousedown="handleZoom(evt,'out')"/>
                <use id="reset" xlink:href="#resetDef" x="30" y="36" onmousedown="handleReset()"/>
                <g id="arrowUp" xlink:href="#dirArrow" transform="translate(30 24)" onmousedown="handlePan(0,-1)">
                  <use xlink:href="#rim" fill="#404040">
                        <set attributeName="fill" to="#808080" begin="arrowUp.mouseover" end="arrowUp.mouseout"/>
                  </use>
                  <path fill="none" stroke="white" stroke-width="1.5" d="M0,-3.0v7 M-2.5,-0.5L0,-3.0L2.5,-0.5"/>
                </g>
                <g id="arrowRight" xlink:href="#dirArrow" transform="rotate(90) translate(36 -43)" onmousedown="handlePan(1,0)">
                  <use xlink:href="#rim" fill="#404040">
                        <set attributeName="fill" to="#808080" begin="arrowRight.mouseover" end="arrowRight.mouseout"/>
                  </use>
                  <path fill="none" stroke="white" stroke-width="1.5" d="M0,-3.0v7 M-2.5,-0.5L0,-3.0L2.5,-0.5"/>
                </g>
                <g id="arrowDown" xlink:href="#dirArrow" transform="rotate(180) translate(-30 -48)" onmousedown="handlePan(0,1)">
                  <use xlink:href="#rim" fill="#404040">
                        <set attributeName="fill" to="#808080" begin="arrowDown.mouseover" end="arrowDown.mouseout"/>
                  </use>
                  <path fill="none" stroke="white" stroke-width="1.5" d="M0,-3.0v7 M-2.5,-0.5L0,-3.0L2.5,-0.5"/>
                </g>
                <g id="arrowLeft" xlink:href="#dirArrow" transform="rotate(270) translate(-36 17)" onmousedown="handlePan(-1,0)">
                  <use xlink:href="#rim" fill="#404040">
                        <set attributeName="fill" to="#808080" begin="arrowLeft.mouseover" end="arrowLeft.mouseout"/>
                  </use>
                  <path fill="none" stroke="white" stroke-width="1.5" d="M0,-3.0v7 M-2.5,-0.5L0,-3.0L2.5,-0.5"/>
                </g>
        </g>
        <svg viewBox="0 0 15 15" width="100%" height="30px" preserveAspectRatio="xMaxYMin meet">
         <g id="arrow_out" transform="scale(0.3 0.3)">
          <a xlink:href="classppm__java_1_1typelib_1_1_v_audio_port___input__coll__graph_org.svg" target="_base">
           <rect id="button" ry="5" rx="5" y="6" x="6" height="38" width="38"
                fill="#f2f5e9" fill-opacity="0.5" stroke="#606060" stroke-width="1.0"/>
           <path id="arrow"
             d="M 11.500037,31.436501 C 11.940474,20.09759 22.043105,11.32322 32.158766,21.979434 L 37.068811,17.246167 C 37.068811,17.246167 37.088388,32 37.088388,32 L 22.160133,31.978069 C 22.160133,31.978069 26.997745,27.140456 26.997745,27.140456 C 18.528582,18.264221 13.291696,25.230495 11.500037,31.436501 z"
             style="fill:#404040;"/>
          </a>
         </g>
        </svg>
</svg>
