<?xml version="1.0" encoding="UTF-8" standalone="no"?>
<!DOCTYPE svg PUBLIC "-//W3C//DTD SVG 1.1//EN"
 "http://www.w3.org/Graphics/SVG/1.1/DTD/svg11.dtd">
<!-- Generated by graphviz version 2.36.0 (20140111.2315)
 -->
<!-- Title: TBrokerSubscription Pages: 1 -->
<svg width="269pt" height="294pt"
 viewBox="0.00 0.00 269.00 294.00" xmlns="http://www.w3.org/2000/svg" xmlns:xlink="http://www.w3.org/1999/xlink">
<g id="graph0" class="graph" transform="scale(1 1) rotate(0) translate(4 290)">
<title>TBrokerSubscription</title>
<polygon fill="white" stroke="none" points="-4,4 -4,-290 265,-290 265,4 -4,4"/>
<!-- Node1 -->
<g id="node1" class="node"><title>Node1</title>
<polygon fill="#bfbfbf" stroke="black" points="87,-0.5 87,-79.5 207,-79.5 207,-0.5 87,-0.5"/>
<text text-anchor="middle" x="147" y="-67.5" font-family="Helvetica,sans-Serif" font-size="10.00">TBrokerSubscription</text>
<polyline fill="none" stroke="black" points="87,-60.5 207,-60.5 "/>
<text text-anchor="middle" x="147" y="-48.5" font-family="Helvetica,sans-Serif" font-size="10.00"> </text>
<polyline fill="none" stroke="black" points="87,-41.5 207,-41.5 "/>
<text text-anchor="start" x="95" y="-29.5" font-family="Helvetica,sans-Serif" font-size="10.00">+ TBrokerSubscription()</text>
<text text-anchor="start" x="95" y="-18.5" font-family="Helvetica,sans-Serif" font-size="10.00">+ GetSubscribed()</text>
<text text-anchor="start" x="95" y="-7.5" font-family="Helvetica,sans-Serif" font-size="10.00">+ GetSubscriber()</text>
</g>
<!-- Node2 -->
<g id="node2" class="node"><title>Node2</title>
<g id="a_node2"><a xlink:href="../../df/dbb/interfaceppm__java_1_1typelib_1_1_i_evented.html" target="_top" xlink:title="Base interface for the event system. ">
<polygon fill="white" stroke="black" points="0,-129 0,-285 154,-285 154,-129 0,-129"/>
<text text-anchor="middle" x="77" y="-273" font-family="Helvetica,sans-Serif" font-size="10.00">IEvented</text>
<polyline fill="none" stroke="black" points="0,-266 154,-266 "/>
<text text-anchor="start" x="8" y="-254" font-family="Helvetica,sans-Serif" font-size="10.00">+ gkEventBufferNotifyOverrun</text>
<text text-anchor="start" x="8" y="-243" font-family="Helvetica,sans-Serif" font-size="10.00">+ gkEventBufferNotifyUnderrun</text>
<text text-anchor="start" x="8" y="-232" font-family="Helvetica,sans-Serif" font-size="10.00">+ gkEventStart</text>
<text text-anchor="start" x="8" y="-221" font-family="Helvetica,sans-Serif" font-size="10.00">+ gkEventStop</text>
<text text-anchor="start" x="8" y="-210" font-family="Helvetica,sans-Serif" font-size="10.00">+ gkEventTimerAdjustInterval</text>
<text text-anchor="start" x="8" y="-199" font-family="Helvetica,sans-Serif" font-size="10.00">+ gkEventTimerNotifyInterval</text>
<text text-anchor="start" x="8" y="-188" font-family="Helvetica,sans-Serif" font-size="10.00">+ gkEventTimerTick</text>
<polyline fill="none" stroke="black" points="0,-181 154,-181 "/>
<text text-anchor="start" x="8" y="-169" font-family="Helvetica,sans-Serif" font-size="10.00">+ OnEvent()</text>
<text text-anchor="start" x="8" y="-158" font-family="Helvetica,sans-Serif" font-size="10.00">+ OnEvent()</text>
<text text-anchor="start" x="8" y="-147" font-family="Helvetica,sans-Serif" font-size="10.00">+ OnEvent()</text>
<text text-anchor="start" x="8" y="-136" font-family="Helvetica,sans-Serif" font-size="10.00">+ OnEvent()</text>
</a>
</g>
</g>
<!-- Node2&#45;&gt;Node1 -->
<g id="edge1" class="edge"><title>Node2&#45;&gt;Node1</title>
<path fill="none" stroke="#404040" d="M109.746,-128.814C115.246,-115.848 120.822,-102.706 125.925,-90.6763"/>
<polygon fill="none" stroke="#404040" points="125.969,-90.5727 124.63,-83.487 130.656,-79.5257 131.995,-86.6114 125.969,-90.5727"/>
<text text-anchor="middle" x="151" y="-101.5" font-family="Helvetica,sans-Serif" font-size="10.00"> &#45;fSubscriber</text>
</g>
<!-- Node3 -->
<g id="node3" class="node"><title>Node3</title>
<g id="a_node3"><a xlink:href="../../de/dd1/classppm__java_1_1typelib_1_1_v_browseable.html" target="_top" xlink:title="Base class for all browseable objects. ">
<polygon fill="white" stroke="black" points="172.5,-167.5 172.5,-246.5 261.5,-246.5 261.5,-167.5 172.5,-167.5"/>
<text text-anchor="middle" x="217" y="-234.5" font-family="Helvetica,sans-Serif" font-size="10.00">VBrowseable</text>
<polyline fill="none" stroke="black" points="172.5,-227.5 261.5,-227.5 "/>
<text text-anchor="start" x="180.5" y="-215.5" font-family="Helvetica,sans-Serif" font-size="10.00">&#45; fID</text>
<polyline fill="none" stroke="black" points="172.5,-208.5 261.5,-208.5 "/>
<text text-anchor="start" x="180.5" y="-196.5" font-family="Helvetica,sans-Serif" font-size="10.00">+ VBrowseable()</text>
<text text-anchor="start" x="180.5" y="-185.5" font-family="Helvetica,sans-Serif" font-size="10.00">+ GetID()</text>
<text text-anchor="start" x="180.5" y="-174.5" font-family="Helvetica,sans-Serif" font-size="10.00"># _Register()</text>
</a>
</g>
</g>
<!-- Node3&#45;&gt;Node1 -->
<g id="edge2" class="edge"><title>Node3&#45;&gt;Node1</title>
<path fill="none" stroke="#404040" d="M207.452,-167.361C201.617,-146.353 193.294,-120.203 183,-98 181.816,-95.4466 180.537,-92.87 179.191,-90.297"/>
<polygon fill="none" stroke="#404040" points="179.189,-90.2943 172.776,-86.997 173.353,-79.809 179.766,-83.1063 179.189,-90.2943"/>
<text text-anchor="middle" x="217" y="-101.5" font-family="Helvetica,sans-Serif" font-size="10.00"> &#45;fSubscribed</text>
</g>
</g>
</svg>
