<?xml version="1.0" encoding="UTF-8" standalone="no"?>
<!DOCTYPE svg PUBLIC "-//W3C//DTD SVG 1.1//EN"
 "http://www.w3.org/Graphics/SVG/1.1/DTD/svg11.dtd">
<!-- Generated by graphviz version 2.36.0 (20140111.2315)
 -->
<!-- Title: TNodePPMProcessor Pages: 1 -->
<svg width="684pt" height="1000pt"
 viewBox="0.00 0.00 684.00 1000.00" xmlns="http://www.w3.org/2000/svg" xmlns:xlink="http://www.w3.org/1999/xlink">
<g id="graph0" class="graph" transform="scale(1 1) rotate(0) translate(4 996)">
<title>TNodePPMProcessor</title>
<polygon fill="white" stroke="none" points="-4,4 -4,-996 680,-996 680,4 -4,4"/>
<!-- Node1 -->
<g id="node1" class="node"><title>Node1</title>
<polygon fill="#bfbfbf" stroke="black" points="364,-207 364,-539 508,-539 508,-207 364,-207"/>
<text text-anchor="middle" x="436" y="-527" font-family="Helvetica,sans-Serif" font-size="10.00">TNodePPMProcessor</text>
<polyline fill="none" stroke="black" points="364,-520 508,-520 "/>
<text text-anchor="start" x="372" y="-508" font-family="Helvetica,sans-Serif" font-size="10.00">&#45; fHasInitialTime</text>
<text text-anchor="start" x="372" y="-497" font-family="Helvetica,sans-Serif" font-size="10.00">&#45; fNSamplesPerCycle</text>
<text text-anchor="start" x="372" y="-486" font-family="Helvetica,sans-Serif" font-size="10.00">&#45; fPeak_dB</text>
<text text-anchor="start" x="372" y="-475" font-family="Helvetica,sans-Serif" font-size="10.00">&#45; fPeak_Raw</text>
<text text-anchor="start" x="372" y="-464" font-family="Helvetica,sans-Serif" font-size="10.00">&#45; fPeakDeltaFall</text>
<text text-anchor="start" x="372" y="-453" font-family="Helvetica,sans-Serif" font-size="10.00">&#45; fPeakDeltaRise</text>
<text text-anchor="start" x="372" y="-442" font-family="Helvetica,sans-Serif" font-size="10.00">&#45; fSampleRate</text>
<text text-anchor="start" x="372" y="-431" font-family="Helvetica,sans-Serif" font-size="10.00">&#45; fTDeltaRequested</text>
<text text-anchor="start" x="372" y="-420" font-family="Helvetica,sans-Serif" font-size="10.00">&#45; fTLast</text>
<text text-anchor="start" x="372" y="-409" font-family="Helvetica,sans-Serif" font-size="10.00">&#45; gkIntegrFallRangedB</text>
<text text-anchor="start" x="372" y="-398" font-family="Helvetica,sans-Serif" font-size="10.00">&#45; gkIntegrFallTime</text>
<text text-anchor="start" x="372" y="-387" font-family="Helvetica,sans-Serif" font-size="10.00">&#45; gkIntegrRiseRangedB</text>
<text text-anchor="start" x="372" y="-376" font-family="Helvetica,sans-Serif" font-size="10.00">&#45; gkIntegrRiseTime</text>
<text text-anchor="start" x="372" y="-365" font-family="Helvetica,sans-Serif" font-size="10.00">&#45; gkMinThreshold</text>
<polyline fill="none" stroke="black" points="364,-358 508,-358 "/>
<text text-anchor="start" x="372" y="-346" font-family="Helvetica,sans-Serif" font-size="10.00">+ CreatePort_In()</text>
<text text-anchor="start" x="372" y="-335" font-family="Helvetica,sans-Serif" font-size="10.00">+ CreatePort_Out()</text>
<text text-anchor="start" x="372" y="-324" font-family="Helvetica,sans-Serif" font-size="10.00">+ OnEvent()</text>
<text text-anchor="start" x="372" y="-313" font-family="Helvetica,sans-Serif" font-size="10.00">+ OnEvent()</text>
<text text-anchor="start" x="372" y="-302" font-family="Helvetica,sans-Serif" font-size="10.00">+ OnEvent()</text>
<text text-anchor="start" x="372" y="-291" font-family="Helvetica,sans-Serif" font-size="10.00">+ OnEvent()</text>
<text text-anchor="start" x="372" y="-280" font-family="Helvetica,sans-Serif" font-size="10.00">+ StatsGet()</text>
<text text-anchor="start" x="372" y="-269" font-family="Helvetica,sans-Serif" font-size="10.00">+ CreateInstance()</text>
<text text-anchor="start" x="372" y="-258" font-family="Helvetica,sans-Serif" font-size="10.00"># _Register()</text>
<text text-anchor="start" x="372" y="-247" font-family="Helvetica,sans-Serif" font-size="10.00">&#45; TNodePPMProcessor()</text>
<text text-anchor="start" x="372" y="-236" font-family="Helvetica,sans-Serif" font-size="10.00">&#45; _CompensateCongestions()</text>
<text text-anchor="start" x="372" y="-225" font-family="Helvetica,sans-Serif" font-size="10.00">&#45; _FindPeak()</text>
<text text-anchor="start" x="372" y="-214" font-family="Helvetica,sans-Serif" font-size="10.00">&#45; _ProcessChunk()</text>
</g>
<!-- Node10 -->
<g id="node10" class="node"><title>Node10</title>
<g id="a_node10"><a xlink:href="../../df/daf/classppm__java_1_1backend_1_1module_1_1__deprecated__ppm_1_1_t_node_p_p_m_processor___stats.html" target="_top" xlink:title="Runtime statistics of a TNodePPMProcessor. ">
<polygon fill="white" stroke="black" points="195.5,-1 195.5,-135 350.5,-135 350.5,-1 195.5,-1"/>
<text text-anchor="middle" x="273" y="-123" font-family="Helvetica,sans-Serif" font-size="10.00">TNodePPMProcessor_Stats</text>
<polyline fill="none" stroke="black" points="195.5,-116 350.5,-116 "/>
<text text-anchor="middle" x="273" y="-104" font-family="Helvetica,sans-Serif" font-size="10.00"> </text>
<polyline fill="none" stroke="black" points="195.5,-97 350.5,-97 "/>
<text text-anchor="start" x="203.5" y="-85" font-family="Helvetica,sans-Serif" font-size="10.00">+ TNodePPMProcessor_Stats()</text>
<text text-anchor="start" x="203.5" y="-74" font-family="Helvetica,sans-Serif" font-size="10.00">+ GetDumpStr()</text>
<text text-anchor="start" x="203.5" y="-63" font-family="Helvetica,sans-Serif" font-size="10.00">~ SetCycleTime()</text>
<text text-anchor="start" x="203.5" y="-52" font-family="Helvetica,sans-Serif" font-size="10.00">~ SetDBValue()</text>
<text text-anchor="start" x="203.5" y="-41" font-family="Helvetica,sans-Serif" font-size="10.00">~ SetNumSamplesPerCycle()</text>
<text text-anchor="start" x="203.5" y="-30" font-family="Helvetica,sans-Serif" font-size="10.00">~ SetPeakValue()</text>
<text text-anchor="start" x="203.5" y="-19" font-family="Helvetica,sans-Serif" font-size="10.00">~ SetPeakValueProjected()</text>
<text text-anchor="start" x="203.5" y="-8" font-family="Helvetica,sans-Serif" font-size="10.00">~ SetSampleRate()</text>
</a>
</g>
</g>
<!-- Node1&#45;&gt;Node10 -->
<g id="edge13" class="edge"><title>Node1&#45;&gt;Node10</title>
<path fill="none" stroke="#404040" d="M408.668,-206.868C401.915,-188.241 393.497,-170.172 383,-154 376.496,-143.979 368.395,-134.656 359.557,-126.134"/>
<polygon fill="none" stroke="#404040" points="359.374,-125.968 352.245,-124.882 350.505,-117.884 357.634,-118.97 359.374,-125.968"/>
<text text-anchor="middle" x="416.5" y="-168.5" font-family="Helvetica,sans-Serif" font-size="10.00"> &#45;fHost</text>
</g>
<!-- Node2 -->
<g id="node2" class="node"><title>Node2</title>
<g id="a_node2"><a xlink:href="../../d5/d6a/classppm__java_1_1typelib_1_1_v_audio_processor.html" target="_top" xlink:title="Base class for all modules processing audio samples. ">
<polygon fill="white" stroke="black" points="221.5,-588.5 221.5,-755.5 328.5,-755.5 328.5,-588.5 221.5,-588.5"/>
<text text-anchor="middle" x="275" y="-743.5" font-family="Helvetica,sans-Serif" font-size="10.00">VAudioProcessor</text>
<polyline fill="none" stroke="black" points="221.5,-736.5 328.5,-736.5 "/>
<text text-anchor="middle" x="275" y="-724.5" font-family="Helvetica,sans-Serif" font-size="10.00"> </text>
<polyline fill="none" stroke="black" points="221.5,-717.5 328.5,-717.5 "/>
<text text-anchor="start" x="229.5" y="-705.5" font-family="Helvetica,sans-Serif" font-size="10.00">+ VAudioProcessor()</text>
<text text-anchor="start" x="229.5" y="-694.5" font-family="Helvetica,sans-Serif" font-size="10.00">+ CreatePort_In()</text>
<text text-anchor="start" x="229.5" y="-683.5" font-family="Helvetica,sans-Serif" font-size="10.00">+ CreatePort_Out()</text>
<text text-anchor="start" x="229.5" y="-672.5" font-family="Helvetica,sans-Serif" font-size="10.00">+ GetNumPortsIn()</text>
<text text-anchor="start" x="229.5" y="-661.5" font-family="Helvetica,sans-Serif" font-size="10.00">+ GetNumPortsOut()</text>
<text text-anchor="start" x="229.5" y="-650.5" font-family="Helvetica,sans-Serif" font-size="10.00">+ GetPortIn()</text>
<text text-anchor="start" x="229.5" y="-639.5" font-family="Helvetica,sans-Serif" font-size="10.00">+ GetPortIn()</text>
<text text-anchor="start" x="229.5" y="-628.5" font-family="Helvetica,sans-Serif" font-size="10.00">+ GetPortOut()</text>
<text text-anchor="start" x="229.5" y="-617.5" font-family="Helvetica,sans-Serif" font-size="10.00">+ GetPortOut()</text>
<text text-anchor="start" x="229.5" y="-606.5" font-family="Helvetica,sans-Serif" font-size="10.00"># AddPortIn()</text>
<text text-anchor="start" x="229.5" y="-595.5" font-family="Helvetica,sans-Serif" font-size="10.00"># AddPortOut()</text>
</a>
</g>
</g>
<!-- Node2&#45;&gt;Node1 -->
<g id="edge1" class="edge"><title>Node2&#45;&gt;Node1</title>
<path fill="none" stroke="midnightblue" d="M324.723,-579.274C337.129,-556.39 350.681,-531.389 363.927,-506.955"/>
<polygon fill="none" stroke="midnightblue" points="321.536,-577.81 319.847,-588.269 327.69,-581.146 321.536,-577.81"/>
</g>
<!-- Node3 -->
<g id="node3" class="node"><title>Node3</title>
<g id="a_node3"><a xlink:href="../../d1/db3/classppm__java_1_1typelib_1_1_v_audio_object.html" target="_top" xlink:title="Base class for all browseable audio objects. ">
<polygon fill="white" stroke="black" points="90,-810.5 90,-867.5 182,-867.5 182,-810.5 90,-810.5"/>
<text text-anchor="middle" x="136" y="-855.5" font-family="Helvetica,sans-Serif" font-size="10.00">VAudioObject</text>
<polyline fill="none" stroke="black" points="90,-848.5 182,-848.5 "/>
<text text-anchor="middle" x="136" y="-836.5" font-family="Helvetica,sans-Serif" font-size="10.00"> </text>
<polyline fill="none" stroke="black" points="90,-829.5 182,-829.5 "/>
<text text-anchor="start" x="98" y="-817.5" font-family="Helvetica,sans-Serif" font-size="10.00">+ VAudioObject()</text>
</a>
</g>
</g>
<!-- Node3&#45;&gt;Node2 -->
<g id="edge2" class="edge"><title>Node3&#45;&gt;Node2</title>
<path fill="none" stroke="midnightblue" d="M165.909,-802.496C182.063,-783.321 202.498,-759.064 221.303,-736.741"/>
<polygon fill="none" stroke="midnightblue" points="163.032,-800.48 159.265,-810.383 168.385,-804.99 163.032,-800.48"/>
</g>
<!-- Node4 -->
<g id="node4" class="node"><title>Node4</title>
<g id="a_node4"><a xlink:href="../../de/dd1/classppm__java_1_1typelib_1_1_v_browseable.html" target="_top" xlink:title="Base class for all browseable objects. ">
<polygon fill="white" stroke="black" points="91.5,-912.5 91.5,-991.5 180.5,-991.5 180.5,-912.5 91.5,-912.5"/>
<text text-anchor="middle" x="136" y="-979.5" font-family="Helvetica,sans-Serif" font-size="10.00">VBrowseable</text>
<polyline fill="none" stroke="black" points="91.5,-972.5 180.5,-972.5 "/>
<text text-anchor="start" x="99.5" y="-960.5" font-family="Helvetica,sans-Serif" font-size="10.00">&#45; fID</text>
<polyline fill="none" stroke="black" points="91.5,-953.5 180.5,-953.5 "/>
<text text-anchor="start" x="99.5" y="-941.5" font-family="Helvetica,sans-Serif" font-size="10.00">+ VBrowseable()</text>
<text text-anchor="start" x="99.5" y="-930.5" font-family="Helvetica,sans-Serif" font-size="10.00">+ GetID()</text>
<text text-anchor="start" x="99.5" y="-919.5" font-family="Helvetica,sans-Serif" font-size="10.00"># _Register()</text>
</a>
</g>
</g>
<!-- Node4&#45;&gt;Node3 -->
<g id="edge3" class="edge"><title>Node4&#45;&gt;Node3</title>
<path fill="none" stroke="midnightblue" d="M136,-902.227C136,-890.364 136,-878.085 136,-867.601"/>
<polygon fill="none" stroke="midnightblue" points="132.5,-902.489 136,-912.489 139.5,-902.489 132.5,-902.489"/>
</g>
<!-- Node5 -->
<g id="node5" class="node"><title>Node5</title>
<polygon fill="white" stroke="#bfbfbf" points="200,-805 200,-873 350,-873 350,-805 200,-805"/>
<text text-anchor="start" x="208" y="-861" font-family="Helvetica,sans-Serif" font-size="10.00">TArrayMap&lt; ppm_java.typelib.</text>
<text text-anchor="middle" x="275" y="-850" font-family="Helvetica,sans-Serif" font-size="10.00">VAudioPort_Output &gt;</text>
<polyline fill="none" stroke="#bfbfbf" points="200,-843 350,-843 "/>
<text text-anchor="middle" x="275" y="-831" font-family="Helvetica,sans-Serif" font-size="10.00"> </text>
<polyline fill="none" stroke="#bfbfbf" points="200,-824 350,-824 "/>
<text text-anchor="middle" x="275" y="-812" font-family="Helvetica,sans-Serif" font-size="10.00"> </text>
</g>
<!-- Node5&#45;&gt;Node2 -->
<g id="edge4" class="edge"><title>Node5&#45;&gt;Node2</title>
<path fill="none" stroke="#404040" d="M275,-804.61C275,-793.723 275,-781.043 275,-767.934"/>
<polygon fill="none" stroke="#404040" points="275,-767.813 271,-761.813 275,-755.813 279,-761.813 275,-767.813"/>
<text text-anchor="middle" x="299.5" y="-777.5" font-family="Helvetica,sans-Serif" font-size="10.00"> &#45;fPortsOut</text>
</g>
<!-- Node6 -->
<g id="node6" class="node"><title>Node6</title>
<polygon fill="white" stroke="#bfbfbf" points="368,-805 368,-873 518,-873 518,-805 368,-805"/>
<text text-anchor="start" x="376" y="-861" font-family="Helvetica,sans-Serif" font-size="10.00">TArrayMap&lt; ppm_java.typelib.</text>
<text text-anchor="middle" x="443" y="-850" font-family="Helvetica,sans-Serif" font-size="10.00">VAudioPort_Input &gt;</text>
<polyline fill="none" stroke="#bfbfbf" points="368,-843 518,-843 "/>
<text text-anchor="middle" x="443" y="-831" font-family="Helvetica,sans-Serif" font-size="10.00"> </text>
<polyline fill="none" stroke="#bfbfbf" points="368,-824 518,-824 "/>
<text text-anchor="middle" x="443" y="-812" font-family="Helvetica,sans-Serif" font-size="10.00"> </text>
</g>
<!-- Node6&#45;&gt;Node2 -->
<g id="edge5" class="edge"><title>Node6&#45;&gt;Node2</title>
<path fill="none" stroke="#404040" d="M395.358,-804.907C376.574,-790.836 355.379,-773.62 338,-756 337.603,-755.598 337.206,-755.192 336.81,-754.785"/>
<polygon fill="none" stroke="#404040" points="336.731,-754.7 329.716,-753.032 328.557,-745.915 335.573,-747.583 336.731,-754.7"/>
<text text-anchor="middle" x="391.5" y="-777.5" font-family="Helvetica,sans-Serif" font-size="10.00"> &#45;fPortsIn</text>
</g>
<!-- Node7 -->
<g id="node7" class="node"><title>Node7</title>
<g id="a_node7"><a xlink:href="../../df/dbb/interfaceppm__java_1_1typelib_1_1_i_evented.html" target="_top" xlink:title="Base interface for the event system. ">
<polygon fill="white" stroke="black" points="347,-594 347,-750 501,-750 501,-594 347,-594"/>
<text text-anchor="middle" x="424" y="-738" font-family="Helvetica,sans-Serif" font-size="10.00">IEvented</text>
<polyline fill="none" stroke="black" points="347,-731 501,-731 "/>
<text text-anchor="start" x="355" y="-719" font-family="Helvetica,sans-Serif" font-size="10.00">+ gkEventBufferNotifyOverrun</text>
<text text-anchor="start" x="355" y="-708" font-family="Helvetica,sans-Serif" font-size="10.00">+ gkEventBufferNotifyUnderrun</text>
<text text-anchor="start" x="355" y="-697" font-family="Helvetica,sans-Serif" font-size="10.00">+ gkEventStart</text>
<text text-anchor="start" x="355" y="-686" font-family="Helvetica,sans-Serif" font-size="10.00">+ gkEventStop</text>
<text text-anchor="start" x="355" y="-675" font-family="Helvetica,sans-Serif" font-size="10.00">+ gkEventTimerAdjustInterval</text>
<text text-anchor="start" x="355" y="-664" font-family="Helvetica,sans-Serif" font-size="10.00">+ gkEventTimerNotifyInterval</text>
<text text-anchor="start" x="355" y="-653" font-family="Helvetica,sans-Serif" font-size="10.00">+ gkEventTimerTick</text>
<polyline fill="none" stroke="black" points="347,-646 501,-646 "/>
<text text-anchor="start" x="355" y="-634" font-family="Helvetica,sans-Serif" font-size="10.00">+ OnEvent()</text>
<text text-anchor="start" x="355" y="-623" font-family="Helvetica,sans-Serif" font-size="10.00">+ OnEvent()</text>
<text text-anchor="start" x="355" y="-612" font-family="Helvetica,sans-Serif" font-size="10.00">+ OnEvent()</text>
<text text-anchor="start" x="355" y="-601" font-family="Helvetica,sans-Serif" font-size="10.00">+ OnEvent()</text>
</a>
</g>
</g>
<!-- Node7&#45;&gt;Node1 -->
<g id="edge6" class="edge"><title>Node7&#45;&gt;Node1</title>
<path fill="none" stroke="midnightblue" d="M427.532,-583.594C428.104,-569.427 428.713,-554.361 429.331,-539.058"/>
<polygon fill="none" stroke="midnightblue" points="424.028,-583.609 427.122,-593.742 431.022,-583.892 424.028,-583.609"/>
</g>
<!-- Node8 -->
<g id="node8" class="node"><title>Node8</title>
<g id="a_node8"><a xlink:href="../../dc/dc0/interfaceppm__java_1_1typelib_1_1_i_stat_enabled.html" target="_top" xlink:title="Interface for an object that supports runtime statistics. ">
<polygon fill="white" stroke="black" points="519.5,-643.5 519.5,-700.5 592.5,-700.5 592.5,-643.5 519.5,-643.5"/>
<text text-anchor="middle" x="556" y="-688.5" font-family="Helvetica,sans-Serif" font-size="10.00">IStatEnabled</text>
<polyline fill="none" stroke="black" points="519.5,-681.5 592.5,-681.5 "/>
<text text-anchor="middle" x="556" y="-669.5" font-family="Helvetica,sans-Serif" font-size="10.00"> </text>
<polyline fill="none" stroke="black" points="519.5,-662.5 592.5,-662.5 "/>
<text text-anchor="start" x="527.5" y="-650.5" font-family="Helvetica,sans-Serif" font-size="10.00">+ StatsGet()</text>
</a>
</g>
</g>
<!-- Node8&#45;&gt;Node1 -->
<g id="edge7" class="edge"><title>Node8&#45;&gt;Node1</title>
<path fill="none" stroke="midnightblue" d="M541.056,-634.014C531.067,-609.29 517.148,-574.842 502.705,-539.094"/>
<polygon fill="none" stroke="midnightblue" points="537.827,-635.365 544.818,-643.326 544.317,-632.743 537.827,-635.365"/>
</g>
<!-- Node9 -->
<g id="node9" class="node"><title>Node9</title>
<polygon fill="white" stroke="#bfbfbf" points="610.5,-643.5 610.5,-700.5 675.5,-700.5 675.5,-643.5 610.5,-643.5"/>
<text text-anchor="middle" x="643" y="-688.5" font-family="Helvetica,sans-Serif" font-size="10.00">FloatBuffer</text>
<polyline fill="none" stroke="#bfbfbf" points="610.5,-681.5 675.5,-681.5 "/>
<text text-anchor="middle" x="643" y="-669.5" font-family="Helvetica,sans-Serif" font-size="10.00"> </text>
<polyline fill="none" stroke="#bfbfbf" points="610.5,-662.5 675.5,-662.5 "/>
<text text-anchor="middle" x="643" y="-650.5" font-family="Helvetica,sans-Serif" font-size="10.00"> </text>
</g>
<!-- Node9&#45;&gt;Node1 -->
<g id="edge8" class="edge"><title>Node9&#45;&gt;Node1</title>
<path fill="none" stroke="#404040" d="M630.631,-643.378C622.855,-626.884 612.199,-605.758 601,-588 575.501,-547.566 544.161,-505.417 515.668,-469.323"/>
<polygon fill="none" stroke="#404040" points="515.567,-469.196 508.703,-466.984 508.104,-459.798 514.968,-462.009 515.567,-469.196"/>
<text text-anchor="middle" x="614.5" y="-561.5" font-family="Helvetica,sans-Serif" font-size="10.00"> &#45;fInPacket</text>
</g>
<!-- Node10&#45;&gt;Node1 -->
<g id="edge9" class="edge"><title>Node10&#45;&gt;Node1</title>
<path fill="none" stroke="#404040" d="M350.868,-89.6114C383.407,-102.49 418.006,-122.762 437,-154 444.643,-166.569 449.941,-180.347 453.432,-194.676"/>
<polygon fill="none" stroke="#404040" points="453.515,-195.078 458.65,-200.141 455.951,-206.828 450.816,-201.765 453.515,-195.078"/>
<text text-anchor="middle" x="467.5" y="-168.5" font-family="Helvetica,sans-Serif" font-size="10.00"> &#45;fStats</text>
</g>
<!-- Node11 -->
<g id="node11" class="node"><title>Node11</title>
<g id="a_node11"><a xlink:href="../../d7/d5a/interfaceppm__java_1_1typelib_1_1_i_stats.html" target="_top" xlink:title="Interface for a statistics record. ">
<polygon fill="white" stroke="black" points="0,-344.5 0,-401.5 86,-401.5 86,-344.5 0,-344.5"/>
<text text-anchor="middle" x="43" y="-389.5" font-family="Helvetica,sans-Serif" font-size="10.00">IStats</text>
<polyline fill="none" stroke="black" points="0,-382.5 86,-382.5 "/>
<text text-anchor="middle" x="43" y="-370.5" font-family="Helvetica,sans-Serif" font-size="10.00"> </text>
<polyline fill="none" stroke="black" points="0,-363.5 86,-363.5 "/>
<text text-anchor="start" x="8" y="-351.5" font-family="Helvetica,sans-Serif" font-size="10.00">+ GetDumpStr()</text>
</a>
</g>
</g>
<!-- Node11&#45;&gt;Node10 -->
<g id="edge10" class="edge"><title>Node11&#45;&gt;Node10</title>
<path fill="none" stroke="midnightblue" d="M50.3646,-334.004C58.1403,-299.196 72.4428,-247.006 95,-206 117.648,-164.828 158.413,-132.062 195.222,-108.91"/>
<polygon fill="none" stroke="midnightblue" points="46.849,-333.703 48.1591,-344.216 53.6912,-335.18 46.849,-333.703"/>
</g>
<!-- Node12 -->
<g id="node12" class="node"><title>Node12</title>
<g id="a_node12"><a xlink:href="../../d2/df7/classppm__java_1_1util_1_1storage_1_1_t_atomic_double.html" target="_top" xlink:title="An thread safe double value. ">
<polygon fill="white" stroke="black" points="104.5,-311.5 104.5,-434.5 203.5,-434.5 203.5,-311.5 104.5,-311.5"/>
<text text-anchor="middle" x="154" y="-422.5" font-family="Helvetica,sans-Serif" font-size="10.00">TAtomicDouble</text>
<polyline fill="none" stroke="black" points="104.5,-415.5 203.5,-415.5 "/>
<text text-anchor="start" x="112.5" y="-403.5" font-family="Helvetica,sans-Serif" font-size="10.00">&#45; fValue</text>
<text text-anchor="start" x="112.5" y="-392.5" font-family="Helvetica,sans-Serif" font-size="10.00">&#45; gkLocked</text>
<text text-anchor="start" x="112.5" y="-381.5" font-family="Helvetica,sans-Serif" font-size="10.00">&#45; gkUnlocked</text>
<polyline fill="none" stroke="black" points="104.5,-374.5 203.5,-374.5 "/>
<text text-anchor="start" x="112.5" y="-362.5" font-family="Helvetica,sans-Serif" font-size="10.00">+ TAtomicDouble()</text>
<text text-anchor="start" x="112.5" y="-351.5" font-family="Helvetica,sans-Serif" font-size="10.00">+ Get()</text>
<text text-anchor="start" x="112.5" y="-340.5" font-family="Helvetica,sans-Serif" font-size="10.00">+ Set()</text>
<text text-anchor="start" x="112.5" y="-329.5" font-family="Helvetica,sans-Serif" font-size="10.00">&#45; _Lock()</text>
<text text-anchor="start" x="112.5" y="-318.5" font-family="Helvetica,sans-Serif" font-size="10.00">&#45; _Unlock()</text>
</a>
</g>
</g>
<!-- Node12&#45;&gt;Node10 -->
<g id="edge11" class="edge"><title>Node12&#45;&gt;Node10</title>
<path fill="none" stroke="#404040" d="M140.078,-311.154C132.85,-265.373 130.047,-202.453 155,-154 162.369,-139.691 173.386,-127.237 185.776,-116.602"/>
<polygon fill="none" stroke="#404040" points="186.117,-116.328 188.298,-109.455 195.481,-108.823 193.301,-115.697 186.117,-116.328"/>
<text text-anchor="middle" x="212" y="-179.5" font-family="Helvetica,sans-Serif" font-size="10.00"> &#45;fLastPeakValue</text>
<text text-anchor="middle" x="212" y="-168.5" font-family="Helvetica,sans-Serif" font-size="10.00">&#45;fLastDBValue</text>
<text text-anchor="middle" x="212" y="-157.5" font-family="Helvetica,sans-Serif" font-size="10.00">&#45;fLastPeakProjectedValue</text>
</g>
<!-- Node13 -->
<g id="node13" class="node"><title>Node13</title>
<polygon fill="white" stroke="#bfbfbf" points="115.5,-643.5 115.5,-700.5 192.5,-700.5 192.5,-643.5 115.5,-643.5"/>
<text text-anchor="middle" x="154" y="-688.5" font-family="Helvetica,sans-Serif" font-size="10.00">AtomicInteger</text>
<polyline fill="none" stroke="#bfbfbf" points="115.5,-681.5 192.5,-681.5 "/>
<text text-anchor="middle" x="154" y="-669.5" font-family="Helvetica,sans-Serif" font-size="10.00"> </text>
<polyline fill="none" stroke="#bfbfbf" points="115.5,-662.5 192.5,-662.5 "/>
<text text-anchor="middle" x="154" y="-650.5" font-family="Helvetica,sans-Serif" font-size="10.00"> </text>
</g>
<!-- Node13&#45;&gt;Node12 -->
<g id="edge12" class="edge"><title>Node13&#45;&gt;Node12</title>
<path fill="none" stroke="#404040" d="M154,-643.326C154,-598.977 154,-510.537 154,-447.093"/>
<polygon fill="none" stroke="#404040" points="154,-446.758 150,-440.758 154,-434.758 158,-440.758 154,-446.758"/>
<text text-anchor="middle" x="169.5" y="-561.5" font-family="Helvetica,sans-Serif" font-size="10.00"> &#45;fLock</text>
</g>
<!-- Node14 -->
<g id="node14" class="node"><title>Node14</title>
<polygon fill="white" stroke="#bfbfbf" points="239,-344.5 239,-401.5 307,-401.5 307,-344.5 239,-344.5"/>
<text text-anchor="middle" x="273" y="-389.5" font-family="Helvetica,sans-Serif" font-size="10.00">AtomicLong</text>
<polyline fill="none" stroke="#bfbfbf" points="239,-382.5 307,-382.5 "/>
<text text-anchor="middle" x="273" y="-370.5" font-family="Helvetica,sans-Serif" font-size="10.00"> </text>
<polyline fill="none" stroke="#bfbfbf" points="239,-363.5 307,-363.5 "/>
<text text-anchor="middle" x="273" y="-351.5" font-family="Helvetica,sans-Serif" font-size="10.00"> </text>
</g>
<!-- Node14&#45;&gt;Node10 -->
<g id="edge14" class="edge"><title>Node14&#45;&gt;Node10</title>
<path fill="none" stroke="#404040" d="M273,-344.308C273,-300.114 273,-212.038 273,-147.361"/>
<polygon fill="none" stroke="#404040" points="273,-147.166 269,-141.166 273,-135.166 277,-141.165 273,-147.166"/>
<text text-anchor="middle" x="327.5" y="-179.5" font-family="Helvetica,sans-Serif" font-size="10.00"> &#45;fNumSamplesPerCycle</text>
<text text-anchor="middle" x="327.5" y="-168.5" font-family="Helvetica,sans-Serif" font-size="10.00">&#45;fTimeCycle</text>
<text text-anchor="middle" x="327.5" y="-157.5" font-family="Helvetica,sans-Serif" font-size="10.00">&#45;fSampleRate</text>
</g>
</g>
</svg>
