<?xml version="1.0" encoding="UTF-8" standalone="no"?>
<!DOCTYPE svg PUBLIC "-//W3C//DTD SVG 1.1//EN"
 "http://www.w3.org/Graphics/SVG/1.1/DTD/svg11.dtd">
<!-- Generated by graphviz version 2.36.0 (20140111.2315)
 -->
<!-- Title: TController Pages: 1 -->
<!--zoomable 1160 -->
<svg id="main" version="1.1" xmlns="http://www.w3.org/2000/svg" xmlns:xlink="http://www.w3.org/1999/xlink" xml:space="preserve" onload="init(evt)">
<style type="text/css"><![CDATA[
.edge:hover path { stroke: red; }
.edge:hover polygon { stroke: red; fill: red; }
]]></style>
<script type="text/javascript"><![CDATA[
var edges = document.getElementsByTagName('g');
if (edges && edges.length) {
  for (var i=0;i<edges.length;i++) {
    if (edges[i].id.substr(0,4)=='edge') {
      edges[i].setAttribute('class','edge');
    }
  }
}
]]></script>
        <defs>
                <circle id="rim" cx="0" cy="0" r="7"/>
                <circle id="rim2" cx="0" cy="0" r="3.5"/>
                <g id="zoomPlus">
                        <use xlink:href="#rim" fill="#404040">
                                <set attributeName="fill" to="#808080" begin="zoomplus.mouseover" end="zoomplus.mouseout"/>
                        </use>
                        <path d="M-4,0h8M0,-4v8" fill="none" stroke="white" stroke-width="1.5" pointer-events="none"/>
                </g>
                <g id="zoomMin">
                        <use xlink:href="#rim" fill="#404040">
                                <set attributeName="fill" to="#808080" begin="zoomminus.mouseover" end="zoomminus.mouseout"/>
                        </use>
                        <path d="M-4,0h8" fill="none" stroke="white" stroke-width="1.5" pointer-events="none"/>
                </g>
                <g id="dirArrow">
                        <path fill="none" stroke="white" stroke-width="1.5" d="M0,-3.0v7 M-2.5,-0.5L0,-3.0L2.5,-0.5"/>
                </g>
               <g id="resetDef">
                       <use xlink:href="#rim2" fill="#404040">
                               <set attributeName="fill" to="#808080" begin="reset.mouseover" end="reset.mouseout"/>
                       </use>
               </g>
        </defs>

<script type="text/javascript">
var viewWidth = 781;
var viewHeight = 1160;
var sectionId = 'dynsection-0';
</script>
<script xlink:href="../../svgpan.js"/>
<svg id="graph" class="graph">
<g id="viewport">
<title>TController</title>
<polygon fill="white" stroke="none" points="-4,4 -4,-1156 777,-1156 777,4 -4,4"/>
<!-- Node1 -->
<g id="node1" class="node"><title>Node1</title>
<polygon fill="#bfbfbf" stroke="black" points="325.5,-0.5 325.5,-365.5 492.5,-365.5 492.5,-0.5 325.5,-0.5"/>
<text text-anchor="middle" x="409" y="-353.5" font-family="Helvetica,sans-Serif" font-size="10.00">TController</text>
<polyline fill="none" stroke="black" points="325.5,-346.5 492.5,-346.5 "/>
<text text-anchor="start" x="333.5" y="-334.5" font-family="Helvetica,sans-Serif" font-size="10.00">&#45; fDoShowDebugUI</text>
<text text-anchor="start" x="333.5" y="-323.5" font-family="Helvetica,sans-Serif" font-size="10.00">&#45; gkTimeBetweenStartOrStop</text>
<polyline fill="none" stroke="black" points="325.5,-316.5 492.5,-316.5 "/>
<text text-anchor="start" x="333.5" y="-304.5" font-family="Helvetica,sans-Serif" font-size="10.00">+ Create_AudioContext()</text>
<text text-anchor="start" x="333.5" y="-293.5" font-family="Helvetica,sans-Serif" font-size="10.00">+ Create_Connection_Data()</text>
<text text-anchor="start" x="333.5" y="-282.5" font-family="Helvetica,sans-Serif" font-size="10.00">+ Create_Connection_Events()</text>
<text text-anchor="start" x="333.5" y="-271.5" font-family="Helvetica,sans-Serif" font-size="10.00">+ Create_Frontend_Console</text>
<text text-anchor="start" x="333.5" y="-260.5" font-family="Helvetica,sans-Serif" font-size="10.00">_LinearGauge()</text>
<text text-anchor="start" x="333.5" y="-249.5" font-family="Helvetica,sans-Serif" font-size="10.00">+ Create_Frontend_Console</text>
<text text-anchor="start" x="333.5" y="-238.5" font-family="Helvetica,sans-Serif" font-size="10.00">_TextOut()</text>
<text text-anchor="start" x="333.5" y="-227.5" font-family="Helvetica,sans-Serif" font-size="10.00">+ Create_Frontend_GUI</text>
<text text-anchor="start" x="333.5" y="-216.5" font-family="Helvetica,sans-Serif" font-size="10.00">_LinearGauge()</text>
<text text-anchor="start" x="333.5" y="-205.5" font-family="Helvetica,sans-Serif" font-size="10.00">+ Create_Frontend_GUI</text>
<text text-anchor="start" x="333.5" y="-194.5" font-family="Helvetica,sans-Serif" font-size="10.00">_Needle()</text>
<text text-anchor="start" x="333.5" y="-183.5" font-family="Helvetica,sans-Serif" font-size="10.00">+ Create_Module_ConverterDB()</text>
<text text-anchor="start" x="333.5" y="-172.5" font-family="Helvetica,sans-Serif" font-size="10.00">+ Create_Module_Integrator</text>
<text text-anchor="start" x="333.5" y="-161.5" font-family="Helvetica,sans-Serif" font-size="10.00">PPMBallistics()</text>
<text text-anchor="start" x="333.5" y="-150.5" font-family="Helvetica,sans-Serif" font-size="10.00">+ Create_Module_PeakEstimator()</text>
<text text-anchor="start" x="333.5" y="-139.5" font-family="Helvetica,sans-Serif" font-size="10.00">and 23 more...</text>
<text text-anchor="start" x="333.5" y="-128.5" font-family="Helvetica,sans-Serif" font-size="10.00">~ SystemTerminate()</text>
<text text-anchor="start" x="333.5" y="-117.5" font-family="Helvetica,sans-Serif" font-size="10.00">&#45; TController()</text>
<text text-anchor="start" x="333.5" y="-106.5" font-family="Helvetica,sans-Serif" font-size="10.00">&#45; _Create_StartListEntry()</text>
<text text-anchor="start" x="333.5" y="-95.5" font-family="Helvetica,sans-Serif" font-size="10.00">&#45; _Create_StopListEntry()</text>
<text text-anchor="start" x="333.5" y="-84.5" font-family="Helvetica,sans-Serif" font-size="10.00">&#45; _GetAudioDriver()</text>
<text text-anchor="start" x="333.5" y="-73.5" font-family="Helvetica,sans-Serif" font-size="10.00">&#45; _GetAudioObject()</text>
<text text-anchor="start" x="333.5" y="-62.5" font-family="Helvetica,sans-Serif" font-size="10.00">&#45; _PostEvent()</text>
<text text-anchor="start" x="333.5" y="-51.5" font-family="Helvetica,sans-Serif" font-size="10.00">&#45; _PostEvent()</text>
<text text-anchor="start" x="333.5" y="-40.5" font-family="Helvetica,sans-Serif" font-size="10.00">&#45; _PostEvent()</text>
<text text-anchor="start" x="333.5" y="-29.5" font-family="Helvetica,sans-Serif" font-size="10.00">&#45; _PostEvent()</text>
<text text-anchor="start" x="333.5" y="-18.5" font-family="Helvetica,sans-Serif" font-size="10.00">&#45; _Register()</text>
<text text-anchor="start" x="333.5" y="-7.5" font-family="Helvetica,sans-Serif" font-size="10.00">and 9 more...</text>
</g>
<!-- Node1&#45;&gt;Node1 -->
<g id="edge17" class="edge"><title>Node1&#45;&gt;Node1</title>
<path fill="none" stroke="#404040" d="M492.594,-217.616C503.092,-211.515 510,-199.977 510,-183 510,-171.859 507.025,-163.06 502.012,-156.603"/>
<polygon fill="none" stroke="#404040" points="501.635,-156.274 494.485,-155.343 492.594,-148.384 499.745,-149.315 501.635,-156.274"/>
<text text-anchor="middle" x="537" y="-180.5" font-family="Helvetica,sans-Serif" font-size="10.00"> &#45;gController</text>
</g>
<!-- Node2 -->
<g id="node2" class="node"><title>Node2</title>
<g id="a_node2"><a xlink:href="../../d6/da4/classppm__java_1_1backend_1_1event_1_1_t_broker.html" target="_top" xlink:title="Receives events and sends them to subscribed clients. ">
<polygon fill="white" stroke="black" points="62.5,-425 62.5,-581 159.5,-581 159.5,-425 62.5,-425"/>
<text text-anchor="middle" x="111" y="-569" font-family="Helvetica,sans-Serif" font-size="10.00">TBroker</text>
<polyline fill="none" stroke="black" points="62.5,-562 159.5,-562 "/>
<text text-anchor="start" x="70.5" y="-550" font-family="Helvetica,sans-Serif" font-size="10.00">&#45; gkArgsNone</text>
<text text-anchor="start" x="70.5" y="-539" font-family="Helvetica,sans-Serif" font-size="10.00">&#45; gkArgsOneInt</text>
<text text-anchor="start" x="70.5" y="-528" font-family="Helvetica,sans-Serif" font-size="10.00">&#45; gkArgsOneLong</text>
<text text-anchor="start" x="70.5" y="-517" font-family="Helvetica,sans-Serif" font-size="10.00">&#45; gkArgsOneString</text>
<polyline fill="none" stroke="black" points="62.5,-510 159.5,-510 "/>
<text text-anchor="start" x="70.5" y="-498" font-family="Helvetica,sans-Serif" font-size="10.00">+ TBroker()</text>
<text text-anchor="start" x="70.5" y="-487" font-family="Helvetica,sans-Serif" font-size="10.00">+ Broker()</text>
<text text-anchor="start" x="70.5" y="-476" font-family="Helvetica,sans-Serif" font-size="10.00">+ Broker()</text>
<text text-anchor="start" x="70.5" y="-465" font-family="Helvetica,sans-Serif" font-size="10.00">+ Broker()</text>
<text text-anchor="start" x="70.5" y="-454" font-family="Helvetica,sans-Serif" font-size="10.00">+ Broker()</text>
<text text-anchor="start" x="70.5" y="-443" font-family="Helvetica,sans-Serif" font-size="10.00">+ Subscribe()</text>
<text text-anchor="start" x="70.5" y="-432" font-family="Helvetica,sans-Serif" font-size="10.00">&#45; _Broker()</text>
</a>
</g>
</g>
<!-- Node2&#45;&gt;Node1 -->
<g id="edge1" class="edge"><title>Node2&#45;&gt;Node1</title>
<path fill="none" stroke="#404040" d="M159.542,-450.2C202.045,-404.844 264.963,-337.704 316.975,-282.201"/>
<polygon fill="none" stroke="#404040" points="317.019,-282.154 318.203,-275.041 325.224,-273.398 324.04,-280.511 317.019,-282.154"/>
<text text-anchor="middle" x="242" y="-392.5" font-family="Helvetica,sans-Serif" font-size="10.00"> &#45;fEventBus</text>
</g>
<!-- Node3 -->
<g id="node3" class="node"><title>Node3</title>
<polygon fill="white" stroke="#bfbfbf" points="0,-630.5 0,-709.5 144,-709.5 144,-630.5 0,-630.5"/>
<text text-anchor="start" x="8" y="-697.5" font-family="Helvetica,sans-Serif" font-size="10.00">TAtomicArrayMap&lt; ppm</text>
<text text-anchor="start" x="8" y="-686.5" font-family="Helvetica,sans-Serif" font-size="10.00">_java.backend.event.TBroker</text>
<text text-anchor="middle" x="72" y="-675.5" font-family="Helvetica,sans-Serif" font-size="10.00">SubscriptionList &gt;</text>
<polyline fill="none" stroke="#bfbfbf" points="0,-668.5 144,-668.5 "/>
<text text-anchor="middle" x="72" y="-656.5" font-family="Helvetica,sans-Serif" font-size="10.00"> </text>
<polyline fill="none" stroke="#bfbfbf" points="0,-649.5 144,-649.5 "/>
<text text-anchor="middle" x="72" y="-637.5" font-family="Helvetica,sans-Serif" font-size="10.00"> </text>
</g>
<!-- Node3&#45;&gt;Node2 -->
<g id="edge2" class="edge"><title>Node3&#45;&gt;Node2</title>
<path fill="none" stroke="#404040" d="M81.1438,-630.315C83.8156,-619.011 86.8528,-606.161 89.9424,-593.09"/>
<polygon fill="none" stroke="#404040" points="90.0253,-592.739 87.5128,-585.98 92.7857,-581.061 95.2982,-587.82 90.0253,-592.739"/>
<text text-anchor="middle" x="123.5" y="-603.5" font-family="Helvetica,sans-Serif" font-size="10.00"> &#45;fSubscriptions</text>
</g>
<!-- Node4 -->
<g id="node4" class="node"><title>Node4</title>
<g id="a_node4"><a xlink:href="../../d6/d7c/classppm__java_1_1backend_1_1_t_registry.html" target="_top" xlink:title="A registry for browseable Objects. ">
<polygon fill="white" stroke="black" points="229,-430.5 229,-575.5 341,-575.5 341,-430.5 229,-430.5"/>
<text text-anchor="middle" x="285" y="-563.5" font-family="Helvetica,sans-Serif" font-size="10.00">TRegistry</text>
<polyline fill="none" stroke="black" points="229,-556.5 341,-556.5 "/>
<text text-anchor="middle" x="285" y="-544.5" font-family="Helvetica,sans-Serif" font-size="10.00"> </text>
<polyline fill="none" stroke="black" points="229,-537.5 341,-537.5 "/>
<text text-anchor="start" x="237" y="-525.5" font-family="Helvetica,sans-Serif" font-size="10.00">+ TRegistry()</text>
<text text-anchor="start" x="237" y="-514.5" font-family="Helvetica,sans-Serif" font-size="10.00">+ GetAudioDriver()</text>
<text text-anchor="start" x="237" y="-503.5" font-family="Helvetica,sans-Serif" font-size="10.00">+ GetNumFrontends()</text>
<text text-anchor="start" x="237" y="-492.5" font-family="Helvetica,sans-Serif" font-size="10.00">+ GetNumObjects()</text>
<text text-anchor="start" x="237" y="-481.5" font-family="Helvetica,sans-Serif" font-size="10.00">+ GetObject()</text>
<text text-anchor="start" x="237" y="-470.5" font-family="Helvetica,sans-Serif" font-size="10.00">+ Register()</text>
<text text-anchor="start" x="237" y="-459.5" font-family="Helvetica,sans-Serif" font-size="10.00">+ Register()</text>
<text text-anchor="start" x="237" y="-448.5" font-family="Helvetica,sans-Serif" font-size="10.00">+ Register()</text>
<text text-anchor="start" x="237" y="-437.5" font-family="Helvetica,sans-Serif" font-size="10.00">+ Unregister()</text>
</a>
</g>
</g>
<!-- Node4&#45;&gt;Node1 -->
<g id="edge3" class="edge"><title>Node4&#45;&gt;Node1</title>
<path fill="none" stroke="#404040" d="M312.983,-430.238C319.342,-413.93 326.393,-395.848 333.702,-377.102"/>
<polygon fill="none" stroke="#404040" points="333.798,-376.857 332.251,-369.814 338.157,-365.677 339.704,-372.72 333.798,-376.857"/>
<text text-anchor="middle" x="352" y="-392.5" font-family="Helvetica,sans-Serif" font-size="10.00"> &#45;fRegistry</text>
</g>
<!-- Node5 -->
<g id="node5" class="node"><title>Node5</title>
<g id="a_node5"><a xlink:href="../../dc/d95/classppm__java_1_1typelib_1_1_v_audio_driver.html" target="_top" xlink:title="Base class for all audio drivers. ">
<polygon fill="white" stroke="black" points="162,-636 162,-704 254,-704 254,-636 162,-636"/>
<text text-anchor="middle" x="208" y="-692" font-family="Helvetica,sans-Serif" font-size="10.00">VAudioDriver</text>
<polyline fill="none" stroke="black" points="162,-685 254,-685 "/>
<text text-anchor="middle" x="208" y="-673" font-family="Helvetica,sans-Serif" font-size="10.00"> </text>
<polyline fill="none" stroke="black" points="162,-666 254,-666 "/>
<text text-anchor="start" x="170" y="-654" font-family="Helvetica,sans-Serif" font-size="10.00">+ VAudioDriver()</text>
<text text-anchor="start" x="170" y="-643" font-family="Helvetica,sans-Serif" font-size="10.00">+ CreatePort_In()</text>
</a>
</g>
</g>
<!-- Node5&#45;&gt;Node4 -->
<g id="edge4" class="edge"><title>Node5&#45;&gt;Node4</title>
<path fill="none" stroke="#404040" d="M223.582,-635.61C230.215,-621.396 238.275,-604.126 246.344,-586.835"/>
<polygon fill="none" stroke="#404040" points="246.558,-586.376 245.47,-579.247 251.633,-575.502 252.72,-582.63 246.558,-586.376"/>
<text text-anchor="middle" x="270.5" y="-603.5" font-family="Helvetica,sans-Serif" font-size="10.00"> &#45;fAudioDriver</text>
</g>
<!-- Node6 -->
<g id="node6" class="node"><title>Node6</title>
<g id="a_node6"><a xlink:href="../../d5/d6a/classppm__java_1_1typelib_1_1_v_audio_processor.html" target="_top" xlink:title="Base class for all modules processing audio samples. ">
<polygon fill="white" stroke="black" points="154.5,-748.5 154.5,-915.5 261.5,-915.5 261.5,-748.5 154.5,-748.5"/>
<text text-anchor="middle" x="208" y="-903.5" font-family="Helvetica,sans-Serif" font-size="10.00">VAudioProcessor</text>
<polyline fill="none" stroke="black" points="154.5,-896.5 261.5,-896.5 "/>
<text text-anchor="middle" x="208" y="-884.5" font-family="Helvetica,sans-Serif" font-size="10.00"> </text>
<polyline fill="none" stroke="black" points="154.5,-877.5 261.5,-877.5 "/>
<text text-anchor="start" x="162.5" y="-865.5" font-family="Helvetica,sans-Serif" font-size="10.00">+ VAudioProcessor()</text>
<text text-anchor="start" x="162.5" y="-854.5" font-family="Helvetica,sans-Serif" font-size="10.00">+ CreatePort_In()</text>
<text text-anchor="start" x="162.5" y="-843.5" font-family="Helvetica,sans-Serif" font-size="10.00">+ CreatePort_Out()</text>
<text text-anchor="start" x="162.5" y="-832.5" font-family="Helvetica,sans-Serif" font-size="10.00">+ GetNumPortsIn()</text>
<text text-anchor="start" x="162.5" y="-821.5" font-family="Helvetica,sans-Serif" font-size="10.00">+ GetNumPortsOut()</text>
<text text-anchor="start" x="162.5" y="-810.5" font-family="Helvetica,sans-Serif" font-size="10.00">+ GetPortIn()</text>
<text text-anchor="start" x="162.5" y="-799.5" font-family="Helvetica,sans-Serif" font-size="10.00">+ GetPortIn()</text>
<text text-anchor="start" x="162.5" y="-788.5" font-family="Helvetica,sans-Serif" font-size="10.00">+ GetPortOut()</text>
<text text-anchor="start" x="162.5" y="-777.5" font-family="Helvetica,sans-Serif" font-size="10.00">+ GetPortOut()</text>
<text text-anchor="start" x="162.5" y="-766.5" font-family="Helvetica,sans-Serif" font-size="10.00"># AddPortIn()</text>
<text text-anchor="start" x="162.5" y="-755.5" font-family="Helvetica,sans-Serif" font-size="10.00"># AddPortOut()</text>
</a>
</g>
</g>
<!-- Node6&#45;&gt;Node5 -->
<g id="edge5" class="edge"><title>Node6&#45;&gt;Node5</title>
<path fill="none" stroke="midnightblue" d="M208,-738.025C208,-726.009 208,-714.394 208,-704.304"/>
<polygon fill="none" stroke="midnightblue" points="204.5,-738.188 208,-748.188 211.5,-738.188 204.5,-738.188"/>
</g>
<!-- Node7 -->
<g id="node7" class="node"><title>Node7</title>
<g id="a_node7"><a xlink:href="../../d1/db3/classppm__java_1_1typelib_1_1_v_audio_object.html" target="_top" xlink:title="Base class for all browseable audio objects. ">
<polygon fill="white" stroke="black" points="23,-970.5 23,-1027.5 115,-1027.5 115,-970.5 23,-970.5"/>
<text text-anchor="middle" x="69" y="-1015.5" font-family="Helvetica,sans-Serif" font-size="10.00">VAudioObject</text>
<polyline fill="none" stroke="black" points="23,-1008.5 115,-1008.5 "/>
<text text-anchor="middle" x="69" y="-996.5" font-family="Helvetica,sans-Serif" font-size="10.00"> </text>
<polyline fill="none" stroke="black" points="23,-989.5 115,-989.5 "/>
<text text-anchor="start" x="31" y="-977.5" font-family="Helvetica,sans-Serif" font-size="10.00">+ VAudioObject()</text>
</a>
</g>
</g>
<!-- Node7&#45;&gt;Node6 -->
<g id="edge6" class="edge"><title>Node7&#45;&gt;Node6</title>
<path fill="none" stroke="midnightblue" d="M98.9091,-962.496C115.063,-943.321 135.498,-919.064 154.303,-896.741"/>
<polygon fill="none" stroke="midnightblue" points="96.0315,-960.48 92.2655,-970.383 101.385,-964.99 96.0315,-960.48"/>
</g>
<!-- Node8 -->
<g id="node8" class="node"><title>Node8</title>
<g id="a_node8"><a xlink:href="../../de/dd1/classppm__java_1_1typelib_1_1_v_browseable.html" target="_top" xlink:title="Base class for all browseable objects. ">
<polygon fill="white" stroke="black" points="24.5,-1072.5 24.5,-1151.5 113.5,-1151.5 113.5,-1072.5 24.5,-1072.5"/>
<text text-anchor="middle" x="69" y="-1139.5" font-family="Helvetica,sans-Serif" font-size="10.00">VBrowseable</text>
<polyline fill="none" stroke="black" points="24.5,-1132.5 113.5,-1132.5 "/>
<text text-anchor="start" x="32.5" y="-1120.5" font-family="Helvetica,sans-Serif" font-size="10.00">&#45; fID</text>
<polyline fill="none" stroke="black" points="24.5,-1113.5 113.5,-1113.5 "/>
<text text-anchor="start" x="32.5" y="-1101.5" font-family="Helvetica,sans-Serif" font-size="10.00">+ VBrowseable()</text>
<text text-anchor="start" x="32.5" y="-1090.5" font-family="Helvetica,sans-Serif" font-size="10.00">+ GetID()</text>
<text text-anchor="start" x="32.5" y="-1079.5" font-family="Helvetica,sans-Serif" font-size="10.00"># _Register()</text>
</a>
</g>
</g>
<!-- Node8&#45;&gt;Node7 -->
<g id="edge7" class="edge"><title>Node8&#45;&gt;Node7</title>
<path fill="none" stroke="midnightblue" d="M69,-1062.23C69,-1050.36 69,-1038.08 69,-1027.6"/>
<polygon fill="none" stroke="midnightblue" points="65.5001,-1062.49 69,-1072.49 72.5001,-1062.49 65.5001,-1062.49"/>
</g>
<!-- Node9 -->
<g id="node9" class="node"><title>Node9</title>
<polygon fill="white" stroke="#bfbfbf" points="133,-965 133,-1033 283,-1033 283,-965 133,-965"/>
<text text-anchor="start" x="141" y="-1021" font-family="Helvetica,sans-Serif" font-size="10.00">TArrayMap&lt; ppm_java.typelib.</text>
<text text-anchor="middle" x="208" y="-1010" font-family="Helvetica,sans-Serif" font-size="10.00">VAudioPort_Output &gt;</text>
<polyline fill="none" stroke="#bfbfbf" points="133,-1003 283,-1003 "/>
<text text-anchor="middle" x="208" y="-991" font-family="Helvetica,sans-Serif" font-size="10.00"> </text>
<polyline fill="none" stroke="#bfbfbf" points="133,-984 283,-984 "/>
<text text-anchor="middle" x="208" y="-972" font-family="Helvetica,sans-Serif" font-size="10.00"> </text>
</g>
<!-- Node9&#45;&gt;Node6 -->
<g id="edge8" class="edge"><title>Node9&#45;&gt;Node6</title>
<path fill="none" stroke="#404040" d="M208,-964.61C208,-953.723 208,-941.043 208,-927.934"/>
<polygon fill="none" stroke="#404040" points="208,-927.813 204,-921.813 208,-915.813 212,-921.813 208,-927.813"/>
<text text-anchor="middle" x="232.5" y="-937.5" font-family="Helvetica,sans-Serif" font-size="10.00"> &#45;fPortsOut</text>
</g>
<!-- Node10 -->
<g id="node10" class="node"><title>Node10</title>
<polygon fill="white" stroke="#bfbfbf" points="301,-965 301,-1033 451,-1033 451,-965 301,-965"/>
<text text-anchor="start" x="309" y="-1021" font-family="Helvetica,sans-Serif" font-size="10.00">TArrayMap&lt; ppm_java.typelib.</text>
<text text-anchor="middle" x="376" y="-1010" font-family="Helvetica,sans-Serif" font-size="10.00">VAudioPort_Input &gt;</text>
<polyline fill="none" stroke="#bfbfbf" points="301,-1003 451,-1003 "/>
<text text-anchor="middle" x="376" y="-991" font-family="Helvetica,sans-Serif" font-size="10.00"> </text>
<polyline fill="none" stroke="#bfbfbf" points="301,-984 451,-984 "/>
<text text-anchor="middle" x="376" y="-972" font-family="Helvetica,sans-Serif" font-size="10.00"> </text>
</g>
<!-- Node10&#45;&gt;Node6 -->
<g id="edge9" class="edge"><title>Node10&#45;&gt;Node6</title>
<path fill="none" stroke="#404040" d="M342.003,-964.61C321.509,-944.482 294.771,-918.221 270.575,-894.457"/>
<polygon fill="none" stroke="#404040" points="270.353,-894.24 263.269,-892.889 261.792,-885.831 268.875,-887.182 270.353,-894.24"/>
<text text-anchor="middle" x="342.5" y="-937.5" font-family="Helvetica,sans-Serif" font-size="10.00"> &#45;fPortsIn</text>
</g>
<!-- Node11 -->
<g id="node11" class="node"><title>Node11</title>
<polygon fill="white" stroke="#bfbfbf" points="272,-636 272,-704 422,-704 422,-636 272,-636"/>
<text text-anchor="start" x="280" y="-692" font-family="Helvetica,sans-Serif" font-size="10.00">TArrayMap&lt; ppm_java.typelib.</text>
<text text-anchor="middle" x="347" y="-681" font-family="Helvetica,sans-Serif" font-size="10.00">VFrontend &gt;</text>
<polyline fill="none" stroke="#bfbfbf" points="272,-674 422,-674 "/>
<text text-anchor="middle" x="347" y="-662" font-family="Helvetica,sans-Serif" font-size="10.00"> </text>
<polyline fill="none" stroke="#bfbfbf" points="272,-655 422,-655 "/>
<text text-anchor="middle" x="347" y="-643" font-family="Helvetica,sans-Serif" font-size="10.00"> </text>
</g>
<!-- Node11&#45;&gt;Node4 -->
<g id="edge10" class="edge"><title>Node11&#45;&gt;Node4</title>
<path fill="none" stroke="#404040" d="M334.453,-635.61C329.113,-621.396 322.623,-604.126 316.126,-586.835"/>
<polygon fill="none" stroke="#404040" points="316.088,-586.735 310.233,-582.525 311.867,-575.502 317.722,-579.711 316.088,-586.735"/>
<text text-anchor="middle" x="352.5" y="-603.5" font-family="Helvetica,sans-Serif" font-size="10.00"> &#45;fFrontends</text>
</g>
<!-- Node12 -->
<g id="node12" class="node"><title>Node12</title>
<polygon fill="white" stroke="#bfbfbf" points="440,-636 440,-704 590,-704 590,-636 440,-636"/>
<text text-anchor="start" x="448" y="-692" font-family="Helvetica,sans-Serif" font-size="10.00">TArrayMap&lt; ppm_java.typelib.</text>
<text text-anchor="middle" x="515" y="-681" font-family="Helvetica,sans-Serif" font-size="10.00">VBrowseable &gt;</text>
<polyline fill="none" stroke="#bfbfbf" points="440,-674 590,-674 "/>
<text text-anchor="middle" x="515" y="-662" font-family="Helvetica,sans-Serif" font-size="10.00"> </text>
<polyline fill="none" stroke="#bfbfbf" points="440,-655 590,-655 "/>
<text text-anchor="middle" x="515" y="-643" font-family="Helvetica,sans-Serif" font-size="10.00"> </text>
</g>
<!-- Node12&#45;&gt;Node4 -->
<g id="edge11" class="edge"><title>Node12&#45;&gt;Node4</title>
<path fill="none" stroke="#404040" d="M451.526,-635.889C414.186,-616.365 371.34,-593.865 350.956,-581.104"/>
<polygon fill="none" stroke="#404040" points="350.945,-581.097 343.736,-580.961 341.088,-574.254 348.298,-574.39 350.945,-581.097"/>
<text text-anchor="middle" x="437" y="-603.5" font-family="Helvetica,sans-Serif" font-size="10.00"> &#45;fObjectsMap</text>
</g>
<!-- Node13 -->
<g id="node13" class="node"><title>Node13</title>
<polygon fill="white" stroke="#bfbfbf" points="359.5,-474.5 359.5,-531.5 458.5,-531.5 458.5,-474.5 359.5,-474.5"/>
<text text-anchor="middle" x="409" y="-519.5" font-family="Helvetica,sans-Serif" font-size="10.00">ArrayList&lt; String &gt;</text>
<polyline fill="none" stroke="#bfbfbf" points="359.5,-512.5 458.5,-512.5 "/>
<text text-anchor="middle" x="409" y="-500.5" font-family="Helvetica,sans-Serif" font-size="10.00"> </text>
<polyline fill="none" stroke="#bfbfbf" points="359.5,-493.5 458.5,-493.5 "/>
<text text-anchor="middle" x="409" y="-481.5" font-family="Helvetica,sans-Serif" font-size="10.00"> </text>
</g>
<!-- Node13&#45;&gt;Node1 -->
<g id="edge12" class="edge"><title>Node13&#45;&gt;Node1</title>
<path fill="none" stroke="#404040" d="M409,-474.336C409,-451.224 409,-416.012 409,-377.991"/>
<polygon fill="none" stroke="#404040" points="409,-377.56 405,-371.56 409,-365.56 413,-371.56 409,-377.56"/>
<text text-anchor="middle" x="455.5" y="-398" font-family="Helvetica,sans-Serif" font-size="10.00"> &#45;fListIDModulesStop</text>
<text text-anchor="middle" x="455.5" y="-387" font-family="Helvetica,sans-Serif" font-size="10.00">&#45;fListIDModulesStart</text>
</g>
<!-- Node14 -->
<g id="node14" class="node"><title>Node14</title>
<polygon fill="white" stroke="#bfbfbf" points="476.5,-469 476.5,-537 617.5,-537 617.5,-469 476.5,-469"/>
<text text-anchor="start" x="484.5" y="-525" font-family="Helvetica,sans-Serif" font-size="10.00">ArrayList&lt; ppm_java.typelib.</text>
<text text-anchor="middle" x="547" y="-514" font-family="Helvetica,sans-Serif" font-size="10.00">IStatEnabled &gt;</text>
<polyline fill="none" stroke="#bfbfbf" points="476.5,-507 617.5,-507 "/>
<text text-anchor="middle" x="547" y="-495" font-family="Helvetica,sans-Serif" font-size="10.00"> </text>
<polyline fill="none" stroke="#bfbfbf" points="476.5,-488 617.5,-488 "/>
<text text-anchor="middle" x="547" y="-476" font-family="Helvetica,sans-Serif" font-size="10.00"> </text>
</g>
<!-- Node14&#45;&gt;Node1 -->
<g id="edge13" class="edge"><title>Node14&#45;&gt;Node1</title>
<path fill="none" stroke="#404040" d="M536.619,-468.804C528.879,-444.942 517.669,-412.148 506,-384 503.278,-377.434 500.446,-370.778 497.533,-364.078"/>
<polygon fill="none" stroke="#404040" points="497.391,-363.755 491.314,-359.873 492.56,-352.77 498.637,-356.653 497.391,-363.755"/>
<text text-anchor="middle" x="548.5" y="-392.5" font-family="Helvetica,sans-Serif" font-size="10.00"> &#45;fStatProviders</text>
</g>
<!-- Node15 -->
<g id="node15" class="node"><title>Node15</title>
<g id="a_node15"><a xlink:href="../../de/dac/classppm__java_1_1util_1_1debug_1_1_t_timer_debug_update.html" target="_top" xlink:title="Debug update worker thread. ">
<polygon fill="white" stroke="black" points="636,-452.5 636,-553.5 758,-553.5 758,-452.5 636,-452.5"/>
<text text-anchor="middle" x="697" y="-541.5" font-family="Helvetica,sans-Serif" font-size="10.00">TTimerDebugUpdate</text>
<polyline fill="none" stroke="black" points="636,-534.5 758,-534.5 "/>
<text text-anchor="start" x="644" y="-522.5" font-family="Helvetica,sans-Serif" font-size="10.00">&#45; gkFlagRun</text>
<text text-anchor="start" x="644" y="-511.5" font-family="Helvetica,sans-Serif" font-size="10.00">&#45; gkFlagStop</text>
<text text-anchor="start" x="644" y="-500.5" font-family="Helvetica,sans-Serif" font-size="10.00">&#45; gkInterval</text>
<polyline fill="none" stroke="black" points="636,-493.5 758,-493.5 "/>
<text text-anchor="start" x="644" y="-481.5" font-family="Helvetica,sans-Serif" font-size="10.00">+ TTimerDebugUpdate()</text>
<text text-anchor="start" x="644" y="-470.5" font-family="Helvetica,sans-Serif" font-size="10.00">+ Stop()</text>
<text text-anchor="start" x="644" y="-459.5" font-family="Helvetica,sans-Serif" font-size="10.00">+ run()</text>
</a>
</g>
</g>
<!-- Node15&#45;&gt;Node1 -->
<g id="edge14" class="edge"><title>Node15&#45;&gt;Node1</title>
<path fill="none" stroke="#404040" d="M652,-452.312C611.762,-407.884 551.537,-341.384 501.111,-285.705"/>
<polygon fill="none" stroke="#404040" points="500.841,-285.407 493.848,-283.645 492.785,-276.513 499.778,-278.275 500.841,-285.407"/>
<text text-anchor="middle" x="654.5" y="-392.5" font-family="Helvetica,sans-Serif" font-size="10.00"> &#45;fDebugUpdateWorker</text>
</g>
<!-- Node16 -->
<g id="node16" class="node"><title>Node16</title>
<polygon fill="white" stroke="#bfbfbf" points="631.5,-641.5 631.5,-698.5 678.5,-698.5 678.5,-641.5 631.5,-641.5"/>
<text text-anchor="middle" x="655" y="-686.5" font-family="Helvetica,sans-Serif" font-size="10.00">Thread</text>
<polyline fill="none" stroke="#bfbfbf" points="631.5,-679.5 678.5,-679.5 "/>
<text text-anchor="middle" x="655" y="-667.5" font-family="Helvetica,sans-Serif" font-size="10.00"> </text>
<polyline fill="none" stroke="#bfbfbf" points="631.5,-660.5 678.5,-660.5 "/>
<text text-anchor="middle" x="655" y="-648.5" font-family="Helvetica,sans-Serif" font-size="10.00"> </text>
</g>
<!-- Node16&#45;&gt;Node15 -->
<g id="edge15" class="edge"><title>Node16&#45;&gt;Node15</title>
<path fill="none" stroke="midnightblue" d="M664.51,-631.638C670.375,-608.598 677.967,-578.772 684.337,-553.747"/>
<polygon fill="none" stroke="midnightblue" points="661.105,-630.828 662.03,-641.383 667.889,-632.555 661.105,-630.828"/>
</g>
<!-- Node17 -->
<g id="node17" class="node"><title>Node17</title>
<polygon fill="white" stroke="#bfbfbf" points="696.5,-641.5 696.5,-698.5 773.5,-698.5 773.5,-641.5 696.5,-641.5"/>
<text text-anchor="middle" x="735" y="-686.5" font-family="Helvetica,sans-Serif" font-size="10.00">AtomicInteger</text>
<polyline fill="none" stroke="#bfbfbf" points="696.5,-679.5 773.5,-679.5 "/>
<text text-anchor="middle" x="735" y="-667.5" font-family="Helvetica,sans-Serif" font-size="10.00"> </text>
<polyline fill="none" stroke="#bfbfbf" points="696.5,-660.5 773.5,-660.5 "/>
<text text-anchor="middle" x="735" y="-648.5" font-family="Helvetica,sans-Serif" font-size="10.00"> </text>
</g>
<!-- Node17&#45;&gt;Node15 -->
<g id="edge16" class="edge"><title>Node17&#45;&gt;Node15</title>
<path fill="none" stroke="#404040" d="M728.64,-641.383C723.876,-620.698 717.172,-591.589 711.161,-565.487"/>
<polygon fill="none" stroke="#404040" points="711.15,-565.441 705.905,-560.491 708.457,-553.747 713.701,-558.696 711.15,-565.441"/>
<text text-anchor="middle" x="742" y="-603.5" font-family="Helvetica,sans-Serif" font-size="10.00"> &#45;fDoRun</text>
</g>
</g>
</svg>
        <g id="navigator" transform="translate(0 0)" fill="#404254">
                <rect fill="#f2f5e9" fill-opacity="0.5" stroke="#606060" stroke-width=".5" x="0" y="0" width="60" height="60"/>
                <use id="zoomplus" xlink:href="#zoomPlus" x="17" y="9" onmousedown="handleZoom(evt,'in')"/>
                <use id="zoomminus" xlink:href="#zoomMin" x="42" y="9" onmousedown="handleZoom(evt,'out')"/>
                <use id="reset" xlink:href="#resetDef" x="30" y="36" onmousedown="handleReset()"/>
                <g id="arrowUp" xlink:href="#dirArrow" transform="translate(30 24)" onmousedown="handlePan(0,-1)">
                  <use xlink:href="#rim" fill="#404040">
                        <set attributeName="fill" to="#808080" begin="arrowUp.mouseover" end="arrowUp.mouseout"/>
                  </use>
                  <path fill="none" stroke="white" stroke-width="1.5" d="M0,-3.0v7 M-2.5,-0.5L0,-3.0L2.5,-0.5"/>
                </g>
                <g id="arrowRight" xlink:href="#dirArrow" transform="rotate(90) translate(36 -43)" onmousedown="handlePan(1,0)">
                  <use xlink:href="#rim" fill="#404040">
                        <set attributeName="fill" to="#808080" begin="arrowRight.mouseover" end="arrowRight.mouseout"/>
                  </use>
                  <path fill="none" stroke="white" stroke-width="1.5" d="M0,-3.0v7 M-2.5,-0.5L0,-3.0L2.5,-0.5"/>
                </g>
                <g id="arrowDown" xlink:href="#dirArrow" transform="rotate(180) translate(-30 -48)" onmousedown="handlePan(0,1)">
                  <use xlink:href="#rim" fill="#404040">
                        <set attributeName="fill" to="#808080" begin="arrowDown.mouseover" end="arrowDown.mouseout"/>
                  </use>
                  <path fill="none" stroke="white" stroke-width="1.5" d="M0,-3.0v7 M-2.5,-0.5L0,-3.0L2.5,-0.5"/>
                </g>
                <g id="arrowLeft" xlink:href="#dirArrow" transform="rotate(270) translate(-36 17)" onmousedown="handlePan(-1,0)">
                  <use xlink:href="#rim" fill="#404040">
                        <set attributeName="fill" to="#808080" begin="arrowLeft.mouseover" end="arrowLeft.mouseout"/>
                  </use>
                  <path fill="none" stroke="white" stroke-width="1.5" d="M0,-3.0v7 M-2.5,-0.5L0,-3.0L2.5,-0.5"/>
                </g>
        </g>
        <svg viewBox="0 0 15 15" width="100%" height="30px" preserveAspectRatio="xMaxYMin meet">
         <g id="arrow_out" transform="scale(0.3 0.3)">
          <a xlink:href="classppm__java_1_1backend_1_1_t_controller__coll__graph_org.svg" target="_base">
           <rect id="button" ry="5" rx="5" y="6" x="6" height="38" width="38"
                fill="#f2f5e9" fill-opacity="0.5" stroke="#606060" stroke-width="1.0"/>
           <path id="arrow"
             d="M 11.500037,31.436501 C 11.940474,20.09759 22.043105,11.32322 32.158766,21.979434 L 37.068811,17.246167 C 37.068811,17.246167 37.088388,32 37.088388,32 L 22.160133,31.978069 C 22.160133,31.978069 26.997745,27.140456 26.997745,27.140456 C 18.528582,18.264221 13.291696,25.230495 11.500037,31.436501 z"
             style="fill:#404040;"/>
          </a>
         </g>
        </svg>
</svg>
