<?xml version="1.0" encoding="UTF-8" standalone="no"?>
<!DOCTYPE svg PUBLIC "-//W3C//DTD SVG 1.1//EN"
 "http://www.w3.org/Graphics/SVG/1.1/DTD/svg11.dtd">
<!-- Generated by graphviz version 2.36.0 (20140111.2315)
 -->
<!-- Title: TConsole_LinearGauge_MeterUI Pages: 1 -->
<svg width="160pt" height="566pt"
 viewBox="0.00 0.00 160.00 566.00" xmlns="http://www.w3.org/2000/svg" xmlns:xlink="http://www.w3.org/1999/xlink">
<g id="graph0" class="graph" transform="scale(1 1) rotate(0) translate(4 562)">
<title>TConsole_LinearGauge_MeterUI</title>
<polygon fill="white" stroke="none" points="-4,4 -4,-562 156,-562 156,4 -4,4"/>
<!-- Node1 -->
<g id="node1" class="node"><title>Node1</title>
<polygon fill="#bfbfbf" stroke="black" points="0,-1 0,-267 152,-267 152,-1 0,-1"/>
<text text-anchor="start" x="8" y="-255" font-family="Helvetica,sans-Serif" font-size="10.00">TConsole_LinearGauge</text>
<text text-anchor="middle" x="76" y="-244" font-family="Helvetica,sans-Serif" font-size="10.00">_MeterUI</text>
<polyline fill="none" stroke="black" points="0,-237 152,-237 "/>
<text text-anchor="start" x="8" y="-225" font-family="Helvetica,sans-Serif" font-size="10.00">&#45; fBarLen</text>
<text text-anchor="start" x="8" y="-214" font-family="Helvetica,sans-Serif" font-size="10.00">&#45; fColorCode</text>
<text text-anchor="start" x="8" y="-203" font-family="Helvetica,sans-Serif" font-size="10.00">&#45; fColorCodeReset</text>
<text text-anchor="start" x="8" y="-192" font-family="Helvetica,sans-Serif" font-size="10.00">&#45; fEmptyBar</text>
<text text-anchor="start" x="8" y="-181" font-family="Helvetica,sans-Serif" font-size="10.00">&#45; fLevelBar</text>
<text text-anchor="start" x="8" y="-170" font-family="Helvetica,sans-Serif" font-size="10.00">&#45; gkAnsiRed</text>
<text text-anchor="start" x="8" y="-159" font-family="Helvetica,sans-Serif" font-size="10.00">&#45; gkAnsiReset</text>
<text text-anchor="start" x="8" y="-148" font-family="Helvetica,sans-Serif" font-size="10.00">&#45; gkAnsiYellow</text>
<text text-anchor="start" x="8" y="-137" font-family="Helvetica,sans-Serif" font-size="10.00">&#45; gkLvlClip</text>
<text text-anchor="start" x="8" y="-126" font-family="Helvetica,sans-Serif" font-size="10.00">&#45; gkLvlWarn</text>
<text text-anchor="start" x="8" y="-115" font-family="Helvetica,sans-Serif" font-size="10.00">&#45; gkMeterBarChar</text>
<text text-anchor="start" x="8" y="-104" font-family="Helvetica,sans-Serif" font-size="10.00">&#45; gkNumSections</text>
<text text-anchor="start" x="8" y="-93" font-family="Helvetica,sans-Serif" font-size="10.00">&#45; gkTimeClipExpire</text>
<polyline fill="none" stroke="black" points="0,-86 152,-86 "/>
<text text-anchor="start" x="8" y="-74" font-family="Helvetica,sans-Serif" font-size="10.00">+ TConsole_LinearGauge</text>
<text text-anchor="start" x="8" y="-63" font-family="Helvetica,sans-Serif" font-size="10.00">_MeterUI()</text>
<text text-anchor="start" x="8" y="-52" font-family="Helvetica,sans-Serif" font-size="10.00">+ GetLevelBar()</text>
<text text-anchor="start" x="8" y="-41" font-family="Helvetica,sans-Serif" font-size="10.00">+ Receive()</text>
<text text-anchor="start" x="8" y="-30" font-family="Helvetica,sans-Serif" font-size="10.00">&#45; _PrecomputeFixedElements()</text>
<text text-anchor="start" x="8" y="-19" font-family="Helvetica,sans-Serif" font-size="10.00">&#45; _SetBar()</text>
<text text-anchor="start" x="8" y="-8" font-family="Helvetica,sans-Serif" font-size="10.00">&#45; _SetClip()</text>
</g>
<!-- Node2 -->
<g id="node2" class="node"><title>Node2</title>
<g id="a_node2"><a xlink:href="../../d9/d3d/classppm__java_1_1util_1_1timer_1_1_t_tick_timer.html" target="_top" xlink:title="A resettable monostable timer. ">
<polygon fill="white" stroke="black" points="32,-317 32,-429 120,-429 120,-317 32,-317"/>
<text text-anchor="middle" x="76" y="-417" font-family="Helvetica,sans-Serif" font-size="10.00">TTickTimer</text>
<polyline fill="none" stroke="black" points="32,-410 120,-410 "/>
<text text-anchor="start" x="40" y="-398" font-family="Helvetica,sans-Serif" font-size="10.00">&#45; fExpireTime</text>
<text text-anchor="start" x="40" y="-387" font-family="Helvetica,sans-Serif" font-size="10.00">&#45; fStartTime</text>
<polyline fill="none" stroke="black" points="32,-380 120,-380 "/>
<text text-anchor="start" x="40" y="-368" font-family="Helvetica,sans-Serif" font-size="10.00">+ TTickTimer()</text>
<text text-anchor="start" x="40" y="-357" font-family="Helvetica,sans-Serif" font-size="10.00">+ HasExpired()</text>
<text text-anchor="start" x="40" y="-346" font-family="Helvetica,sans-Serif" font-size="10.00">+ OnTimerTick()</text>
<text text-anchor="start" x="40" y="-335" font-family="Helvetica,sans-Serif" font-size="10.00">+ Start()</text>
<text text-anchor="start" x="40" y="-324" font-family="Helvetica,sans-Serif" font-size="10.00">+ Reset()</text>
</a>
</g>
</g>
<!-- Node2&#45;&gt;Node1 -->
<g id="edge1" class="edge"><title>Node2&#45;&gt;Node1</title>
<path fill="none" stroke="#404040" d="M76,-316.733C76,-305.214 76,-292.567 76,-279.475"/>
<polygon fill="none" stroke="#404040" points="76.0001,-279.346 72,-273.346 76,-267.346 80,-273.346 76.0001,-279.346"/>
<text text-anchor="middle" x="102" y="-289.5" font-family="Helvetica,sans-Serif" font-size="10.00"> &#45;fClipTimer</text>
</g>
<!-- Node3 -->
<g id="node3" class="node"><title>Node3</title>
<g id="a_node3"><a xlink:href="../../d7/d3c/enumppm__java_1_1util_1_1timer_1_1_e_timer_state.html" target="_top" xlink:title="Internal state of the TTickTimer. ">
<polygon fill="white" stroke="black" points="40.5,-478.5 40.5,-557.5 111.5,-557.5 111.5,-478.5 40.5,-478.5"/>
<text text-anchor="middle" x="76" y="-545.5" font-family="Helvetica,sans-Serif" font-size="10.00">ETimerState</text>
<polyline fill="none" stroke="black" points="40.5,-538.5 111.5,-538.5 "/>
<text text-anchor="start" x="48.5" y="-526.5" font-family="Helvetica,sans-Serif" font-size="10.00">+ kNull</text>
<text text-anchor="start" x="48.5" y="-515.5" font-family="Helvetica,sans-Serif" font-size="10.00">+ kRunning</text>
<text text-anchor="start" x="48.5" y="-504.5" font-family="Helvetica,sans-Serif" font-size="10.00">+ kExpired</text>
<polyline fill="none" stroke="black" points="40.5,-497.5 111.5,-497.5 "/>
<text text-anchor="middle" x="76" y="-485.5" font-family="Helvetica,sans-Serif" font-size="10.00"> </text>
</a>
</g>
</g>
<!-- Node3&#45;&gt;Node2 -->
<g id="edge2" class="edge"><title>Node3&#45;&gt;Node2</title>
<path fill="none" stroke="#404040" d="M76,-478.302C76,-466.831 76,-453.922 76,-441.196"/>
<polygon fill="none" stroke="#404040" points="76.0001,-441.103 72,-435.103 76,-429.103 80,-435.103 76.0001,-441.103"/>
<text text-anchor="middle" x="92.5" y="-451.5" font-family="Helvetica,sans-Serif" font-size="10.00"> &#45;fState</text>
</g>
</g>
</svg>
