<?xml version="1.0" encoding="UTF-8" standalone="no"?>
<!DOCTYPE svg PUBLIC "-//W3C//DTD SVG 1.1//EN"
 "http://www.w3.org/Graphics/SVG/1.1/DTD/svg11.dtd">
<!-- Generated by graphviz version 2.36.0 (20140111.2315)
 -->
<!-- Title: TAudioContext_JackD_Stats Pages: 1 -->
<svg width="693pt" height="802pt"
 viewBox="0.00 0.00 693.00 802.00" xmlns="http://www.w3.org/2000/svg" xmlns:xlink="http://www.w3.org/1999/xlink">
<g id="graph0" class="graph" transform="scale(1 1) rotate(0) translate(4 798)">
<title>TAudioContext_JackD_Stats</title>
<polygon fill="white" stroke="none" points="-4,4 -4,-798 689,-798 689,4 -4,4"/>
<!-- Node1 -->
<g id="node1" class="node"><title>Node1</title>
<polygon fill="#bfbfbf" stroke="black" points="559.5,-261 559.5,-351 684.5,-351 684.5,-261 559.5,-261"/>
<text text-anchor="start" x="567.5" y="-339" font-family="Helvetica,sans-Serif" font-size="10.00">TAudioContext_JackD</text>
<text text-anchor="middle" x="622" y="-328" font-family="Helvetica,sans-Serif" font-size="10.00">_Stats</text>
<polyline fill="none" stroke="black" points="559.5,-321 684.5,-321 "/>
<text text-anchor="middle" x="622" y="-309" font-family="Helvetica,sans-Serif" font-size="10.00"> </text>
<polyline fill="none" stroke="black" points="559.5,-302 684.5,-302 "/>
<text text-anchor="start" x="567.5" y="-290" font-family="Helvetica,sans-Serif" font-size="10.00">+ TAudioContext_JackD</text>
<text text-anchor="start" x="567.5" y="-279" font-family="Helvetica,sans-Serif" font-size="10.00">_Stats()</text>
<text text-anchor="start" x="567.5" y="-268" font-family="Helvetica,sans-Serif" font-size="10.00">+ GetDumpStr()</text>
</g>
<!-- Node3 -->
<g id="node3" class="node"><title>Node3</title>
<g id="a_node3"><a xlink:href="../../dc/da9/classppm__java_1_1backend_1_1module_1_1jackd_1_1_t_audio_context___jack_d.html" target="_top" xlink:title="Audio driver for the JackD server. ">
<polygon fill="white" stroke="black" points="396,-0.5 396,-211.5 524,-211.5 524,-0.5 396,-0.5"/>
<text text-anchor="middle" x="460" y="-199.5" font-family="Helvetica,sans-Serif" font-size="10.00">TAudioContext_JackD</text>
<polyline fill="none" stroke="black" points="396,-192.5 524,-192.5 "/>
<text text-anchor="start" x="404" y="-180.5" font-family="Helvetica,sans-Serif" font-size="10.00">&#45; fIsWorking</text>
<text text-anchor="start" x="404" y="-169.5" font-family="Helvetica,sans-Serif" font-size="10.00">&#45; fSampleRate</text>
<polyline fill="none" stroke="black" points="396,-162.5 524,-162.5 "/>
<text text-anchor="start" x="404" y="-150.5" font-family="Helvetica,sans-Serif" font-size="10.00">+ CreatePort_Out()</text>
<text text-anchor="start" x="404" y="-139.5" font-family="Helvetica,sans-Serif" font-size="10.00">+ GetSampleRate()</text>
<text text-anchor="start" x="404" y="-128.5" font-family="Helvetica,sans-Serif" font-size="10.00">+ IsWorking()</text>
<text text-anchor="start" x="404" y="-117.5" font-family="Helvetica,sans-Serif" font-size="10.00">+ process()</text>
<text text-anchor="start" x="404" y="-106.5" font-family="Helvetica,sans-Serif" font-size="10.00">+ Start()</text>
<text text-anchor="start" x="404" y="-95.5" font-family="Helvetica,sans-Serif" font-size="10.00">+ StatsGet()</text>
<text text-anchor="start" x="404" y="-84.5" font-family="Helvetica,sans-Serif" font-size="10.00">+ Stop()</text>
<text text-anchor="start" x="404" y="-73.5" font-family="Helvetica,sans-Serif" font-size="10.00">+ CreateInstance()</text>
<text text-anchor="start" x="404" y="-62.5" font-family="Helvetica,sans-Serif" font-size="10.00"># _Register()</text>
<text text-anchor="start" x="404" y="-51.5" font-family="Helvetica,sans-Serif" font-size="10.00">&#45; TAudioContext_JackD()</text>
<text text-anchor="start" x="404" y="-40.5" font-family="Helvetica,sans-Serif" font-size="10.00">&#45; _LoadDriver()</text>
<text text-anchor="start" x="404" y="-29.5" font-family="Helvetica,sans-Serif" font-size="10.00">&#45; _ProcessInputs()</text>
<text text-anchor="start" x="404" y="-18.5" font-family="Helvetica,sans-Serif" font-size="10.00">&#45; _ProcessOutputs()</text>
<text text-anchor="start" x="404" y="-7.5" font-family="Helvetica,sans-Serif" font-size="10.00">&#45; _StopDriver()</text>
</a>
</g>
</g>
<!-- Node1&#45;&gt;Node3 -->
<g id="edge13" class="edge"><title>Node1&#45;&gt;Node3</title>
<path fill="none" stroke="#404040" d="M570.148,-260.939C563.803,-254.803 557.594,-248.403 552,-242 545.085,-234.086 538.245,-225.634 531.602,-216.966"/>
<polygon fill="none" stroke="#404040" points="531.401,-216.699 524.599,-214.305 524.192,-207.106 530.995,-209.499 531.401,-216.699"/>
<text text-anchor="middle" x="568.5" y="-233.5" font-family="Helvetica,sans-Serif" font-size="10.00"> &#45;fStats</text>
</g>
<!-- Node2 -->
<g id="node2" class="node"><title>Node2</title>
<g id="a_node2"><a xlink:href="../../d7/d5a/interfaceppm__java_1_1typelib_1_1_i_stats.html" target="_top" xlink:title="Interface for a statistics record. ">
<polygon fill="white" stroke="black" points="579,-445.5 579,-502.5 665,-502.5 665,-445.5 579,-445.5"/>
<text text-anchor="middle" x="622" y="-490.5" font-family="Helvetica,sans-Serif" font-size="10.00">IStats</text>
<polyline fill="none" stroke="black" points="579,-483.5 665,-483.5 "/>
<text text-anchor="middle" x="622" y="-471.5" font-family="Helvetica,sans-Serif" font-size="10.00"> </text>
<polyline fill="none" stroke="black" points="579,-464.5 665,-464.5 "/>
<text text-anchor="start" x="587" y="-452.5" font-family="Helvetica,sans-Serif" font-size="10.00">+ GetDumpStr()</text>
</a>
</g>
</g>
<!-- Node2&#45;&gt;Node1 -->
<g id="edge1" class="edge"><title>Node2&#45;&gt;Node1</title>
<path fill="none" stroke="midnightblue" d="M622,-435.032C622,-410.056 622,-377.28 622,-351.143"/>
<polygon fill="none" stroke="midnightblue" points="618.5,-435.215 622,-445.215 625.5,-435.215 618.5,-435.215"/>
</g>
<!-- Node3&#45;&gt;Node1 -->
<g id="edge2" class="edge"><title>Node3&#45;&gt;Node1</title>
<path fill="none" stroke="#404040" d="M524.2,-158.931C546.709,-179.388 570.87,-204.163 589,-230 593.343,-236.19 597.306,-243.043 600.858,-250.017"/>
<polygon fill="none" stroke="#404040" points="600.93,-250.167 607.124,-253.859 606.099,-260.997 599.905,-257.305 600.93,-250.167"/>
<text text-anchor="middle" x="612.5" y="-233.5" font-family="Helvetica,sans-Serif" font-size="10.00"> &#45;fHost</text>
</g>
<!-- Node3&#45;&gt;Node3 -->
<g id="edge12" class="edge"><title>Node3&#45;&gt;Node3</title>
<path fill="none" stroke="#404040" d="M524.288,-128.553C534.785,-125.324 542,-117.807 542,-106 542,-98.8053 539.321,-93.2034 534.853,-89.1941"/>
<polygon fill="none" stroke="#404040" points="534.829,-89.1815 527.647,-89.8283 524.288,-83.4475 531.47,-82.8007 534.829,-89.1815"/>
<text text-anchor="middle" x="565" y="-103.5" font-family="Helvetica,sans-Serif" font-size="10.00"> &#45;gContext</text>
</g>
<!-- Node4 -->
<g id="node4" class="node"><title>Node4</title>
<g id="a_node4"><a xlink:href="../../dc/d95/classppm__java_1_1typelib_1_1_v_audio_driver.html" target="_top" xlink:title="Base class for all audio drivers. ">
<polygon fill="white" stroke="black" points="139,-272 139,-340 231,-340 231,-272 139,-272"/>
<text text-anchor="middle" x="185" y="-328" font-family="Helvetica,sans-Serif" font-size="10.00">VAudioDriver</text>
<polyline fill="none" stroke="black" points="139,-321 231,-321 "/>
<text text-anchor="middle" x="185" y="-309" font-family="Helvetica,sans-Serif" font-size="10.00"> </text>
<polyline fill="none" stroke="black" points="139,-302 231,-302 "/>
<text text-anchor="start" x="147" y="-290" font-family="Helvetica,sans-Serif" font-size="10.00">+ VAudioDriver()</text>
<text text-anchor="start" x="147" y="-279" font-family="Helvetica,sans-Serif" font-size="10.00">+ CreatePort_In()</text>
</a>
</g>
</g>
<!-- Node4&#45;&gt;Node3 -->
<g id="edge3" class="edge"><title>Node4&#45;&gt;Node3</title>
<path fill="none" stroke="midnightblue" d="M232.846,-265.486C235.252,-263.615 237.646,-261.777 240,-260 291.238,-221.315 351.164,-179.877 395.523,-149.896"/>
<polygon fill="none" stroke="midnightblue" points="230.347,-263 224.661,-271.94 234.681,-268.497 230.347,-263"/>
</g>
<!-- Node5 -->
<g id="node5" class="node"><title>Node5</title>
<g id="a_node5"><a xlink:href="../../d5/d6a/classppm__java_1_1typelib_1_1_v_audio_processor.html" target="_top" xlink:title="Base class for all modules processing audio samples. ">
<polygon fill="white" stroke="black" points="131.5,-390.5 131.5,-557.5 238.5,-557.5 238.5,-390.5 131.5,-390.5"/>
<text text-anchor="middle" x="185" y="-545.5" font-family="Helvetica,sans-Serif" font-size="10.00">VAudioProcessor</text>
<polyline fill="none" stroke="black" points="131.5,-538.5 238.5,-538.5 "/>
<text text-anchor="middle" x="185" y="-526.5" font-family="Helvetica,sans-Serif" font-size="10.00"> </text>
<polyline fill="none" stroke="black" points="131.5,-519.5 238.5,-519.5 "/>
<text text-anchor="start" x="139.5" y="-507.5" font-family="Helvetica,sans-Serif" font-size="10.00">+ VAudioProcessor()</text>
<text text-anchor="start" x="139.5" y="-496.5" font-family="Helvetica,sans-Serif" font-size="10.00">+ CreatePort_In()</text>
<text text-anchor="start" x="139.5" y="-485.5" font-family="Helvetica,sans-Serif" font-size="10.00">+ CreatePort_Out()</text>
<text text-anchor="start" x="139.5" y="-474.5" font-family="Helvetica,sans-Serif" font-size="10.00">+ GetNumPortsIn()</text>
<text text-anchor="start" x="139.5" y="-463.5" font-family="Helvetica,sans-Serif" font-size="10.00">+ GetNumPortsOut()</text>
<text text-anchor="start" x="139.5" y="-452.5" font-family="Helvetica,sans-Serif" font-size="10.00">+ GetPortIn()</text>
<text text-anchor="start" x="139.5" y="-441.5" font-family="Helvetica,sans-Serif" font-size="10.00">+ GetPortIn()</text>
<text text-anchor="start" x="139.5" y="-430.5" font-family="Helvetica,sans-Serif" font-size="10.00">+ GetPortOut()</text>
<text text-anchor="start" x="139.5" y="-419.5" font-family="Helvetica,sans-Serif" font-size="10.00">+ GetPortOut()</text>
<text text-anchor="start" x="139.5" y="-408.5" font-family="Helvetica,sans-Serif" font-size="10.00"># AddPortIn()</text>
<text text-anchor="start" x="139.5" y="-397.5" font-family="Helvetica,sans-Serif" font-size="10.00"># AddPortOut()</text>
</a>
</g>
</g>
<!-- Node5&#45;&gt;Node4 -->
<g id="edge4" class="edge"><title>Node5&#45;&gt;Node4</title>
<path fill="none" stroke="midnightblue" d="M185,-380.436C185,-365.977 185,-351.91 185,-340.023"/>
<polygon fill="none" stroke="midnightblue" points="181.5,-380.486 185,-390.486 188.5,-380.486 181.5,-380.486"/>
</g>
<!-- Node6 -->
<g id="node6" class="node"><title>Node6</title>
<g id="a_node6"><a xlink:href="../../d1/db3/classppm__java_1_1typelib_1_1_v_audio_object.html" target="_top" xlink:title="Base class for all browseable audio objects. ">
<polygon fill="white" stroke="black" points="0,-612.5 0,-669.5 92,-669.5 92,-612.5 0,-612.5"/>
<text text-anchor="middle" x="46" y="-657.5" font-family="Helvetica,sans-Serif" font-size="10.00">VAudioObject</text>
<polyline fill="none" stroke="black" points="0,-650.5 92,-650.5 "/>
<text text-anchor="middle" x="46" y="-638.5" font-family="Helvetica,sans-Serif" font-size="10.00"> </text>
<polyline fill="none" stroke="black" points="0,-631.5 92,-631.5 "/>
<text text-anchor="start" x="8" y="-619.5" font-family="Helvetica,sans-Serif" font-size="10.00">+ VAudioObject()</text>
</a>
</g>
</g>
<!-- Node6&#45;&gt;Node5 -->
<g id="edge5" class="edge"><title>Node6&#45;&gt;Node5</title>
<path fill="none" stroke="midnightblue" d="M75.9091,-604.496C92.0628,-585.321 112.498,-561.064 131.303,-538.741"/>
<polygon fill="none" stroke="midnightblue" points="73.0315,-602.48 69.2655,-612.383 78.3851,-606.99 73.0315,-602.48"/>
</g>
<!-- Node7 -->
<g id="node7" class="node"><title>Node7</title>
<g id="a_node7"><a xlink:href="../../de/dd1/classppm__java_1_1typelib_1_1_v_browseable.html" target="_top" xlink:title="Base class for all browseable objects. ">
<polygon fill="white" stroke="black" points="1.5,-714.5 1.5,-793.5 90.5,-793.5 90.5,-714.5 1.5,-714.5"/>
<text text-anchor="middle" x="46" y="-781.5" font-family="Helvetica,sans-Serif" font-size="10.00">VBrowseable</text>
<polyline fill="none" stroke="black" points="1.5,-774.5 90.5,-774.5 "/>
<text text-anchor="start" x="9.5" y="-762.5" font-family="Helvetica,sans-Serif" font-size="10.00">&#45; fID</text>
<polyline fill="none" stroke="black" points="1.5,-755.5 90.5,-755.5 "/>
<text text-anchor="start" x="9.5" y="-743.5" font-family="Helvetica,sans-Serif" font-size="10.00">+ VBrowseable()</text>
<text text-anchor="start" x="9.5" y="-732.5" font-family="Helvetica,sans-Serif" font-size="10.00">+ GetID()</text>
<text text-anchor="start" x="9.5" y="-721.5" font-family="Helvetica,sans-Serif" font-size="10.00"># _Register()</text>
</a>
</g>
</g>
<!-- Node7&#45;&gt;Node6 -->
<g id="edge6" class="edge"><title>Node7&#45;&gt;Node6</title>
<path fill="none" stroke="midnightblue" d="M46,-704.227C46,-692.364 46,-680.085 46,-669.601"/>
<polygon fill="none" stroke="midnightblue" points="42.5001,-704.489 46,-714.489 49.5001,-704.489 42.5001,-704.489"/>
</g>
<!-- Node8 -->
<g id="node8" class="node"><title>Node8</title>
<polygon fill="white" stroke="#bfbfbf" points="110,-607 110,-675 260,-675 260,-607 110,-607"/>
<text text-anchor="start" x="118" y="-663" font-family="Helvetica,sans-Serif" font-size="10.00">TArrayMap&lt; ppm_java.typelib.</text>
<text text-anchor="middle" x="185" y="-652" font-family="Helvetica,sans-Serif" font-size="10.00">VAudioPort_Output &gt;</text>
<polyline fill="none" stroke="#bfbfbf" points="110,-645 260,-645 "/>
<text text-anchor="middle" x="185" y="-633" font-family="Helvetica,sans-Serif" font-size="10.00"> </text>
<polyline fill="none" stroke="#bfbfbf" points="110,-626 260,-626 "/>
<text text-anchor="middle" x="185" y="-614" font-family="Helvetica,sans-Serif" font-size="10.00"> </text>
</g>
<!-- Node8&#45;&gt;Node5 -->
<g id="edge7" class="edge"><title>Node8&#45;&gt;Node5</title>
<path fill="none" stroke="#404040" d="M185,-606.61C185,-595.723 185,-583.043 185,-569.934"/>
<polygon fill="none" stroke="#404040" points="185,-569.813 181,-563.813 185,-557.813 189,-563.813 185,-569.813"/>
<text text-anchor="middle" x="209.5" y="-579.5" font-family="Helvetica,sans-Serif" font-size="10.00"> &#45;fPortsOut</text>
</g>
<!-- Node9 -->
<g id="node9" class="node"><title>Node9</title>
<polygon fill="white" stroke="#bfbfbf" points="278,-607 278,-675 428,-675 428,-607 278,-607"/>
<text text-anchor="start" x="286" y="-663" font-family="Helvetica,sans-Serif" font-size="10.00">TArrayMap&lt; ppm_java.typelib.</text>
<text text-anchor="middle" x="353" y="-652" font-family="Helvetica,sans-Serif" font-size="10.00">VAudioPort_Input &gt;</text>
<polyline fill="none" stroke="#bfbfbf" points="278,-645 428,-645 "/>
<text text-anchor="middle" x="353" y="-633" font-family="Helvetica,sans-Serif" font-size="10.00"> </text>
<polyline fill="none" stroke="#bfbfbf" points="278,-626 428,-626 "/>
<text text-anchor="middle" x="353" y="-614" font-family="Helvetica,sans-Serif" font-size="10.00"> </text>
</g>
<!-- Node9&#45;&gt;Node5 -->
<g id="edge8" class="edge"><title>Node9&#45;&gt;Node5</title>
<path fill="none" stroke="#404040" d="M319.003,-606.61C298.509,-586.482 271.771,-560.221 247.575,-536.457"/>
<polygon fill="none" stroke="#404040" points="247.353,-536.24 240.269,-534.889 238.792,-527.831 245.875,-529.182 247.353,-536.24"/>
<text text-anchor="middle" x="319.5" y="-579.5" font-family="Helvetica,sans-Serif" font-size="10.00"> &#45;fPortsIn</text>
</g>
<!-- Node10 -->
<g id="node10" class="node"><title>Node10</title>
<polygon fill="white" stroke="#bfbfbf" points="249,-277.5 249,-334.5 361,-334.5 361,-277.5 249,-277.5"/>
<text text-anchor="middle" x="305" y="-322.5" font-family="Helvetica,sans-Serif" font-size="10.00">JJackAudioProcessor</text>
<polyline fill="none" stroke="#bfbfbf" points="249,-315.5 361,-315.5 "/>
<text text-anchor="middle" x="305" y="-303.5" font-family="Helvetica,sans-Serif" font-size="10.00"> </text>
<polyline fill="none" stroke="#bfbfbf" points="249,-296.5 361,-296.5 "/>
<text text-anchor="middle" x="305" y="-284.5" font-family="Helvetica,sans-Serif" font-size="10.00"> </text>
</g>
<!-- Node10&#45;&gt;Node3 -->
<g id="edge9" class="edge"><title>Node10&#45;&gt;Node3</title>
<path fill="none" stroke="midnightblue" d="M332.742,-269.561C350.307,-247.124 373.78,-217.139 395.781,-189.035"/>
<polygon fill="none" stroke="midnightblue" points="329.96,-267.437 326.552,-277.469 335.472,-271.752 329.96,-267.437"/>
</g>
<!-- Node11 -->
<g id="node11" class="node"><title>Node11</title>
<g id="a_node11"><a xlink:href="../../db/d44/interfaceppm__java_1_1typelib_1_1_i_controllable.html" target="_top" xlink:title="A module or construct which can receive some low level control commands (start/stop etc...">
<polygon fill="white" stroke="black" points="379.5,-272 379.5,-340 450.5,-340 450.5,-272 379.5,-272"/>
<text text-anchor="middle" x="415" y="-328" font-family="Helvetica,sans-Serif" font-size="10.00">IControllable</text>
<polyline fill="none" stroke="black" points="379.5,-321 450.5,-321 "/>
<text text-anchor="middle" x="415" y="-309" font-family="Helvetica,sans-Serif" font-size="10.00"> </text>
<polyline fill="none" stroke="black" points="379.5,-302 450.5,-302 "/>
<text text-anchor="start" x="387.5" y="-290" font-family="Helvetica,sans-Serif" font-size="10.00">+ Start()</text>
<text text-anchor="start" x="387.5" y="-279" font-family="Helvetica,sans-Serif" font-size="10.00">+ Stop()</text>
</a>
</g>
</g>
<!-- Node11&#45;&gt;Node3 -->
<g id="edge10" class="edge"><title>Node11&#45;&gt;Node3</title>
<path fill="none" stroke="midnightblue" d="M424.79,-261.922C428.195,-246.941 432.178,-229.417 436.216,-211.65"/>
<polygon fill="none" stroke="midnightblue" points="421.335,-261.332 422.532,-271.859 428.161,-262.884 421.335,-261.332"/>
</g>
<!-- Node12 -->
<g id="node12" class="node"><title>Node12</title>
<g id="a_node12"><a xlink:href="../../dc/dc0/interfaceppm__java_1_1typelib_1_1_i_stat_enabled.html" target="_top" xlink:title="Interface for an object that supports runtime statistics. ">
<polygon fill="white" stroke="black" points="468.5,-277.5 468.5,-334.5 541.5,-334.5 541.5,-277.5 468.5,-277.5"/>
<text text-anchor="middle" x="505" y="-322.5" font-family="Helvetica,sans-Serif" font-size="10.00">IStatEnabled</text>
<polyline fill="none" stroke="black" points="468.5,-315.5 541.5,-315.5 "/>
<text text-anchor="middle" x="505" y="-303.5" font-family="Helvetica,sans-Serif" font-size="10.00"> </text>
<polyline fill="none" stroke="black" points="468.5,-296.5 541.5,-296.5 "/>
<text text-anchor="start" x="476.5" y="-284.5" font-family="Helvetica,sans-Serif" font-size="10.00">+ StatsGet()</text>
</a>
</g>
</g>
<!-- Node12&#45;&gt;Node3 -->
<g id="edge11" class="edge"><title>Node12&#45;&gt;Node3</title>
<path fill="none" stroke="midnightblue" d="M496.462,-267.432C492.8,-251.319 488.322,-231.617 483.774,-211.608"/>
<polygon fill="none" stroke="midnightblue" points="493.114,-268.493 498.743,-277.469 499.94,-266.942 493.114,-268.493"/>
</g>
</g>
</svg>
