<?xml version="1.0" encoding="UTF-8" standalone="no"?>
<!DOCTYPE svg PUBLIC "-//W3C//DTD SVG 1.1//EN"
 "http://www.w3.org/Graphics/SVG/1.1/DTD/svg11.dtd">
<!-- Generated by graphviz version 2.36.0 (20140111.2315)
 -->
<!-- Title: TNodePump_Endpoint_Out Pages: 1 -->
<!--zoomable 1124 -->
<svg id="main" version="1.1" xmlns="http://www.w3.org/2000/svg" xmlns:xlink="http://www.w3.org/1999/xlink" xml:space="preserve" onload="init(evt)">
<style type="text/css"><![CDATA[
.edge:hover path { stroke: red; }
.edge:hover polygon { stroke: red; fill: red; }
]]></style>
<script type="text/javascript"><![CDATA[
var edges = document.getElementsByTagName('g');
if (edges && edges.length) {
  for (var i=0;i<edges.length;i++) {
    if (edges[i].id.substr(0,4)=='edge') {
      edges[i].setAttribute('class','edge');
    }
  }
}
]]></script>
        <defs>
                <circle id="rim" cx="0" cy="0" r="7"/>
                <circle id="rim2" cx="0" cy="0" r="3.5"/>
                <g id="zoomPlus">
                        <use xlink:href="#rim" fill="#404040">
                                <set attributeName="fill" to="#808080" begin="zoomplus.mouseover" end="zoomplus.mouseout"/>
                        </use>
                        <path d="M-4,0h8M0,-4v8" fill="none" stroke="white" stroke-width="1.5" pointer-events="none"/>
                </g>
                <g id="zoomMin">
                        <use xlink:href="#rim" fill="#404040">
                                <set attributeName="fill" to="#808080" begin="zoomminus.mouseover" end="zoomminus.mouseout"/>
                        </use>
                        <path d="M-4,0h8" fill="none" stroke="white" stroke-width="1.5" pointer-events="none"/>
                </g>
                <g id="dirArrow">
                        <path fill="none" stroke="white" stroke-width="1.5" d="M0,-3.0v7 M-2.5,-0.5L0,-3.0L2.5,-0.5"/>
                </g>
               <g id="resetDef">
                       <use xlink:href="#rim2" fill="#404040">
                               <set attributeName="fill" to="#808080" begin="reset.mouseover" end="reset.mouseout"/>
                       </use>
               </g>
        </defs>

<script type="text/javascript">
var viewWidth = 460;
var viewHeight = 1124;
var sectionId = 'dynsection-1';
</script>
<script xlink:href="../../svgpan.js"/>
<svg id="graph" class="graph">
<g id="viewport">
<title>TNodePump_Endpoint_Out</title>
<polygon fill="white" stroke="none" points="-4,4 -4,-1120 456,-1120 456,4 -4,4"/>
<!-- Node1 -->
<g id="node1" class="node"><title>Node1</title>
<polygon fill="#bfbfbf" stroke="black" points="268.5,-1 268.5,-69 419.5,-69 419.5,-1 268.5,-1"/>
<text text-anchor="middle" x="344" y="-57" font-family="Helvetica,sans-Serif" font-size="10.00">TNodePump_Endpoint_Out</text>
<polyline fill="none" stroke="black" points="268.5,-50 419.5,-50 "/>
<text text-anchor="middle" x="344" y="-38" font-family="Helvetica,sans-Serif" font-size="10.00"> </text>
<polyline fill="none" stroke="black" points="268.5,-31 419.5,-31 "/>
<text text-anchor="start" x="276.5" y="-19" font-family="Helvetica,sans-Serif" font-size="10.00">+ TNodePump_Endpoint_Out()</text>
<text text-anchor="start" x="276.5" y="-8" font-family="Helvetica,sans-Serif" font-size="10.00"># _Register()</text>
</g>
<!-- Node2 -->
<g id="node2" class="node"><title>Node2</title>
<g id="a_node2"><a xlink:href="../../d8/db2/classppm__java_1_1typelib_1_1_v_audio_port___output___chunks___no_buffer.html" target="_top" xlink:title="Base class for an output that connects to an unbuffered input. ">
<polygon fill="white" stroke="black" points="270,-109 270,-243 418,-243 418,-109 270,-109"/>
<text text-anchor="start" x="278" y="-231" font-family="Helvetica,sans-Serif" font-size="10.00">VAudioPort_Output_Chunks</text>
<text text-anchor="middle" x="344" y="-220" font-family="Helvetica,sans-Serif" font-size="10.00">_NoBuffer</text>
<polyline fill="none" stroke="black" points="270,-213 418,-213 "/>
<text text-anchor="middle" x="344" y="-201" font-family="Helvetica,sans-Serif" font-size="10.00"> </text>
<polyline fill="none" stroke="black" points="270,-194 418,-194 "/>
<text text-anchor="start" x="278" y="-182" font-family="Helvetica,sans-Serif" font-size="10.00">+ PushPacket()</text>
<text text-anchor="start" x="278" y="-171" font-family="Helvetica,sans-Serif" font-size="10.00"># VAudioPort_Output_Chunks</text>
<text text-anchor="start" x="278" y="-160" font-family="Helvetica,sans-Serif" font-size="10.00">_NoBuffer()</text>
<text text-anchor="start" x="278" y="-149" font-family="Helvetica,sans-Serif" font-size="10.00"># _GetType()</text>
<text text-anchor="start" x="278" y="-138" font-family="Helvetica,sans-Serif" font-size="10.00"># _Visit()</text>
<text text-anchor="start" x="278" y="-127" font-family="Helvetica,sans-Serif" font-size="10.00"># _Visit()</text>
<text text-anchor="start" x="278" y="-116" font-family="Helvetica,sans-Serif" font-size="10.00"># _Visit()</text>
</a>
</g>
</g>
<!-- Node2&#45;&gt;Node1 -->
<g id="edge1" class="edge"><title>Node2&#45;&gt;Node1</title>
<path fill="none" stroke="midnightblue" d="M344,-98.4796C344,-88.2376 344,-78.201 344,-69.2719"/>
<polygon fill="none" stroke="midnightblue" points="340.5,-98.7567 344,-108.757 347.5,-98.7568 340.5,-98.7567"/>
</g>
<!-- Node3 -->
<g id="node3" class="node"><title>Node3</title>
<g id="a_node3"><a xlink:href="../../df/d02/classppm__java_1_1typelib_1_1_v_audio_port___output.html" target="_top" xlink:title="Base class for an output audio port. ">
<polygon fill="white" stroke="black" points="286,-283 286,-417 402,-417 402,-283 286,-283"/>
<text text-anchor="middle" x="344" y="-405" font-family="Helvetica,sans-Serif" font-size="10.00">VAudioPort_Output</text>
<polyline fill="none" stroke="black" points="286,-398 402,-398 "/>
<text text-anchor="middle" x="344" y="-386" font-family="Helvetica,sans-Serif" font-size="10.00"> </text>
<polyline fill="none" stroke="black" points="286,-379 402,-379 "/>
<text text-anchor="start" x="294" y="-367" font-family="Helvetica,sans-Serif" font-size="10.00">+ VAudioPort_Output()</text>
<text text-anchor="start" x="294" y="-356" font-family="Helvetica,sans-Serif" font-size="10.00">+ SetTarget()</text>
<text text-anchor="start" x="294" y="-345" font-family="Helvetica,sans-Serif" font-size="10.00"># _GetTarget()</text>
<text text-anchor="start" x="294" y="-334" font-family="Helvetica,sans-Serif" font-size="10.00"># _SetTarget()</text>
<text text-anchor="start" x="294" y="-323" font-family="Helvetica,sans-Serif" font-size="10.00"># _SetTarget_Log()</text>
<text text-anchor="start" x="294" y="-312" font-family="Helvetica,sans-Serif" font-size="10.00"># _Visit()</text>
<text text-anchor="start" x="294" y="-301" font-family="Helvetica,sans-Serif" font-size="10.00"># _Visit()</text>
<text text-anchor="start" x="294" y="-290" font-family="Helvetica,sans-Serif" font-size="10.00"># _Visit()</text>
</a>
</g>
</g>
<!-- Node3&#45;&gt;Node2 -->
<g id="edge2" class="edge"><title>Node3&#45;&gt;Node2</title>
<path fill="none" stroke="midnightblue" d="M344,-272.773C344,-262.884 344,-252.821 344,-243.115"/>
<polygon fill="none" stroke="midnightblue" points="340.5,-272.992 344,-282.992 347.5,-272.992 340.5,-272.992"/>
</g>
<!-- Node4 -->
<g id="node4" class="node"><title>Node4</title>
<g id="a_node4"><a xlink:href="../../de/dc9/classppm__java_1_1typelib_1_1_v_audio_port.html" target="_top" xlink:title="Base class for all audio ports. ">
<polygon fill="white" stroke="black" points="287.5,-584.5 287.5,-663.5 368.5,-663.5 368.5,-584.5 287.5,-584.5"/>
<text text-anchor="middle" x="328" y="-651.5" font-family="Helvetica,sans-Serif" font-size="10.00">VAudioPort</text>
<polyline fill="none" stroke="black" points="287.5,-644.5 368.5,-644.5 "/>
<text text-anchor="middle" x="328" y="-632.5" font-family="Helvetica,sans-Serif" font-size="10.00"> </text>
<polyline fill="none" stroke="black" points="287.5,-625.5 368.5,-625.5 "/>
<text text-anchor="start" x="295.5" y="-613.5" font-family="Helvetica,sans-Serif" font-size="10.00">+ VAudioPort()</text>
<text text-anchor="start" x="295.5" y="-602.5" font-family="Helvetica,sans-Serif" font-size="10.00"># _GetHost()</text>
<text text-anchor="start" x="295.5" y="-591.5" font-family="Helvetica,sans-Serif" font-size="10.00"># _GetType()</text>
</a>
</g>
</g>
<!-- Node4&#45;&gt;Node3 -->
<g id="edge3" class="edge"><title>Node4&#45;&gt;Node3</title>
<path fill="none" stroke="midnightblue" d="M329.756,-574.159C330.974,-543.162 332.776,-502.211 335,-466 335.97,-450.209 337.198,-433.212 338.433,-417.258"/>
<polygon fill="none" stroke="midnightblue" points="326.254,-574.141 329.365,-584.269 333.249,-574.411 326.254,-574.141"/>
</g>
<!-- Node10 -->
<g id="node10" class="node"><title>Node10</title>
<g id="a_node10"><a xlink:href="../../d9/d0e/classppm__java_1_1typelib_1_1_v_audio_port___input.html" target="_top" xlink:title="Base class for an input audio port. ">
<polygon fill="white" stroke="black" points="344,-466.5 344,-545.5 452,-545.5 452,-466.5 344,-466.5"/>
<text text-anchor="middle" x="398" y="-533.5" font-family="Helvetica,sans-Serif" font-size="10.00">VAudioPort_Input</text>
<polyline fill="none" stroke="black" points="344,-526.5 452,-526.5 "/>
<text text-anchor="start" x="352" y="-514.5" font-family="Helvetica,sans-Serif" font-size="10.00">&#45; fIPort</text>
<polyline fill="none" stroke="black" points="344,-507.5 452,-507.5 "/>
<text text-anchor="start" x="352" y="-495.5" font-family="Helvetica,sans-Serif" font-size="10.00">+ VAudioPort_Input()</text>
<text text-anchor="start" x="352" y="-484.5" font-family="Helvetica,sans-Serif" font-size="10.00">+ GetPortNum()</text>
<text text-anchor="start" x="352" y="-473.5" font-family="Helvetica,sans-Serif" font-size="10.00"># _Accept()</text>
</a>
</g>
</g>
<!-- Node4&#45;&gt;Node10 -->
<g id="edge11" class="edge"><title>Node4&#45;&gt;Node10</title>
<path fill="none" stroke="midnightblue" d="M356.496,-575.778C362.498,-565.832 368.764,-555.449 374.554,-545.853"/>
<polygon fill="none" stroke="midnightblue" points="353.479,-574.003 351.309,-584.374 359.472,-577.62 353.479,-574.003"/>
</g>
<!-- Node5 -->
<g id="node5" class="node"><title>Node5</title>
<g id="a_node5"><a xlink:href="../../d1/db3/classppm__java_1_1typelib_1_1_v_audio_object.html" target="_top" xlink:title="Base class for all browseable audio objects. ">
<polygon fill="white" stroke="black" points="336,-934.5 336,-991.5 428,-991.5 428,-934.5 336,-934.5"/>
<text text-anchor="middle" x="382" y="-979.5" font-family="Helvetica,sans-Serif" font-size="10.00">VAudioObject</text>
<polyline fill="none" stroke="black" points="336,-972.5 428,-972.5 "/>
<text text-anchor="middle" x="382" y="-960.5" font-family="Helvetica,sans-Serif" font-size="10.00"> </text>
<polyline fill="none" stroke="black" points="336,-953.5 428,-953.5 "/>
<text text-anchor="start" x="344" y="-941.5" font-family="Helvetica,sans-Serif" font-size="10.00">+ VAudioObject()</text>
</a>
</g>
</g>
<!-- Node5&#45;&gt;Node4 -->
<g id="edge4" class="edge"><title>Node5&#45;&gt;Node4</title>
<path fill="none" stroke="midnightblue" d="M376.253,-924.036C368.049,-870.163 352.377,-768.464 338,-682 337.011,-676.053 335.937,-669.763 334.871,-663.617"/>
<polygon fill="none" stroke="midnightblue" points="372.828,-924.794 377.792,-934.154 379.749,-923.742 372.828,-924.794"/>
</g>
<!-- Node7 -->
<g id="node7" class="node"><title>Node7</title>
<g id="a_node7"><a xlink:href="../../d5/d6a/classppm__java_1_1typelib_1_1_v_audio_processor.html" target="_top" xlink:title="Base class for all modules processing audio samples. ">
<polygon fill="white" stroke="black" points="203.5,-712.5 203.5,-879.5 310.5,-879.5 310.5,-712.5 203.5,-712.5"/>
<text text-anchor="middle" x="257" y="-867.5" font-family="Helvetica,sans-Serif" font-size="10.00">VAudioProcessor</text>
<polyline fill="none" stroke="black" points="203.5,-860.5 310.5,-860.5 "/>
<text text-anchor="middle" x="257" y="-848.5" font-family="Helvetica,sans-Serif" font-size="10.00"> </text>
<polyline fill="none" stroke="black" points="203.5,-841.5 310.5,-841.5 "/>
<text text-anchor="start" x="211.5" y="-829.5" font-family="Helvetica,sans-Serif" font-size="10.00">+ VAudioProcessor()</text>
<text text-anchor="start" x="211.5" y="-818.5" font-family="Helvetica,sans-Serif" font-size="10.00">+ CreatePort_In()</text>
<text text-anchor="start" x="211.5" y="-807.5" font-family="Helvetica,sans-Serif" font-size="10.00">+ CreatePort_Out()</text>
<text text-anchor="start" x="211.5" y="-796.5" font-family="Helvetica,sans-Serif" font-size="10.00">+ GetNumPortsIn()</text>
<text text-anchor="start" x="211.5" y="-785.5" font-family="Helvetica,sans-Serif" font-size="10.00">+ GetNumPortsOut()</text>
<text text-anchor="start" x="211.5" y="-774.5" font-family="Helvetica,sans-Serif" font-size="10.00">+ GetPortIn()</text>
<text text-anchor="start" x="211.5" y="-763.5" font-family="Helvetica,sans-Serif" font-size="10.00">+ GetPortIn()</text>
<text text-anchor="start" x="211.5" y="-752.5" font-family="Helvetica,sans-Serif" font-size="10.00">+ GetPortOut()</text>
<text text-anchor="start" x="211.5" y="-741.5" font-family="Helvetica,sans-Serif" font-size="10.00">+ GetPortOut()</text>
<text text-anchor="start" x="211.5" y="-730.5" font-family="Helvetica,sans-Serif" font-size="10.00"># AddPortIn()</text>
<text text-anchor="start" x="211.5" y="-719.5" font-family="Helvetica,sans-Serif" font-size="10.00"># AddPortOut()</text>
</a>
</g>
</g>
<!-- Node5&#45;&gt;Node7 -->
<g id="edge7" class="edge"><title>Node5&#45;&gt;Node7</title>
<path fill="none" stroke="midnightblue" d="M354.965,-926.313C341.978,-909.172 325.939,-888 310.625,-867.786"/>
<polygon fill="none" stroke="midnightblue" points="352.249,-928.525 361.078,-934.383 357.829,-924.298 352.249,-928.525"/>
</g>
<!-- Node6 -->
<g id="node6" class="node"><title>Node6</title>
<g id="a_node6"><a xlink:href="../../de/dd1/classppm__java_1_1typelib_1_1_v_browseable.html" target="_top" xlink:title="Base class for all browseable objects. ">
<polygon fill="white" stroke="black" points="337.5,-1036.5 337.5,-1115.5 426.5,-1115.5 426.5,-1036.5 337.5,-1036.5"/>
<text text-anchor="middle" x="382" y="-1103.5" font-family="Helvetica,sans-Serif" font-size="10.00">VBrowseable</text>
<polyline fill="none" stroke="black" points="337.5,-1096.5 426.5,-1096.5 "/>
<text text-anchor="start" x="345.5" y="-1084.5" font-family="Helvetica,sans-Serif" font-size="10.00">&#45; fID</text>
<polyline fill="none" stroke="black" points="337.5,-1077.5 426.5,-1077.5 "/>
<text text-anchor="start" x="345.5" y="-1065.5" font-family="Helvetica,sans-Serif" font-size="10.00">+ VBrowseable()</text>
<text text-anchor="start" x="345.5" y="-1054.5" font-family="Helvetica,sans-Serif" font-size="10.00">+ GetID()</text>
<text text-anchor="start" x="345.5" y="-1043.5" font-family="Helvetica,sans-Serif" font-size="10.00"># _Register()</text>
</a>
</g>
</g>
<!-- Node6&#45;&gt;Node5 -->
<g id="edge5" class="edge"><title>Node6&#45;&gt;Node5</title>
<path fill="none" stroke="midnightblue" d="M382,-1026.23C382,-1014.36 382,-1002.08 382,-991.601"/>
<polygon fill="none" stroke="midnightblue" points="378.5,-1026.49 382,-1036.49 385.5,-1026.49 378.5,-1026.49"/>
</g>
<!-- Node7&#45;&gt;Node4 -->
<g id="edge6" class="edge"><title>Node7&#45;&gt;Node4</title>
<path fill="none" stroke="#404040" d="M291.46,-712.49C296.813,-699.674 302.197,-686.782 307.126,-674.981"/>
<polygon fill="none" stroke="#404040" points="307.259,-674.66 305.881,-667.582 311.884,-663.587 313.263,-670.665 307.259,-674.66"/>
<text text-anchor="middle" x="318.5" y="-685.5" font-family="Helvetica,sans-Serif" font-size="10.00"> &#45;fHost</text>
</g>
<!-- Node8 -->
<g id="node8" class="node"><title>Node8</title>
<polygon fill="white" stroke="#bfbfbf" points="0,-929 0,-997 150,-997 150,-929 0,-929"/>
<text text-anchor="start" x="8" y="-985" font-family="Helvetica,sans-Serif" font-size="10.00">TArrayMap&lt; ppm_java.typelib.</text>
<text text-anchor="middle" x="75" y="-974" font-family="Helvetica,sans-Serif" font-size="10.00">VAudioPort_Output &gt;</text>
<polyline fill="none" stroke="#bfbfbf" points="0,-967 150,-967 "/>
<text text-anchor="middle" x="75" y="-955" font-family="Helvetica,sans-Serif" font-size="10.00"> </text>
<polyline fill="none" stroke="#bfbfbf" points="0,-948 150,-948 "/>
<text text-anchor="middle" x="75" y="-936" font-family="Helvetica,sans-Serif" font-size="10.00"> </text>
</g>
<!-- Node8&#45;&gt;Node7 -->
<g id="edge8" class="edge"><title>Node8&#45;&gt;Node7</title>
<path fill="none" stroke="#404040" d="M111.83,-928.61C135.44,-907.205 166.699,-878.866 194.162,-853.969"/>
<polygon fill="none" stroke="#404040" points="194.423,-853.732 196.181,-846.739 203.313,-845.672 201.555,-852.666 194.423,-853.732"/>
<text text-anchor="middle" x="169.5" y="-901.5" font-family="Helvetica,sans-Serif" font-size="10.00"> &#45;fPortsOut</text>
</g>
<!-- Node9 -->
<g id="node9" class="node"><title>Node9</title>
<polygon fill="white" stroke="#bfbfbf" points="168,-929 168,-997 318,-997 318,-929 168,-929"/>
<text text-anchor="start" x="176" y="-985" font-family="Helvetica,sans-Serif" font-size="10.00">TArrayMap&lt; ppm_java.typelib.</text>
<text text-anchor="middle" x="243" y="-974" font-family="Helvetica,sans-Serif" font-size="10.00">VAudioPort_Input &gt;</text>
<polyline fill="none" stroke="#bfbfbf" points="168,-967 318,-967 "/>
<text text-anchor="middle" x="243" y="-955" font-family="Helvetica,sans-Serif" font-size="10.00"> </text>
<polyline fill="none" stroke="#bfbfbf" points="168,-948 318,-948 "/>
<text text-anchor="middle" x="243" y="-936" font-family="Helvetica,sans-Serif" font-size="10.00"> </text>
</g>
<!-- Node9&#45;&gt;Node7 -->
<g id="edge9" class="edge"><title>Node9&#45;&gt;Node7</title>
<path fill="none" stroke="#404040" d="M245.833,-928.61C246.757,-917.723 247.833,-905.043 248.945,-891.934"/>
<polygon fill="none" stroke="#404040" points="248.959,-891.77 245.48,-885.454 249.973,-879.813 253.452,-886.13 248.959,-891.77"/>
<text text-anchor="middle" x="268.5" y="-901.5" font-family="Helvetica,sans-Serif" font-size="10.00"> &#45;fPortsIn</text>
</g>
<!-- Node10&#45;&gt;Node3 -->
<g id="edge10" class="edge"><title>Node10&#45;&gt;Node3</title>
<path fill="none" stroke="#404040" d="M384.374,-466.139C380.338,-454.63 375.769,-441.6 371.193,-428.549"/>
<polygon fill="none" stroke="#404040" points="371.153,-428.437 365.393,-424.098 367.182,-417.113 372.942,-421.451 371.153,-428.437"/>
<text text-anchor="middle" x="395.5" y="-439.5" font-family="Helvetica,sans-Serif" font-size="10.00"> &#45;fTarget</text>
</g>
</g>
</svg>
        <g id="navigator" transform="translate(0 0)" fill="#404254">
                <rect fill="#f2f5e9" fill-opacity="0.5" stroke="#606060" stroke-width=".5" x="0" y="0" width="60" height="60"/>
                <use id="zoomplus" xlink:href="#zoomPlus" x="17" y="9" onmousedown="handleZoom(evt,'in')"/>
                <use id="zoomminus" xlink:href="#zoomMin" x="42" y="9" onmousedown="handleZoom(evt,'out')"/>
                <use id="reset" xlink:href="#resetDef" x="30" y="36" onmousedown="handleReset()"/>
                <g id="arrowUp" xlink:href="#dirArrow" transform="translate(30 24)" onmousedown="handlePan(0,-1)">
                  <use xlink:href="#rim" fill="#404040">
                        <set attributeName="fill" to="#808080" begin="arrowUp.mouseover" end="arrowUp.mouseout"/>
                  </use>
                  <path fill="none" stroke="white" stroke-width="1.5" d="M0,-3.0v7 M-2.5,-0.5L0,-3.0L2.5,-0.5"/>
                </g>
                <g id="arrowRight" xlink:href="#dirArrow" transform="rotate(90) translate(36 -43)" onmousedown="handlePan(1,0)">
                  <use xlink:href="#rim" fill="#404040">
                        <set attributeName="fill" to="#808080" begin="arrowRight.mouseover" end="arrowRight.mouseout"/>
                  </use>
                  <path fill="none" stroke="white" stroke-width="1.5" d="M0,-3.0v7 M-2.5,-0.5L0,-3.0L2.5,-0.5"/>
                </g>
                <g id="arrowDown" xlink:href="#dirArrow" transform="rotate(180) translate(-30 -48)" onmousedown="handlePan(0,1)">
                  <use xlink:href="#rim" fill="#404040">
                        <set attributeName="fill" to="#808080" begin="arrowDown.mouseover" end="arrowDown.mouseout"/>
                  </use>
                  <path fill="none" stroke="white" stroke-width="1.5" d="M0,-3.0v7 M-2.5,-0.5L0,-3.0L2.5,-0.5"/>
                </g>
                <g id="arrowLeft" xlink:href="#dirArrow" transform="rotate(270) translate(-36 17)" onmousedown="handlePan(-1,0)">
                  <use xlink:href="#rim" fill="#404040">
                        <set attributeName="fill" to="#808080" begin="arrowLeft.mouseover" end="arrowLeft.mouseout"/>
                  </use>
                  <path fill="none" stroke="white" stroke-width="1.5" d="M0,-3.0v7 M-2.5,-0.5L0,-3.0L2.5,-0.5"/>
                </g>
        </g>
        <svg viewBox="0 0 15 15" width="100%" height="30px" preserveAspectRatio="xMaxYMin meet">
         <g id="arrow_out" transform="scale(0.3 0.3)">
          <a xlink:href="classppm__java_1_1backend_1_1module_1_1pump_1_1_t_node_pump___endpoint___out__coll__graph_org.svg" target="_base">
           <rect id="button" ry="5" rx="5" y="6" x="6" height="38" width="38"
                fill="#f2f5e9" fill-opacity="0.5" stroke="#606060" stroke-width="1.0"/>
           <path id="arrow"
             d="M 11.500037,31.436501 C 11.940474,20.09759 22.043105,11.32322 32.158766,21.979434 L 37.068811,17.246167 C 37.068811,17.246167 37.088388,32 37.088388,32 L 22.160133,31.978069 C 22.160133,31.978069 26.997745,27.140456 26.997745,27.140456 C 18.528582,18.264221 13.291696,25.230495 11.500037,31.436501 z"
             style="fill:#404040;"/>
          </a>
         </g>
        </svg>
</svg>
