<?xml version="1.0" encoding="UTF-8" standalone="no"?>
<!DOCTYPE svg PUBLIC "-//W3C//DTD SVG 1.1//EN"
 "http://www.w3.org/Graphics/SVG/1.1/DTD/svg11.dtd">
<!-- Generated by graphviz version 2.36.0 (20140111.2315)
 -->
<!-- Title: VAudioDriver Pages: 1 -->
<svg width="136pt" height="774pt"
 viewBox="0.00 0.00 136.00 774.00" xmlns="http://www.w3.org/2000/svg" xmlns:xlink="http://www.w3.org/1999/xlink">
<g id="graph0" class="graph" transform="scale(1 1) rotate(0) translate(4 770)">
<title>VAudioDriver</title>
<polygon fill="white" stroke="none" points="-4,4 -4,-770 132,-770 132,4 -4,4"/>
<!-- Node1 -->
<g id="node1" class="node"><title>Node1</title>
<polygon fill="#bfbfbf" stroke="black" points="18,-271 18,-339 110,-339 110,-271 18,-271"/>
<text text-anchor="middle" x="64" y="-327" font-family="Helvetica,sans-Serif" font-size="10.00">VAudioDriver</text>
<polyline fill="none" stroke="black" points="18,-320 110,-320 "/>
<text text-anchor="middle" x="64" y="-308" font-family="Helvetica,sans-Serif" font-size="10.00"> </text>
<polyline fill="none" stroke="black" points="18,-301 110,-301 "/>
<text text-anchor="start" x="26" y="-289" font-family="Helvetica,sans-Serif" font-size="10.00">+ VAudioDriver()</text>
<text text-anchor="start" x="26" y="-278" font-family="Helvetica,sans-Serif" font-size="10.00">+ CreatePort_In()</text>
</g>
<!-- Node5 -->
<g id="node5" class="node"><title>Node5</title>
<g id="a_node5"><a xlink:href="../../dc/da9/classppm__java_1_1backend_1_1module_1_1jackd_1_1_t_audio_context___jack_d.html" target="_top" xlink:title="Audio driver for the JackD server. ">
<polygon fill="white" stroke="black" points="0,-0.5 0,-233.5 128,-233.5 128,-0.5 0,-0.5"/>
<text text-anchor="middle" x="64" y="-221.5" font-family="Helvetica,sans-Serif" font-size="10.00">TAudioContext_JackD</text>
<polyline fill="none" stroke="black" points="0,-214.5 128,-214.5 "/>
<text text-anchor="start" x="8" y="-202.5" font-family="Helvetica,sans-Serif" font-size="10.00">&#45; fIsWorking</text>
<text text-anchor="start" x="8" y="-191.5" font-family="Helvetica,sans-Serif" font-size="10.00">&#45; fSampleRate</text>
<text text-anchor="start" x="8" y="-180.5" font-family="Helvetica,sans-Serif" font-size="10.00">&#45; fStats</text>
<text text-anchor="start" x="8" y="-169.5" font-family="Helvetica,sans-Serif" font-size="10.00">&#45; gContext</text>
<polyline fill="none" stroke="black" points="0,-162.5 128,-162.5 "/>
<text text-anchor="start" x="8" y="-150.5" font-family="Helvetica,sans-Serif" font-size="10.00">+ CreatePort_Out()</text>
<text text-anchor="start" x="8" y="-139.5" font-family="Helvetica,sans-Serif" font-size="10.00">+ GetSampleRate()</text>
<text text-anchor="start" x="8" y="-128.5" font-family="Helvetica,sans-Serif" font-size="10.00">+ IsWorking()</text>
<text text-anchor="start" x="8" y="-117.5" font-family="Helvetica,sans-Serif" font-size="10.00">+ process()</text>
<text text-anchor="start" x="8" y="-106.5" font-family="Helvetica,sans-Serif" font-size="10.00">+ Start()</text>
<text text-anchor="start" x="8" y="-95.5" font-family="Helvetica,sans-Serif" font-size="10.00">+ StatsGet()</text>
<text text-anchor="start" x="8" y="-84.5" font-family="Helvetica,sans-Serif" font-size="10.00">+ Stop()</text>
<text text-anchor="start" x="8" y="-73.5" font-family="Helvetica,sans-Serif" font-size="10.00">+ CreateInstance()</text>
<text text-anchor="start" x="8" y="-62.5" font-family="Helvetica,sans-Serif" font-size="10.00"># _Register()</text>
<text text-anchor="start" x="8" y="-51.5" font-family="Helvetica,sans-Serif" font-size="10.00">&#45; TAudioContext_JackD()</text>
<text text-anchor="start" x="8" y="-40.5" font-family="Helvetica,sans-Serif" font-size="10.00">&#45; _LoadDriver()</text>
<text text-anchor="start" x="8" y="-29.5" font-family="Helvetica,sans-Serif" font-size="10.00">&#45; _ProcessInputs()</text>
<text text-anchor="start" x="8" y="-18.5" font-family="Helvetica,sans-Serif" font-size="10.00">&#45; _ProcessOutputs()</text>
<text text-anchor="start" x="8" y="-7.5" font-family="Helvetica,sans-Serif" font-size="10.00">&#45; _StopDriver()</text>
</a>
</g>
</g>
<!-- Node1&#45;&gt;Node5 -->
<g id="edge4" class="edge"><title>Node1&#45;&gt;Node5</title>
<path fill="none" stroke="midnightblue" d="M64,-260.601C64,-252.247 64,-243.139 64,-233.698"/>
<polygon fill="none" stroke="midnightblue" points="60.5001,-260.747 64,-270.747 67.5001,-260.747 60.5001,-260.747"/>
</g>
<!-- Node2 -->
<g id="node2" class="node"><title>Node2</title>
<g id="a_node2"><a xlink:href="../../d5/d6a/classppm__java_1_1typelib_1_1_v_audio_processor.html" target="_top" xlink:title="Base class for all modules processing audio samples. ">
<polygon fill="white" stroke="black" points="10.5,-377 10.5,-555 117.5,-555 117.5,-377 10.5,-377"/>
<text text-anchor="middle" x="64" y="-543" font-family="Helvetica,sans-Serif" font-size="10.00">VAudioProcessor</text>
<polyline fill="none" stroke="black" points="10.5,-536 117.5,-536 "/>
<text text-anchor="start" x="18.5" y="-524" font-family="Helvetica,sans-Serif" font-size="10.00">&#45; fPortsIn</text>
<text text-anchor="start" x="18.5" y="-513" font-family="Helvetica,sans-Serif" font-size="10.00">&#45; fPortsOut</text>
<polyline fill="none" stroke="black" points="10.5,-506 117.5,-506 "/>
<text text-anchor="start" x="18.5" y="-494" font-family="Helvetica,sans-Serif" font-size="10.00">+ VAudioProcessor()</text>
<text text-anchor="start" x="18.5" y="-483" font-family="Helvetica,sans-Serif" font-size="10.00">+ CreatePort_In()</text>
<text text-anchor="start" x="18.5" y="-472" font-family="Helvetica,sans-Serif" font-size="10.00">+ CreatePort_Out()</text>
<text text-anchor="start" x="18.5" y="-461" font-family="Helvetica,sans-Serif" font-size="10.00">+ GetNumPortsIn()</text>
<text text-anchor="start" x="18.5" y="-450" font-family="Helvetica,sans-Serif" font-size="10.00">+ GetNumPortsOut()</text>
<text text-anchor="start" x="18.5" y="-439" font-family="Helvetica,sans-Serif" font-size="10.00">+ GetPortIn()</text>
<text text-anchor="start" x="18.5" y="-428" font-family="Helvetica,sans-Serif" font-size="10.00">+ GetPortIn()</text>
<text text-anchor="start" x="18.5" y="-417" font-family="Helvetica,sans-Serif" font-size="10.00">+ GetPortOut()</text>
<text text-anchor="start" x="18.5" y="-406" font-family="Helvetica,sans-Serif" font-size="10.00">+ GetPortOut()</text>
<text text-anchor="start" x="18.5" y="-395" font-family="Helvetica,sans-Serif" font-size="10.00"># AddPortIn()</text>
<text text-anchor="start" x="18.5" y="-384" font-family="Helvetica,sans-Serif" font-size="10.00"># AddPortOut()</text>
</a>
</g>
</g>
<!-- Node2&#45;&gt;Node1 -->
<g id="edge1" class="edge"><title>Node2&#45;&gt;Node1</title>
<path fill="none" stroke="midnightblue" d="M64,-366.475C64,-356.81 64,-347.544 64,-339.294"/>
<polygon fill="none" stroke="midnightblue" points="60.5001,-366.666 64,-376.666 67.5001,-366.666 60.5001,-366.666"/>
</g>
<!-- Node3 -->
<g id="node3" class="node"><title>Node3</title>
<g id="a_node3"><a xlink:href="../../d1/db3/classppm__java_1_1typelib_1_1_v_audio_object.html" target="_top" xlink:title="Base class for all browseable audio objects. ">
<polygon fill="white" stroke="black" points="18,-592.5 18,-649.5 110,-649.5 110,-592.5 18,-592.5"/>
<text text-anchor="middle" x="64" y="-637.5" font-family="Helvetica,sans-Serif" font-size="10.00">VAudioObject</text>
<polyline fill="none" stroke="black" points="18,-630.5 110,-630.5 "/>
<text text-anchor="middle" x="64" y="-618.5" font-family="Helvetica,sans-Serif" font-size="10.00"> </text>
<polyline fill="none" stroke="black" points="18,-611.5 110,-611.5 "/>
<text text-anchor="start" x="26" y="-599.5" font-family="Helvetica,sans-Serif" font-size="10.00">+ VAudioObject()</text>
</a>
</g>
</g>
<!-- Node3&#45;&gt;Node2 -->
<g id="edge2" class="edge"><title>Node3&#45;&gt;Node2</title>
<path fill="none" stroke="midnightblue" d="M64,-582.166C64,-573.781 64,-564.554 64,-555.086"/>
<polygon fill="none" stroke="midnightblue" points="60.5001,-582.293 64,-592.293 67.5001,-582.293 60.5001,-582.293"/>
</g>
<!-- Node4 -->
<g id="node4" class="node"><title>Node4</title>
<g id="a_node4"><a xlink:href="../../de/dd1/classppm__java_1_1typelib_1_1_v_browseable.html" target="_top" xlink:title="Base class for all browseable objects. ">
<polygon fill="white" stroke="black" points="19.5,-686.5 19.5,-765.5 108.5,-765.5 108.5,-686.5 19.5,-686.5"/>
<text text-anchor="middle" x="64" y="-753.5" font-family="Helvetica,sans-Serif" font-size="10.00">VBrowseable</text>
<polyline fill="none" stroke="black" points="19.5,-746.5 108.5,-746.5 "/>
<text text-anchor="start" x="27.5" y="-734.5" font-family="Helvetica,sans-Serif" font-size="10.00">&#45; fID</text>
<polyline fill="none" stroke="black" points="19.5,-727.5 108.5,-727.5 "/>
<text text-anchor="start" x="27.5" y="-715.5" font-family="Helvetica,sans-Serif" font-size="10.00">+ VBrowseable()</text>
<text text-anchor="start" x="27.5" y="-704.5" font-family="Helvetica,sans-Serif" font-size="10.00">+ GetID()</text>
<text text-anchor="start" x="27.5" y="-693.5" font-family="Helvetica,sans-Serif" font-size="10.00"># _Register()</text>
</a>
</g>
</g>
<!-- Node4&#45;&gt;Node3 -->
<g id="edge3" class="edge"><title>Node4&#45;&gt;Node3</title>
<path fill="none" stroke="midnightblue" d="M64,-676.163C64,-667.04 64,-657.806 64,-649.61"/>
<polygon fill="none" stroke="midnightblue" points="60.5001,-676.354 64,-686.354 67.5001,-676.354 60.5001,-676.354"/>
</g>
</g>
</svg>
