<?xml version="1.0" encoding="UTF-8" standalone="no"?>
<!DOCTYPE svg PUBLIC "-//W3C//DTD SVG 1.1//EN"
 "http://www.w3.org/Graphics/SVG/1.1/DTD/svg11.dtd">
<!-- Generated by graphviz version 2.36.0 (20140111.2315)
 -->
<!-- Title: TTimer Pages: 1 -->
<svg width="358pt" height="392pt"
 viewBox="0.00 0.00 358.00 392.00" xmlns="http://www.w3.org/2000/svg" xmlns:xlink="http://www.w3.org/1999/xlink">
<g id="graph0" class="graph" transform="scale(1 1) rotate(0) translate(4 388)">
<title>TTimer</title>
<polygon fill="white" stroke="none" points="-4,4 -4,-388 354,-388 354,4 -4,4"/>
<!-- Node1 -->
<g id="node1" class="node"><title>Node1</title>
<polygon fill="#bfbfbf" stroke="black" points="89.5,-0.5 89.5,-189.5 194.5,-189.5 194.5,-0.5 89.5,-0.5"/>
<text text-anchor="middle" x="142" y="-177.5" font-family="Helvetica,sans-Serif" font-size="10.00">TTimer</text>
<polyline fill="none" stroke="black" points="89.5,-170.5 194.5,-170.5 "/>
<text text-anchor="start" x="97.5" y="-158.5" font-family="Helvetica,sans-Serif" font-size="10.00">+ gkLoopIntervalMin</text>
<text text-anchor="start" x="97.5" y="-147.5" font-family="Helvetica,sans-Serif" font-size="10.00">&#45; fWorker</text>
<polyline fill="none" stroke="black" points="89.5,-140.5 194.5,-140.5 "/>
<text text-anchor="start" x="97.5" y="-128.5" font-family="Helvetica,sans-Serif" font-size="10.00">+ GetInterval()</text>
<text text-anchor="start" x="97.5" y="-117.5" font-family="Helvetica,sans-Serif" font-size="10.00">+ OnEvent()</text>
<text text-anchor="start" x="97.5" y="-106.5" font-family="Helvetica,sans-Serif" font-size="10.00">+ OnEvent()</text>
<text text-anchor="start" x="97.5" y="-95.5" font-family="Helvetica,sans-Serif" font-size="10.00">+ OnEvent()</text>
<text text-anchor="start" x="97.5" y="-84.5" font-family="Helvetica,sans-Serif" font-size="10.00">+ OnEvent()</text>
<text text-anchor="start" x="97.5" y="-73.5" font-family="Helvetica,sans-Serif" font-size="10.00">+ Start()</text>
<text text-anchor="start" x="97.5" y="-62.5" font-family="Helvetica,sans-Serif" font-size="10.00">+ Stop()</text>
<text text-anchor="start" x="97.5" y="-51.5" font-family="Helvetica,sans-Serif" font-size="10.00">+ CreateInstance()</text>
<text text-anchor="start" x="97.5" y="-40.5" font-family="Helvetica,sans-Serif" font-size="10.00">~ SendTimerEvent()</text>
<text text-anchor="start" x="97.5" y="-29.5" font-family="Helvetica,sans-Serif" font-size="10.00"># _Register()</text>
<text text-anchor="start" x="97.5" y="-18.5" font-family="Helvetica,sans-Serif" font-size="10.00">&#45; TTimer()</text>
<text text-anchor="start" x="97.5" y="-7.5" font-family="Helvetica,sans-Serif" font-size="10.00">&#45; _GetSaneInterval()</text>
</g>
<!-- Node2 -->
<g id="node2" class="node"><title>Node2</title>
<g id="a_node2"><a xlink:href="../../de/dd1/classppm__java_1_1typelib_1_1_v_browseable.html" target="_top" xlink:title="Base class for all browseable objects. ">
<polygon fill="white" stroke="black" points="-0.5,-265.5 -0.5,-344.5 88.5,-344.5 88.5,-265.5 -0.5,-265.5"/>
<text text-anchor="middle" x="44" y="-332.5" font-family="Helvetica,sans-Serif" font-size="10.00">VBrowseable</text>
<polyline fill="none" stroke="black" points="-0.5,-325.5 88.5,-325.5 "/>
<text text-anchor="start" x="7.5" y="-313.5" font-family="Helvetica,sans-Serif" font-size="10.00">&#45; fID</text>
<polyline fill="none" stroke="black" points="-0.5,-306.5 88.5,-306.5 "/>
<text text-anchor="start" x="7.5" y="-294.5" font-family="Helvetica,sans-Serif" font-size="10.00">+ VBrowseable()</text>
<text text-anchor="start" x="7.5" y="-283.5" font-family="Helvetica,sans-Serif" font-size="10.00">+ GetID()</text>
<text text-anchor="start" x="7.5" y="-272.5" font-family="Helvetica,sans-Serif" font-size="10.00"># _Register()</text>
</a>
</g>
</g>
<!-- Node2&#45;&gt;Node1 -->
<g id="edge1" class="edge"><title>Node2&#45;&gt;Node1</title>
<path fill="none" stroke="midnightblue" d="M66.4906,-256.265C75.823,-236.457 86.9908,-212.754 97.8391,-189.729"/>
<polygon fill="none" stroke="midnightblue" points="63.2994,-254.826 62.2034,-265.364 69.6318,-257.81 63.2994,-254.826"/>
</g>
<!-- Node3 -->
<g id="node3" class="node"><title>Node3</title>
<g id="a_node3"><a xlink:href="../../db/d44/interfaceppm__java_1_1typelib_1_1_i_controllable.html" target="_top" xlink:title="A module or construct which can receive some low level control commands (start/stop etc...">
<polygon fill="white" stroke="black" points="106.5,-271 106.5,-339 177.5,-339 177.5,-271 106.5,-271"/>
<text text-anchor="middle" x="142" y="-327" font-family="Helvetica,sans-Serif" font-size="10.00">IControllable</text>
<polyline fill="none" stroke="black" points="106.5,-320 177.5,-320 "/>
<text text-anchor="middle" x="142" y="-308" font-family="Helvetica,sans-Serif" font-size="10.00"> </text>
<polyline fill="none" stroke="black" points="106.5,-301 177.5,-301 "/>
<text text-anchor="start" x="114.5" y="-289" font-family="Helvetica,sans-Serif" font-size="10.00">+ Start()</text>
<text text-anchor="start" x="114.5" y="-278" font-family="Helvetica,sans-Serif" font-size="10.00">+ Stop()</text>
</a>
</g>
</g>
<!-- Node3&#45;&gt;Node1 -->
<g id="edge2" class="edge"><title>Node3&#45;&gt;Node1</title>
<path fill="none" stroke="midnightblue" d="M142,-260.546C142,-239.865 142,-214.283 142,-189.504"/>
<polygon fill="none" stroke="midnightblue" points="138.5,-260.581 142,-270.581 145.5,-260.581 138.5,-260.581"/>
</g>
<!-- Node4 -->
<g id="node4" class="node"><title>Node4</title>
<g id="a_node4"><a xlink:href="../../df/dbb/interfaceppm__java_1_1typelib_1_1_i_evented.html" target="_top" xlink:title="Base interface for the event system. ">
<polygon fill="white" stroke="black" points="196,-227 196,-383 350,-383 350,-227 196,-227"/>
<text text-anchor="middle" x="273" y="-371" font-family="Helvetica,sans-Serif" font-size="10.00">IEvented</text>
<polyline fill="none" stroke="black" points="196,-364 350,-364 "/>
<text text-anchor="start" x="204" y="-352" font-family="Helvetica,sans-Serif" font-size="10.00">+ gkEventBufferNotifyOverrun</text>
<text text-anchor="start" x="204" y="-341" font-family="Helvetica,sans-Serif" font-size="10.00">+ gkEventBufferNotifyUnderrun</text>
<text text-anchor="start" x="204" y="-330" font-family="Helvetica,sans-Serif" font-size="10.00">+ gkEventStart</text>
<text text-anchor="start" x="204" y="-319" font-family="Helvetica,sans-Serif" font-size="10.00">+ gkEventStop</text>
<text text-anchor="start" x="204" y="-308" font-family="Helvetica,sans-Serif" font-size="10.00">+ gkEventTimerAdjustInterval</text>
<text text-anchor="start" x="204" y="-297" font-family="Helvetica,sans-Serif" font-size="10.00">+ gkEventTimerNotifyInterval</text>
<text text-anchor="start" x="204" y="-286" font-family="Helvetica,sans-Serif" font-size="10.00">+ gkEventTimerTick</text>
<polyline fill="none" stroke="black" points="196,-279 350,-279 "/>
<text text-anchor="start" x="204" y="-267" font-family="Helvetica,sans-Serif" font-size="10.00">+ OnEvent()</text>
<text text-anchor="start" x="204" y="-256" font-family="Helvetica,sans-Serif" font-size="10.00">+ OnEvent()</text>
<text text-anchor="start" x="204" y="-245" font-family="Helvetica,sans-Serif" font-size="10.00">+ OnEvent()</text>
<text text-anchor="start" x="204" y="-234" font-family="Helvetica,sans-Serif" font-size="10.00">+ OnEvent()</text>
</a>
</g>
</g>
<!-- Node4&#45;&gt;Node1 -->
<g id="edge3" class="edge"><title>Node4&#45;&gt;Node1</title>
<path fill="none" stroke="midnightblue" d="M218.909,-218.116C210.906,-205.408 202.668,-192.328 194.694,-179.667"/>
<polygon fill="none" stroke="midnightblue" points="216.116,-220.248 224.407,-226.844 222.039,-216.517 216.116,-220.248"/>
</g>
</g>
</svg>
