<?xml version="1.0" encoding="UTF-8" standalone="no"?>
<!DOCTYPE svg PUBLIC "-//W3C//DTD SVG 1.1//EN"
 "http://www.w3.org/Graphics/SVG/1.1/DTD/svg11.dtd">
<!-- Generated by graphviz version 2.36.0 (20140111.2315)
 -->
<!-- Title: TNodePPMProcessor_Endpoint_In Pages: 1 -->
<svg width="190pt" height="702pt"
 viewBox="0.00 0.00 190.00 702.00" xmlns="http://www.w3.org/2000/svg" xmlns:xlink="http://www.w3.org/1999/xlink">
<g id="graph0" class="graph" transform="scale(1 1) rotate(0) translate(4 698)">
<title>TNodePPMProcessor_Endpoint_In</title>
<polygon fill="white" stroke="none" points="-4,4 -4,-698 186,-698 186,4 -4,4"/>
<!-- Node1 -->
<g id="node1" class="node"><title>Node1</title>
<polygon fill="#bfbfbf" stroke="black" points="-0.5,-1 -0.5,-69 182.5,-69 182.5,-1 -0.5,-1"/>
<text text-anchor="middle" x="91" y="-57" font-family="Helvetica,sans-Serif" font-size="10.00">TNodePPMProcessor_Endpoint_In</text>
<polyline fill="none" stroke="black" points="-0.5,-50 182.5,-50 "/>
<text text-anchor="middle" x="91" y="-38" font-family="Helvetica,sans-Serif" font-size="10.00"> </text>
<polyline fill="none" stroke="black" points="-0.5,-31 182.5,-31 "/>
<text text-anchor="start" x="7.5" y="-19" font-family="Helvetica,sans-Serif" font-size="10.00"># TNodePPMProcessor_Endpoint_In()</text>
<text text-anchor="start" x="7.5" y="-8" font-family="Helvetica,sans-Serif" font-size="10.00"># _Register()</text>
</g>
<!-- Node2 -->
<g id="node2" class="node"><title>Node2</title>
<g id="a_node2"><a xlink:href="../../db/d16/classppm__java_1_1typelib_1_1_v_audio_port___input___chunks___buffered.html" target="_top" xlink:title="Base class for an input port that receives sample chunks. ">
<polygon fill="white" stroke="black" points="21,-106.5 21,-251.5 161,-251.5 161,-106.5 21,-106.5"/>
<text text-anchor="start" x="29" y="-239.5" font-family="Helvetica,sans-Serif" font-size="10.00">VAudioPort_Input_Chunks</text>
<text text-anchor="middle" x="91" y="-228.5" font-family="Helvetica,sans-Serif" font-size="10.00">_Buffered</text>
<polyline fill="none" stroke="black" points="21,-221.5 161,-221.5 "/>
<text text-anchor="start" x="29" y="-209.5" font-family="Helvetica,sans-Serif" font-size="10.00">&#45; fBuffer</text>
<polyline fill="none" stroke="black" points="21,-202.5 161,-202.5 "/>
<text text-anchor="start" x="29" y="-190.5" font-family="Helvetica,sans-Serif" font-size="10.00">+ FetchPacket()</text>
<text text-anchor="start" x="29" y="-179.5" font-family="Helvetica,sans-Serif" font-size="10.00">+ ReceivePacket()</text>
<text text-anchor="start" x="29" y="-168.5" font-family="Helvetica,sans-Serif" font-size="10.00">+ StatsClear()</text>
<text text-anchor="start" x="29" y="-157.5" font-family="Helvetica,sans-Serif" font-size="10.00">+ StatsGet()</text>
<text text-anchor="start" x="29" y="-146.5" font-family="Helvetica,sans-Serif" font-size="10.00"># VAudioPort_Input_Chunks</text>
<text text-anchor="start" x="29" y="-135.5" font-family="Helvetica,sans-Serif" font-size="10.00">_Buffered()</text>
<text text-anchor="start" x="29" y="-124.5" font-family="Helvetica,sans-Serif" font-size="10.00"># _Accept()</text>
<text text-anchor="start" x="29" y="-113.5" font-family="Helvetica,sans-Serif" font-size="10.00"># _GetType()</text>
</a>
</g>
</g>
<!-- Node2&#45;&gt;Node1 -->
<g id="edge1" class="edge"><title>Node2&#45;&gt;Node1</title>
<path fill="none" stroke="midnightblue" d="M91,-95.9023C91,-86.5083 91,-77.3801 91,-69.1974"/>
<polygon fill="none" stroke="midnightblue" points="87.5001,-96.168 91,-106.168 94.5001,-96.168 87.5001,-96.168"/>
</g>
<!-- Node3 -->
<g id="node3" class="node"><title>Node3</title>
<g id="a_node3"><a xlink:href="../../d9/d0e/classppm__java_1_1typelib_1_1_v_audio_port___input.html" target="_top" xlink:title="Base class for an input audio port. ">
<polygon fill="white" stroke="black" points="37,-288.5 37,-367.5 145,-367.5 145,-288.5 37,-288.5"/>
<text text-anchor="middle" x="91" y="-355.5" font-family="Helvetica,sans-Serif" font-size="10.00">VAudioPort_Input</text>
<polyline fill="none" stroke="black" points="37,-348.5 145,-348.5 "/>
<text text-anchor="start" x="45" y="-336.5" font-family="Helvetica,sans-Serif" font-size="10.00">&#45; fIPort</text>
<polyline fill="none" stroke="black" points="37,-329.5 145,-329.5 "/>
<text text-anchor="start" x="45" y="-317.5" font-family="Helvetica,sans-Serif" font-size="10.00">+ VAudioPort_Input()</text>
<text text-anchor="start" x="45" y="-306.5" font-family="Helvetica,sans-Serif" font-size="10.00">+ GetPortNum()</text>
<text text-anchor="start" x="45" y="-295.5" font-family="Helvetica,sans-Serif" font-size="10.00"># _Accept()</text>
</a>
</g>
</g>
<!-- Node3&#45;&gt;Node2 -->
<g id="edge2" class="edge"><title>Node3&#45;&gt;Node2</title>
<path fill="none" stroke="midnightblue" d="M91,-278.243C91,-269.699 91,-260.651 91,-251.64"/>
<polygon fill="none" stroke="midnightblue" points="87.5001,-278.377 91,-288.377 94.5001,-278.378 87.5001,-278.377"/>
</g>
<!-- Node4 -->
<g id="node4" class="node"><title>Node4</title>
<g id="a_node4"><a xlink:href="../../de/dc9/classppm__java_1_1typelib_1_1_v_audio_port.html" target="_top" xlink:title="Base class for all audio ports. ">
<polygon fill="white" stroke="black" points="50.5,-404.5 50.5,-483.5 131.5,-483.5 131.5,-404.5 50.5,-404.5"/>
<text text-anchor="middle" x="91" y="-471.5" font-family="Helvetica,sans-Serif" font-size="10.00">VAudioPort</text>
<polyline fill="none" stroke="black" points="50.5,-464.5 131.5,-464.5 "/>
<text text-anchor="start" x="58.5" y="-452.5" font-family="Helvetica,sans-Serif" font-size="10.00">&#45; fHost</text>
<polyline fill="none" stroke="black" points="50.5,-445.5 131.5,-445.5 "/>
<text text-anchor="start" x="58.5" y="-433.5" font-family="Helvetica,sans-Serif" font-size="10.00">+ VAudioPort()</text>
<text text-anchor="start" x="58.5" y="-422.5" font-family="Helvetica,sans-Serif" font-size="10.00"># _GetHost()</text>
<text text-anchor="start" x="58.5" y="-411.5" font-family="Helvetica,sans-Serif" font-size="10.00"># _GetType()</text>
</a>
</g>
</g>
<!-- Node4&#45;&gt;Node3 -->
<g id="edge3" class="edge"><title>Node4&#45;&gt;Node3</title>
<path fill="none" stroke="midnightblue" d="M91,-394.146C91,-385.256 91,-376.096 91,-367.555"/>
<polygon fill="none" stroke="midnightblue" points="87.5001,-394.405 91,-404.405 94.5001,-394.405 87.5001,-394.405"/>
</g>
<!-- Node5 -->
<g id="node5" class="node"><title>Node5</title>
<g id="a_node5"><a xlink:href="../../d1/db3/classppm__java_1_1typelib_1_1_v_audio_object.html" target="_top" xlink:title="Base class for all browseable audio objects. ">
<polygon fill="white" stroke="black" points="45,-520.5 45,-577.5 137,-577.5 137,-520.5 45,-520.5"/>
<text text-anchor="middle" x="91" y="-565.5" font-family="Helvetica,sans-Serif" font-size="10.00">VAudioObject</text>
<polyline fill="none" stroke="black" points="45,-558.5 137,-558.5 "/>
<text text-anchor="middle" x="91" y="-546.5" font-family="Helvetica,sans-Serif" font-size="10.00"> </text>
<polyline fill="none" stroke="black" points="45,-539.5 137,-539.5 "/>
<text text-anchor="start" x="53" y="-527.5" font-family="Helvetica,sans-Serif" font-size="10.00">+ VAudioObject()</text>
</a>
</g>
</g>
<!-- Node5&#45;&gt;Node4 -->
<g id="edge4" class="edge"><title>Node5&#45;&gt;Node4</title>
<path fill="none" stroke="midnightblue" d="M91,-510.156C91,-501.473 91,-492.232 91,-483.52"/>
<polygon fill="none" stroke="midnightblue" points="87.5001,-510.398 91,-520.398 94.5001,-510.398 87.5001,-510.398"/>
</g>
<!-- Node6 -->
<g id="node6" class="node"><title>Node6</title>
<g id="a_node6"><a xlink:href="../../de/dd1/classppm__java_1_1typelib_1_1_v_browseable.html" target="_top" xlink:title="Base class for all browseable objects. ">
<polygon fill="white" stroke="black" points="46.5,-614.5 46.5,-693.5 135.5,-693.5 135.5,-614.5 46.5,-614.5"/>
<text text-anchor="middle" x="91" y="-681.5" font-family="Helvetica,sans-Serif" font-size="10.00">VBrowseable</text>
<polyline fill="none" stroke="black" points="46.5,-674.5 135.5,-674.5 "/>
<text text-anchor="start" x="54.5" y="-662.5" font-family="Helvetica,sans-Serif" font-size="10.00">&#45; fID</text>
<polyline fill="none" stroke="black" points="46.5,-655.5 135.5,-655.5 "/>
<text text-anchor="start" x="54.5" y="-643.5" font-family="Helvetica,sans-Serif" font-size="10.00">+ VBrowseable()</text>
<text text-anchor="start" x="54.5" y="-632.5" font-family="Helvetica,sans-Serif" font-size="10.00">+ GetID()</text>
<text text-anchor="start" x="54.5" y="-621.5" font-family="Helvetica,sans-Serif" font-size="10.00"># _Register()</text>
</a>
</g>
</g>
<!-- Node6&#45;&gt;Node5 -->
<g id="edge5" class="edge"><title>Node6&#45;&gt;Node5</title>
<path fill="none" stroke="midnightblue" d="M91,-604.163C91,-595.04 91,-585.806 91,-577.61"/>
<polygon fill="none" stroke="midnightblue" points="87.5001,-604.354 91,-614.354 94.5001,-604.354 87.5001,-604.354"/>
</g>
</g>
</svg>
