<?xml version="1.0" encoding="UTF-8" standalone="no"?>
<!DOCTYPE svg PUBLIC "-//W3C//DTD SVG 1.1//EN"
 "http://www.w3.org/Graphics/SVG/1.1/DTD/svg11.dtd">
<!-- Generated by graphviz version 2.36.0 (20140111.2315)
 -->
<!-- Title: _ProcessChunk Pages: 1 -->
<svg width="510pt" height="169pt"
 viewBox="0.00 0.00 510.00 169.00" xmlns="http://www.w3.org/2000/svg" xmlns:xlink="http://www.w3.org/1999/xlink">
<g id="graph0" class="graph" transform="scale(1 1) rotate(0) translate(4 165)">
<title>_ProcessChunk</title>
<polygon fill="white" stroke="none" points="-4,4 -4,-165 506,-165 506,4 -4,4"/>
<!-- Node1 -->
<g id="node1" class="node"><title>Node1</title>
<polygon fill="#bfbfbf" stroke="black" points="0,-68.5 0,-87.5 86,-87.5 86,-68.5 0,-68.5"/>
<text text-anchor="middle" x="43" y="-75.5" font-family="Helvetica,sans-Serif" font-size="10.00">_ProcessChunk</text>
</g>
<!-- Node2 -->
<g id="node2" class="node"><title>Node2</title>
<g id="a_node2"><a xlink:href="../../dc/d04/classppm__java_1_1backend_1_1module_1_1__deprecated__ppm_1_1_t_node_p_p_m_processor.html#acb24179b9cce6b4e388b2c7589b0a681" target="_top" xlink:title="Auto compensation for Overruns/Underruns on the atomic buffer associated with the input...">
<polygon fill="white" stroke="black" points="142,-125.5 142,-144.5 274,-144.5 274,-125.5 142,-125.5"/>
<text text-anchor="middle" x="208" y="-132.5" font-family="Helvetica,sans-Serif" font-size="10.00">_CompensateCongestions</text>
</a>
</g>
</g>
<!-- Node1&#45;&gt;Node2 -->
<g id="edge1" class="edge"><title>Node1&#45;&gt;Node2</title>
<path fill="none" stroke="midnightblue" d="M64.5798,-87.5407C80.1481,-94.5528 102.161,-104.033 122,-111 134.101,-115.249 147.368,-119.284 159.748,-122.791"/>
<polygon fill="midnightblue" stroke="midnightblue" points="158.874,-126.18 169.446,-125.484 160.747,-119.436 158.874,-126.18"/>
</g>
<!-- Node4 -->
<g id="node4" class="node"><title>Node4</title>
<g id="a_node4"><a xlink:href="../../d5/d6a/classppm__java_1_1typelib_1_1_v_audio_processor.html#a5bfd065f6711c094469beafa8b649b71" target="_top" xlink:title="Returns the ith input port. ">
<polygon fill="white" stroke="black" points="330,-82 330,-112 502,-112 502,-82 330,-82"/>
<text text-anchor="start" x="338" y="-100" font-family="Helvetica,sans-Serif" font-size="10.00">ppm_java.typelib.VAudioProcessor.</text>
<text text-anchor="middle" x="416" y="-89" font-family="Helvetica,sans-Serif" font-size="10.00">GetPortIn</text>
</a>
</g>
</g>
<!-- Node1&#45;&gt;Node4 -->
<g id="edge5" class="edge"><title>Node1&#45;&gt;Node4</title>
<path fill="none" stroke="midnightblue" d="M86.1972,-80.161C142.633,-83.0513 244.317,-88.2588 319.715,-92.1202"/>
<polygon fill="midnightblue" stroke="midnightblue" points="319.54,-95.6157 329.706,-92.6318 319.898,-88.6248 319.54,-95.6157"/>
</g>
<!-- Node5 -->
<g id="node5" class="node"><title>Node5</title>
<g id="a_node5"><a xlink:href="../../dc/d04/classppm__java_1_1backend_1_1module_1_1__deprecated__ppm_1_1_t_node_p_p_m_processor.html#a84c7682836fd64a1ebe1c4691ea86cfa" target="_top" xlink:title="Finds the raw peak value of (a part of) the given sample chunk and returns its absolute value...">
<polygon fill="white" stroke="black" points="176.5,-49.5 176.5,-68.5 239.5,-68.5 239.5,-49.5 176.5,-49.5"/>
<text text-anchor="middle" x="208" y="-56.5" font-family="Helvetica,sans-Serif" font-size="10.00">_FindPeak</text>
</a>
</g>
</g>
<!-- Node1&#45;&gt;Node5 -->
<g id="edge4" class="edge"><title>Node1&#45;&gt;Node5</title>
<path fill="none" stroke="midnightblue" d="M86.4008,-73.0576C111.079,-70.1809 142.027,-66.5736 166.392,-63.7334"/>
<polygon fill="midnightblue" stroke="midnightblue" points="166.867,-67.2019 176.394,-62.5676 166.056,-60.249 166.867,-67.2019"/>
</g>
<!-- Node6 -->
<g id="node6" class="node"><title>Node6</title>
<g id="a_node6"><a xlink:href="../../d5/d6a/classppm__java_1_1typelib_1_1_v_audio_processor.html#a2a3eff032668d4235f02e6cad3f43a66" target="_top" xlink:title="Returns the ith output port. ">
<polygon fill="white" stroke="black" points="122,-0 122,-30 294,-30 294,-0 122,-0"/>
<text text-anchor="start" x="130" y="-18" font-family="Helvetica,sans-Serif" font-size="10.00">ppm_java.typelib.VAudioProcessor.</text>
<text text-anchor="middle" x="208" y="-7" font-family="Helvetica,sans-Serif" font-size="10.00">GetPortOut</text>
</a>
</g>
</g>
<!-- Node1&#45;&gt;Node6 -->
<g id="edge6" class="edge"><title>Node1&#45;&gt;Node6</title>
<path fill="none" stroke="midnightblue" d="M61.5895,-68.3773C77.1558,-60.1183 100.651,-48.2731 122,-40 128.167,-37.6101 134.661,-35.3177 141.197,-33.1575"/>
<polygon fill="midnightblue" stroke="midnightblue" points="142.316,-36.4746 150.771,-30.0911 140.18,-29.8081 142.316,-36.4746"/>
</g>
<!-- Node3 -->
<g id="node3" class="node"><title>Node3</title>
<g id="a_node3"><a xlink:href="../../de/dd1/classppm__java_1_1typelib_1_1_v_browseable.html#a04cbe3f0b5057d0eb582200dea602297" target="_top" xlink:title="ppm_java.typelib.VBrowseable.\lGetID">
<polygon fill="white" stroke="black" points="339,-131 339,-161 493,-161 493,-131 339,-131"/>
<text text-anchor="start" x="347" y="-149" font-family="Helvetica,sans-Serif" font-size="10.00">ppm_java.typelib.VBrowseable.</text>
<text text-anchor="middle" x="416" y="-138" font-family="Helvetica,sans-Serif" font-size="10.00">GetID</text>
</a>
</g>
</g>
<!-- Node2&#45;&gt;Node3 -->
<g id="edge2" class="edge"><title>Node2&#45;&gt;Node3</title>
<path fill="none" stroke="midnightblue" d="M274.18,-138.48C291.485,-139.405 310.445,-140.417 328.687,-141.391"/>
<polygon fill="midnightblue" stroke="midnightblue" points="328.56,-144.889 338.732,-141.927 328.933,-137.899 328.56,-144.889"/>
</g>
<!-- Node2&#45;&gt;Node4 -->
<g id="edge3" class="edge"><title>Node2&#45;&gt;Node4</title>
<path fill="none" stroke="midnightblue" d="M260.717,-125.46C279.837,-121.933 302.123,-117.822 323.713,-113.839"/>
<polygon fill="midnightblue" stroke="midnightblue" points="324.371,-117.277 333.57,-112.021 323.101,-110.393 324.371,-117.277"/>
</g>
</g>
</svg>
