<?xml version="1.0" encoding="UTF-8" standalone="no"?>
<!DOCTYPE svg PUBLIC "-//W3C//DTD SVG 1.1//EN"
 "http://www.w3.org/Graphics/SVG/1.1/DTD/svg11.dtd">
<!-- Generated by graphviz version 2.36.0 (20140111.2315)
 -->
<!-- Title: OnEvent Pages: 1 -->
<svg width="602pt" height="169pt"
 viewBox="0.00 0.00 602.00 169.00" xmlns="http://www.w3.org/2000/svg" xmlns:xlink="http://www.w3.org/1999/xlink">
<g id="graph0" class="graph" transform="scale(1 1) rotate(0) translate(4 165)">
<title>OnEvent</title>
<polygon fill="white" stroke="none" points="-4,4 -4,-165 598,-165 598,4 -4,4"/>
<!-- Node1 -->
<g id="node1" class="node"><title>Node1</title>
<polygon fill="#bfbfbf" stroke="black" points="0.5,-68.5 0.5,-87.5 55.5,-87.5 55.5,-68.5 0.5,-68.5"/>
<text text-anchor="middle" x="28" y="-75.5" font-family="Helvetica,sans-Serif" font-size="10.00">OnEvent</text>
</g>
<!-- Node2 -->
<g id="node2" class="node"><title>Node2</title>
<g id="a_node2"><a xlink:href="../../dc/d04/classppm__java_1_1backend_1_1module_1_1__deprecated__ppm_1_1_t_node_p_p_m_processor.html#a9170c532c1d0021b723f0285c672a6cd" target="_top" xlink:title="The central computation piece of the PPM level meter. ">
<polygon fill="white" stroke="black" points="92,-68.5 92,-87.5 178,-87.5 178,-68.5 92,-68.5"/>
<text text-anchor="middle" x="135" y="-75.5" font-family="Helvetica,sans-Serif" font-size="10.00">_ProcessChunk</text>
</a>
</g>
</g>
<!-- Node1&#45;&gt;Node2 -->
<g id="edge1" class="edge"><title>Node1&#45;&gt;Node2</title>
<path fill="none" stroke="midnightblue" d="M55.7676,-78C63.7138,-78 72.7049,-78 81.6886,-78"/>
<polygon fill="midnightblue" stroke="midnightblue" points="81.7724,-81.5001 91.7723,-78 81.7723,-74.5001 81.7724,-81.5001"/>
</g>
<!-- Node3 -->
<g id="node3" class="node"><title>Node3</title>
<g id="a_node3"><a xlink:href="../../dc/d04/classppm__java_1_1backend_1_1module_1_1__deprecated__ppm_1_1_t_node_p_p_m_processor.html#acb24179b9cce6b4e388b2c7589b0a681" target="_top" xlink:title="Auto compensation for Overruns/Underruns on the atomic buffer associated with the input...">
<polygon fill="white" stroke="black" points="234,-125.5 234,-144.5 366,-144.5 366,-125.5 234,-125.5"/>
<text text-anchor="middle" x="300" y="-132.5" font-family="Helvetica,sans-Serif" font-size="10.00">_CompensateCongestions</text>
</a>
</g>
</g>
<!-- Node2&#45;&gt;Node3 -->
<g id="edge2" class="edge"><title>Node2&#45;&gt;Node3</title>
<path fill="none" stroke="midnightblue" d="M156.58,-87.5407C172.148,-94.5528 194.161,-104.033 214,-111 226.101,-115.249 239.368,-119.284 251.748,-122.791"/>
<polygon fill="midnightblue" stroke="midnightblue" points="250.874,-126.18 261.446,-125.484 252.747,-119.436 250.874,-126.18"/>
</g>
<!-- Node5 -->
<g id="node5" class="node"><title>Node5</title>
<g id="a_node5"><a xlink:href="../../d5/d6a/classppm__java_1_1typelib_1_1_v_audio_processor.html#a5bfd065f6711c094469beafa8b649b71" target="_top" xlink:title="Returns the ith input port. ">
<polygon fill="white" stroke="black" points="422,-82 422,-112 594,-112 594,-82 422,-82"/>
<text text-anchor="start" x="430" y="-100" font-family="Helvetica,sans-Serif" font-size="10.00">ppm_java.typelib.VAudioProcessor.</text>
<text text-anchor="middle" x="508" y="-89" font-family="Helvetica,sans-Serif" font-size="10.00">GetPortIn</text>
</a>
</g>
</g>
<!-- Node2&#45;&gt;Node5 -->
<g id="edge6" class="edge"><title>Node2&#45;&gt;Node5</title>
<path fill="none" stroke="midnightblue" d="M178.197,-80.161C234.633,-83.0513 336.317,-88.2588 411.715,-92.1202"/>
<polygon fill="midnightblue" stroke="midnightblue" points="411.54,-95.6157 421.706,-92.6318 411.898,-88.6248 411.54,-95.6157"/>
</g>
<!-- Node6 -->
<g id="node6" class="node"><title>Node6</title>
<g id="a_node6"><a xlink:href="../../dc/d04/classppm__java_1_1backend_1_1module_1_1__deprecated__ppm_1_1_t_node_p_p_m_processor.html#a84c7682836fd64a1ebe1c4691ea86cfa" target="_top" xlink:title="Finds the raw peak value of (a part of) the given sample chunk and returns its absolute value...">
<polygon fill="white" stroke="black" points="268.5,-49.5 268.5,-68.5 331.5,-68.5 331.5,-49.5 268.5,-49.5"/>
<text text-anchor="middle" x="300" y="-56.5" font-family="Helvetica,sans-Serif" font-size="10.00">_FindPeak</text>
</a>
</g>
</g>
<!-- Node2&#45;&gt;Node6 -->
<g id="edge5" class="edge"><title>Node2&#45;&gt;Node6</title>
<path fill="none" stroke="midnightblue" d="M178.401,-73.0576C203.079,-70.1809 234.027,-66.5736 258.392,-63.7334"/>
<polygon fill="midnightblue" stroke="midnightblue" points="258.867,-67.2019 268.394,-62.5676 258.056,-60.249 258.867,-67.2019"/>
</g>
<!-- Node7 -->
<g id="node7" class="node"><title>Node7</title>
<g id="a_node7"><a xlink:href="../../d5/d6a/classppm__java_1_1typelib_1_1_v_audio_processor.html#a2a3eff032668d4235f02e6cad3f43a66" target="_top" xlink:title="Returns the ith output port. ">
<polygon fill="white" stroke="black" points="214,-0 214,-30 386,-30 386,-0 214,-0"/>
<text text-anchor="start" x="222" y="-18" font-family="Helvetica,sans-Serif" font-size="10.00">ppm_java.typelib.VAudioProcessor.</text>
<text text-anchor="middle" x="300" y="-7" font-family="Helvetica,sans-Serif" font-size="10.00">GetPortOut</text>
</a>
</g>
</g>
<!-- Node2&#45;&gt;Node7 -->
<g id="edge7" class="edge"><title>Node2&#45;&gt;Node7</title>
<path fill="none" stroke="midnightblue" d="M153.589,-68.3773C169.156,-60.1183 192.651,-48.2731 214,-40 220.167,-37.6101 226.661,-35.3177 233.197,-33.1575"/>
<polygon fill="midnightblue" stroke="midnightblue" points="234.316,-36.4746 242.771,-30.0911 232.18,-29.8081 234.316,-36.4746"/>
</g>
<!-- Node4 -->
<g id="node4" class="node"><title>Node4</title>
<g id="a_node4"><a xlink:href="../../de/dd1/classppm__java_1_1typelib_1_1_v_browseable.html#a04cbe3f0b5057d0eb582200dea602297" target="_top" xlink:title="ppm_java.typelib.VBrowseable.\lGetID">
<polygon fill="white" stroke="black" points="431,-131 431,-161 585,-161 585,-131 431,-131"/>
<text text-anchor="start" x="439" y="-149" font-family="Helvetica,sans-Serif" font-size="10.00">ppm_java.typelib.VBrowseable.</text>
<text text-anchor="middle" x="508" y="-138" font-family="Helvetica,sans-Serif" font-size="10.00">GetID</text>
</a>
</g>
</g>
<!-- Node3&#45;&gt;Node4 -->
<g id="edge3" class="edge"><title>Node3&#45;&gt;Node4</title>
<path fill="none" stroke="midnightblue" d="M366.18,-138.48C383.485,-139.405 402.445,-140.417 420.687,-141.391"/>
<polygon fill="midnightblue" stroke="midnightblue" points="420.56,-144.889 430.732,-141.927 420.933,-137.899 420.56,-144.889"/>
</g>
<!-- Node3&#45;&gt;Node5 -->
<g id="edge4" class="edge"><title>Node3&#45;&gt;Node5</title>
<path fill="none" stroke="midnightblue" d="M352.717,-125.46C371.837,-121.933 394.123,-117.822 415.713,-113.839"/>
<polygon fill="midnightblue" stroke="midnightblue" points="416.371,-117.277 425.57,-112.021 415.101,-110.393 416.371,-117.277"/>
</g>
</g>
</svg>
