<?xml version="1.0" encoding="UTF-8" standalone="no"?>
<!DOCTYPE svg PUBLIC "-//W3C//DTD SVG 1.1//EN"
 "http://www.w3.org/Graphics/SVG/1.1/DTD/svg11.dtd">
<!-- Generated by graphviz version 2.36.0 (20140111.2315)
 -->
<!-- Title: _FindPeak Pages: 1 -->
<svg width="286pt" height="28pt"
 viewBox="0.00 0.00 286.00 28.00" xmlns="http://www.w3.org/2000/svg" xmlns:xlink="http://www.w3.org/1999/xlink">
<g id="graph0" class="graph" transform="scale(1 1) rotate(0) translate(4 24)">
<title>_FindPeak</title>
<polygon fill="white" stroke="none" points="-4,4 -4,-24 282,-24 282,4 -4,4"/>
<!-- Node1 -->
<g id="node1" class="node"><title>Node1</title>
<polygon fill="#bfbfbf" stroke="black" points="0.5,-0.5 0.5,-19.5 63.5,-19.5 63.5,-0.5 0.5,-0.5"/>
<text text-anchor="middle" x="32" y="-7.5" font-family="Helvetica,sans-Serif" font-size="10.00">_FindPeak</text>
</g>
<!-- Node2 -->
<g id="node2" class="node"><title>Node2</title>
<g id="a_node2"><a xlink:href="../../dc/d04/classppm__java_1_1backend_1_1module_1_1__deprecated__ppm_1_1_t_node_p_p_m_processor.html#a9170c532c1d0021b723f0285c672a6cd" target="_top" xlink:title="The central computation piece of the PPM level meter. ">
<polygon fill="white" stroke="black" points="100,-0.5 100,-19.5 186,-19.5 186,-0.5 100,-0.5"/>
<text text-anchor="middle" x="143" y="-7.5" font-family="Helvetica,sans-Serif" font-size="10.00">_ProcessChunk</text>
</a>
</g>
</g>
<!-- Node1&#45;&gt;Node2 -->
<g id="edge1" class="edge"><title>Node1&#45;&gt;Node2</title>
<path fill="none" stroke="midnightblue" d="M73.7316,-10C82.2392,-10 91.2258,-10 99.7859,-10"/>
<polygon fill="midnightblue" stroke="midnightblue" points="73.6527,-6.5001 63.6526,-10 73.6526,-13.5001 73.6527,-6.5001"/>
</g>
<!-- Node3 -->
<g id="node3" class="node"><title>Node3</title>
<g id="a_node3"><a xlink:href="../../dc/d04/classppm__java_1_1backend_1_1module_1_1__deprecated__ppm_1_1_t_node_p_p_m_processor.html#a310a2f2cdbda46d8166b50e45943e7e4" target="_top" xlink:title="Receive an event with no parameter. ">
<polygon fill="white" stroke="black" points="222.5,-0.5 222.5,-19.5 277.5,-19.5 277.5,-0.5 222.5,-0.5"/>
<text text-anchor="middle" x="250" y="-7.5" font-family="Helvetica,sans-Serif" font-size="10.00">OnEvent</text>
</a>
</g>
</g>
<!-- Node2&#45;&gt;Node3 -->
<g id="edge2" class="edge"><title>Node2&#45;&gt;Node3</title>
<path fill="none" stroke="midnightblue" d="M196.237,-10C205.267,-10 214.307,-10 222.29,-10"/>
<polygon fill="midnightblue" stroke="midnightblue" points="196.103,-6.5001 186.103,-10 196.102,-13.5001 196.103,-6.5001"/>
</g>
</g>
</svg>
