<?xml version="1.0" encoding="UTF-8" standalone="no"?>
<!DOCTYPE svg PUBLIC "-//W3C//DTD SVG 1.1//EN"
 "http://www.w3.org/Graphics/SVG/1.1/DTD/svg11.dtd">
<!-- Generated by graphviz version 2.36.0 (20140111.2315)
 -->
<!-- Title: TTimer Pages: 1 -->
<svg width="528pt" height="568pt"
 viewBox="0.00 0.00 528.00 568.00" xmlns="http://www.w3.org/2000/svg" xmlns:xlink="http://www.w3.org/1999/xlink">
<g id="graph0" class="graph" transform="scale(1 1) rotate(0) translate(4 564)">
<title>TTimer</title>
<polygon fill="white" stroke="none" points="-4,4 -4,-564 524,-564 524,4 -4,4"/>
<!-- Node1 -->
<g id="node1" class="node"><title>Node1</title>
<polygon fill="#bfbfbf" stroke="black" points="259.5,-185 259.5,-363 364.5,-363 364.5,-185 259.5,-185"/>
<text text-anchor="middle" x="312" y="-351" font-family="Helvetica,sans-Serif" font-size="10.00">TTimer</text>
<polyline fill="none" stroke="black" points="259.5,-344 364.5,-344 "/>
<text text-anchor="start" x="267.5" y="-332" font-family="Helvetica,sans-Serif" font-size="10.00">+ gkLoopIntervalMin</text>
<polyline fill="none" stroke="black" points="259.5,-325 364.5,-325 "/>
<text text-anchor="start" x="267.5" y="-313" font-family="Helvetica,sans-Serif" font-size="10.00">+ GetInterval()</text>
<text text-anchor="start" x="267.5" y="-302" font-family="Helvetica,sans-Serif" font-size="10.00">+ OnEvent()</text>
<text text-anchor="start" x="267.5" y="-291" font-family="Helvetica,sans-Serif" font-size="10.00">+ OnEvent()</text>
<text text-anchor="start" x="267.5" y="-280" font-family="Helvetica,sans-Serif" font-size="10.00">+ OnEvent()</text>
<text text-anchor="start" x="267.5" y="-269" font-family="Helvetica,sans-Serif" font-size="10.00">+ OnEvent()</text>
<text text-anchor="start" x="267.5" y="-258" font-family="Helvetica,sans-Serif" font-size="10.00">+ Start()</text>
<text text-anchor="start" x="267.5" y="-247" font-family="Helvetica,sans-Serif" font-size="10.00">+ Stop()</text>
<text text-anchor="start" x="267.5" y="-236" font-family="Helvetica,sans-Serif" font-size="10.00">+ CreateInstance()</text>
<text text-anchor="start" x="267.5" y="-225" font-family="Helvetica,sans-Serif" font-size="10.00">~ SendTimerEvent()</text>
<text text-anchor="start" x="267.5" y="-214" font-family="Helvetica,sans-Serif" font-size="10.00"># _Register()</text>
<text text-anchor="start" x="267.5" y="-203" font-family="Helvetica,sans-Serif" font-size="10.00">&#45; TTimer()</text>
<text text-anchor="start" x="267.5" y="-192" font-family="Helvetica,sans-Serif" font-size="10.00">&#45; _GetSaneInterval()</text>
</g>
<!-- Node5 -->
<g id="node5" class="node"><title>Node5</title>
<g id="a_node5"><a xlink:href="../../d0/d25/classppm__java_1_1backend_1_1module_1_1timer_1_1_t_timer_worker.html" target="_top" xlink:title="Internal worker thread. ">
<polygon fill="white" stroke="black" points="140,-1 140,-135 234,-135 234,-1 140,-1"/>
<text text-anchor="middle" x="187" y="-123" font-family="Helvetica,sans-Serif" font-size="10.00">TTimerWorker</text>
<polyline fill="none" stroke="black" points="140,-116 234,-116 "/>
<text text-anchor="start" x="148" y="-104" font-family="Helvetica,sans-Serif" font-size="10.00">&#45; gkLoopInterval</text>
<text text-anchor="start" x="148" y="-93" font-family="Helvetica,sans-Serif" font-size="10.00">&#45; gkStateRun</text>
<text text-anchor="start" x="148" y="-82" font-family="Helvetica,sans-Serif" font-size="10.00">&#45; gkStateStop</text>
<text text-anchor="start" x="148" y="-71" font-family="Helvetica,sans-Serif" font-size="10.00">&#45; gkStateWait</text>
<polyline fill="none" stroke="black" points="140,-64 234,-64 "/>
<text text-anchor="start" x="148" y="-52" font-family="Helvetica,sans-Serif" font-size="10.00">+ GetInterval()</text>
<text text-anchor="start" x="148" y="-41" font-family="Helvetica,sans-Serif" font-size="10.00">+ run()</text>
<text text-anchor="start" x="148" y="-30" font-family="Helvetica,sans-Serif" font-size="10.00">~ TTimerWorker()</text>
<text text-anchor="start" x="148" y="-19" font-family="Helvetica,sans-Serif" font-size="10.00">~ SetInterval()</text>
<text text-anchor="start" x="148" y="-8" font-family="Helvetica,sans-Serif" font-size="10.00">~ Stop()</text>
</a>
</g>
</g>
<!-- Node1&#45;&gt;Node5 -->
<g id="edge8" class="edge"><title>Node1&#45;&gt;Node5</title>
<path fill="none" stroke="#404040" d="M261.692,-184.93C255.484,-174.453 249.156,-163.952 243,-154 241.273,-151.208 239.501,-148.374 237.701,-145.518"/>
<polygon fill="none" stroke="#404040" points="237.527,-145.244 230.931,-142.329 231.085,-135.119 237.681,-138.034 237.527,-145.244"/>
<text text-anchor="middle" x="264.5" y="-157.5" font-family="Helvetica,sans-Serif" font-size="10.00"> &#45;fHost</text>
</g>
<!-- Node2 -->
<g id="node2" class="node"><title>Node2</title>
<g id="a_node2"><a xlink:href="../../de/dd1/classppm__java_1_1typelib_1_1_v_browseable.html" target="_top" xlink:title="Base class for all browseable objects. ">
<polygon fill="white" stroke="black" points="169.5,-441.5 169.5,-520.5 258.5,-520.5 258.5,-441.5 169.5,-441.5"/>
<text text-anchor="middle" x="214" y="-508.5" font-family="Helvetica,sans-Serif" font-size="10.00">VBrowseable</text>
<polyline fill="none" stroke="black" points="169.5,-501.5 258.5,-501.5 "/>
<text text-anchor="start" x="177.5" y="-489.5" font-family="Helvetica,sans-Serif" font-size="10.00">&#45; fID</text>
<polyline fill="none" stroke="black" points="169.5,-482.5 258.5,-482.5 "/>
<text text-anchor="start" x="177.5" y="-470.5" font-family="Helvetica,sans-Serif" font-size="10.00">+ VBrowseable()</text>
<text text-anchor="start" x="177.5" y="-459.5" font-family="Helvetica,sans-Serif" font-size="10.00">+ GetID()</text>
<text text-anchor="start" x="177.5" y="-448.5" font-family="Helvetica,sans-Serif" font-size="10.00"># _Register()</text>
</a>
</g>
</g>
<!-- Node2&#45;&gt;Node1 -->
<g id="edge1" class="edge"><title>Node2&#45;&gt;Node1</title>
<path fill="none" stroke="midnightblue" d="M236.811,-432.282C246.667,-411.666 258.524,-386.863 269.878,-363.112"/>
<polygon fill="none" stroke="midnightblue" points="233.588,-430.909 232.433,-441.441 239.904,-433.929 233.588,-430.909"/>
</g>
<!-- Node3 -->
<g id="node3" class="node"><title>Node3</title>
<g id="a_node3"><a xlink:href="../../db/d44/interfaceppm__java_1_1typelib_1_1_i_controllable.html" target="_top" xlink:title="A module or construct which can receive some low level control commands (start/stop etc...">
<polygon fill="white" stroke="black" points="276.5,-447 276.5,-515 347.5,-515 347.5,-447 276.5,-447"/>
<text text-anchor="middle" x="312" y="-503" font-family="Helvetica,sans-Serif" font-size="10.00">IControllable</text>
<polyline fill="none" stroke="black" points="276.5,-496 347.5,-496 "/>
<text text-anchor="middle" x="312" y="-484" font-family="Helvetica,sans-Serif" font-size="10.00"> </text>
<polyline fill="none" stroke="black" points="276.5,-477 347.5,-477 "/>
<text text-anchor="start" x="284.5" y="-465" font-family="Helvetica,sans-Serif" font-size="10.00">+ Start()</text>
<text text-anchor="start" x="284.5" y="-454" font-family="Helvetica,sans-Serif" font-size="10.00">+ Stop()</text>
</a>
</g>
</g>
<!-- Node3&#45;&gt;Node1 -->
<g id="edge2" class="edge"><title>Node3&#45;&gt;Node1</title>
<path fill="none" stroke="midnightblue" d="M312,-436.56C312,-415.187 312,-388.613 312,-363.23"/>
<polygon fill="none" stroke="midnightblue" points="308.5,-436.607 312,-446.607 315.5,-436.607 308.5,-436.607"/>
</g>
<!-- Node4 -->
<g id="node4" class="node"><title>Node4</title>
<g id="a_node4"><a xlink:href="../../df/dbb/interfaceppm__java_1_1typelib_1_1_i_evented.html" target="_top" xlink:title="Base interface for the event system. ">
<polygon fill="white" stroke="black" points="366,-403 366,-559 520,-559 520,-403 366,-403"/>
<text text-anchor="middle" x="443" y="-547" font-family="Helvetica,sans-Serif" font-size="10.00">IEvented</text>
<polyline fill="none" stroke="black" points="366,-540 520,-540 "/>
<text text-anchor="start" x="374" y="-528" font-family="Helvetica,sans-Serif" font-size="10.00">+ gkEventBufferNotifyOverrun</text>
<text text-anchor="start" x="374" y="-517" font-family="Helvetica,sans-Serif" font-size="10.00">+ gkEventBufferNotifyUnderrun</text>
<text text-anchor="start" x="374" y="-506" font-family="Helvetica,sans-Serif" font-size="10.00">+ gkEventStart</text>
<text text-anchor="start" x="374" y="-495" font-family="Helvetica,sans-Serif" font-size="10.00">+ gkEventStop</text>
<text text-anchor="start" x="374" y="-484" font-family="Helvetica,sans-Serif" font-size="10.00">+ gkEventTimerAdjustInterval</text>
<text text-anchor="start" x="374" y="-473" font-family="Helvetica,sans-Serif" font-size="10.00">+ gkEventTimerNotifyInterval</text>
<text text-anchor="start" x="374" y="-462" font-family="Helvetica,sans-Serif" font-size="10.00">+ gkEventTimerTick</text>
<polyline fill="none" stroke="black" points="366,-455 520,-455 "/>
<text text-anchor="start" x="374" y="-443" font-family="Helvetica,sans-Serif" font-size="10.00">+ OnEvent()</text>
<text text-anchor="start" x="374" y="-432" font-family="Helvetica,sans-Serif" font-size="10.00">+ OnEvent()</text>
<text text-anchor="start" x="374" y="-421" font-family="Helvetica,sans-Serif" font-size="10.00">+ OnEvent()</text>
<text text-anchor="start" x="374" y="-410" font-family="Helvetica,sans-Serif" font-size="10.00">+ OnEvent()</text>
</a>
</g>
</g>
<!-- Node4&#45;&gt;Node1 -->
<g id="edge3" class="edge"><title>Node4&#45;&gt;Node1</title>
<path fill="none" stroke="midnightblue" d="M388.271,-394.356C380.429,-382.084 372.375,-369.48 364.575,-357.274"/>
<polygon fill="none" stroke="midnightblue" points="385.327,-396.249 393.661,-402.79 391.226,-392.479 385.327,-396.249"/>
</g>
<!-- Node5&#45;&gt;Node1 -->
<g id="edge4" class="edge"><title>Node5&#45;&gt;Node1</title>
<path fill="none" stroke="#404040" d="M234.138,-93.6511C256.935,-108.101 282.451,-128.54 297,-154 300.475,-160.081 303.295,-166.618 305.574,-173.386"/>
<polygon fill="none" stroke="#404040" points="305.585,-173.427 311.094,-178.081 308.916,-184.955 303.408,-180.301 305.585,-173.427"/>
<text text-anchor="middle" x="323.5" y="-157.5" font-family="Helvetica,sans-Serif" font-size="10.00"> &#45;fWorker</text>
</g>
<!-- Node6 -->
<g id="node6" class="node"><title>Node6</title>
<polygon fill="white" stroke="#bfbfbf" points="-0.5,-245.5 -0.5,-302.5 46.5,-302.5 46.5,-245.5 -0.5,-245.5"/>
<text text-anchor="middle" x="23" y="-290.5" font-family="Helvetica,sans-Serif" font-size="10.00">Thread</text>
<polyline fill="none" stroke="#bfbfbf" points="-0.5,-283.5 46.5,-283.5 "/>
<text text-anchor="middle" x="23" y="-271.5" font-family="Helvetica,sans-Serif" font-size="10.00"> </text>
<polyline fill="none" stroke="#bfbfbf" points="-0.5,-264.5 46.5,-264.5 "/>
<text text-anchor="middle" x="23" y="-252.5" font-family="Helvetica,sans-Serif" font-size="10.00"> </text>
</g>
<!-- Node6&#45;&gt;Node5 -->
<g id="edge5" class="edge"><title>Node6&#45;&gt;Node5</title>
<path fill="none" stroke="midnightblue" d="M31.937,-235.251C37.0072,-218.607 44.487,-199.379 55,-184 77.5556,-151.005 111.768,-121.563 139.711,-100.731"/>
<polygon fill="none" stroke="midnightblue" points="28.4697,-234.647 29.0859,-245.224 35.2,-236.571 28.4697,-234.647"/>
</g>
<!-- Node7 -->
<g id="node7" class="node"><title>Node7</title>
<polygon fill="white" stroke="#bfbfbf" points="64.5,-245.5 64.5,-302.5 141.5,-302.5 141.5,-245.5 64.5,-245.5"/>
<text text-anchor="middle" x="103" y="-290.5" font-family="Helvetica,sans-Serif" font-size="10.00">AtomicInteger</text>
<polyline fill="none" stroke="#bfbfbf" points="64.5,-283.5 141.5,-283.5 "/>
<text text-anchor="middle" x="103" y="-271.5" font-family="Helvetica,sans-Serif" font-size="10.00"> </text>
<polyline fill="none" stroke="#bfbfbf" points="64.5,-264.5 141.5,-264.5 "/>
<text text-anchor="middle" x="103" y="-252.5" font-family="Helvetica,sans-Serif" font-size="10.00"> </text>
</g>
<!-- Node7&#45;&gt;Node5 -->
<g id="edge6" class="edge"><title>Node7&#45;&gt;Node5</title>
<path fill="none" stroke="#404040" d="M114.115,-245.053C123.758,-220.903 138.148,-185.087 151,-154 152.02,-151.533 153.059,-149.028 154.112,-146.499"/>
<polygon fill="none" stroke="#404040" points="154.161,-146.381 152.783,-139.303 158.786,-135.309 160.164,-142.387 154.161,-146.381"/>
<text text-anchor="middle" x="167.5" y="-157.5" font-family="Helvetica,sans-Serif" font-size="10.00"> &#45;fState</text>
</g>
<!-- Node8 -->
<g id="node8" class="node"><title>Node8</title>
<polygon fill="white" stroke="#bfbfbf" points="160,-245.5 160,-302.5 228,-302.5 228,-245.5 160,-245.5"/>
<text text-anchor="middle" x="194" y="-290.5" font-family="Helvetica,sans-Serif" font-size="10.00">AtomicLong</text>
<polyline fill="none" stroke="#bfbfbf" points="160,-283.5 228,-283.5 "/>
<text text-anchor="middle" x="194" y="-271.5" font-family="Helvetica,sans-Serif" font-size="10.00"> </text>
<polyline fill="none" stroke="#bfbfbf" points="160,-264.5 228,-264.5 "/>
<text text-anchor="middle" x="194" y="-252.5" font-family="Helvetica,sans-Serif" font-size="10.00"> </text>
</g>
<!-- Node8&#45;&gt;Node5 -->
<g id="edge7" class="edge"><title>Node8&#45;&gt;Node5</title>
<path fill="none" stroke="#404040" d="M192.099,-245.303C190.701,-223.71 188.894,-192.963 188,-166 187.798,-159.897 187.632,-153.577 187.498,-147.224"/>
<polygon fill="none" stroke="#404040" points="187.494,-147.012 183.386,-141.086 187.276,-135.014 191.384,-140.94 187.494,-147.012"/>
<text text-anchor="middle" x="215.5" y="-157.5" font-family="Helvetica,sans-Serif" font-size="10.00"> &#45;fIntervalMs</text>
</g>
</g>
</svg>
