<?xml version="1.0" encoding="UTF-8" standalone="no"?>
<!DOCTYPE svg PUBLIC "-//W3C//DTD SVG 1.1//EN"
 "http://www.w3.org/Graphics/SVG/1.1/DTD/svg11.dtd">
<!-- Generated by graphviz version 2.36.0 (20140111.2315)
 -->
<!-- Title: TNodePump_Endpoint_Out Pages: 1 -->
<svg width="158pt" height="748pt"
 viewBox="0.00 0.00 158.00 748.00" xmlns="http://www.w3.org/2000/svg" xmlns:xlink="http://www.w3.org/1999/xlink">
<g id="graph0" class="graph" transform="scale(1 1) rotate(0) translate(4 744)">
<title>TNodePump_Endpoint_Out</title>
<polygon fill="white" stroke="none" points="-4,4 -4,-744 154,-744 154,4 -4,4"/>
<!-- Node1 -->
<g id="node1" class="node"><title>Node1</title>
<polygon fill="#bfbfbf" stroke="black" points="-0.5,-1 -0.5,-69 150.5,-69 150.5,-1 -0.5,-1"/>
<text text-anchor="middle" x="75" y="-57" font-family="Helvetica,sans-Serif" font-size="10.00">TNodePump_Endpoint_Out</text>
<polyline fill="none" stroke="black" points="-0.5,-50 150.5,-50 "/>
<text text-anchor="middle" x="75" y="-38" font-family="Helvetica,sans-Serif" font-size="10.00"> </text>
<polyline fill="none" stroke="black" points="-0.5,-31 150.5,-31 "/>
<text text-anchor="start" x="7.5" y="-19" font-family="Helvetica,sans-Serif" font-size="10.00">+ TNodePump_Endpoint_Out()</text>
<text text-anchor="start" x="7.5" y="-8" font-family="Helvetica,sans-Serif" font-size="10.00"># _Register()</text>
</g>
<!-- Node2 -->
<g id="node2" class="node"><title>Node2</title>
<g id="a_node2"><a xlink:href="../../d8/db2/classppm__java_1_1typelib_1_1_v_audio_port___output___chunks___no_buffer.html" target="_top" xlink:title="Base class for an output that connects to an unbuffered input. ">
<polygon fill="white" stroke="black" points="1,-107 1,-241 149,-241 149,-107 1,-107"/>
<text text-anchor="start" x="9" y="-229" font-family="Helvetica,sans-Serif" font-size="10.00">VAudioPort_Output_Chunks</text>
<text text-anchor="middle" x="75" y="-218" font-family="Helvetica,sans-Serif" font-size="10.00">_NoBuffer</text>
<polyline fill="none" stroke="black" points="1,-211 149,-211 "/>
<text text-anchor="middle" x="75" y="-199" font-family="Helvetica,sans-Serif" font-size="10.00"> </text>
<polyline fill="none" stroke="black" points="1,-192 149,-192 "/>
<text text-anchor="start" x="9" y="-180" font-family="Helvetica,sans-Serif" font-size="10.00">+ PushPacket()</text>
<text text-anchor="start" x="9" y="-169" font-family="Helvetica,sans-Serif" font-size="10.00"># VAudioPort_Output_Chunks</text>
<text text-anchor="start" x="9" y="-158" font-family="Helvetica,sans-Serif" font-size="10.00">_NoBuffer()</text>
<text text-anchor="start" x="9" y="-147" font-family="Helvetica,sans-Serif" font-size="10.00"># _GetType()</text>
<text text-anchor="start" x="9" y="-136" font-family="Helvetica,sans-Serif" font-size="10.00"># _Visit()</text>
<text text-anchor="start" x="9" y="-125" font-family="Helvetica,sans-Serif" font-size="10.00"># _Visit()</text>
<text text-anchor="start" x="9" y="-114" font-family="Helvetica,sans-Serif" font-size="10.00"># _Visit()</text>
</a>
</g>
</g>
<!-- Node2&#45;&gt;Node1 -->
<g id="edge1" class="edge"><title>Node2&#45;&gt;Node1</title>
<path fill="none" stroke="midnightblue" d="M75,-96.7563C75,-87.056 75,-77.5656 75,-69.0765"/>
<polygon fill="none" stroke="midnightblue" points="71.5001,-96.9077 75,-106.908 78.5001,-96.9078 71.5001,-96.9077"/>
</g>
<!-- Node3 -->
<g id="node3" class="node"><title>Node3</title>
<g id="a_node3"><a xlink:href="../../df/d02/classppm__java_1_1typelib_1_1_v_audio_port___output.html" target="_top" xlink:title="Base class for an output audio port. ">
<polygon fill="white" stroke="black" points="17,-279 17,-413 133,-413 133,-279 17,-279"/>
<text text-anchor="middle" x="75" y="-401" font-family="Helvetica,sans-Serif" font-size="10.00">VAudioPort_Output</text>
<polyline fill="none" stroke="black" points="17,-394 133,-394 "/>
<text text-anchor="start" x="25" y="-382" font-family="Helvetica,sans-Serif" font-size="10.00">&#45; fTarget</text>
<polyline fill="none" stroke="black" points="17,-375 133,-375 "/>
<text text-anchor="start" x="25" y="-363" font-family="Helvetica,sans-Serif" font-size="10.00">+ VAudioPort_Output()</text>
<text text-anchor="start" x="25" y="-352" font-family="Helvetica,sans-Serif" font-size="10.00">+ SetTarget()</text>
<text text-anchor="start" x="25" y="-341" font-family="Helvetica,sans-Serif" font-size="10.00"># _GetTarget()</text>
<text text-anchor="start" x="25" y="-330" font-family="Helvetica,sans-Serif" font-size="10.00"># _SetTarget()</text>
<text text-anchor="start" x="25" y="-319" font-family="Helvetica,sans-Serif" font-size="10.00"># _SetTarget_Log()</text>
<text text-anchor="start" x="25" y="-308" font-family="Helvetica,sans-Serif" font-size="10.00"># _Visit()</text>
<text text-anchor="start" x="25" y="-297" font-family="Helvetica,sans-Serif" font-size="10.00"># _Visit()</text>
<text text-anchor="start" x="25" y="-286" font-family="Helvetica,sans-Serif" font-size="10.00"># _Visit()</text>
</a>
</g>
</g>
<!-- Node3&#45;&gt;Node2 -->
<g id="edge2" class="edge"><title>Node3&#45;&gt;Node2</title>
<path fill="none" stroke="midnightblue" d="M75,-268.513C75,-259.342 75,-250.037 75,-241.033"/>
<polygon fill="none" stroke="midnightblue" points="71.5001,-268.787 75,-278.787 78.5001,-268.787 71.5001,-268.787"/>
</g>
<!-- Node4 -->
<g id="node4" class="node"><title>Node4</title>
<g id="a_node4"><a xlink:href="../../de/dc9/classppm__java_1_1typelib_1_1_v_audio_port.html" target="_top" xlink:title="Base class for all audio ports. ">
<polygon fill="white" stroke="black" points="34.5,-450.5 34.5,-529.5 115.5,-529.5 115.5,-450.5 34.5,-450.5"/>
<text text-anchor="middle" x="75" y="-517.5" font-family="Helvetica,sans-Serif" font-size="10.00">VAudioPort</text>
<polyline fill="none" stroke="black" points="34.5,-510.5 115.5,-510.5 "/>
<text text-anchor="start" x="42.5" y="-498.5" font-family="Helvetica,sans-Serif" font-size="10.00">&#45; fHost</text>
<polyline fill="none" stroke="black" points="34.5,-491.5 115.5,-491.5 "/>
<text text-anchor="start" x="42.5" y="-479.5" font-family="Helvetica,sans-Serif" font-size="10.00">+ VAudioPort()</text>
<text text-anchor="start" x="42.5" y="-468.5" font-family="Helvetica,sans-Serif" font-size="10.00"># _GetHost()</text>
<text text-anchor="start" x="42.5" y="-457.5" font-family="Helvetica,sans-Serif" font-size="10.00"># _GetType()</text>
</a>
</g>
</g>
<!-- Node4&#45;&gt;Node3 -->
<g id="edge3" class="edge"><title>Node4&#45;&gt;Node3</title>
<path fill="none" stroke="midnightblue" d="M75,-440.195C75,-431.448 75,-422.201 75,-413.063"/>
<polygon fill="none" stroke="midnightblue" points="71.5001,-440.198 75,-450.198 78.5001,-440.198 71.5001,-440.198"/>
</g>
<!-- Node5 -->
<g id="node5" class="node"><title>Node5</title>
<g id="a_node5"><a xlink:href="../../d1/db3/classppm__java_1_1typelib_1_1_v_audio_object.html" target="_top" xlink:title="Base class for all browseable audio objects. ">
<polygon fill="white" stroke="black" points="29,-566.5 29,-623.5 121,-623.5 121,-566.5 29,-566.5"/>
<text text-anchor="middle" x="75" y="-611.5" font-family="Helvetica,sans-Serif" font-size="10.00">VAudioObject</text>
<polyline fill="none" stroke="black" points="29,-604.5 121,-604.5 "/>
<text text-anchor="middle" x="75" y="-592.5" font-family="Helvetica,sans-Serif" font-size="10.00"> </text>
<polyline fill="none" stroke="black" points="29,-585.5 121,-585.5 "/>
<text text-anchor="start" x="37" y="-573.5" font-family="Helvetica,sans-Serif" font-size="10.00">+ VAudioObject()</text>
</a>
</g>
</g>
<!-- Node5&#45;&gt;Node4 -->
<g id="edge4" class="edge"><title>Node5&#45;&gt;Node4</title>
<path fill="none" stroke="midnightblue" d="M75,-556.156C75,-547.473 75,-538.232 75,-529.52"/>
<polygon fill="none" stroke="midnightblue" points="71.5001,-556.398 75,-566.398 78.5001,-556.398 71.5001,-556.398"/>
</g>
<!-- Node6 -->
<g id="node6" class="node"><title>Node6</title>
<g id="a_node6"><a xlink:href="../../de/dd1/classppm__java_1_1typelib_1_1_v_browseable.html" target="_top" xlink:title="Base class for all browseable objects. ">
<polygon fill="white" stroke="black" points="30.5,-660.5 30.5,-739.5 119.5,-739.5 119.5,-660.5 30.5,-660.5"/>
<text text-anchor="middle" x="75" y="-727.5" font-family="Helvetica,sans-Serif" font-size="10.00">VBrowseable</text>
<polyline fill="none" stroke="black" points="30.5,-720.5 119.5,-720.5 "/>
<text text-anchor="start" x="38.5" y="-708.5" font-family="Helvetica,sans-Serif" font-size="10.00">&#45; fID</text>
<polyline fill="none" stroke="black" points="30.5,-701.5 119.5,-701.5 "/>
<text text-anchor="start" x="38.5" y="-689.5" font-family="Helvetica,sans-Serif" font-size="10.00">+ VBrowseable()</text>
<text text-anchor="start" x="38.5" y="-678.5" font-family="Helvetica,sans-Serif" font-size="10.00">+ GetID()</text>
<text text-anchor="start" x="38.5" y="-667.5" font-family="Helvetica,sans-Serif" font-size="10.00"># _Register()</text>
</a>
</g>
</g>
<!-- Node6&#45;&gt;Node5 -->
<g id="edge5" class="edge"><title>Node6&#45;&gt;Node5</title>
<path fill="none" stroke="midnightblue" d="M75,-650.163C75,-641.04 75,-631.806 75,-623.61"/>
<polygon fill="none" stroke="midnightblue" points="71.5001,-650.354 75,-660.354 78.5001,-650.354 71.5001,-650.354"/>
</g>
</g>
</svg>
