<?xml version="1.0" encoding="UTF-8" standalone="no"?>
<!DOCTYPE svg PUBLIC "-//W3C//DTD SVG 1.1//EN"
 "http://www.w3.org/Graphics/SVG/1.1/DTD/svg11.dtd">
<!-- Generated by graphviz version 2.36.0 (20140111.2315)
 -->
<!-- Title: IControllable Pages: 1 -->
<svg width="1053pt" height="458pt"
 viewBox="0.00 0.00 1053.00 458.00" xmlns="http://www.w3.org/2000/svg" xmlns:xlink="http://www.w3.org/1999/xlink">
<g id="graph0" class="graph" transform="scale(1 1) rotate(0) translate(4 454)">
<title>IControllable</title>
<polygon fill="white" stroke="none" points="-4,4 -4,-454 1049,-454 1049,4 -4,4"/>
<!-- Node1 -->
<g id="node1" class="node"><title>Node1</title>
<polygon fill="#bfbfbf" stroke="black" points="414.5,-381 414.5,-449 485.5,-449 485.5,-381 414.5,-381"/>
<text text-anchor="middle" x="450" y="-437" font-family="Helvetica,sans-Serif" font-size="10.00">IControllable</text>
<polyline fill="none" stroke="black" points="414.5,-430 485.5,-430 "/>
<text text-anchor="middle" x="450" y="-418" font-family="Helvetica,sans-Serif" font-size="10.00"> </text>
<polyline fill="none" stroke="black" points="414.5,-411 485.5,-411 "/>
<text text-anchor="start" x="422.5" y="-399" font-family="Helvetica,sans-Serif" font-size="10.00">+ Start()</text>
<text text-anchor="start" x="422.5" y="-388" font-family="Helvetica,sans-Serif" font-size="10.00">+ Stop()</text>
</g>
<!-- Node2 -->
<g id="node2" class="node"><title>Node2</title>
<g id="a_node2"><a xlink:href="../../d2/da1/classppm__java_1_1__dev_1_1concept_1_1example_1_1event_1_1_t_sink.html" target="_top" xlink:title="{TSink\n||+ TSink()\l+ OnEvent()\l+ Start()\l+ Stop()\l+ OnEvent()\l+ OnEvent()\l+ OnEvent()\l# _Register()\l}">
<polygon fill="white" stroke="black" points="-0.5,-105 -0.5,-239 72.5,-239 72.5,-105 -0.5,-105"/>
<text text-anchor="middle" x="36" y="-227" font-family="Helvetica,sans-Serif" font-size="10.00">TSink</text>
<polyline fill="none" stroke="black" points="-0.5,-220 72.5,-220 "/>
<text text-anchor="middle" x="36" y="-208" font-family="Helvetica,sans-Serif" font-size="10.00"> </text>
<polyline fill="none" stroke="black" points="-0.5,-201 72.5,-201 "/>
<text text-anchor="start" x="7.5" y="-189" font-family="Helvetica,sans-Serif" font-size="10.00">+ TSink()</text>
<text text-anchor="start" x="7.5" y="-178" font-family="Helvetica,sans-Serif" font-size="10.00">+ OnEvent()</text>
<text text-anchor="start" x="7.5" y="-167" font-family="Helvetica,sans-Serif" font-size="10.00">+ Start()</text>
<text text-anchor="start" x="7.5" y="-156" font-family="Helvetica,sans-Serif" font-size="10.00">+ Stop()</text>
<text text-anchor="start" x="7.5" y="-145" font-family="Helvetica,sans-Serif" font-size="10.00">+ OnEvent()</text>
<text text-anchor="start" x="7.5" y="-134" font-family="Helvetica,sans-Serif" font-size="10.00">+ OnEvent()</text>
<text text-anchor="start" x="7.5" y="-123" font-family="Helvetica,sans-Serif" font-size="10.00">+ OnEvent()</text>
<text text-anchor="start" x="7.5" y="-112" font-family="Helvetica,sans-Serif" font-size="10.00"># _Register()</text>
</a>
</g>
</g>
<!-- Node1&#45;&gt;Node2 -->
<g id="edge1" class="edge"><title>Node1&#45;&gt;Node2</title>
<path fill="none" stroke="midnightblue" d="M404.169,-411.295C315.994,-405.158 127.341,-387.213 81,-344 52.4864,-317.412 41.1887,-275.119 37.043,-239.248"/>
<polygon fill="none" stroke="midnightblue" points="404.195,-414.804 414.408,-411.985 404.666,-407.82 404.195,-414.804"/>
</g>
<!-- Node3 -->
<g id="node3" class="node"><title>Node3</title>
<g id="a_node3"><a xlink:href="../../da/d60/classppm__java_1_1__dev_1_1concept_1_1example_1_1event_1_1_t_source.html" target="_top" xlink:title="{TSource\n||+ TSource()\l+ Start()\l+ Stop()\l+ OnEvent()\l+ OnEvent()\l+ OnEvent()\l+ OnEvent()\l# _Register()\l}">
<polygon fill="white" stroke="black" points="90.5,-105 90.5,-239 163.5,-239 163.5,-105 90.5,-105"/>
<text text-anchor="middle" x="127" y="-227" font-family="Helvetica,sans-Serif" font-size="10.00">TSource</text>
<polyline fill="none" stroke="black" points="90.5,-220 163.5,-220 "/>
<text text-anchor="middle" x="127" y="-208" font-family="Helvetica,sans-Serif" font-size="10.00"> </text>
<polyline fill="none" stroke="black" points="90.5,-201 163.5,-201 "/>
<text text-anchor="start" x="98.5" y="-189" font-family="Helvetica,sans-Serif" font-size="10.00">+ TSource()</text>
<text text-anchor="start" x="98.5" y="-178" font-family="Helvetica,sans-Serif" font-size="10.00">+ Start()</text>
<text text-anchor="start" x="98.5" y="-167" font-family="Helvetica,sans-Serif" font-size="10.00">+ Stop()</text>
<text text-anchor="start" x="98.5" y="-156" font-family="Helvetica,sans-Serif" font-size="10.00">+ OnEvent()</text>
<text text-anchor="start" x="98.5" y="-145" font-family="Helvetica,sans-Serif" font-size="10.00">+ OnEvent()</text>
<text text-anchor="start" x="98.5" y="-134" font-family="Helvetica,sans-Serif" font-size="10.00">+ OnEvent()</text>
<text text-anchor="start" x="98.5" y="-123" font-family="Helvetica,sans-Serif" font-size="10.00">+ OnEvent()</text>
<text text-anchor="start" x="98.5" y="-112" font-family="Helvetica,sans-Serif" font-size="10.00"># _Register()</text>
</a>
</g>
</g>
<!-- Node1&#45;&gt;Node3 -->
<g id="edge2" class="edge"><title>Node1&#45;&gt;Node3</title>
<path fill="none" stroke="midnightblue" d="M404.095,-408.072C334.127,-398.129 205.48,-375.989 173,-344 145.292,-316.711 133.735,-274.638 129.133,-239.054"/>
<polygon fill="none" stroke="midnightblue" points="403.998,-411.592 414.385,-409.506 404.964,-404.659 403.998,-411.592"/>
</g>
<!-- Node4 -->
<g id="node4" class="node"><title>Node4</title>
<g id="a_node4"><a xlink:href="../../dc/da9/classppm__java_1_1backend_1_1module_1_1jackd_1_1_t_audio_context___jack_d.html" target="_top" xlink:title="Audio driver for the JackD server. ">
<polygon fill="white" stroke="black" points="182,-55.5 182,-288.5 310,-288.5 310,-55.5 182,-55.5"/>
<text text-anchor="middle" x="246" y="-276.5" font-family="Helvetica,sans-Serif" font-size="10.00">TAudioContext_JackD</text>
<polyline fill="none" stroke="black" points="182,-269.5 310,-269.5 "/>
<text text-anchor="start" x="190" y="-257.5" font-family="Helvetica,sans-Serif" font-size="10.00">&#45; fIsWorking</text>
<text text-anchor="start" x="190" y="-246.5" font-family="Helvetica,sans-Serif" font-size="10.00">&#45; fSampleRate</text>
<text text-anchor="start" x="190" y="-235.5" font-family="Helvetica,sans-Serif" font-size="10.00">&#45; fStats</text>
<text text-anchor="start" x="190" y="-224.5" font-family="Helvetica,sans-Serif" font-size="10.00">&#45; gContext</text>
<polyline fill="none" stroke="black" points="182,-217.5 310,-217.5 "/>
<text text-anchor="start" x="190" y="-205.5" font-family="Helvetica,sans-Serif" font-size="10.00">+ CreatePort_Out()</text>
<text text-anchor="start" x="190" y="-194.5" font-family="Helvetica,sans-Serif" font-size="10.00">+ GetSampleRate()</text>
<text text-anchor="start" x="190" y="-183.5" font-family="Helvetica,sans-Serif" font-size="10.00">+ IsWorking()</text>
<text text-anchor="start" x="190" y="-172.5" font-family="Helvetica,sans-Serif" font-size="10.00">+ process()</text>
<text text-anchor="start" x="190" y="-161.5" font-family="Helvetica,sans-Serif" font-size="10.00">+ Start()</text>
<text text-anchor="start" x="190" y="-150.5" font-family="Helvetica,sans-Serif" font-size="10.00">+ StatsGet()</text>
<text text-anchor="start" x="190" y="-139.5" font-family="Helvetica,sans-Serif" font-size="10.00">+ Stop()</text>
<text text-anchor="start" x="190" y="-128.5" font-family="Helvetica,sans-Serif" font-size="10.00">+ CreateInstance()</text>
<text text-anchor="start" x="190" y="-117.5" font-family="Helvetica,sans-Serif" font-size="10.00"># _Register()</text>
<text text-anchor="start" x="190" y="-106.5" font-family="Helvetica,sans-Serif" font-size="10.00">&#45; TAudioContext_JackD()</text>
<text text-anchor="start" x="190" y="-95.5" font-family="Helvetica,sans-Serif" font-size="10.00">&#45; _LoadDriver()</text>
<text text-anchor="start" x="190" y="-84.5" font-family="Helvetica,sans-Serif" font-size="10.00">&#45; _ProcessInputs()</text>
<text text-anchor="start" x="190" y="-73.5" font-family="Helvetica,sans-Serif" font-size="10.00">&#45; _ProcessOutputs()</text>
<text text-anchor="start" x="190" y="-62.5" font-family="Helvetica,sans-Serif" font-size="10.00">&#45; _StopDriver()</text>
</a>
</g>
</g>
<!-- Node1&#45;&gt;Node4 -->
<g id="edge3" class="edge"><title>Node1&#45;&gt;Node4</title>
<path fill="none" stroke="midnightblue" d="M404.84,-398.749C377.003,-387.389 342.297,-369.425 319,-344 304.389,-328.055 292.425,-308.743 282.725,-288.919"/>
<polygon fill="none" stroke="midnightblue" points="403.783,-402.093 414.37,-402.493 406.343,-395.578 403.783,-402.093"/>
</g>
<!-- Node5 -->
<g id="node5" class="node"><title>Node5</title>
<g id="a_node5"><a xlink:href="../../d6/da9/classppm__java_1_1backend_1_1module_1_1timer_1_1_t_timer.html" target="_top" xlink:title="Emits a constant stream of IEvented#gkEventTimerTick events, on event per given interval. ">
<polygon fill="white" stroke="black" points="328.5,-77.5 328.5,-266.5 433.5,-266.5 433.5,-77.5 328.5,-77.5"/>
<text text-anchor="middle" x="381" y="-254.5" font-family="Helvetica,sans-Serif" font-size="10.00">TTimer</text>
<polyline fill="none" stroke="black" points="328.5,-247.5 433.5,-247.5 "/>
<text text-anchor="start" x="336.5" y="-235.5" font-family="Helvetica,sans-Serif" font-size="10.00">+ gkLoopIntervalMin</text>
<text text-anchor="start" x="336.5" y="-224.5" font-family="Helvetica,sans-Serif" font-size="10.00">&#45; fWorker</text>
<polyline fill="none" stroke="black" points="328.5,-217.5 433.5,-217.5 "/>
<text text-anchor="start" x="336.5" y="-205.5" font-family="Helvetica,sans-Serif" font-size="10.00">+ GetInterval()</text>
<text text-anchor="start" x="336.5" y="-194.5" font-family="Helvetica,sans-Serif" font-size="10.00">+ OnEvent()</text>
<text text-anchor="start" x="336.5" y="-183.5" font-family="Helvetica,sans-Serif" font-size="10.00">+ OnEvent()</text>
<text text-anchor="start" x="336.5" y="-172.5" font-family="Helvetica,sans-Serif" font-size="10.00">+ OnEvent()</text>
<text text-anchor="start" x="336.5" y="-161.5" font-family="Helvetica,sans-Serif" font-size="10.00">+ OnEvent()</text>
<text text-anchor="start" x="336.5" y="-150.5" font-family="Helvetica,sans-Serif" font-size="10.00">+ Start()</text>
<text text-anchor="start" x="336.5" y="-139.5" font-family="Helvetica,sans-Serif" font-size="10.00">+ Stop()</text>
<text text-anchor="start" x="336.5" y="-128.5" font-family="Helvetica,sans-Serif" font-size="10.00">+ CreateInstance()</text>
<text text-anchor="start" x="336.5" y="-117.5" font-family="Helvetica,sans-Serif" font-size="10.00">~ SendTimerEvent()</text>
<text text-anchor="start" x="336.5" y="-106.5" font-family="Helvetica,sans-Serif" font-size="10.00"># _Register()</text>
<text text-anchor="start" x="336.5" y="-95.5" font-family="Helvetica,sans-Serif" font-size="10.00">&#45; TTimer()</text>
<text text-anchor="start" x="336.5" y="-84.5" font-family="Helvetica,sans-Serif" font-size="10.00">&#45; _GetSaneInterval()</text>
</a>
</g>
</g>
<!-- Node1&#45;&gt;Node5 -->
<g id="edge4" class="edge"><title>Node1&#45;&gt;Node5</title>
<path fill="none" stroke="midnightblue" d="M437.744,-371.193C429.437,-342.18 418.132,-302.691 407.797,-266.597"/>
<polygon fill="none" stroke="midnightblue" points="434.433,-372.345 440.551,-380.995 441.163,-370.418 434.433,-372.345"/>
</g>
<!-- Node6 -->
<g id="node6" class="node"><title>Node6</title>
<g id="a_node6"><a xlink:href="../../db/d79/classppm__java_1_1frontend_1_1console_1_1lineargauge_1_1_t_console___linear_gauge.html" target="_top" xlink:title="A linear gauge on the console. ">
<polygon fill="white" stroke="black" points="452,-0.5 452,-343.5 586,-343.5 586,-0.5 452,-0.5"/>
<text text-anchor="middle" x="519" y="-331.5" font-family="Helvetica,sans-Serif" font-size="10.00">TConsole_LinearGauge</text>
<polyline fill="none" stroke="black" points="452,-324.5 586,-324.5 "/>
<text text-anchor="start" x="460" y="-312.5" font-family="Helvetica,sans-Serif" font-size="10.00">~ gkNumSections</text>
<text text-anchor="start" x="460" y="-301.5" font-family="Helvetica,sans-Serif" font-size="10.00">&#45; fBarLen</text>
<text text-anchor="start" x="460" y="-290.5" font-family="Helvetica,sans-Serif" font-size="10.00">&#45; fEmptyBar</text>
<text text-anchor="start" x="460" y="-279.5" font-family="Helvetica,sans-Serif" font-size="10.00">&#45; fFramebar</text>
<text text-anchor="start" x="460" y="-268.5" font-family="Helvetica,sans-Serif" font-size="10.00">&#45; fMeterL</text>
<text text-anchor="start" x="460" y="-257.5" font-family="Helvetica,sans-Serif" font-size="10.00">&#45; fMeterR</text>
<text text-anchor="start" x="460" y="-246.5" font-family="Helvetica,sans-Serif" font-size="10.00">&#45; fNumBar</text>
<text text-anchor="start" x="460" y="-235.5" font-family="Helvetica,sans-Serif" font-size="10.00">&#45; fNumColsPerSection</text>
<text text-anchor="start" x="460" y="-224.5" font-family="Helvetica,sans-Serif" font-size="10.00">&#45; fRefreshTimer</text>
<text text-anchor="start" x="460" y="-213.5" font-family="Helvetica,sans-Serif" font-size="10.00">&#45; gkAnsiCursorPosBottom</text>
<text text-anchor="start" x="460" y="-202.5" font-family="Helvetica,sans-Serif" font-size="10.00">&#45; gkAnsiCursorPosTop</text>
<text text-anchor="start" x="460" y="-191.5" font-family="Helvetica,sans-Serif" font-size="10.00">&#45; gkAnsiCursorPosMeterL</text>
<text text-anchor="start" x="460" y="-180.5" font-family="Helvetica,sans-Serif" font-size="10.00">&#45; gkAnsiCursorPosMeterR</text>
<text text-anchor="start" x="460" y="-169.5" font-family="Helvetica,sans-Serif" font-size="10.00">&#45; gkAnsiScreenClear</text>
<text text-anchor="start" x="460" y="-158.5" font-family="Helvetica,sans-Serif" font-size="10.00">&#45; gkBarLenMax</text>
<text text-anchor="start" x="460" y="-147.5" font-family="Helvetica,sans-Serif" font-size="10.00">&#45; gkBarLenMin</text>
<text text-anchor="start" x="460" y="-136.5" font-family="Helvetica,sans-Serif" font-size="10.00">&#45; gkRefreshInterval</text>
<text text-anchor="start" x="460" y="-125.5" font-family="Helvetica,sans-Serif" font-size="10.00">&#45; gkTickmarkChar</text>
<polyline fill="none" stroke="black" points="452,-118.5 586,-118.5 "/>
<text text-anchor="start" x="460" y="-106.5" font-family="Helvetica,sans-Serif" font-size="10.00">+ TConsole_LinearGauge()</text>
<text text-anchor="start" x="460" y="-95.5" font-family="Helvetica,sans-Serif" font-size="10.00">+ CreatePort_In()</text>
<text text-anchor="start" x="460" y="-84.5" font-family="Helvetica,sans-Serif" font-size="10.00">+ Start()</text>
<text text-anchor="start" x="460" y="-73.5" font-family="Helvetica,sans-Serif" font-size="10.00">+ Stop()</text>
<text text-anchor="start" x="460" y="-62.5" font-family="Helvetica,sans-Serif" font-size="10.00">+ CreateInstance()</text>
<text text-anchor="start" x="460" y="-51.5" font-family="Helvetica,sans-Serif" font-size="10.00">~ _Receive()</text>
<text text-anchor="start" x="460" y="-40.5" font-family="Helvetica,sans-Serif" font-size="10.00"># _Register()</text>
<text text-anchor="start" x="460" y="-29.5" font-family="Helvetica,sans-Serif" font-size="10.00">&#45; _Init()</text>
<text text-anchor="start" x="460" y="-18.5" font-family="Helvetica,sans-Serif" font-size="10.00">&#45; _RefreshFrame()</text>
<text text-anchor="start" x="460" y="-7.5" font-family="Helvetica,sans-Serif" font-size="10.00">&#45; _RefreshUI()</text>
</a>
</g>
</g>
<!-- Node1&#45;&gt;Node6 -->
<g id="edge5" class="edge"><title>Node1&#45;&gt;Node6</title>
<path fill="none" stroke="midnightblue" d="M462.243,-371.238C464.64,-362.866 467.287,-353.62 470.089,-343.834"/>
<polygon fill="none" stroke="midnightblue" points="458.837,-370.418 459.449,-380.995 465.567,-372.345 458.837,-370.418"/>
</g>
<!-- Node7 -->
<g id="node7" class="node"><title>Node7</title>
<g id="a_node7"><a xlink:href="../../dc/de5/classppm__java_1_1frontend_1_1console_1_1text_1_1_t_console___text_out.html" target="_top" xlink:title="A simple text&#45;only frontend. ">
<polygon fill="white" stroke="black" points="604.5,-77.5 604.5,-266.5 723.5,-266.5 723.5,-77.5 604.5,-77.5"/>
<text text-anchor="middle" x="664" y="-254.5" font-family="Helvetica,sans-Serif" font-size="10.00">TConsole_TextOut</text>
<polyline fill="none" stroke="black" points="604.5,-247.5 723.5,-247.5 "/>
<text text-anchor="start" x="612.5" y="-235.5" font-family="Helvetica,sans-Serif" font-size="10.00">&#45; gkRecordTypeInfo</text>
<text text-anchor="start" x="612.5" y="-224.5" font-family="Helvetica,sans-Serif" font-size="10.00">&#45; gkRecordTypeSample</text>
<polyline fill="none" stroke="black" points="604.5,-217.5 723.5,-217.5 "/>
<text text-anchor="start" x="612.5" y="-205.5" font-family="Helvetica,sans-Serif" font-size="10.00">+ CreatePort_In()</text>
<text text-anchor="start" x="612.5" y="-194.5" font-family="Helvetica,sans-Serif" font-size="10.00">+ OnEvent()</text>
<text text-anchor="start" x="612.5" y="-183.5" font-family="Helvetica,sans-Serif" font-size="10.00">+ OnEvent()</text>
<text text-anchor="start" x="612.5" y="-172.5" font-family="Helvetica,sans-Serif" font-size="10.00">+ OnEvent()</text>
<text text-anchor="start" x="612.5" y="-161.5" font-family="Helvetica,sans-Serif" font-size="10.00">+ OnEvent()</text>
<text text-anchor="start" x="612.5" y="-150.5" font-family="Helvetica,sans-Serif" font-size="10.00">+ Start()</text>
<text text-anchor="start" x="612.5" y="-139.5" font-family="Helvetica,sans-Serif" font-size="10.00">+ Stop()</text>
<text text-anchor="start" x="612.5" y="-128.5" font-family="Helvetica,sans-Serif" font-size="10.00">+ CreateInstance()</text>
<text text-anchor="start" x="612.5" y="-117.5" font-family="Helvetica,sans-Serif" font-size="10.00">~ Receive()</text>
<text text-anchor="start" x="612.5" y="-106.5" font-family="Helvetica,sans-Serif" font-size="10.00"># _Register()</text>
<text text-anchor="start" x="612.5" y="-95.5" font-family="Helvetica,sans-Serif" font-size="10.00">&#45; TConsole_TextOut()</text>
<text text-anchor="start" x="612.5" y="-84.5" font-family="Helvetica,sans-Serif" font-size="10.00">&#45; _PushRecord()</text>
</a>
</g>
</g>
<!-- Node1&#45;&gt;Node7 -->
<g id="edge6" class="edge"><title>Node1&#45;&gt;Node7</title>
<path fill="none" stroke="midnightblue" d="M495.651,-401.58C527.217,-390.912 568.199,-372.638 595,-344 615.234,-322.379 629.855,-294.057 640.276,-266.7"/>
<polygon fill="none" stroke="midnightblue" points="494.199,-398.371 485.763,-404.78 496.354,-405.031 494.199,-398.371"/>
</g>
<!-- Node8 -->
<g id="node8" class="node"><title>Node8</title>
<g id="a_node8"><a xlink:href="../../d2/dd7/classppm__java_1_1frontend_1_1gui_1_1lineargauge_1_1_t_g_u_i_linear_gauge___surrogate.html" target="_top" xlink:title="The UI controller. ">
<polygon fill="white" stroke="black" points="741.5,-72 741.5,-272 896.5,-272 896.5,-72 741.5,-72"/>
<text text-anchor="middle" x="819" y="-260" font-family="Helvetica,sans-Serif" font-size="10.00">TGUILinearGauge_Surrogate</text>
<polyline fill="none" stroke="black" points="741.5,-253 896.5,-253 "/>
<text text-anchor="start" x="749.5" y="-241" font-family="Helvetica,sans-Serif" font-size="10.00">&#45; fGUI</text>
<text text-anchor="start" x="749.5" y="-230" font-family="Helvetica,sans-Serif" font-size="10.00">&#45; fStat</text>
<text text-anchor="start" x="749.5" y="-219" font-family="Helvetica,sans-Serif" font-size="10.00">&#45; gGUI</text>
<text text-anchor="start" x="749.5" y="-208" font-family="Helvetica,sans-Serif" font-size="10.00">&#45; gkLvlClip</text>
<text text-anchor="start" x="749.5" y="-197" font-family="Helvetica,sans-Serif" font-size="10.00">&#45; gkLvlWarn</text>
<polyline fill="none" stroke="black" points="741.5,-190 896.5,-190 "/>
<text text-anchor="start" x="749.5" y="-178" font-family="Helvetica,sans-Serif" font-size="10.00">+ CreatePort_In()</text>
<text text-anchor="start" x="749.5" y="-167" font-family="Helvetica,sans-Serif" font-size="10.00">+ Start()</text>
<text text-anchor="start" x="749.5" y="-156" font-family="Helvetica,sans-Serif" font-size="10.00">+ StatsGet()</text>
<text text-anchor="start" x="749.5" y="-145" font-family="Helvetica,sans-Serif" font-size="10.00">+ Stop()</text>
<text text-anchor="start" x="749.5" y="-134" font-family="Helvetica,sans-Serif" font-size="10.00">+ CreateInstance()</text>
<text text-anchor="start" x="749.5" y="-123" font-family="Helvetica,sans-Serif" font-size="10.00">~ OnSigClip_Click()</text>
<text text-anchor="start" x="749.5" y="-112" font-family="Helvetica,sans-Serif" font-size="10.00">~ OnTerminate()</text>
<text text-anchor="start" x="749.5" y="-101" font-family="Helvetica,sans-Serif" font-size="10.00">~ SetLevel()</text>
<text text-anchor="start" x="749.5" y="-90" font-family="Helvetica,sans-Serif" font-size="10.00"># _Register()</text>
<text text-anchor="start" x="749.5" y="-79" font-family="Helvetica,sans-Serif" font-size="10.00">&#45; TGUILinearGauge_Surrogate()</text>
</a>
</g>
</g>
<!-- Node1&#45;&gt;Node8 -->
<g id="edge7" class="edge"><title>Node1&#45;&gt;Node8</title>
<path fill="none" stroke="midnightblue" d="M496.084,-413.911C556.503,-411.476 662.904,-398.937 732,-344 755.335,-325.447 772.987,-298.966 786.078,-272.368"/>
<polygon fill="none" stroke="midnightblue" points="495.598,-410.425 485.717,-414.247 495.825,-417.421 495.598,-410.425"/>
</g>
<!-- Node9 -->
<g id="node9" class="node"><title>Node9</title>
<g id="a_node9"><a xlink:href="../../d5/d13/classppm__java_1_1frontend_1_1gui_1_1needle_1_1_t_g_u_i_needle___surrogate.html" target="_top" xlink:title="The UI controller. ">
<polygon fill="white" stroke="black" points="914.5,-77.5 914.5,-266.5 1045.5,-266.5 1045.5,-77.5 914.5,-77.5"/>
<text text-anchor="middle" x="980" y="-254.5" font-family="Helvetica,sans-Serif" font-size="10.00">TGUINeedle_Surrogate</text>
<polyline fill="none" stroke="black" points="914.5,-247.5 1045.5,-247.5 "/>
<text text-anchor="start" x="922.5" y="-235.5" font-family="Helvetica,sans-Serif" font-size="10.00">&#45; fGUI</text>
<text text-anchor="start" x="922.5" y="-224.5" font-family="Helvetica,sans-Serif" font-size="10.00">&#45; fStat</text>
<text text-anchor="start" x="922.5" y="-213.5" font-family="Helvetica,sans-Serif" font-size="10.00">&#45; gGUI</text>
<text text-anchor="start" x="922.5" y="-202.5" font-family="Helvetica,sans-Serif" font-size="10.00">&#45; gkLvlClip</text>
<text text-anchor="start" x="922.5" y="-191.5" font-family="Helvetica,sans-Serif" font-size="10.00">&#45; gkLvlWarn</text>
<polyline fill="none" stroke="black" points="914.5,-184.5 1045.5,-184.5 "/>
<text text-anchor="start" x="922.5" y="-172.5" font-family="Helvetica,sans-Serif" font-size="10.00">+ CreatePort_In()</text>
<text text-anchor="start" x="922.5" y="-161.5" font-family="Helvetica,sans-Serif" font-size="10.00">+ Start()</text>
<text text-anchor="start" x="922.5" y="-150.5" font-family="Helvetica,sans-Serif" font-size="10.00">+ StatsGet()</text>
<text text-anchor="start" x="922.5" y="-139.5" font-family="Helvetica,sans-Serif" font-size="10.00">+ Stop()</text>
<text text-anchor="start" x="922.5" y="-128.5" font-family="Helvetica,sans-Serif" font-size="10.00">+ CreateInstance()</text>
<text text-anchor="start" x="922.5" y="-117.5" font-family="Helvetica,sans-Serif" font-size="10.00">~ OnTerminate()</text>
<text text-anchor="start" x="922.5" y="-106.5" font-family="Helvetica,sans-Serif" font-size="10.00">~ SetLevel()</text>
<text text-anchor="start" x="922.5" y="-95.5" font-family="Helvetica,sans-Serif" font-size="10.00"># _Register()</text>
<text text-anchor="start" x="922.5" y="-84.5" font-family="Helvetica,sans-Serif" font-size="10.00">&#45; TGUINeedle_Surrogate()</text>
</a>
</g>
</g>
<!-- Node1&#45;&gt;Node9 -->
<g id="edge8" class="edge"><title>Node1&#45;&gt;Node9</title>
<path fill="none" stroke="midnightblue" d="M495.756,-412.446C598.082,-408.119 841.427,-392.838 905,-344 929.936,-324.844 946.743,-295.654 958.001,-266.784"/>
<polygon fill="none" stroke="midnightblue" points="495.574,-408.95 485.725,-412.854 495.859,-415.945 495.574,-408.95"/>
</g>
</g>
</svg>
