<?xml version="1.0" encoding="UTF-8" standalone="no"?>
<!DOCTYPE svg PUBLIC "-//W3C//DTD SVG 1.1//EN"
 "http://www.w3.org/Graphics/SVG/1.1/DTD/svg11.dtd">
<!-- Generated by graphviz version 2.36.0 (20140111.2315)
 -->
<!-- Title: TNodeIntegrator_PPMBallistics Pages: 1 -->
<svg width="555pt" height="932pt"
 viewBox="0.00 0.00 555.00 932.00" xmlns="http://www.w3.org/2000/svg" xmlns:xlink="http://www.w3.org/1999/xlink">
<g id="graph0" class="graph" transform="scale(1 1) rotate(0) translate(4 928)">
<title>TNodeIntegrator_PPMBallistics</title>
<polygon fill="white" stroke="none" points="-4,4 -4,-928 551,-928 551,4 -4,4"/>
<!-- Node1 -->
<g id="node1" class="node"><title>Node1</title>
<polygon fill="#bfbfbf" stroke="black" points="222,-216.5 222,-471.5 388,-471.5 388,-216.5 222,-216.5"/>
<text text-anchor="middle" x="305" y="-459.5" font-family="Helvetica,sans-Serif" font-size="10.00">TNodeIntegrator_PPMBallistics</text>
<polyline fill="none" stroke="black" points="222,-452.5 388,-452.5 "/>
<text text-anchor="start" x="230" y="-440.5" font-family="Helvetica,sans-Serif" font-size="10.00">&#45; fHasNotBeenInitialized</text>
<text text-anchor="start" x="230" y="-429.5" font-family="Helvetica,sans-Serif" font-size="10.00">&#45; fTLast</text>
<text text-anchor="start" x="230" y="-418.5" font-family="Helvetica,sans-Serif" font-size="10.00">&#45; fValueDeltaFall</text>
<text text-anchor="start" x="230" y="-407.5" font-family="Helvetica,sans-Serif" font-size="10.00">&#45; fValueDeltaRise</text>
<text text-anchor="start" x="230" y="-396.5" font-family="Helvetica,sans-Serif" font-size="10.00">&#45; fVDB</text>
<text text-anchor="start" x="230" y="-385.5" font-family="Helvetica,sans-Serif" font-size="10.00">&#45; gkIntegrFallRangedB</text>
<text text-anchor="start" x="230" y="-374.5" font-family="Helvetica,sans-Serif" font-size="10.00">&#45; gkIntegrFallTime</text>
<text text-anchor="start" x="230" y="-363.5" font-family="Helvetica,sans-Serif" font-size="10.00">&#45; gkIntegrRiseRangedB</text>
<text text-anchor="start" x="230" y="-352.5" font-family="Helvetica,sans-Serif" font-size="10.00">&#45; gkIntegrRiseTime</text>
<polyline fill="none" stroke="black" points="222,-345.5 388,-345.5 "/>
<text text-anchor="start" x="230" y="-333.5" font-family="Helvetica,sans-Serif" font-size="10.00">+ CreatePort_In()</text>
<text text-anchor="start" x="230" y="-322.5" font-family="Helvetica,sans-Serif" font-size="10.00">+ CreatePort_Out()</text>
<text text-anchor="start" x="230" y="-311.5" font-family="Helvetica,sans-Serif" font-size="10.00">+ OnEvent()</text>
<text text-anchor="start" x="230" y="-300.5" font-family="Helvetica,sans-Serif" font-size="10.00">+ OnEvent()</text>
<text text-anchor="start" x="230" y="-289.5" font-family="Helvetica,sans-Serif" font-size="10.00">+ OnEvent()</text>
<text text-anchor="start" x="230" y="-278.5" font-family="Helvetica,sans-Serif" font-size="10.00">+ OnEvent()</text>
<text text-anchor="start" x="230" y="-267.5" font-family="Helvetica,sans-Serif" font-size="10.00">+ StatsGet()</text>
<text text-anchor="start" x="230" y="-256.5" font-family="Helvetica,sans-Serif" font-size="10.00">+ CreateInstance()</text>
<text text-anchor="start" x="230" y="-245.5" font-family="Helvetica,sans-Serif" font-size="10.00">~ SetRef()</text>
<text text-anchor="start" x="230" y="-234.5" font-family="Helvetica,sans-Serif" font-size="10.00"># _Register()</text>
<text text-anchor="start" x="230" y="-223.5" font-family="Helvetica,sans-Serif" font-size="10.00">&#45; TNodeIntegrator_PPMBallistics()</text>
</g>
<!-- Node9 -->
<g id="node9" class="node"><title>Node9</title>
<g id="a_node9"><a xlink:href="../../d6/d19/classppm__java_1_1backend_1_1module_1_1integrator_1_1_t_node_integrator___p_p_m_ballistics___stats.html" target="_top" xlink:title="Runtime statistics of a TNodeIntegrator_PPMBallistics. ">
<polygon fill="white" stroke="black" points="120.5,-1 120.5,-135 283.5,-135 283.5,-1 120.5,-1"/>
<text text-anchor="start" x="128.5" y="-123" font-family="Helvetica,sans-Serif" font-size="10.00">TNodeIntegrator_PPMBallistics</text>
<text text-anchor="middle" x="202" y="-112" font-family="Helvetica,sans-Serif" font-size="10.00">_Stats</text>
<polyline fill="none" stroke="black" points="120.5,-105 283.5,-105 "/>
<text text-anchor="middle" x="202" y="-93" font-family="Helvetica,sans-Serif" font-size="10.00"> </text>
<polyline fill="none" stroke="black" points="120.5,-86 283.5,-86 "/>
<text text-anchor="start" x="128.5" y="-74" font-family="Helvetica,sans-Serif" font-size="10.00">+ TNodeIntegrator_PPMBallistics</text>
<text text-anchor="start" x="128.5" y="-63" font-family="Helvetica,sans-Serif" font-size="10.00">_Stats()</text>
<text text-anchor="start" x="128.5" y="-52" font-family="Helvetica,sans-Serif" font-size="10.00">+ GetDumpStr()</text>
<text text-anchor="start" x="128.5" y="-41" font-family="Helvetica,sans-Serif" font-size="10.00">~ SetTimeCycle()</text>
<text text-anchor="start" x="128.5" y="-30" font-family="Helvetica,sans-Serif" font-size="10.00">~ SetValueDBActual()</text>
<text text-anchor="start" x="128.5" y="-19" font-family="Helvetica,sans-Serif" font-size="10.00">~ SetValueDBRef()</text>
<text text-anchor="start" x="128.5" y="-8" font-family="Helvetica,sans-Serif" font-size="10.00">&#45; _RecomputeDiff()</text>
</a>
</g>
</g>
<!-- Node1&#45;&gt;Node9 -->
<g id="edge10" class="edge"><title>Node1&#45;&gt;Node9</title>
<path fill="none" stroke="#404040" d="M253.902,-216.208C251.545,-210.061 249.233,-203.967 247,-198 240.82,-181.485 234.434,-163.682 228.483,-146.733"/>
<polygon fill="none" stroke="#404040" points="228.399,-146.491 222.644,-142.146 224.441,-135.162 230.196,-139.507 228.399,-146.491"/>
<text text-anchor="middle" x="262.5" y="-173.5" font-family="Helvetica,sans-Serif" font-size="10.00"> &#45;fHost</text>
</g>
<!-- Node2 -->
<g id="node2" class="node"><title>Node2</title>
<g id="a_node2"><a xlink:href="../../d5/d6a/classppm__java_1_1typelib_1_1_v_audio_processor.html" target="_top" xlink:title="Base class for all modules processing audio samples. ">
<polygon fill="white" stroke="black" points="176.5,-520.5 176.5,-687.5 283.5,-687.5 283.5,-520.5 176.5,-520.5"/>
<text text-anchor="middle" x="230" y="-675.5" font-family="Helvetica,sans-Serif" font-size="10.00">VAudioProcessor</text>
<polyline fill="none" stroke="black" points="176.5,-668.5 283.5,-668.5 "/>
<text text-anchor="middle" x="230" y="-656.5" font-family="Helvetica,sans-Serif" font-size="10.00"> </text>
<polyline fill="none" stroke="black" points="176.5,-649.5 283.5,-649.5 "/>
<text text-anchor="start" x="184.5" y="-637.5" font-family="Helvetica,sans-Serif" font-size="10.00">+ VAudioProcessor()</text>
<text text-anchor="start" x="184.5" y="-626.5" font-family="Helvetica,sans-Serif" font-size="10.00">+ CreatePort_In()</text>
<text text-anchor="start" x="184.5" y="-615.5" font-family="Helvetica,sans-Serif" font-size="10.00">+ CreatePort_Out()</text>
<text text-anchor="start" x="184.5" y="-604.5" font-family="Helvetica,sans-Serif" font-size="10.00">+ GetNumPortsIn()</text>
<text text-anchor="start" x="184.5" y="-593.5" font-family="Helvetica,sans-Serif" font-size="10.00">+ GetNumPortsOut()</text>
<text text-anchor="start" x="184.5" y="-582.5" font-family="Helvetica,sans-Serif" font-size="10.00">+ GetPortIn()</text>
<text text-anchor="start" x="184.5" y="-571.5" font-family="Helvetica,sans-Serif" font-size="10.00">+ GetPortIn()</text>
<text text-anchor="start" x="184.5" y="-560.5" font-family="Helvetica,sans-Serif" font-size="10.00">+ GetPortOut()</text>
<text text-anchor="start" x="184.5" y="-549.5" font-family="Helvetica,sans-Serif" font-size="10.00">+ GetPortOut()</text>
<text text-anchor="start" x="184.5" y="-538.5" font-family="Helvetica,sans-Serif" font-size="10.00"># AddPortIn()</text>
<text text-anchor="start" x="184.5" y="-527.5" font-family="Helvetica,sans-Serif" font-size="10.00"># AddPortOut()</text>
</a>
</g>
</g>
<!-- Node2&#45;&gt;Node1 -->
<g id="edge1" class="edge"><title>Node2&#45;&gt;Node1</title>
<path fill="none" stroke="midnightblue" d="M256.924,-510.382C260.562,-497.867 264.345,-484.855 268.119,-471.871"/>
<polygon fill="none" stroke="midnightblue" points="253.471,-509.723 254.04,-520.303 260.192,-511.677 253.471,-509.723"/>
</g>
<!-- Node3 -->
<g id="node3" class="node"><title>Node3</title>
<g id="a_node3"><a xlink:href="../../d1/db3/classppm__java_1_1typelib_1_1_v_audio_object.html" target="_top" xlink:title="Base class for all browseable audio objects. ">
<polygon fill="white" stroke="black" points="45,-742.5 45,-799.5 137,-799.5 137,-742.5 45,-742.5"/>
<text text-anchor="middle" x="91" y="-787.5" font-family="Helvetica,sans-Serif" font-size="10.00">VAudioObject</text>
<polyline fill="none" stroke="black" points="45,-780.5 137,-780.5 "/>
<text text-anchor="middle" x="91" y="-768.5" font-family="Helvetica,sans-Serif" font-size="10.00"> </text>
<polyline fill="none" stroke="black" points="45,-761.5 137,-761.5 "/>
<text text-anchor="start" x="53" y="-749.5" font-family="Helvetica,sans-Serif" font-size="10.00">+ VAudioObject()</text>
</a>
</g>
</g>
<!-- Node3&#45;&gt;Node2 -->
<g id="edge2" class="edge"><title>Node3&#45;&gt;Node2</title>
<path fill="none" stroke="midnightblue" d="M125.277,-734.55C138.621,-720.358 153.838,-703.679 167,-688 170.14,-684.259 173.319,-680.384 176.493,-676.444"/>
<polygon fill="none" stroke="midnightblue" points="122.41,-732.487 118.081,-742.157 127.496,-737.298 122.41,-732.487"/>
</g>
<!-- Node4 -->
<g id="node4" class="node"><title>Node4</title>
<g id="a_node4"><a xlink:href="../../de/dd1/classppm__java_1_1typelib_1_1_v_browseable.html" target="_top" xlink:title="Base class for all browseable objects. ">
<polygon fill="white" stroke="black" points="46.5,-844.5 46.5,-923.5 135.5,-923.5 135.5,-844.5 46.5,-844.5"/>
<text text-anchor="middle" x="91" y="-911.5" font-family="Helvetica,sans-Serif" font-size="10.00">VBrowseable</text>
<polyline fill="none" stroke="black" points="46.5,-904.5 135.5,-904.5 "/>
<text text-anchor="start" x="54.5" y="-892.5" font-family="Helvetica,sans-Serif" font-size="10.00">&#45; fID</text>
<polyline fill="none" stroke="black" points="46.5,-885.5 135.5,-885.5 "/>
<text text-anchor="start" x="54.5" y="-873.5" font-family="Helvetica,sans-Serif" font-size="10.00">+ VBrowseable()</text>
<text text-anchor="start" x="54.5" y="-862.5" font-family="Helvetica,sans-Serif" font-size="10.00">+ GetID()</text>
<text text-anchor="start" x="54.5" y="-851.5" font-family="Helvetica,sans-Serif" font-size="10.00"># _Register()</text>
</a>
</g>
</g>
<!-- Node4&#45;&gt;Node3 -->
<g id="edge3" class="edge"><title>Node4&#45;&gt;Node3</title>
<path fill="none" stroke="midnightblue" d="M91,-834.227C91,-822.364 91,-810.085 91,-799.601"/>
<polygon fill="none" stroke="midnightblue" points="87.5001,-834.489 91,-844.489 94.5001,-834.489 87.5001,-834.489"/>
</g>
<!-- Node5 -->
<g id="node5" class="node"><title>Node5</title>
<polygon fill="white" stroke="#bfbfbf" points="155,-737 155,-805 305,-805 305,-737 155,-737"/>
<text text-anchor="start" x="163" y="-793" font-family="Helvetica,sans-Serif" font-size="10.00">TArrayMap&lt; ppm_java.typelib.</text>
<text text-anchor="middle" x="230" y="-782" font-family="Helvetica,sans-Serif" font-size="10.00">VAudioPort_Output &gt;</text>
<polyline fill="none" stroke="#bfbfbf" points="155,-775 305,-775 "/>
<text text-anchor="middle" x="230" y="-763" font-family="Helvetica,sans-Serif" font-size="10.00"> </text>
<polyline fill="none" stroke="#bfbfbf" points="155,-756 305,-756 "/>
<text text-anchor="middle" x="230" y="-744" font-family="Helvetica,sans-Serif" font-size="10.00"> </text>
</g>
<!-- Node5&#45;&gt;Node2 -->
<g id="edge4" class="edge"><title>Node5&#45;&gt;Node2</title>
<path fill="none" stroke="#404040" d="M230,-736.61C230,-725.723 230,-713.043 230,-699.934"/>
<polygon fill="none" stroke="#404040" points="230,-699.813 226,-693.813 230,-687.813 234,-693.813 230,-699.813"/>
<text text-anchor="middle" x="254.5" y="-709.5" font-family="Helvetica,sans-Serif" font-size="10.00"> &#45;fPortsOut</text>
</g>
<!-- Node6 -->
<g id="node6" class="node"><title>Node6</title>
<polygon fill="white" stroke="#bfbfbf" points="323,-737 323,-805 473,-805 473,-737 323,-737"/>
<text text-anchor="start" x="331" y="-793" font-family="Helvetica,sans-Serif" font-size="10.00">TArrayMap&lt; ppm_java.typelib.</text>
<text text-anchor="middle" x="398" y="-782" font-family="Helvetica,sans-Serif" font-size="10.00">VAudioPort_Input &gt;</text>
<polyline fill="none" stroke="#bfbfbf" points="323,-775 473,-775 "/>
<text text-anchor="middle" x="398" y="-763" font-family="Helvetica,sans-Serif" font-size="10.00"> </text>
<polyline fill="none" stroke="#bfbfbf" points="323,-756 473,-756 "/>
<text text-anchor="middle" x="398" y="-744" font-family="Helvetica,sans-Serif" font-size="10.00"> </text>
</g>
<!-- Node6&#45;&gt;Node2 -->
<g id="edge5" class="edge"><title>Node6&#45;&gt;Node2</title>
<path fill="none" stroke="#404040" d="M349.547,-736.844C330.636,-722.828 309.373,-705.668 292,-688 291.913,-687.912 291.827,-687.824 291.74,-687.735"/>
<polygon fill="none" stroke="#404040" points="291.949,-687.958 284.929,-686.309 283.751,-679.194 290.771,-680.844 291.949,-687.958"/>
<text text-anchor="middle" x="345.5" y="-709.5" font-family="Helvetica,sans-Serif" font-size="10.00"> &#45;fPortsIn</text>
</g>
<!-- Node7 -->
<g id="node7" class="node"><title>Node7</title>
<g id="a_node7"><a xlink:href="../../dc/dc0/interfaceppm__java_1_1typelib_1_1_i_stat_enabled.html" target="_top" xlink:title="Interface for an object that supports runtime statistics. ">
<polygon fill="white" stroke="black" points="301.5,-575.5 301.5,-632.5 374.5,-632.5 374.5,-575.5 301.5,-575.5"/>
<text text-anchor="middle" x="338" y="-620.5" font-family="Helvetica,sans-Serif" font-size="10.00">IStatEnabled</text>
<polyline fill="none" stroke="black" points="301.5,-613.5 374.5,-613.5 "/>
<text text-anchor="middle" x="338" y="-601.5" font-family="Helvetica,sans-Serif" font-size="10.00"> </text>
<polyline fill="none" stroke="black" points="301.5,-594.5 374.5,-594.5 "/>
<text text-anchor="start" x="309.5" y="-582.5" font-family="Helvetica,sans-Serif" font-size="10.00">+ StatsGet()</text>
</a>
</g>
</g>
<!-- Node7&#45;&gt;Node1 -->
<g id="edge6" class="edge"><title>Node7&#45;&gt;Node1</title>
<path fill="none" stroke="midnightblue" d="M333.175,-565.278C329.978,-540.28 325.581,-505.903 321.211,-471.738"/>
<polygon fill="none" stroke="midnightblue" points="329.728,-565.914 334.468,-575.389 336.671,-565.026 329.728,-565.914"/>
</g>
<!-- Node8 -->
<g id="node8" class="node"><title>Node8</title>
<g id="a_node8"><a xlink:href="../../df/dbb/interfaceppm__java_1_1typelib_1_1_i_evented.html" target="_top" xlink:title="Base interface for the event system. ">
<polygon fill="white" stroke="black" points="393,-526 393,-682 547,-682 547,-526 393,-526"/>
<text text-anchor="middle" x="470" y="-670" font-family="Helvetica,sans-Serif" font-size="10.00">IEvented</text>
<polyline fill="none" stroke="black" points="393,-663 547,-663 "/>
<text text-anchor="start" x="401" y="-651" font-family="Helvetica,sans-Serif" font-size="10.00">+ gkEventBufferNotifyOverrun</text>
<text text-anchor="start" x="401" y="-640" font-family="Helvetica,sans-Serif" font-size="10.00">+ gkEventBufferNotifyUnderrun</text>
<text text-anchor="start" x="401" y="-629" font-family="Helvetica,sans-Serif" font-size="10.00">+ gkEventStart</text>
<text text-anchor="start" x="401" y="-618" font-family="Helvetica,sans-Serif" font-size="10.00">+ gkEventStop</text>
<text text-anchor="start" x="401" y="-607" font-family="Helvetica,sans-Serif" font-size="10.00">+ gkEventTimerAdjustInterval</text>
<text text-anchor="start" x="401" y="-596" font-family="Helvetica,sans-Serif" font-size="10.00">+ gkEventTimerNotifyInterval</text>
<text text-anchor="start" x="401" y="-585" font-family="Helvetica,sans-Serif" font-size="10.00">+ gkEventTimerTick</text>
<polyline fill="none" stroke="black" points="393,-578 547,-578 "/>
<text text-anchor="start" x="401" y="-566" font-family="Helvetica,sans-Serif" font-size="10.00">+ OnEvent()</text>
<text text-anchor="start" x="401" y="-555" font-family="Helvetica,sans-Serif" font-size="10.00">+ OnEvent()</text>
<text text-anchor="start" x="401" y="-544" font-family="Helvetica,sans-Serif" font-size="10.00">+ OnEvent()</text>
<text text-anchor="start" x="401" y="-533" font-family="Helvetica,sans-Serif" font-size="10.00">+ OnEvent()</text>
</a>
</g>
</g>
<!-- Node8&#45;&gt;Node1 -->
<g id="edge7" class="edge"><title>Node8&#45;&gt;Node1</title>
<path fill="none" stroke="midnightblue" d="M415.272,-517.426C405.909,-502.786 396.006,-487.301 386.13,-471.857"/>
<polygon fill="none" stroke="midnightblue" points="412.382,-519.402 420.718,-525.941 418.279,-515.631 412.382,-519.402"/>
</g>
<!-- Node9&#45;&gt;Node1 -->
<g id="edge8" class="edge"><title>Node9&#45;&gt;Node1</title>
<path fill="none" stroke="#404040" d="M271.019,-135.05C275.204,-141.143 278.948,-147.485 282,-154 289.384,-169.762 294.703,-187.037 298.495,-204.534"/>
<polygon fill="none" stroke="#404040" points="298.505,-204.585 303.591,-209.697 300.828,-216.358 295.742,-211.246 298.505,-204.585"/>
<text text-anchor="middle" x="314.5" y="-173.5" font-family="Helvetica,sans-Serif" font-size="10.00"> &#45;fStats</text>
</g>
<!-- Node10 -->
<g id="node10" class="node"><title>Node10</title>
<g id="a_node10"><a xlink:href="../../d7/d5a/interfaceppm__java_1_1typelib_1_1_i_stats.html" target="_top" xlink:title="Interface for a statistics record. ">
<polygon fill="white" stroke="black" points="0,-315.5 0,-372.5 86,-372.5 86,-315.5 0,-315.5"/>
<text text-anchor="middle" x="43" y="-360.5" font-family="Helvetica,sans-Serif" font-size="10.00">IStats</text>
<polyline fill="none" stroke="black" points="0,-353.5 86,-353.5 "/>
<text text-anchor="middle" x="43" y="-341.5" font-family="Helvetica,sans-Serif" font-size="10.00"> </text>
<polyline fill="none" stroke="black" points="0,-334.5 86,-334.5 "/>
<text text-anchor="start" x="8" y="-322.5" font-family="Helvetica,sans-Serif" font-size="10.00">+ GetDumpStr()</text>
</a>
</g>
</g>
<!-- Node10&#45;&gt;Node9 -->
<g id="edge9" class="edge"><title>Node10&#45;&gt;Node9</title>
<path fill="none" stroke="midnightblue" d="M55.5022,-305.908C64.8776,-279.985 78.8395,-244.965 95,-216 110.457,-188.297 130.268,-159.689 148.633,-135.158"/>
<polygon fill="none" stroke="midnightblue" points="52.1916,-304.772 52.1385,-315.366 58.7869,-307.117 52.1916,-304.772"/>
</g>
<!-- Node11 -->
<g id="node11" class="node"><title>Node11</title>
<g id="a_node11"><a xlink:href="../../d2/df7/classppm__java_1_1util_1_1storage_1_1_t_atomic_double.html" target="_top" xlink:title="An thread safe double value. ">
<polygon fill="white" stroke="black" points="104.5,-282.5 104.5,-405.5 203.5,-405.5 203.5,-282.5 104.5,-282.5"/>
<text text-anchor="middle" x="154" y="-393.5" font-family="Helvetica,sans-Serif" font-size="10.00">TAtomicDouble</text>
<polyline fill="none" stroke="black" points="104.5,-386.5 203.5,-386.5 "/>
<text text-anchor="start" x="112.5" y="-374.5" font-family="Helvetica,sans-Serif" font-size="10.00">&#45; fValue</text>
<text text-anchor="start" x="112.5" y="-363.5" font-family="Helvetica,sans-Serif" font-size="10.00">&#45; gkLocked</text>
<text text-anchor="start" x="112.5" y="-352.5" font-family="Helvetica,sans-Serif" font-size="10.00">&#45; gkUnlocked</text>
<polyline fill="none" stroke="black" points="104.5,-345.5 203.5,-345.5 "/>
<text text-anchor="start" x="112.5" y="-333.5" font-family="Helvetica,sans-Serif" font-size="10.00">+ TAtomicDouble()</text>
<text text-anchor="start" x="112.5" y="-322.5" font-family="Helvetica,sans-Serif" font-size="10.00">+ Get()</text>
<text text-anchor="start" x="112.5" y="-311.5" font-family="Helvetica,sans-Serif" font-size="10.00">+ Set()</text>
<text text-anchor="start" x="112.5" y="-300.5" font-family="Helvetica,sans-Serif" font-size="10.00">&#45; _Lock()</text>
<text text-anchor="start" x="112.5" y="-289.5" font-family="Helvetica,sans-Serif" font-size="10.00">&#45; _Unlock()</text>
</a>
</g>
</g>
<!-- Node11&#45;&gt;Node9 -->
<g id="edge11" class="edge"><title>Node11&#45;&gt;Node9</title>
<path fill="none" stroke="#404040" d="M146.781,-282.427C144.142,-244.85 144.066,-195.91 155,-154 155.632,-151.578 156.348,-149.151 157.138,-146.728"/>
<polygon fill="none" stroke="#404040" points="157.148,-146.701 155.482,-139.685 161.318,-135.449 162.984,-142.465 157.148,-146.701"/>
<text text-anchor="middle" x="191.5" y="-190" font-family="Helvetica,sans-Serif" font-size="10.00"> &#45;fTimeCycle</text>
<text text-anchor="middle" x="191.5" y="-179" font-family="Helvetica,sans-Serif" font-size="10.00">&#45;fValueDBRef</text>
<text text-anchor="middle" x="191.5" y="-168" font-family="Helvetica,sans-Serif" font-size="10.00">&#45;fValueErr</text>
<text text-anchor="middle" x="191.5" y="-157" font-family="Helvetica,sans-Serif" font-size="10.00">&#45;fValueDBActual</text>
</g>
<!-- Node12 -->
<g id="node12" class="node"><title>Node12</title>
<polygon fill="white" stroke="#bfbfbf" points="81.5,-575.5 81.5,-632.5 158.5,-632.5 158.5,-575.5 81.5,-575.5"/>
<text text-anchor="middle" x="120" y="-620.5" font-family="Helvetica,sans-Serif" font-size="10.00">AtomicInteger</text>
<polyline fill="none" stroke="#bfbfbf" points="81.5,-613.5 158.5,-613.5 "/>
<text text-anchor="middle" x="120" y="-601.5" font-family="Helvetica,sans-Serif" font-size="10.00"> </text>
<polyline fill="none" stroke="#bfbfbf" points="81.5,-594.5 158.5,-594.5 "/>
<text text-anchor="middle" x="120" y="-582.5" font-family="Helvetica,sans-Serif" font-size="10.00"> </text>
</g>
<!-- Node12&#45;&gt;Node11 -->
<g id="edge12" class="edge"><title>Node12&#45;&gt;Node11</title>
<path fill="none" stroke="#404040" d="M123.639,-575.389C128.557,-538.064 137.508,-470.144 144.421,-417.685"/>
<polygon fill="none" stroke="#404040" points="144.429,-417.626 141.247,-411.155 145.997,-405.729 149.179,-412.2 144.429,-417.626"/>
<text text-anchor="middle" x="149.5" y="-493.5" font-family="Helvetica,sans-Serif" font-size="10.00"> &#45;fLock</text>
</g>
</g>
</svg>
