<?xml version="1.0" encoding="UTF-8" standalone="no"?>
<!DOCTYPE svg PUBLIC "-//W3C//DTD SVG 1.1//EN"
 "http://www.w3.org/Graphics/SVG/1.1/DTD/svg11.dtd">
<!-- Generated by graphviz version 2.36.0 (20140111.2315)
 -->
<!-- Title: TGUINeedle_Surrogate_Stats Pages: 1 -->
<!--zoomable 1320 -->
<svg id="main" version="1.1" xmlns="http://www.w3.org/2000/svg" xmlns:xlink="http://www.w3.org/1999/xlink" xml:space="preserve" onload="init(evt)">
<style type="text/css"><![CDATA[
.edge:hover path { stroke: red; }
.edge:hover polygon { stroke: red; fill: red; }
]]></style>
<script type="text/javascript"><![CDATA[
var edges = document.getElementsByTagName('g');
if (edges && edges.length) {
  for (var i=0;i<edges.length;i++) {
    if (edges[i].id.substr(0,4)=='edge') {
      edges[i].setAttribute('class','edge');
    }
  }
}
]]></script>
        <defs>
                <circle id="rim" cx="0" cy="0" r="7"/>
                <circle id="rim2" cx="0" cy="0" r="3.5"/>
                <g id="zoomPlus">
                        <use xlink:href="#rim" fill="#404040">
                                <set attributeName="fill" to="#808080" begin="zoomplus.mouseover" end="zoomplus.mouseout"/>
                        </use>
                        <path d="M-4,0h8M0,-4v8" fill="none" stroke="white" stroke-width="1.5" pointer-events="none"/>
                </g>
                <g id="zoomMin">
                        <use xlink:href="#rim" fill="#404040">
                                <set attributeName="fill" to="#808080" begin="zoomminus.mouseover" end="zoomminus.mouseout"/>
                        </use>
                        <path d="M-4,0h8" fill="none" stroke="white" stroke-width="1.5" pointer-events="none"/>
                </g>
                <g id="dirArrow">
                        <path fill="none" stroke="white" stroke-width="1.5" d="M0,-3.0v7 M-2.5,-0.5L0,-3.0L2.5,-0.5"/>
                </g>
               <g id="resetDef">
                       <use xlink:href="#rim2" fill="#404040">
                               <set attributeName="fill" to="#808080" begin="reset.mouseover" end="reset.mouseout"/>
                       </use>
               </g>
        </defs>

<script type="text/javascript">
var viewWidth = 690;
var viewHeight = 1320;
var sectionId = 'dynsection-1';
</script>
<script xlink:href="../../svgpan.js"/>
<svg id="graph" class="graph">
<g id="viewport">
<title>TGUINeedle_Surrogate_Stats</title>
<polygon fill="white" stroke="none" points="-4,4 -4,-1316 686,-1316 686,4 -4,4"/>
<!-- Node1 -->
<g id="node1" class="node"><title>Node1</title>
<polygon fill="#bfbfbf" stroke="black" points="434,-714.5 434,-859.5 562,-859.5 562,-714.5 434,-714.5"/>
<text text-anchor="start" x="442" y="-847.5" font-family="Helvetica,sans-Serif" font-size="10.00">TGUINeedle_Surrogate</text>
<text text-anchor="middle" x="498" y="-836.5" font-family="Helvetica,sans-Serif" font-size="10.00">_Stats</text>
<polyline fill="none" stroke="black" points="434,-829.5 562,-829.5 "/>
<text text-anchor="start" x="442" y="-817.5" font-family="Helvetica,sans-Serif" font-size="10.00">&#45; fT0</text>
<polyline fill="none" stroke="black" points="434,-810.5 562,-810.5 "/>
<text text-anchor="start" x="442" y="-798.5" font-family="Helvetica,sans-Serif" font-size="10.00">+ TGUINeedle_Surrogate</text>
<text text-anchor="start" x="442" y="-787.5" font-family="Helvetica,sans-Serif" font-size="10.00">_Stats()</text>
<text text-anchor="start" x="442" y="-776.5" font-family="Helvetica,sans-Serif" font-size="10.00">+ GetDumpStr()</text>
<text text-anchor="start" x="442" y="-765.5" font-family="Helvetica,sans-Serif" font-size="10.00">~ AddChannel()</text>
<text text-anchor="start" x="442" y="-754.5" font-family="Helvetica,sans-Serif" font-size="10.00">~ OnCycleTick()</text>
<text text-anchor="start" x="442" y="-743.5" font-family="Helvetica,sans-Serif" font-size="10.00">~ SetCalcSection()</text>
<text text-anchor="start" x="442" y="-732.5" font-family="Helvetica,sans-Serif" font-size="10.00">~ SetDBValue()</text>
<text text-anchor="start" x="442" y="-721.5" font-family="Helvetica,sans-Serif" font-size="10.00">~ SetDisplayValue()</text>
</g>
<!-- Node4 -->
<g id="node4" class="node"><title>Node4</title>
<g id="a_node4"><a xlink:href="../../d5/d13/classppm__java_1_1frontend_1_1gui_1_1needle_1_1_t_g_u_i_needle___surrogate.html" target="_top" xlink:title="The UI controller. ">
<polygon fill="white" stroke="black" points="313.5,-509 313.5,-665 444.5,-665 444.5,-509 313.5,-509"/>
<text text-anchor="middle" x="379" y="-653" font-family="Helvetica,sans-Serif" font-size="10.00">TGUINeedle_Surrogate</text>
<polyline fill="none" stroke="black" points="313.5,-646 444.5,-646 "/>
<text text-anchor="start" x="321.5" y="-634" font-family="Helvetica,sans-Serif" font-size="10.00">&#45; gkLvlClip</text>
<text text-anchor="start" x="321.5" y="-623" font-family="Helvetica,sans-Serif" font-size="10.00">&#45; gkLvlWarn</text>
<polyline fill="none" stroke="black" points="313.5,-616 444.5,-616 "/>
<text text-anchor="start" x="321.5" y="-604" font-family="Helvetica,sans-Serif" font-size="10.00">+ CreatePort_In()</text>
<text text-anchor="start" x="321.5" y="-593" font-family="Helvetica,sans-Serif" font-size="10.00">+ Start()</text>
<text text-anchor="start" x="321.5" y="-582" font-family="Helvetica,sans-Serif" font-size="10.00">+ StatsGet()</text>
<text text-anchor="start" x="321.5" y="-571" font-family="Helvetica,sans-Serif" font-size="10.00">+ Stop()</text>
<text text-anchor="start" x="321.5" y="-560" font-family="Helvetica,sans-Serif" font-size="10.00">+ CreateInstance()</text>
<text text-anchor="start" x="321.5" y="-549" font-family="Helvetica,sans-Serif" font-size="10.00">~ OnTerminate()</text>
<text text-anchor="start" x="321.5" y="-538" font-family="Helvetica,sans-Serif" font-size="10.00">~ SetLevel()</text>
<text text-anchor="start" x="321.5" y="-527" font-family="Helvetica,sans-Serif" font-size="10.00"># _Register()</text>
<text text-anchor="start" x="321.5" y="-516" font-family="Helvetica,sans-Serif" font-size="10.00">&#45; TGUINeedle_Surrogate()</text>
</a>
</g>
</g>
<!-- Node1&#45;&gt;Node4 -->
<g id="edge13" class="edge"><title>Node1&#45;&gt;Node4</title>
<path fill="none" stroke="#404040" d="M440.835,-714.277C436.668,-708.205 432.667,-702.065 429,-696 425.141,-689.618 421.377,-682.889 417.756,-676.038"/>
<polygon fill="none" stroke="#404040" points="417.674,-675.877 411.375,-672.367 412.194,-665.202 418.492,-668.713 417.674,-675.877"/>
<text text-anchor="middle" x="443" y="-687.5" font-family="Helvetica,sans-Serif" font-size="10.00"> &#45;fStat</text>
</g>
<!-- Node2 -->
<g id="node2" class="node"><title>Node2</title>
<g id="a_node2"><a xlink:href="../../d7/d5a/interfaceppm__java_1_1typelib_1_1_i_stats.html" target="_top" xlink:title="Interface for a statistics record. ">
<polygon fill="white" stroke="black" points="296,-963.5 296,-1020.5 382,-1020.5 382,-963.5 296,-963.5"/>
<text text-anchor="middle" x="339" y="-1008.5" font-family="Helvetica,sans-Serif" font-size="10.00">IStats</text>
<polyline fill="none" stroke="black" points="296,-1001.5 382,-1001.5 "/>
<text text-anchor="middle" x="339" y="-989.5" font-family="Helvetica,sans-Serif" font-size="10.00"> </text>
<polyline fill="none" stroke="black" points="296,-982.5 382,-982.5 "/>
<text text-anchor="start" x="304" y="-970.5" font-family="Helvetica,sans-Serif" font-size="10.00">+ GetDumpStr()</text>
</a>
</g>
</g>
<!-- Node2&#45;&gt;Node1 -->
<g id="edge1" class="edge"><title>Node2&#45;&gt;Node1</title>
<path fill="none" stroke="midnightblue" d="M360.076,-954.437C369.067,-939.645 380.01,-922.64 391,-908 404.154,-890.477 419.303,-872.417 433.985,-855.797"/>
<polygon fill="none" stroke="midnightblue" points="356.889,-952.945 354.746,-963.32 362.892,-956.546 356.889,-952.945"/>
</g>
<!-- Node3 -->
<g id="node3" class="node"><title>Node3</title>
<polygon fill="white" stroke="#bfbfbf" points="400.5,-958 400.5,-1026 595.5,-1026 595.5,-958 400.5,-958"/>
<text text-anchor="start" x="408.5" y="-1014" font-family="Helvetica,sans-Serif" font-size="10.00">ArrayList&lt; ppm_java.frontend.gui.needle.</text>
<text text-anchor="middle" x="498" y="-1003" font-family="Helvetica,sans-Serif" font-size="10.00">TGUINeedle_Surrogate_Stats_Record &gt;</text>
<polyline fill="none" stroke="#bfbfbf" points="400.5,-996 595.5,-996 "/>
<text text-anchor="middle" x="498" y="-984" font-family="Helvetica,sans-Serif" font-size="10.00"> </text>
<polyline fill="none" stroke="#bfbfbf" points="400.5,-977 595.5,-977 "/>
<text text-anchor="middle" x="498" y="-965" font-family="Helvetica,sans-Serif" font-size="10.00"> </text>
</g>
<!-- Node3&#45;&gt;Node1 -->
<g id="edge2" class="edge"><title>Node3&#45;&gt;Node1</title>
<path fill="none" stroke="#404040" d="M498,-957.933C498,-934.629 498,-902.317 498,-872.121"/>
<polygon fill="none" stroke="#404040" points="498,-871.789 494,-865.789 498,-859.789 502,-865.789 498,-871.789"/>
<text text-anchor="middle" x="532.5" y="-881.5" font-family="Helvetica,sans-Serif" font-size="10.00"> &#45;fStatChannels</text>
</g>
<!-- Node4&#45;&gt;Node1 -->
<g id="edge3" class="edge"><title>Node4&#45;&gt;Node1</title>
<path fill="none" stroke="#404040" d="M444.579,-659.322C450.538,-667.361 456.146,-675.666 461,-684 464.523,-690.048 467.803,-696.489 470.836,-703.082"/>
<polygon fill="none" stroke="#404040" points="470.919,-703.274 476.98,-707.18 475.706,-714.277 469.645,-710.371 470.919,-703.274"/>
<text text-anchor="middle" x="482.5" y="-687.5" font-family="Helvetica,sans-Serif" font-size="10.00"> &#45;fHost</text>
</g>
<!-- Node4&#45;&gt;Node4 -->
<g id="edge12" class="edge"><title>Node4&#45;&gt;Node4</title>
<path fill="none" stroke="#404040" d="M444.753,-604.527C455.008,-601.907 462,-596.064 462,-587 462,-581.76 459.663,-577.596 455.71,-574.51"/>
<polygon fill="none" stroke="#404040" points="455.656,-574.485 448.534,-575.613 444.753,-569.473 451.875,-568.345 455.656,-574.485"/>
<text text-anchor="middle" x="477" y="-584.5" font-family="Helvetica,sans-Serif" font-size="10.00"> &#45;gGUI</text>
</g>
<!-- Node13 -->
<g id="node13" class="node"><title>Node13</title>
<g id="a_node13"><a xlink:href="../../de/d2b/classppm__java_1_1frontend_1_1gui_1_1needle_1_1_t_g_u_i_needle___wnd_p_p_m.html" target="_top" xlink:title="The PPM UI. ">
<polygon fill="white" stroke="black" points="217,-270.5 217,-437.5 351,-437.5 351,-270.5 217,-270.5"/>
<text text-anchor="middle" x="284" y="-425.5" font-family="Helvetica,sans-Serif" font-size="10.00">TGUINeedle_WndPPM</text>
<polyline fill="none" stroke="black" points="217,-418.5 351,-418.5 "/>
<text text-anchor="start" x="225" y="-406.5" font-family="Helvetica,sans-Serif" font-size="10.00">&#45; fMeterL</text>
<text text-anchor="start" x="225" y="-395.5" font-family="Helvetica,sans-Serif" font-size="10.00">&#45; fMeterR</text>
<text text-anchor="start" x="225" y="-384.5" font-family="Helvetica,sans-Serif" font-size="10.00">&#45; gkIChanL</text>
<text text-anchor="start" x="225" y="-373.5" font-family="Helvetica,sans-Serif" font-size="10.00">&#45; gkIChanR</text>
<text text-anchor="start" x="225" y="-362.5" font-family="Helvetica,sans-Serif" font-size="10.00">&#45; serialVersionUID</text>
<polyline fill="none" stroke="black" points="217,-355.5 351,-355.5 "/>
<text text-anchor="start" x="225" y="-343.5" font-family="Helvetica,sans-Serif" font-size="10.00">+ TGUINeedle_WndPPM()</text>
<text text-anchor="start" x="225" y="-332.5" font-family="Helvetica,sans-Serif" font-size="10.00">+ SetClipping()</text>
<text text-anchor="start" x="225" y="-321.5" font-family="Helvetica,sans-Serif" font-size="10.00">+ SetLevel()</text>
<text text-anchor="start" x="225" y="-310.5" font-family="Helvetica,sans-Serif" font-size="10.00">+ Terminate()</text>
<text text-anchor="start" x="225" y="-299.5" font-family="Helvetica,sans-Serif" font-size="10.00">~ _SetClipping()</text>
<text text-anchor="start" x="225" y="-288.5" font-family="Helvetica,sans-Serif" font-size="10.00">&#45; _OnWindowClosing()</text>
<text text-anchor="start" x="225" y="-277.5" font-family="Helvetica,sans-Serif" font-size="10.00">&#45; initComponents()</text>
</a>
</g>
</g>
<!-- Node4&#45;&gt;Node13 -->
<g id="edge20" class="edge"><title>Node4&#45;&gt;Node13</title>
<path fill="none" stroke="#404040" d="M335.588,-508.806C332.539,-502.512 329.635,-496.191 327,-490 321.469,-477.004 316.255,-463.045 311.495,-449.211"/>
<polygon fill="none" stroke="#404040" points="311.43,-449.017 305.727,-444.604 307.607,-437.642 313.31,-442.055 311.43,-449.017"/>
<text text-anchor="middle" x="354.5" y="-470.5" font-family="Helvetica,sans-Serif" font-size="10.00"> &#45;fConnector</text>
</g>
<!-- Node5 -->
<g id="node5" class="node"><title>Node5</title>
<g id="a_node5"><a xlink:href="../../da/d04/classppm__java_1_1typelib_1_1_v_frontend.html" target="_top" xlink:title="Base class for a front end. ">
<polygon fill="white" stroke="black" points="135,-747.5 135,-826.5 235,-826.5 235,-747.5 135,-747.5"/>
<text text-anchor="middle" x="185" y="-814.5" font-family="Helvetica,sans-Serif" font-size="10.00">VFrontend</text>
<polyline fill="none" stroke="black" points="135,-807.5 235,-807.5 "/>
<text text-anchor="middle" x="185" y="-795.5" font-family="Helvetica,sans-Serif" font-size="10.00"> </text>
<polyline fill="none" stroke="black" points="135,-788.5 235,-788.5 "/>
<text text-anchor="start" x="143" y="-776.5" font-family="Helvetica,sans-Serif" font-size="10.00">+ VFrontend()</text>
<text text-anchor="start" x="143" y="-765.5" font-family="Helvetica,sans-Serif" font-size="10.00">+ CreatePort_Out()</text>
<text text-anchor="start" x="143" y="-754.5" font-family="Helvetica,sans-Serif" font-size="10.00"># _OnTerminate()</text>
</a>
</g>
</g>
<!-- Node5&#45;&gt;Node4 -->
<g id="edge4" class="edge"><title>Node5&#45;&gt;Node4</title>
<path fill="none" stroke="midnightblue" d="M221.517,-739.566C228.766,-730.891 236.468,-722.034 244,-714 265.708,-690.846 290.816,-666.756 313.447,-645.918"/>
<polygon fill="none" stroke="midnightblue" points="218.674,-737.512 215.006,-747.452 224.072,-741.969 218.674,-737.512"/>
</g>
<!-- Node6 -->
<g id="node6" class="node"><title>Node6</title>
<g id="a_node6"><a xlink:href="../../d5/d6a/classppm__java_1_1typelib_1_1_v_audio_processor.html" target="_top" xlink:title="Base class for all modules processing audio samples. ">
<polygon fill="white" stroke="black" points="131.5,-908.5 131.5,-1075.5 238.5,-1075.5 238.5,-908.5 131.5,-908.5"/>
<text text-anchor="middle" x="185" y="-1063.5" font-family="Helvetica,sans-Serif" font-size="10.00">VAudioProcessor</text>
<polyline fill="none" stroke="black" points="131.5,-1056.5 238.5,-1056.5 "/>
<text text-anchor="middle" x="185" y="-1044.5" font-family="Helvetica,sans-Serif" font-size="10.00"> </text>
<polyline fill="none" stroke="black" points="131.5,-1037.5 238.5,-1037.5 "/>
<text text-anchor="start" x="139.5" y="-1025.5" font-family="Helvetica,sans-Serif" font-size="10.00">+ VAudioProcessor()</text>
<text text-anchor="start" x="139.5" y="-1014.5" font-family="Helvetica,sans-Serif" font-size="10.00">+ CreatePort_In()</text>
<text text-anchor="start" x="139.5" y="-1003.5" font-family="Helvetica,sans-Serif" font-size="10.00">+ CreatePort_Out()</text>
<text text-anchor="start" x="139.5" y="-992.5" font-family="Helvetica,sans-Serif" font-size="10.00">+ GetNumPortsIn()</text>
<text text-anchor="start" x="139.5" y="-981.5" font-family="Helvetica,sans-Serif" font-size="10.00">+ GetNumPortsOut()</text>
<text text-anchor="start" x="139.5" y="-970.5" font-family="Helvetica,sans-Serif" font-size="10.00">+ GetPortIn()</text>
<text text-anchor="start" x="139.5" y="-959.5" font-family="Helvetica,sans-Serif" font-size="10.00">+ GetPortIn()</text>
<text text-anchor="start" x="139.5" y="-948.5" font-family="Helvetica,sans-Serif" font-size="10.00">+ GetPortOut()</text>
<text text-anchor="start" x="139.5" y="-937.5" font-family="Helvetica,sans-Serif" font-size="10.00">+ GetPortOut()</text>
<text text-anchor="start" x="139.5" y="-926.5" font-family="Helvetica,sans-Serif" font-size="10.00"># AddPortIn()</text>
<text text-anchor="start" x="139.5" y="-915.5" font-family="Helvetica,sans-Serif" font-size="10.00"># AddPortOut()</text>
</a>
</g>
</g>
<!-- Node6&#45;&gt;Node5 -->
<g id="edge5" class="edge"><title>Node6&#45;&gt;Node5</title>
<path fill="none" stroke="midnightblue" d="M185,-898.407C185,-873.095 185,-847.04 185,-826.601"/>
<polygon fill="none" stroke="midnightblue" points="181.5,-898.432 185,-908.432 188.5,-898.432 181.5,-898.432"/>
</g>
<!-- Node7 -->
<g id="node7" class="node"><title>Node7</title>
<g id="a_node7"><a xlink:href="../../d1/db3/classppm__java_1_1typelib_1_1_v_audio_object.html" target="_top" xlink:title="Base class for all browseable audio objects. ">
<polygon fill="white" stroke="black" points="0,-1130.5 0,-1187.5 92,-1187.5 92,-1130.5 0,-1130.5"/>
<text text-anchor="middle" x="46" y="-1175.5" font-family="Helvetica,sans-Serif" font-size="10.00">VAudioObject</text>
<polyline fill="none" stroke="black" points="0,-1168.5 92,-1168.5 "/>
<text text-anchor="middle" x="46" y="-1156.5" font-family="Helvetica,sans-Serif" font-size="10.00"> </text>
<polyline fill="none" stroke="black" points="0,-1149.5 92,-1149.5 "/>
<text text-anchor="start" x="8" y="-1137.5" font-family="Helvetica,sans-Serif" font-size="10.00">+ VAudioObject()</text>
</a>
</g>
</g>
<!-- Node7&#45;&gt;Node6 -->
<g id="edge6" class="edge"><title>Node7&#45;&gt;Node6</title>
<path fill="none" stroke="midnightblue" d="M75.9091,-1122.5C92.0628,-1103.32 112.498,-1079.06 131.303,-1056.74"/>
<polygon fill="none" stroke="midnightblue" points="73.0315,-1120.48 69.2655,-1130.38 78.3851,-1124.99 73.0315,-1120.48"/>
</g>
<!-- Node8 -->
<g id="node8" class="node"><title>Node8</title>
<g id="a_node8"><a xlink:href="../../de/dd1/classppm__java_1_1typelib_1_1_v_browseable.html" target="_top" xlink:title="Base class for all browseable objects. ">
<polygon fill="white" stroke="black" points="1.5,-1232.5 1.5,-1311.5 90.5,-1311.5 90.5,-1232.5 1.5,-1232.5"/>
<text text-anchor="middle" x="46" y="-1299.5" font-family="Helvetica,sans-Serif" font-size="10.00">VBrowseable</text>
<polyline fill="none" stroke="black" points="1.5,-1292.5 90.5,-1292.5 "/>
<text text-anchor="start" x="9.5" y="-1280.5" font-family="Helvetica,sans-Serif" font-size="10.00">&#45; fID</text>
<polyline fill="none" stroke="black" points="1.5,-1273.5 90.5,-1273.5 "/>
<text text-anchor="start" x="9.5" y="-1261.5" font-family="Helvetica,sans-Serif" font-size="10.00">+ VBrowseable()</text>
<text text-anchor="start" x="9.5" y="-1250.5" font-family="Helvetica,sans-Serif" font-size="10.00">+ GetID()</text>
<text text-anchor="start" x="9.5" y="-1239.5" font-family="Helvetica,sans-Serif" font-size="10.00"># _Register()</text>
</a>
</g>
</g>
<!-- Node8&#45;&gt;Node7 -->
<g id="edge7" class="edge"><title>Node8&#45;&gt;Node7</title>
<path fill="none" stroke="midnightblue" d="M46,-1222.23C46,-1210.36 46,-1198.08 46,-1187.6"/>
<polygon fill="none" stroke="midnightblue" points="42.5001,-1222.49 46,-1232.49 49.5001,-1222.49 42.5001,-1222.49"/>
</g>
<!-- Node9 -->
<g id="node9" class="node"><title>Node9</title>
<polygon fill="white" stroke="#bfbfbf" points="110,-1125 110,-1193 260,-1193 260,-1125 110,-1125"/>
<text text-anchor="start" x="118" y="-1181" font-family="Helvetica,sans-Serif" font-size="10.00">TArrayMap&lt; ppm_java.typelib.</text>
<text text-anchor="middle" x="185" y="-1170" font-family="Helvetica,sans-Serif" font-size="10.00">VAudioPort_Output &gt;</text>
<polyline fill="none" stroke="#bfbfbf" points="110,-1163 260,-1163 "/>
<text text-anchor="middle" x="185" y="-1151" font-family="Helvetica,sans-Serif" font-size="10.00"> </text>
<polyline fill="none" stroke="#bfbfbf" points="110,-1144 260,-1144 "/>
<text text-anchor="middle" x="185" y="-1132" font-family="Helvetica,sans-Serif" font-size="10.00"> </text>
</g>
<!-- Node9&#45;&gt;Node6 -->
<g id="edge8" class="edge"><title>Node9&#45;&gt;Node6</title>
<path fill="none" stroke="#404040" d="M185,-1124.61C185,-1113.72 185,-1101.04 185,-1087.93"/>
<polygon fill="none" stroke="#404040" points="185,-1087.81 181,-1081.81 185,-1075.81 189,-1081.81 185,-1087.81"/>
<text text-anchor="middle" x="209.5" y="-1097.5" font-family="Helvetica,sans-Serif" font-size="10.00"> &#45;fPortsOut</text>
</g>
<!-- Node10 -->
<g id="node10" class="node"><title>Node10</title>
<polygon fill="white" stroke="#bfbfbf" points="278,-1125 278,-1193 428,-1193 428,-1125 278,-1125"/>
<text text-anchor="start" x="286" y="-1181" font-family="Helvetica,sans-Serif" font-size="10.00">TArrayMap&lt; ppm_java.typelib.</text>
<text text-anchor="middle" x="353" y="-1170" font-family="Helvetica,sans-Serif" font-size="10.00">VAudioPort_Input &gt;</text>
<polyline fill="none" stroke="#bfbfbf" points="278,-1163 428,-1163 "/>
<text text-anchor="middle" x="353" y="-1151" font-family="Helvetica,sans-Serif" font-size="10.00"> </text>
<polyline fill="none" stroke="#bfbfbf" points="278,-1144 428,-1144 "/>
<text text-anchor="middle" x="353" y="-1132" font-family="Helvetica,sans-Serif" font-size="10.00"> </text>
</g>
<!-- Node10&#45;&gt;Node6 -->
<g id="edge9" class="edge"><title>Node10&#45;&gt;Node6</title>
<path fill="none" stroke="#404040" d="M319.003,-1124.61C298.509,-1104.48 271.771,-1078.22 247.575,-1054.46"/>
<polygon fill="none" stroke="#404040" points="247.353,-1054.24 240.269,-1052.89 238.792,-1045.83 245.875,-1047.18 247.353,-1054.24"/>
<text text-anchor="middle" x="319.5" y="-1097.5" font-family="Helvetica,sans-Serif" font-size="10.00"> &#45;fPortsIn</text>
</g>
<!-- Node11 -->
<g id="node11" class="node"><title>Node11</title>
<g id="a_node11"><a xlink:href="../../db/d44/interfaceppm__java_1_1typelib_1_1_i_controllable.html" target="_top" xlink:title="A module or construct which can receive some low level control commands (start/stop etc...">
<polygon fill="white" stroke="black" points="253.5,-753 253.5,-821 324.5,-821 324.5,-753 253.5,-753"/>
<text text-anchor="middle" x="289" y="-809" font-family="Helvetica,sans-Serif" font-size="10.00">IControllable</text>
<polyline fill="none" stroke="black" points="253.5,-802 324.5,-802 "/>
<text text-anchor="middle" x="289" y="-790" font-family="Helvetica,sans-Serif" font-size="10.00"> </text>
<polyline fill="none" stroke="black" points="253.5,-783 324.5,-783 "/>
<text text-anchor="start" x="261.5" y="-771" font-family="Helvetica,sans-Serif" font-size="10.00">+ Start()</text>
<text text-anchor="start" x="261.5" y="-760" font-family="Helvetica,sans-Serif" font-size="10.00">+ Stop()</text>
</a>
</g>
</g>
<!-- Node11&#45;&gt;Node4 -->
<g id="edge10" class="edge"><title>Node11&#45;&gt;Node4</title>
<path fill="none" stroke="midnightblue" d="M308.325,-743.486C318.681,-720.701 331.764,-691.918 343.851,-665.328"/>
<polygon fill="none" stroke="midnightblue" points="305.016,-742.307 304.064,-752.859 311.388,-745.204 305.016,-742.307"/>
</g>
<!-- Node12 -->
<g id="node12" class="node"><title>Node12</title>
<g id="a_node12"><a xlink:href="../../dc/dc0/interfaceppm__java_1_1typelib_1_1_i_stat_enabled.html" target="_top" xlink:title="Interface for an object that supports runtime statistics. ">
<polygon fill="white" stroke="black" points="342.5,-758.5 342.5,-815.5 415.5,-815.5 415.5,-758.5 342.5,-758.5"/>
<text text-anchor="middle" x="379" y="-803.5" font-family="Helvetica,sans-Serif" font-size="10.00">IStatEnabled</text>
<polyline fill="none" stroke="black" points="342.5,-796.5 415.5,-796.5 "/>
<text text-anchor="middle" x="379" y="-784.5" font-family="Helvetica,sans-Serif" font-size="10.00"> </text>
<polyline fill="none" stroke="black" points="342.5,-777.5 415.5,-777.5 "/>
<text text-anchor="start" x="350.5" y="-765.5" font-family="Helvetica,sans-Serif" font-size="10.00">+ StatsGet()</text>
</a>
</g>
</g>
<!-- Node12&#45;&gt;Node4 -->
<g id="edge11" class="edge"><title>Node12&#45;&gt;Node4</title>
<path fill="none" stroke="midnightblue" d="M379,-748.253C379,-724.781 379,-693.741 379,-665.234"/>
<polygon fill="none" stroke="midnightblue" points="375.5,-748.469 379,-758.469 382.5,-748.469 375.5,-748.469"/>
</g>
<!-- Node13&#45;&gt;Node4 -->
<g id="edge14" class="edge"><title>Node13&#45;&gt;Node4</title>
<path fill="none" stroke="#404040" d="M351.197,-406.215C365.326,-420.627 378.277,-437.485 386,-456 391.283,-468.665 393.666,-482.635 394.228,-496.579"/>
<polygon fill="none" stroke="#404040" points="394.229,-496.792 398.254,-502.775 394.28,-508.792 390.254,-502.809 394.229,-496.792"/>
<text text-anchor="middle" x="408" y="-470.5" font-family="Helvetica,sans-Serif" font-size="10.00"> &#45;fGUI</text>
</g>
<!-- Node15 -->
<g id="node15" class="node"><title>Node15</title>
<g id="a_node15"><a xlink:href="../../d2/d93/classppm__java_1_1frontend_1_1gui_1_1needle_1_1_t_g_u_i_needle___timer_clipping.html" target="_top" xlink:title="A monostable timer for a clipping LED on our PPM GUI. ">
<polygon fill="white" stroke="black" points="118,-0.5 118,-211.5 270,-211.5 270,-0.5 118,-0.5"/>
<text text-anchor="middle" x="194" y="-199.5" font-family="Helvetica,sans-Serif" font-size="10.00">TGUINeedle_TimerClipping</text>
<polyline fill="none" stroke="black" points="118,-192.5 270,-192.5 "/>
<text text-anchor="start" x="126" y="-180.5" font-family="Helvetica,sans-Serif" font-size="10.00">&#45; fChannel</text>
<text text-anchor="start" x="126" y="-169.5" font-family="Helvetica,sans-Serif" font-size="10.00">&#45; fState</text>
<text text-anchor="start" x="126" y="-158.5" font-family="Helvetica,sans-Serif" font-size="10.00">&#45; fTLast</text>
<text text-anchor="start" x="126" y="-147.5" font-family="Helvetica,sans-Serif" font-size="10.00">&#45; gkIntervalLoop</text>
<text text-anchor="start" x="126" y="-136.5" font-family="Helvetica,sans-Serif" font-size="10.00">&#45; gkIntervalWait</text>
<text text-anchor="start" x="126" y="-125.5" font-family="Helvetica,sans-Serif" font-size="10.00">&#45; gkStateClear</text>
<text text-anchor="start" x="126" y="-114.5" font-family="Helvetica,sans-Serif" font-size="10.00">&#45; gkStateErr</text>
<text text-anchor="start" x="126" y="-103.5" font-family="Helvetica,sans-Serif" font-size="10.00">&#45; gkStateTerm</text>
<text text-anchor="start" x="126" y="-92.5" font-family="Helvetica,sans-Serif" font-size="10.00">&#45; gkStateWarn</text>
<polyline fill="none" stroke="black" points="118,-85.5 270,-85.5 "/>
<text text-anchor="start" x="126" y="-73.5" font-family="Helvetica,sans-Serif" font-size="10.00">+ TGUINeedle_TimerClipping()</text>
<text text-anchor="start" x="126" y="-62.5" font-family="Helvetica,sans-Serif" font-size="10.00">+ run()</text>
<text text-anchor="start" x="126" y="-51.5" font-family="Helvetica,sans-Serif" font-size="10.00">+ SetClip()</text>
<text text-anchor="start" x="126" y="-40.5" font-family="Helvetica,sans-Serif" font-size="10.00">+ Terminate()</text>
<text text-anchor="start" x="126" y="-29.5" font-family="Helvetica,sans-Serif" font-size="10.00">&#45; _DoTransition()</text>
<text text-anchor="start" x="126" y="-18.5" font-family="Helvetica,sans-Serif" font-size="10.00">&#45; _SetLED()</text>
<text text-anchor="start" x="126" y="-7.5" font-family="Helvetica,sans-Serif" font-size="10.00">&#45; _TryReset()</text>
</a>
</g>
</g>
<!-- Node13&#45;&gt;Node15 -->
<g id="edge19" class="edge"><title>Node13&#45;&gt;Node15</title>
<path fill="none" stroke="#404040" d="M233.99,-270.484C231.076,-264.329 228.372,-258.129 226,-252 222.422,-242.755 219.197,-233.016 216.3,-223.14"/>
<polygon fill="none" stroke="#404040" points="216.278,-223.061 210.811,-218.36 213.048,-211.504 218.515,-216.206 216.278,-223.061"/>
<text text-anchor="middle" x="241.5" y="-238.5" font-family="Helvetica,sans-Serif" font-size="10.00"> &#45;fHost</text>
</g>
<!-- Node14 -->
<g id="node14" class="node"><title>Node14</title>
<polygon fill="white" stroke="#bfbfbf" points="142,-558.5 142,-615.5 192,-615.5 192,-558.5 142,-558.5"/>
<text text-anchor="middle" x="167" y="-603.5" font-family="Helvetica,sans-Serif" font-size="10.00">JFrame</text>
<polyline fill="none" stroke="#bfbfbf" points="142,-596.5 192,-596.5 "/>
<text text-anchor="middle" x="167" y="-584.5" font-family="Helvetica,sans-Serif" font-size="10.00"> </text>
<polyline fill="none" stroke="#bfbfbf" points="142,-577.5 192,-577.5 "/>
<text text-anchor="middle" x="167" y="-565.5" font-family="Helvetica,sans-Serif" font-size="10.00"> </text>
</g>
<!-- Node14&#45;&gt;Node13 -->
<g id="edge15" class="edge"><title>Node14&#45;&gt;Node13</title>
<path fill="none" stroke="midnightblue" d="M182.473,-548.728C188.072,-535.73 194.598,-521.118 201,-508 212.267,-484.916 225.202,-460.294 237.455,-437.7"/>
<polygon fill="none" stroke="midnightblue" points="179.093,-547.731 178.388,-558.302 185.532,-550.478 179.093,-547.731"/>
</g>
<!-- Node15&#45;&gt;Node13 -->
<g id="edge16" class="edge"><title>Node15&#45;&gt;Node13</title>
<path fill="none" stroke="#404040" d="M253.787,-211.681C256.409,-217.797 258.84,-223.929 261,-230 264.236,-239.094 267.041,-248.737 269.468,-258.464"/>
<polygon fill="none" stroke="#404040" points="269.512,-258.655 274.773,-263.587 272.244,-270.34 266.983,-265.408 269.512,-258.655"/>
<text text-anchor="middle" x="288" y="-244" font-family="Helvetica,sans-Serif" font-size="10.00"> &#45;fTimerL</text>
<text text-anchor="middle" x="288" y="-233" font-family="Helvetica,sans-Serif" font-size="10.00">&#45;fTimerR</text>
</g>
<!-- Node16 -->
<g id="node16" class="node"><title>Node16</title>
<polygon fill="white" stroke="#bfbfbf" points="56.5,-325.5 56.5,-382.5 103.5,-382.5 103.5,-325.5 56.5,-325.5"/>
<text text-anchor="middle" x="80" y="-370.5" font-family="Helvetica,sans-Serif" font-size="10.00">Thread</text>
<polyline fill="none" stroke="#bfbfbf" points="56.5,-363.5 103.5,-363.5 "/>
<text text-anchor="middle" x="80" y="-351.5" font-family="Helvetica,sans-Serif" font-size="10.00"> </text>
<polyline fill="none" stroke="#bfbfbf" points="56.5,-344.5 103.5,-344.5 "/>
<text text-anchor="middle" x="80" y="-332.5" font-family="Helvetica,sans-Serif" font-size="10.00"> </text>
</g>
<!-- Node16&#45;&gt;Node15 -->
<g id="edge17" class="edge"><title>Node16&#45;&gt;Node15</title>
<path fill="none" stroke="midnightblue" d="M93.4397,-315.832C98.8916,-301.394 105.443,-284.799 112,-270 120.404,-251.029 129.876,-231.096 139.319,-211.934"/>
<polygon fill="none" stroke="midnightblue" points="90.0733,-314.842 89.8545,-325.435 96.6312,-317.291 90.0733,-314.842"/>
</g>
<!-- Node17 -->
<g id="node17" class="node"><title>Node17</title>
<polygon fill="white" stroke="#bfbfbf" points="121.5,-325.5 121.5,-382.5 198.5,-382.5 198.5,-325.5 121.5,-325.5"/>
<text text-anchor="middle" x="160" y="-370.5" font-family="Helvetica,sans-Serif" font-size="10.00">AtomicInteger</text>
<polyline fill="none" stroke="#bfbfbf" points="121.5,-363.5 198.5,-363.5 "/>
<text text-anchor="middle" x="160" y="-351.5" font-family="Helvetica,sans-Serif" font-size="10.00"> </text>
<polyline fill="none" stroke="#bfbfbf" points="121.5,-344.5 198.5,-344.5 "/>
<text text-anchor="middle" x="160" y="-332.5" font-family="Helvetica,sans-Serif" font-size="10.00"> </text>
</g>
<!-- Node17&#45;&gt;Node15 -->
<g id="edge18" class="edge"><title>Node17&#45;&gt;Node15</title>
<path fill="none" stroke="#404040" d="M158.218,-325.011C157.101,-299.987 156.598,-262.375 161,-230 161.282,-227.929 161.587,-225.843 161.915,-223.747"/>
<polygon fill="none" stroke="#404040" points="161.963,-223.47 159.05,-216.874 164.018,-211.647 166.932,-218.244 161.963,-223.47"/>
<text text-anchor="middle" x="184" y="-238.5" font-family="Helvetica,sans-Serif" font-size="10.00"> &#45;fRequest</text>
</g>
<!-- Node18 -->
<g id="node18" class="node"><title>Node18</title>
<polygon fill="white" stroke="#bfbfbf" points="210,-558.5 210,-615.5 266,-615.5 266,-558.5 210,-558.5"/>
<text text-anchor="middle" x="238" y="-603.5" font-family="Helvetica,sans-Serif" font-size="10.00">LedColor</text>
<polyline fill="none" stroke="#bfbfbf" points="210,-596.5 266,-596.5 "/>
<text text-anchor="middle" x="238" y="-584.5" font-family="Helvetica,sans-Serif" font-size="10.00"> </text>
<polyline fill="none" stroke="#bfbfbf" points="210,-577.5 266,-577.5 "/>
<text text-anchor="middle" x="238" y="-565.5" font-family="Helvetica,sans-Serif" font-size="10.00"> </text>
</g>
<!-- Node18&#45;&gt;Node13 -->
<g id="edge21" class="edge"><title>Node18&#45;&gt;Node13</title>
<path fill="none" stroke="#404040" d="M234.966,-558.249C232.819,-531.68 231.495,-490.631 239,-456 239.496,-453.714 240.046,-451.416 240.645,-449.113"/>
<polygon fill="none" stroke="#404040" points="240.647,-449.106 238.491,-442.225 244.013,-437.588 246.169,-444.469 240.647,-449.106"/>
<text text-anchor="middle" x="273.5" y="-481.5" font-family="Helvetica,sans-Serif" font-size="10.00"> &#45;gkColorClip</text>
<text text-anchor="middle" x="273.5" y="-470.5" font-family="Helvetica,sans-Serif" font-size="10.00">&#45;gkColorWarn</text>
<text text-anchor="middle" x="273.5" y="-459.5" font-family="Helvetica,sans-Serif" font-size="10.00">&#45;gkColorNormal</text>
</g>
<!-- Node19 -->
<g id="node19" class="node"><title>Node19</title>
<polygon fill="white" stroke="#bfbfbf" points="614,-963.5 614,-1020.5 682,-1020.5 682,-963.5 614,-963.5"/>
<text text-anchor="middle" x="648" y="-1008.5" font-family="Helvetica,sans-Serif" font-size="10.00">AtomicLong</text>
<polyline fill="none" stroke="#bfbfbf" points="614,-1001.5 682,-1001.5 "/>
<text text-anchor="middle" x="648" y="-989.5" font-family="Helvetica,sans-Serif" font-size="10.00"> </text>
<polyline fill="none" stroke="#bfbfbf" points="614,-982.5 682,-982.5 "/>
<text text-anchor="middle" x="648" y="-970.5" font-family="Helvetica,sans-Serif" font-size="10.00"> </text>
</g>
<!-- Node19&#45;&gt;Node1 -->
<g id="edge22" class="edge"><title>Node19&#45;&gt;Node1</title>
<path fill="none" stroke="#404040" d="M635.286,-963.142C627.225,-946.564 616.068,-925.433 604,-908 593.747,-893.189 581.892,-878.186 569.904,-864.039"/>
<polygon fill="none" stroke="#404040" points="569.848,-863.973 562.902,-862.033 562.022,-854.876 568.967,-856.816 569.848,-863.973"/>
<text text-anchor="middle" x="617.5" y="-881.5" font-family="Helvetica,sans-Serif" font-size="10.00"> &#45;fTimeCycle</text>
</g>
</g>
</svg>
        <g id="navigator" transform="translate(0 0)" fill="#404254">
                <rect fill="#f2f5e9" fill-opacity="0.5" stroke="#606060" stroke-width=".5" x="0" y="0" width="60" height="60"/>
                <use id="zoomplus" xlink:href="#zoomPlus" x="17" y="9" onmousedown="handleZoom(evt,'in')"/>
                <use id="zoomminus" xlink:href="#zoomMin" x="42" y="9" onmousedown="handleZoom(evt,'out')"/>
                <use id="reset" xlink:href="#resetDef" x="30" y="36" onmousedown="handleReset()"/>
                <g id="arrowUp" xlink:href="#dirArrow" transform="translate(30 24)" onmousedown="handlePan(0,-1)">
                  <use xlink:href="#rim" fill="#404040">
                        <set attributeName="fill" to="#808080" begin="arrowUp.mouseover" end="arrowUp.mouseout"/>
                  </use>
                  <path fill="none" stroke="white" stroke-width="1.5" d="M0,-3.0v7 M-2.5,-0.5L0,-3.0L2.5,-0.5"/>
                </g>
                <g id="arrowRight" xlink:href="#dirArrow" transform="rotate(90) translate(36 -43)" onmousedown="handlePan(1,0)">
                  <use xlink:href="#rim" fill="#404040">
                        <set attributeName="fill" to="#808080" begin="arrowRight.mouseover" end="arrowRight.mouseout"/>
                  </use>
                  <path fill="none" stroke="white" stroke-width="1.5" d="M0,-3.0v7 M-2.5,-0.5L0,-3.0L2.5,-0.5"/>
                </g>
                <g id="arrowDown" xlink:href="#dirArrow" transform="rotate(180) translate(-30 -48)" onmousedown="handlePan(0,1)">
                  <use xlink:href="#rim" fill="#404040">
                        <set attributeName="fill" to="#808080" begin="arrowDown.mouseover" end="arrowDown.mouseout"/>
                  </use>
                  <path fill="none" stroke="white" stroke-width="1.5" d="M0,-3.0v7 M-2.5,-0.5L0,-3.0L2.5,-0.5"/>
                </g>
                <g id="arrowLeft" xlink:href="#dirArrow" transform="rotate(270) translate(-36 17)" onmousedown="handlePan(-1,0)">
                  <use xlink:href="#rim" fill="#404040">
                        <set attributeName="fill" to="#808080" begin="arrowLeft.mouseover" end="arrowLeft.mouseout"/>
                  </use>
                  <path fill="none" stroke="white" stroke-width="1.5" d="M0,-3.0v7 M-2.5,-0.5L0,-3.0L2.5,-0.5"/>
                </g>
        </g>
        <svg viewBox="0 0 15 15" width="100%" height="30px" preserveAspectRatio="xMaxYMin meet">
         <g id="arrow_out" transform="scale(0.3 0.3)">
          <a xlink:href="classppm__java_1_1frontend_1_1gui_1_1needle_1_1_t_g_u_i_needle___surrogate___stats__coll__graph_org.svg" target="_base">
           <rect id="button" ry="5" rx="5" y="6" x="6" height="38" width="38"
                fill="#f2f5e9" fill-opacity="0.5" stroke="#606060" stroke-width="1.0"/>
           <path id="arrow"
             d="M 11.500037,31.436501 C 11.940474,20.09759 22.043105,11.32322 32.158766,21.979434 L 37.068811,17.246167 C 37.068811,17.246167 37.088388,32 37.088388,32 L 22.160133,31.978069 C 22.160133,31.978069 26.997745,27.140456 26.997745,27.140456 C 18.528582,18.264221 13.291696,25.230495 11.500037,31.436501 z"
             style="fill:#404040;"/>
          </a>
         </g>
        </svg>
</svg>
