<?xml version="1.0" encoding="UTF-8" standalone="no"?>
<!DOCTYPE svg PUBLIC "-//W3C//DTD SVG 1.1//EN"
 "http://www.w3.org/Graphics/SVG/1.1/DTD/svg11.dtd">
<!-- Generated by graphviz version 2.36.0 (20140111.2315)
 -->
<!-- Title: Broker Pages: 1 -->
<svg width="340pt" height="38pt"
 viewBox="0.00 0.00 340.00 38.00" xmlns="http://www.w3.org/2000/svg" xmlns:xlink="http://www.w3.org/1999/xlink">
<g id="graph0" class="graph" transform="scale(1 1) rotate(0) translate(4 34)">
<title>Broker</title>
<polygon fill="white" stroke="none" points="-4,4 -4,-34 336,-34 336,4 -4,4"/>
<!-- Node1 -->
<g id="node1" class="node"><title>Node1</title>
<polygon fill="#bfbfbf" stroke="black" points="0.5,-5.5 0.5,-24.5 45.5,-24.5 45.5,-5.5 0.5,-5.5"/>
<text text-anchor="middle" x="23" y="-12.5" font-family="Helvetica,sans-Serif" font-size="10.00">Broker</text>
</g>
<!-- Node2 -->
<g id="node2" class="node"><title>Node2</title>
<g id="a_node2"><a xlink:href="../../d6/da4/classppm__java_1_1backend_1_1event_1_1_t_broker.html#afb8eb442cd7b822ef4029641727998ac" target="_top" xlink:title="Internal broker worker method. ">
<polygon fill="white" stroke="black" points="82,-5.5 82,-24.5 132,-24.5 132,-5.5 82,-5.5"/>
<text text-anchor="middle" x="107" y="-12.5" font-family="Helvetica,sans-Serif" font-size="10.00">_Broker</text>
</a>
</g>
</g>
<!-- Node1&#45;&gt;Node2 -->
<g id="edge1" class="edge"><title>Node1&#45;&gt;Node2</title>
<path fill="none" stroke="midnightblue" d="M45.5445,-15C53.5935,-15 62.9448,-15 71.852,-15"/>
<polygon fill="midnightblue" stroke="midnightblue" points="71.9997,-18.5001 81.9997,-15 71.9996,-11.5001 71.9997,-18.5001"/>
</g>
<!-- Node3 -->
<g id="node3" class="node"><title>Node3</title>
<g id="a_node3"><a xlink:href="../../d9/d0c/classppm__java_1_1backend_1_1event_1_1_t_broker_subscription.html#a20ad0b729e73d82711e590e8c5e8f290" target="_top" xlink:title="ppm_java.backend.event.TBroker\lSubscription.GetSubscriber">
<polygon fill="white" stroke="black" points="168.5,-0 168.5,-30 331.5,-30 331.5,-0 168.5,-0"/>
<text text-anchor="start" x="176.5" y="-18" font-family="Helvetica,sans-Serif" font-size="10.00">ppm_java.backend.event.TBroker</text>
<text text-anchor="middle" x="250" y="-7" font-family="Helvetica,sans-Serif" font-size="10.00">Subscription.GetSubscriber</text>
</a>
</g>
</g>
<!-- Node2&#45;&gt;Node3 -->
<g id="edge2" class="edge"><title>Node2&#45;&gt;Node3</title>
<path fill="none" stroke="midnightblue" d="M132.239,-15C139.894,-15 148.853,-15 158.343,-15"/>
<polygon fill="midnightblue" stroke="midnightblue" points="158.394,-18.5001 168.394,-15 158.393,-11.5001 158.394,-18.5001"/>
</g>
</g>
</svg>
