<?xml version="1.0" encoding="UTF-8" standalone="no"?>
<!DOCTYPE svg PUBLIC "-//W3C//DTD SVG 1.1//EN"
 "http://www.w3.org/Graphics/SVG/1.1/DTD/svg11.dtd">
<!-- Generated by graphviz version 2.36.0 (20140111.2315)
 -->
<!-- Title: VAudioPort_Input_Chunks_Buffered Pages: 1 -->
<!--zoomable 1182 -->
<svg id="main" version="1.1" xmlns="http://www.w3.org/2000/svg" xmlns:xlink="http://www.w3.org/1999/xlink" xml:space="preserve" onload="init(evt)">
<style type="text/css"><![CDATA[
.edge:hover path { stroke: red; }
.edge:hover polygon { stroke: red; fill: red; }
]]></style>
<script type="text/javascript"><![CDATA[
var edges = document.getElementsByTagName('g');
if (edges && edges.length) {
  for (var i=0;i<edges.length;i++) {
    if (edges[i].id.substr(0,4)=='edge') {
      edges[i].setAttribute('class','edge');
    }
  }
}
]]></script>
        <defs>
                <circle id="rim" cx="0" cy="0" r="7"/>
                <circle id="rim2" cx="0" cy="0" r="3.5"/>
                <g id="zoomPlus">
                        <use xlink:href="#rim" fill="#404040">
                                <set attributeName="fill" to="#808080" begin="zoomplus.mouseover" end="zoomplus.mouseout"/>
                        </use>
                        <path d="M-4,0h8M0,-4v8" fill="none" stroke="white" stroke-width="1.5" pointer-events="none"/>
                </g>
                <g id="zoomMin">
                        <use xlink:href="#rim" fill="#404040">
                                <set attributeName="fill" to="#808080" begin="zoomminus.mouseover" end="zoomminus.mouseout"/>
                        </use>
                        <path d="M-4,0h8" fill="none" stroke="white" stroke-width="1.5" pointer-events="none"/>
                </g>
                <g id="dirArrow">
                        <path fill="none" stroke="white" stroke-width="1.5" d="M0,-3.0v7 M-2.5,-0.5L0,-3.0L2.5,-0.5"/>
                </g>
               <g id="resetDef">
                       <use xlink:href="#rim2" fill="#404040">
                               <set attributeName="fill" to="#808080" begin="reset.mouseover" end="reset.mouseout"/>
                       </use>
               </g>
        </defs>

<script type="text/javascript">
var viewWidth = 1069;
var viewHeight = 1182;
var sectionId = 'dynsection-1';
</script>
<script xlink:href="../../svgpan.js"/>
<svg id="graph" class="graph">
<g id="viewport">
<title>VAudioPort_Input_Chunks_Buffered</title>
<polygon fill="white" stroke="none" points="-4,4 -4,-1178 1065,-1178 1065,4 -4,4"/>
<!-- Node1 -->
<g id="node1" class="node"><title>Node1</title>
<polygon fill="#bfbfbf" stroke="black" points="443,-0.5 443,-145.5 583,-145.5 583,-0.5 443,-0.5"/>
<text text-anchor="start" x="451" y="-133.5" font-family="Helvetica,sans-Serif" font-size="10.00">VAudioPort_Input_Chunks</text>
<text text-anchor="middle" x="513" y="-122.5" font-family="Helvetica,sans-Serif" font-size="10.00">_Buffered</text>
<polyline fill="none" stroke="black" points="443,-115.5 583,-115.5 "/>
<text text-anchor="middle" x="513" y="-103.5" font-family="Helvetica,sans-Serif" font-size="10.00"> </text>
<polyline fill="none" stroke="black" points="443,-96.5 583,-96.5 "/>
<text text-anchor="start" x="451" y="-84.5" font-family="Helvetica,sans-Serif" font-size="10.00">+ FetchPacket()</text>
<text text-anchor="start" x="451" y="-73.5" font-family="Helvetica,sans-Serif" font-size="10.00">+ ReceivePacket()</text>
<text text-anchor="start" x="451" y="-62.5" font-family="Helvetica,sans-Serif" font-size="10.00">+ StatsClear()</text>
<text text-anchor="start" x="451" y="-51.5" font-family="Helvetica,sans-Serif" font-size="10.00">+ StatsGet()</text>
<text text-anchor="start" x="451" y="-40.5" font-family="Helvetica,sans-Serif" font-size="10.00"># VAudioPort_Input_Chunks</text>
<text text-anchor="start" x="451" y="-29.5" font-family="Helvetica,sans-Serif" font-size="10.00">_Buffered()</text>
<text text-anchor="start" x="451" y="-18.5" font-family="Helvetica,sans-Serif" font-size="10.00"># _Accept()</text>
<text text-anchor="start" x="451" y="-7.5" font-family="Helvetica,sans-Serif" font-size="10.00"># _GetType()</text>
</g>
<!-- Node2 -->
<g id="node2" class="node"><title>Node2</title>
<g id="a_node2"><a xlink:href="../../d9/d0e/classppm__java_1_1typelib_1_1_v_audio_port___input.html" target="_top" xlink:title="Base class for an input audio port. ">
<polygon fill="white" stroke="black" points="338,-271.5 338,-350.5 446,-350.5 446,-271.5 338,-271.5"/>
<text text-anchor="middle" x="392" y="-338.5" font-family="Helvetica,sans-Serif" font-size="10.00">VAudioPort_Input</text>
<polyline fill="none" stroke="black" points="338,-331.5 446,-331.5 "/>
<text text-anchor="start" x="346" y="-319.5" font-family="Helvetica,sans-Serif" font-size="10.00">&#45; fIPort</text>
<polyline fill="none" stroke="black" points="338,-312.5 446,-312.5 "/>
<text text-anchor="start" x="346" y="-300.5" font-family="Helvetica,sans-Serif" font-size="10.00">+ VAudioPort_Input()</text>
<text text-anchor="start" x="346" y="-289.5" font-family="Helvetica,sans-Serif" font-size="10.00">+ GetPortNum()</text>
<text text-anchor="start" x="346" y="-278.5" font-family="Helvetica,sans-Serif" font-size="10.00"># _Accept()</text>
</a>
</g>
</g>
<!-- Node2&#45;&gt;Node1 -->
<g id="edge1" class="edge"><title>Node2&#45;&gt;Node1</title>
<path fill="none" stroke="midnightblue" d="M416.517,-262.182C433.679,-228.708 456.911,-183.398 476.276,-145.626"/>
<polygon fill="none" stroke="midnightblue" points="413.293,-260.798 411.845,-271.294 419.522,-263.992 413.293,-260.798"/>
</g>
<!-- Node3 -->
<g id="node3" class="node"><title>Node3</title>
<g id="a_node3"><a xlink:href="../../de/dc9/classppm__java_1_1typelib_1_1_v_audio_port.html" target="_top" xlink:title="Base class for all audio ports. ">
<polygon fill="white" stroke="black" points="275.5,-559.5 275.5,-638.5 356.5,-638.5 356.5,-559.5 275.5,-559.5"/>
<text text-anchor="middle" x="316" y="-626.5" font-family="Helvetica,sans-Serif" font-size="10.00">VAudioPort</text>
<polyline fill="none" stroke="black" points="275.5,-619.5 356.5,-619.5 "/>
<text text-anchor="middle" x="316" y="-607.5" font-family="Helvetica,sans-Serif" font-size="10.00"> </text>
<polyline fill="none" stroke="black" points="275.5,-600.5 356.5,-600.5 "/>
<text text-anchor="start" x="283.5" y="-588.5" font-family="Helvetica,sans-Serif" font-size="10.00">+ VAudioPort()</text>
<text text-anchor="start" x="283.5" y="-577.5" font-family="Helvetica,sans-Serif" font-size="10.00"># _GetHost()</text>
<text text-anchor="start" x="283.5" y="-566.5" font-family="Helvetica,sans-Serif" font-size="10.00"># _GetType()</text>
</a>
</g>
</g>
<!-- Node3&#45;&gt;Node2 -->
<g id="edge2" class="edge"><title>Node3&#45;&gt;Node2</title>
<path fill="none" stroke="midnightblue" d="M328.824,-549.74C343.704,-493.747 367.945,-402.522 381.67,-350.874"/>
<polygon fill="none" stroke="midnightblue" points="325.435,-548.865 326.25,-559.429 332.201,-550.663 325.435,-548.865"/>
</g>
<!-- Node4 -->
<g id="node4" class="node"><title>Node4</title>
<g id="a_node4"><a xlink:href="../../d1/db3/classppm__java_1_1typelib_1_1_v_audio_object.html" target="_top" xlink:title="Base class for all browseable audio objects. ">
<polygon fill="white" stroke="black" points="336,-992.5 336,-1049.5 428,-1049.5 428,-992.5 336,-992.5"/>
<text text-anchor="middle" x="382" y="-1037.5" font-family="Helvetica,sans-Serif" font-size="10.00">VAudioObject</text>
<polyline fill="none" stroke="black" points="336,-1030.5 428,-1030.5 "/>
<text text-anchor="middle" x="382" y="-1018.5" font-family="Helvetica,sans-Serif" font-size="10.00"> </text>
<polyline fill="none" stroke="black" points="336,-1011.5 428,-1011.5 "/>
<text text-anchor="start" x="344" y="-999.5" font-family="Helvetica,sans-Serif" font-size="10.00">+ VAudioObject()</text>
</a>
</g>
</g>
<!-- Node4&#45;&gt;Node3 -->
<g id="edge3" class="edge"><title>Node4&#45;&gt;Node3</title>
<path fill="none" stroke="midnightblue" d="M376.091,-982.397C363.61,-902.975 334.678,-718.86 322.063,-638.584"/>
<polygon fill="none" stroke="midnightblue" points="372.66,-983.107 377.67,-992.443 379.575,-982.02 372.66,-983.107"/>
</g>
<!-- Node6 -->
<g id="node6" class="node"><title>Node6</title>
<g id="a_node6"><a xlink:href="../../d5/d6a/classppm__java_1_1typelib_1_1_v_audio_processor.html" target="_top" xlink:title="Base class for all modules processing audio samples. ">
<polygon fill="white" stroke="black" points="203.5,-770.5 203.5,-937.5 310.5,-937.5 310.5,-770.5 203.5,-770.5"/>
<text text-anchor="middle" x="257" y="-925.5" font-family="Helvetica,sans-Serif" font-size="10.00">VAudioProcessor</text>
<polyline fill="none" stroke="black" points="203.5,-918.5 310.5,-918.5 "/>
<text text-anchor="middle" x="257" y="-906.5" font-family="Helvetica,sans-Serif" font-size="10.00"> </text>
<polyline fill="none" stroke="black" points="203.5,-899.5 310.5,-899.5 "/>
<text text-anchor="start" x="211.5" y="-887.5" font-family="Helvetica,sans-Serif" font-size="10.00">+ VAudioProcessor()</text>
<text text-anchor="start" x="211.5" y="-876.5" font-family="Helvetica,sans-Serif" font-size="10.00">+ CreatePort_In()</text>
<text text-anchor="start" x="211.5" y="-865.5" font-family="Helvetica,sans-Serif" font-size="10.00">+ CreatePort_Out()</text>
<text text-anchor="start" x="211.5" y="-854.5" font-family="Helvetica,sans-Serif" font-size="10.00">+ GetNumPortsIn()</text>
<text text-anchor="start" x="211.5" y="-843.5" font-family="Helvetica,sans-Serif" font-size="10.00">+ GetNumPortsOut()</text>
<text text-anchor="start" x="211.5" y="-832.5" font-family="Helvetica,sans-Serif" font-size="10.00">+ GetPortIn()</text>
<text text-anchor="start" x="211.5" y="-821.5" font-family="Helvetica,sans-Serif" font-size="10.00">+ GetPortIn()</text>
<text text-anchor="start" x="211.5" y="-810.5" font-family="Helvetica,sans-Serif" font-size="10.00">+ GetPortOut()</text>
<text text-anchor="start" x="211.5" y="-799.5" font-family="Helvetica,sans-Serif" font-size="10.00">+ GetPortOut()</text>
<text text-anchor="start" x="211.5" y="-788.5" font-family="Helvetica,sans-Serif" font-size="10.00"># AddPortIn()</text>
<text text-anchor="start" x="211.5" y="-777.5" font-family="Helvetica,sans-Serif" font-size="10.00"># AddPortOut()</text>
</a>
</g>
</g>
<!-- Node4&#45;&gt;Node6 -->
<g id="edge6" class="edge"><title>Node4&#45;&gt;Node6</title>
<path fill="none" stroke="midnightblue" d="M354.965,-984.313C341.978,-967.172 325.939,-946 310.625,-925.786"/>
<polygon fill="none" stroke="midnightblue" points="352.249,-986.525 361.078,-992.383 357.829,-982.298 352.249,-986.525"/>
</g>
<!-- Node5 -->
<g id="node5" class="node"><title>Node5</title>
<g id="a_node5"><a xlink:href="../../de/dd1/classppm__java_1_1typelib_1_1_v_browseable.html" target="_top" xlink:title="Base class for all browseable objects. ">
<polygon fill="white" stroke="black" points="337.5,-1094.5 337.5,-1173.5 426.5,-1173.5 426.5,-1094.5 337.5,-1094.5"/>
<text text-anchor="middle" x="382" y="-1161.5" font-family="Helvetica,sans-Serif" font-size="10.00">VBrowseable</text>
<polyline fill="none" stroke="black" points="337.5,-1154.5 426.5,-1154.5 "/>
<text text-anchor="start" x="345.5" y="-1142.5" font-family="Helvetica,sans-Serif" font-size="10.00">&#45; fID</text>
<polyline fill="none" stroke="black" points="337.5,-1135.5 426.5,-1135.5 "/>
<text text-anchor="start" x="345.5" y="-1123.5" font-family="Helvetica,sans-Serif" font-size="10.00">+ VBrowseable()</text>
<text text-anchor="start" x="345.5" y="-1112.5" font-family="Helvetica,sans-Serif" font-size="10.00">+ GetID()</text>
<text text-anchor="start" x="345.5" y="-1101.5" font-family="Helvetica,sans-Serif" font-size="10.00"># _Register()</text>
</a>
</g>
</g>
<!-- Node5&#45;&gt;Node4 -->
<g id="edge4" class="edge"><title>Node5&#45;&gt;Node4</title>
<path fill="none" stroke="midnightblue" d="M382,-1084.23C382,-1072.36 382,-1060.08 382,-1049.6"/>
<polygon fill="none" stroke="midnightblue" points="378.5,-1084.49 382,-1094.49 385.5,-1084.49 378.5,-1084.49"/>
</g>
<!-- Node6&#45;&gt;Node3 -->
<g id="edge5" class="edge"><title>Node6&#45;&gt;Node3</title>
<path fill="none" stroke="#404040" d="M276.319,-770.158C285.508,-730.755 296.199,-684.91 304.167,-650.74"/>
<polygon fill="none" stroke="#404040" points="304.247,-650.4 301.714,-643.648 306.972,-638.714 309.505,-645.465 304.247,-650.4"/>
<text text-anchor="middle" x="298.5" y="-743.5" font-family="Helvetica,sans-Serif" font-size="10.00"> &#45;fHost</text>
</g>
<!-- Node7 -->
<g id="node7" class="node"><title>Node7</title>
<polygon fill="white" stroke="#bfbfbf" points="0,-987 0,-1055 150,-1055 150,-987 0,-987"/>
<text text-anchor="start" x="8" y="-1043" font-family="Helvetica,sans-Serif" font-size="10.00">TArrayMap&lt; ppm_java.typelib.</text>
<text text-anchor="middle" x="75" y="-1032" font-family="Helvetica,sans-Serif" font-size="10.00">VAudioPort_Output &gt;</text>
<polyline fill="none" stroke="#bfbfbf" points="0,-1025 150,-1025 "/>
<text text-anchor="middle" x="75" y="-1013" font-family="Helvetica,sans-Serif" font-size="10.00"> </text>
<polyline fill="none" stroke="#bfbfbf" points="0,-1006 150,-1006 "/>
<text text-anchor="middle" x="75" y="-994" font-family="Helvetica,sans-Serif" font-size="10.00"> </text>
</g>
<!-- Node7&#45;&gt;Node6 -->
<g id="edge7" class="edge"><title>Node7&#45;&gt;Node6</title>
<path fill="none" stroke="#404040" d="M111.83,-986.61C135.44,-965.205 166.699,-936.866 194.162,-911.969"/>
<polygon fill="none" stroke="#404040" points="194.423,-911.732 196.181,-904.739 203.313,-903.672 201.555,-910.666 194.423,-911.732"/>
<text text-anchor="middle" x="169.5" y="-959.5" font-family="Helvetica,sans-Serif" font-size="10.00"> &#45;fPortsOut</text>
</g>
<!-- Node8 -->
<g id="node8" class="node"><title>Node8</title>
<polygon fill="white" stroke="#bfbfbf" points="168,-987 168,-1055 318,-1055 318,-987 168,-987"/>
<text text-anchor="start" x="176" y="-1043" font-family="Helvetica,sans-Serif" font-size="10.00">TArrayMap&lt; ppm_java.typelib.</text>
<text text-anchor="middle" x="243" y="-1032" font-family="Helvetica,sans-Serif" font-size="10.00">VAudioPort_Input &gt;</text>
<polyline fill="none" stroke="#bfbfbf" points="168,-1025 318,-1025 "/>
<text text-anchor="middle" x="243" y="-1013" font-family="Helvetica,sans-Serif" font-size="10.00"> </text>
<polyline fill="none" stroke="#bfbfbf" points="168,-1006 318,-1006 "/>
<text text-anchor="middle" x="243" y="-994" font-family="Helvetica,sans-Serif" font-size="10.00"> </text>
</g>
<!-- Node8&#45;&gt;Node6 -->
<g id="edge8" class="edge"><title>Node8&#45;&gt;Node6</title>
<path fill="none" stroke="#404040" d="M245.833,-986.61C246.757,-975.723 247.833,-963.043 248.945,-949.934"/>
<polygon fill="none" stroke="#404040" points="248.959,-949.77 245.48,-943.454 249.973,-937.813 253.452,-944.13 248.959,-949.77"/>
<text text-anchor="middle" x="269.5" y="-959.5" font-family="Helvetica,sans-Serif" font-size="10.00"> &#45;fPortsIn</text>
</g>
<!-- Node9 -->
<g id="node9" class="node"><title>Node9</title>
<g id="a_node9"><a xlink:href="../../da/d4d/classppm__java_1_1util_1_1storage_1_1atomic_buffer_1_1_t_atomic_buffer.html" target="_top" xlink:title="An atomic&#45;access wrapper around a FloatBuffer. ">
<polygon fill="white" stroke="black" points="540.5,-194.5 540.5,-427.5 647.5,-427.5 647.5,-194.5 540.5,-194.5"/>
<text text-anchor="middle" x="594" y="-415.5" font-family="Helvetica,sans-Serif" font-size="10.00">TAtomicBuffer</text>
<polyline fill="none" stroke="black" points="540.5,-408.5 647.5,-408.5 "/>
<text text-anchor="start" x="548.5" y="-396.5" font-family="Helvetica,sans-Serif" font-size="10.00">&#45; fHasBeenCollected</text>
<text text-anchor="start" x="548.5" y="-385.5" font-family="Helvetica,sans-Serif" font-size="10.00">&#45; gkLocked</text>
<text text-anchor="start" x="548.5" y="-374.5" font-family="Helvetica,sans-Serif" font-size="10.00">&#45; gkUnlocked</text>
<polyline fill="none" stroke="black" points="540.5,-367.5 647.5,-367.5 "/>
<text text-anchor="start" x="548.5" y="-355.5" font-family="Helvetica,sans-Serif" font-size="10.00">+ TAtomicBuffer()</text>
<text text-anchor="start" x="548.5" y="-344.5" font-family="Helvetica,sans-Serif" font-size="10.00">+ TAtomicBuffer()</text>
<text text-anchor="start" x="548.5" y="-333.5" font-family="Helvetica,sans-Serif" font-size="10.00">+ TAtomicBuffer()</text>
<text text-anchor="start" x="548.5" y="-322.5" font-family="Helvetica,sans-Serif" font-size="10.00">+ Get()</text>
<text text-anchor="start" x="548.5" y="-311.5" font-family="Helvetica,sans-Serif" font-size="10.00">+ IsLocked()</text>
<text text-anchor="start" x="548.5" y="-300.5" font-family="Helvetica,sans-Serif" font-size="10.00">+ Set()</text>
<text text-anchor="start" x="548.5" y="-289.5" font-family="Helvetica,sans-Serif" font-size="10.00">+ StatsClear()</text>
<text text-anchor="start" x="548.5" y="-278.5" font-family="Helvetica,sans-Serif" font-size="10.00">+ StatsGet()</text>
<text text-anchor="start" x="548.5" y="-267.5" font-family="Helvetica,sans-Serif" font-size="10.00">&#45; _DataGet()</text>
<text text-anchor="start" x="548.5" y="-256.5" font-family="Helvetica,sans-Serif" font-size="10.00">&#45; _DataSet()</text>
<text text-anchor="start" x="548.5" y="-245.5" font-family="Helvetica,sans-Serif" font-size="10.00">&#45; _GetDeepCopy()</text>
<text text-anchor="start" x="548.5" y="-234.5" font-family="Helvetica,sans-Serif" font-size="10.00">&#45; _Init()</text>
<text text-anchor="start" x="548.5" y="-223.5" font-family="Helvetica,sans-Serif" font-size="10.00">&#45; _Lock()</text>
<text text-anchor="start" x="548.5" y="-212.5" font-family="Helvetica,sans-Serif" font-size="10.00">&#45; _TryLock()</text>
<text text-anchor="start" x="548.5" y="-201.5" font-family="Helvetica,sans-Serif" font-size="10.00">&#45; _Unlock()</text>
</a>
</g>
</g>
<!-- Node9&#45;&gt;Node1 -->
<g id="edge9" class="edge"><title>Node9&#45;&gt;Node1</title>
<path fill="none" stroke="#404040" d="M554.331,-194.42C550.017,-181.852 545.691,-169.248 541.548,-157.178"/>
<polygon fill="none" stroke="#404040" points="541.535,-157.138 535.803,-152.761 537.639,-145.788 543.37,-150.164 541.535,-157.138"/>
<text text-anchor="middle" x="565" y="-167.5" font-family="Helvetica,sans-Serif" font-size="10.00"> &#45;fBuffer</text>
</g>
<!-- Node10 -->
<g id="node10" class="node"><title>Node10</title>
<g id="a_node10"><a xlink:href="../../dc/dc0/interfaceppm__java_1_1typelib_1_1_i_stat_enabled.html" target="_top" xlink:title="Interface for an object that supports runtime statistics. ">
<polygon fill="white" stroke="black" points="374.5,-570.5 374.5,-627.5 447.5,-627.5 447.5,-570.5 374.5,-570.5"/>
<text text-anchor="middle" x="411" y="-615.5" font-family="Helvetica,sans-Serif" font-size="10.00">IStatEnabled</text>
<polyline fill="none" stroke="black" points="374.5,-608.5 447.5,-608.5 "/>
<text text-anchor="middle" x="411" y="-596.5" font-family="Helvetica,sans-Serif" font-size="10.00"> </text>
<polyline fill="none" stroke="black" points="374.5,-589.5 447.5,-589.5 "/>
<text text-anchor="start" x="382.5" y="-577.5" font-family="Helvetica,sans-Serif" font-size="10.00">+ StatsGet()</text>
</a>
</g>
</g>
<!-- Node10&#45;&gt;Node9 -->
<g id="edge10" class="edge"><title>Node10&#45;&gt;Node9</title>
<path fill="none" stroke="midnightblue" d="M421.176,-560.649C430.863,-528.707 447.33,-482.284 470,-446 489.398,-414.953 516.534,-384.644 540.476,-360.728"/>
<polygon fill="none" stroke="midnightblue" points="417.749,-559.898 418.27,-570.48 424.462,-561.882 417.749,-559.898"/>
</g>
<!-- Node11 -->
<g id="node11" class="node"><title>Node11</title>
<polygon fill="white" stroke="#bfbfbf" points="450.5,-825.5 450.5,-882.5 527.5,-882.5 527.5,-825.5 450.5,-825.5"/>
<text text-anchor="middle" x="489" y="-870.5" font-family="Helvetica,sans-Serif" font-size="10.00">AtomicInteger</text>
<polyline fill="none" stroke="#bfbfbf" points="450.5,-863.5 527.5,-863.5 "/>
<text text-anchor="middle" x="489" y="-851.5" font-family="Helvetica,sans-Serif" font-size="10.00"> </text>
<polyline fill="none" stroke="#bfbfbf" points="450.5,-844.5 527.5,-844.5 "/>
<text text-anchor="middle" x="489" y="-832.5" font-family="Helvetica,sans-Serif" font-size="10.00"> </text>
</g>
<!-- Node11&#45;&gt;Node9 -->
<g id="edge11" class="edge"><title>Node11&#45;&gt;Node9</title>
<path fill="none" stroke="#404040" d="M484.345,-825.302C474.749,-761.922 456.568,-602.079 493,-476 501.646,-446.081 517.369,-416.224 533.876,-390.345"/>
<polygon fill="none" stroke="#404040" points="533.905,-390.3 533.843,-383.089 540.476,-380.259 540.538,-387.469 533.905,-390.3"/>
<text text-anchor="middle" x="507" y="-596.5" font-family="Helvetica,sans-Serif" font-size="10.00"> &#45;fFlag</text>
</g>
<!-- Node15 -->
<g id="node15" class="node"><title>Node15</title>
<g id="a_node15"><a xlink:href="../../d4/dc0/classppm__java_1_1util_1_1storage_1_1atomic_buffer_1_1_t_atomic_buffer___stats.html" target="_top" xlink:title="Runtime statistics of a TAtomicBuffer. ">
<polygon fill="white" stroke="black" points="530,-477 530,-721 658,-721 658,-477 530,-477"/>
<text text-anchor="middle" x="594" y="-709" font-family="Helvetica,sans-Serif" font-size="10.00">TAtomicBuffer_Stats</text>
<polyline fill="none" stroke="black" points="530,-702 658,-702 "/>
<text text-anchor="start" x="538" y="-690" font-family="Helvetica,sans-Serif" font-size="10.00">&#45; fNumContentions</text>
<text text-anchor="start" x="538" y="-679" font-family="Helvetica,sans-Serif" font-size="10.00">&#45; fNumOverruns</text>
<text text-anchor="start" x="538" y="-668" font-family="Helvetica,sans-Serif" font-size="10.00">&#45; fNumUnderruns</text>
<text text-anchor="start" x="538" y="-657" font-family="Helvetica,sans-Serif" font-size="10.00">&#45; fTot_NumContentions</text>
<text text-anchor="start" x="538" y="-646" font-family="Helvetica,sans-Serif" font-size="10.00">&#45; fTot_NumOverruns</text>
<text text-anchor="start" x="538" y="-635" font-family="Helvetica,sans-Serif" font-size="10.00">&#45; fTot_NumUnderruns</text>
<text text-anchor="start" x="538" y="-624" font-family="Helvetica,sans-Serif" font-size="10.00">&#45; gkLocked</text>
<text text-anchor="start" x="538" y="-613" font-family="Helvetica,sans-Serif" font-size="10.00">&#45; gkUnlocked</text>
<polyline fill="none" stroke="black" points="530,-606 658,-606 "/>
<text text-anchor="start" x="538" y="-594" font-family="Helvetica,sans-Serif" font-size="10.00">+ TAtomicBuffer_Stats()</text>
<text text-anchor="start" x="538" y="-583" font-family="Helvetica,sans-Serif" font-size="10.00">+ Clear()</text>
<text text-anchor="start" x="538" y="-572" font-family="Helvetica,sans-Serif" font-size="10.00">+ GetDumpStr()</text>
<text text-anchor="start" x="538" y="-561" font-family="Helvetica,sans-Serif" font-size="10.00">+ GetRecord()</text>
<text text-anchor="start" x="538" y="-550" font-family="Helvetica,sans-Serif" font-size="10.00">~ IncrementContentions()</text>
<text text-anchor="start" x="538" y="-539" font-family="Helvetica,sans-Serif" font-size="10.00">~ IncrementOverruns()</text>
<text text-anchor="start" x="538" y="-528" font-family="Helvetica,sans-Serif" font-size="10.00">~ IncrementUnderruns()</text>
<text text-anchor="start" x="538" y="-517" font-family="Helvetica,sans-Serif" font-size="10.00">&#45; _Clear()</text>
<text text-anchor="start" x="538" y="-506" font-family="Helvetica,sans-Serif" font-size="10.00">&#45; _Increment()</text>
<text text-anchor="start" x="538" y="-495" font-family="Helvetica,sans-Serif" font-size="10.00">&#45; _Lock()</text>
<text text-anchor="start" x="538" y="-484" font-family="Helvetica,sans-Serif" font-size="10.00">&#45; _Unlock()</text>
</a>
</g>
</g>
<!-- Node11&#45;&gt;Node15 -->
<g id="edge17" class="edge"><title>Node11&#45;&gt;Node15</title>
<path fill="none" stroke="#404040" d="M500.437,-825.443C509.981,-802.446 524.339,-767.85 538.96,-732.619"/>
<polygon fill="none" stroke="#404040" points="539.111,-732.256 537.717,-725.181 543.711,-721.172 545.106,-728.247 539.111,-732.256"/>
<text text-anchor="middle" x="551.5" y="-743.5" font-family="Helvetica,sans-Serif" font-size="10.00"> &#45;fLock</text>
</g>
<!-- Node12 -->
<g id="node12" class="node"><title>Node12</title>
<polygon fill="white" stroke="#bfbfbf" points="676.5,-570.5 676.5,-627.5 741.5,-627.5 741.5,-570.5 676.5,-570.5"/>
<text text-anchor="middle" x="709" y="-615.5" font-family="Helvetica,sans-Serif" font-size="10.00">FloatBuffer</text>
<polyline fill="none" stroke="#bfbfbf" points="676.5,-608.5 741.5,-608.5 "/>
<text text-anchor="middle" x="709" y="-596.5" font-family="Helvetica,sans-Serif" font-size="10.00"> </text>
<polyline fill="none" stroke="#bfbfbf" points="676.5,-589.5 741.5,-589.5 "/>
<text text-anchor="middle" x="709" y="-577.5" font-family="Helvetica,sans-Serif" font-size="10.00"> </text>
</g>
<!-- Node12&#45;&gt;Node9 -->
<g id="edge12" class="edge"><title>Node12&#45;&gt;Node9</title>
<path fill="none" stroke="#404040" d="M700.173,-570.13C692.108,-545.238 679.559,-507.889 667,-476 662.279,-464.011 657.178,-451.617 651.944,-439.262"/>
<polygon fill="none" stroke="#404040" points="651.821,-438.974 645.786,-435.028 647.107,-427.939 653.143,-431.885 651.821,-438.974"/>
<text text-anchor="middle" x="678" y="-449.5" font-family="Helvetica,sans-Serif" font-size="10.00"> &#45;fBuffer</text>
</g>
<!-- Node13 -->
<g id="node13" class="node"><title>Node13</title>
<g id="a_node13"><a xlink:href="../../df/d84/enumppm__java_1_1util_1_1storage_1_1atomic_buffer_1_1_e_atomic_buffer___if_invalid_policy.html" target="_top" xlink:title="The Invalid data policy. ">
<polygon fill="white" stroke="black" points="759.5,-565 759.5,-633 906.5,-633 906.5,-565 759.5,-565"/>
<text text-anchor="middle" x="833" y="-621" font-family="Helvetica,sans-Serif" font-size="10.00">EAtomicBuffer_IfInvalidPolicy</text>
<polyline fill="none" stroke="black" points="759.5,-614 906.5,-614 "/>
<text text-anchor="start" x="767.5" y="-602" font-family="Helvetica,sans-Serif" font-size="10.00">+ kReturnEmpty</text>
<text text-anchor="start" x="767.5" y="-591" font-family="Helvetica,sans-Serif" font-size="10.00">+ kReturnNull</text>
<polyline fill="none" stroke="black" points="759.5,-584 906.5,-584 "/>
<text text-anchor="middle" x="833" y="-572" font-family="Helvetica,sans-Serif" font-size="10.00"> </text>
</a>
</g>
</g>
<!-- Node13&#45;&gt;Node9 -->
<g id="edge13" class="edge"><title>Node13&#45;&gt;Node9</title>
<path fill="none" stroke="#404040" d="M812.542,-564.863C796.53,-539.722 773.164,-504.709 750,-476 721.028,-440.093 685.818,-402.626 656.185,-372.582"/>
<polygon fill="none" stroke="#404040" points="656.035,-372.431 648.969,-370.988 647.584,-363.911 654.649,-365.354 656.035,-372.431"/>
<text text-anchor="middle" x="770.5" y="-449.5" font-family="Helvetica,sans-Serif" font-size="10.00"> &#45;fIfInvalidPolicy</text>
</g>
<!-- Node14 -->
<g id="node14" class="node"><title>Node14</title>
<g id="a_node14"><a xlink:href="../../d4/d79/enumppm__java_1_1util_1_1storage_1_1atomic_buffer_1_1_e_atomic_buffer___copy_policy.html" target="_top" xlink:title="The Copy policy. ">
<polygon fill="white" stroke="black" points="925,-559.5 925,-638.5 1061,-638.5 1061,-559.5 925,-559.5"/>
<text text-anchor="middle" x="993" y="-626.5" font-family="Helvetica,sans-Serif" font-size="10.00">EAtomicBuffer_CopyPolicy</text>
<polyline fill="none" stroke="black" points="925,-619.5 1061,-619.5 "/>
<text text-anchor="start" x="933" y="-607.5" font-family="Helvetica,sans-Serif" font-size="10.00">+ kCopyOnGet</text>
<text text-anchor="start" x="933" y="-596.5" font-family="Helvetica,sans-Serif" font-size="10.00">+ kCopyOnSet</text>
<text text-anchor="start" x="933" y="-585.5" font-family="Helvetica,sans-Serif" font-size="10.00">+ kNoCopy</text>
<polyline fill="none" stroke="black" points="925,-578.5 1061,-578.5 "/>
<text text-anchor="middle" x="993" y="-566.5" font-family="Helvetica,sans-Serif" font-size="10.00"> </text>
</a>
</g>
</g>
<!-- Node14&#45;&gt;Node9 -->
<g id="edge14" class="edge"><title>Node14&#45;&gt;Node9</title>
<path fill="none" stroke="#404040" d="M975.08,-559.28C961.495,-533.193 940.779,-499.404 915,-476 839.115,-407.107 728.947,-359.241 659.418,-333.694"/>
<polygon fill="none" stroke="#404040" points="659.059,-333.564 652.057,-335.286 647.774,-329.485 654.776,-327.763 659.059,-333.564"/>
<text text-anchor="middle" x="923" y="-449.5" font-family="Helvetica,sans-Serif" font-size="10.00"> &#45;fCopyPolicy</text>
</g>
<!-- Node15&#45;&gt;Node9 -->
<g id="edge15" class="edge"><title>Node15&#45;&gt;Node9</title>
<path fill="none" stroke="#404040" d="M594,-476.71C594,-464.493 594,-452.058 594,-439.776"/>
<polygon fill="none" stroke="#404040" points="594,-439.557 590,-433.558 594,-427.557 598,-433.557 594,-439.557"/>
<text text-anchor="middle" x="610.5" y="-449.5" font-family="Helvetica,sans-Serif" font-size="10.00"> &#45;fStats</text>
</g>
<!-- Node16 -->
<g id="node16" class="node"><title>Node16</title>
<g id="a_node16"><a xlink:href="../../d7/d5a/interfaceppm__java_1_1typelib_1_1_i_stats.html" target="_top" xlink:title="Interface for a statistics record. ">
<polygon fill="white" stroke="black" points="551,-825.5 551,-882.5 637,-882.5 637,-825.5 551,-825.5"/>
<text text-anchor="middle" x="594" y="-870.5" font-family="Helvetica,sans-Serif" font-size="10.00">IStats</text>
<polyline fill="none" stroke="black" points="551,-863.5 637,-863.5 "/>
<text text-anchor="middle" x="594" y="-851.5" font-family="Helvetica,sans-Serif" font-size="10.00"> </text>
<polyline fill="none" stroke="black" points="551,-844.5 637,-844.5 "/>
<text text-anchor="start" x="559" y="-832.5" font-family="Helvetica,sans-Serif" font-size="10.00">+ GetDumpStr()</text>
</a>
</g>
</g>
<!-- Node16&#45;&gt;Node15 -->
<g id="edge16" class="edge"><title>Node16&#45;&gt;Node15</title>
<path fill="none" stroke="midnightblue" d="M594,-815.247C594,-790.035 594,-755.344 594,-721.172"/>
<polygon fill="none" stroke="midnightblue" points="590.5,-815.443 594,-825.443 597.5,-815.443 590.5,-815.443"/>
</g>
</g>
</svg>
        <g id="navigator" transform="translate(0 0)" fill="#404254">
                <rect fill="#f2f5e9" fill-opacity="0.5" stroke="#606060" stroke-width=".5" x="0" y="0" width="60" height="60"/>
                <use id="zoomplus" xlink:href="#zoomPlus" x="17" y="9" onmousedown="handleZoom(evt,'in')"/>
                <use id="zoomminus" xlink:href="#zoomMin" x="42" y="9" onmousedown="handleZoom(evt,'out')"/>
                <use id="reset" xlink:href="#resetDef" x="30" y="36" onmousedown="handleReset()"/>
                <g id="arrowUp" xlink:href="#dirArrow" transform="translate(30 24)" onmousedown="handlePan(0,-1)">
                  <use xlink:href="#rim" fill="#404040">
                        <set attributeName="fill" to="#808080" begin="arrowUp.mouseover" end="arrowUp.mouseout"/>
                  </use>
                  <path fill="none" stroke="white" stroke-width="1.5" d="M0,-3.0v7 M-2.5,-0.5L0,-3.0L2.5,-0.5"/>
                </g>
                <g id="arrowRight" xlink:href="#dirArrow" transform="rotate(90) translate(36 -43)" onmousedown="handlePan(1,0)">
                  <use xlink:href="#rim" fill="#404040">
                        <set attributeName="fill" to="#808080" begin="arrowRight.mouseover" end="arrowRight.mouseout"/>
                  </use>
                  <path fill="none" stroke="white" stroke-width="1.5" d="M0,-3.0v7 M-2.5,-0.5L0,-3.0L2.5,-0.5"/>
                </g>
                <g id="arrowDown" xlink:href="#dirArrow" transform="rotate(180) translate(-30 -48)" onmousedown="handlePan(0,1)">
                  <use xlink:href="#rim" fill="#404040">
                        <set attributeName="fill" to="#808080" begin="arrowDown.mouseover" end="arrowDown.mouseout"/>
                  </use>
                  <path fill="none" stroke="white" stroke-width="1.5" d="M0,-3.0v7 M-2.5,-0.5L0,-3.0L2.5,-0.5"/>
                </g>
                <g id="arrowLeft" xlink:href="#dirArrow" transform="rotate(270) translate(-36 17)" onmousedown="handlePan(-1,0)">
                  <use xlink:href="#rim" fill="#404040">
                        <set attributeName="fill" to="#808080" begin="arrowLeft.mouseover" end="arrowLeft.mouseout"/>
                  </use>
                  <path fill="none" stroke="white" stroke-width="1.5" d="M0,-3.0v7 M-2.5,-0.5L0,-3.0L2.5,-0.5"/>
                </g>
        </g>
        <svg viewBox="0 0 15 15" width="100%" height="30px" preserveAspectRatio="xMaxYMin meet">
         <g id="arrow_out" transform="scale(0.3 0.3)">
          <a xlink:href="classppm__java_1_1typelib_1_1_v_audio_port___input___chunks___buffered__coll__graph_org.svg" target="_base">
           <rect id="button" ry="5" rx="5" y="6" x="6" height="38" width="38"
                fill="#f2f5e9" fill-opacity="0.5" stroke="#606060" stroke-width="1.0"/>
           <path id="arrow"
             d="M 11.500037,31.436501 C 11.940474,20.09759 22.043105,11.32322 32.158766,21.979434 L 37.068811,17.246167 C 37.068811,17.246167 37.088388,32 37.088388,32 L 22.160133,31.978069 C 22.160133,31.978069 26.997745,27.140456 26.997745,27.140456 C 18.528582,18.264221 13.291696,25.230495 11.500037,31.436501 z"
             style="fill:#404040;"/>
          </a>
         </g>
        </svg>
</svg>
