<?xml version="1.0" encoding="UTF-8" standalone="no"?>
<!DOCTYPE svg PUBLIC "-//W3C//DTD SVG 1.1//EN"
 "http://www.w3.org/Graphics/SVG/1.1/DTD/svg11.dtd">
<!-- Generated by graphviz version 2.36.0 (20140111.2315)
 -->
<!-- Title: VAudioPort_Input_Chunks_Buffered Pages: 1 -->
<svg width="1069pt" height="1148pt"
 viewBox="0.00 0.00 1069.00 1148.00" xmlns="http://www.w3.org/2000/svg" xmlns:xlink="http://www.w3.org/1999/xlink">
<g id="graph0" class="graph" transform="scale(1 1) rotate(0) translate(4 1144)">
<title>VAudioPort_Input_Chunks_Buffered</title>
<polygon fill="white" stroke="none" points="-4,4 -4,-1144 1065,-1144 1065,4 -4,4"/>
<!-- Node1 -->
<g id="node1" class="node"><title>Node1</title>
<polygon fill="#bfbfbf" stroke="black" points="443,-0.5 443,-145.5 583,-145.5 583,-0.5 443,-0.5"/>
<text text-anchor="start" x="451" y="-133.5" font-family="Helvetica,sans-Serif" font-size="10.00">VAudioPort_Input_Chunks</text>
<text text-anchor="middle" x="513" y="-122.5" font-family="Helvetica,sans-Serif" font-size="10.00">_Buffered</text>
<polyline fill="none" stroke="black" points="443,-115.5 583,-115.5 "/>
<text text-anchor="middle" x="513" y="-103.5" font-family="Helvetica,sans-Serif" font-size="10.00"> </text>
<polyline fill="none" stroke="black" points="443,-96.5 583,-96.5 "/>
<text text-anchor="start" x="451" y="-84.5" font-family="Helvetica,sans-Serif" font-size="10.00">+ FetchPacket()</text>
<text text-anchor="start" x="451" y="-73.5" font-family="Helvetica,sans-Serif" font-size="10.00">+ ReceivePacket()</text>
<text text-anchor="start" x="451" y="-62.5" font-family="Helvetica,sans-Serif" font-size="10.00">+ StatsClear()</text>
<text text-anchor="start" x="451" y="-51.5" font-family="Helvetica,sans-Serif" font-size="10.00">+ StatsGet()</text>
<text text-anchor="start" x="451" y="-40.5" font-family="Helvetica,sans-Serif" font-size="10.00"># VAudioPort_Input_Chunks</text>
<text text-anchor="start" x="451" y="-29.5" font-family="Helvetica,sans-Serif" font-size="10.00">_Buffered()</text>
<text text-anchor="start" x="451" y="-18.5" font-family="Helvetica,sans-Serif" font-size="10.00"># _Accept()</text>
<text text-anchor="start" x="451" y="-7.5" font-family="Helvetica,sans-Serif" font-size="10.00"># _GetType()</text>
</g>
<!-- Node2 -->
<g id="node2" class="node"><title>Node2</title>
<g id="a_node2"><a xlink:href="../../d9/d0e/classppm__java_1_1typelib_1_1_v_audio_port___input.html" target="_top" xlink:title="Base class for an input audio port. ">
<polygon fill="white" stroke="black" points="338,-271.5 338,-350.5 446,-350.5 446,-271.5 338,-271.5"/>
<text text-anchor="middle" x="392" y="-338.5" font-family="Helvetica,sans-Serif" font-size="10.00">VAudioPort_Input</text>
<polyline fill="none" stroke="black" points="338,-331.5 446,-331.5 "/>
<text text-anchor="start" x="346" y="-319.5" font-family="Helvetica,sans-Serif" font-size="10.00">&#45; fIPort</text>
<polyline fill="none" stroke="black" points="338,-312.5 446,-312.5 "/>
<text text-anchor="start" x="346" y="-300.5" font-family="Helvetica,sans-Serif" font-size="10.00">+ VAudioPort_Input()</text>
<text text-anchor="start" x="346" y="-289.5" font-family="Helvetica,sans-Serif" font-size="10.00">+ GetPortNum()</text>
<text text-anchor="start" x="346" y="-278.5" font-family="Helvetica,sans-Serif" font-size="10.00"># _Accept()</text>
</a>
</g>
</g>
<!-- Node2&#45;&gt;Node1 -->
<g id="edge1" class="edge"><title>Node2&#45;&gt;Node1</title>
<path fill="none" stroke="midnightblue" d="M416.517,-262.182C433.679,-228.708 456.911,-183.398 476.276,-145.626"/>
<polygon fill="none" stroke="midnightblue" points="413.293,-260.798 411.845,-271.294 419.522,-263.992 413.293,-260.798"/>
</g>
<!-- Node3 -->
<g id="node3" class="node"><title>Node3</title>
<g id="a_node3"><a xlink:href="../../de/dc9/classppm__java_1_1typelib_1_1_v_audio_port.html" target="_top" xlink:title="Base class for all audio ports. ">
<polygon fill="white" stroke="black" points="275.5,-542.5 275.5,-621.5 356.5,-621.5 356.5,-542.5 275.5,-542.5"/>
<text text-anchor="middle" x="316" y="-609.5" font-family="Helvetica,sans-Serif" font-size="10.00">VAudioPort</text>
<polyline fill="none" stroke="black" points="275.5,-602.5 356.5,-602.5 "/>
<text text-anchor="middle" x="316" y="-590.5" font-family="Helvetica,sans-Serif" font-size="10.00"> </text>
<polyline fill="none" stroke="black" points="275.5,-583.5 356.5,-583.5 "/>
<text text-anchor="start" x="283.5" y="-571.5" font-family="Helvetica,sans-Serif" font-size="10.00">+ VAudioPort()</text>
<text text-anchor="start" x="283.5" y="-560.5" font-family="Helvetica,sans-Serif" font-size="10.00"># _GetHost()</text>
<text text-anchor="start" x="283.5" y="-549.5" font-family="Helvetica,sans-Serif" font-size="10.00"># _GetType()</text>
</a>
</g>
</g>
<!-- Node3&#45;&gt;Node2 -->
<g id="edge2" class="edge"><title>Node3&#45;&gt;Node2</title>
<path fill="none" stroke="midnightblue" d="M329.62,-532.791C344.314,-480.783 367.425,-398.982 381.008,-350.906"/>
<polygon fill="none" stroke="midnightblue" points="326.24,-531.884 326.889,-542.459 332.976,-533.787 326.24,-531.884"/>
</g>
<!-- Node4 -->
<g id="node4" class="node"><title>Node4</title>
<g id="a_node4"><a xlink:href="../../d1/db3/classppm__java_1_1typelib_1_1_v_audio_object.html" target="_top" xlink:title="Base class for all browseable audio objects. ">
<polygon fill="white" stroke="black" points="336,-958.5 336,-1015.5 428,-1015.5 428,-958.5 336,-958.5"/>
<text text-anchor="middle" x="382" y="-1003.5" font-family="Helvetica,sans-Serif" font-size="10.00">VAudioObject</text>
<polyline fill="none" stroke="black" points="336,-996.5 428,-996.5 "/>
<text text-anchor="middle" x="382" y="-984.5" font-family="Helvetica,sans-Serif" font-size="10.00"> </text>
<polyline fill="none" stroke="black" points="336,-977.5 428,-977.5 "/>
<text text-anchor="start" x="344" y="-965.5" font-family="Helvetica,sans-Serif" font-size="10.00">+ VAudioObject()</text>
</a>
</g>
</g>
<!-- Node4&#45;&gt;Node3 -->
<g id="edge3" class="edge"><title>Node4&#45;&gt;Node3</title>
<path fill="none" stroke="midnightblue" d="M375.8,-948.144C363.249,-871.503 334.952,-698.723 322.309,-621.526"/>
<polygon fill="none" stroke="midnightblue" points="372.393,-948.997 377.464,-958.3 379.301,-947.866 372.393,-948.997"/>
</g>
<!-- Node6 -->
<g id="node6" class="node"><title>Node6</title>
<g id="a_node6"><a xlink:href="../../d5/d6a/classppm__java_1_1typelib_1_1_v_audio_processor.html" target="_top" xlink:title="Base class for all modules processing audio samples. ">
<polygon fill="white" stroke="black" points="203.5,-736.5 203.5,-903.5 310.5,-903.5 310.5,-736.5 203.5,-736.5"/>
<text text-anchor="middle" x="257" y="-891.5" font-family="Helvetica,sans-Serif" font-size="10.00">VAudioProcessor</text>
<polyline fill="none" stroke="black" points="203.5,-884.5 310.5,-884.5 "/>
<text text-anchor="middle" x="257" y="-872.5" font-family="Helvetica,sans-Serif" font-size="10.00"> </text>
<polyline fill="none" stroke="black" points="203.5,-865.5 310.5,-865.5 "/>
<text text-anchor="start" x="211.5" y="-853.5" font-family="Helvetica,sans-Serif" font-size="10.00">+ VAudioProcessor()</text>
<text text-anchor="start" x="211.5" y="-842.5" font-family="Helvetica,sans-Serif" font-size="10.00">+ CreatePort_In()</text>
<text text-anchor="start" x="211.5" y="-831.5" font-family="Helvetica,sans-Serif" font-size="10.00">+ CreatePort_Out()</text>
<text text-anchor="start" x="211.5" y="-820.5" font-family="Helvetica,sans-Serif" font-size="10.00">+ GetNumPortsIn()</text>
<text text-anchor="start" x="211.5" y="-809.5" font-family="Helvetica,sans-Serif" font-size="10.00">+ GetNumPortsOut()</text>
<text text-anchor="start" x="211.5" y="-798.5" font-family="Helvetica,sans-Serif" font-size="10.00">+ GetPortIn()</text>
<text text-anchor="start" x="211.5" y="-787.5" font-family="Helvetica,sans-Serif" font-size="10.00">+ GetPortIn()</text>
<text text-anchor="start" x="211.5" y="-776.5" font-family="Helvetica,sans-Serif" font-size="10.00">+ GetPortOut()</text>
<text text-anchor="start" x="211.5" y="-765.5" font-family="Helvetica,sans-Serif" font-size="10.00">+ GetPortOut()</text>
<text text-anchor="start" x="211.5" y="-754.5" font-family="Helvetica,sans-Serif" font-size="10.00"># AddPortIn()</text>
<text text-anchor="start" x="211.5" y="-743.5" font-family="Helvetica,sans-Serif" font-size="10.00"># AddPortOut()</text>
</a>
</g>
</g>
<!-- Node4&#45;&gt;Node6 -->
<g id="edge6" class="edge"><title>Node4&#45;&gt;Node6</title>
<path fill="none" stroke="midnightblue" d="M354.965,-950.313C341.978,-933.172 325.939,-912 310.625,-891.786"/>
<polygon fill="none" stroke="midnightblue" points="352.249,-952.525 361.078,-958.383 357.829,-948.298 352.249,-952.525"/>
</g>
<!-- Node5 -->
<g id="node5" class="node"><title>Node5</title>
<g id="a_node5"><a xlink:href="../../de/dd1/classppm__java_1_1typelib_1_1_v_browseable.html" target="_top" xlink:title="Base class for all browseable objects. ">
<polygon fill="white" stroke="black" points="337.5,-1060.5 337.5,-1139.5 426.5,-1139.5 426.5,-1060.5 337.5,-1060.5"/>
<text text-anchor="middle" x="382" y="-1127.5" font-family="Helvetica,sans-Serif" font-size="10.00">VBrowseable</text>
<polyline fill="none" stroke="black" points="337.5,-1120.5 426.5,-1120.5 "/>
<text text-anchor="start" x="345.5" y="-1108.5" font-family="Helvetica,sans-Serif" font-size="10.00">&#45; fID</text>
<polyline fill="none" stroke="black" points="337.5,-1101.5 426.5,-1101.5 "/>
<text text-anchor="start" x="345.5" y="-1089.5" font-family="Helvetica,sans-Serif" font-size="10.00">+ VBrowseable()</text>
<text text-anchor="start" x="345.5" y="-1078.5" font-family="Helvetica,sans-Serif" font-size="10.00">+ GetID()</text>
<text text-anchor="start" x="345.5" y="-1067.5" font-family="Helvetica,sans-Serif" font-size="10.00"># _Register()</text>
</a>
</g>
</g>
<!-- Node5&#45;&gt;Node4 -->
<g id="edge4" class="edge"><title>Node5&#45;&gt;Node4</title>
<path fill="none" stroke="midnightblue" d="M382,-1050.23C382,-1038.36 382,-1026.08 382,-1015.6"/>
<polygon fill="none" stroke="midnightblue" points="378.5,-1050.49 382,-1060.49 385.5,-1050.49 378.5,-1050.49"/>
</g>
<!-- Node6&#45;&gt;Node3 -->
<g id="edge5" class="edge"><title>Node6&#45;&gt;Node3</title>
<path fill="none" stroke="#404040" d="M277.635,-736.459C286.222,-702.112 295.913,-663.347 303.407,-633.372"/>
<polygon fill="none" stroke="#404040" points="303.46,-633.159 301.035,-626.367 306.371,-621.517 308.796,-628.308 303.46,-633.159"/>
<text text-anchor="middle" x="300.5" y="-709.5" font-family="Helvetica,sans-Serif" font-size="10.00"> &#45;fHost</text>
</g>
<!-- Node7 -->
<g id="node7" class="node"><title>Node7</title>
<polygon fill="white" stroke="#bfbfbf" points="0,-953 0,-1021 150,-1021 150,-953 0,-953"/>
<text text-anchor="start" x="8" y="-1009" font-family="Helvetica,sans-Serif" font-size="10.00">TArrayMap&lt; ppm_java.typelib.</text>
<text text-anchor="middle" x="75" y="-998" font-family="Helvetica,sans-Serif" font-size="10.00">VAudioPort_Output &gt;</text>
<polyline fill="none" stroke="#bfbfbf" points="0,-991 150,-991 "/>
<text text-anchor="middle" x="75" y="-979" font-family="Helvetica,sans-Serif" font-size="10.00"> </text>
<polyline fill="none" stroke="#bfbfbf" points="0,-972 150,-972 "/>
<text text-anchor="middle" x="75" y="-960" font-family="Helvetica,sans-Serif" font-size="10.00"> </text>
</g>
<!-- Node7&#45;&gt;Node6 -->
<g id="edge7" class="edge"><title>Node7&#45;&gt;Node6</title>
<path fill="none" stroke="#404040" d="M111.83,-952.61C135.44,-931.205 166.699,-902.866 194.162,-877.969"/>
<polygon fill="none" stroke="#404040" points="194.423,-877.732 196.181,-870.739 203.313,-869.672 201.555,-876.666 194.423,-877.732"/>
<text text-anchor="middle" x="169.5" y="-925.5" font-family="Helvetica,sans-Serif" font-size="10.00"> &#45;fPortsOut</text>
</g>
<!-- Node8 -->
<g id="node8" class="node"><title>Node8</title>
<polygon fill="white" stroke="#bfbfbf" points="168,-953 168,-1021 318,-1021 318,-953 168,-953"/>
<text text-anchor="start" x="176" y="-1009" font-family="Helvetica,sans-Serif" font-size="10.00">TArrayMap&lt; ppm_java.typelib.</text>
<text text-anchor="middle" x="243" y="-998" font-family="Helvetica,sans-Serif" font-size="10.00">VAudioPort_Input &gt;</text>
<polyline fill="none" stroke="#bfbfbf" points="168,-991 318,-991 "/>
<text text-anchor="middle" x="243" y="-979" font-family="Helvetica,sans-Serif" font-size="10.00"> </text>
<polyline fill="none" stroke="#bfbfbf" points="168,-972 318,-972 "/>
<text text-anchor="middle" x="243" y="-960" font-family="Helvetica,sans-Serif" font-size="10.00"> </text>
</g>
<!-- Node8&#45;&gt;Node6 -->
<g id="edge8" class="edge"><title>Node8&#45;&gt;Node6</title>
<path fill="none" stroke="#404040" d="M245.833,-952.61C246.757,-941.723 247.833,-929.043 248.945,-915.934"/>
<polygon fill="none" stroke="#404040" points="248.959,-915.77 245.48,-909.454 249.973,-903.813 253.452,-910.13 248.959,-915.77"/>
<text text-anchor="middle" x="269.5" y="-925.5" font-family="Helvetica,sans-Serif" font-size="10.00"> &#45;fPortsIn</text>
</g>
<!-- Node9 -->
<g id="node9" class="node"><title>Node9</title>
<g id="a_node9"><a xlink:href="../../da/d4d/classppm__java_1_1util_1_1storage_1_1atomic_buffer_1_1_t_atomic_buffer.html" target="_top" xlink:title="An atomic&#45;access wrapper around a FloatBuffer. ">
<polygon fill="white" stroke="black" points="540.5,-194.5 540.5,-427.5 647.5,-427.5 647.5,-194.5 540.5,-194.5"/>
<text text-anchor="middle" x="594" y="-415.5" font-family="Helvetica,sans-Serif" font-size="10.00">TAtomicBuffer</text>
<polyline fill="none" stroke="black" points="540.5,-408.5 647.5,-408.5 "/>
<text text-anchor="start" x="548.5" y="-396.5" font-family="Helvetica,sans-Serif" font-size="10.00">&#45; fHasBeenCollected</text>
<text text-anchor="start" x="548.5" y="-385.5" font-family="Helvetica,sans-Serif" font-size="10.00">&#45; gkLocked</text>
<text text-anchor="start" x="548.5" y="-374.5" font-family="Helvetica,sans-Serif" font-size="10.00">&#45; gkUnlocked</text>
<polyline fill="none" stroke="black" points="540.5,-367.5 647.5,-367.5 "/>
<text text-anchor="start" x="548.5" y="-355.5" font-family="Helvetica,sans-Serif" font-size="10.00">+ TAtomicBuffer()</text>
<text text-anchor="start" x="548.5" y="-344.5" font-family="Helvetica,sans-Serif" font-size="10.00">+ TAtomicBuffer()</text>
<text text-anchor="start" x="548.5" y="-333.5" font-family="Helvetica,sans-Serif" font-size="10.00">+ TAtomicBuffer()</text>
<text text-anchor="start" x="548.5" y="-322.5" font-family="Helvetica,sans-Serif" font-size="10.00">+ Get()</text>
<text text-anchor="start" x="548.5" y="-311.5" font-family="Helvetica,sans-Serif" font-size="10.00">+ IsLocked()</text>
<text text-anchor="start" x="548.5" y="-300.5" font-family="Helvetica,sans-Serif" font-size="10.00">+ Set()</text>
<text text-anchor="start" x="548.5" y="-289.5" font-family="Helvetica,sans-Serif" font-size="10.00">+ StatsClear()</text>
<text text-anchor="start" x="548.5" y="-278.5" font-family="Helvetica,sans-Serif" font-size="10.00">+ StatsGet()</text>
<text text-anchor="start" x="548.5" y="-267.5" font-family="Helvetica,sans-Serif" font-size="10.00">&#45; _DataGet()</text>
<text text-anchor="start" x="548.5" y="-256.5" font-family="Helvetica,sans-Serif" font-size="10.00">&#45; _DataSet()</text>
<text text-anchor="start" x="548.5" y="-245.5" font-family="Helvetica,sans-Serif" font-size="10.00">&#45; _GetDeepCopy()</text>
<text text-anchor="start" x="548.5" y="-234.5" font-family="Helvetica,sans-Serif" font-size="10.00">&#45; _Init()</text>
<text text-anchor="start" x="548.5" y="-223.5" font-family="Helvetica,sans-Serif" font-size="10.00">&#45; _Lock()</text>
<text text-anchor="start" x="548.5" y="-212.5" font-family="Helvetica,sans-Serif" font-size="10.00">&#45; _TryLock()</text>
<text text-anchor="start" x="548.5" y="-201.5" font-family="Helvetica,sans-Serif" font-size="10.00">&#45; _Unlock()</text>
</a>
</g>
</g>
<!-- Node9&#45;&gt;Node1 -->
<g id="edge9" class="edge"><title>Node9&#45;&gt;Node1</title>
<path fill="none" stroke="#404040" d="M554.331,-194.42C550.017,-181.852 545.691,-169.248 541.548,-157.178"/>
<polygon fill="none" stroke="#404040" points="541.535,-157.138 535.803,-152.761 537.639,-145.788 543.37,-150.164 541.535,-157.138"/>
<text text-anchor="middle" x="565" y="-167.5" font-family="Helvetica,sans-Serif" font-size="10.00"> &#45;fBuffer</text>
</g>
<!-- Node10 -->
<g id="node10" class="node"><title>Node10</title>
<g id="a_node10"><a xlink:href="../../dc/dc0/interfaceppm__java_1_1typelib_1_1_i_stat_enabled.html" target="_top" xlink:title="Interface for an object that supports runtime statistics. ">
<polygon fill="white" stroke="black" points="374.5,-553.5 374.5,-610.5 447.5,-610.5 447.5,-553.5 374.5,-553.5"/>
<text text-anchor="middle" x="411" y="-598.5" font-family="Helvetica,sans-Serif" font-size="10.00">IStatEnabled</text>
<polyline fill="none" stroke="black" points="374.5,-591.5 447.5,-591.5 "/>
<text text-anchor="middle" x="411" y="-579.5" font-family="Helvetica,sans-Serif" font-size="10.00"> </text>
<polyline fill="none" stroke="black" points="374.5,-572.5 447.5,-572.5 "/>
<text text-anchor="start" x="382.5" y="-560.5" font-family="Helvetica,sans-Serif" font-size="10.00">+ StatsGet()</text>
</a>
</g>
</g>
<!-- Node10&#45;&gt;Node9 -->
<g id="edge10" class="edge"><title>Node10&#45;&gt;Node9</title>
<path fill="none" stroke="midnightblue" d="M423.414,-543.8C433.684,-515.695 449.833,-476.826 470,-446 489.869,-415.63 516.77,-385.62 540.439,-361.725"/>
<polygon fill="none" stroke="midnightblue" points="420.103,-542.668 420.03,-553.262 426.694,-545.025 420.103,-542.668"/>
</g>
<!-- Node11 -->
<g id="node11" class="node"><title>Node11</title>
<polygon fill="white" stroke="#bfbfbf" points="450.5,-791.5 450.5,-848.5 527.5,-848.5 527.5,-791.5 450.5,-791.5"/>
<text text-anchor="middle" x="489" y="-836.5" font-family="Helvetica,sans-Serif" font-size="10.00">AtomicInteger</text>
<polyline fill="none" stroke="#bfbfbf" points="450.5,-829.5 527.5,-829.5 "/>
<text text-anchor="middle" x="489" y="-817.5" font-family="Helvetica,sans-Serif" font-size="10.00"> </text>
<polyline fill="none" stroke="#bfbfbf" points="450.5,-810.5 527.5,-810.5 "/>
<text text-anchor="middle" x="489" y="-798.5" font-family="Helvetica,sans-Serif" font-size="10.00"> </text>
</g>
<!-- Node11&#45;&gt;Node9 -->
<g id="edge11" class="edge"><title>Node11&#45;&gt;Node9</title>
<path fill="none" stroke="#404040" d="M484.407,-791.151C475.669,-731.783 460.289,-588.976 493,-476 501.661,-446.085 517.389,-416.23 533.895,-390.351"/>
<polygon fill="none" stroke="#404040" points="533.924,-390.306 533.862,-383.095 540.494,-380.264 540.556,-387.475 533.924,-390.306"/>
<text text-anchor="middle" x="507" y="-579.5" font-family="Helvetica,sans-Serif" font-size="10.00"> &#45;fFlag</text>
</g>
<!-- Node15 -->
<g id="node15" class="node"><title>Node15</title>
<g id="a_node15"><a xlink:href="../../d4/dc0/classppm__java_1_1util_1_1storage_1_1atomic_buffer_1_1_t_atomic_buffer___stats.html" target="_top" xlink:title="Runtime statistics of a TAtomicBuffer. ">
<polygon fill="white" stroke="black" points="530,-476.5 530,-687.5 658,-687.5 658,-476.5 530,-476.5"/>
<text text-anchor="middle" x="594" y="-675.5" font-family="Helvetica,sans-Serif" font-size="10.00">TAtomicBuffer_Stats</text>
<polyline fill="none" stroke="black" points="530,-668.5 658,-668.5 "/>
<text text-anchor="start" x="538" y="-656.5" font-family="Helvetica,sans-Serif" font-size="10.00">~ fNumContentions</text>
<text text-anchor="start" x="538" y="-645.5" font-family="Helvetica,sans-Serif" font-size="10.00">~ fNumOverruns</text>
<text text-anchor="start" x="538" y="-634.5" font-family="Helvetica,sans-Serif" font-size="10.00">&#45; fNumUnderruns</text>
<text text-anchor="start" x="538" y="-623.5" font-family="Helvetica,sans-Serif" font-size="10.00">&#45; gkLocked</text>
<text text-anchor="start" x="538" y="-612.5" font-family="Helvetica,sans-Serif" font-size="10.00">&#45; gkUnlocked</text>
<polyline fill="none" stroke="black" points="530,-605.5 658,-605.5 "/>
<text text-anchor="start" x="538" y="-593.5" font-family="Helvetica,sans-Serif" font-size="10.00">+ TAtomicBuffer_Stats()</text>
<text text-anchor="start" x="538" y="-582.5" font-family="Helvetica,sans-Serif" font-size="10.00">+ Clear()</text>
<text text-anchor="start" x="538" y="-571.5" font-family="Helvetica,sans-Serif" font-size="10.00">+ GetDumpStr()</text>
<text text-anchor="start" x="538" y="-560.5" font-family="Helvetica,sans-Serif" font-size="10.00">+ GetRecord()</text>
<text text-anchor="start" x="538" y="-549.5" font-family="Helvetica,sans-Serif" font-size="10.00">~ IncrementContentions()</text>
<text text-anchor="start" x="538" y="-538.5" font-family="Helvetica,sans-Serif" font-size="10.00">~ IncrementOverruns()</text>
<text text-anchor="start" x="538" y="-527.5" font-family="Helvetica,sans-Serif" font-size="10.00">~ IncrementUnderruns()</text>
<text text-anchor="start" x="538" y="-516.5" font-family="Helvetica,sans-Serif" font-size="10.00">&#45; _Clear()</text>
<text text-anchor="start" x="538" y="-505.5" font-family="Helvetica,sans-Serif" font-size="10.00">&#45; _Increment()</text>
<text text-anchor="start" x="538" y="-494.5" font-family="Helvetica,sans-Serif" font-size="10.00">&#45; _Lock()</text>
<text text-anchor="start" x="538" y="-483.5" font-family="Helvetica,sans-Serif" font-size="10.00">&#45; _Unlock()</text>
</a>
</g>
</g>
<!-- Node11&#45;&gt;Node15 -->
<g id="edge17" class="edge"><title>Node11&#45;&gt;Node15</title>
<path fill="none" stroke="#404040" d="M501.25,-791.466C511.575,-768.261 527.089,-733.391 542.489,-698.776"/>
<polygon fill="none" stroke="#404040" points="542.601,-698.526 541.385,-691.418 547.479,-687.562 548.694,-694.67 542.601,-698.526"/>
<text text-anchor="middle" x="554.5" y="-709.5" font-family="Helvetica,sans-Serif" font-size="10.00"> &#45;fLock</text>
</g>
<!-- Node12 -->
<g id="node12" class="node"><title>Node12</title>
<polygon fill="white" stroke="#bfbfbf" points="676.5,-553.5 676.5,-610.5 741.5,-610.5 741.5,-553.5 676.5,-553.5"/>
<text text-anchor="middle" x="709" y="-598.5" font-family="Helvetica,sans-Serif" font-size="10.00">FloatBuffer</text>
<polyline fill="none" stroke="#bfbfbf" points="676.5,-591.5 741.5,-591.5 "/>
<text text-anchor="middle" x="709" y="-579.5" font-family="Helvetica,sans-Serif" font-size="10.00"> </text>
<polyline fill="none" stroke="#bfbfbf" points="676.5,-572.5 741.5,-572.5 "/>
<text text-anchor="middle" x="709" y="-560.5" font-family="Helvetica,sans-Serif" font-size="10.00"> </text>
</g>
<!-- Node12&#45;&gt;Node9 -->
<g id="edge12" class="edge"><title>Node12&#45;&gt;Node9</title>
<path fill="none" stroke="#404040" d="M698.234,-553.248C689.915,-532.011 678.001,-502.044 667,-476 661.888,-463.898 656.481,-451.335 651.014,-438.791"/>
<polygon fill="none" stroke="#404040" points="651.009,-438.779 644.939,-434.885 646.2,-427.785 652.269,-431.679 651.009,-438.779"/>
<text text-anchor="middle" x="676" y="-449.5" font-family="Helvetica,sans-Serif" font-size="10.00"> &#45;fBuffer</text>
</g>
<!-- Node13 -->
<g id="node13" class="node"><title>Node13</title>
<g id="a_node13"><a xlink:href="../../df/d84/enumppm__java_1_1util_1_1storage_1_1atomic_buffer_1_1_e_atomic_buffer___if_invalid_policy.html" target="_top" xlink:title="The Invalid data policy. ">
<polygon fill="white" stroke="black" points="759.5,-548 759.5,-616 906.5,-616 906.5,-548 759.5,-548"/>
<text text-anchor="middle" x="833" y="-604" font-family="Helvetica,sans-Serif" font-size="10.00">EAtomicBuffer_IfInvalidPolicy</text>
<polyline fill="none" stroke="black" points="759.5,-597 906.5,-597 "/>
<text text-anchor="start" x="767.5" y="-585" font-family="Helvetica,sans-Serif" font-size="10.00">+ kReturnEmpty</text>
<text text-anchor="start" x="767.5" y="-574" font-family="Helvetica,sans-Serif" font-size="10.00">+ kReturnNull</text>
<polyline fill="none" stroke="black" points="759.5,-567 906.5,-567 "/>
<text text-anchor="middle" x="833" y="-555" font-family="Helvetica,sans-Serif" font-size="10.00"> </text>
</a>
</g>
</g>
<!-- Node13&#45;&gt;Node9 -->
<g id="edge13" class="edge"><title>Node13&#45;&gt;Node9</title>
<path fill="none" stroke="#404040" d="M807.957,-547.741C791.865,-526.772 770.254,-499.343 750,-476 720.115,-441.557 685.269,-404.641 656.1,-374.571"/>
<polygon fill="none" stroke="#404040" points="656.007,-374.476 648.956,-372.966 647.638,-365.876 654.689,-367.386 656.007,-374.476"/>
<text text-anchor="middle" x="769.5" y="-449.5" font-family="Helvetica,sans-Serif" font-size="10.00"> &#45;fIfInvalidPolicy</text>
</g>
<!-- Node14 -->
<g id="node14" class="node"><title>Node14</title>
<g id="a_node14"><a xlink:href="../../d4/d79/enumppm__java_1_1util_1_1storage_1_1atomic_buffer_1_1_e_atomic_buffer___copy_policy.html" target="_top" xlink:title="The Copy policy. ">
<polygon fill="white" stroke="black" points="925,-542.5 925,-621.5 1061,-621.5 1061,-542.5 925,-542.5"/>
<text text-anchor="middle" x="993" y="-609.5" font-family="Helvetica,sans-Serif" font-size="10.00">EAtomicBuffer_CopyPolicy</text>
<polyline fill="none" stroke="black" points="925,-602.5 1061,-602.5 "/>
<text text-anchor="start" x="933" y="-590.5" font-family="Helvetica,sans-Serif" font-size="10.00">+ kCopyOnGet</text>
<text text-anchor="start" x="933" y="-579.5" font-family="Helvetica,sans-Serif" font-size="10.00">+ kCopyOnSet</text>
<text text-anchor="start" x="933" y="-568.5" font-family="Helvetica,sans-Serif" font-size="10.00">+ kNoCopy</text>
<polyline fill="none" stroke="black" points="925,-561.5 1061,-561.5 "/>
<text text-anchor="middle" x="993" y="-549.5" font-family="Helvetica,sans-Serif" font-size="10.00"> </text>
</a>
</g>
</g>
<!-- Node14&#45;&gt;Node9 -->
<g id="edge14" class="edge"><title>Node14&#45;&gt;Node9</title>
<path fill="none" stroke="#404040" d="M970.48,-542.326C956.54,-520.817 937.105,-494.699 915,-476 836.974,-409.998 727.873,-361.467 659.093,-334.975"/>
<polygon fill="none" stroke="#404040" points="658.792,-334.861 651.763,-336.469 647.575,-330.599 654.604,-328.991 658.792,-334.861"/>
<text text-anchor="middle" x="923" y="-449.5" font-family="Helvetica,sans-Serif" font-size="10.00"> &#45;fCopyPolicy</text>
</g>
<!-- Node15&#45;&gt;Node9 -->
<g id="edge15" class="edge"><title>Node15&#45;&gt;Node9</title>
<path fill="none" stroke="#404040" d="M594,-476.227C594,-464.278 594,-451.999 594,-439.795"/>
<polygon fill="none" stroke="#404040" points="594,-439.629 590,-433.629 594,-427.629 598,-433.629 594,-439.629"/>
<text text-anchor="middle" x="610.5" y="-449.5" font-family="Helvetica,sans-Serif" font-size="10.00"> &#45;fStats</text>
</g>
<!-- Node16 -->
<g id="node16" class="node"><title>Node16</title>
<g id="a_node16"><a xlink:href="../../d7/d5a/interfaceppm__java_1_1typelib_1_1_i_stats.html" target="_top" xlink:title="Interface for a statistics record. ">
<polygon fill="white" stroke="black" points="551,-791.5 551,-848.5 637,-848.5 637,-791.5 551,-791.5"/>
<text text-anchor="middle" x="594" y="-836.5" font-family="Helvetica,sans-Serif" font-size="10.00">IStats</text>
<polyline fill="none" stroke="black" points="551,-829.5 637,-829.5 "/>
<text text-anchor="middle" x="594" y="-817.5" font-family="Helvetica,sans-Serif" font-size="10.00"> </text>
<polyline fill="none" stroke="black" points="551,-810.5 637,-810.5 "/>
<text text-anchor="start" x="559" y="-798.5" font-family="Helvetica,sans-Serif" font-size="10.00">+ GetDumpStr()</text>
</a>
</g>
</g>
<!-- Node16&#45;&gt;Node15 -->
<g id="edge16" class="edge"><title>Node16&#45;&gt;Node15</title>
<path fill="none" stroke="midnightblue" d="M594,-781.182C594,-755.769 594,-720.939 594,-687.562"/>
<polygon fill="none" stroke="midnightblue" points="590.5,-781.466 594,-791.466 597.5,-781.466 590.5,-781.466"/>
</g>
</g>
</svg>
