<?xml version="1.0" encoding="UTF-8" standalone="no"?>
<!DOCTYPE svg PUBLIC "-//W3C//DTD SVG 1.1//EN"
 "http://www.w3.org/Graphics/SVG/1.1/DTD/svg11.dtd">
<!-- Generated by graphviz version 2.36.0 (20140111.2315)
 -->
<!-- Title: VAudioPort_Output_Chunks_NeedsBuffer Pages: 1 -->
<svg width="168pt" height="748pt"
 viewBox="0.00 0.00 168.00 748.00" xmlns="http://www.w3.org/2000/svg" xmlns:xlink="http://www.w3.org/1999/xlink">
<g id="graph0" class="graph" transform="scale(1 1) rotate(0) translate(4 744)">
<title>VAudioPort_Output_Chunks_NeedsBuffer</title>
<polygon fill="white" stroke="none" points="-4,4 -4,-744 164,-744 164,4 -4,4"/>
<!-- Node1 -->
<g id="node1" class="node"><title>Node1</title>
<polygon fill="#bfbfbf" stroke="black" points="6,-107 6,-241 154,-241 154,-107 6,-107"/>
<text text-anchor="start" x="14" y="-229" font-family="Helvetica,sans-Serif" font-size="10.00">VAudioPort_Output_Chunks</text>
<text text-anchor="middle" x="80" y="-218" font-family="Helvetica,sans-Serif" font-size="10.00">_NeedsBuffer</text>
<polyline fill="none" stroke="black" points="6,-211 154,-211 "/>
<text text-anchor="middle" x="80" y="-199" font-family="Helvetica,sans-Serif" font-size="10.00"> </text>
<polyline fill="none" stroke="black" points="6,-192 154,-192 "/>
<text text-anchor="start" x="14" y="-180" font-family="Helvetica,sans-Serif" font-size="10.00">+ PushPacket()</text>
<text text-anchor="start" x="14" y="-169" font-family="Helvetica,sans-Serif" font-size="10.00"># VAudioPort_Output_Chunks</text>
<text text-anchor="start" x="14" y="-158" font-family="Helvetica,sans-Serif" font-size="10.00">_NeedsBuffer()</text>
<text text-anchor="start" x="14" y="-147" font-family="Helvetica,sans-Serif" font-size="10.00"># _GetType()</text>
<text text-anchor="start" x="14" y="-136" font-family="Helvetica,sans-Serif" font-size="10.00"># _Visit()</text>
<text text-anchor="start" x="14" y="-125" font-family="Helvetica,sans-Serif" font-size="10.00"># _Visit()</text>
<text text-anchor="start" x="14" y="-114" font-family="Helvetica,sans-Serif" font-size="10.00"># _Visit()</text>
</g>
<!-- Node6 -->
<g id="node6" class="node"><title>Node6</title>
<g id="a_node6"><a xlink:href="../../dc/d75/classppm__java_1_1backend_1_1module_1_1jackd_1_1_t_audio_context___endpoint___out.html" target="_top" xlink:title="Audio output port for a TAudioContext_JackD. ">
<polygon fill="white" stroke="black" points="-0.5,-1 -0.5,-69 160.5,-69 160.5,-1 -0.5,-1"/>
<text text-anchor="middle" x="80" y="-57" font-family="Helvetica,sans-Serif" font-size="10.00">TAudioContext_Endpoint_Out</text>
<polyline fill="none" stroke="black" points="-0.5,-50 160.5,-50 "/>
<text text-anchor="middle" x="80" y="-38" font-family="Helvetica,sans-Serif" font-size="10.00"> </text>
<polyline fill="none" stroke="black" points="-0.5,-31 160.5,-31 "/>
<text text-anchor="start" x="7.5" y="-19" font-family="Helvetica,sans-Serif" font-size="10.00"># TAudioContext_Endpoint_Out()</text>
<text text-anchor="start" x="7.5" y="-8" font-family="Helvetica,sans-Serif" font-size="10.00"># _Register()</text>
</a>
</g>
</g>
<!-- Node1&#45;&gt;Node6 -->
<g id="edge5" class="edge"><title>Node1&#45;&gt;Node6</title>
<path fill="none" stroke="midnightblue" d="M80,-96.7563C80,-87.056 80,-77.5656 80,-69.0765"/>
<polygon fill="none" stroke="midnightblue" points="76.5001,-96.9077 80,-106.908 83.5001,-96.9078 76.5001,-96.9077"/>
</g>
<!-- Node2 -->
<g id="node2" class="node"><title>Node2</title>
<g id="a_node2"><a xlink:href="../../df/d02/classppm__java_1_1typelib_1_1_v_audio_port___output.html" target="_top" xlink:title="Base class for an output audio port. ">
<polygon fill="white" stroke="black" points="22,-279 22,-413 138,-413 138,-279 22,-279"/>
<text text-anchor="middle" x="80" y="-401" font-family="Helvetica,sans-Serif" font-size="10.00">VAudioPort_Output</text>
<polyline fill="none" stroke="black" points="22,-394 138,-394 "/>
<text text-anchor="start" x="30" y="-382" font-family="Helvetica,sans-Serif" font-size="10.00">&#45; fTarget</text>
<polyline fill="none" stroke="black" points="22,-375 138,-375 "/>
<text text-anchor="start" x="30" y="-363" font-family="Helvetica,sans-Serif" font-size="10.00">+ VAudioPort_Output()</text>
<text text-anchor="start" x="30" y="-352" font-family="Helvetica,sans-Serif" font-size="10.00">+ SetTarget()</text>
<text text-anchor="start" x="30" y="-341" font-family="Helvetica,sans-Serif" font-size="10.00"># _GetTarget()</text>
<text text-anchor="start" x="30" y="-330" font-family="Helvetica,sans-Serif" font-size="10.00"># _SetTarget()</text>
<text text-anchor="start" x="30" y="-319" font-family="Helvetica,sans-Serif" font-size="10.00"># _SetTarget_Log()</text>
<text text-anchor="start" x="30" y="-308" font-family="Helvetica,sans-Serif" font-size="10.00"># _Visit()</text>
<text text-anchor="start" x="30" y="-297" font-family="Helvetica,sans-Serif" font-size="10.00"># _Visit()</text>
<text text-anchor="start" x="30" y="-286" font-family="Helvetica,sans-Serif" font-size="10.00"># _Visit()</text>
</a>
</g>
</g>
<!-- Node2&#45;&gt;Node1 -->
<g id="edge1" class="edge"><title>Node2&#45;&gt;Node1</title>
<path fill="none" stroke="midnightblue" d="M80,-268.513C80,-259.342 80,-250.037 80,-241.033"/>
<polygon fill="none" stroke="midnightblue" points="76.5001,-268.787 80,-278.787 83.5001,-268.787 76.5001,-268.787"/>
</g>
<!-- Node3 -->
<g id="node3" class="node"><title>Node3</title>
<g id="a_node3"><a xlink:href="../../de/dc9/classppm__java_1_1typelib_1_1_v_audio_port.html" target="_top" xlink:title="Base class for all audio ports. ">
<polygon fill="white" stroke="black" points="39.5,-450.5 39.5,-529.5 120.5,-529.5 120.5,-450.5 39.5,-450.5"/>
<text text-anchor="middle" x="80" y="-517.5" font-family="Helvetica,sans-Serif" font-size="10.00">VAudioPort</text>
<polyline fill="none" stroke="black" points="39.5,-510.5 120.5,-510.5 "/>
<text text-anchor="start" x="47.5" y="-498.5" font-family="Helvetica,sans-Serif" font-size="10.00">&#45; fHost</text>
<polyline fill="none" stroke="black" points="39.5,-491.5 120.5,-491.5 "/>
<text text-anchor="start" x="47.5" y="-479.5" font-family="Helvetica,sans-Serif" font-size="10.00">+ VAudioPort()</text>
<text text-anchor="start" x="47.5" y="-468.5" font-family="Helvetica,sans-Serif" font-size="10.00"># _GetHost()</text>
<text text-anchor="start" x="47.5" y="-457.5" font-family="Helvetica,sans-Serif" font-size="10.00"># _GetType()</text>
</a>
</g>
</g>
<!-- Node3&#45;&gt;Node2 -->
<g id="edge2" class="edge"><title>Node3&#45;&gt;Node2</title>
<path fill="none" stroke="midnightblue" d="M80,-440.195C80,-431.448 80,-422.201 80,-413.063"/>
<polygon fill="none" stroke="midnightblue" points="76.5001,-440.198 80,-450.198 83.5001,-440.198 76.5001,-440.198"/>
</g>
<!-- Node4 -->
<g id="node4" class="node"><title>Node4</title>
<g id="a_node4"><a xlink:href="../../d1/db3/classppm__java_1_1typelib_1_1_v_audio_object.html" target="_top" xlink:title="Base class for all browseable audio objects. ">
<polygon fill="white" stroke="black" points="34,-566.5 34,-623.5 126,-623.5 126,-566.5 34,-566.5"/>
<text text-anchor="middle" x="80" y="-611.5" font-family="Helvetica,sans-Serif" font-size="10.00">VAudioObject</text>
<polyline fill="none" stroke="black" points="34,-604.5 126,-604.5 "/>
<text text-anchor="middle" x="80" y="-592.5" font-family="Helvetica,sans-Serif" font-size="10.00"> </text>
<polyline fill="none" stroke="black" points="34,-585.5 126,-585.5 "/>
<text text-anchor="start" x="42" y="-573.5" font-family="Helvetica,sans-Serif" font-size="10.00">+ VAudioObject()</text>
</a>
</g>
</g>
<!-- Node4&#45;&gt;Node3 -->
<g id="edge3" class="edge"><title>Node4&#45;&gt;Node3</title>
<path fill="none" stroke="midnightblue" d="M80,-556.156C80,-547.473 80,-538.232 80,-529.52"/>
<polygon fill="none" stroke="midnightblue" points="76.5001,-556.398 80,-566.398 83.5001,-556.398 76.5001,-556.398"/>
</g>
<!-- Node5 -->
<g id="node5" class="node"><title>Node5</title>
<g id="a_node5"><a xlink:href="../../de/dd1/classppm__java_1_1typelib_1_1_v_browseable.html" target="_top" xlink:title="Base class for all browseable objects. ">
<polygon fill="white" stroke="black" points="35.5,-660.5 35.5,-739.5 124.5,-739.5 124.5,-660.5 35.5,-660.5"/>
<text text-anchor="middle" x="80" y="-727.5" font-family="Helvetica,sans-Serif" font-size="10.00">VBrowseable</text>
<polyline fill="none" stroke="black" points="35.5,-720.5 124.5,-720.5 "/>
<text text-anchor="start" x="43.5" y="-708.5" font-family="Helvetica,sans-Serif" font-size="10.00">&#45; fID</text>
<polyline fill="none" stroke="black" points="35.5,-701.5 124.5,-701.5 "/>
<text text-anchor="start" x="43.5" y="-689.5" font-family="Helvetica,sans-Serif" font-size="10.00">+ VBrowseable()</text>
<text text-anchor="start" x="43.5" y="-678.5" font-family="Helvetica,sans-Serif" font-size="10.00">+ GetID()</text>
<text text-anchor="start" x="43.5" y="-667.5" font-family="Helvetica,sans-Serif" font-size="10.00"># _Register()</text>
</a>
</g>
</g>
<!-- Node5&#45;&gt;Node4 -->
<g id="edge4" class="edge"><title>Node5&#45;&gt;Node4</title>
<path fill="none" stroke="midnightblue" d="M80,-650.163C80,-641.04 80,-631.806 80,-623.61"/>
<polygon fill="none" stroke="midnightblue" points="76.5001,-650.354 80,-660.354 83.5001,-650.354 76.5001,-650.354"/>
</g>
</g>
</svg>
