<?xml version="1.0" encoding="UTF-8" standalone="no"?>
<!DOCTYPE svg PUBLIC "-//W3C//DTD SVG 1.1//EN"
 "http://www.w3.org/Graphics/SVG/1.1/DTD/svg11.dtd">
<!-- Generated by graphviz version 2.36.0 (20140111.2315)
 -->
<!-- Title: _OnWindowClose Pages: 1 -->
<svg width="406pt" height="28pt"
 viewBox="0.00 0.00 406.00 28.00" xmlns="http://www.w3.org/2000/svg" xmlns:xlink="http://www.w3.org/1999/xlink">
<g id="graph0" class="graph" transform="scale(1 1) rotate(0) translate(4 24)">
<title>_OnWindowClose</title>
<polygon fill="white" stroke="none" points="-4,4 -4,-24 402,-24 402,4 -4,4"/>
<!-- Node1 -->
<g id="node1" class="node"><title>Node1</title>
<polygon fill="#bfbfbf" stroke="black" points="0.5,-0.5 0.5,-19.5 95.5,-19.5 95.5,-0.5 0.5,-0.5"/>
<text text-anchor="middle" x="48" y="-7.5" font-family="Helvetica,sans-Serif" font-size="10.00">_OnWindowClose</text>
</g>
<!-- Node2 -->
<g id="node2" class="node"><title>Node2</title>
<g id="a_node2"><a xlink:href="../../d1/dd6/classppm__java_1_1frontend_1_1gui_1_1lineargauge_1_1_t_g_u_i_linear_gauge___wnd_p_p_m.html#a77410fe5c5b5ddb55910cd7a2297bff7" target="_top" xlink:title="Initializes the UI components. ">
<polygon fill="white" stroke="black" points="132.5,-0.5 132.5,-19.5 217.5,-19.5 217.5,-0.5 132.5,-0.5"/>
<text text-anchor="middle" x="175" y="-7.5" font-family="Helvetica,sans-Serif" font-size="10.00">initComponents</text>
</a>
</g>
</g>
<!-- Node1&#45;&gt;Node2 -->
<g id="edge1" class="edge"><title>Node1&#45;&gt;Node2</title>
<path fill="none" stroke="midnightblue" d="M105.604,-10C114.61,-10 123.782,-10 132.361,-10"/>
<polygon fill="midnightblue" stroke="midnightblue" points="105.545,-6.5001 95.5454,-10 105.545,-13.5001 105.545,-6.5001"/>
</g>
<!-- Node3 -->
<g id="node3" class="node"><title>Node3</title>
<g id="a_node3"><a xlink:href="../../d1/dd6/classppm__java_1_1frontend_1_1gui_1_1lineargauge_1_1_t_g_u_i_linear_gauge___wnd_p_p_m.html#a748cf8b65d07894dbdd1febb97b344f3" target="_top" xlink:title="TGUILinearGauge_WndPPM">
<polygon fill="white" stroke="black" points="254.5,-0.5 254.5,-19.5 397.5,-19.5 397.5,-0.5 254.5,-0.5"/>
<text text-anchor="middle" x="326" y="-7.5" font-family="Helvetica,sans-Serif" font-size="10.00">TGUILinearGauge_WndPPM</text>
</a>
</g>
</g>
<!-- Node2&#45;&gt;Node3 -->
<g id="edge2" class="edge"><title>Node2&#45;&gt;Node3</title>
<path fill="none" stroke="midnightblue" d="M227.728,-10C236.32,-10 245.358,-10 254.323,-10"/>
<polygon fill="midnightblue" stroke="midnightblue" points="227.505,-6.5001 217.505,-10 227.505,-13.5001 227.505,-6.5001"/>
</g>
</g>
</svg>
