<?xml version="1.0" encoding="UTF-8" standalone="no"?>
<!DOCTYPE svg PUBLIC "-//W3C//DTD SVG 1.1//EN"
 "http://www.w3.org/Graphics/SVG/1.1/DTD/svg11.dtd">
<!-- Generated by graphviz version 2.36.0 (20140111.2315)
 -->
<!-- Title: TGUILinearGauge_WndPPM Pages: 1 -->
<svg width="406pt" height="28pt"
 viewBox="0.00 0.00 406.00 28.00" xmlns="http://www.w3.org/2000/svg" xmlns:xlink="http://www.w3.org/1999/xlink">
<g id="graph0" class="graph" transform="scale(1 1) rotate(0) translate(4 24)">
<title>TGUILinearGauge_WndPPM</title>
<polygon fill="white" stroke="none" points="-4,4 -4,-24 402,-24 402,4 -4,4"/>
<!-- Node1 -->
<g id="node1" class="node"><title>Node1</title>
<polygon fill="#bfbfbf" stroke="black" points="0.5,-0.5 0.5,-19.5 143.5,-19.5 143.5,-0.5 0.5,-0.5"/>
<text text-anchor="middle" x="72" y="-7.5" font-family="Helvetica,sans-Serif" font-size="10.00">TGUILinearGauge_WndPPM</text>
</g>
<!-- Node2 -->
<g id="node2" class="node"><title>Node2</title>
<g id="a_node2"><a xlink:href="../../d1/dd6/classppm__java_1_1frontend_1_1gui_1_1lineargauge_1_1_t_g_u_i_linear_gauge___wnd_p_p_m.html#a77410fe5c5b5ddb55910cd7a2297bff7" target="_top" xlink:title="Initializes the UI components. ">
<polygon fill="white" stroke="black" points="180.5,-0.5 180.5,-19.5 265.5,-19.5 265.5,-0.5 180.5,-0.5"/>
<text text-anchor="middle" x="223" y="-7.5" font-family="Helvetica,sans-Serif" font-size="10.00">initComponents</text>
</a>
</g>
</g>
<!-- Node1&#45;&gt;Node2 -->
<g id="edge1" class="edge"><title>Node1&#45;&gt;Node2</title>
<path fill="none" stroke="midnightblue" d="M143.573,-10C152.557,-10 161.617,-10 170.229,-10"/>
<polygon fill="midnightblue" stroke="midnightblue" points="170.477,-13.5001 180.477,-10 170.477,-6.5001 170.477,-13.5001"/>
</g>
<!-- Node3 -->
<g id="node3" class="node"><title>Node3</title>
<g id="a_node3"><a xlink:href="../../d1/dd6/classppm__java_1_1frontend_1_1gui_1_1lineargauge_1_1_t_g_u_i_linear_gauge___wnd_p_p_m.html#af1770789fb0774d009ea51c9b5fa0577" target="_top" xlink:title="Handler, when UI window is closing. ">
<polygon fill="white" stroke="black" points="302.5,-0.5 302.5,-19.5 397.5,-19.5 397.5,-0.5 302.5,-0.5"/>
<text text-anchor="middle" x="350" y="-7.5" font-family="Helvetica,sans-Serif" font-size="10.00">_OnWindowClose</text>
</a>
</g>
</g>
<!-- Node2&#45;&gt;Node3 -->
<g id="edge2" class="edge"><title>Node2&#45;&gt;Node3</title>
<path fill="none" stroke="midnightblue" d="M265.623,-10C274.189,-10 283.346,-10 292.34,-10"/>
<polygon fill="midnightblue" stroke="midnightblue" points="292.385,-13.5001 302.385,-10 292.385,-6.5001 292.385,-13.5001"/>
</g>
</g>
</svg>
