<?xml version="1.0" encoding="UTF-8" standalone="no"?>
<!DOCTYPE svg PUBLIC "-//W3C//DTD SVG 1.1//EN"
 "http://www.w3.org/Graphics/SVG/1.1/DTD/svg11.dtd">
<!-- Generated by graphviz version 2.36.0 (20140111.2315)
 -->
<!-- Title: TAtomicArrayMap&lt; T &gt; Pages: 1 -->
<svg width="298pt" height="566pt"
 viewBox="0.00 0.00 298.00 566.00" xmlns="http://www.w3.org/2000/svg" xmlns:xlink="http://www.w3.org/1999/xlink">
<g id="graph0" class="graph" transform="scale(1 1) rotate(0) translate(4 562)">
<title>TAtomicArrayMap&lt; T &gt;</title>
<polygon fill="white" stroke="none" points="-4,4 -4,-562 294,-562 294,4 -4,4"/>
<!-- Node1 -->
<g id="node1" class="node"><title>Node1</title>
<polygon fill="#bfbfbf" stroke="black" points="20.5,-0.5 20.5,-167.5 139.5,-167.5 139.5,-0.5 20.5,-0.5"/>
<text text-anchor="middle" x="80" y="-155.5" font-family="Helvetica,sans-Serif" font-size="10.00">TAtomicArrayMap&lt; T &gt;</text>
<polyline fill="none" stroke="black" points="20.5,-148.5 139.5,-148.5 "/>
<text text-anchor="start" x="28.5" y="-136.5" font-family="Helvetica,sans-Serif" font-size="10.00">&#45; gkLocked</text>
<text text-anchor="start" x="28.5" y="-125.5" font-family="Helvetica,sans-Serif" font-size="10.00">&#45; gkUnlocked</text>
<polyline fill="none" stroke="black" points="20.5,-118.5 139.5,-118.5 "/>
<text text-anchor="start" x="28.5" y="-106.5" font-family="Helvetica,sans-Serif" font-size="10.00">+ TAtomicArrayMap()</text>
<text text-anchor="start" x="28.5" y="-95.5" font-family="Helvetica,sans-Serif" font-size="10.00">+ Get()</text>
<text text-anchor="start" x="28.5" y="-84.5" font-family="Helvetica,sans-Serif" font-size="10.00">+ Get()</text>
<text text-anchor="start" x="28.5" y="-73.5" font-family="Helvetica,sans-Serif" font-size="10.00">+ GetNumElements()</text>
<text text-anchor="start" x="28.5" y="-62.5" font-family="Helvetica,sans-Serif" font-size="10.00">+ HasElement()</text>
<text text-anchor="start" x="28.5" y="-51.5" font-family="Helvetica,sans-Serif" font-size="10.00">+ Remove()</text>
<text text-anchor="start" x="28.5" y="-40.5" font-family="Helvetica,sans-Serif" font-size="10.00">+ Remove()</text>
<text text-anchor="start" x="28.5" y="-29.5" font-family="Helvetica,sans-Serif" font-size="10.00">+ Set()</text>
<text text-anchor="start" x="28.5" y="-18.5" font-family="Helvetica,sans-Serif" font-size="10.00">&#45; _Lock()</text>
<text text-anchor="start" x="28.5" y="-7.5" font-family="Helvetica,sans-Serif" font-size="10.00">&#45; _Unlock()</text>
</g>
<!-- Node2 -->
<g id="node2" class="node"><title>Node2</title>
<polygon fill="white" stroke="#bfbfbf" points="-0.5,-299.5 -0.5,-356.5 76.5,-356.5 76.5,-299.5 -0.5,-299.5"/>
<text text-anchor="middle" x="38" y="-344.5" font-family="Helvetica,sans-Serif" font-size="10.00">AtomicInteger</text>
<polyline fill="none" stroke="#bfbfbf" points="-0.5,-337.5 76.5,-337.5 "/>
<text text-anchor="middle" x="38" y="-325.5" font-family="Helvetica,sans-Serif" font-size="10.00"> </text>
<polyline fill="none" stroke="#bfbfbf" points="-0.5,-318.5 76.5,-318.5 "/>
<text text-anchor="middle" x="38" y="-306.5" font-family="Helvetica,sans-Serif" font-size="10.00"> </text>
</g>
<!-- Node2&#45;&gt;Node1 -->
<g id="edge1" class="edge"><title>Node2&#45;&gt;Node1</title>
<path fill="none" stroke="#404040" d="M42.8179,-299.24C47.8796,-270.075 56.1238,-222.572 63.5646,-179.699"/>
<polygon fill="none" stroke="#404040" points="63.5866,-179.572 60.6716,-172.976 65.6387,-167.748 68.5538,-174.344 63.5866,-179.572"/>
<text text-anchor="middle" x="77.5" y="-189.5" font-family="Helvetica,sans-Serif" font-size="10.00"> &#45;fLock</text>
</g>
<!-- Node3 -->
<g id="node3" class="node"><title>Node3</title>
<g id="a_node3"><a xlink:href="../../d3/d9c/classppm__java_1_1util_1_1storage_1_1array_map_1_1_t_array_map_3_01_t_01_4.html" target="_top" xlink:title="A generic map that stores objects by key and by index. ">
<polygon fill="white" stroke="black" points="95,-217 95,-439 211,-439 211,-217 95,-217"/>
<text text-anchor="middle" x="153" y="-427" font-family="Helvetica,sans-Serif" font-size="10.00">TArrayMap&lt; T &gt;</text>
<polyline fill="none" stroke="black" points="95,-420 211,-420 "/>
<text text-anchor="start" x="103" y="-408" font-family="Helvetica,sans-Serif" font-size="10.00">&#45; fNElements</text>
<text text-anchor="start" x="103" y="-397" font-family="Helvetica,sans-Serif" font-size="10.00">&#45; fNElementsMax</text>
<polyline fill="none" stroke="black" points="95,-390 211,-390 "/>
<text text-anchor="start" x="103" y="-378" font-family="Helvetica,sans-Serif" font-size="10.00">+ TArrayMap()</text>
<text text-anchor="start" x="103" y="-367" font-family="Helvetica,sans-Serif" font-size="10.00">+ TArrayMap()</text>
<text text-anchor="start" x="103" y="-356" font-family="Helvetica,sans-Serif" font-size="10.00">+ Get()</text>
<text text-anchor="start" x="103" y="-345" font-family="Helvetica,sans-Serif" font-size="10.00">+ Get()</text>
<text text-anchor="start" x="103" y="-334" font-family="Helvetica,sans-Serif" font-size="10.00">+ GetKey()</text>
<text text-anchor="start" x="103" y="-323" font-family="Helvetica,sans-Serif" font-size="10.00">+ GetNumElements()</text>
<text text-anchor="start" x="103" y="-312" font-family="Helvetica,sans-Serif" font-size="10.00">+ HasElement()</text>
<text text-anchor="start" x="103" y="-301" font-family="Helvetica,sans-Serif" font-size="10.00">+ Remove()</text>
<text text-anchor="start" x="103" y="-290" font-family="Helvetica,sans-Serif" font-size="10.00">+ Remove()</text>
<text text-anchor="start" x="103" y="-279" font-family="Helvetica,sans-Serif" font-size="10.00">+ Set()</text>
<text text-anchor="start" x="103" y="-268" font-family="Helvetica,sans-Serif" font-size="10.00">&#45; _AssertHasElement()</text>
<text text-anchor="start" x="103" y="-257" font-family="Helvetica,sans-Serif" font-size="10.00">&#45; _AssertInRange()</text>
<text text-anchor="start" x="103" y="-246" font-family="Helvetica,sans-Serif" font-size="10.00">&#45; _AssertSpace()</text>
<text text-anchor="start" x="103" y="-235" font-family="Helvetica,sans-Serif" font-size="10.00">&#45; _Init()</text>
<text text-anchor="start" x="103" y="-224" font-family="Helvetica,sans-Serif" font-size="10.00">&#45; _Remove()</text>
</a>
</g>
</g>
<!-- Node3&#45;&gt;Node1 -->
<g id="edge2" class="edge"><title>Node3&#45;&gt;Node1</title>
<path fill="none" stroke="#404040" d="M119.811,-216.976C116.015,-204.391 112.17,-191.647 108.444,-179.294"/>
<polygon fill="none" stroke="#404040" points="108.379,-179.077 102.816,-174.488 104.913,-167.588 110.475,-172.177 108.379,-179.077"/>
<text text-anchor="middle" x="128.5" y="-189.5" font-family="Helvetica,sans-Serif" font-size="10.00"> &#45;fData</text>
</g>
<!-- Node4 -->
<g id="node4" class="node"><title>Node4</title>
<polygon fill="white" stroke="#bfbfbf" points="16.5,-494.5 16.5,-551.5 143.5,-551.5 143.5,-494.5 16.5,-494.5"/>
<text text-anchor="middle" x="80" y="-539.5" font-family="Helvetica,sans-Serif" font-size="10.00">ArrayList&lt; TNode&lt; T &gt; &gt;</text>
<polyline fill="none" stroke="#bfbfbf" points="16.5,-532.5 143.5,-532.5 "/>
<text text-anchor="middle" x="80" y="-520.5" font-family="Helvetica,sans-Serif" font-size="10.00"> </text>
<polyline fill="none" stroke="#bfbfbf" points="16.5,-513.5 143.5,-513.5 "/>
<text text-anchor="middle" x="80" y="-501.5" font-family="Helvetica,sans-Serif" font-size="10.00"> </text>
</g>
<!-- Node4&#45;&gt;Node3 -->
<g id="edge3" class="edge"><title>Node4&#45;&gt;Node3</title>
<path fill="none" stroke="#404040" d="M90.4591,-494.348C95.0717,-482.153 100.842,-466.897 107,-450.616"/>
<polygon fill="none" stroke="#404040" points="107.071,-450.43 105.452,-443.403 111.316,-439.206 112.935,-446.233 107.071,-450.43"/>
<text text-anchor="middle" x="116.5" y="-461.5" font-family="Helvetica,sans-Serif" font-size="10.00"> &#45;fList</text>
</g>
<!-- Node5 -->
<g id="node5" class="node"><title>Node5</title>
<polygon fill="white" stroke="#bfbfbf" points="162,-489 162,-557 290,-557 290,-489 162,-489"/>
<text text-anchor="start" x="170" y="-545" font-family="Helvetica,sans-Serif" font-size="10.00">HashMap&lt; String, TNode</text>
<text text-anchor="middle" x="226" y="-534" font-family="Helvetica,sans-Serif" font-size="10.00">&lt; T &gt; &gt;</text>
<polyline fill="none" stroke="#bfbfbf" points="162,-527 290,-527 "/>
<text text-anchor="middle" x="226" y="-515" font-family="Helvetica,sans-Serif" font-size="10.00"> </text>
<polyline fill="none" stroke="#bfbfbf" points="162,-508 290,-508 "/>
<text text-anchor="middle" x="226" y="-496" font-family="Helvetica,sans-Serif" font-size="10.00"> </text>
</g>
<!-- Node5&#45;&gt;Node3 -->
<g id="edge4" class="edge"><title>Node5&#45;&gt;Node3</title>
<path fill="none" stroke="#404040" d="M213.451,-488.822C209.237,-477.682 204.261,-464.525 199.002,-450.621"/>
<polygon fill="none" stroke="#404040" points="198.978,-450.558 193.114,-446.361 194.732,-439.334 200.596,-443.531 198.978,-450.558"/>
<text text-anchor="middle" x="218" y="-461.5" font-family="Helvetica,sans-Serif" font-size="10.00"> &#45;fMap</text>
</g>
</g>
</svg>
