<?xml version="1.0" encoding="UTF-8" standalone="no"?>
<!DOCTYPE svg PUBLIC "-//W3C//DTD SVG 1.1//EN"
 "http://www.w3.org/Graphics/SVG/1.1/DTD/svg11.dtd">
<!-- Generated by graphviz version 2.36.0 (20140111.2315)
 -->
<!-- Title: TTimerDebugUpdate Pages: 1 -->
<svg width="130pt" height="216pt"
 viewBox="0.00 0.00 130.00 216.00" xmlns="http://www.w3.org/2000/svg" xmlns:xlink="http://www.w3.org/1999/xlink">
<g id="graph0" class="graph" transform="scale(1 1) rotate(0) translate(4 212)">
<title>TTimerDebugUpdate</title>
<polygon fill="white" stroke="none" points="-4,4 -4,-212 126,-212 126,4 -4,4"/>
<!-- Node1 -->
<g id="node1" class="node"><title>Node1</title>
<polygon fill="#bfbfbf" stroke="black" points="0,-1 0,-113 122,-113 122,-1 0,-1"/>
<text text-anchor="middle" x="61" y="-101" font-family="Helvetica,sans-Serif" font-size="10.00">TTimerDebugUpdate</text>
<polyline fill="none" stroke="black" points="0,-94 122,-94 "/>
<text text-anchor="start" x="8" y="-82" font-family="Helvetica,sans-Serif" font-size="10.00">&#45; fDoRun</text>
<text text-anchor="start" x="8" y="-71" font-family="Helvetica,sans-Serif" font-size="10.00">&#45; gkFlagRun</text>
<text text-anchor="start" x="8" y="-60" font-family="Helvetica,sans-Serif" font-size="10.00">&#45; gkFlagStop</text>
<text text-anchor="start" x="8" y="-49" font-family="Helvetica,sans-Serif" font-size="10.00">&#45; gkInterval</text>
<polyline fill="none" stroke="black" points="0,-42 122,-42 "/>
<text text-anchor="start" x="8" y="-30" font-family="Helvetica,sans-Serif" font-size="10.00">+ TTimerDebugUpdate()</text>
<text text-anchor="start" x="8" y="-19" font-family="Helvetica,sans-Serif" font-size="10.00">+ Stop()</text>
<text text-anchor="start" x="8" y="-8" font-family="Helvetica,sans-Serif" font-size="10.00">+ run()</text>
</g>
<!-- Node2 -->
<g id="node2" class="node"><title>Node2</title>
<polygon fill="white" stroke="#bfbfbf" points="37.5,-150.5 37.5,-207.5 84.5,-207.5 84.5,-150.5 37.5,-150.5"/>
<text text-anchor="middle" x="61" y="-195.5" font-family="Helvetica,sans-Serif" font-size="10.00">Thread</text>
<polyline fill="none" stroke="#bfbfbf" points="37.5,-188.5 84.5,-188.5 "/>
<text text-anchor="middle" x="61" y="-176.5" font-family="Helvetica,sans-Serif" font-size="10.00"> </text>
<polyline fill="none" stroke="#bfbfbf" points="37.5,-169.5 84.5,-169.5 "/>
<text text-anchor="middle" x="61" y="-157.5" font-family="Helvetica,sans-Serif" font-size="10.00"> </text>
</g>
<!-- Node2&#45;&gt;Node1 -->
<g id="edge1" class="edge"><title>Node2&#45;&gt;Node1</title>
<path fill="none" stroke="midnightblue" d="M61,-140.398C61,-131.802 61,-122.49 61,-113.324"/>
<polygon fill="none" stroke="midnightblue" points="57.5001,-140.47 61,-150.47 64.5001,-140.47 57.5001,-140.47"/>
</g>
</g>
</svg>
