<?xml version="1.0" encoding="UTF-8" standalone="no"?>
<!DOCTYPE svg PUBLIC "-//W3C//DTD SVG 1.1//EN"
 "http://www.w3.org/Graphics/SVG/1.1/DTD/svg11.dtd">
<!-- Generated by graphviz version 2.36.0 (20140111.2315)
 -->
<!-- Title: ExecuteWith Pages: 1 -->
<svg width="306pt" height="66pt"
 viewBox="0.00 0.00 306.00 66.00" xmlns="http://www.w3.org/2000/svg" xmlns:xlink="http://www.w3.org/1999/xlink">
<g id="graph0" class="graph" transform="scale(1 1) rotate(0) translate(4 62)">
<title>ExecuteWith</title>
<polygon fill="white" stroke="none" points="-4,4 -4,-62 302,-62 302,4 -4,4"/>
<!-- Node1 -->
<g id="node1" class="node"><title>Node1</title>
<polygon fill="#bfbfbf" stroke="black" points="0.5,-19.5 0.5,-38.5 73.5,-38.5 73.5,-19.5 0.5,-19.5"/>
<text text-anchor="middle" x="37" y="-26.5" font-family="Helvetica,sans-Serif" font-size="10.00">ExecuteWith</text>
</g>
<!-- Node2 -->
<g id="node2" class="node"><title>Node2</title>
<g id="a_node2"><a xlink:href="../../de/d7f/classppm__java_1_1backend_1_1boot_1_1_t_setup.html#a8e3ad884ecc30991cfa6d93fab9f4831" target="_top" xlink:title="Setup using current modular framework. ">
<polygon fill="white" stroke="black" points="180.5,-38.5 180.5,-57.5 227.5,-57.5 227.5,-38.5 180.5,-38.5"/>
<text text-anchor="middle" x="204" y="-45.5" font-family="Helvetica,sans-Serif" font-size="10.00">_Setup</text>
</a>
</g>
</g>
<!-- Node1&#45;&gt;Node2 -->
<g id="edge1" class="edge"><title>Node1&#45;&gt;Node2</title>
<path fill="none" stroke="midnightblue" d="M73.8025,-33.1227C102.546,-36.4325 142.565,-41.0408 170.418,-44.2482"/>
<polygon fill="midnightblue" stroke="midnightblue" points="170.114,-47.7362 180.449,-45.4032 170.915,-40.7822 170.114,-47.7362"/>
</g>
<!-- Node3 -->
<g id="node3" class="node"><title>Node3</title>
<g id="a_node3"><a xlink:href="../../de/d7f/classppm__java_1_1backend_1_1boot_1_1_t_setup.html#ae2e42bfccbf1fa045e60f22cd2d81562" target="_top" xlink:title="Setup, using the earlier monolithic PPM processor. ">
<polygon fill="white" stroke="black" points="110.5,-0.5 110.5,-19.5 297.5,-19.5 297.5,-0.5 110.5,-0.5"/>
<text text-anchor="middle" x="204" y="-7.5" font-family="Helvetica,sans-Serif" font-size="10.00">_Setup_UseDeprecatedPPMProcessor</text>
</a>
</g>
</g>
<!-- Node1&#45;&gt;Node3 -->
<g id="edge2" class="edge"><title>Node1&#45;&gt;Node3</title>
<path fill="none" stroke="midnightblue" d="M73.8025,-24.8773C84.6468,-23.6285 97.0961,-22.195 109.892,-20.7216"/>
<polygon fill="midnightblue" stroke="midnightblue" points="110.67,-24.1552 120.204,-19.5341 109.869,-17.2012 110.67,-24.1552"/>
</g>
</g>
</svg>
