<?xml version="1.0" encoding="UTF-8" standalone="no"?>
<!DOCTYPE svg PUBLIC "-//W3C//DTD SVG 1.1//EN"
 "http://www.w3.org/Graphics/SVG/1.1/DTD/svg11.dtd">
<!-- Generated by graphviz version 2.36.0 (20140111.2315)
 -->
<!-- Title: TConsole_LinearGauge Pages: 1 -->
<svg width="608pt" height="1108pt"
 viewBox="0.00 0.00 608.00 1108.00" xmlns="http://www.w3.org/2000/svg" xmlns:xlink="http://www.w3.org/1999/xlink">
<g id="graph0" class="graph" transform="scale(1 1) rotate(0) translate(4 1104)">
<title>TConsole_LinearGauge</title>
<polygon fill="white" stroke="none" points="-4,4 -4,-1104 604,-1104 604,4 -4,4"/>
<!-- Node1 -->
<g id="node1" class="node"><title>Node1</title>
<polygon fill="#bfbfbf" stroke="black" points="258,-1 258,-311 392,-311 392,-1 258,-1"/>
<text text-anchor="middle" x="325" y="-299" font-family="Helvetica,sans-Serif" font-size="10.00">TConsole_LinearGauge</text>
<polyline fill="none" stroke="black" points="258,-292 392,-292 "/>
<text text-anchor="start" x="266" y="-280" font-family="Helvetica,sans-Serif" font-size="10.00">~ gkNumSections</text>
<text text-anchor="start" x="266" y="-269" font-family="Helvetica,sans-Serif" font-size="10.00">&#45; fBarLen</text>
<text text-anchor="start" x="266" y="-258" font-family="Helvetica,sans-Serif" font-size="10.00">&#45; fEmptyBar</text>
<text text-anchor="start" x="266" y="-247" font-family="Helvetica,sans-Serif" font-size="10.00">&#45; fFramebar</text>
<text text-anchor="start" x="266" y="-236" font-family="Helvetica,sans-Serif" font-size="10.00">&#45; fNumBar</text>
<text text-anchor="start" x="266" y="-225" font-family="Helvetica,sans-Serif" font-size="10.00">&#45; fNumColsPerSection</text>
<text text-anchor="start" x="266" y="-214" font-family="Helvetica,sans-Serif" font-size="10.00">&#45; gkAnsiCursorPosBottom</text>
<text text-anchor="start" x="266" y="-203" font-family="Helvetica,sans-Serif" font-size="10.00">&#45; gkAnsiCursorPosTop</text>
<text text-anchor="start" x="266" y="-192" font-family="Helvetica,sans-Serif" font-size="10.00">&#45; gkAnsiCursorPosMeterL</text>
<text text-anchor="start" x="266" y="-181" font-family="Helvetica,sans-Serif" font-size="10.00">&#45; gkAnsiCursorPosMeterR</text>
<text text-anchor="start" x="266" y="-170" font-family="Helvetica,sans-Serif" font-size="10.00">&#45; gkAnsiScreenClear</text>
<text text-anchor="start" x="266" y="-159" font-family="Helvetica,sans-Serif" font-size="10.00">&#45; gkBarLenMax</text>
<text text-anchor="start" x="266" y="-148" font-family="Helvetica,sans-Serif" font-size="10.00">&#45; gkBarLenMin</text>
<text text-anchor="start" x="266" y="-137" font-family="Helvetica,sans-Serif" font-size="10.00">&#45; gkRefreshInterval</text>
<text text-anchor="start" x="266" y="-126" font-family="Helvetica,sans-Serif" font-size="10.00">&#45; gkTickmarkChar</text>
<polyline fill="none" stroke="black" points="258,-119 392,-119 "/>
<text text-anchor="start" x="266" y="-107" font-family="Helvetica,sans-Serif" font-size="10.00">+ TConsole_LinearGauge()</text>
<text text-anchor="start" x="266" y="-96" font-family="Helvetica,sans-Serif" font-size="10.00">+ CreatePort_In()</text>
<text text-anchor="start" x="266" y="-85" font-family="Helvetica,sans-Serif" font-size="10.00">+ Start()</text>
<text text-anchor="start" x="266" y="-74" font-family="Helvetica,sans-Serif" font-size="10.00">+ Stop()</text>
<text text-anchor="start" x="266" y="-63" font-family="Helvetica,sans-Serif" font-size="10.00">+ CreateInstance()</text>
<text text-anchor="start" x="266" y="-52" font-family="Helvetica,sans-Serif" font-size="10.00">~ _Receive()</text>
<text text-anchor="start" x="266" y="-41" font-family="Helvetica,sans-Serif" font-size="10.00"># _Register()</text>
<text text-anchor="start" x="266" y="-30" font-family="Helvetica,sans-Serif" font-size="10.00">&#45; _Init()</text>
<text text-anchor="start" x="266" y="-19" font-family="Helvetica,sans-Serif" font-size="10.00">&#45; _RefreshFrame()</text>
<text text-anchor="start" x="266" y="-8" font-family="Helvetica,sans-Serif" font-size="10.00">&#45; _RefreshUI()</text>
</g>
<!-- Node2 -->
<g id="node2" class="node"><title>Node2</title>
<g id="a_node2"><a xlink:href="../../da/d04/classppm__java_1_1typelib_1_1_v_frontend.html" target="_top" xlink:title="Base class for a front end. ">
<polygon fill="white" stroke="black" points="135,-464.5 135,-543.5 235,-543.5 235,-464.5 135,-464.5"/>
<text text-anchor="middle" x="185" y="-531.5" font-family="Helvetica,sans-Serif" font-size="10.00">VFrontend</text>
<polyline fill="none" stroke="black" points="135,-524.5 235,-524.5 "/>
<text text-anchor="middle" x="185" y="-512.5" font-family="Helvetica,sans-Serif" font-size="10.00"> </text>
<polyline fill="none" stroke="black" points="135,-505.5 235,-505.5 "/>
<text text-anchor="start" x="143" y="-493.5" font-family="Helvetica,sans-Serif" font-size="10.00">+ VFrontend()</text>
<text text-anchor="start" x="143" y="-482.5" font-family="Helvetica,sans-Serif" font-size="10.00">+ CreatePort_Out()</text>
<text text-anchor="start" x="143" y="-471.5" font-family="Helvetica,sans-Serif" font-size="10.00"># _OnTerminate()</text>
</a>
</g>
</g>
<!-- Node2&#45;&gt;Node1 -->
<g id="edge1" class="edge"><title>Node2&#45;&gt;Node1</title>
<path fill="none" stroke="midnightblue" d="M204.547,-454.691C219.696,-417.251 241.571,-363.188 262.535,-311.378"/>
<polygon fill="none" stroke="midnightblue" points="201.159,-453.734 200.652,-464.317 207.648,-456.359 201.159,-453.734"/>
</g>
<!-- Node3 -->
<g id="node3" class="node"><title>Node3</title>
<g id="a_node3"><a xlink:href="../../d5/d6a/classppm__java_1_1typelib_1_1_v_audio_processor.html" target="_top" xlink:title="Base class for all modules processing audio samples. ">
<polygon fill="white" stroke="black" points="131.5,-686.5 131.5,-853.5 238.5,-853.5 238.5,-686.5 131.5,-686.5"/>
<text text-anchor="middle" x="185" y="-841.5" font-family="Helvetica,sans-Serif" font-size="10.00">VAudioProcessor</text>
<polyline fill="none" stroke="black" points="131.5,-834.5 238.5,-834.5 "/>
<text text-anchor="middle" x="185" y="-822.5" font-family="Helvetica,sans-Serif" font-size="10.00"> </text>
<polyline fill="none" stroke="black" points="131.5,-815.5 238.5,-815.5 "/>
<text text-anchor="start" x="139.5" y="-803.5" font-family="Helvetica,sans-Serif" font-size="10.00">+ VAudioProcessor()</text>
<text text-anchor="start" x="139.5" y="-792.5" font-family="Helvetica,sans-Serif" font-size="10.00">+ CreatePort_In()</text>
<text text-anchor="start" x="139.5" y="-781.5" font-family="Helvetica,sans-Serif" font-size="10.00">+ CreatePort_Out()</text>
<text text-anchor="start" x="139.5" y="-770.5" font-family="Helvetica,sans-Serif" font-size="10.00">+ GetNumPortsIn()</text>
<text text-anchor="start" x="139.5" y="-759.5" font-family="Helvetica,sans-Serif" font-size="10.00">+ GetNumPortsOut()</text>
<text text-anchor="start" x="139.5" y="-748.5" font-family="Helvetica,sans-Serif" font-size="10.00">+ GetPortIn()</text>
<text text-anchor="start" x="139.5" y="-737.5" font-family="Helvetica,sans-Serif" font-size="10.00">+ GetPortIn()</text>
<text text-anchor="start" x="139.5" y="-726.5" font-family="Helvetica,sans-Serif" font-size="10.00">+ GetPortOut()</text>
<text text-anchor="start" x="139.5" y="-715.5" font-family="Helvetica,sans-Serif" font-size="10.00">+ GetPortOut()</text>
<text text-anchor="start" x="139.5" y="-704.5" font-family="Helvetica,sans-Serif" font-size="10.00"># AddPortIn()</text>
<text text-anchor="start" x="139.5" y="-693.5" font-family="Helvetica,sans-Serif" font-size="10.00"># AddPortOut()</text>
</a>
</g>
</g>
<!-- Node3&#45;&gt;Node2 -->
<g id="edge2" class="edge"><title>Node3&#45;&gt;Node2</title>
<path fill="none" stroke="midnightblue" d="M185,-676.008C185,-630.56 185,-578.333 185,-543.676"/>
<polygon fill="none" stroke="midnightblue" points="181.5,-676.193 185,-686.193 188.5,-676.193 181.5,-676.193"/>
</g>
<!-- Node4 -->
<g id="node4" class="node"><title>Node4</title>
<g id="a_node4"><a xlink:href="../../d1/db3/classppm__java_1_1typelib_1_1_v_audio_object.html" target="_top" xlink:title="Base class for all browseable audio objects. ">
<polygon fill="white" stroke="black" points="0,-913.5 0,-970.5 92,-970.5 92,-913.5 0,-913.5"/>
<text text-anchor="middle" x="46" y="-958.5" font-family="Helvetica,sans-Serif" font-size="10.00">VAudioObject</text>
<polyline fill="none" stroke="black" points="0,-951.5 92,-951.5 "/>
<text text-anchor="middle" x="46" y="-939.5" font-family="Helvetica,sans-Serif" font-size="10.00"> </text>
<polyline fill="none" stroke="black" points="0,-932.5 92,-932.5 "/>
<text text-anchor="start" x="8" y="-920.5" font-family="Helvetica,sans-Serif" font-size="10.00">+ VAudioObject()</text>
</a>
</g>
</g>
<!-- Node4&#45;&gt;Node3 -->
<g id="edge3" class="edge"><title>Node4&#45;&gt;Node3</title>
<path fill="none" stroke="midnightblue" d="M75.11,-905.398C91.4242,-885.445 112.286,-859.931 131.44,-836.505"/>
<polygon fill="none" stroke="midnightblue" points="72.2625,-903.351 68.6421,-913.308 77.6816,-907.782 72.2625,-903.351"/>
</g>
<!-- Node5 -->
<g id="node5" class="node"><title>Node5</title>
<g id="a_node5"><a xlink:href="../../de/dd1/classppm__java_1_1typelib_1_1_v_browseable.html" target="_top" xlink:title="Base class for all browseable objects. ">
<polygon fill="white" stroke="black" points="1.5,-1020.5 1.5,-1099.5 90.5,-1099.5 90.5,-1020.5 1.5,-1020.5"/>
<text text-anchor="middle" x="46" y="-1087.5" font-family="Helvetica,sans-Serif" font-size="10.00">VBrowseable</text>
<polyline fill="none" stroke="black" points="1.5,-1080.5 90.5,-1080.5 "/>
<text text-anchor="start" x="9.5" y="-1068.5" font-family="Helvetica,sans-Serif" font-size="10.00">&#45; fID</text>
<polyline fill="none" stroke="black" points="1.5,-1061.5 90.5,-1061.5 "/>
<text text-anchor="start" x="9.5" y="-1049.5" font-family="Helvetica,sans-Serif" font-size="10.00">+ VBrowseable()</text>
<text text-anchor="start" x="9.5" y="-1038.5" font-family="Helvetica,sans-Serif" font-size="10.00">+ GetID()</text>
<text text-anchor="start" x="9.5" y="-1027.5" font-family="Helvetica,sans-Serif" font-size="10.00"># _Register()</text>
</a>
</g>
</g>
<!-- Node5&#45;&gt;Node4 -->
<g id="edge4" class="edge"><title>Node5&#45;&gt;Node4</title>
<path fill="none" stroke="midnightblue" d="M46,-1010.26C46,-996.798 46,-982.651 46,-970.824"/>
<polygon fill="none" stroke="midnightblue" points="42.5001,-1010.37 46,-1020.37 49.5001,-1010.37 42.5001,-1010.37"/>
</g>
<!-- Node6 -->
<g id="node6" class="node"><title>Node6</title>
<polygon fill="white" stroke="#bfbfbf" points="110,-908 110,-976 260,-976 260,-908 110,-908"/>
<text text-anchor="start" x="118" y="-964" font-family="Helvetica,sans-Serif" font-size="10.00">TArrayMap&lt; ppm_java.typelib.</text>
<text text-anchor="middle" x="185" y="-953" font-family="Helvetica,sans-Serif" font-size="10.00">VAudioPort_Output &gt;</text>
<polyline fill="none" stroke="#bfbfbf" points="110,-946 260,-946 "/>
<text text-anchor="middle" x="185" y="-934" font-family="Helvetica,sans-Serif" font-size="10.00"> </text>
<polyline fill="none" stroke="#bfbfbf" points="110,-927 260,-927 "/>
<text text-anchor="middle" x="185" y="-915" font-family="Helvetica,sans-Serif" font-size="10.00"> </text>
</g>
<!-- Node6&#45;&gt;Node3 -->
<g id="edge5" class="edge"><title>Node6&#45;&gt;Node3</title>
<path fill="none" stroke="#404040" d="M185,-907.819C185,-895.543 185,-880.936 185,-865.91"/>
<polygon fill="none" stroke="#404040" points="185,-865.807 181,-859.807 185,-853.807 189,-859.807 185,-865.807"/>
<text text-anchor="middle" x="209.5" y="-875.5" font-family="Helvetica,sans-Serif" font-size="10.00"> &#45;fPortsOut</text>
</g>
<!-- Node7 -->
<g id="node7" class="node"><title>Node7</title>
<polygon fill="white" stroke="#bfbfbf" points="278,-908 278,-976 428,-976 428,-908 278,-908"/>
<text text-anchor="start" x="286" y="-964" font-family="Helvetica,sans-Serif" font-size="10.00">TArrayMap&lt; ppm_java.typelib.</text>
<text text-anchor="middle" x="353" y="-953" font-family="Helvetica,sans-Serif" font-size="10.00">VAudioPort_Input &gt;</text>
<polyline fill="none" stroke="#bfbfbf" points="278,-946 428,-946 "/>
<text text-anchor="middle" x="353" y="-934" font-family="Helvetica,sans-Serif" font-size="10.00"> </text>
<polyline fill="none" stroke="#bfbfbf" points="278,-927 428,-927 "/>
<text text-anchor="middle" x="353" y="-915" font-family="Helvetica,sans-Serif" font-size="10.00"> </text>
</g>
<!-- Node7&#45;&gt;Node3 -->
<g id="edge6" class="edge"><title>Node7&#45;&gt;Node3</title>
<path fill="none" stroke="#404040" d="M320.209,-907.819C299.452,-886.815 271.949,-858.984 247.17,-833.91"/>
<polygon fill="none" stroke="#404040" points="246.969,-833.707 239.907,-832.251 238.534,-825.171 245.597,-826.628 246.969,-833.707"/>
<text text-anchor="middle" x="314.5" y="-875.5" font-family="Helvetica,sans-Serif" font-size="10.00"> &#45;fPortsIn</text>
</g>
<!-- Node8 -->
<g id="node8" class="node"><title>Node8</title>
<g id="a_node8"><a xlink:href="../../db/d44/interfaceppm__java_1_1typelib_1_1_i_controllable.html" target="_top" xlink:title="A module or construct which can receive some low level control commands (start/stop etc...">
<polygon fill="white" stroke="black" points="253.5,-470 253.5,-538 324.5,-538 324.5,-470 253.5,-470"/>
<text text-anchor="middle" x="289" y="-526" font-family="Helvetica,sans-Serif" font-size="10.00">IControllable</text>
<polyline fill="none" stroke="black" points="253.5,-519 324.5,-519 "/>
<text text-anchor="middle" x="289" y="-507" font-family="Helvetica,sans-Serif" font-size="10.00"> </text>
<polyline fill="none" stroke="black" points="253.5,-500 324.5,-500 "/>
<text text-anchor="start" x="261.5" y="-488" font-family="Helvetica,sans-Serif" font-size="10.00">+ Start()</text>
<text text-anchor="start" x="261.5" y="-477" font-family="Helvetica,sans-Serif" font-size="10.00">+ Stop()</text>
</a>
</g>
</g>
<!-- Node8&#45;&gt;Node1 -->
<g id="edge7" class="edge"><title>Node8&#45;&gt;Node1</title>
<path fill="none" stroke="midnightblue" d="M293.5,-459.751C297.41,-422.166 303.319,-365.378 308.966,-311.101"/>
<polygon fill="none" stroke="midnightblue" points="290.006,-459.516 292.452,-469.824 296.968,-460.24 290.006,-459.516"/>
</g>
<!-- Node9 -->
<g id="node9" class="node"><title>Node9</title>
<g id="a_node9"><a xlink:href="../../d8/d27/classppm__java_1_1frontend_1_1console_1_1lineargauge_1_1_t_console___linear_gauge___meter_u_i.html" target="_top" xlink:title="The meter UI for a single gauge. ">
<polygon fill="white" stroke="black" points="448,-371 448,-637 600,-637 600,-371 448,-371"/>
<text text-anchor="start" x="456" y="-625" font-family="Helvetica,sans-Serif" font-size="10.00">TConsole_LinearGauge</text>
<text text-anchor="middle" x="524" y="-614" font-family="Helvetica,sans-Serif" font-size="10.00">_MeterUI</text>
<polyline fill="none" stroke="black" points="448,-607 600,-607 "/>
<text text-anchor="start" x="456" y="-595" font-family="Helvetica,sans-Serif" font-size="10.00">&#45; fBarLen</text>
<text text-anchor="start" x="456" y="-584" font-family="Helvetica,sans-Serif" font-size="10.00">&#45; fColorCode</text>
<text text-anchor="start" x="456" y="-573" font-family="Helvetica,sans-Serif" font-size="10.00">&#45; fColorCodeReset</text>
<text text-anchor="start" x="456" y="-562" font-family="Helvetica,sans-Serif" font-size="10.00">&#45; fEmptyBar</text>
<text text-anchor="start" x="456" y="-551" font-family="Helvetica,sans-Serif" font-size="10.00">&#45; fLevelBar</text>
<text text-anchor="start" x="456" y="-540" font-family="Helvetica,sans-Serif" font-size="10.00">&#45; gkAnsiRed</text>
<text text-anchor="start" x="456" y="-529" font-family="Helvetica,sans-Serif" font-size="10.00">&#45; gkAnsiReset</text>
<text text-anchor="start" x="456" y="-518" font-family="Helvetica,sans-Serif" font-size="10.00">&#45; gkAnsiYellow</text>
<text text-anchor="start" x="456" y="-507" font-family="Helvetica,sans-Serif" font-size="10.00">&#45; gkLvlClip</text>
<text text-anchor="start" x="456" y="-496" font-family="Helvetica,sans-Serif" font-size="10.00">&#45; gkLvlWarn</text>
<text text-anchor="start" x="456" y="-485" font-family="Helvetica,sans-Serif" font-size="10.00">&#45; gkMeterBarChar</text>
<text text-anchor="start" x="456" y="-474" font-family="Helvetica,sans-Serif" font-size="10.00">&#45; gkNumSections</text>
<text text-anchor="start" x="456" y="-463" font-family="Helvetica,sans-Serif" font-size="10.00">&#45; gkTimeClipExpire</text>
<polyline fill="none" stroke="black" points="448,-456 600,-456 "/>
<text text-anchor="start" x="456" y="-444" font-family="Helvetica,sans-Serif" font-size="10.00">+ TConsole_LinearGauge</text>
<text text-anchor="start" x="456" y="-433" font-family="Helvetica,sans-Serif" font-size="10.00">_MeterUI()</text>
<text text-anchor="start" x="456" y="-422" font-family="Helvetica,sans-Serif" font-size="10.00">+ GetLevelBar()</text>
<text text-anchor="start" x="456" y="-411" font-family="Helvetica,sans-Serif" font-size="10.00">+ Receive()</text>
<text text-anchor="start" x="456" y="-400" font-family="Helvetica,sans-Serif" font-size="10.00">&#45; _PrecomputeFixedElements()</text>
<text text-anchor="start" x="456" y="-389" font-family="Helvetica,sans-Serif" font-size="10.00">&#45; _SetBar()</text>
<text text-anchor="start" x="456" y="-378" font-family="Helvetica,sans-Serif" font-size="10.00">&#45; _SetClip()</text>
</a>
</g>
</g>
<!-- Node9&#45;&gt;Node1 -->
<g id="edge8" class="edge"><title>Node9&#45;&gt;Node1</title>
<path fill="none" stroke="#404040" d="M447.915,-370.711C431.618,-342.376 414.433,-312.496 398.246,-284.353"/>
<polygon fill="none" stroke="#404040" points="398.078,-284.06 391.619,-280.853 392.095,-273.658 398.554,-276.865 398.078,-284.06"/>
<text text-anchor="middle" x="458" y="-344" font-family="Helvetica,sans-Serif" font-size="10.00"> &#45;fMeterR</text>
<text text-anchor="middle" x="458" y="-333" font-family="Helvetica,sans-Serif" font-size="10.00">&#45;fMeterL</text>
</g>
<!-- Node10 -->
<g id="node10" class="node"><title>Node10</title>
<g id="a_node10"><a xlink:href="../../d9/d3d/classppm__java_1_1util_1_1timer_1_1_t_tick_timer.html" target="_top" xlink:title="A resettable monostable timer. ">
<polygon fill="white" stroke="black" points="448,-714 448,-826 536,-826 536,-714 448,-714"/>
<text text-anchor="middle" x="492" y="-814" font-family="Helvetica,sans-Serif" font-size="10.00">TTickTimer</text>
<polyline fill="none" stroke="black" points="448,-807 536,-807 "/>
<text text-anchor="start" x="456" y="-795" font-family="Helvetica,sans-Serif" font-size="10.00">&#45; fExpireTime</text>
<text text-anchor="start" x="456" y="-784" font-family="Helvetica,sans-Serif" font-size="10.00">&#45; fStartTime</text>
<polyline fill="none" stroke="black" points="448,-777 536,-777 "/>
<text text-anchor="start" x="456" y="-765" font-family="Helvetica,sans-Serif" font-size="10.00">+ TTickTimer()</text>
<text text-anchor="start" x="456" y="-754" font-family="Helvetica,sans-Serif" font-size="10.00">+ HasExpired()</text>
<text text-anchor="start" x="456" y="-743" font-family="Helvetica,sans-Serif" font-size="10.00">+ OnTimerTick()</text>
<text text-anchor="start" x="456" y="-732" font-family="Helvetica,sans-Serif" font-size="10.00">+ Start()</text>
<text text-anchor="start" x="456" y="-721" font-family="Helvetica,sans-Serif" font-size="10.00">+ Reset()</text>
</a>
</g>
</g>
<!-- Node10&#45;&gt;Node1 -->
<g id="edge11" class="edge"><title>Node10&#45;&gt;Node1</title>
<path fill="none" stroke="#404040" d="M447.809,-734.79C420.401,-710.873 387.231,-676.424 370,-638 357.2,-609.457 344.036,-450.828 335.28,-323.425"/>
<polygon fill="none" stroke="#404040" points="335.262,-323.17 330.863,-317.456 334.446,-311.198 338.845,-316.912 335.262,-323.17"/>
<text text-anchor="middle" x="404.5" y="-501.5" font-family="Helvetica,sans-Serif" font-size="10.00"> &#45;fRefreshTimer</text>
</g>
<!-- Node10&#45;&gt;Node9 -->
<g id="edge9" class="edge"><title>Node10&#45;&gt;Node9</title>
<path fill="none" stroke="#404040" d="M498.669,-713.978C500.993,-694.804 503.721,-672.3 506.51,-649.292"/>
<polygon fill="none" stroke="#404040" points="506.528,-649.143 503.279,-642.705 507.972,-637.23 511.221,-643.668 506.528,-649.143"/>
<text text-anchor="middle" x="531" y="-659.5" font-family="Helvetica,sans-Serif" font-size="10.00"> &#45;fClipTimer</text>
</g>
<!-- Node11 -->
<g id="node11" class="node"><title>Node11</title>
<g id="a_node11"><a xlink:href="../../d7/d3c/enumppm__java_1_1util_1_1timer_1_1_e_timer_state.html" target="_top" xlink:title="Internal state of the TTickTimer. ">
<polygon fill="white" stroke="black" points="456.5,-902.5 456.5,-981.5 527.5,-981.5 527.5,-902.5 456.5,-902.5"/>
<text text-anchor="middle" x="492" y="-969.5" font-family="Helvetica,sans-Serif" font-size="10.00">ETimerState</text>
<polyline fill="none" stroke="black" points="456.5,-962.5 527.5,-962.5 "/>
<text text-anchor="start" x="464.5" y="-950.5" font-family="Helvetica,sans-Serif" font-size="10.00">+ kNull</text>
<text text-anchor="start" x="464.5" y="-939.5" font-family="Helvetica,sans-Serif" font-size="10.00">+ kRunning</text>
<text text-anchor="start" x="464.5" y="-928.5" font-family="Helvetica,sans-Serif" font-size="10.00">+ kExpired</text>
<polyline fill="none" stroke="black" points="456.5,-921.5 527.5,-921.5 "/>
<text text-anchor="middle" x="492" y="-909.5" font-family="Helvetica,sans-Serif" font-size="10.00"> </text>
</a>
</g>
</g>
<!-- Node11&#45;&gt;Node10 -->
<g id="edge10" class="edge"><title>Node11&#45;&gt;Node10</title>
<path fill="none" stroke="#404040" d="M492,-902.424C492,-883.501 492,-860.15 492,-838.406"/>
<polygon fill="none" stroke="#404040" points="492,-838.183 488,-832.183 492,-826.183 496,-832.183 492,-838.183"/>
<text text-anchor="middle" x="508.5" y="-875.5" font-family="Helvetica,sans-Serif" font-size="10.00"> &#45;fState</text>
</g>
</g>
</svg>
