<?xml version="1.0" encoding="UTF-8" standalone="no"?>
<!DOCTYPE svg PUBLIC "-//W3C//DTD SVG 1.1//EN"
 "http://www.w3.org/Graphics/SVG/1.1/DTD/svg11.dtd">
<!-- Generated by graphviz version 2.36.0 (20140111.2315)
 -->
<!-- Title: GetObject Pages: 1 -->
<svg width="446pt" height="160pt"
 viewBox="0.00 0.00 446.00 160.00" xmlns="http://www.w3.org/2000/svg" xmlns:xlink="http://www.w3.org/1999/xlink">
<g id="graph0" class="graph" transform="scale(1 1) rotate(0) translate(4 156)">
<title>GetObject</title>
<polygon fill="white" stroke="none" points="-4,4 -4,-156 442,-156 442,4 -4,4"/>
<!-- Node1 -->
<g id="node1" class="node"><title>Node1</title>
<polygon fill="#bfbfbf" stroke="black" points="0.5,-54.5 0.5,-73.5 61.5,-73.5 61.5,-54.5 0.5,-54.5"/>
<text text-anchor="middle" x="31" y="-61.5" font-family="Helvetica,sans-Serif" font-size="10.00">GetObject</text>
</g>
<!-- Node2 -->
<g id="node2" class="node"><title>Node2</title>
<g id="a_node2"><a xlink:href="../../df/d79/classppm__java_1_1backend_1_1_t_controller.html#aafdb47c9c900c8052bbb9d27e147c766" target="_top" xlink:title="Looks up an audio object by ID. ">
<polygon fill="white" stroke="black" points="98,-98 98,-128 250,-128 250,-98 98,-98"/>
<text text-anchor="start" x="106" y="-116" font-family="Helvetica,sans-Serif" font-size="10.00">ppm_java.backend.TController.</text>
<text text-anchor="middle" x="174" y="-105" font-family="Helvetica,sans-Serif" font-size="10.00">_GetAudioObject</text>
</a>
</g>
</g>
<!-- Node1&#45;&gt;Node2 -->
<g id="edge1" class="edge"><title>Node1&#45;&gt;Node2</title>
<path fill="none" stroke="midnightblue" d="M67.217,-77.0056C77.1521,-80.6203 87.9832,-84.51 98,-88 107.462,-91.2965 117.626,-94.7459 127.322,-97.9928"/>
<polygon fill="midnightblue" stroke="midnightblue" points="68.2379,-73.6523 57.644,-73.5075 65.8354,-80.2271 68.2379,-73.6523"/>
</g>
<!-- Node5 -->
<g id="node5" class="node"><title>Node5</title>
<g id="a_node5"><a xlink:href="../../df/d79/classppm__java_1_1backend_1_1_t_controller.html#a19b40aaeb2952cd6640f2bd39d644fb1" target="_top" xlink:title="Starts/stops all modules in the start list. ">
<polygon fill="white" stroke="black" points="98,-49 98,-79 250,-79 250,-49 98,-49"/>
<text text-anchor="start" x="106" y="-67" font-family="Helvetica,sans-Serif" font-size="10.00">ppm_java.backend.TController.</text>
<text text-anchor="middle" x="174" y="-56" font-family="Helvetica,sans-Serif" font-size="10.00">_StartStop</text>
</a>
</g>
</g>
<!-- Node1&#45;&gt;Node5 -->
<g id="edge4" class="edge"><title>Node1&#45;&gt;Node5</title>
<path fill="none" stroke="midnightblue" d="M71.5913,-64C79.8456,-64 88.8046,-64 97.8662,-64"/>
<polygon fill="midnightblue" stroke="midnightblue" points="71.5583,-60.5001 61.5582,-64 71.5582,-67.5001 71.5583,-60.5001"/>
</g>
<!-- Node6 -->
<g id="node6" class="node"><title>Node6</title>
<g id="a_node6"><a xlink:href="../../df/d79/classppm__java_1_1backend_1_1_t_controller.html#a321a0c4029a593ebfcdcd9d9998f9ab9" target="_top" xlink:title="Subscribes an IEvented object (subscriber) to receive events from another VBrowseable (subscribed)...">
<polygon fill="white" stroke="black" points="98,-0 98,-30 250,-30 250,-0 98,-0"/>
<text text-anchor="start" x="106" y="-18" font-family="Helvetica,sans-Serif" font-size="10.00">ppm_java.backend.TController.</text>
<text text-anchor="middle" x="174" y="-7" font-family="Helvetica,sans-Serif" font-size="10.00">_SubscribeToEvents</text>
</a>
</g>
</g>
<!-- Node1&#45;&gt;Node6 -->
<g id="edge5" class="edge"><title>Node1&#45;&gt;Node6</title>
<path fill="none" stroke="midnightblue" d="M67.217,-50.9944C77.1521,-47.3797 87.9832,-43.49 98,-40 107.462,-36.7035 117.626,-33.2541 127.322,-30.0072"/>
<polygon fill="midnightblue" stroke="midnightblue" points="65.8354,-47.7729 57.644,-54.4925 68.2379,-54.3477 65.8354,-47.7729"/>
</g>
<!-- Node3 -->
<g id="node3" class="node"><title>Node3</title>
<g id="a_node3"><a xlink:href="../../df/d79/classppm__java_1_1backend_1_1_t_controller.html#a840dd5e2bf669143e3fcfbd395f69a05" target="_top" xlink:title="Creates an input port on a module. ">
<polygon fill="white" stroke="black" points="286,-122 286,-152 438,-152 438,-122 286,-122"/>
<text text-anchor="start" x="294" y="-140" font-family="Helvetica,sans-Serif" font-size="10.00">ppm_java.backend.TController.</text>
<text text-anchor="middle" x="362" y="-129" font-family="Helvetica,sans-Serif" font-size="10.00">Create_Port_In</text>
</a>
</g>
</g>
<!-- Node2&#45;&gt;Node3 -->
<g id="edge2" class="edge"><title>Node2&#45;&gt;Node3</title>
<path fill="none" stroke="midnightblue" d="M260.147,-123.987C268.742,-125.096 277.426,-126.216 285.905,-127.31"/>
<polygon fill="midnightblue" stroke="midnightblue" points="260.483,-120.501 250.117,-122.693 259.587,-127.444 260.483,-120.501"/>
</g>
<!-- Node4 -->
<g id="node4" class="node"><title>Node4</title>
<g id="a_node4"><a xlink:href="../../df/d79/classppm__java_1_1backend_1_1_t_controller.html#a8411f5bb89772321ad7f3fb75ea7755d" target="_top" xlink:title="Creates an output port on a module. ">
<polygon fill="white" stroke="black" points="286,-73 286,-103 438,-103 438,-73 286,-73"/>
<text text-anchor="start" x="294" y="-91" font-family="Helvetica,sans-Serif" font-size="10.00">ppm_java.backend.TController.</text>
<text text-anchor="middle" x="362" y="-80" font-family="Helvetica,sans-Serif" font-size="10.00">Create_Port_Out</text>
</a>
</g>
</g>
<!-- Node2&#45;&gt;Node4 -->
<g id="edge3" class="edge"><title>Node2&#45;&gt;Node4</title>
<path fill="none" stroke="midnightblue" d="M260.147,-101.555C268.742,-100.4 277.426,-99.233 285.905,-98.0934"/>
<polygon fill="midnightblue" stroke="midnightblue" points="259.562,-98.1026 250.117,-102.904 260.494,-105.04 259.562,-98.1026"/>
</g>
</g>
</svg>
