<?xml version="1.0" encoding="UTF-8" standalone="no"?>
<!DOCTYPE svg PUBLIC "-//W3C//DTD SVG 1.1//EN"
 "http://www.w3.org/Graphics/SVG/1.1/DTD/svg11.dtd">
<!-- Generated by graphviz version 2.36.0 (20140111.2315)
 -->
<!-- Title: GetID Pages: 1 -->
<!--zoomable 637 -->
<svg id="main" version="1.1" xmlns="http://www.w3.org/2000/svg" xmlns:xlink="http://www.w3.org/1999/xlink" xml:space="preserve" onload="init(evt)">
<style type="text/css"><![CDATA[
.edge:hover path { stroke: red; }
.edge:hover polygon { stroke: red; fill: red; }
]]></style>
<script type="text/javascript"><![CDATA[
var edges = document.getElementsByTagName('g');
if (edges && edges.length) {
  for (var i=0;i<edges.length;i++) {
    if (edges[i].id.substr(0,4)=='edge') {
      edges[i].setAttribute('class','edge');
    }
  }
}
]]></script>
        <defs>
                <circle id="rim" cx="0" cy="0" r="7"/>
                <circle id="rim2" cx="0" cy="0" r="3.5"/>
                <g id="zoomPlus">
                        <use xlink:href="#rim" fill="#404040">
                                <set attributeName="fill" to="#808080" begin="zoomplus.mouseover" end="zoomplus.mouseout"/>
                        </use>
                        <path d="M-4,0h8M0,-4v8" fill="none" stroke="white" stroke-width="1.5" pointer-events="none"/>
                </g>
                <g id="zoomMin">
                        <use xlink:href="#rim" fill="#404040">
                                <set attributeName="fill" to="#808080" begin="zoomminus.mouseover" end="zoomminus.mouseout"/>
                        </use>
                        <path d="M-4,0h8" fill="none" stroke="white" stroke-width="1.5" pointer-events="none"/>
                </g>
                <g id="dirArrow">
                        <path fill="none" stroke="white" stroke-width="1.5" d="M0,-3.0v7 M-2.5,-0.5L0,-3.0L2.5,-0.5"/>
                </g>
               <g id="resetDef">
                       <use xlink:href="#rim2" fill="#404040">
                               <set attributeName="fill" to="#808080" begin="reset.mouseover" end="reset.mouseout"/>
                       </use>
               </g>
        </defs>

<script type="text/javascript">
var viewWidth = 754;
var viewHeight = 637;
var sectionId = 'dynsection-4';
</script>
<script xlink:href="../../svgpan.js"/>
<svg id="graph" class="graph">
<g id="viewport">
<title>GetID</title>
<polygon fill="white" stroke="none" points="-4,4 -4,-633 750,-633 750,4 -4,4"/>
<!-- Node1 -->
<g id="node1" class="node"><title>Node1</title>
<polygon fill="#bfbfbf" stroke="black" points="0.5,-274.5 0.5,-293.5 43.5,-293.5 43.5,-274.5 0.5,-274.5"/>
<text text-anchor="middle" x="22" y="-281.5" font-family="Helvetica,sans-Serif" font-size="10.00">GetID</text>
</g>
<!-- Node2 -->
<g id="node2" class="node"><title>Node2</title>
<g id="a_node2"><a xlink:href="../../dc/d04/classppm__java_1_1backend_1_1module_1_1__deprecated__ppm_1_1_t_node_p_p_m_processor.html#acb24179b9cce6b4e388b2c7589b0a681" target="_top" xlink:title="Auto compensation for Overruns/Underruns on the atomic buffer associated with the input...">
<polygon fill="white" stroke="black" points="83.5,-562.5 83.5,-603.5 278.5,-603.5 278.5,-562.5 83.5,-562.5"/>
<text text-anchor="start" x="91.5" y="-591.5" font-family="Helvetica,sans-Serif" font-size="10.00">ppm_java.backend.module.</text>
<text text-anchor="start" x="91.5" y="-580.5" font-family="Helvetica,sans-Serif" font-size="10.00">_deprecated_ppm.TNodePPMProcessor.</text>
<text text-anchor="middle" x="181" y="-569.5" font-family="Helvetica,sans-Serif" font-size="10.00">_CompensateCongestions</text>
</a>
</g>
</g>
<!-- Node1&#45;&gt;Node2 -->
<g id="edge1" class="edge"><title>Node1&#45;&gt;Node2</title>
<path fill="none" stroke="midnightblue" d="M22.3832,-303.711C21.9934,-348.493 26.8506,-459.393 80,-529 90.8964,-543.27 106.682,-554.219 122.504,-562.404"/>
<polygon fill="midnightblue" stroke="midnightblue" points="25.8848,-303.655 22.5759,-293.591 18.8861,-303.522 25.8848,-303.655"/>
</g>
<!-- Node5 -->
<g id="node5" class="node"><title>Node5</title>
<g id="a_node5"><a xlink:href="../../d6/da9/classppm__java_1_1backend_1_1module_1_1timer_1_1_t_timer.html#ae3856823906c4bc0f3fbea5c1a6a0544" target="_top" xlink:title="Returns a sanitized timer interval, if the given value was out of bounds. ">
<polygon fill="white" stroke="black" points="100.5,-490 100.5,-520 261.5,-520 261.5,-490 100.5,-490"/>
<text text-anchor="start" x="108.5" y="-508" font-family="Helvetica,sans-Serif" font-size="10.00">ppm_java.backend.module.timer.</text>
<text text-anchor="middle" x="181" y="-497" font-family="Helvetica,sans-Serif" font-size="10.00">TTimer._GetSaneInterval</text>
</a>
</g>
</g>
<!-- Node1&#45;&gt;Node5 -->
<g id="edge4" class="edge"><title>Node1&#45;&gt;Node5</title>
<path fill="none" stroke="midnightblue" d="M22.6887,-304.057C23.2191,-343.644 30.2743,-432.13 80,-480 85.9305,-485.709 92.9584,-490.174 100.498,-493.657"/>
<polygon fill="midnightblue" stroke="midnightblue" points="26.1888,-303.848 22.6876,-293.849 19.1888,-303.849 26.1888,-303.848"/>
</g>
<!-- Node9 -->
<g id="node9" class="node"><title>Node9</title>
<g id="a_node9"><a xlink:href="../../dc/da9/classppm__java_1_1backend_1_1module_1_1jackd_1_1_t_audio_context___jack_d.html#a241daff2103a886e197a4ccb424264fa" target="_top" xlink:title="Loads and initializes the JackD driver. ">
<polygon fill="white" stroke="black" points="95.5,-441 95.5,-471 266.5,-471 266.5,-441 95.5,-441"/>
<text text-anchor="start" x="103.5" y="-459" font-family="Helvetica,sans-Serif" font-size="10.00">ppm_java.backend.module.jackd.</text>
<text text-anchor="middle" x="181" y="-448" font-family="Helvetica,sans-Serif" font-size="10.00">TAudioContext_JackD._LoadDriver</text>
</a>
</g>
</g>
<!-- Node1&#45;&gt;Node9 -->
<g id="edge8" class="edge"><title>Node1&#45;&gt;Node9</title>
<path fill="none" stroke="midnightblue" d="M24.9418,-303.79C29.1353,-335.482 41.9764,-397.453 80,-431 84.5625,-435.025 89.677,-438.423 95.1165,-441.287"/>
<polygon fill="midnightblue" stroke="midnightblue" points="28.3879,-303.123 23.7575,-293.593 21.4346,-303.93 28.3879,-303.123"/>
</g>
<!-- Node11 -->
<g id="node11" class="node"><title>Node11</title>
<g id="a_node11"><a xlink:href="../../da/d04/classppm__java_1_1typelib_1_1_v_frontend.html#a6048e77417203b43e28424fccfb399cd" target="_top" xlink:title="Handler for: Frontend terminated. ">
<polygon fill="white" stroke="black" points="110.5,-392 110.5,-422 251.5,-422 251.5,-392 110.5,-392"/>
<text text-anchor="start" x="118.5" y="-410" font-family="Helvetica,sans-Serif" font-size="10.00">ppm_java.typelib.VFrontend.</text>
<text text-anchor="middle" x="181" y="-399" font-family="Helvetica,sans-Serif" font-size="10.00">_OnTerminate</text>
</a>
</g>
</g>
<!-- Node1&#45;&gt;Node11 -->
<g id="edge10" class="edge"><title>Node1&#45;&gt;Node11</title>
<path fill="none" stroke="midnightblue" d="M29.0194,-303.22C37.0281,-325.58 53.3622,-361.981 80,-382 88.9411,-388.72 99.4769,-393.648 110.296,-397.26"/>
<polygon fill="midnightblue" stroke="midnightblue" points="32.2562,-301.865 25.748,-293.505 25.6222,-304.099 32.2562,-301.865"/>
</g>
<!-- Node12 -->
<g id="node12" class="node"><title>Node12</title>
<g id="a_node12"><a xlink:href="../../de/db8/classppm__java_1_1backend_1_1module_1_1pump_1_1_t_node_pump.html#a018d25aae00a5c4c8ae8f15f596f91e9" target="_top" xlink:title="Compensates for data loss (i.e. ">
<polygon fill="white" stroke="black" points="99.5,-343 99.5,-373 262.5,-373 262.5,-343 99.5,-343"/>
<text text-anchor="start" x="107.5" y="-361" font-family="Helvetica,sans-Serif" font-size="10.00">ppm_java.backend.module.pump.</text>
<text text-anchor="middle" x="181" y="-350" font-family="Helvetica,sans-Serif" font-size="10.00">TNodePump._Resolve_DataLoss</text>
</a>
</g>
</g>
<!-- Node1&#45;&gt;Node12 -->
<g id="edge11" class="edge"><title>Node1&#45;&gt;Node12</title>
<path fill="none" stroke="midnightblue" d="M38.6336,-301.021C49.3164,-311.683 64.3319,-324.892 80,-333 87.47,-336.865 95.5677,-340.154 103.811,-342.948"/>
<polygon fill="midnightblue" stroke="midnightblue" points="41.1388,-298.577 31.6732,-293.818 36.1047,-303.441 41.1388,-298.577"/>
</g>
<!-- Node15 -->
<g id="node15" class="node"><title>Node15</title>
<g id="a_node15"><a xlink:href="../../df/d02/classppm__java_1_1typelib_1_1_v_audio_port___output.html#aa5671c0a2de6cd655108cd9a7d530529" target="_top" xlink:title="Logs a message when a connection to a VAudioPort_Input is made. ">
<polygon fill="white" stroke="black" points="109.5,-294 109.5,-324 252.5,-324 252.5,-294 109.5,-294"/>
<text text-anchor="start" x="117.5" y="-312" font-family="Helvetica,sans-Serif" font-size="10.00">ppm_java.typelib.VAudioPort</text>
<text text-anchor="middle" x="181" y="-301" font-family="Helvetica,sans-Serif" font-size="10.00">_Output._SetTarget_Log</text>
</a>
</g>
</g>
<!-- Node1&#45;&gt;Node15 -->
<g id="edge14" class="edge"><title>Node1&#45;&gt;Node15</title>
<path fill="none" stroke="midnightblue" d="M53.808,-288.906C69.7188,-291.439 89.8389,-294.643 109.311,-297.744"/>
<polygon fill="midnightblue" stroke="midnightblue" points="53.951,-285.384 43.525,-287.268 52.8502,-292.297 53.951,-285.384"/>
</g>
<!-- Node23 -->
<g id="node23" class="node"><title>Node23</title>
<g id="a_node23"><a xlink:href="../../d2/da1/classppm__java_1_1__dev_1_1concept_1_1example_1_1event_1_1_t_sink.html#af9cf9ce912a667961072734e9b9ccbce" target="_top" xlink:title="Receive an event with one in&#45;band String as parameter. ">
<polygon fill="white" stroke="black" points="86,-245 86,-275 276,-275 276,-245 86,-245"/>
<text text-anchor="start" x="94" y="-263" font-family="Helvetica,sans-Serif" font-size="10.00">ppm_java._dev.concept.example.event.</text>
<text text-anchor="middle" x="181" y="-252" font-family="Helvetica,sans-Serif" font-size="10.00">TSink.OnEvent</text>
</a>
</g>
</g>
<!-- Node1&#45;&gt;Node23 -->
<g id="edge22" class="edge"><title>Node1&#45;&gt;Node23</title>
<path fill="none" stroke="midnightblue" d="M53.6341,-279.317C63.2176,-277.852 74.3406,-276.152 85.9356,-274.379"/>
<polygon fill="midnightblue" stroke="midnightblue" points="52.8813,-275.891 43.525,-280.862 53.9391,-282.811 52.8813,-275.891"/>
</g>
<!-- Node24 -->
<g id="node24" class="node"><title>Node24</title>
<g id="a_node24"><a xlink:href="../../d5/d13/classppm__java_1_1frontend_1_1gui_1_1needle_1_1_t_g_u_i_needle___surrogate.html#a481bace74a046b28af3c0002b6643fbd" target="_top" xlink:title="Notification &#45; UI terminated. ">
<polygon fill="white" stroke="black" points="92,-196 92,-226 270,-226 270,-196 92,-196"/>
<text text-anchor="start" x="100" y="-214" font-family="Helvetica,sans-Serif" font-size="10.00">ppm_java.frontend.gui.needle.</text>
<text text-anchor="middle" x="181" y="-203" font-family="Helvetica,sans-Serif" font-size="10.00">TGUINeedle_Surrogate.OnTerminate</text>
</a>
</g>
</g>
<!-- Node1&#45;&gt;Node24 -->
<g id="edge23" class="edge"><title>Node1&#45;&gt;Node24</title>
<path fill="none" stroke="midnightblue" d="M39.0097,-267.032C49.6972,-256.647 64.5774,-243.881 80,-236 87.5692,-232.132 95.7723,-228.838 104.113,-226.04"/>
<polygon fill="midnightblue" stroke="midnightblue" points="36.27,-264.824 31.7147,-274.39 41.2409,-269.753 36.27,-264.824"/>
</g>
<!-- Node25 -->
<g id="node25" class="node"><title>Node25</title>
<g id="a_node25"><a xlink:href="../../d2/dd7/classppm__java_1_1frontend_1_1gui_1_1lineargauge_1_1_t_g_u_i_linear_gauge___surrogate.html#a481bace74a046b28af3c0002b6643fbd" target="_top" xlink:title="Notification &#45; UI terminated. ">
<polygon fill="white" stroke="black" points="80,-147 80,-177 282,-177 282,-147 80,-147"/>
<text text-anchor="start" x="88" y="-165" font-family="Helvetica,sans-Serif" font-size="10.00">ppm_java.frontend.gui.lineargauge.</text>
<text text-anchor="middle" x="181" y="-154" font-family="Helvetica,sans-Serif" font-size="10.00">TGUILinearGauge_Surrogate.OnTerminate</text>
</a>
</g>
</g>
<!-- Node1&#45;&gt;Node25 -->
<g id="edge24" class="edge"><title>Node1&#45;&gt;Node25</title>
<path fill="none" stroke="midnightblue" d="M29.1974,-264.635C37.3021,-242.474 53.6552,-206.707 80,-187 85.1587,-183.141 90.8441,-179.873 96.806,-177.106"/>
<polygon fill="midnightblue" stroke="midnightblue" points="25.8189,-263.697 25.8737,-274.292 32.4378,-265.975 25.8189,-263.697"/>
</g>
<!-- Node26 -->
<g id="node26" class="node"><title>Node26</title>
<g id="a_node26"><a xlink:href="../../d6/d7c/classppm__java_1_1backend_1_1_t_registry.html#a4b67392cf3d225ea2f254218af2a94bc" target="_top" xlink:title="Registers the audio driver. ">
<polygon fill="white" stroke="black" points="107.5,-98 107.5,-128 254.5,-128 254.5,-98 107.5,-98"/>
<text text-anchor="start" x="115.5" y="-116" font-family="Helvetica,sans-Serif" font-size="10.00">ppm_java.backend.TRegistry.</text>
<text text-anchor="middle" x="181" y="-105" font-family="Helvetica,sans-Serif" font-size="10.00">Register</text>
</a>
</g>
</g>
<!-- Node1&#45;&gt;Node26 -->
<g id="edge25" class="edge"><title>Node1&#45;&gt;Node26</title>
<path fill="none" stroke="midnightblue" d="M24.9845,-264.341C29.2383,-232.861 42.1627,-171.305 80,-138 87.8582,-131.083 97.3469,-126.022 107.311,-122.329"/>
<polygon fill="midnightblue" stroke="midnightblue" points="21.4854,-264.127 23.7795,-274.47 28.4364,-264.954 21.4854,-264.127"/>
</g>
<!-- Node27 -->
<g id="node27" class="node"><title>Node27</title>
<g id="a_node27"><a xlink:href="../../d6/da9/classppm__java_1_1backend_1_1module_1_1timer_1_1_t_timer.html#ae4e649d096b34ec37c203a76ec459e71" target="_top" xlink:title="Sends the IEvented#gkEventTimerTick event to all subscribers. ">
<polygon fill="white" stroke="black" points="100.5,-49 100.5,-79 261.5,-79 261.5,-49 100.5,-49"/>
<text text-anchor="start" x="108.5" y="-67" font-family="Helvetica,sans-Serif" font-size="10.00">ppm_java.backend.module.timer.</text>
<text text-anchor="middle" x="181" y="-56" font-family="Helvetica,sans-Serif" font-size="10.00">TTimer.SendTimerEvent</text>
</a>
</g>
</g>
<!-- Node1&#45;&gt;Node27 -->
<g id="edge26" class="edge"><title>Node1&#45;&gt;Node27</title>
<path fill="none" stroke="midnightblue" d="M22.7232,-264.043C23.3153,-224.653 30.4754,-136.61 80,-89 85.8054,-83.419 92.6597,-79.0276 100.015,-75.58"/>
<polygon fill="midnightblue" stroke="midnightblue" points="19.223,-264.194 22.7055,-274.2 26.223,-264.206 19.223,-264.194"/>
</g>
<!-- Node28 -->
<g id="node28" class="node"><title>Node28</title>
<g id="a_node28"><a xlink:href="../../da/d60/classppm__java_1_1__dev_1_1concept_1_1example_1_1event_1_1_t_source.html#a07aaf1227e4d645f15e0a964f54ef291" target="_top" xlink:title="Sends ten events (zeros) to any subscribers. ">
<polygon fill="white" stroke="black" points="86,-0 86,-30 276,-30 276,-0 86,-0"/>
<text text-anchor="start" x="94" y="-18" font-family="Helvetica,sans-Serif" font-size="10.00">ppm_java._dev.concept.example.event.</text>
<text text-anchor="middle" x="181" y="-7" font-family="Helvetica,sans-Serif" font-size="10.00">TSource.Start</text>
</a>
</g>
</g>
<!-- Node1&#45;&gt;Node28 -->
<g id="edge27" class="edge"><title>Node1&#45;&gt;Node28</title>
<path fill="none" stroke="midnightblue" d="M24.9415,-264.254C30.4904,-211.858 48.1061,-71.1166 80,-39 83.3968,-35.5795 87.1895,-32.6135 91.2567,-30.0442"/>
<polygon fill="midnightblue" stroke="midnightblue" points="21.4515,-263.978 23.9141,-274.283 28.4151,-264.692 21.4515,-263.978"/>
</g>
<!-- Node3 -->
<g id="node3" class="node"><title>Node3</title>
<g id="a_node3"><a xlink:href="../../dc/d04/classppm__java_1_1backend_1_1module_1_1__deprecated__ppm_1_1_t_node_p_p_m_processor.html#a9170c532c1d0021b723f0285c672a6cd" target="_top" xlink:title="The central computation piece of the PPM level meter. ">
<polygon fill="white" stroke="black" points="318.5,-587.5 318.5,-628.5 513.5,-628.5 513.5,-587.5 318.5,-587.5"/>
<text text-anchor="start" x="326.5" y="-616.5" font-family="Helvetica,sans-Serif" font-size="10.00">ppm_java.backend.module.</text>
<text text-anchor="start" x="326.5" y="-605.5" font-family="Helvetica,sans-Serif" font-size="10.00">_deprecated_ppm.TNodePPMProcessor.</text>
<text text-anchor="middle" x="416" y="-594.5" font-family="Helvetica,sans-Serif" font-size="10.00">_ProcessChunk</text>
</a>
</g>
</g>
<!-- Node2&#45;&gt;Node3 -->
<g id="edge2" class="edge"><title>Node2&#45;&gt;Node3</title>
<path fill="none" stroke="midnightblue" d="M288.902,-594.47C298.649,-595.516 308.486,-596.571 318.138,-597.607"/>
<polygon fill="midnightblue" stroke="midnightblue" points="289.105,-590.972 278.789,-593.385 288.358,-597.932 289.105,-590.972"/>
</g>
<!-- Node4 -->
<g id="node4" class="node"><title>Node4</title>
<g id="a_node4"><a xlink:href="../../dc/d04/classppm__java_1_1backend_1_1module_1_1__deprecated__ppm_1_1_t_node_p_p_m_processor.html#a310a2f2cdbda46d8166b50e45943e7e4" target="_top" xlink:title="Receive an event with no parameter. ">
<polygon fill="white" stroke="black" points="550.5,-587.5 550.5,-628.5 745.5,-628.5 745.5,-587.5 550.5,-587.5"/>
<text text-anchor="start" x="558.5" y="-616.5" font-family="Helvetica,sans-Serif" font-size="10.00">ppm_java.backend.module.</text>
<text text-anchor="start" x="558.5" y="-605.5" font-family="Helvetica,sans-Serif" font-size="10.00">_deprecated_ppm.TNodePPMProcessor.</text>
<text text-anchor="middle" x="648" y="-594.5" font-family="Helvetica,sans-Serif" font-size="10.00">OnEvent</text>
</a>
</g>
</g>
<!-- Node3&#45;&gt;Node4 -->
<g id="edge3" class="edge"><title>Node3&#45;&gt;Node4</title>
<path fill="none" stroke="midnightblue" d="M523.577,-608C532.501,-608 541.493,-608 550.337,-608"/>
<polygon fill="midnightblue" stroke="midnightblue" points="523.541,-604.5 513.541,-608 523.541,-611.5 523.541,-604.5"/>
</g>
<!-- Node6 -->
<g id="node6" class="node"><title>Node6</title>
<g id="a_node6"><a xlink:href="../../d6/da9/classppm__java_1_1backend_1_1module_1_1timer_1_1_t_timer.html#a1df2b404b6ed320c94f0e6127a4fd940" target="_top" xlink:title="Receive an event with one in&#45;band long as parameter. ">
<polygon fill="white" stroke="black" points="335.5,-539 335.5,-569 496.5,-569 496.5,-539 335.5,-539"/>
<text text-anchor="start" x="343.5" y="-557" font-family="Helvetica,sans-Serif" font-size="10.00">ppm_java.backend.module.timer.</text>
<text text-anchor="middle" x="416" y="-546" font-family="Helvetica,sans-Serif" font-size="10.00">TTimer.OnEvent</text>
</a>
</g>
</g>
<!-- Node5&#45;&gt;Node6 -->
<g id="edge5" class="edge"><title>Node5&#45;&gt;Node6</title>
<path fill="none" stroke="midnightblue" d="M263.372,-522.113C289.52,-527.611 318.272,-533.658 343.644,-538.994"/>
<polygon fill="midnightblue" stroke="midnightblue" points="263.997,-518.668 253.491,-520.035 262.557,-525.518 263.997,-518.668"/>
</g>
<!-- Node7 -->
<g id="node7" class="node"><title>Node7</title>
<g id="a_node7"><a xlink:href="../../d6/da9/classppm__java_1_1backend_1_1module_1_1timer_1_1_t_timer.html#a8ebf4bae5420917957b0f6c9d7e31114" target="_top" xlink:title="cTor. ">
<polygon fill="white" stroke="black" points="335.5,-490 335.5,-520 496.5,-520 496.5,-490 335.5,-490"/>
<text text-anchor="start" x="343.5" y="-508" font-family="Helvetica,sans-Serif" font-size="10.00">ppm_java.backend.module.timer.</text>
<text text-anchor="middle" x="416" y="-497" font-family="Helvetica,sans-Serif" font-size="10.00">TTimer.TTimer</text>
</a>
</g>
</g>
<!-- Node5&#45;&gt;Node7 -->
<g id="edge6" class="edge"><title>Node5&#45;&gt;Node7</title>
<path fill="none" stroke="midnightblue" d="M271.724,-505C292.71,-505 314.921,-505 335.429,-505"/>
<polygon fill="midnightblue" stroke="midnightblue" points="271.534,-501.5 261.534,-505 271.534,-508.5 271.534,-501.5"/>
</g>
<!-- Node8 -->
<g id="node8" class="node"><title>Node8</title>
<g id="a_node8"><a xlink:href="../../d6/da9/classppm__java_1_1backend_1_1module_1_1timer_1_1_t_timer.html#adbd31dcd69a952af318756f9167cd1ea" target="_top" xlink:title="Creates a new TTimer instance. ">
<polygon fill="white" stroke="black" points="567.5,-490 567.5,-520 728.5,-520 728.5,-490 567.5,-490"/>
<text text-anchor="start" x="575.5" y="-508" font-family="Helvetica,sans-Serif" font-size="10.00">ppm_java.backend.module.timer.</text>
<text text-anchor="middle" x="648" y="-497" font-family="Helvetica,sans-Serif" font-size="10.00">TTimer.CreateInstance</text>
</a>
</g>
</g>
<!-- Node7&#45;&gt;Node8 -->
<g id="edge7" class="edge"><title>Node7&#45;&gt;Node8</title>
<path fill="none" stroke="midnightblue" d="M506.815,-505C526.783,-505 547.816,-505 567.344,-505"/>
<polygon fill="midnightblue" stroke="midnightblue" points="506.797,-501.5 496.797,-505 506.797,-508.5 506.797,-501.5"/>
</g>
<!-- Node10 -->
<g id="node10" class="node"><title>Node10</title>
<g id="a_node10"><a xlink:href="../../dc/da9/classppm__java_1_1backend_1_1module_1_1jackd_1_1_t_audio_context___jack_d.html#a07aaf1227e4d645f15e0a964f54ef291" target="_top" xlink:title="Starts the module. ">
<polygon fill="white" stroke="black" points="335,-441 335,-471 497,-471 497,-441 335,-441"/>
<text text-anchor="start" x="343" y="-459" font-family="Helvetica,sans-Serif" font-size="10.00">ppm_java.backend.module.jackd.</text>
<text text-anchor="middle" x="416" y="-448" font-family="Helvetica,sans-Serif" font-size="10.00">TAudioContext_JackD.Start</text>
</a>
</g>
</g>
<!-- Node9&#45;&gt;Node10 -->
<g id="edge9" class="edge"><title>Node9&#45;&gt;Node10</title>
<path fill="none" stroke="midnightblue" d="M276.784,-456C296.087,-456 316.214,-456 334.943,-456"/>
<polygon fill="midnightblue" stroke="midnightblue" points="276.777,-452.5 266.777,-456 276.777,-459.5 276.777,-452.5"/>
</g>
<!-- Node13 -->
<g id="node13" class="node"><title>Node13</title>
<g id="a_node13"><a xlink:href="../../de/db8/classppm__java_1_1backend_1_1module_1_1pump_1_1_t_node_pump.html#ae94534b50b3e9aaefe27ff39711bf583" target="_top" xlink:title="Fetches and sends the next sample chunk to the connected module. ">
<polygon fill="white" stroke="black" points="334.5,-392 334.5,-422 497.5,-422 497.5,-392 334.5,-392"/>
<text text-anchor="start" x="342.5" y="-410" font-family="Helvetica,sans-Serif" font-size="10.00">ppm_java.backend.module.pump.</text>
<text text-anchor="middle" x="416" y="-399" font-family="Helvetica,sans-Serif" font-size="10.00">TNodePump._FetchAndSend</text>
</a>
</g>
</g>
<!-- Node12&#45;&gt;Node13 -->
<g id="edge12" class="edge"><title>Node12&#45;&gt;Node13</title>
<path fill="none" stroke="midnightblue" d="M263.372,-375.113C289.52,-380.611 318.272,-386.658 343.644,-391.994"/>
<polygon fill="midnightblue" stroke="midnightblue" points="263.997,-371.668 253.491,-373.035 262.557,-378.518 263.997,-371.668"/>
</g>
<!-- Node14 -->
<g id="node14" class="node"><title>Node14</title>
<g id="a_node14"><a xlink:href="../../de/db8/classppm__java_1_1backend_1_1module_1_1pump_1_1_t_node_pump.html#a310a2f2cdbda46d8166b50e45943e7e4" target="_top" xlink:title="Receive an event with no parameter. ">
<polygon fill="white" stroke="black" points="566.5,-416 566.5,-446 729.5,-446 729.5,-416 566.5,-416"/>
<text text-anchor="start" x="574.5" y="-434" font-family="Helvetica,sans-Serif" font-size="10.00">ppm_java.backend.module.pump.</text>
<text text-anchor="middle" x="648" y="-423" font-family="Helvetica,sans-Serif" font-size="10.00">TNodePump.OnEvent</text>
</a>
</g>
</g>
<!-- Node13&#45;&gt;Node14 -->
<g id="edge13" class="edge"><title>Node13&#45;&gt;Node14</title>
<path fill="none" stroke="midnightblue" d="M507.792,-416.474C527.156,-418.495 547.479,-420.615 566.428,-422.593"/>
<polygon fill="midnightblue" stroke="midnightblue" points="508.075,-412.985 497.766,-415.428 507.349,-419.947 508.075,-412.985"/>
</g>
<!-- Node16 -->
<g id="node16" class="node"><title>Node16</title>
<g id="a_node16"><a xlink:href="../../df/d02/classppm__java_1_1typelib_1_1_v_audio_port___output.html#aecd2d710eb754f7813a595e8039c2682" target="_top" xlink:title="Worker method to establish a connection to an input port, called by the _Visit(...) method of the runtime chose subtype. ">
<polygon fill="white" stroke="black" points="344.5,-343 344.5,-373 487.5,-373 487.5,-343 344.5,-343"/>
<text text-anchor="start" x="352.5" y="-361" font-family="Helvetica,sans-Serif" font-size="10.00">ppm_java.typelib.VAudioPort</text>
<text text-anchor="middle" x="416" y="-350" font-family="Helvetica,sans-Serif" font-size="10.00">_Output._SetTarget</text>
</a>
</g>
</g>
<!-- Node15&#45;&gt;Node16 -->
<g id="edge15" class="edge"><title>Node15&#45;&gt;Node16</title>
<path fill="none" stroke="midnightblue" d="M262.579,-325.946C289.162,-331.536 318.51,-337.708 344.298,-343.131"/>
<polygon fill="midnightblue" stroke="midnightblue" points="263.046,-322.468 252.54,-323.835 261.606,-329.318 263.046,-322.468"/>
</g>
<!-- Node20 -->
<g id="node20" class="node"><title>Node20</title>
<g id="a_node20"><a xlink:href="../../df/d90/classppm__java_1_1typelib_1_1_v_audio_port___output___samples.html#a4a959b8bb15d4344725e8c38986b5797" target="_top" xlink:title="ppm_java.typelib.VAudioPort\l_Output_Samples._Visit">
<polygon fill="white" stroke="black" points="344.5,-294 344.5,-324 487.5,-324 487.5,-294 344.5,-294"/>
<text text-anchor="start" x="352.5" y="-312" font-family="Helvetica,sans-Serif" font-size="10.00">ppm_java.typelib.VAudioPort</text>
<text text-anchor="middle" x="416" y="-301" font-family="Helvetica,sans-Serif" font-size="10.00">_Output_Samples._Visit</text>
</a>
</g>
</g>
<!-- Node15&#45;&gt;Node20 -->
<g id="edge19" class="edge"><title>Node15&#45;&gt;Node20</title>
<path fill="none" stroke="midnightblue" d="M262.579,-309C289.162,-309 318.51,-309 344.298,-309"/>
<polygon fill="midnightblue" stroke="midnightblue" points="262.54,-305.5 252.54,-309 262.54,-312.5 262.54,-305.5"/>
</g>
<!-- Node21 -->
<g id="node21" class="node"><title>Node21</title>
<g id="a_node21"><a xlink:href="../../d8/db2/classppm__java_1_1typelib_1_1_v_audio_port___output___chunks___no_buffer.html#a4a959b8bb15d4344725e8c38986b5797" target="_top" xlink:title="ppm_java.typelib.VAudioPort\l_Output_Chunks_NoBuffer._Visit">
<polygon fill="white" stroke="black" points="335,-245 335,-275 497,-275 497,-245 335,-245"/>
<text text-anchor="start" x="343" y="-263" font-family="Helvetica,sans-Serif" font-size="10.00">ppm_java.typelib.VAudioPort</text>
<text text-anchor="middle" x="416" y="-252" font-family="Helvetica,sans-Serif" font-size="10.00">_Output_Chunks_NoBuffer._Visit</text>
</a>
</g>
</g>
<!-- Node15&#45;&gt;Node21 -->
<g id="edge20" class="edge"><title>Node15&#45;&gt;Node21</title>
<path fill="none" stroke="midnightblue" d="M262.486,-292.074C288.817,-286.536 317.87,-280.426 343.493,-275.038"/>
<polygon fill="midnightblue" stroke="midnightblue" points="261.606,-288.682 252.54,-294.165 263.046,-295.532 261.606,-288.682"/>
</g>
<!-- Node22 -->
<g id="node22" class="node"><title>Node22</title>
<g id="a_node22"><a xlink:href="../../d7/d64/classppm__java_1_1typelib_1_1_v_audio_port___output___chunks___needs_buffer.html#a4db9e465a6c131476381a203c7d34928" target="_top" xlink:title="ppm_java.typelib.VAudioPort\l_Output_Chunks_NeedsBuffer._Visit">
<polygon fill="white" stroke="black" points="327,-196 327,-226 505,-226 505,-196 327,-196"/>
<text text-anchor="start" x="335" y="-214" font-family="Helvetica,sans-Serif" font-size="10.00">ppm_java.typelib.VAudioPort</text>
<text text-anchor="middle" x="416" y="-203" font-family="Helvetica,sans-Serif" font-size="10.00">_Output_Chunks_NeedsBuffer._Visit</text>
</a>
</g>
</g>
<!-- Node15&#45;&gt;Node22 -->
<g id="edge21" class="edge"><title>Node15&#45;&gt;Node22</title>
<path fill="none" stroke="midnightblue" d="M262.24,-294.287C269.199,-291.443 275.902,-288.049 282,-284 304.216,-269.249 295.838,-250.831 318,-236 323.781,-232.131 330.124,-228.861 336.711,-226.097"/>
<polygon fill="midnightblue" stroke="midnightblue" points="260.796,-291.089 252.626,-297.834 263.22,-297.656 260.796,-291.089"/>
</g>
<!-- Node17 -->
<g id="node17" class="node"><title>Node17</title>
<g id="a_node17"><a xlink:href="../../d7/d64/classppm__java_1_1typelib_1_1_v_audio_port___output___chunks___needs_buffer.html#a4a959b8bb15d4344725e8c38986b5797" target="_top" xlink:title="ppm_java.typelib.VAudioPort\l_Output_Chunks_NeedsBuffer._Visit">
<polygon fill="white" stroke="black" points="559,-367 559,-397 737,-397 737,-367 559,-367"/>
<text text-anchor="start" x="567" y="-385" font-family="Helvetica,sans-Serif" font-size="10.00">ppm_java.typelib.VAudioPort</text>
<text text-anchor="middle" x="648" y="-374" font-family="Helvetica,sans-Serif" font-size="10.00">_Output_Chunks_NeedsBuffer._Visit</text>
</a>
</g>
</g>
<!-- Node16&#45;&gt;Node17 -->
<g id="edge16" class="edge"><title>Node16&#45;&gt;Node17</title>
<path fill="none" stroke="midnightblue" d="M497.73,-366.424C517.441,-368.481 538.631,-370.692 558.676,-372.784"/>
<polygon fill="midnightblue" stroke="midnightblue" points="497.88,-362.921 487.571,-365.364 497.153,-369.883 497.88,-362.921"/>
</g>
<!-- Node18 -->
<g id="node18" class="node"><title>Node18</title>
<g id="a_node18"><a xlink:href="../../df/d90/classppm__java_1_1typelib_1_1_v_audio_port___output___samples.html#acaf514520a989e47382fbf808afc71a6" target="_top" xlink:title="ppm_java.typelib.VAudioPort\l_Output_Samples._Visit">
<polygon fill="white" stroke="black" points="576.5,-318 576.5,-348 719.5,-348 719.5,-318 576.5,-318"/>
<text text-anchor="start" x="584.5" y="-336" font-family="Helvetica,sans-Serif" font-size="10.00">ppm_java.typelib.VAudioPort</text>
<text text-anchor="middle" x="648" y="-325" font-family="Helvetica,sans-Serif" font-size="10.00">_Output_Samples._Visit</text>
</a>
</g>
</g>
<!-- Node16&#45;&gt;Node18 -->
<g id="edge17" class="edge"><title>Node16&#45;&gt;Node18</title>
<path fill="none" stroke="midnightblue" d="M497.618,-349.237C523.214,-346.455 551.313,-343.401 576.167,-340.699"/>
<polygon fill="midnightblue" stroke="midnightblue" points="497.134,-345.769 487.571,-350.329 497.89,-352.728 497.134,-345.769"/>
</g>
<!-- Node19 -->
<g id="node19" class="node"><title>Node19</title>
<g id="a_node19"><a xlink:href="../../d8/db2/classppm__java_1_1typelib_1_1_v_audio_port___output___chunks___no_buffer.html#a4db9e465a6c131476381a203c7d34928" target="_top" xlink:title="ppm_java.typelib.VAudioPort\l_Output_Chunks_NoBuffer._Visit">
<polygon fill="white" stroke="black" points="567,-269 567,-299 729,-299 729,-269 567,-269"/>
<text text-anchor="start" x="575" y="-287" font-family="Helvetica,sans-Serif" font-size="10.00">ppm_java.typelib.VAudioPort</text>
<text text-anchor="middle" x="648" y="-276" font-family="Helvetica,sans-Serif" font-size="10.00">_Output_Chunks_NoBuffer._Visit</text>
</a>
</g>
</g>
<!-- Node16&#45;&gt;Node19 -->
<g id="edge18" class="edge"><title>Node16&#45;&gt;Node19</title>
<path fill="none" stroke="midnightblue" d="M497.002,-339.695C502.834,-337.659 508.558,-335.431 514,-333 531.557,-325.157 532.443,-316.843 550,-309 558.495,-305.205 567.676,-301.905 576.884,-299.057"/>
<polygon fill="midnightblue" stroke="midnightblue" points="495.524,-336.497 487.116,-342.943 497.708,-343.147 495.524,-336.497"/>
</g>
</g>
</svg>
        <g id="navigator" transform="translate(0 0)" fill="#404254">
                <rect fill="#f2f5e9" fill-opacity="0.5" stroke="#606060" stroke-width=".5" x="0" y="0" width="60" height="60"/>
                <use id="zoomplus" xlink:href="#zoomPlus" x="17" y="9" onmousedown="handleZoom(evt,'in')"/>
                <use id="zoomminus" xlink:href="#zoomMin" x="42" y="9" onmousedown="handleZoom(evt,'out')"/>
                <use id="reset" xlink:href="#resetDef" x="30" y="36" onmousedown="handleReset()"/>
                <g id="arrowUp" xlink:href="#dirArrow" transform="translate(30 24)" onmousedown="handlePan(0,-1)">
                  <use xlink:href="#rim" fill="#404040">
                        <set attributeName="fill" to="#808080" begin="arrowUp.mouseover" end="arrowUp.mouseout"/>
                  </use>
                  <path fill="none" stroke="white" stroke-width="1.5" d="M0,-3.0v7 M-2.5,-0.5L0,-3.0L2.5,-0.5"/>
                </g>
                <g id="arrowRight" xlink:href="#dirArrow" transform="rotate(90) translate(36 -43)" onmousedown="handlePan(1,0)">
                  <use xlink:href="#rim" fill="#404040">
                        <set attributeName="fill" to="#808080" begin="arrowRight.mouseover" end="arrowRight.mouseout"/>
                  </use>
                  <path fill="none" stroke="white" stroke-width="1.5" d="M0,-3.0v7 M-2.5,-0.5L0,-3.0L2.5,-0.5"/>
                </g>
                <g id="arrowDown" xlink:href="#dirArrow" transform="rotate(180) translate(-30 -48)" onmousedown="handlePan(0,1)">
                  <use xlink:href="#rim" fill="#404040">
                        <set attributeName="fill" to="#808080" begin="arrowDown.mouseover" end="arrowDown.mouseout"/>
                  </use>
                  <path fill="none" stroke="white" stroke-width="1.5" d="M0,-3.0v7 M-2.5,-0.5L0,-3.0L2.5,-0.5"/>
                </g>
                <g id="arrowLeft" xlink:href="#dirArrow" transform="rotate(270) translate(-36 17)" onmousedown="handlePan(-1,0)">
                  <use xlink:href="#rim" fill="#404040">
                        <set attributeName="fill" to="#808080" begin="arrowLeft.mouseover" end="arrowLeft.mouseout"/>
                  </use>
                  <path fill="none" stroke="white" stroke-width="1.5" d="M0,-3.0v7 M-2.5,-0.5L0,-3.0L2.5,-0.5"/>
                </g>
        </g>
        <svg viewBox="0 0 15 15" width="100%" height="30px" preserveAspectRatio="xMaxYMin meet">
         <g id="arrow_out" transform="scale(0.3 0.3)">
          <a xlink:href="classppm__java_1_1typelib_1_1_v_browseable_a04cbe3f0b5057d0eb582200dea602297_icgraph_org.svg" target="_base">
           <rect id="button" ry="5" rx="5" y="6" x="6" height="38" width="38"
                fill="#f2f5e9" fill-opacity="0.5" stroke="#606060" stroke-width="1.0"/>
           <path id="arrow"
             d="M 11.500037,31.436501 C 11.940474,20.09759 22.043105,11.32322 32.158766,21.979434 L 37.068811,17.246167 C 37.068811,17.246167 37.088388,32 37.088388,32 L 22.160133,31.978069 C 22.160133,31.978069 26.997745,27.140456 26.997745,27.140456 C 18.528582,18.264221 13.291696,25.230495 11.500037,31.436501 z"
             style="fill:#404040;"/>
          </a>
         </g>
        </svg>
</svg>
