<?xml version="1.0" encoding="UTF-8" standalone="no"?>
<!DOCTYPE svg PUBLIC "-//W3C//DTD SVG 1.1//EN"
 "http://www.w3.org/Graphics/SVG/1.1/DTD/svg11.dtd">
<!-- Generated by graphviz version 2.36.0 (20140111.2315)
 -->
<!-- Title: TGUINeedle_TimerClipping Pages: 1 -->
<!--zoomable 1094 -->
<svg id="main" version="1.1" xmlns="http://www.w3.org/2000/svg" xmlns:xlink="http://www.w3.org/1999/xlink" xml:space="preserve" onload="init(evt)">
<style type="text/css"><![CDATA[
.edge:hover path { stroke: red; }
.edge:hover polygon { stroke: red; fill: red; }
]]></style>
<script type="text/javascript"><![CDATA[
var edges = document.getElementsByTagName('g');
if (edges && edges.length) {
  for (var i=0;i<edges.length;i++) {
    if (edges[i].id.substr(0,4)=='edge') {
      edges[i].setAttribute('class','edge');
    }
  }
}
]]></script>
        <defs>
                <circle id="rim" cx="0" cy="0" r="7"/>
                <circle id="rim2" cx="0" cy="0" r="3.5"/>
                <g id="zoomPlus">
                        <use xlink:href="#rim" fill="#404040">
                                <set attributeName="fill" to="#808080" begin="zoomplus.mouseover" end="zoomplus.mouseout"/>
                        </use>
                        <path d="M-4,0h8M0,-4v8" fill="none" stroke="white" stroke-width="1.5" pointer-events="none"/>
                </g>
                <g id="zoomMin">
                        <use xlink:href="#rim" fill="#404040">
                                <set attributeName="fill" to="#808080" begin="zoomminus.mouseover" end="zoomminus.mouseout"/>
                        </use>
                        <path d="M-4,0h8" fill="none" stroke="white" stroke-width="1.5" pointer-events="none"/>
                </g>
                <g id="dirArrow">
                        <path fill="none" stroke="white" stroke-width="1.5" d="M0,-3.0v7 M-2.5,-0.5L0,-3.0L2.5,-0.5"/>
                </g>
               <g id="resetDef">
                       <use xlink:href="#rim2" fill="#404040">
                               <set attributeName="fill" to="#808080" begin="reset.mouseover" end="reset.mouseout"/>
                       </use>
               </g>
        </defs>

<script type="text/javascript">
var viewWidth = 734;
var viewHeight = 1094;
var sectionId = 'dynsection-1';
</script>
<script xlink:href="../../svgpan.js"/>
<svg id="graph" class="graph">
<g id="viewport">
<title>TGUINeedle_TimerClipping</title>
<polygon fill="white" stroke="none" points="-4,4 -4,-1090 730,-1090 730,4 -4,4"/>
<!-- Node1 -->
<g id="node1" class="node"><title>Node1</title>
<polygon fill="#bfbfbf" stroke="black" points="574,-638.5 574,-849.5 726,-849.5 726,-638.5 574,-638.5"/>
<text text-anchor="middle" x="650" y="-837.5" font-family="Helvetica,sans-Serif" font-size="10.00">TGUINeedle_TimerClipping</text>
<polyline fill="none" stroke="black" points="574,-830.5 726,-830.5 "/>
<text text-anchor="start" x="582" y="-818.5" font-family="Helvetica,sans-Serif" font-size="10.00">&#45; fChannel</text>
<text text-anchor="start" x="582" y="-807.5" font-family="Helvetica,sans-Serif" font-size="10.00">&#45; fState</text>
<text text-anchor="start" x="582" y="-796.5" font-family="Helvetica,sans-Serif" font-size="10.00">&#45; fTLast</text>
<text text-anchor="start" x="582" y="-785.5" font-family="Helvetica,sans-Serif" font-size="10.00">&#45; gkIntervalLoop</text>
<text text-anchor="start" x="582" y="-774.5" font-family="Helvetica,sans-Serif" font-size="10.00">&#45; gkIntervalWait</text>
<text text-anchor="start" x="582" y="-763.5" font-family="Helvetica,sans-Serif" font-size="10.00">&#45; gkStateClear</text>
<text text-anchor="start" x="582" y="-752.5" font-family="Helvetica,sans-Serif" font-size="10.00">&#45; gkStateErr</text>
<text text-anchor="start" x="582" y="-741.5" font-family="Helvetica,sans-Serif" font-size="10.00">&#45; gkStateTerm</text>
<text text-anchor="start" x="582" y="-730.5" font-family="Helvetica,sans-Serif" font-size="10.00">&#45; gkStateWarn</text>
<polyline fill="none" stroke="black" points="574,-723.5 726,-723.5 "/>
<text text-anchor="start" x="582" y="-711.5" font-family="Helvetica,sans-Serif" font-size="10.00">+ TGUINeedle_TimerClipping()</text>
<text text-anchor="start" x="582" y="-700.5" font-family="Helvetica,sans-Serif" font-size="10.00">+ run()</text>
<text text-anchor="start" x="582" y="-689.5" font-family="Helvetica,sans-Serif" font-size="10.00">+ SetClip()</text>
<text text-anchor="start" x="582" y="-678.5" font-family="Helvetica,sans-Serif" font-size="10.00">+ Terminate()</text>
<text text-anchor="start" x="582" y="-667.5" font-family="Helvetica,sans-Serif" font-size="10.00">&#45; _DoTransition()</text>
<text text-anchor="start" x="582" y="-656.5" font-family="Helvetica,sans-Serif" font-size="10.00">&#45; _SetLED()</text>
<text text-anchor="start" x="582" y="-645.5" font-family="Helvetica,sans-Serif" font-size="10.00">&#45; _TryReset()</text>
</g>
<!-- Node4 -->
<g id="node4" class="node"><title>Node4</title>
<g id="a_node4"><a xlink:href="../../de/d2b/classppm__java_1_1frontend_1_1gui_1_1needle_1_1_t_g_u_i_needle___wnd_p_p_m.html" target="_top" xlink:title="The PPM UI. ">
<polygon fill="white" stroke="black" points="533,-400.5 533,-567.5 667,-567.5 667,-400.5 533,-400.5"/>
<text text-anchor="middle" x="600" y="-555.5" font-family="Helvetica,sans-Serif" font-size="10.00">TGUINeedle_WndPPM</text>
<polyline fill="none" stroke="black" points="533,-548.5 667,-548.5 "/>
<text text-anchor="start" x="541" y="-536.5" font-family="Helvetica,sans-Serif" font-size="10.00">&#45; fMeterL</text>
<text text-anchor="start" x="541" y="-525.5" font-family="Helvetica,sans-Serif" font-size="10.00">&#45; fMeterR</text>
<text text-anchor="start" x="541" y="-514.5" font-family="Helvetica,sans-Serif" font-size="10.00">&#45; gkIChanL</text>
<text text-anchor="start" x="541" y="-503.5" font-family="Helvetica,sans-Serif" font-size="10.00">&#45; gkIChanR</text>
<text text-anchor="start" x="541" y="-492.5" font-family="Helvetica,sans-Serif" font-size="10.00">&#45; serialVersionUID</text>
<polyline fill="none" stroke="black" points="533,-485.5 667,-485.5 "/>
<text text-anchor="start" x="541" y="-473.5" font-family="Helvetica,sans-Serif" font-size="10.00">+ TGUINeedle_WndPPM()</text>
<text text-anchor="start" x="541" y="-462.5" font-family="Helvetica,sans-Serif" font-size="10.00">+ SetClipping()</text>
<text text-anchor="start" x="541" y="-451.5" font-family="Helvetica,sans-Serif" font-size="10.00">+ SetLevel()</text>
<text text-anchor="start" x="541" y="-440.5" font-family="Helvetica,sans-Serif" font-size="10.00">+ Terminate()</text>
<text text-anchor="start" x="541" y="-429.5" font-family="Helvetica,sans-Serif" font-size="10.00">~ _SetClipping()</text>
<text text-anchor="start" x="541" y="-418.5" font-family="Helvetica,sans-Serif" font-size="10.00">&#45; _OnWindowClosing()</text>
<text text-anchor="start" x="541" y="-407.5" font-family="Helvetica,sans-Serif" font-size="10.00">&#45; initComponents()</text>
</a>
</g>
</g>
<!-- Node1&#45;&gt;Node4 -->
<g id="edge5" class="edge"><title>Node1&#45;&gt;Node4</title>
<path fill="none" stroke="#404040" d="M610.199,-638.24C608.601,-632.118 607.18,-626.009 606,-620 603.472,-607.134 601.763,-593.451 600.634,-579.921"/>
<polygon fill="none" stroke="#404040" points="600.606,-579.536 596.19,-573.835 599.754,-567.566 604.17,-573.267 600.606,-579.536"/>
<text text-anchor="middle" x="626" y="-606" font-family="Helvetica,sans-Serif" font-size="10.00"> &#45;fTimerL</text>
<text text-anchor="middle" x="626" y="-595" font-family="Helvetica,sans-Serif" font-size="10.00">&#45;fTimerR</text>
</g>
<!-- Node2 -->
<g id="node2" class="node"><title>Node2</title>
<polygon fill="white" stroke="#bfbfbf" points="556.5,-904.5 556.5,-961.5 603.5,-961.5 603.5,-904.5 556.5,-904.5"/>
<text text-anchor="middle" x="580" y="-949.5" font-family="Helvetica,sans-Serif" font-size="10.00">Thread</text>
<polyline fill="none" stroke="#bfbfbf" points="556.5,-942.5 603.5,-942.5 "/>
<text text-anchor="middle" x="580" y="-930.5" font-family="Helvetica,sans-Serif" font-size="10.00"> </text>
<polyline fill="none" stroke="#bfbfbf" points="556.5,-923.5 603.5,-923.5 "/>
<text text-anchor="middle" x="580" y="-911.5" font-family="Helvetica,sans-Serif" font-size="10.00"> </text>
</g>
<!-- Node2&#45;&gt;Node1 -->
<g id="edge1" class="edge"><title>Node2&#45;&gt;Node1</title>
<path fill="none" stroke="midnightblue" d="M593.935,-894.774C598.896,-881.522 604.755,-865.868 610.784,-849.762"/>
<polygon fill="none" stroke="midnightblue" points="590.557,-893.815 590.329,-904.408 597.112,-896.269 590.557,-893.815"/>
</g>
<!-- Node3 -->
<g id="node3" class="node"><title>Node3</title>
<polygon fill="white" stroke="#bfbfbf" points="621.5,-904.5 621.5,-961.5 698.5,-961.5 698.5,-904.5 621.5,-904.5"/>
<text text-anchor="middle" x="660" y="-949.5" font-family="Helvetica,sans-Serif" font-size="10.00">AtomicInteger</text>
<polyline fill="none" stroke="#bfbfbf" points="621.5,-942.5 698.5,-942.5 "/>
<text text-anchor="middle" x="660" y="-930.5" font-family="Helvetica,sans-Serif" font-size="10.00"> </text>
<polyline fill="none" stroke="#bfbfbf" points="621.5,-923.5 698.5,-923.5 "/>
<text text-anchor="middle" x="660" y="-911.5" font-family="Helvetica,sans-Serif" font-size="10.00"> </text>
</g>
<!-- Node3&#45;&gt;Node1 -->
<g id="edge2" class="edge"><title>Node3&#45;&gt;Node1</title>
<path fill="none" stroke="#404040" d="M658.524,-904.408C657.888,-892.506 657.097,-877.707 656.254,-861.958"/>
<polygon fill="none" stroke="#404040" points="656.243,-861.745 651.928,-855.967 655.602,-849.762 659.917,-855.54 656.243,-861.745"/>
<text text-anchor="middle" x="680" y="-871.5" font-family="Helvetica,sans-Serif" font-size="10.00"> &#45;fRequest</text>
</g>
<!-- Node4&#45;&gt;Node1 -->
<g id="edge3" class="edge"><title>Node4&#45;&gt;Node1</title>
<path fill="none" stroke="#404040" d="M644.575,-567.658C646.723,-573.753 648.574,-579.904 650,-586 653.026,-598.932 654.9,-612.629 655.951,-626.331"/>
<polygon fill="none" stroke="#404040" points="655.953,-626.377 660.305,-632.127 656.671,-638.355 652.319,-632.605 655.953,-626.377"/>
<text text-anchor="middle" x="670.5" y="-600.5" font-family="Helvetica,sans-Serif" font-size="10.00"> &#45;fHost</text>
</g>
<!-- Node6 -->
<g id="node6" class="node"><title>Node6</title>
<g id="a_node6"><a xlink:href="../../d5/d13/classppm__java_1_1frontend_1_1gui_1_1needle_1_1_t_g_u_i_needle___surrogate.html" target="_top" xlink:title="The UI controller. ">
<polygon fill="white" stroke="black" points="412.5,-195 412.5,-351 543.5,-351 543.5,-195 412.5,-195"/>
<text text-anchor="middle" x="478" y="-339" font-family="Helvetica,sans-Serif" font-size="10.00">TGUINeedle_Surrogate</text>
<polyline fill="none" stroke="black" points="412.5,-332 543.5,-332 "/>
<text text-anchor="start" x="420.5" y="-320" font-family="Helvetica,sans-Serif" font-size="10.00">&#45; gkLvlClip</text>
<text text-anchor="start" x="420.5" y="-309" font-family="Helvetica,sans-Serif" font-size="10.00">&#45; gkLvlWarn</text>
<polyline fill="none" stroke="black" points="412.5,-302 543.5,-302 "/>
<text text-anchor="start" x="420.5" y="-290" font-family="Helvetica,sans-Serif" font-size="10.00">+ CreatePort_In()</text>
<text text-anchor="start" x="420.5" y="-279" font-family="Helvetica,sans-Serif" font-size="10.00">+ Start()</text>
<text text-anchor="start" x="420.5" y="-268" font-family="Helvetica,sans-Serif" font-size="10.00">+ StatsGet()</text>
<text text-anchor="start" x="420.5" y="-257" font-family="Helvetica,sans-Serif" font-size="10.00">+ Stop()</text>
<text text-anchor="start" x="420.5" y="-246" font-family="Helvetica,sans-Serif" font-size="10.00">+ CreateInstance()</text>
<text text-anchor="start" x="420.5" y="-235" font-family="Helvetica,sans-Serif" font-size="10.00">~ OnTerminate()</text>
<text text-anchor="start" x="420.5" y="-224" font-family="Helvetica,sans-Serif" font-size="10.00">~ SetLevel()</text>
<text text-anchor="start" x="420.5" y="-213" font-family="Helvetica,sans-Serif" font-size="10.00"># _Register()</text>
<text text-anchor="start" x="420.5" y="-202" font-family="Helvetica,sans-Serif" font-size="10.00">&#45; TGUINeedle_Surrogate()</text>
</a>
</g>
</g>
<!-- Node4&#45;&gt;Node6 -->
<g id="edge21" class="edge"><title>Node4&#45;&gt;Node6</title>
<path fill="none" stroke="#404040" d="M541.256,-400.451C537.336,-394.277 533.543,-388.084 530,-382 526.254,-375.568 522.54,-368.826 518.922,-361.985"/>
<polygon fill="none" stroke="#404040" points="518.846,-361.838 512.534,-358.352 513.324,-351.184 519.636,-354.671 518.846,-361.838"/>
<text text-anchor="middle" x="544" y="-373.5" font-family="Helvetica,sans-Serif" font-size="10.00"> &#45;fGUI</text>
</g>
<!-- Node5 -->
<g id="node5" class="node"><title>Node5</title>
<polygon fill="white" stroke="#bfbfbf" points="421,-715.5 421,-772.5 471,-772.5 471,-715.5 421,-715.5"/>
<text text-anchor="middle" x="446" y="-760.5" font-family="Helvetica,sans-Serif" font-size="10.00">JFrame</text>
<polyline fill="none" stroke="#bfbfbf" points="421,-753.5 471,-753.5 "/>
<text text-anchor="middle" x="446" y="-741.5" font-family="Helvetica,sans-Serif" font-size="10.00"> </text>
<polyline fill="none" stroke="#bfbfbf" points="421,-734.5 471,-734.5 "/>
<text text-anchor="middle" x="446" y="-722.5" font-family="Helvetica,sans-Serif" font-size="10.00"> </text>
</g>
<!-- Node5&#45;&gt;Node4 -->
<g id="edge4" class="edge"><title>Node5&#45;&gt;Node4</title>
<path fill="none" stroke="midnightblue" d="M455.38,-705.524C461.184,-685.035 469.53,-659.52 480,-638 493.735,-609.769 513.327,-581.857 532.708,-557.759"/>
<polygon fill="none" stroke="midnightblue" points="451.932,-704.865 452.659,-715.435 458.682,-706.719 451.932,-704.865"/>
</g>
<!-- Node6&#45;&gt;Node4 -->
<g id="edge6" class="edge"><title>Node6&#45;&gt;Node4</title>
<path fill="none" stroke="#404040" d="M543.549,-342.614C550.309,-351.458 556.648,-360.688 562,-370 565.502,-376.093 568.743,-382.557 571.731,-389.188"/>
<polygon fill="none" stroke="#404040" points="571.831,-389.422 577.858,-393.38 576.523,-400.466 570.495,-396.508 571.831,-389.422"/>
<text text-anchor="middle" x="595.5" y="-373.5" font-family="Helvetica,sans-Serif" font-size="10.00"> &#45;fConnector</text>
</g>
<!-- Node6&#45;&gt;Node6 -->
<g id="edge15" class="edge"><title>Node6&#45;&gt;Node6</title>
<path fill="none" stroke="#404040" d="M543.753,-290.527C554.008,-287.907 561,-282.064 561,-273 561,-267.76 558.663,-263.596 554.71,-260.51"/>
<polygon fill="none" stroke="#404040" points="554.656,-260.485 547.534,-261.613 543.753,-255.473 550.875,-254.345 554.656,-260.485"/>
<text text-anchor="middle" x="576" y="-270.5" font-family="Helvetica,sans-Serif" font-size="10.00"> &#45;gGUI</text>
</g>
<!-- Node15 -->
<g id="node15" class="node"><title>Node15</title>
<g id="a_node15"><a xlink:href="../../dc/d65/classppm__java_1_1frontend_1_1gui_1_1needle_1_1_t_g_u_i_needle___surrogate___stats.html" target="_top" xlink:title="Combined runtime statistics for all channels. ">
<polygon fill="white" stroke="black" points="284,-0.5 284,-145.5 412,-145.5 412,-0.5 284,-0.5"/>
<text text-anchor="start" x="292" y="-133.5" font-family="Helvetica,sans-Serif" font-size="10.00">TGUINeedle_Surrogate</text>
<text text-anchor="middle" x="348" y="-122.5" font-family="Helvetica,sans-Serif" font-size="10.00">_Stats</text>
<polyline fill="none" stroke="black" points="284,-115.5 412,-115.5 "/>
<text text-anchor="start" x="292" y="-103.5" font-family="Helvetica,sans-Serif" font-size="10.00">&#45; fT0</text>
<polyline fill="none" stroke="black" points="284,-96.5 412,-96.5 "/>
<text text-anchor="start" x="292" y="-84.5" font-family="Helvetica,sans-Serif" font-size="10.00">+ TGUINeedle_Surrogate</text>
<text text-anchor="start" x="292" y="-73.5" font-family="Helvetica,sans-Serif" font-size="10.00">_Stats()</text>
<text text-anchor="start" x="292" y="-62.5" font-family="Helvetica,sans-Serif" font-size="10.00">+ GetDumpStr()</text>
<text text-anchor="start" x="292" y="-51.5" font-family="Helvetica,sans-Serif" font-size="10.00">~ AddChannel()</text>
<text text-anchor="start" x="292" y="-40.5" font-family="Helvetica,sans-Serif" font-size="10.00">~ OnCycleTick()</text>
<text text-anchor="start" x="292" y="-29.5" font-family="Helvetica,sans-Serif" font-size="10.00">~ SetCalcSection()</text>
<text text-anchor="start" x="292" y="-18.5" font-family="Helvetica,sans-Serif" font-size="10.00">~ SetDBValue()</text>
<text text-anchor="start" x="292" y="-7.5" font-family="Helvetica,sans-Serif" font-size="10.00">~ SetDisplayValue()</text>
</a>
</g>
</g>
<!-- Node6&#45;&gt;Node15 -->
<g id="edge19" class="edge"><title>Node6&#45;&gt;Node15</title>
<path fill="none" stroke="#404040" d="M427.366,-194.881C418.984,-182.115 410.267,-168.838 401.81,-155.957"/>
<polygon fill="none" stroke="#404040" points="401.681,-155.761 395.045,-152.941 395.095,-145.73 401.732,-148.55 401.681,-155.761"/>
<text text-anchor="middle" x="428.5" y="-167.5" font-family="Helvetica,sans-Serif" font-size="10.00"> &#45;fHost</text>
</g>
<!-- Node7 -->
<g id="node7" class="node"><title>Node7</title>
<g id="a_node7"><a xlink:href="../../da/d04/classppm__java_1_1typelib_1_1_v_frontend.html" target="_top" xlink:title="Base class for a front end. ">
<polygon fill="white" stroke="black" points="234,-444.5 234,-523.5 334,-523.5 334,-444.5 234,-444.5"/>
<text text-anchor="middle" x="284" y="-511.5" font-family="Helvetica,sans-Serif" font-size="10.00">VFrontend</text>
<polyline fill="none" stroke="black" points="234,-504.5 334,-504.5 "/>
<text text-anchor="middle" x="284" y="-492.5" font-family="Helvetica,sans-Serif" font-size="10.00"> </text>
<polyline fill="none" stroke="black" points="234,-485.5 334,-485.5 "/>
<text text-anchor="start" x="242" y="-473.5" font-family="Helvetica,sans-Serif" font-size="10.00">+ VFrontend()</text>
<text text-anchor="start" x="242" y="-462.5" font-family="Helvetica,sans-Serif" font-size="10.00">+ CreatePort_Out()</text>
<text text-anchor="start" x="242" y="-451.5" font-family="Helvetica,sans-Serif" font-size="10.00"># _OnTerminate()</text>
</a>
</g>
</g>
<!-- Node7&#45;&gt;Node6 -->
<g id="edge7" class="edge"><title>Node7&#45;&gt;Node6</title>
<path fill="none" stroke="midnightblue" d="M314.922,-435.907C323.537,-423.822 333.226,-411.107 343,-400 363.779,-376.389 371.984,-373.436 395,-352 400.643,-346.744 406.494,-341.279 412.357,-335.791"/>
<polygon fill="none" stroke="midnightblue" points="312.02,-433.949 309.141,-444.145 317.75,-437.969 312.02,-433.949"/>
</g>
<!-- Node8 -->
<g id="node8" class="node"><title>Node8</title>
<g id="a_node8"><a xlink:href="../../d5/d6a/classppm__java_1_1typelib_1_1_v_audio_processor.html" target="_top" xlink:title="Base class for all modules processing audio samples. ">
<polygon fill="white" stroke="black" points="230.5,-660.5 230.5,-827.5 337.5,-827.5 337.5,-660.5 230.5,-660.5"/>
<text text-anchor="middle" x="284" y="-815.5" font-family="Helvetica,sans-Serif" font-size="10.00">VAudioProcessor</text>
<polyline fill="none" stroke="black" points="230.5,-808.5 337.5,-808.5 "/>
<text text-anchor="middle" x="284" y="-796.5" font-family="Helvetica,sans-Serif" font-size="10.00"> </text>
<polyline fill="none" stroke="black" points="230.5,-789.5 337.5,-789.5 "/>
<text text-anchor="start" x="238.5" y="-777.5" font-family="Helvetica,sans-Serif" font-size="10.00">+ VAudioProcessor()</text>
<text text-anchor="start" x="238.5" y="-766.5" font-family="Helvetica,sans-Serif" font-size="10.00">+ CreatePort_In()</text>
<text text-anchor="start" x="238.5" y="-755.5" font-family="Helvetica,sans-Serif" font-size="10.00">+ CreatePort_Out()</text>
<text text-anchor="start" x="238.5" y="-744.5" font-family="Helvetica,sans-Serif" font-size="10.00">+ GetNumPortsIn()</text>
<text text-anchor="start" x="238.5" y="-733.5" font-family="Helvetica,sans-Serif" font-size="10.00">+ GetNumPortsOut()</text>
<text text-anchor="start" x="238.5" y="-722.5" font-family="Helvetica,sans-Serif" font-size="10.00">+ GetPortIn()</text>
<text text-anchor="start" x="238.5" y="-711.5" font-family="Helvetica,sans-Serif" font-size="10.00">+ GetPortIn()</text>
<text text-anchor="start" x="238.5" y="-700.5" font-family="Helvetica,sans-Serif" font-size="10.00">+ GetPortOut()</text>
<text text-anchor="start" x="238.5" y="-689.5" font-family="Helvetica,sans-Serif" font-size="10.00">+ GetPortOut()</text>
<text text-anchor="start" x="238.5" y="-678.5" font-family="Helvetica,sans-Serif" font-size="10.00"># AddPortIn()</text>
<text text-anchor="start" x="238.5" y="-667.5" font-family="Helvetica,sans-Serif" font-size="10.00"># AddPortOut()</text>
</a>
</g>
</g>
<!-- Node8&#45;&gt;Node7 -->
<g id="edge8" class="edge"><title>Node8&#45;&gt;Node7</title>
<path fill="none" stroke="midnightblue" d="M284,-650.235C284,-606.638 284,-557.032 284,-523.645"/>
<polygon fill="none" stroke="midnightblue" points="280.5,-650.303 284,-660.303 287.5,-650.303 280.5,-650.303"/>
</g>
<!-- Node9 -->
<g id="node9" class="node"><title>Node9</title>
<g id="a_node9"><a xlink:href="../../d1/db3/classppm__java_1_1typelib_1_1_v_audio_object.html" target="_top" xlink:title="Base class for all browseable audio objects. ">
<polygon fill="white" stroke="black" points="99,-904.5 99,-961.5 191,-961.5 191,-904.5 99,-904.5"/>
<text text-anchor="middle" x="145" y="-949.5" font-family="Helvetica,sans-Serif" font-size="10.00">VAudioObject</text>
<polyline fill="none" stroke="black" points="99,-942.5 191,-942.5 "/>
<text text-anchor="middle" x="145" y="-930.5" font-family="Helvetica,sans-Serif" font-size="10.00"> </text>
<polyline fill="none" stroke="black" points="99,-923.5 191,-923.5 "/>
<text text-anchor="start" x="107" y="-911.5" font-family="Helvetica,sans-Serif" font-size="10.00">+ VAudioObject()</text>
</a>
</g>
</g>
<!-- Node9&#45;&gt;Node8 -->
<g id="edge9" class="edge"><title>Node9&#45;&gt;Node8</title>
<path fill="none" stroke="midnightblue" d="M171.604,-896.209C188.23,-873.842 210.235,-844.238 230.365,-817.157"/>
<polygon fill="none" stroke="midnightblue" points="168.667,-894.294 165.51,-904.408 174.285,-898.47 168.667,-894.294"/>
</g>
<!-- Node10 -->
<g id="node10" class="node"><title>Node10</title>
<g id="a_node10"><a xlink:href="../../de/dd1/classppm__java_1_1typelib_1_1_v_browseable.html" target="_top" xlink:title="Base class for all browseable objects. ">
<polygon fill="white" stroke="black" points="100.5,-1006.5 100.5,-1085.5 189.5,-1085.5 189.5,-1006.5 100.5,-1006.5"/>
<text text-anchor="middle" x="145" y="-1073.5" font-family="Helvetica,sans-Serif" font-size="10.00">VBrowseable</text>
<polyline fill="none" stroke="black" points="100.5,-1066.5 189.5,-1066.5 "/>
<text text-anchor="start" x="108.5" y="-1054.5" font-family="Helvetica,sans-Serif" font-size="10.00">&#45; fID</text>
<polyline fill="none" stroke="black" points="100.5,-1047.5 189.5,-1047.5 "/>
<text text-anchor="start" x="108.5" y="-1035.5" font-family="Helvetica,sans-Serif" font-size="10.00">+ VBrowseable()</text>
<text text-anchor="start" x="108.5" y="-1024.5" font-family="Helvetica,sans-Serif" font-size="10.00">+ GetID()</text>
<text text-anchor="start" x="108.5" y="-1013.5" font-family="Helvetica,sans-Serif" font-size="10.00"># _Register()</text>
</a>
</g>
</g>
<!-- Node10&#45;&gt;Node9 -->
<g id="edge10" class="edge"><title>Node10&#45;&gt;Node9</title>
<path fill="none" stroke="midnightblue" d="M145,-996.227C145,-984.364 145,-972.085 145,-961.601"/>
<polygon fill="none" stroke="midnightblue" points="141.5,-996.489 145,-1006.49 148.5,-996.489 141.5,-996.489"/>
</g>
<!-- Node11 -->
<g id="node11" class="node"><title>Node11</title>
<polygon fill="white" stroke="#bfbfbf" points="209,-899 209,-967 359,-967 359,-899 209,-899"/>
<text text-anchor="start" x="217" y="-955" font-family="Helvetica,sans-Serif" font-size="10.00">TArrayMap&lt; ppm_java.typelib.</text>
<text text-anchor="middle" x="284" y="-944" font-family="Helvetica,sans-Serif" font-size="10.00">VAudioPort_Output &gt;</text>
<polyline fill="none" stroke="#bfbfbf" points="209,-937 359,-937 "/>
<text text-anchor="middle" x="284" y="-925" font-family="Helvetica,sans-Serif" font-size="10.00"> </text>
<polyline fill="none" stroke="#bfbfbf" points="209,-918 359,-918 "/>
<text text-anchor="middle" x="284" y="-906" font-family="Helvetica,sans-Serif" font-size="10.00"> </text>
</g>
<!-- Node11&#45;&gt;Node8 -->
<g id="edge11" class="edge"><title>Node11&#45;&gt;Node8</title>
<path fill="none" stroke="#404040" d="M284,-898.999C284,-882.355 284,-861.231 284,-840.002"/>
<polygon fill="none" stroke="#404040" points="284,-839.877 280,-833.877 284,-827.877 288,-833.877 284,-839.877"/>
<text text-anchor="middle" x="308.5" y="-871.5" font-family="Helvetica,sans-Serif" font-size="10.00"> &#45;fPortsOut</text>
</g>
<!-- Node12 -->
<g id="node12" class="node"><title>Node12</title>
<polygon fill="white" stroke="#bfbfbf" points="377,-899 377,-967 527,-967 527,-899 377,-899"/>
<text text-anchor="start" x="385" y="-955" font-family="Helvetica,sans-Serif" font-size="10.00">TArrayMap&lt; ppm_java.typelib.</text>
<text text-anchor="middle" x="452" y="-944" font-family="Helvetica,sans-Serif" font-size="10.00">VAudioPort_Input &gt;</text>
<polyline fill="none" stroke="#bfbfbf" points="377,-937 527,-937 "/>
<text text-anchor="middle" x="452" y="-925" font-family="Helvetica,sans-Serif" font-size="10.00"> </text>
<polyline fill="none" stroke="#bfbfbf" points="377,-918 527,-918 "/>
<text text-anchor="middle" x="452" y="-906" font-family="Helvetica,sans-Serif" font-size="10.00"> </text>
</g>
<!-- Node12&#45;&gt;Node8 -->
<g id="edge12" class="edge"><title>Node12&#45;&gt;Node8</title>
<path fill="none" stroke="#404040" d="M422.352,-898.999C401.272,-875.535 372.189,-843.163 346.126,-814.152"/>
<polygon fill="none" stroke="#404040" points="345.804,-813.794 338.819,-812.004 337.784,-804.867 344.77,-806.657 345.804,-813.794"/>
<text text-anchor="middle" x="423.5" y="-871.5" font-family="Helvetica,sans-Serif" font-size="10.00"> &#45;fPortsIn</text>
</g>
<!-- Node13 -->
<g id="node13" class="node"><title>Node13</title>
<g id="a_node13"><a xlink:href="../../db/d44/interfaceppm__java_1_1typelib_1_1_i_controllable.html" target="_top" xlink:title="A module or construct which can receive some low level control commands (start/stop etc...">
<polygon fill="white" stroke="black" points="352.5,-450 352.5,-518 423.5,-518 423.5,-450 352.5,-450"/>
<text text-anchor="middle" x="388" y="-506" font-family="Helvetica,sans-Serif" font-size="10.00">IControllable</text>
<polyline fill="none" stroke="black" points="352.5,-499 423.5,-499 "/>
<text text-anchor="middle" x="388" y="-487" font-family="Helvetica,sans-Serif" font-size="10.00"> </text>
<polyline fill="none" stroke="black" points="352.5,-480 423.5,-480 "/>
<text text-anchor="start" x="360.5" y="-468" font-family="Helvetica,sans-Serif" font-size="10.00">+ Start()</text>
<text text-anchor="start" x="360.5" y="-457" font-family="Helvetica,sans-Serif" font-size="10.00">+ Stop()</text>
</a>
</g>
</g>
<!-- Node13&#45;&gt;Node6 -->
<g id="edge13" class="edge"><title>Node13&#45;&gt;Node6</title>
<path fill="none" stroke="midnightblue" d="M406.319,-440.459C417.363,-414.813 431.763,-381.374 444.756,-351.2"/>
<polygon fill="none" stroke="midnightblue" points="403.001,-439.314 402.261,-449.883 409.431,-442.083 403.001,-439.314"/>
</g>
<!-- Node14 -->
<g id="node14" class="node"><title>Node14</title>
<g id="a_node14"><a xlink:href="../../dc/dc0/interfaceppm__java_1_1typelib_1_1_i_stat_enabled.html" target="_top" xlink:title="Interface for an object that supports runtime statistics. ">
<polygon fill="white" stroke="black" points="441.5,-455.5 441.5,-512.5 514.5,-512.5 514.5,-455.5 441.5,-455.5"/>
<text text-anchor="middle" x="478" y="-500.5" font-family="Helvetica,sans-Serif" font-size="10.00">IStatEnabled</text>
<polyline fill="none" stroke="black" points="441.5,-493.5 514.5,-493.5 "/>
<text text-anchor="middle" x="478" y="-481.5" font-family="Helvetica,sans-Serif" font-size="10.00"> </text>
<polyline fill="none" stroke="black" points="441.5,-474.5 514.5,-474.5 "/>
<text text-anchor="start" x="449.5" y="-462.5" font-family="Helvetica,sans-Serif" font-size="10.00">+ StatsGet()</text>
</a>
</g>
</g>
<!-- Node14&#45;&gt;Node6 -->
<g id="edge14" class="edge"><title>Node14&#45;&gt;Node6</title>
<path fill="none" stroke="midnightblue" d="M478,-444.993C478,-418.787 478,-383.038 478,-351.002"/>
<polygon fill="none" stroke="midnightblue" points="474.5,-445.246 478,-455.246 481.5,-445.246 474.5,-445.246"/>
</g>
<!-- Node15&#45;&gt;Node6 -->
<g id="edge16" class="edge"><title>Node15&#45;&gt;Node6</title>
<path fill="none" stroke="#404040" d="M412.145,-112.646C430.297,-126.626 448.282,-143.979 460,-164 463.537,-170.043 466.428,-176.583 468.787,-183.352"/>
<polygon fill="none" stroke="#404040" points="468.809,-183.424 474.371,-188.013 472.274,-194.912 466.712,-190.323 468.809,-183.424"/>
<text text-anchor="middle" x="479" y="-167.5" font-family="Helvetica,sans-Serif" font-size="10.00"> &#45;fStat</text>
</g>
<!-- Node16 -->
<g id="node16" class="node"><title>Node16</title>
<g id="a_node16"><a xlink:href="../../d7/d5a/interfaceppm__java_1_1typelib_1_1_i_stats.html" target="_top" xlink:title="Interface for a statistics record. ">
<polygon fill="white" stroke="black" points="0,-244.5 0,-301.5 86,-301.5 86,-244.5 0,-244.5"/>
<text text-anchor="middle" x="43" y="-289.5" font-family="Helvetica,sans-Serif" font-size="10.00">IStats</text>
<polyline fill="none" stroke="black" points="0,-282.5 86,-282.5 "/>
<text text-anchor="middle" x="43" y="-270.5" font-family="Helvetica,sans-Serif" font-size="10.00"> </text>
<polyline fill="none" stroke="black" points="0,-263.5 86,-263.5 "/>
<text text-anchor="start" x="8" y="-251.5" font-family="Helvetica,sans-Serif" font-size="10.00">+ GetDumpStr()</text>
</a>
</g>
</g>
<!-- Node16&#45;&gt;Node15 -->
<g id="edge17" class="edge"><title>Node16&#45;&gt;Node15</title>
<path fill="none" stroke="midnightblue" d="M61.5949,-235.652C70.2686,-221.314 81.6432,-205.547 95,-194 150.717,-145.834 229.094,-112.65 283.798,-93.5846"/>
<polygon fill="none" stroke="midnightblue" points="58.5428,-233.938 56.5497,-244.344 64.5969,-237.452 58.5428,-233.938"/>
</g>
<!-- Node17 -->
<g id="node17" class="node"><title>Node17</title>
<polygon fill="white" stroke="#bfbfbf" points="104.5,-239 104.5,-307 299.5,-307 299.5,-239 104.5,-239"/>
<text text-anchor="start" x="112.5" y="-295" font-family="Helvetica,sans-Serif" font-size="10.00">ArrayList&lt; ppm_java.frontend.gui.needle.</text>
<text text-anchor="middle" x="202" y="-284" font-family="Helvetica,sans-Serif" font-size="10.00">TGUINeedle_Surrogate_Stats_Record &gt;</text>
<polyline fill="none" stroke="#bfbfbf" points="104.5,-277 299.5,-277 "/>
<text text-anchor="middle" x="202" y="-265" font-family="Helvetica,sans-Serif" font-size="10.00"> </text>
<polyline fill="none" stroke="#bfbfbf" points="104.5,-258 299.5,-258 "/>
<text text-anchor="middle" x="202" y="-246" font-family="Helvetica,sans-Serif" font-size="10.00"> </text>
</g>
<!-- Node17&#45;&gt;Node15 -->
<g id="edge18" class="edge"><title>Node17&#45;&gt;Node15</title>
<path fill="none" stroke="#404040" d="M223.724,-238.948C238.152,-217.339 257.731,-188.653 276,-164 278.066,-161.212 280.183,-158.388 282.334,-155.547"/>
<polygon fill="none" stroke="#404040" points="282.465,-155.376 282.932,-148.18 289.755,-145.844 289.287,-153.04 282.465,-155.376"/>
<text text-anchor="middle" x="310.5" y="-167.5" font-family="Helvetica,sans-Serif" font-size="10.00"> &#45;fStatChannels</text>
</g>
<!-- Node18 -->
<g id="node18" class="node"><title>Node18</title>
<polygon fill="white" stroke="#bfbfbf" points="318,-244.5 318,-301.5 386,-301.5 386,-244.5 318,-244.5"/>
<text text-anchor="middle" x="352" y="-289.5" font-family="Helvetica,sans-Serif" font-size="10.00">AtomicLong</text>
<polyline fill="none" stroke="#bfbfbf" points="318,-282.5 386,-282.5 "/>
<text text-anchor="middle" x="352" y="-270.5" font-family="Helvetica,sans-Serif" font-size="10.00"> </text>
<polyline fill="none" stroke="#bfbfbf" points="318,-263.5 386,-263.5 "/>
<text text-anchor="middle" x="352" y="-251.5" font-family="Helvetica,sans-Serif" font-size="10.00"> </text>
</g>
<!-- Node18&#45;&gt;Node15 -->
<g id="edge20" class="edge"><title>Node18&#45;&gt;Node15</title>
<path fill="none" stroke="#404040" d="M350.976,-244.278C350.307,-225.105 349.472,-199.006 349,-176 348.88,-170.165 348.775,-164.143 348.682,-158.077"/>
<polygon fill="none" stroke="#404040" points="348.675,-157.612 344.592,-151.669 348.508,-145.613 352.591,-151.557 348.675,-157.612"/>
<text text-anchor="middle" x="377.5" y="-167.5" font-family="Helvetica,sans-Serif" font-size="10.00"> &#45;fTimeCycle</text>
</g>
<!-- Node19 -->
<g id="node19" class="node"><title>Node19</title>
<polygon fill="white" stroke="#bfbfbf" points="489,-715.5 489,-772.5 545,-772.5 545,-715.5 489,-715.5"/>
<text text-anchor="middle" x="517" y="-760.5" font-family="Helvetica,sans-Serif" font-size="10.00">LedColor</text>
<polyline fill="none" stroke="#bfbfbf" points="489,-753.5 545,-753.5 "/>
<text text-anchor="middle" x="517" y="-741.5" font-family="Helvetica,sans-Serif" font-size="10.00"> </text>
<polyline fill="none" stroke="#bfbfbf" points="489,-734.5 545,-734.5 "/>
<text text-anchor="middle" x="517" y="-722.5" font-family="Helvetica,sans-Serif" font-size="10.00"> </text>
</g>
<!-- Node19&#45;&gt;Node4 -->
<g id="edge22" class="edge"><title>Node19&#45;&gt;Node4</title>
<path fill="none" stroke="#404040" d="M514.508,-715.415C512.601,-683.318 512.491,-629.205 528,-586 528.867,-583.585 529.809,-581.177 530.817,-578.778"/>
<polygon fill="none" stroke="#404040" points="530.931,-578.534 529.832,-571.407 535.988,-567.651 537.087,-574.778 530.931,-578.534"/>
<text text-anchor="middle" x="562.5" y="-611.5" font-family="Helvetica,sans-Serif" font-size="10.00"> &#45;gkColorClip</text>
<text text-anchor="middle" x="562.5" y="-600.5" font-family="Helvetica,sans-Serif" font-size="10.00">&#45;gkColorWarn</text>
<text text-anchor="middle" x="562.5" y="-589.5" font-family="Helvetica,sans-Serif" font-size="10.00">&#45;gkColorNormal</text>
</g>
</g>
</svg>
        <g id="navigator" transform="translate(0 0)" fill="#404254">
                <rect fill="#f2f5e9" fill-opacity="0.5" stroke="#606060" stroke-width=".5" x="0" y="0" width="60" height="60"/>
                <use id="zoomplus" xlink:href="#zoomPlus" x="17" y="9" onmousedown="handleZoom(evt,'in')"/>
                <use id="zoomminus" xlink:href="#zoomMin" x="42" y="9" onmousedown="handleZoom(evt,'out')"/>
                <use id="reset" xlink:href="#resetDef" x="30" y="36" onmousedown="handleReset()"/>
                <g id="arrowUp" xlink:href="#dirArrow" transform="translate(30 24)" onmousedown="handlePan(0,-1)">
                  <use xlink:href="#rim" fill="#404040">
                        <set attributeName="fill" to="#808080" begin="arrowUp.mouseover" end="arrowUp.mouseout"/>
                  </use>
                  <path fill="none" stroke="white" stroke-width="1.5" d="M0,-3.0v7 M-2.5,-0.5L0,-3.0L2.5,-0.5"/>
                </g>
                <g id="arrowRight" xlink:href="#dirArrow" transform="rotate(90) translate(36 -43)" onmousedown="handlePan(1,0)">
                  <use xlink:href="#rim" fill="#404040">
                        <set attributeName="fill" to="#808080" begin="arrowRight.mouseover" end="arrowRight.mouseout"/>
                  </use>
                  <path fill="none" stroke="white" stroke-width="1.5" d="M0,-3.0v7 M-2.5,-0.5L0,-3.0L2.5,-0.5"/>
                </g>
                <g id="arrowDown" xlink:href="#dirArrow" transform="rotate(180) translate(-30 -48)" onmousedown="handlePan(0,1)">
                  <use xlink:href="#rim" fill="#404040">
                        <set attributeName="fill" to="#808080" begin="arrowDown.mouseover" end="arrowDown.mouseout"/>
                  </use>
                  <path fill="none" stroke="white" stroke-width="1.5" d="M0,-3.0v7 M-2.5,-0.5L0,-3.0L2.5,-0.5"/>
                </g>
                <g id="arrowLeft" xlink:href="#dirArrow" transform="rotate(270) translate(-36 17)" onmousedown="handlePan(-1,0)">
                  <use xlink:href="#rim" fill="#404040">
                        <set attributeName="fill" to="#808080" begin="arrowLeft.mouseover" end="arrowLeft.mouseout"/>
                  </use>
                  <path fill="none" stroke="white" stroke-width="1.5" d="M0,-3.0v7 M-2.5,-0.5L0,-3.0L2.5,-0.5"/>
                </g>
        </g>
        <svg viewBox="0 0 15 15" width="100%" height="30px" preserveAspectRatio="xMaxYMin meet">
         <g id="arrow_out" transform="scale(0.3 0.3)">
          <a xlink:href="classppm__java_1_1frontend_1_1gui_1_1needle_1_1_t_g_u_i_needle___timer_clipping__coll__graph_org.svg" target="_base">
           <rect id="button" ry="5" rx="5" y="6" x="6" height="38" width="38"
                fill="#f2f5e9" fill-opacity="0.5" stroke="#606060" stroke-width="1.0"/>
           <path id="arrow"
             d="M 11.500037,31.436501 C 11.940474,20.09759 22.043105,11.32322 32.158766,21.979434 L 37.068811,17.246167 C 37.068811,17.246167 37.088388,32 37.088388,32 L 22.160133,31.978069 C 22.160133,31.978069 26.997745,27.140456 26.997745,27.140456 C 18.528582,18.264221 13.291696,25.230495 11.500037,31.436501 z"
             style="fill:#404040;"/>
          </a>
         </g>
        </svg>
</svg>
