<?xml version="1.0" encoding="UTF-8" standalone="no"?>
<!DOCTYPE svg PUBLIC "-//W3C//DTD SVG 1.1//EN"
 "http://www.w3.org/Graphics/SVG/1.1/DTD/svg11.dtd">
<!-- Generated by graphviz version 2.36.0 (20140111.2315)
 -->
<!-- Title: TBrokerSubscriptionList Pages: 1 -->
<svg width="290pt" height="238pt"
 viewBox="0.00 0.00 290.00 238.00" xmlns="http://www.w3.org/2000/svg" xmlns:xlink="http://www.w3.org/1999/xlink">
<g id="graph0" class="graph" transform="scale(1 1) rotate(0) translate(4 234)">
<title>TBrokerSubscriptionList</title>
<polygon fill="white" stroke="none" points="-4,4 -4,-234 286,-234 286,4 -4,4"/>
<!-- Node1 -->
<g id="node1" class="node"><title>Node1</title>
<polygon fill="#bfbfbf" stroke="black" points="51,-0.5 51,-101.5 187,-101.5 187,-0.5 51,-0.5"/>
<text text-anchor="middle" x="119" y="-89.5" font-family="Helvetica,sans-Serif" font-size="10.00">TBrokerSubscriptionList</text>
<polyline fill="none" stroke="black" points="51,-82.5 187,-82.5 "/>
<text text-anchor="middle" x="119" y="-70.5" font-family="Helvetica,sans-Serif" font-size="10.00"> </text>
<polyline fill="none" stroke="black" points="51,-63.5 187,-63.5 "/>
<text text-anchor="start" x="59" y="-51.5" font-family="Helvetica,sans-Serif" font-size="10.00">+ TBrokerSubscriptionList()</text>
<text text-anchor="start" x="59" y="-40.5" font-family="Helvetica,sans-Serif" font-size="10.00">+ Add()</text>
<text text-anchor="start" x="59" y="-29.5" font-family="Helvetica,sans-Serif" font-size="10.00">+ Get()</text>
<text text-anchor="start" x="59" y="-18.5" font-family="Helvetica,sans-Serif" font-size="10.00">+ GetNumElements()</text>
<text text-anchor="start" x="59" y="-7.5" font-family="Helvetica,sans-Serif" font-size="10.00">+ GetSubscribed()</text>
</g>
<!-- Node2 -->
<g id="node2" class="node"><title>Node2</title>
<g id="a_node2"><a xlink:href="../../de/dd1/classppm__java_1_1typelib_1_1_v_browseable.html" target="_top" xlink:title="Base class for all browseable objects. ">
<polygon fill="white" stroke="black" points="-0.5,-150.5 -0.5,-229.5 88.5,-229.5 88.5,-150.5 -0.5,-150.5"/>
<text text-anchor="middle" x="44" y="-217.5" font-family="Helvetica,sans-Serif" font-size="10.00">VBrowseable</text>
<polyline fill="none" stroke="black" points="-0.5,-210.5 88.5,-210.5 "/>
<text text-anchor="start" x="7.5" y="-198.5" font-family="Helvetica,sans-Serif" font-size="10.00">&#45; fID</text>
<polyline fill="none" stroke="black" points="-0.5,-191.5 88.5,-191.5 "/>
<text text-anchor="start" x="7.5" y="-179.5" font-family="Helvetica,sans-Serif" font-size="10.00">+ VBrowseable()</text>
<text text-anchor="start" x="7.5" y="-168.5" font-family="Helvetica,sans-Serif" font-size="10.00">+ GetID()</text>
<text text-anchor="start" x="7.5" y="-157.5" font-family="Helvetica,sans-Serif" font-size="10.00"># _Register()</text>
</a>
</g>
</g>
<!-- Node2&#45;&gt;Node1 -->
<g id="edge1" class="edge"><title>Node2&#45;&gt;Node1</title>
<path fill="none" stroke="#404040" d="M65.0913,-150.473C71.5902,-138.602 78.9082,-125.234 86.0076,-112.266"/>
<polygon fill="none" stroke="#404040" points="86.1344,-112.034 85.5069,-104.851 91.8968,-101.509 92.5242,-108.692 86.1344,-112.034"/>
<text text-anchor="middle" x="111" y="-123.5" font-family="Helvetica,sans-Serif" font-size="10.00"> &#45;fSubscribed</text>
</g>
<!-- Node3 -->
<g id="node3" class="node"><title>Node3</title>
<polygon fill="white" stroke="#bfbfbf" points="106,-156 106,-224 282,-224 282,-156 106,-156"/>
<text text-anchor="start" x="114" y="-212" font-family="Helvetica,sans-Serif" font-size="10.00">ArrayList&lt; ppm_java.backend.event.</text>
<text text-anchor="middle" x="194" y="-201" font-family="Helvetica,sans-Serif" font-size="10.00">TBrokerSubscription &gt;</text>
<polyline fill="none" stroke="#bfbfbf" points="106,-194 282,-194 "/>
<text text-anchor="middle" x="194" y="-182" font-family="Helvetica,sans-Serif" font-size="10.00"> </text>
<polyline fill="none" stroke="#bfbfbf" points="106,-175 282,-175 "/>
<text text-anchor="middle" x="194" y="-163" font-family="Helvetica,sans-Serif" font-size="10.00"> </text>
</g>
<!-- Node3&#45;&gt;Node1 -->
<g id="edge2" class="edge"><title>Node3&#45;&gt;Node1</title>
<path fill="none" stroke="#404040" d="M175.845,-155.836C168.693,-142.773 160.249,-127.348 152.088,-112.44"/>
<polygon fill="none" stroke="#404040" points="151.98,-112.243 145.59,-108.901 146.218,-101.717 152.607,-105.06 151.98,-112.243"/>
<text text-anchor="middle" x="185" y="-123.5" font-family="Helvetica,sans-Serif" font-size="10.00"> &#45;fMembers</text>
</g>
</g>
</svg>
