<?xml version="1.0" encoding="UTF-8" standalone="no"?>
<!DOCTYPE svg PUBLIC "-//W3C//DTD SVG 1.1//EN"
 "http://www.w3.org/Graphics/SVG/1.1/DTD/svg11.dtd">
<!-- Generated by graphviz version 2.36.0 (20140111.2315)
 -->
<!-- Title: TAudioContext_JackD Pages: 1 -->
<svg width="417pt" height="774pt"
 viewBox="0.00 0.00 417.00 774.00" xmlns="http://www.w3.org/2000/svg" xmlns:xlink="http://www.w3.org/1999/xlink">
<g id="graph0" class="graph" transform="scale(1 1) rotate(0) translate(4 770)">
<title>TAudioContext_JackD</title>
<polygon fill="white" stroke="none" points="-4,4 -4,-770 413,-770 413,4 -4,4"/>
<!-- Node1 -->
<g id="node1" class="node"><title>Node1</title>
<polygon fill="#bfbfbf" stroke="black" points="164,-0.5 164,-233.5 292,-233.5 292,-0.5 164,-0.5"/>
<text text-anchor="middle" x="228" y="-221.5" font-family="Helvetica,sans-Serif" font-size="10.00">TAudioContext_JackD</text>
<polyline fill="none" stroke="black" points="164,-214.5 292,-214.5 "/>
<text text-anchor="start" x="172" y="-202.5" font-family="Helvetica,sans-Serif" font-size="10.00">&#45; fIsWorking</text>
<text text-anchor="start" x="172" y="-191.5" font-family="Helvetica,sans-Serif" font-size="10.00">&#45; fSampleRate</text>
<text text-anchor="start" x="172" y="-180.5" font-family="Helvetica,sans-Serif" font-size="10.00">&#45; fStats</text>
<text text-anchor="start" x="172" y="-169.5" font-family="Helvetica,sans-Serif" font-size="10.00">&#45; gContext</text>
<polyline fill="none" stroke="black" points="164,-162.5 292,-162.5 "/>
<text text-anchor="start" x="172" y="-150.5" font-family="Helvetica,sans-Serif" font-size="10.00">+ CreatePort_Out()</text>
<text text-anchor="start" x="172" y="-139.5" font-family="Helvetica,sans-Serif" font-size="10.00">+ GetSampleRate()</text>
<text text-anchor="start" x="172" y="-128.5" font-family="Helvetica,sans-Serif" font-size="10.00">+ IsWorking()</text>
<text text-anchor="start" x="172" y="-117.5" font-family="Helvetica,sans-Serif" font-size="10.00">+ process()</text>
<text text-anchor="start" x="172" y="-106.5" font-family="Helvetica,sans-Serif" font-size="10.00">+ Start()</text>
<text text-anchor="start" x="172" y="-95.5" font-family="Helvetica,sans-Serif" font-size="10.00">+ StatsGet()</text>
<text text-anchor="start" x="172" y="-84.5" font-family="Helvetica,sans-Serif" font-size="10.00">+ Stop()</text>
<text text-anchor="start" x="172" y="-73.5" font-family="Helvetica,sans-Serif" font-size="10.00">+ CreateInstance()</text>
<text text-anchor="start" x="172" y="-62.5" font-family="Helvetica,sans-Serif" font-size="10.00"># _Register()</text>
<text text-anchor="start" x="172" y="-51.5" font-family="Helvetica,sans-Serif" font-size="10.00">&#45; TAudioContext_JackD()</text>
<text text-anchor="start" x="172" y="-40.5" font-family="Helvetica,sans-Serif" font-size="10.00">&#45; _LoadDriver()</text>
<text text-anchor="start" x="172" y="-29.5" font-family="Helvetica,sans-Serif" font-size="10.00">&#45; _ProcessInputs()</text>
<text text-anchor="start" x="172" y="-18.5" font-family="Helvetica,sans-Serif" font-size="10.00">&#45; _ProcessOutputs()</text>
<text text-anchor="start" x="172" y="-7.5" font-family="Helvetica,sans-Serif" font-size="10.00">&#45; _StopDriver()</text>
</g>
<!-- Node2 -->
<g id="node2" class="node"><title>Node2</title>
<g id="a_node2"><a xlink:href="../../dc/d95/classppm__java_1_1typelib_1_1_v_audio_driver.html" target="_top" xlink:title="Base class for all audio drivers. ">
<polygon fill="white" stroke="black" points="7,-271 7,-339 99,-339 99,-271 7,-271"/>
<text text-anchor="middle" x="53" y="-327" font-family="Helvetica,sans-Serif" font-size="10.00">VAudioDriver</text>
<polyline fill="none" stroke="black" points="7,-320 99,-320 "/>
<text text-anchor="middle" x="53" y="-308" font-family="Helvetica,sans-Serif" font-size="10.00"> </text>
<polyline fill="none" stroke="black" points="7,-301 99,-301 "/>
<text text-anchor="start" x="15" y="-289" font-family="Helvetica,sans-Serif" font-size="10.00">+ VAudioDriver()</text>
<text text-anchor="start" x="15" y="-278" font-family="Helvetica,sans-Serif" font-size="10.00">+ CreatePort_In()</text>
</a>
</g>
</g>
<!-- Node2&#45;&gt;Node1 -->
<g id="edge1" class="edge"><title>Node2&#45;&gt;Node1</title>
<path fill="none" stroke="midnightblue" d="M91.2393,-263.357C112.422,-240.843 139.319,-212.255 163.644,-186.401"/>
<polygon fill="none" stroke="midnightblue" points="88.5898,-261.065 84.2865,-270.747 93.6881,-265.862 88.5898,-261.065"/>
</g>
<!-- Node3 -->
<g id="node3" class="node"><title>Node3</title>
<g id="a_node3"><a xlink:href="../../d5/d6a/classppm__java_1_1typelib_1_1_v_audio_processor.html" target="_top" xlink:title="Base class for all modules processing audio samples. ">
<polygon fill="white" stroke="black" points="-0.5,-377 -0.5,-555 106.5,-555 106.5,-377 -0.5,-377"/>
<text text-anchor="middle" x="53" y="-543" font-family="Helvetica,sans-Serif" font-size="10.00">VAudioProcessor</text>
<polyline fill="none" stroke="black" points="-0.5,-536 106.5,-536 "/>
<text text-anchor="start" x="7.5" y="-524" font-family="Helvetica,sans-Serif" font-size="10.00">&#45; fPortsIn</text>
<text text-anchor="start" x="7.5" y="-513" font-family="Helvetica,sans-Serif" font-size="10.00">&#45; fPortsOut</text>
<polyline fill="none" stroke="black" points="-0.5,-506 106.5,-506 "/>
<text text-anchor="start" x="7.5" y="-494" font-family="Helvetica,sans-Serif" font-size="10.00">+ VAudioProcessor()</text>
<text text-anchor="start" x="7.5" y="-483" font-family="Helvetica,sans-Serif" font-size="10.00">+ CreatePort_In()</text>
<text text-anchor="start" x="7.5" y="-472" font-family="Helvetica,sans-Serif" font-size="10.00">+ CreatePort_Out()</text>
<text text-anchor="start" x="7.5" y="-461" font-family="Helvetica,sans-Serif" font-size="10.00">+ GetNumPortsIn()</text>
<text text-anchor="start" x="7.5" y="-450" font-family="Helvetica,sans-Serif" font-size="10.00">+ GetNumPortsOut()</text>
<text text-anchor="start" x="7.5" y="-439" font-family="Helvetica,sans-Serif" font-size="10.00">+ GetPortIn()</text>
<text text-anchor="start" x="7.5" y="-428" font-family="Helvetica,sans-Serif" font-size="10.00">+ GetPortIn()</text>
<text text-anchor="start" x="7.5" y="-417" font-family="Helvetica,sans-Serif" font-size="10.00">+ GetPortOut()</text>
<text text-anchor="start" x="7.5" y="-406" font-family="Helvetica,sans-Serif" font-size="10.00">+ GetPortOut()</text>
<text text-anchor="start" x="7.5" y="-395" font-family="Helvetica,sans-Serif" font-size="10.00"># AddPortIn()</text>
<text text-anchor="start" x="7.5" y="-384" font-family="Helvetica,sans-Serif" font-size="10.00"># AddPortOut()</text>
</a>
</g>
</g>
<!-- Node3&#45;&gt;Node2 -->
<g id="edge2" class="edge"><title>Node3&#45;&gt;Node2</title>
<path fill="none" stroke="midnightblue" d="M53,-366.475C53,-356.81 53,-347.544 53,-339.294"/>
<polygon fill="none" stroke="midnightblue" points="49.5001,-366.666 53,-376.666 56.5001,-366.666 49.5001,-366.666"/>
</g>
<!-- Node4 -->
<g id="node4" class="node"><title>Node4</title>
<g id="a_node4"><a xlink:href="../../d1/db3/classppm__java_1_1typelib_1_1_v_audio_object.html" target="_top" xlink:title="Base class for all browseable audio objects. ">
<polygon fill="white" stroke="black" points="7,-592.5 7,-649.5 99,-649.5 99,-592.5 7,-592.5"/>
<text text-anchor="middle" x="53" y="-637.5" font-family="Helvetica,sans-Serif" font-size="10.00">VAudioObject</text>
<polyline fill="none" stroke="black" points="7,-630.5 99,-630.5 "/>
<text text-anchor="middle" x="53" y="-618.5" font-family="Helvetica,sans-Serif" font-size="10.00"> </text>
<polyline fill="none" stroke="black" points="7,-611.5 99,-611.5 "/>
<text text-anchor="start" x="15" y="-599.5" font-family="Helvetica,sans-Serif" font-size="10.00">+ VAudioObject()</text>
</a>
</g>
</g>
<!-- Node4&#45;&gt;Node3 -->
<g id="edge3" class="edge"><title>Node4&#45;&gt;Node3</title>
<path fill="none" stroke="midnightblue" d="M53,-582.166C53,-573.781 53,-564.554 53,-555.086"/>
<polygon fill="none" stroke="midnightblue" points="49.5001,-582.293 53,-592.293 56.5001,-582.293 49.5001,-582.293"/>
</g>
<!-- Node5 -->
<g id="node5" class="node"><title>Node5</title>
<g id="a_node5"><a xlink:href="../../de/dd1/classppm__java_1_1typelib_1_1_v_browseable.html" target="_top" xlink:title="Base class for all browseable objects. ">
<polygon fill="white" stroke="black" points="8.5,-686.5 8.5,-765.5 97.5,-765.5 97.5,-686.5 8.5,-686.5"/>
<text text-anchor="middle" x="53" y="-753.5" font-family="Helvetica,sans-Serif" font-size="10.00">VBrowseable</text>
<polyline fill="none" stroke="black" points="8.5,-746.5 97.5,-746.5 "/>
<text text-anchor="start" x="16.5" y="-734.5" font-family="Helvetica,sans-Serif" font-size="10.00">&#45; fID</text>
<polyline fill="none" stroke="black" points="8.5,-727.5 97.5,-727.5 "/>
<text text-anchor="start" x="16.5" y="-715.5" font-family="Helvetica,sans-Serif" font-size="10.00">+ VBrowseable()</text>
<text text-anchor="start" x="16.5" y="-704.5" font-family="Helvetica,sans-Serif" font-size="10.00">+ GetID()</text>
<text text-anchor="start" x="16.5" y="-693.5" font-family="Helvetica,sans-Serif" font-size="10.00"># _Register()</text>
</a>
</g>
</g>
<!-- Node5&#45;&gt;Node4 -->
<g id="edge4" class="edge"><title>Node5&#45;&gt;Node4</title>
<path fill="none" stroke="midnightblue" d="M53,-676.163C53,-667.04 53,-657.806 53,-649.61"/>
<polygon fill="none" stroke="midnightblue" points="49.5001,-676.354 53,-686.354 56.5001,-676.354 49.5001,-676.354"/>
</g>
<!-- Node6 -->
<g id="node6" class="node"><title>Node6</title>
<polygon fill="white" stroke="#bfbfbf" points="117,-276.5 117,-333.5 229,-333.5 229,-276.5 117,-276.5"/>
<text text-anchor="middle" x="173" y="-321.5" font-family="Helvetica,sans-Serif" font-size="10.00">JJackAudioProcessor</text>
<polyline fill="none" stroke="#bfbfbf" points="117,-314.5 229,-314.5 "/>
<text text-anchor="middle" x="173" y="-302.5" font-family="Helvetica,sans-Serif" font-size="10.00"> </text>
<polyline fill="none" stroke="#bfbfbf" points="117,-295.5 229,-295.5 "/>
<text text-anchor="middle" x="173" y="-283.5" font-family="Helvetica,sans-Serif" font-size="10.00"> </text>
</g>
<!-- Node6&#45;&gt;Node1 -->
<g id="edge5" class="edge"><title>Node6&#45;&gt;Node1</title>
<path fill="none" stroke="midnightblue" d="M184.129,-266.363C187.052,-256.479 190.362,-245.283 193.823,-233.58"/>
<polygon fill="none" stroke="midnightblue" points="180.713,-265.572 181.234,-276.154 187.426,-267.557 180.713,-265.572"/>
</g>
<!-- Node7 -->
<g id="node7" class="node"><title>Node7</title>
<g id="a_node7"><a xlink:href="../../db/d44/interfaceppm__java_1_1typelib_1_1_i_controllable.html" target="_top" xlink:title="A module or construct which can receive some low level control commands (start/stop etc...">
<polygon fill="white" stroke="black" points="247.5,-271 247.5,-339 318.5,-339 318.5,-271 247.5,-271"/>
<text text-anchor="middle" x="283" y="-327" font-family="Helvetica,sans-Serif" font-size="10.00">IControllable</text>
<polyline fill="none" stroke="black" points="247.5,-320 318.5,-320 "/>
<text text-anchor="middle" x="283" y="-308" font-family="Helvetica,sans-Serif" font-size="10.00"> </text>
<polyline fill="none" stroke="black" points="247.5,-301 318.5,-301 "/>
<text text-anchor="start" x="255.5" y="-289" font-family="Helvetica,sans-Serif" font-size="10.00">+ Start()</text>
<text text-anchor="start" x="255.5" y="-278" font-family="Helvetica,sans-Serif" font-size="10.00">+ Stop()</text>
</a>
</g>
</g>
<!-- Node7&#45;&gt;Node1 -->
<g id="edge6" class="edge"><title>Node7&#45;&gt;Node1</title>
<path fill="none" stroke="midnightblue" d="M270.331,-261.157C267.816,-252.652 265.065,-243.349 262.212,-233.698"/>
<polygon fill="none" stroke="midnightblue" points="266.975,-262.15 273.167,-270.747 273.688,-260.165 266.975,-262.15"/>
</g>
<!-- Node8 -->
<g id="node8" class="node"><title>Node8</title>
<g id="a_node8"><a xlink:href="../../dc/dc0/interfaceppm__java_1_1typelib_1_1_i_stat_enabled.html" target="_top" xlink:title="Interface for an object that supports runtime statistics. ">
<polygon fill="white" stroke="black" points="336.5,-276.5 336.5,-333.5 409.5,-333.5 409.5,-276.5 336.5,-276.5"/>
<text text-anchor="middle" x="373" y="-321.5" font-family="Helvetica,sans-Serif" font-size="10.00">IStatEnabled</text>
<polyline fill="none" stroke="black" points="336.5,-314.5 409.5,-314.5 "/>
<text text-anchor="middle" x="373" y="-302.5" font-family="Helvetica,sans-Serif" font-size="10.00"> </text>
<polyline fill="none" stroke="black" points="336.5,-295.5 409.5,-295.5 "/>
<text text-anchor="start" x="344.5" y="-283.5" font-family="Helvetica,sans-Serif" font-size="10.00">+ StatsGet()</text>
</a>
</g>
</g>
<!-- Node8&#45;&gt;Node1 -->
<g id="edge7" class="edge"><title>Node8&#45;&gt;Node1</title>
<path fill="none" stroke="midnightblue" d="M345.111,-268.225C330.054,-248.91 310.797,-224.209 292.268,-200.44"/>
<polygon fill="none" stroke="midnightblue" points="342.383,-270.419 351.292,-276.154 347.904,-266.115 342.383,-270.419"/>
</g>
</g>
</svg>
