<?xml version="1.0" encoding="UTF-8" standalone="no"?>
<!DOCTYPE svg PUBLIC "-//W3C//DTD SVG 1.1//EN"
 "http://www.w3.org/Graphics/SVG/1.1/DTD/svg11.dtd">
<!-- Generated by graphviz version 2.36.0 (20140111.2315)
 -->
<!-- Title: TWndDebug Pages: 1 -->
<svg width="104pt" height="216pt"
 viewBox="0.00 0.00 104.00 216.00" xmlns="http://www.w3.org/2000/svg" xmlns:xlink="http://www.w3.org/1999/xlink">
<g id="graph0" class="graph" transform="scale(1 1) rotate(0) translate(4 212)">
<title>TWndDebug</title>
<polygon fill="white" stroke="none" points="-4,4 -4,-212 100,-212 100,4 -4,4"/>
<!-- Node1 -->
<g id="node1" class="node"><title>Node1</title>
<polygon fill="#bfbfbf" stroke="black" points="-0.5,-1 -0.5,-113 96.5,-113 96.5,-1 -0.5,-1"/>
<text text-anchor="middle" x="48" y="-101" font-family="Helvetica,sans-Serif" font-size="10.00">TWndDebug</text>
<polyline fill="none" stroke="black" points="-0.5,-94 96.5,-94 "/>
<text text-anchor="start" x="7.5" y="-82" font-family="Helvetica,sans-Serif" font-size="10.00">&#45; contentPane</text>
<text text-anchor="start" x="7.5" y="-71" font-family="Helvetica,sans-Serif" font-size="10.00">&#45; fTxtOutput</text>
<text text-anchor="start" x="7.5" y="-60" font-family="Helvetica,sans-Serif" font-size="10.00">&#45; gWnd</text>
<text text-anchor="start" x="7.5" y="-49" font-family="Helvetica,sans-Serif" font-size="10.00">&#45; serialVersionUID</text>
<polyline fill="none" stroke="black" points="-0.5,-42 96.5,-42 "/>
<text text-anchor="start" x="7.5" y="-30" font-family="Helvetica,sans-Serif" font-size="10.00">+ TWndDebug()</text>
<text text-anchor="start" x="7.5" y="-19" font-family="Helvetica,sans-Serif" font-size="10.00">+ Show()</text>
<text text-anchor="start" x="7.5" y="-8" font-family="Helvetica,sans-Serif" font-size="10.00">+ SetText()</text>
</g>
<!-- Node2 -->
<g id="node2" class="node"><title>Node2</title>
<polygon fill="white" stroke="#bfbfbf" points="23,-150.5 23,-207.5 73,-207.5 73,-150.5 23,-150.5"/>
<text text-anchor="middle" x="48" y="-195.5" font-family="Helvetica,sans-Serif" font-size="10.00">JFrame</text>
<polyline fill="none" stroke="#bfbfbf" points="23,-188.5 73,-188.5 "/>
<text text-anchor="middle" x="48" y="-176.5" font-family="Helvetica,sans-Serif" font-size="10.00"> </text>
<polyline fill="none" stroke="#bfbfbf" points="23,-169.5 73,-169.5 "/>
<text text-anchor="middle" x="48" y="-157.5" font-family="Helvetica,sans-Serif" font-size="10.00"> </text>
</g>
<!-- Node2&#45;&gt;Node1 -->
<g id="edge1" class="edge"><title>Node2&#45;&gt;Node1</title>
<path fill="none" stroke="midnightblue" d="M48,-140.398C48,-131.802 48,-122.49 48,-113.324"/>
<polygon fill="none" stroke="midnightblue" points="44.5001,-140.47 48,-150.47 51.5001,-140.47 44.5001,-140.47"/>
</g>
</g>
</svg>
