<?xml version="1.0" encoding="UTF-8" standalone="no"?>
<!DOCTYPE svg PUBLIC "-//W3C//DTD SVG 1.1//EN"
 "http://www.w3.org/Graphics/SVG/1.1/DTD/svg11.dtd">
<!-- Generated by graphviz version 2.36.0 (20140111.2315)
 -->
<!-- Title: _FetchAndSend Pages: 1 -->
<svg width="452pt" height="104pt"
 viewBox="0.00 0.00 452.00 104.00" xmlns="http://www.w3.org/2000/svg" xmlns:xlink="http://www.w3.org/1999/xlink">
<g id="graph0" class="graph" transform="scale(1 1) rotate(0) translate(4 100)">
<title>_FetchAndSend</title>
<polygon fill="white" stroke="none" points="-4,4 -4,-100 448,-100 448,4 -4,4"/>
<!-- Node1 -->
<g id="node1" class="node"><title>Node1</title>
<polygon fill="#bfbfbf" stroke="black" points="0,-38.5 0,-57.5 86,-57.5 86,-38.5 0,-38.5"/>
<text text-anchor="middle" x="43" y="-45.5" font-family="Helvetica,sans-Serif" font-size="10.00">_FetchAndSend</text>
</g>
<!-- Node2 -->
<g id="node2" class="node"><title>Node2</title>
<g id="a_node2"><a xlink:href="../../de/db8/classppm__java_1_1backend_1_1module_1_1pump_1_1_t_node_pump.html#a1f5fb7f91a02f1a17739b3ca7de23dd0" target="_top" xlink:title="Recomputes some runtime statistics for the next cycle (e.g. ">
<polygon fill="white" stroke="black" points="122,-76.5 122,-95.5 254,-95.5 254,-76.5 122,-76.5"/>
<text text-anchor="middle" x="188" y="-83.5" font-family="Helvetica,sans-Serif" font-size="10.00">_RecomputeRuntimeStats</text>
</a>
</g>
</g>
<!-- Node1&#45;&gt;Node2 -->
<g id="edge1" class="edge"><title>Node1&#45;&gt;Node2</title>
<path fill="none" stroke="midnightblue" d="M80.0849,-57.589C98.6296,-62.5169 121.426,-68.5749 141.199,-73.8291"/>
<polygon fill="midnightblue" stroke="midnightblue" points="140.363,-77.2284 150.927,-76.4141 142.161,-70.4632 140.363,-77.2284"/>
</g>
<!-- Node3 -->
<g id="node3" class="node"><title>Node3</title>
<g id="a_node3"><a xlink:href="../../de/db8/classppm__java_1_1backend_1_1module_1_1pump_1_1_t_node_pump.html#a018d25aae00a5c4c8ae8f15f596f91e9" target="_top" xlink:title="Compensates for data loss (i.e. ">
<polygon fill="white" stroke="black" points="135.5,-38.5 135.5,-57.5 240.5,-57.5 240.5,-38.5 135.5,-38.5"/>
<text text-anchor="middle" x="188" y="-45.5" font-family="Helvetica,sans-Serif" font-size="10.00">_Resolve_DataLoss</text>
</a>
</g>
</g>
<!-- Node1&#45;&gt;Node3 -->
<g id="edge2" class="edge"><title>Node1&#45;&gt;Node3</title>
<path fill="none" stroke="midnightblue" d="M86.1313,-48C98.2877,-48 111.815,-48 124.913,-48"/>
<polygon fill="midnightblue" stroke="midnightblue" points="125.292,-51.5001 135.292,-48 125.292,-44.5001 125.292,-51.5001"/>
</g>
<!-- Node5 -->
<g id="node5" class="node"><title>Node5</title>
<g id="a_node5"><a xlink:href="../../de/db8/classppm__java_1_1backend_1_1module_1_1pump_1_1_t_node_pump.html#a1b0ea829c868cad27dc54fff213f3273" target="_top" xlink:title="Retrieves next chunk of data. ">
<polygon fill="white" stroke="black" points="140,-0.5 140,-19.5 236,-19.5 236,-0.5 140,-0.5"/>
<text text-anchor="middle" x="188" y="-7.5" font-family="Helvetica,sans-Serif" font-size="10.00">_SendNextPacket</text>
</a>
</g>
</g>
<!-- Node1&#45;&gt;Node5 -->
<g id="edge4" class="edge"><title>Node1&#45;&gt;Node5</title>
<path fill="none" stroke="midnightblue" d="M80.0849,-38.411C98.6296,-33.4831 121.426,-27.4251 141.199,-22.1709"/>
<polygon fill="midnightblue" stroke="midnightblue" points="142.161,-25.5368 150.927,-19.5859 140.363,-18.7716 142.161,-25.5368"/>
</g>
<!-- Node4 -->
<g id="node4" class="node"><title>Node4</title>
<g id="a_node4"><a xlink:href="../../de/dd1/classppm__java_1_1typelib_1_1_v_browseable.html#a04cbe3f0b5057d0eb582200dea602297" target="_top" xlink:title="ppm_java.typelib.VBrowseable.\lGetID">
<polygon fill="white" stroke="black" points="290,-33 290,-63 444,-63 444,-33 290,-33"/>
<text text-anchor="start" x="298" y="-51" font-family="Helvetica,sans-Serif" font-size="10.00">ppm_java.typelib.VBrowseable.</text>
<text text-anchor="middle" x="367" y="-40" font-family="Helvetica,sans-Serif" font-size="10.00">GetID</text>
</a>
</g>
</g>
<!-- Node3&#45;&gt;Node4 -->
<g id="edge3" class="edge"><title>Node3&#45;&gt;Node4</title>
<path fill="none" stroke="midnightblue" d="M240.672,-48C252.95,-48 266.379,-48 279.74,-48"/>
<polygon fill="midnightblue" stroke="midnightblue" points="279.924,-51.5001 289.924,-48 279.924,-44.5001 279.924,-51.5001"/>
</g>
</g>
</svg>
