<?xml version="1.0" encoding="UTF-8" standalone="no"?>
<!DOCTYPE svg PUBLIC "-//W3C//DTD SVG 1.1//EN"
 "http://www.w3.org/Graphics/SVG/1.1/DTD/svg11.dtd">
<!-- Generated by graphviz version 2.36.0 (20140111.2315)
 -->
<!-- Title: OnEvent Pages: 1 -->
<svg width="584pt" height="202pt"
 viewBox="0.00 0.00 584.00 202.00" xmlns="http://www.w3.org/2000/svg" xmlns:xlink="http://www.w3.org/1999/xlink">
<g id="graph0" class="graph" transform="scale(1 1) rotate(0) translate(4 198)">
<title>OnEvent</title>
<polygon fill="white" stroke="none" points="-4,4 -4,-198 580,-198 580,4 -4,4"/>
<!-- Node1 -->
<g id="node1" class="node"><title>Node1</title>
<polygon fill="#bfbfbf" stroke="black" points="0.5,-85.5 0.5,-104.5 55.5,-104.5 55.5,-85.5 0.5,-85.5"/>
<text text-anchor="middle" x="28" y="-92.5" font-family="Helvetica,sans-Serif" font-size="10.00">OnEvent</text>
</g>
<!-- Node2 -->
<g id="node2" class="node"><title>Node2</title>
<g id="a_node2"><a xlink:href="../../de/db8/classppm__java_1_1backend_1_1module_1_1pump_1_1_t_node_pump.html#ae94534b50b3e9aaefe27ff39711bf583" target="_top" xlink:title="Fetches and sends the next sample chunk to the connected module. ">
<polygon fill="white" stroke="black" points="92,-117.5 92,-136.5 178,-136.5 178,-117.5 92,-117.5"/>
<text text-anchor="middle" x="135" y="-124.5" font-family="Helvetica,sans-Serif" font-size="10.00">_FetchAndSend</text>
</a>
</g>
</g>
<!-- Node1&#45;&gt;Node2 -->
<g id="edge1" class="edge"><title>Node1&#45;&gt;Node2</title>
<path fill="none" stroke="midnightblue" d="M55.7676,-103.158C67.0822,-106.606 80.5152,-110.7 93.029,-114.514"/>
<polygon fill="midnightblue" stroke="midnightblue" points="92.2237,-117.927 102.81,-117.494 94.2644,-111.231 92.2237,-117.927"/>
</g>
<!-- Node7 -->
<g id="node7" class="node"><title>Node7</title>
<g id="a_node7"><a xlink:href="../../de/db8/classppm__java_1_1backend_1_1module_1_1pump_1_1_t_node_pump.html#ae229ebda3ceb1f6b51687126a833aa40" target="_top" xlink:title="Initializes a few objects and sets the initial value for fTLast. ">
<polygon fill="white" stroke="black" points="106,-54.5 106,-73.5 164,-73.5 164,-54.5 106,-54.5"/>
<text text-anchor="middle" x="135" y="-61.5" font-family="Helvetica,sans-Serif" font-size="10.00">_Initialize</text>
</a>
</g>
</g>
<!-- Node1&#45;&gt;Node7 -->
<g id="edge6" class="edge"><title>Node1&#45;&gt;Node7</title>
<path fill="none" stroke="midnightblue" d="M55.7676,-87.0972C67.9689,-83.4949 82.6337,-79.1653 95.9527,-75.233"/>
<polygon fill="midnightblue" stroke="midnightblue" points="97.2126,-78.5105 105.812,-72.3221 95.2305,-71.7969 97.2126,-78.5105"/>
</g>
<!-- Node3 -->
<g id="node3" class="node"><title>Node3</title>
<g id="a_node3"><a xlink:href="../../de/db8/classppm__java_1_1backend_1_1module_1_1pump_1_1_t_node_pump.html#a1f5fb7f91a02f1a17739b3ca7de23dd0" target="_top" xlink:title="Recomputes some runtime statistics for the next cycle (e.g. ">
<polygon fill="white" stroke="black" points="234,-174.5 234,-193.5 366,-193.5 366,-174.5 234,-174.5"/>
<text text-anchor="middle" x="300" y="-181.5" font-family="Helvetica,sans-Serif" font-size="10.00">_RecomputeRuntimeStats</text>
</a>
</g>
</g>
<!-- Node2&#45;&gt;Node3 -->
<g id="edge2" class="edge"><title>Node2&#45;&gt;Node3</title>
<path fill="none" stroke="midnightblue" d="M152.853,-136.641C168.326,-145.143 192.105,-157.338 214,-165 221.426,-167.599 229.345,-169.926 237.249,-171.985"/>
<polygon fill="midnightblue" stroke="midnightblue" points="236.668,-175.446 247.216,-174.449 238.348,-168.651 236.668,-175.446"/>
</g>
<!-- Node4 -->
<g id="node4" class="node"><title>Node4</title>
<g id="a_node4"><a xlink:href="../../de/db8/classppm__java_1_1backend_1_1module_1_1pump_1_1_t_node_pump.html#a018d25aae00a5c4c8ae8f15f596f91e9" target="_top" xlink:title="Compensates for data loss (i.e. ">
<polygon fill="white" stroke="black" points="247.5,-136.5 247.5,-155.5 352.5,-155.5 352.5,-136.5 247.5,-136.5"/>
<text text-anchor="middle" x="300" y="-143.5" font-family="Helvetica,sans-Serif" font-size="10.00">_Resolve_DataLoss</text>
</a>
</g>
</g>
<!-- Node2&#45;&gt;Node4 -->
<g id="edge3" class="edge"><title>Node2&#45;&gt;Node4</title>
<path fill="none" stroke="midnightblue" d="M178.401,-131.942C196.314,-134.03 217.529,-136.503 237.133,-138.788"/>
<polygon fill="midnightblue" stroke="midnightblue" points="236.873,-142.282 247.211,-139.963 237.684,-135.329 236.873,-142.282"/>
</g>
<!-- Node6 -->
<g id="node6" class="node"><title>Node6</title>
<g id="a_node6"><a xlink:href="../../de/db8/classppm__java_1_1backend_1_1module_1_1pump_1_1_t_node_pump.html#a1b0ea829c868cad27dc54fff213f3273" target="_top" xlink:title="Retrieves next chunk of data. ">
<polygon fill="white" stroke="black" points="252,-98.5 252,-117.5 348,-117.5 348,-98.5 252,-98.5"/>
<text text-anchor="middle" x="300" y="-105.5" font-family="Helvetica,sans-Serif" font-size="10.00">_SendNextPacket</text>
</a>
</g>
</g>
<!-- Node2&#45;&gt;Node6 -->
<g id="edge5" class="edge"><title>Node2&#45;&gt;Node6</title>
<path fill="none" stroke="midnightblue" d="M178.401,-122.058C197.775,-119.799 221.012,-117.091 241.896,-114.656"/>
<polygon fill="midnightblue" stroke="midnightblue" points="242.404,-118.121 251.931,-113.487 241.593,-111.168 242.404,-118.121"/>
</g>
<!-- Node5 -->
<g id="node5" class="node"><title>Node5</title>
<g id="a_node5"><a xlink:href="../../de/dd1/classppm__java_1_1typelib_1_1_v_browseable.html#a04cbe3f0b5057d0eb582200dea602297" target="_top" xlink:title="ppm_java.typelib.VBrowseable.\lGetID">
<polygon fill="white" stroke="black" points="422,-131 422,-161 576,-161 576,-131 422,-131"/>
<text text-anchor="start" x="430" y="-149" font-family="Helvetica,sans-Serif" font-size="10.00">ppm_java.typelib.VBrowseable.</text>
<text text-anchor="middle" x="499" y="-138" font-family="Helvetica,sans-Serif" font-size="10.00">GetID</text>
</a>
</g>
</g>
<!-- Node4&#45;&gt;Node5 -->
<g id="edge4" class="edge"><title>Node4&#45;&gt;Node5</title>
<path fill="none" stroke="midnightblue" d="M352.502,-146C370.642,-146 391.559,-146 411.776,-146"/>
<polygon fill="midnightblue" stroke="midnightblue" points="411.946,-149.5 421.946,-146 411.946,-142.5 411.946,-149.5"/>
</g>
<!-- Node8 -->
<g id="node8" class="node"><title>Node8</title>
<g id="a_node8"><a xlink:href="../../d5/d6a/classppm__java_1_1typelib_1_1_v_audio_processor.html#a5bfd065f6711c094469beafa8b649b71" target="_top" xlink:title="Returns the ith input port. ">
<polygon fill="white" stroke="black" points="214,-49 214,-79 386,-79 386,-49 214,-49"/>
<text text-anchor="start" x="222" y="-67" font-family="Helvetica,sans-Serif" font-size="10.00">ppm_java.typelib.VAudioProcessor.</text>
<text text-anchor="middle" x="300" y="-56" font-family="Helvetica,sans-Serif" font-size="10.00">GetPortIn</text>
</a>
</g>
</g>
<!-- Node7&#45;&gt;Node8 -->
<g id="edge7" class="edge"><title>Node7&#45;&gt;Node8</title>
<path fill="none" stroke="midnightblue" d="M164.021,-64C175.41,-64 189.294,-64 203.773,-64"/>
<polygon fill="midnightblue" stroke="midnightblue" points="203.869,-67.5001 213.869,-64 203.869,-60.5001 203.869,-67.5001"/>
</g>
<!-- Node9 -->
<g id="node9" class="node"><title>Node9</title>
<g id="a_node9"><a xlink:href="../../d5/d6a/classppm__java_1_1typelib_1_1_v_audio_processor.html#a2a3eff032668d4235f02e6cad3f43a66" target="_top" xlink:title="Returns the ith output port. ">
<polygon fill="white" stroke="black" points="214,-0 214,-30 386,-30 386,-0 214,-0"/>
<text text-anchor="start" x="222" y="-18" font-family="Helvetica,sans-Serif" font-size="10.00">ppm_java.typelib.VAudioProcessor.</text>
<text text-anchor="middle" x="300" y="-7" font-family="Helvetica,sans-Serif" font-size="10.00">GetPortOut</text>
</a>
</g>
</g>
<!-- Node7&#45;&gt;Node9 -->
<g id="edge8" class="edge"><title>Node7&#45;&gt;Node9</title>
<path fill="none" stroke="midnightblue" d="M164.087,-54.736C178.896,-49.9178 197.389,-44.0054 214,-39 220.609,-37.0085 227.522,-34.9752 234.428,-32.9765"/>
<polygon fill="midnightblue" stroke="midnightblue" points="235.859,-36.207 244.504,-30.0818 233.926,-29.4791 235.859,-36.207"/>
</g>
</g>
</svg>
