<?xml version="1.0" encoding="UTF-8" standalone="no"?>
<!DOCTYPE svg PUBLIC "-//W3C//DTD SVG 1.1//EN"
 "http://www.w3.org/Graphics/SVG/1.1/DTD/svg11.dtd">
<!-- Generated by graphviz version 2.36.0 (20140111.2315)
 -->
<!-- Title: _Initialize Pages: 1 -->
<svg width="274pt" height="87pt"
 viewBox="0.00 0.00 274.00 87.00" xmlns="http://www.w3.org/2000/svg" xmlns:xlink="http://www.w3.org/1999/xlink">
<g id="graph0" class="graph" transform="scale(1 1) rotate(0) translate(4 83)">
<title>_Initialize</title>
<polygon fill="white" stroke="none" points="-4,4 -4,-83 270,-83 270,4 -4,4"/>
<!-- Node1 -->
<g id="node1" class="node"><title>Node1</title>
<polygon fill="#bfbfbf" stroke="black" points="0,-29.5 0,-48.5 58,-48.5 58,-29.5 0,-29.5"/>
<text text-anchor="middle" x="29" y="-36.5" font-family="Helvetica,sans-Serif" font-size="10.00">_Initialize</text>
</g>
<!-- Node2 -->
<g id="node2" class="node"><title>Node2</title>
<g id="a_node2"><a xlink:href="../../d5/d6a/classppm__java_1_1typelib_1_1_v_audio_processor.html#a5bfd065f6711c094469beafa8b649b71" target="_top" xlink:title="Returns the ith input port. ">
<polygon fill="white" stroke="black" points="94,-49 94,-79 266,-79 266,-49 94,-49"/>
<text text-anchor="start" x="102" y="-67" font-family="Helvetica,sans-Serif" font-size="10.00">ppm_java.typelib.VAudioProcessor.</text>
<text text-anchor="middle" x="180" y="-56" font-family="Helvetica,sans-Serif" font-size="10.00">GetPortIn</text>
</a>
</g>
</g>
<!-- Node1&#45;&gt;Node2 -->
<g id="edge1" class="edge"><title>Node1&#45;&gt;Node2</title>
<path fill="none" stroke="midnightblue" d="M58.0258,-43.7023C65.784,-45.004 74.6618,-46.4936 84.006,-48.0614"/>
<polygon fill="midnightblue" stroke="midnightblue" points="83.4438,-51.5159 93.8851,-49.719 84.6022,-44.6124 83.4438,-51.5159"/>
</g>
<!-- Node3 -->
<g id="node3" class="node"><title>Node3</title>
<g id="a_node3"><a xlink:href="../../d5/d6a/classppm__java_1_1typelib_1_1_v_audio_processor.html#a2a3eff032668d4235f02e6cad3f43a66" target="_top" xlink:title="Returns the ith output port. ">
<polygon fill="white" stroke="black" points="94,-0 94,-30 266,-30 266,-0 94,-0"/>
<text text-anchor="start" x="102" y="-18" font-family="Helvetica,sans-Serif" font-size="10.00">ppm_java.typelib.VAudioProcessor.</text>
<text text-anchor="middle" x="180" y="-7" font-family="Helvetica,sans-Serif" font-size="10.00">GetPortOut</text>
</a>
</g>
</g>
<!-- Node1&#45;&gt;Node3 -->
<g id="edge2" class="edge"><title>Node1&#45;&gt;Node3</title>
<path fill="none" stroke="midnightblue" d="M58.0258,-34.4858C65.784,-33.2361 74.6618,-31.8062 84.006,-30.301"/>
<polygon fill="midnightblue" stroke="midnightblue" points="84.569,-33.7556 93.8851,-28.7098 83.4558,-26.8446 84.569,-33.7556"/>
</g>
</g>
</svg>
