<?xml version="1.0" encoding="UTF-8" standalone="no"?>
<!DOCTYPE svg PUBLIC "-//W3C//DTD SVG 1.1//EN"
 "http://www.w3.org/Graphics/SVG/1.1/DTD/svg11.dtd">
<!-- Generated by graphviz version 2.36.0 (20140111.2315)
 -->
<!-- Title: _Resolve_DataLoss Pages: 1 -->
<svg width="328pt" height="28pt"
 viewBox="0.00 0.00 328.00 28.00" xmlns="http://www.w3.org/2000/svg" xmlns:xlink="http://www.w3.org/1999/xlink">
<g id="graph0" class="graph" transform="scale(1 1) rotate(0) translate(4 24)">
<title>_Resolve_DataLoss</title>
<polygon fill="white" stroke="none" points="-4,4 -4,-24 324,-24 324,4 -4,4"/>
<!-- Node1 -->
<g id="node1" class="node"><title>Node1</title>
<polygon fill="#bfbfbf" stroke="black" points="0.5,-0.5 0.5,-19.5 105.5,-19.5 105.5,-0.5 0.5,-0.5"/>
<text text-anchor="middle" x="53" y="-7.5" font-family="Helvetica,sans-Serif" font-size="10.00">_Resolve_DataLoss</text>
</g>
<!-- Node2 -->
<g id="node2" class="node"><title>Node2</title>
<g id="a_node2"><a xlink:href="../../de/db8/classppm__java_1_1backend_1_1module_1_1pump_1_1_t_node_pump.html#ae94534b50b3e9aaefe27ff39711bf583" target="_top" xlink:title="Fetches and sends the next sample chunk to the connected module. ">
<polygon fill="white" stroke="black" points="142,-0.5 142,-19.5 228,-19.5 228,-0.5 142,-0.5"/>
<text text-anchor="middle" x="185" y="-7.5" font-family="Helvetica,sans-Serif" font-size="10.00">_FetchAndSend</text>
</a>
</g>
</g>
<!-- Node1&#45;&gt;Node2 -->
<g id="edge1" class="edge"><title>Node1&#45;&gt;Node2</title>
<path fill="none" stroke="midnightblue" d="M115.899,-10C124.603,-10 133.381,-10 141.607,-10"/>
<polygon fill="midnightblue" stroke="midnightblue" points="115.753,-6.5001 105.753,-10 115.753,-13.5001 115.753,-6.5001"/>
</g>
<!-- Node3 -->
<g id="node3" class="node"><title>Node3</title>
<g id="a_node3"><a xlink:href="../../de/db8/classppm__java_1_1backend_1_1module_1_1pump_1_1_t_node_pump.html#a310a2f2cdbda46d8166b50e45943e7e4" target="_top" xlink:title="Receive an event with no parameter. ">
<polygon fill="white" stroke="black" points="264.5,-0.5 264.5,-19.5 319.5,-19.5 319.5,-0.5 264.5,-0.5"/>
<text text-anchor="middle" x="292" y="-7.5" font-family="Helvetica,sans-Serif" font-size="10.00">OnEvent</text>
</a>
</g>
</g>
<!-- Node2&#45;&gt;Node3 -->
<g id="edge2" class="edge"><title>Node2&#45;&gt;Node3</title>
<path fill="none" stroke="midnightblue" d="M238.237,-10C247.267,-10 256.307,-10 264.29,-10"/>
<polygon fill="midnightblue" stroke="midnightblue" points="238.103,-6.5001 228.103,-10 238.102,-13.5001 238.103,-6.5001"/>
</g>
</g>
</svg>
