<?xml version="1.0" encoding="UTF-8" standalone="no"?>
<!DOCTYPE svg PUBLIC "-//W3C//DTD SVG 1.1//EN"
 "http://www.w3.org/Graphics/SVG/1.1/DTD/svg11.dtd">
<!-- Generated by graphviz version 2.36.0 (20140111.2315)
 -->
<!-- Title: TGUILinearGauge_WndPPM Pages: 1 -->
<svg width="164pt" height="358pt"
 viewBox="0.00 0.00 164.00 358.00" xmlns="http://www.w3.org/2000/svg" xmlns:xlink="http://www.w3.org/1999/xlink">
<g id="graph0" class="graph" transform="scale(1 1) rotate(0) translate(4 354)">
<title>TGUILinearGauge_WndPPM</title>
<polygon fill="white" stroke="none" points="-4,4 -4,-354 160,-354 160,4 -4,4"/>
<!-- Node1 -->
<g id="node1" class="node"><title>Node1</title>
<polygon fill="#bfbfbf" stroke="black" points="-1,-0.5 -1,-255.5 157,-255.5 157,-0.5 -1,-0.5"/>
<text text-anchor="middle" x="78" y="-243.5" font-family="Helvetica,sans-Serif" font-size="10.00">TGUILinearGauge_WndPPM</text>
<polyline fill="none" stroke="black" points="-1,-236.5 157,-236.5 "/>
<text text-anchor="start" x="7" y="-224.5" font-family="Helvetica,sans-Serif" font-size="10.00">&#45; fConnector</text>
<text text-anchor="start" x="7" y="-213.5" font-family="Helvetica,sans-Serif" font-size="10.00">&#45; fMeterL</text>
<text text-anchor="start" x="7" y="-202.5" font-family="Helvetica,sans-Serif" font-size="10.00">&#45; fMeterR</text>
<text text-anchor="start" x="7" y="-191.5" font-family="Helvetica,sans-Serif" font-size="10.00">&#45; fPnlMeterL</text>
<text text-anchor="start" x="7" y="-180.5" font-family="Helvetica,sans-Serif" font-size="10.00">&#45; fPnlMeterR</text>
<text text-anchor="start" x="7" y="-169.5" font-family="Helvetica,sans-Serif" font-size="10.00">&#45; fTimerL</text>
<text text-anchor="start" x="7" y="-158.5" font-family="Helvetica,sans-Serif" font-size="10.00">&#45; fTimerR</text>
<text text-anchor="start" x="7" y="-147.5" font-family="Helvetica,sans-Serif" font-size="10.00">&#45; gkIChanL</text>
<text text-anchor="start" x="7" y="-136.5" font-family="Helvetica,sans-Serif" font-size="10.00">&#45; gkIChanR</text>
<text text-anchor="start" x="7" y="-125.5" font-family="Helvetica,sans-Serif" font-size="10.00">&#45; kColorClip</text>
<text text-anchor="start" x="7" y="-114.5" font-family="Helvetica,sans-Serif" font-size="10.00">&#45; kColorNormal</text>
<text text-anchor="start" x="7" y="-103.5" font-family="Helvetica,sans-Serif" font-size="10.00">&#45; kColorWarn</text>
<text text-anchor="start" x="7" y="-92.5" font-family="Helvetica,sans-Serif" font-size="10.00">&#45; serialVersionUID</text>
<polyline fill="none" stroke="black" points="-1,-85.5 157,-85.5 "/>
<text text-anchor="start" x="7" y="-73.5" font-family="Helvetica,sans-Serif" font-size="10.00">+ TGUILinearGauge_WndPPM()</text>
<text text-anchor="start" x="7" y="-62.5" font-family="Helvetica,sans-Serif" font-size="10.00">+ ClippingSet()</text>
<text text-anchor="start" x="7" y="-51.5" font-family="Helvetica,sans-Serif" font-size="10.00">+ SetLevel()</text>
<text text-anchor="start" x="7" y="-40.5" font-family="Helvetica,sans-Serif" font-size="10.00">+ Terminate()</text>
<text text-anchor="start" x="7" y="-29.5" font-family="Helvetica,sans-Serif" font-size="10.00">~ _SetClipping()</text>
<text text-anchor="start" x="7" y="-18.5" font-family="Helvetica,sans-Serif" font-size="10.00">&#45; _OnWindowClose()</text>
<text text-anchor="start" x="7" y="-7.5" font-family="Helvetica,sans-Serif" font-size="10.00">&#45; initComponents()</text>
</g>
<!-- Node2 -->
<g id="node2" class="node"><title>Node2</title>
<polygon fill="white" stroke="#bfbfbf" points="53,-292.5 53,-349.5 103,-349.5 103,-292.5 53,-292.5"/>
<text text-anchor="middle" x="78" y="-337.5" font-family="Helvetica,sans-Serif" font-size="10.00">JFrame</text>
<polyline fill="none" stroke="#bfbfbf" points="53,-330.5 103,-330.5 "/>
<text text-anchor="middle" x="78" y="-318.5" font-family="Helvetica,sans-Serif" font-size="10.00"> </text>
<polyline fill="none" stroke="#bfbfbf" points="53,-311.5 103,-311.5 "/>
<text text-anchor="middle" x="78" y="-299.5" font-family="Helvetica,sans-Serif" font-size="10.00"> </text>
</g>
<!-- Node2&#45;&gt;Node1 -->
<g id="edge1" class="edge"><title>Node2&#45;&gt;Node1</title>
<path fill="none" stroke="midnightblue" d="M78,-282.196C78,-274.157 78,-265.246 78,-255.881"/>
<polygon fill="none" stroke="midnightblue" points="74.5001,-282.227 78,-292.227 81.5001,-282.227 74.5001,-282.227"/>
</g>
</g>
</svg>
