<?xml version="1.0" encoding="UTF-8" standalone="no"?>
<!DOCTYPE svg PUBLIC "-//W3C//DTD SVG 1.1//EN"
 "http://www.w3.org/Graphics/SVG/1.1/DTD/svg11.dtd">
<!-- Generated by graphviz version 2.36.0 (20140111.2315)
 -->
<!-- Title: TBroker Pages: 1 -->
<svg width="152pt" height="294pt"
 viewBox="0.00 0.00 152.00 294.00" xmlns="http://www.w3.org/2000/svg" xmlns:xlink="http://www.w3.org/1999/xlink">
<g id="graph0" class="graph" transform="scale(1 1) rotate(0) translate(4 290)">
<title>TBroker</title>
<polygon fill="white" stroke="none" points="-4,4 -4,-290 148,-290 148,4 -4,4"/>
<!-- Node1 -->
<g id="node1" class="node"><title>Node1</title>
<polygon fill="#bfbfbf" stroke="black" points="23.5,-1 23.5,-157 120.5,-157 120.5,-1 23.5,-1"/>
<text text-anchor="middle" x="72" y="-145" font-family="Helvetica,sans-Serif" font-size="10.00">TBroker</text>
<polyline fill="none" stroke="black" points="23.5,-138 120.5,-138 "/>
<text text-anchor="start" x="31.5" y="-126" font-family="Helvetica,sans-Serif" font-size="10.00">&#45; gkArgsNone</text>
<text text-anchor="start" x="31.5" y="-115" font-family="Helvetica,sans-Serif" font-size="10.00">&#45; gkArgsOneInt</text>
<text text-anchor="start" x="31.5" y="-104" font-family="Helvetica,sans-Serif" font-size="10.00">&#45; gkArgsOneLong</text>
<text text-anchor="start" x="31.5" y="-93" font-family="Helvetica,sans-Serif" font-size="10.00">&#45; gkArgsOneString</text>
<polyline fill="none" stroke="black" points="23.5,-86 120.5,-86 "/>
<text text-anchor="start" x="31.5" y="-74" font-family="Helvetica,sans-Serif" font-size="10.00">+ TBroker()</text>
<text text-anchor="start" x="31.5" y="-63" font-family="Helvetica,sans-Serif" font-size="10.00">+ Broker()</text>
<text text-anchor="start" x="31.5" y="-52" font-family="Helvetica,sans-Serif" font-size="10.00">+ Broker()</text>
<text text-anchor="start" x="31.5" y="-41" font-family="Helvetica,sans-Serif" font-size="10.00">+ Broker()</text>
<text text-anchor="start" x="31.5" y="-30" font-family="Helvetica,sans-Serif" font-size="10.00">+ Broker()</text>
<text text-anchor="start" x="31.5" y="-19" font-family="Helvetica,sans-Serif" font-size="10.00">+ Subscribe()</text>
<text text-anchor="start" x="31.5" y="-8" font-family="Helvetica,sans-Serif" font-size="10.00">&#45; _Broker()</text>
</g>
<!-- Node2 -->
<g id="node2" class="node"><title>Node2</title>
<polygon fill="white" stroke="#bfbfbf" points="0,-206.5 0,-285.5 144,-285.5 144,-206.5 0,-206.5"/>
<text text-anchor="start" x="8" y="-273.5" font-family="Helvetica,sans-Serif" font-size="10.00">TAtomicArrayMap&lt; ppm</text>
<text text-anchor="start" x="8" y="-262.5" font-family="Helvetica,sans-Serif" font-size="10.00">_java.backend.event.TBroker</text>
<text text-anchor="middle" x="72" y="-251.5" font-family="Helvetica,sans-Serif" font-size="10.00">SubscriptionList &gt;</text>
<polyline fill="none" stroke="#bfbfbf" points="0,-244.5 144,-244.5 "/>
<text text-anchor="middle" x="72" y="-232.5" font-family="Helvetica,sans-Serif" font-size="10.00"> </text>
<polyline fill="none" stroke="#bfbfbf" points="0,-225.5 144,-225.5 "/>
<text text-anchor="middle" x="72" y="-213.5" font-family="Helvetica,sans-Serif" font-size="10.00"> </text>
</g>
<!-- Node2&#45;&gt;Node1 -->
<g id="edge1" class="edge"><title>Node2&#45;&gt;Node1</title>
<path fill="none" stroke="#404040" d="M72,-206.315C72,-195.011 72,-182.161 72,-169.09"/>
<polygon fill="none" stroke="#404040" points="72.0001,-169.061 68,-163.061 72,-157.061 76,-163.061 72.0001,-169.061"/>
<text text-anchor="middle" x="106.5" y="-179.5" font-family="Helvetica,sans-Serif" font-size="10.00"> &#45;fSubscriptions</text>
</g>
</g>
</svg>
