<?xml version="1.0" encoding="UTF-8" standalone="no"?>
<!DOCTYPE svg PUBLIC "-//W3C//DTD SVG 1.1//EN"
 "http://www.w3.org/Graphics/SVG/1.1/DTD/svg11.dtd">
<!-- Generated by graphviz version 2.36.0 (20140111.2315)
 -->
<!-- Title: Receive Pages: 1 -->
<svg width="152pt" height="66pt"
 viewBox="0.00 0.00 152.00 66.00" xmlns="http://www.w3.org/2000/svg" xmlns:xlink="http://www.w3.org/1999/xlink">
<g id="graph0" class="graph" transform="scale(1 1) rotate(0) translate(4 62)">
<title>Receive</title>
<polygon fill="white" stroke="none" points="-4,4 -4,-62 148,-62 148,4 -4,4"/>
<!-- Node1 -->
<g id="node1" class="node"><title>Node1</title>
<polygon fill="#bfbfbf" stroke="black" points="0.5,-19.5 0.5,-38.5 53.5,-38.5 53.5,-19.5 0.5,-19.5"/>
<text text-anchor="middle" x="27" y="-26.5" font-family="Helvetica,sans-Serif" font-size="10.00">Receive</text>
</g>
<!-- Node2 -->
<g id="node2" class="node"><title>Node2</title>
<g id="a_node2"><a xlink:href="../../d8/d27/classppm__java_1_1frontend_1_1console_1_1lineargauge_1_1_t_console___linear_gauge___meter_u_i.html#aff66a32fac622795d7fe38de7c657ff7" target="_top" xlink:title="Computes the level bar string for the given level value. ">
<polygon fill="white" stroke="black" points="91,-38.5 91,-57.5 143,-57.5 143,-38.5 91,-38.5"/>
<text text-anchor="middle" x="117" y="-45.5" font-family="Helvetica,sans-Serif" font-size="10.00">_SetBar</text>
</a>
</g>
</g>
<!-- Node1&#45;&gt;Node2 -->
<g id="edge1" class="edge"><title>Node1&#45;&gt;Node2</title>
<path fill="none" stroke="midnightblue" d="M53.9269,-34.5979C62.3992,-36.4271 71.9535,-38.49 80.981,-40.4391"/>
<polygon fill="midnightblue" stroke="midnightblue" points="80.3503,-43.8835 90.8637,-42.5728 81.8276,-37.0411 80.3503,-43.8835"/>
</g>
<!-- Node3 -->
<g id="node3" class="node"><title>Node3</title>
<g id="a_node3"><a xlink:href="../../d8/d27/classppm__java_1_1frontend_1_1console_1_1lineargauge_1_1_t_console___linear_gauge___meter_u_i.html#a1b8513d05c611a6044203da9a16ada2e" target="_top" xlink:title="Sets the level warn and clip indication for the given level value. ">
<polygon fill="white" stroke="black" points="90,-0.5 90,-19.5 144,-19.5 144,-0.5 90,-0.5"/>
<text text-anchor="middle" x="117" y="-7.5" font-family="Helvetica,sans-Serif" font-size="10.00">_SetClip</text>
</a>
</g>
</g>
<!-- Node1&#45;&gt;Node3 -->
<g id="edge2" class="edge"><title>Node1&#45;&gt;Node3</title>
<path fill="none" stroke="midnightblue" d="M53.9269,-23.4021C62.0895,-21.6398 71.2564,-19.6606 79.9888,-17.7751"/>
<polygon fill="midnightblue" stroke="midnightblue" points="80.9182,-21.1552 89.9543,-15.6235 79.4408,-14.3129 80.9182,-21.1552"/>
</g>
</g>
</svg>
