<?xml version="1.0" encoding="UTF-8" standalone="no"?>
<!DOCTYPE svg PUBLIC "-//W3C//DTD SVG 1.1//EN"
 "http://www.w3.org/Graphics/SVG/1.1/DTD/svg11.dtd">
<!-- Generated by graphviz version 2.36.0 (20140111.2315)
 -->
<!-- Title: VAudioPort_Input Pages: 1 -->
<!--zoomable 734 -->
<svg id="main" version="1.1" xmlns="http://www.w3.org/2000/svg" xmlns:xlink="http://www.w3.org/1999/xlink" xml:space="preserve" onload="init(evt)">
<style type="text/css"><![CDATA[
.edge:hover path { stroke: red; }
.edge:hover polygon { stroke: red; fill: red; }
]]></style>
<script type="text/javascript"><![CDATA[
var edges = document.getElementsByTagName('g');
if (edges && edges.length) {
  for (var i=0;i<edges.length;i++) {
    if (edges[i].id.substr(0,4)=='edge') {
      edges[i].setAttribute('class','edge');
    }
  }
}
]]></script>
        <defs>
                <circle id="rim" cx="0" cy="0" r="7"/>
                <circle id="rim2" cx="0" cy="0" r="3.5"/>
                <g id="zoomPlus">
                        <use xlink:href="#rim" fill="#404040">
                                <set attributeName="fill" to="#808080" begin="zoomplus.mouseover" end="zoomplus.mouseout"/>
                        </use>
                        <path d="M-4,0h8M0,-4v8" fill="none" stroke="white" stroke-width="1.5" pointer-events="none"/>
                </g>
                <g id="zoomMin">
                        <use xlink:href="#rim" fill="#404040">
                                <set attributeName="fill" to="#808080" begin="zoomminus.mouseover" end="zoomminus.mouseout"/>
                        </use>
                        <path d="M-4,0h8" fill="none" stroke="white" stroke-width="1.5" pointer-events="none"/>
                </g>
                <g id="dirArrow">
                        <path fill="none" stroke="white" stroke-width="1.5" d="M0,-3.0v7 M-2.5,-0.5L0,-3.0L2.5,-0.5"/>
                </g>
               <g id="resetDef">
                       <use xlink:href="#rim2" fill="#404040">
                               <set attributeName="fill" to="#808080" begin="reset.mouseover" end="reset.mouseout"/>
                       </use>
               </g>
        </defs>

<script type="text/javascript">
var viewWidth = 1713;
var viewHeight = 734;
var sectionId = 'dynsection-0';
</script>
<script xlink:href="../../svgpan.js"/>
<svg id="graph" class="graph">
<g id="viewport">
<title>VAudioPort_Input</title>
<polygon fill="white" stroke="none" points="-4,4 -4,-730 1709,-730 1709,4 -4,4"/>
<!-- Node1 -->
<g id="node1" class="node"><title>Node1</title>
<polygon fill="#bfbfbf" stroke="black" points="538,-320.5 538,-399.5 646,-399.5 646,-320.5 538,-320.5"/>
<text text-anchor="middle" x="592" y="-387.5" font-family="Helvetica,sans-Serif" font-size="10.00">VAudioPort_Input</text>
<polyline fill="none" stroke="black" points="538,-380.5 646,-380.5 "/>
<text text-anchor="start" x="546" y="-368.5" font-family="Helvetica,sans-Serif" font-size="10.00">&#45; fIPort</text>
<polyline fill="none" stroke="black" points="538,-361.5 646,-361.5 "/>
<text text-anchor="start" x="546" y="-349.5" font-family="Helvetica,sans-Serif" font-size="10.00">+ VAudioPort_Input()</text>
<text text-anchor="start" x="546" y="-338.5" font-family="Helvetica,sans-Serif" font-size="10.00">+ GetPortNum()</text>
<text text-anchor="start" x="546" y="-327.5" font-family="Helvetica,sans-Serif" font-size="10.00"># _Accept()</text>
</g>
<!-- Node5 -->
<g id="node5" class="node"><title>Node5</title>
<g id="a_node5"><a xlink:href="../../db/d16/classppm__java_1_1typelib_1_1_v_audio_port___input___chunks___buffered.html" target="_top" xlink:title="Base class for an input port that receives sample chunks. ">
<polygon fill="white" stroke="black" points="286,-138.5 286,-283.5 426,-283.5 426,-138.5 286,-138.5"/>
<text text-anchor="start" x="294" y="-271.5" font-family="Helvetica,sans-Serif" font-size="10.00">VAudioPort_Input_Chunks</text>
<text text-anchor="middle" x="356" y="-260.5" font-family="Helvetica,sans-Serif" font-size="10.00">_Buffered</text>
<polyline fill="none" stroke="black" points="286,-253.5 426,-253.5 "/>
<text text-anchor="start" x="294" y="-241.5" font-family="Helvetica,sans-Serif" font-size="10.00">&#45; fBuffer</text>
<polyline fill="none" stroke="black" points="286,-234.5 426,-234.5 "/>
<text text-anchor="start" x="294" y="-222.5" font-family="Helvetica,sans-Serif" font-size="10.00">+ FetchPacket()</text>
<text text-anchor="start" x="294" y="-211.5" font-family="Helvetica,sans-Serif" font-size="10.00">+ ReceivePacket()</text>
<text text-anchor="start" x="294" y="-200.5" font-family="Helvetica,sans-Serif" font-size="10.00">+ StatsClear()</text>
<text text-anchor="start" x="294" y="-189.5" font-family="Helvetica,sans-Serif" font-size="10.00">+ StatsGet()</text>
<text text-anchor="start" x="294" y="-178.5" font-family="Helvetica,sans-Serif" font-size="10.00"># VAudioPort_Input_Chunks</text>
<text text-anchor="start" x="294" y="-167.5" font-family="Helvetica,sans-Serif" font-size="10.00">_Buffered()</text>
<text text-anchor="start" x="294" y="-156.5" font-family="Helvetica,sans-Serif" font-size="10.00"># _Accept()</text>
<text text-anchor="start" x="294" y="-145.5" font-family="Helvetica,sans-Serif" font-size="10.00"># _GetType()</text>
</a>
</g>
</g>
<!-- Node1&#45;&gt;Node5 -->
<g id="edge4" class="edge"><title>Node1&#45;&gt;Node5</title>
<path fill="none" stroke="midnightblue" d="M529.093,-319.816C497.338,-300.037 458.72,-275.982 426.024,-255.617"/>
<polygon fill="none" stroke="midnightblue" points="527.518,-322.959 537.857,-325.275 531.219,-317.017 527.518,-322.959"/>
</g>
<!-- Node9 -->
<g id="node9" class="node"><title>Node9</title>
<g id="a_node9"><a xlink:href="../../d5/dbd/classppm__java_1_1typelib_1_1_v_audio_port___input___chunks___unbuffered.html" target="_top" xlink:title="Base class for an input port that receives sample chunks. ">
<polygon fill="white" stroke="black" points="522,-155 522,-267 662,-267 662,-155 522,-155"/>
<text text-anchor="start" x="530" y="-255" font-family="Helvetica,sans-Serif" font-size="10.00">VAudioPort_Input_Chunks</text>
<text text-anchor="middle" x="592" y="-244" font-family="Helvetica,sans-Serif" font-size="10.00">_Unbuffered</text>
<polyline fill="none" stroke="black" points="522,-237 662,-237 "/>
<text text-anchor="middle" x="592" y="-225" font-family="Helvetica,sans-Serif" font-size="10.00"> </text>
<polyline fill="none" stroke="black" points="522,-218 662,-218 "/>
<text text-anchor="start" x="530" y="-206" font-family="Helvetica,sans-Serif" font-size="10.00">+ ReceivePacket()</text>
<text text-anchor="start" x="530" y="-195" font-family="Helvetica,sans-Serif" font-size="10.00"># VAudioPort_Input_Chunks</text>
<text text-anchor="start" x="530" y="-184" font-family="Helvetica,sans-Serif" font-size="10.00">_Unbuffered()</text>
<text text-anchor="start" x="530" y="-173" font-family="Helvetica,sans-Serif" font-size="10.00"># _Accept()</text>
<text text-anchor="start" x="530" y="-162" font-family="Helvetica,sans-Serif" font-size="10.00"># _GetType()</text>
</a>
</g>
</g>
<!-- Node1&#45;&gt;Node9 -->
<g id="edge8" class="edge"><title>Node1&#45;&gt;Node9</title>
<path fill="none" stroke="midnightblue" d="M592,-310.148C592,-296.389 592,-281.327 592,-267.224"/>
<polygon fill="none" stroke="midnightblue" points="588.5,-310.377 592,-320.377 595.5,-310.378 588.5,-310.377"/>
</g>
<!-- Node11 -->
<g id="node11" class="node"><title>Node11</title>
<g id="a_node11"><a xlink:href="../../d2/de4/classppm__java_1_1typelib_1_1_v_audio_port___input___samples.html" target="_top" xlink:title="Base class for an input that receives single sample values. ">
<polygon fill="white" stroke="black" points="1030,-166 1030,-256 1182,-256 1182,-166 1030,-166"/>
<text text-anchor="middle" x="1106" y="-244" font-family="Helvetica,sans-Serif" font-size="10.00">VAudioPort_Input_Samples</text>
<polyline fill="none" stroke="black" points="1030,-237 1182,-237 "/>
<text text-anchor="middle" x="1106" y="-225" font-family="Helvetica,sans-Serif" font-size="10.00"> </text>
<polyline fill="none" stroke="black" points="1030,-218 1182,-218 "/>
<text text-anchor="start" x="1038" y="-206" font-family="Helvetica,sans-Serif" font-size="10.00">+ VAudioPort_Input_Samples()</text>
<text text-anchor="start" x="1038" y="-195" font-family="Helvetica,sans-Serif" font-size="10.00">+ ReceiveSample()</text>
<text text-anchor="start" x="1038" y="-184" font-family="Helvetica,sans-Serif" font-size="10.00"># _Accept()</text>
<text text-anchor="start" x="1038" y="-173" font-family="Helvetica,sans-Serif" font-size="10.00"># _GetType()</text>
</a>
</g>
</g>
<!-- Node1&#45;&gt;Node11 -->
<g id="edge10" class="edge"><title>Node1&#45;&gt;Node11</title>
<path fill="none" stroke="midnightblue" d="M655.784,-340.758C750.606,-313.64 928.44,-262.781 1029.92,-233.759"/>
<polygon fill="none" stroke="midnightblue" points="654.688,-337.431 646.036,-343.546 656.612,-344.162 654.688,-337.431"/>
</g>
<!-- Node2 -->
<g id="node2" class="node"><title>Node2</title>
<g id="a_node2"><a xlink:href="../../de/dc9/classppm__java_1_1typelib_1_1_v_audio_port.html" target="_top" xlink:title="Base class for all audio ports. ">
<polygon fill="white" stroke="black" points="551.5,-436.5 551.5,-515.5 632.5,-515.5 632.5,-436.5 551.5,-436.5"/>
<text text-anchor="middle" x="592" y="-503.5" font-family="Helvetica,sans-Serif" font-size="10.00">VAudioPort</text>
<polyline fill="none" stroke="black" points="551.5,-496.5 632.5,-496.5 "/>
<text text-anchor="start" x="559.5" y="-484.5" font-family="Helvetica,sans-Serif" font-size="10.00">&#45; fHost</text>
<polyline fill="none" stroke="black" points="551.5,-477.5 632.5,-477.5 "/>
<text text-anchor="start" x="559.5" y="-465.5" font-family="Helvetica,sans-Serif" font-size="10.00">+ VAudioPort()</text>
<text text-anchor="start" x="559.5" y="-454.5" font-family="Helvetica,sans-Serif" font-size="10.00"># _GetHost()</text>
<text text-anchor="start" x="559.5" y="-443.5" font-family="Helvetica,sans-Serif" font-size="10.00"># _GetType()</text>
</a>
</g>
</g>
<!-- Node2&#45;&gt;Node1 -->
<g id="edge1" class="edge"><title>Node2&#45;&gt;Node1</title>
<path fill="none" stroke="midnightblue" d="M592,-426.146C592,-417.256 592,-408.096 592,-399.555"/>
<polygon fill="none" stroke="midnightblue" points="588.5,-426.405 592,-436.405 595.5,-426.405 588.5,-426.405"/>
</g>
<!-- Node3 -->
<g id="node3" class="node"><title>Node3</title>
<g id="a_node3"><a xlink:href="../../d1/db3/classppm__java_1_1typelib_1_1_v_audio_object.html" target="_top" xlink:title="Base class for all browseable audio objects. ">
<polygon fill="white" stroke="black" points="546,-552.5 546,-609.5 638,-609.5 638,-552.5 546,-552.5"/>
<text text-anchor="middle" x="592" y="-597.5" font-family="Helvetica,sans-Serif" font-size="10.00">VAudioObject</text>
<polyline fill="none" stroke="black" points="546,-590.5 638,-590.5 "/>
<text text-anchor="middle" x="592" y="-578.5" font-family="Helvetica,sans-Serif" font-size="10.00"> </text>
<polyline fill="none" stroke="black" points="546,-571.5 638,-571.5 "/>
<text text-anchor="start" x="554" y="-559.5" font-family="Helvetica,sans-Serif" font-size="10.00">+ VAudioObject()</text>
</a>
</g>
</g>
<!-- Node3&#45;&gt;Node2 -->
<g id="edge2" class="edge"><title>Node3&#45;&gt;Node2</title>
<path fill="none" stroke="midnightblue" d="M592,-542.156C592,-533.473 592,-524.232 592,-515.52"/>
<polygon fill="none" stroke="midnightblue" points="588.5,-542.398 592,-552.398 595.5,-542.398 588.5,-542.398"/>
</g>
<!-- Node4 -->
<g id="node4" class="node"><title>Node4</title>
<g id="a_node4"><a xlink:href="../../de/dd1/classppm__java_1_1typelib_1_1_v_browseable.html" target="_top" xlink:title="Base class for all browseable objects. ">
<polygon fill="white" stroke="black" points="547.5,-646.5 547.5,-725.5 636.5,-725.5 636.5,-646.5 547.5,-646.5"/>
<text text-anchor="middle" x="592" y="-713.5" font-family="Helvetica,sans-Serif" font-size="10.00">VBrowseable</text>
<polyline fill="none" stroke="black" points="547.5,-706.5 636.5,-706.5 "/>
<text text-anchor="start" x="555.5" y="-694.5" font-family="Helvetica,sans-Serif" font-size="10.00">&#45; fID</text>
<polyline fill="none" stroke="black" points="547.5,-687.5 636.5,-687.5 "/>
<text text-anchor="start" x="555.5" y="-675.5" font-family="Helvetica,sans-Serif" font-size="10.00">+ VBrowseable()</text>
<text text-anchor="start" x="555.5" y="-664.5" font-family="Helvetica,sans-Serif" font-size="10.00">+ GetID()</text>
<text text-anchor="start" x="555.5" y="-653.5" font-family="Helvetica,sans-Serif" font-size="10.00"># _Register()</text>
</a>
</g>
</g>
<!-- Node4&#45;&gt;Node3 -->
<g id="edge3" class="edge"><title>Node4&#45;&gt;Node3</title>
<path fill="none" stroke="midnightblue" d="M592,-636.163C592,-627.04 592,-617.806 592,-609.61"/>
<polygon fill="none" stroke="midnightblue" points="588.5,-636.354 592,-646.354 595.5,-636.354 588.5,-636.354"/>
</g>
<!-- Node6 -->
<g id="node6" class="node"><title>Node6</title>
<g id="a_node6"><a xlink:href="../../d2/d9c/classppm__java_1_1backend_1_1module_1_1__deprecated__ppm_1_1_t_node_p_p_m_processor___endpoint___in.html" target="_top" xlink:title="Audio input port for a TNodePPMProcessor. ">
<polygon fill="white" stroke="black" points="-0.5,-17 -0.5,-85 182.5,-85 182.5,-17 -0.5,-17"/>
<text text-anchor="middle" x="91" y="-73" font-family="Helvetica,sans-Serif" font-size="10.00">TNodePPMProcessor_Endpoint_In</text>
<polyline fill="none" stroke="black" points="-0.5,-66 182.5,-66 "/>
<text text-anchor="middle" x="91" y="-54" font-family="Helvetica,sans-Serif" font-size="10.00"> </text>
<polyline fill="none" stroke="black" points="-0.5,-47 182.5,-47 "/>
<text text-anchor="start" x="7.5" y="-35" font-family="Helvetica,sans-Serif" font-size="10.00"># TNodePPMProcessor_Endpoint_In()</text>
<text text-anchor="start" x="7.5" y="-24" font-family="Helvetica,sans-Serif" font-size="10.00"># _Register()</text>
</a>
</g>
</g>
<!-- Node5&#45;&gt;Node6 -->
<g id="edge5" class="edge"><title>Node5&#45;&gt;Node6</title>
<path fill="none" stroke="midnightblue" d="M276.86,-162.814C234.875,-137.782 184.31,-107.634 146.527,-85.1069"/>
<polygon fill="none" stroke="midnightblue" points="275.299,-165.959 285.681,-168.074 278.884,-159.946 275.299,-165.959"/>
</g>
<!-- Node7 -->
<g id="node7" class="node"><title>Node7</title>
<g id="a_node7"><a xlink:href="../../db/d6c/classppm__java_1_1backend_1_1module_1_1jackd_1_1_t_audio_context___endpoint___in.html" target="_top" xlink:title="Audio input port for a TAudioContext_JackD. ">
<polygon fill="white" stroke="black" points="200.5,-17 200.5,-85 353.5,-85 353.5,-17 200.5,-17"/>
<text text-anchor="middle" x="277" y="-73" font-family="Helvetica,sans-Serif" font-size="10.00">TAudioContext_Endpoint_In</text>
<polyline fill="none" stroke="black" points="200.5,-66 353.5,-66 "/>
<text text-anchor="middle" x="277" y="-54" font-family="Helvetica,sans-Serif" font-size="10.00"> </text>
<polyline fill="none" stroke="black" points="200.5,-47 353.5,-47 "/>
<text text-anchor="start" x="208.5" y="-35" font-family="Helvetica,sans-Serif" font-size="10.00"># TAudioContext_Endpoint_In()</text>
<text text-anchor="start" x="208.5" y="-24" font-family="Helvetica,sans-Serif" font-size="10.00"># _Register()</text>
</a>
</g>
</g>
<!-- Node5&#45;&gt;Node7 -->
<g id="edge6" class="edge"><title>Node5&#45;&gt;Node7</title>
<path fill="none" stroke="midnightblue" d="M315.604,-129.208C307.794,-113.588 300.031,-98.0624 293.537,-85.0739"/>
<polygon fill="none" stroke="midnightblue" points="312.596,-131.018 320.198,-138.397 318.857,-127.887 312.596,-131.018"/>
</g>
<!-- Node8 -->
<g id="node8" class="node"><title>Node8</title>
<g id="a_node8"><a xlink:href="../../d3/d99/classppm__java_1_1backend_1_1module_1_1pump_1_1_t_node_pump___endpoint___in.html" target="_top" xlink:title="Audio input port for a TNodePump. ">
<polygon fill="white" stroke="black" points="371.5,-17 371.5,-85 514.5,-85 514.5,-17 371.5,-17"/>
<text text-anchor="middle" x="443" y="-73" font-family="Helvetica,sans-Serif" font-size="10.00">TNodePump_Endpoint_In</text>
<polyline fill="none" stroke="black" points="371.5,-66 514.5,-66 "/>
<text text-anchor="middle" x="443" y="-54" font-family="Helvetica,sans-Serif" font-size="10.00"> </text>
<polyline fill="none" stroke="black" points="371.5,-47 514.5,-47 "/>
<text text-anchor="start" x="379.5" y="-35" font-family="Helvetica,sans-Serif" font-size="10.00"># TNodePump_Endpoint_In()</text>
<text text-anchor="start" x="379.5" y="-24" font-family="Helvetica,sans-Serif" font-size="10.00"># _Register()</text>
</a>
</g>
</g>
<!-- Node5&#45;&gt;Node8 -->
<g id="edge7" class="edge"><title>Node5&#45;&gt;Node8</title>
<path fill="none" stroke="midnightblue" d="M400.487,-129.208C409.087,-113.588 417.637,-98.0624 424.788,-85.0739"/>
<polygon fill="none" stroke="midnightblue" points="397.185,-127.949 395.427,-138.397 403.317,-131.325 397.185,-127.949"/>
</g>
<!-- Node10 -->
<g id="node10" class="node"><title>Node10</title>
<g id="a_node10"><a xlink:href="../../d8/d7e/classppm__java_1_1backend_1_1module_1_1peak__estimator_1_1_t_node_peak_estimator___endpoint___in.html" target="_top" xlink:title="Audio input port for a TNodePeakEstimator. ">
<polygon fill="white" stroke="black" points="532.5,-0.5 532.5,-101.5 651.5,-101.5 651.5,-0.5 532.5,-0.5"/>
<text text-anchor="start" x="540.5" y="-89.5" font-family="Helvetica,sans-Serif" font-size="10.00">TNodePeakEstimator</text>
<text text-anchor="middle" x="592" y="-78.5" font-family="Helvetica,sans-Serif" font-size="10.00">_Endpoint_In</text>
<polyline fill="none" stroke="black" points="532.5,-71.5 651.5,-71.5 "/>
<text text-anchor="middle" x="592" y="-59.5" font-family="Helvetica,sans-Serif" font-size="10.00"> </text>
<polyline fill="none" stroke="black" points="532.5,-52.5 651.5,-52.5 "/>
<text text-anchor="start" x="540.5" y="-40.5" font-family="Helvetica,sans-Serif" font-size="10.00">+ ReceivePacket()</text>
<text text-anchor="start" x="540.5" y="-29.5" font-family="Helvetica,sans-Serif" font-size="10.00"># TNodePeakEstimator</text>
<text text-anchor="start" x="540.5" y="-18.5" font-family="Helvetica,sans-Serif" font-size="10.00">_Endpoint_In()</text>
<text text-anchor="start" x="540.5" y="-7.5" font-family="Helvetica,sans-Serif" font-size="10.00"># _Register()</text>
</a>
</g>
</g>
<!-- Node9&#45;&gt;Node10 -->
<g id="edge9" class="edge"><title>Node9&#45;&gt;Node10</title>
<path fill="none" stroke="midnightblue" d="M592,-144.461C592,-130.159 592,-115.252 592,-101.687"/>
<polygon fill="none" stroke="midnightblue" points="588.5,-144.739 592,-154.739 595.5,-144.739 588.5,-144.739"/>
</g>
<!-- Node12 -->
<g id="node12" class="node"><title>Node12</title>
<g id="a_node12"><a xlink:href="../../d4/d95/classppm__java_1_1backend_1_1module_1_1converter__db_1_1_t_node_converter_db___endpoint___in.html" target="_top" xlink:title="Audio input port for a TNodeConverterDb. ">
<polygon fill="white" stroke="black" points="669.5,-11.5 669.5,-90.5 842.5,-90.5 842.5,-11.5 669.5,-11.5"/>
<text text-anchor="middle" x="756" y="-78.5" font-family="Helvetica,sans-Serif" font-size="10.00">TNodeConverterDb_Endpoint_In</text>
<polyline fill="none" stroke="black" points="669.5,-71.5 842.5,-71.5 "/>
<text text-anchor="middle" x="756" y="-59.5" font-family="Helvetica,sans-Serif" font-size="10.00"> </text>
<polyline fill="none" stroke="black" points="669.5,-52.5 842.5,-52.5 "/>
<text text-anchor="start" x="677.5" y="-40.5" font-family="Helvetica,sans-Serif" font-size="10.00">+ TNodeConverterDb_Endpoint_In()</text>
<text text-anchor="start" x="677.5" y="-29.5" font-family="Helvetica,sans-Serif" font-size="10.00">+ ReceiveSample()</text>
<text text-anchor="start" x="677.5" y="-18.5" font-family="Helvetica,sans-Serif" font-size="10.00"># _Register()</text>
</a>
</g>
</g>
<!-- Node11&#45;&gt;Node12 -->
<g id="edge11" class="edge"><title>Node11&#45;&gt;Node12</title>
<path fill="none" stroke="midnightblue" d="M1020.48,-175.878C970.595,-155.453 906.713,-128.403 851,-102 843.421,-98.4083 835.571,-94.5343 827.78,-90.5883"/>
<polygon fill="none" stroke="midnightblue" points="1019.37,-179.203 1029.95,-179.743 1022.01,-172.722 1019.37,-179.203"/>
</g>
<!-- Node13 -->
<g id="node13" class="node"><title>Node13</title>
<g id="a_node13"><a xlink:href="../../dd/dee/classppm__java_1_1backend_1_1module_1_1integrator_1_1_t_node_integrator___p_p_m_ballistics___endpoint___in.html" target="_top" xlink:title="Audio input port for a TNodeIntegrator_PPMBallistics. ">
<polygon fill="white" stroke="black" points="860.5,-0.5 860.5,-101.5 1023.5,-101.5 1023.5,-0.5 860.5,-0.5"/>
<text text-anchor="start" x="868.5" y="-89.5" font-family="Helvetica,sans-Serif" font-size="10.00">TNodeIntegrator_PPMBallistics</text>
<text text-anchor="middle" x="942" y="-78.5" font-family="Helvetica,sans-Serif" font-size="10.00">_Endpoint_In</text>
<polyline fill="none" stroke="black" points="860.5,-71.5 1023.5,-71.5 "/>
<text text-anchor="middle" x="942" y="-59.5" font-family="Helvetica,sans-Serif" font-size="10.00"> </text>
<polyline fill="none" stroke="black" points="860.5,-52.5 1023.5,-52.5 "/>
<text text-anchor="start" x="868.5" y="-40.5" font-family="Helvetica,sans-Serif" font-size="10.00">+ TNodeIntegrator_PPMBallistics</text>
<text text-anchor="start" x="868.5" y="-29.5" font-family="Helvetica,sans-Serif" font-size="10.00">_Endpoint_In()</text>
<text text-anchor="start" x="868.5" y="-18.5" font-family="Helvetica,sans-Serif" font-size="10.00">+ ReceiveSample()</text>
<text text-anchor="start" x="868.5" y="-7.5" font-family="Helvetica,sans-Serif" font-size="10.00"># _Register()</text>
</a>
</g>
</g>
<!-- Node11&#45;&gt;Node13 -->
<g id="edge12" class="edge"><title>Node11&#45;&gt;Node13</title>
<path fill="none" stroke="midnightblue" d="M1052.87,-158.815C1033.83,-140.469 1012.4,-119.829 993.502,-101.618"/>
<polygon fill="none" stroke="midnightblue" points="1050.69,-161.571 1060.32,-165.988 1055.54,-156.529 1050.69,-161.571"/>
</g>
<!-- Node14 -->
<g id="node14" class="node"><title>Node14</title>
<g id="a_node14"><a xlink:href="../../d5/d31/classppm__java_1_1frontend_1_1console_1_1lineargauge_1_1_t_console___linear_gauge___endpoint___in.html" target="_top" xlink:title="Audio input port for a TConsole_LinearGauge. ">
<polygon fill="white" stroke="black" points="1042,-0.5 1042,-101.5 1170,-101.5 1170,-0.5 1042,-0.5"/>
<text text-anchor="start" x="1050" y="-89.5" font-family="Helvetica,sans-Serif" font-size="10.00">TConsole_LinearGauge</text>
<text text-anchor="middle" x="1106" y="-78.5" font-family="Helvetica,sans-Serif" font-size="10.00">_Endpoint_In</text>
<polyline fill="none" stroke="black" points="1042,-71.5 1170,-71.5 "/>
<text text-anchor="middle" x="1106" y="-59.5" font-family="Helvetica,sans-Serif" font-size="10.00"> </text>
<polyline fill="none" stroke="black" points="1042,-52.5 1170,-52.5 "/>
<text text-anchor="start" x="1050" y="-40.5" font-family="Helvetica,sans-Serif" font-size="10.00">+ TConsole_LinearGauge</text>
<text text-anchor="start" x="1050" y="-29.5" font-family="Helvetica,sans-Serif" font-size="10.00">_Endpoint_In()</text>
<text text-anchor="start" x="1050" y="-18.5" font-family="Helvetica,sans-Serif" font-size="10.00">+ ReceiveSample()</text>
<text text-anchor="start" x="1050" y="-7.5" font-family="Helvetica,sans-Serif" font-size="10.00"># _Register()</text>
</a>
</g>
</g>
<!-- Node11&#45;&gt;Node14 -->
<g id="edge13" class="edge"><title>Node11&#45;&gt;Node14</title>
<path fill="none" stroke="midnightblue" d="M1106,-155.874C1106,-138.284 1106,-118.862 1106,-101.618"/>
<polygon fill="none" stroke="midnightblue" points="1102.5,-155.988 1106,-165.988 1109.5,-155.988 1102.5,-155.988"/>
</g>
<!-- Node15 -->
<g id="node15" class="node"><title>Node15</title>
<g id="a_node15"><a xlink:href="../../d9/d7c/classppm__java_1_1frontend_1_1console_1_1text_1_1_t_console___text_out___endpoint___in.html" target="_top" xlink:title="Audio input port for a TConsole_TextOut. ">
<polygon fill="white" stroke="black" points="1188.5,-11.5 1188.5,-90.5 1359.5,-90.5 1359.5,-11.5 1188.5,-11.5"/>
<text text-anchor="middle" x="1274" y="-78.5" font-family="Helvetica,sans-Serif" font-size="10.00">TConsole_TextOut_Endpoint_In</text>
<polyline fill="none" stroke="black" points="1188.5,-71.5 1359.5,-71.5 "/>
<text text-anchor="middle" x="1274" y="-59.5" font-family="Helvetica,sans-Serif" font-size="10.00"> </text>
<polyline fill="none" stroke="black" points="1188.5,-52.5 1359.5,-52.5 "/>
<text text-anchor="start" x="1196.5" y="-40.5" font-family="Helvetica,sans-Serif" font-size="10.00">+ TConsole_TextOut_Endpoint_In()</text>
<text text-anchor="start" x="1196.5" y="-29.5" font-family="Helvetica,sans-Serif" font-size="10.00">+ ReceiveSample()</text>
<text text-anchor="start" x="1196.5" y="-18.5" font-family="Helvetica,sans-Serif" font-size="10.00"># _Register()</text>
</a>
</g>
</g>
<!-- Node11&#45;&gt;Node15 -->
<g id="edge14" class="edge"><title>Node11&#45;&gt;Node15</title>
<path fill="none" stroke="midnightblue" d="M1160.31,-158.92C1183.88,-136.754 1211.03,-111.223 1232.88,-90.6685"/>
<polygon fill="none" stroke="midnightblue" points="1157.68,-156.588 1152.8,-165.988 1162.48,-161.687 1157.68,-156.588"/>
</g>
<!-- Node16 -->
<g id="node16" class="node"><title>Node16</title>
<g id="a_node16"><a xlink:href="../../d9/d1a/classppm__java_1_1frontend_1_1gui_1_1lineargauge_1_1_t_g_u_i_linear_gauge___endpoint___in.html" target="_top" xlink:title="Audio input port for a TGUILinearGauge_Surrogate. ">
<polygon fill="white" stroke="black" points="1377.5,-11.5 1377.5,-90.5 1544.5,-90.5 1544.5,-11.5 1377.5,-11.5"/>
<text text-anchor="middle" x="1461" y="-78.5" font-family="Helvetica,sans-Serif" font-size="10.00">TGUILinearGauge_Endpoint_In</text>
<polyline fill="none" stroke="black" points="1377.5,-71.5 1544.5,-71.5 "/>
<text text-anchor="middle" x="1461" y="-59.5" font-family="Helvetica,sans-Serif" font-size="10.00"> </text>
<polyline fill="none" stroke="black" points="1377.5,-52.5 1544.5,-52.5 "/>
<text text-anchor="start" x="1385.5" y="-40.5" font-family="Helvetica,sans-Serif" font-size="10.00">+ TGUILinearGauge_Endpoint_In()</text>
<text text-anchor="start" x="1385.5" y="-29.5" font-family="Helvetica,sans-Serif" font-size="10.00">+ ReceiveSample()</text>
<text text-anchor="start" x="1385.5" y="-18.5" font-family="Helvetica,sans-Serif" font-size="10.00"># _Register()</text>
</a>
</g>
</g>
<!-- Node11&#45;&gt;Node16 -->
<g id="edge15" class="edge"><title>Node11&#45;&gt;Node16</title>
<path fill="none" stroke="midnightblue" d="M1191.74,-177.224C1243.38,-156.852 1310.13,-129.398 1368,-102 1375.54,-98.4311 1383.34,-94.5514 1391.06,-90.5841"/>
<polygon fill="none" stroke="midnightblue" points="1190.31,-174.028 1182.28,-180.944 1192.87,-180.542 1190.31,-174.028"/>
</g>
<!-- Node17 -->
<g id="node17" class="node"><title>Node17</title>
<g id="a_node17"><a xlink:href="../../d7/d0d/classppm__java_1_1frontend_1_1gui_1_1needle_1_1_t_g_u_i_needle___endpoint___in.html" target="_top" xlink:title="Audio input port for a TGUINeedle_Surrogate. ">
<polygon fill="white" stroke="black" points="1562.5,-11.5 1562.5,-90.5 1705.5,-90.5 1705.5,-11.5 1562.5,-11.5"/>
<text text-anchor="middle" x="1634" y="-78.5" font-family="Helvetica,sans-Serif" font-size="10.00">TGUINeedle_Endpoint_In</text>
<polyline fill="none" stroke="black" points="1562.5,-71.5 1705.5,-71.5 "/>
<text text-anchor="middle" x="1634" y="-59.5" font-family="Helvetica,sans-Serif" font-size="10.00"> </text>
<polyline fill="none" stroke="black" points="1562.5,-52.5 1705.5,-52.5 "/>
<text text-anchor="start" x="1570.5" y="-40.5" font-family="Helvetica,sans-Serif" font-size="10.00">+ TGUINeedle_Endpoint_In()</text>
<text text-anchor="start" x="1570.5" y="-29.5" font-family="Helvetica,sans-Serif" font-size="10.00">+ ReceiveSample()</text>
<text text-anchor="start" x="1570.5" y="-18.5" font-family="Helvetica,sans-Serif" font-size="10.00"># _Register()</text>
</a>
</g>
</g>
<!-- Node11&#45;&gt;Node17 -->
<g id="edge16" class="edge"><title>Node11&#45;&gt;Node17</title>
<path fill="none" stroke="midnightblue" d="M1192.33,-197.463C1284.27,-182.222 1432.79,-152.124 1553,-102 1560.78,-98.7564 1568.67,-94.8207 1576.33,-90.5975"/>
<polygon fill="none" stroke="midnightblue" points="1191.54,-194.046 1182.24,-199.115 1192.67,-200.954 1191.54,-194.046"/>
</g>
</g>
</svg>
        <g id="navigator" transform="translate(0 0)" fill="#404254">
                <rect fill="#f2f5e9" fill-opacity="0.5" stroke="#606060" stroke-width=".5" x="0" y="0" width="60" height="60"/>
                <use id="zoomplus" xlink:href="#zoomPlus" x="17" y="9" onmousedown="handleZoom(evt,'in')"/>
                <use id="zoomminus" xlink:href="#zoomMin" x="42" y="9" onmousedown="handleZoom(evt,'out')"/>
                <use id="reset" xlink:href="#resetDef" x="30" y="36" onmousedown="handleReset()"/>
                <g id="arrowUp" xlink:href="#dirArrow" transform="translate(30 24)" onmousedown="handlePan(0,-1)">
                  <use xlink:href="#rim" fill="#404040">
                        <set attributeName="fill" to="#808080" begin="arrowUp.mouseover" end="arrowUp.mouseout"/>
                  </use>
                  <path fill="none" stroke="white" stroke-width="1.5" d="M0,-3.0v7 M-2.5,-0.5L0,-3.0L2.5,-0.5"/>
                </g>
                <g id="arrowRight" xlink:href="#dirArrow" transform="rotate(90) translate(36 -43)" onmousedown="handlePan(1,0)">
                  <use xlink:href="#rim" fill="#404040">
                        <set attributeName="fill" to="#808080" begin="arrowRight.mouseover" end="arrowRight.mouseout"/>
                  </use>
                  <path fill="none" stroke="white" stroke-width="1.5" d="M0,-3.0v7 M-2.5,-0.5L0,-3.0L2.5,-0.5"/>
                </g>
                <g id="arrowDown" xlink:href="#dirArrow" transform="rotate(180) translate(-30 -48)" onmousedown="handlePan(0,1)">
                  <use xlink:href="#rim" fill="#404040">
                        <set attributeName="fill" to="#808080" begin="arrowDown.mouseover" end="arrowDown.mouseout"/>
                  </use>
                  <path fill="none" stroke="white" stroke-width="1.5" d="M0,-3.0v7 M-2.5,-0.5L0,-3.0L2.5,-0.5"/>
                </g>
                <g id="arrowLeft" xlink:href="#dirArrow" transform="rotate(270) translate(-36 17)" onmousedown="handlePan(-1,0)">
                  <use xlink:href="#rim" fill="#404040">
                        <set attributeName="fill" to="#808080" begin="arrowLeft.mouseover" end="arrowLeft.mouseout"/>
                  </use>
                  <path fill="none" stroke="white" stroke-width="1.5" d="M0,-3.0v7 M-2.5,-0.5L0,-3.0L2.5,-0.5"/>
                </g>
        </g>
        <svg viewBox="0 0 15 15" width="100%" height="30px" preserveAspectRatio="xMaxYMin meet">
         <g id="arrow_out" transform="scale(0.3 0.3)">
          <a xlink:href="classppm__java_1_1typelib_1_1_v_audio_port___input__inherit__graph_org.svg" target="_base">
           <rect id="button" ry="5" rx="5" y="6" x="6" height="38" width="38"
                fill="#f2f5e9" fill-opacity="0.5" stroke="#606060" stroke-width="1.0"/>
           <path id="arrow"
             d="M 11.500037,31.436501 C 11.940474,20.09759 22.043105,11.32322 32.158766,21.979434 L 37.068811,17.246167 C 37.068811,17.246167 37.088388,32 37.088388,32 L 22.160133,31.978069 C 22.160133,31.978069 26.997745,27.140456 26.997745,27.140456 C 18.528582,18.264221 13.291696,25.230495 11.500037,31.436501 z"
             style="fill:#404040;"/>
          </a>
         </g>
        </svg>
</svg>
