<?xml version="1.0" encoding="UTF-8" standalone="no"?>
<!DOCTYPE svg PUBLIC "-//W3C//DTD SVG 1.1//EN"
 "http://www.w3.org/Graphics/SVG/1.1/DTD/svg11.dtd">
<!-- Generated by graphviz version 2.36.0 (20140111.2315)
 -->
<!-- Title: TTimerDebugUpdate Pages: 1 -->
<svg width="149pt" height="216pt"
 viewBox="0.00 0.00 149.00 216.00" xmlns="http://www.w3.org/2000/svg" xmlns:xlink="http://www.w3.org/1999/xlink">
<g id="graph0" class="graph" transform="scale(1 1) rotate(0) translate(4 212)">
<title>TTimerDebugUpdate</title>
<polygon fill="white" stroke="none" points="-4,4 -4,-212 145,-212 145,4 -4,4"/>
<!-- Node1 -->
<g id="node1" class="node"><title>Node1</title>
<polygon fill="#bfbfbf" stroke="black" points="2,-0.5 2,-101.5 124,-101.5 124,-0.5 2,-0.5"/>
<text text-anchor="middle" x="63" y="-89.5" font-family="Helvetica,sans-Serif" font-size="10.00">TTimerDebugUpdate</text>
<polyline fill="none" stroke="black" points="2,-82.5 124,-82.5 "/>
<text text-anchor="start" x="10" y="-70.5" font-family="Helvetica,sans-Serif" font-size="10.00">&#45; gkFlagRun</text>
<text text-anchor="start" x="10" y="-59.5" font-family="Helvetica,sans-Serif" font-size="10.00">&#45; gkFlagStop</text>
<text text-anchor="start" x="10" y="-48.5" font-family="Helvetica,sans-Serif" font-size="10.00">&#45; gkInterval</text>
<polyline fill="none" stroke="black" points="2,-41.5 124,-41.5 "/>
<text text-anchor="start" x="10" y="-29.5" font-family="Helvetica,sans-Serif" font-size="10.00">+ TTimerDebugUpdate()</text>
<text text-anchor="start" x="10" y="-18.5" font-family="Helvetica,sans-Serif" font-size="10.00">+ Stop()</text>
<text text-anchor="start" x="10" y="-7.5" font-family="Helvetica,sans-Serif" font-size="10.00">+ run()</text>
</g>
<!-- Node2 -->
<g id="node2" class="node"><title>Node2</title>
<polygon fill="white" stroke="#bfbfbf" points="-0.5,-150.5 -0.5,-207.5 46.5,-207.5 46.5,-150.5 -0.5,-150.5"/>
<text text-anchor="middle" x="23" y="-195.5" font-family="Helvetica,sans-Serif" font-size="10.00">Thread</text>
<polyline fill="none" stroke="#bfbfbf" points="-0.5,-188.5 46.5,-188.5 "/>
<text text-anchor="middle" x="23" y="-176.5" font-family="Helvetica,sans-Serif" font-size="10.00"> </text>
<polyline fill="none" stroke="#bfbfbf" points="-0.5,-169.5 46.5,-169.5 "/>
<text text-anchor="middle" x="23" y="-157.5" font-family="Helvetica,sans-Serif" font-size="10.00"> </text>
</g>
<!-- Node2&#45;&gt;Node1 -->
<g id="edge1" class="edge"><title>Node2&#45;&gt;Node1</title>
<path fill="none" stroke="midnightblue" d="M34.8982,-140.521C38.7681,-128.33 43.1251,-114.606 47.2324,-101.668"/>
<polygon fill="none" stroke="midnightblue" points="31.4681,-139.758 31.7782,-150.349 38.14,-141.877 31.4681,-139.758"/>
</g>
<!-- Node3 -->
<g id="node3" class="node"><title>Node3</title>
<polygon fill="white" stroke="#bfbfbf" points="64.5,-150.5 64.5,-207.5 141.5,-207.5 141.5,-150.5 64.5,-150.5"/>
<text text-anchor="middle" x="103" y="-195.5" font-family="Helvetica,sans-Serif" font-size="10.00">AtomicInteger</text>
<polyline fill="none" stroke="#bfbfbf" points="64.5,-188.5 141.5,-188.5 "/>
<text text-anchor="middle" x="103" y="-176.5" font-family="Helvetica,sans-Serif" font-size="10.00"> </text>
<polyline fill="none" stroke="#bfbfbf" points="64.5,-169.5 141.5,-169.5 "/>
<text text-anchor="middle" x="103" y="-157.5" font-family="Helvetica,sans-Serif" font-size="10.00"> </text>
</g>
<!-- Node3&#45;&gt;Node1 -->
<g id="edge2" class="edge"><title>Node3&#45;&gt;Node1</title>
<path fill="none" stroke="#404040" d="M94.2218,-150.349C90.7532,-139.423 86.6187,-126.399 82.5117,-113.462"/>
<polygon fill="none" stroke="#404040" points="82.3986,-113.105 76.7706,-108.597 78.7676,-101.668 84.3956,-106.176 82.3986,-113.105"/>
<text text-anchor="middle" x="107" y="-123.5" font-family="Helvetica,sans-Serif" font-size="10.00"> &#45;fDoRun</text>
</g>
</g>
</svg>
