<?xml version="1.0" encoding="UTF-8" standalone="no"?>
<!DOCTYPE svg PUBLIC "-//W3C//DTD SVG 1.1//EN"
 "http://www.w3.org/Graphics/SVG/1.1/DTD/svg11.dtd">
<!-- Generated by graphviz version 2.36.0 (20140111.2315)
 -->
<!-- Title: TConsole_LinearGauge_Endpoint_In Pages: 1 -->
<!--zoomable 680 -->
<svg id="main" version="1.1" xmlns="http://www.w3.org/2000/svg" xmlns:xlink="http://www.w3.org/1999/xlink" xml:space="preserve" onload="init(evt)">
<style type="text/css"><![CDATA[
.edge:hover path { stroke: red; }
.edge:hover polygon { stroke: red; fill: red; }
]]></style>
<script type="text/javascript"><![CDATA[
var edges = document.getElementsByTagName('g');
if (edges && edges.length) {
  for (var i=0;i<edges.length;i++) {
    if (edges[i].id.substr(0,4)=='edge') {
      edges[i].setAttribute('class','edge');
    }
  }
}
]]></script>
        <defs>
                <circle id="rim" cx="0" cy="0" r="7"/>
                <circle id="rim2" cx="0" cy="0" r="3.5"/>
                <g id="zoomPlus">
                        <use xlink:href="#rim" fill="#404040">
                                <set attributeName="fill" to="#808080" begin="zoomplus.mouseover" end="zoomplus.mouseout"/>
                        </use>
                        <path d="M-4,0h8M0,-4v8" fill="none" stroke="white" stroke-width="1.5" pointer-events="none"/>
                </g>
                <g id="zoomMin">
                        <use xlink:href="#rim" fill="#404040">
                                <set attributeName="fill" to="#808080" begin="zoomminus.mouseover" end="zoomminus.mouseout"/>
                        </use>
                        <path d="M-4,0h8" fill="none" stroke="white" stroke-width="1.5" pointer-events="none"/>
                </g>
                <g id="dirArrow">
                        <path fill="none" stroke="white" stroke-width="1.5" d="M0,-3.0v7 M-2.5,-0.5L0,-3.0L2.5,-0.5"/>
                </g>
               <g id="resetDef">
                       <use xlink:href="#rim2" fill="#404040">
                               <set attributeName="fill" to="#808080" begin="reset.mouseover" end="reset.mouseout"/>
                       </use>
               </g>
        </defs>

<script type="text/javascript">
var viewWidth = 160;
var viewHeight = 680;
var sectionId = 'dynsection-0';
</script>
<script xlink:href="../../svgpan.js"/>
<svg id="graph" class="graph">
<g id="viewport">
<title>TConsole_LinearGauge_Endpoint_In</title>
<polygon fill="white" stroke="none" points="-4,4 -4,-676 156,-676 156,4 -4,4"/>
<!-- Node1 -->
<g id="node1" class="node"><title>Node1</title>
<polygon fill="#bfbfbf" stroke="black" points="12,-0.5 12,-101.5 140,-101.5 140,-0.5 12,-0.5"/>
<text text-anchor="start" x="20" y="-89.5" font-family="Helvetica,sans-Serif" font-size="10.00">TConsole_LinearGauge</text>
<text text-anchor="middle" x="76" y="-78.5" font-family="Helvetica,sans-Serif" font-size="10.00">_Endpoint_In</text>
<polyline fill="none" stroke="black" points="12,-71.5 140,-71.5 "/>
<text text-anchor="middle" x="76" y="-59.5" font-family="Helvetica,sans-Serif" font-size="10.00"> </text>
<polyline fill="none" stroke="black" points="12,-52.5 140,-52.5 "/>
<text text-anchor="start" x="20" y="-40.5" font-family="Helvetica,sans-Serif" font-size="10.00">+ TConsole_LinearGauge</text>
<text text-anchor="start" x="20" y="-29.5" font-family="Helvetica,sans-Serif" font-size="10.00">_Endpoint_In()</text>
<text text-anchor="start" x="20" y="-18.5" font-family="Helvetica,sans-Serif" font-size="10.00">+ ReceiveSample()</text>
<text text-anchor="start" x="20" y="-7.5" font-family="Helvetica,sans-Serif" font-size="10.00"># _Register()</text>
</g>
<!-- Node2 -->
<g id="node2" class="node"><title>Node2</title>
<g id="a_node2"><a xlink:href="../../d2/de4/classppm__java_1_1typelib_1_1_v_audio_port___input___samples.html" target="_top" xlink:title="Base class for an input that receives single sample values. ">
<polygon fill="white" stroke="black" points="0,-139 0,-229 152,-229 152,-139 0,-139"/>
<text text-anchor="middle" x="76" y="-217" font-family="Helvetica,sans-Serif" font-size="10.00">VAudioPort_Input_Samples</text>
<polyline fill="none" stroke="black" points="0,-210 152,-210 "/>
<text text-anchor="middle" x="76" y="-198" font-family="Helvetica,sans-Serif" font-size="10.00"> </text>
<polyline fill="none" stroke="black" points="0,-191 152,-191 "/>
<text text-anchor="start" x="8" y="-179" font-family="Helvetica,sans-Serif" font-size="10.00">+ VAudioPort_Input_Samples()</text>
<text text-anchor="start" x="8" y="-168" font-family="Helvetica,sans-Serif" font-size="10.00">+ ReceiveSample()</text>
<text text-anchor="start" x="8" y="-157" font-family="Helvetica,sans-Serif" font-size="10.00"># _Accept()</text>
<text text-anchor="start" x="8" y="-146" font-family="Helvetica,sans-Serif" font-size="10.00"># _GetType()</text>
</a>
</g>
</g>
<!-- Node2&#45;&gt;Node1 -->
<g id="edge1" class="edge"><title>Node2&#45;&gt;Node1</title>
<path fill="none" stroke="midnightblue" d="M76,-128.422C76,-119.569 76,-110.442 76,-101.712"/>
<polygon fill="none" stroke="midnightblue" points="72.5001,-128.649 76,-138.649 79.5001,-128.649 72.5001,-128.649"/>
</g>
<!-- Node3 -->
<g id="node3" class="node"><title>Node3</title>
<g id="a_node3"><a xlink:href="../../d9/d0e/classppm__java_1_1typelib_1_1_v_audio_port___input.html" target="_top" xlink:title="Base class for an input audio port. ">
<polygon fill="white" stroke="black" points="22,-266.5 22,-345.5 130,-345.5 130,-266.5 22,-266.5"/>
<text text-anchor="middle" x="76" y="-333.5" font-family="Helvetica,sans-Serif" font-size="10.00">VAudioPort_Input</text>
<polyline fill="none" stroke="black" points="22,-326.5 130,-326.5 "/>
<text text-anchor="start" x="30" y="-314.5" font-family="Helvetica,sans-Serif" font-size="10.00">&#45; fIPort</text>
<polyline fill="none" stroke="black" points="22,-307.5 130,-307.5 "/>
<text text-anchor="start" x="30" y="-295.5" font-family="Helvetica,sans-Serif" font-size="10.00">+ VAudioPort_Input()</text>
<text text-anchor="start" x="30" y="-284.5" font-family="Helvetica,sans-Serif" font-size="10.00">+ GetPortNum()</text>
<text text-anchor="start" x="30" y="-273.5" font-family="Helvetica,sans-Serif" font-size="10.00"># _Accept()</text>
</a>
</g>
</g>
<!-- Node3&#45;&gt;Node2 -->
<g id="edge2" class="edge"><title>Node3&#45;&gt;Node2</title>
<path fill="none" stroke="midnightblue" d="M76,-256.176C76,-247.318 76,-238.123 76,-229.401"/>
<polygon fill="none" stroke="midnightblue" points="72.5001,-256.371 76,-266.371 79.5001,-256.371 72.5001,-256.371"/>
</g>
<!-- Node4 -->
<g id="node4" class="node"><title>Node4</title>
<g id="a_node4"><a xlink:href="../../de/dc9/classppm__java_1_1typelib_1_1_v_audio_port.html" target="_top" xlink:title="Base class for all audio ports. ">
<polygon fill="white" stroke="black" points="35.5,-382.5 35.5,-461.5 116.5,-461.5 116.5,-382.5 35.5,-382.5"/>
<text text-anchor="middle" x="76" y="-449.5" font-family="Helvetica,sans-Serif" font-size="10.00">VAudioPort</text>
<polyline fill="none" stroke="black" points="35.5,-442.5 116.5,-442.5 "/>
<text text-anchor="start" x="43.5" y="-430.5" font-family="Helvetica,sans-Serif" font-size="10.00">&#45; fHost</text>
<polyline fill="none" stroke="black" points="35.5,-423.5 116.5,-423.5 "/>
<text text-anchor="start" x="43.5" y="-411.5" font-family="Helvetica,sans-Serif" font-size="10.00">+ VAudioPort()</text>
<text text-anchor="start" x="43.5" y="-400.5" font-family="Helvetica,sans-Serif" font-size="10.00"># _GetHost()</text>
<text text-anchor="start" x="43.5" y="-389.5" font-family="Helvetica,sans-Serif" font-size="10.00"># _GetType()</text>
</a>
</g>
</g>
<!-- Node4&#45;&gt;Node3 -->
<g id="edge3" class="edge"><title>Node4&#45;&gt;Node3</title>
<path fill="none" stroke="midnightblue" d="M76,-372.146C76,-363.256 76,-354.096 76,-345.555"/>
<polygon fill="none" stroke="midnightblue" points="72.5001,-372.405 76,-382.405 79.5001,-372.405 72.5001,-372.405"/>
</g>
<!-- Node5 -->
<g id="node5" class="node"><title>Node5</title>
<g id="a_node5"><a xlink:href="../../d1/db3/classppm__java_1_1typelib_1_1_v_audio_object.html" target="_top" xlink:title="Base class for all browseable audio objects. ">
<polygon fill="white" stroke="black" points="30,-498.5 30,-555.5 122,-555.5 122,-498.5 30,-498.5"/>
<text text-anchor="middle" x="76" y="-543.5" font-family="Helvetica,sans-Serif" font-size="10.00">VAudioObject</text>
<polyline fill="none" stroke="black" points="30,-536.5 122,-536.5 "/>
<text text-anchor="middle" x="76" y="-524.5" font-family="Helvetica,sans-Serif" font-size="10.00"> </text>
<polyline fill="none" stroke="black" points="30,-517.5 122,-517.5 "/>
<text text-anchor="start" x="38" y="-505.5" font-family="Helvetica,sans-Serif" font-size="10.00">+ VAudioObject()</text>
</a>
</g>
</g>
<!-- Node5&#45;&gt;Node4 -->
<g id="edge4" class="edge"><title>Node5&#45;&gt;Node4</title>
<path fill="none" stroke="midnightblue" d="M76,-488.156C76,-479.473 76,-470.232 76,-461.52"/>
<polygon fill="none" stroke="midnightblue" points="72.5001,-488.398 76,-498.398 79.5001,-488.398 72.5001,-488.398"/>
</g>
<!-- Node6 -->
<g id="node6" class="node"><title>Node6</title>
<g id="a_node6"><a xlink:href="../../de/dd1/classppm__java_1_1typelib_1_1_v_browseable.html" target="_top" xlink:title="Base class for all browseable objects. ">
<polygon fill="white" stroke="black" points="31.5,-592.5 31.5,-671.5 120.5,-671.5 120.5,-592.5 31.5,-592.5"/>
<text text-anchor="middle" x="76" y="-659.5" font-family="Helvetica,sans-Serif" font-size="10.00">VBrowseable</text>
<polyline fill="none" stroke="black" points="31.5,-652.5 120.5,-652.5 "/>
<text text-anchor="start" x="39.5" y="-640.5" font-family="Helvetica,sans-Serif" font-size="10.00">&#45; fID</text>
<polyline fill="none" stroke="black" points="31.5,-633.5 120.5,-633.5 "/>
<text text-anchor="start" x="39.5" y="-621.5" font-family="Helvetica,sans-Serif" font-size="10.00">+ VBrowseable()</text>
<text text-anchor="start" x="39.5" y="-610.5" font-family="Helvetica,sans-Serif" font-size="10.00">+ GetID()</text>
<text text-anchor="start" x="39.5" y="-599.5" font-family="Helvetica,sans-Serif" font-size="10.00"># _Register()</text>
</a>
</g>
</g>
<!-- Node6&#45;&gt;Node5 -->
<g id="edge5" class="edge"><title>Node6&#45;&gt;Node5</title>
<path fill="none" stroke="midnightblue" d="M76,-582.163C76,-573.04 76,-563.806 76,-555.61"/>
<polygon fill="none" stroke="midnightblue" points="72.5001,-582.354 76,-592.354 79.5001,-582.354 72.5001,-582.354"/>
</g>
</g>
</svg>
        <g id="navigator" transform="translate(0 0)" fill="#404254">
                <rect fill="#f2f5e9" fill-opacity="0.5" stroke="#606060" stroke-width=".5" x="0" y="0" width="60" height="60"/>
                <use id="zoomplus" xlink:href="#zoomPlus" x="17" y="9" onmousedown="handleZoom(evt,'in')"/>
                <use id="zoomminus" xlink:href="#zoomMin" x="42" y="9" onmousedown="handleZoom(evt,'out')"/>
                <use id="reset" xlink:href="#resetDef" x="30" y="36" onmousedown="handleReset()"/>
                <g id="arrowUp" xlink:href="#dirArrow" transform="translate(30 24)" onmousedown="handlePan(0,-1)">
                  <use xlink:href="#rim" fill="#404040">
                        <set attributeName="fill" to="#808080" begin="arrowUp.mouseover" end="arrowUp.mouseout"/>
                  </use>
                  <path fill="none" stroke="white" stroke-width="1.5" d="M0,-3.0v7 M-2.5,-0.5L0,-3.0L2.5,-0.5"/>
                </g>
                <g id="arrowRight" xlink:href="#dirArrow" transform="rotate(90) translate(36 -43)" onmousedown="handlePan(1,0)">
                  <use xlink:href="#rim" fill="#404040">
                        <set attributeName="fill" to="#808080" begin="arrowRight.mouseover" end="arrowRight.mouseout"/>
                  </use>
                  <path fill="none" stroke="white" stroke-width="1.5" d="M0,-3.0v7 M-2.5,-0.5L0,-3.0L2.5,-0.5"/>
                </g>
                <g id="arrowDown" xlink:href="#dirArrow" transform="rotate(180) translate(-30 -48)" onmousedown="handlePan(0,1)">
                  <use xlink:href="#rim" fill="#404040">
                        <set attributeName="fill" to="#808080" begin="arrowDown.mouseover" end="arrowDown.mouseout"/>
                  </use>
                  <path fill="none" stroke="white" stroke-width="1.5" d="M0,-3.0v7 M-2.5,-0.5L0,-3.0L2.5,-0.5"/>
                </g>
                <g id="arrowLeft" xlink:href="#dirArrow" transform="rotate(270) translate(-36 17)" onmousedown="handlePan(-1,0)">
                  <use xlink:href="#rim" fill="#404040">
                        <set attributeName="fill" to="#808080" begin="arrowLeft.mouseover" end="arrowLeft.mouseout"/>
                  </use>
                  <path fill="none" stroke="white" stroke-width="1.5" d="M0,-3.0v7 M-2.5,-0.5L0,-3.0L2.5,-0.5"/>
                </g>
        </g>
        <svg viewBox="0 0 15 15" width="100%" height="30px" preserveAspectRatio="xMaxYMin meet">
         <g id="arrow_out" transform="scale(0.3 0.3)">
          <a xlink:href="classppm__java_1_1frontend_1_1console_1_1lineargauge_1_1_t_console___linear_gauge___endpoint___in__inherit__graph_org.svg" target="_base">
           <rect id="button" ry="5" rx="5" y="6" x="6" height="38" width="38"
                fill="#f2f5e9" fill-opacity="0.5" stroke="#606060" stroke-width="1.0"/>
           <path id="arrow"
             d="M 11.500037,31.436501 C 11.940474,20.09759 22.043105,11.32322 32.158766,21.979434 L 37.068811,17.246167 C 37.068811,17.246167 37.088388,32 37.088388,32 L 22.160133,31.978069 C 22.160133,31.978069 26.997745,27.140456 26.997745,27.140456 C 18.528582,18.264221 13.291696,25.230495 11.500037,31.436501 z"
             style="fill:#404040;"/>
          </a>
         </g>
        </svg>
</svg>
