<?xml version="1.0" encoding="UTF-8" standalone="no"?>
<!DOCTYPE svg PUBLIC "-//W3C//DTD SVG 1.1//EN"
 "http://www.w3.org/Graphics/SVG/1.1/DTD/svg11.dtd">
<!-- Generated by graphviz version 2.36.0 (20140111.2315)
 -->
<!-- Title: OnEvent Pages: 1 -->
<svg width="382pt" height="38pt"
 viewBox="0.00 0.00 382.00 38.00" xmlns="http://www.w3.org/2000/svg" xmlns:xlink="http://www.w3.org/1999/xlink">
<g id="graph0" class="graph" transform="scale(1 1) rotate(0) translate(4 34)">
<title>OnEvent</title>
<polygon fill="white" stroke="none" points="-4,4 -4,-34 378,-34 378,4 -4,4"/>
<!-- Node1 -->
<g id="node1" class="node"><title>Node1</title>
<polygon fill="#bfbfbf" stroke="black" points="0.5,-5.5 0.5,-24.5 55.5,-24.5 55.5,-5.5 0.5,-5.5"/>
<text text-anchor="middle" x="28" y="-12.5" font-family="Helvetica,sans-Serif" font-size="10.00">OnEvent</text>
</g>
<!-- Node2 -->
<g id="node2" class="node"><title>Node2</title>
<g id="a_node2"><a xlink:href="../../d6/da9/classppm__java_1_1backend_1_1module_1_1timer_1_1_t_timer.html#ae3856823906c4bc0f3fbea5c1a6a0544" target="_top" xlink:title="Returns a sanitized timer interval, if the given value was out of bounds. ">
<polygon fill="white" stroke="black" points="92,-5.5 92,-24.5 184,-24.5 184,-5.5 92,-5.5"/>
<text text-anchor="middle" x="138" y="-12.5" font-family="Helvetica,sans-Serif" font-size="10.00">_GetSaneInterval</text>
</a>
</g>
</g>
<!-- Node1&#45;&gt;Node2 -->
<g id="edge1" class="edge"><title>Node1&#45;&gt;Node2</title>
<path fill="none" stroke="midnightblue" d="M55.6966,-15C63.5935,-15 72.5476,-15 81.5553,-15"/>
<polygon fill="midnightblue" stroke="midnightblue" points="81.6946,-18.5001 91.6946,-15 81.6945,-11.5001 81.6946,-18.5001"/>
</g>
<!-- Node3 -->
<g id="node3" class="node"><title>Node3</title>
<g id="a_node3"><a xlink:href="../../de/dd1/classppm__java_1_1typelib_1_1_v_browseable.html#a04cbe3f0b5057d0eb582200dea602297" target="_top" xlink:title="ppm_java.typelib.VBrowseable.\lGetID">
<polygon fill="white" stroke="black" points="220,-0 220,-30 374,-30 374,-0 220,-0"/>
<text text-anchor="start" x="228" y="-18" font-family="Helvetica,sans-Serif" font-size="10.00">ppm_java.typelib.VBrowseable.</text>
<text text-anchor="middle" x="297" y="-7" font-family="Helvetica,sans-Serif" font-size="10.00">GetID</text>
</a>
</g>
</g>
<!-- Node2&#45;&gt;Node3 -->
<g id="edge2" class="edge"><title>Node2&#45;&gt;Node3</title>
<path fill="none" stroke="midnightblue" d="M184.411,-15C192.417,-15 200.986,-15 209.683,-15"/>
<polygon fill="midnightblue" stroke="midnightblue" points="209.927,-18.5001 219.927,-15 209.927,-11.5001 209.927,-18.5001"/>
</g>
</g>
</svg>
