<?xml version="1.0" encoding="UTF-8" standalone="no"?>
<!DOCTYPE svg PUBLIC "-//W3C//DTD SVG 1.1//EN"
 "http://www.w3.org/Graphics/SVG/1.1/DTD/svg11.dtd">
<!-- Generated by graphviz version 2.36.0 (20140111.2315)
 -->
<!-- Title: TTimer Pages: 1 -->
<svg width="374pt" height="38pt"
 viewBox="0.00 0.00 374.00 38.00" xmlns="http://www.w3.org/2000/svg" xmlns:xlink="http://www.w3.org/1999/xlink">
<g id="graph0" class="graph" transform="scale(1 1) rotate(0) translate(4 34)">
<title>TTimer</title>
<polygon fill="white" stroke="none" points="-4,4 -4,-34 370,-34 370,4 -4,4"/>
<!-- Node1 -->
<g id="node1" class="node"><title>Node1</title>
<polygon fill="#bfbfbf" stroke="black" points="0.5,-5.5 0.5,-24.5 47.5,-24.5 47.5,-5.5 0.5,-5.5"/>
<text text-anchor="middle" x="24" y="-12.5" font-family="Helvetica,sans-Serif" font-size="10.00">TTimer</text>
</g>
<!-- Node2 -->
<g id="node2" class="node"><title>Node2</title>
<g id="a_node2"><a xlink:href="../../d6/da9/classppm__java_1_1backend_1_1module_1_1timer_1_1_t_timer.html#ae3856823906c4bc0f3fbea5c1a6a0544" target="_top" xlink:title="Returns a sanitized timer interval, if the given value was out of bounds. ">
<polygon fill="white" stroke="black" points="84,-5.5 84,-24.5 176,-24.5 176,-5.5 84,-5.5"/>
<text text-anchor="middle" x="130" y="-12.5" font-family="Helvetica,sans-Serif" font-size="10.00">_GetSaneInterval</text>
</a>
</g>
</g>
<!-- Node1&#45;&gt;Node2 -->
<g id="edge1" class="edge"><title>Node1&#45;&gt;Node2</title>
<path fill="none" stroke="midnightblue" d="M47.5665,-15C55.3757,-15 64.5055,-15 73.7725,-15"/>
<polygon fill="midnightblue" stroke="midnightblue" points="73.826,-18.5001 83.826,-15 73.826,-11.5001 73.826,-18.5001"/>
</g>
<!-- Node3 -->
<g id="node3" class="node"><title>Node3</title>
<g id="a_node3"><a xlink:href="../../de/dd1/classppm__java_1_1typelib_1_1_v_browseable.html#a04cbe3f0b5057d0eb582200dea602297" target="_top" xlink:title="ppm_java.typelib.VBrowseable.\lGetID">
<polygon fill="white" stroke="black" points="212,-0 212,-30 366,-30 366,-0 212,-0"/>
<text text-anchor="start" x="220" y="-18" font-family="Helvetica,sans-Serif" font-size="10.00">ppm_java.typelib.VBrowseable.</text>
<text text-anchor="middle" x="289" y="-7" font-family="Helvetica,sans-Serif" font-size="10.00">GetID</text>
</a>
</g>
</g>
<!-- Node2&#45;&gt;Node3 -->
<g id="edge2" class="edge"><title>Node2&#45;&gt;Node3</title>
<path fill="none" stroke="midnightblue" d="M176.411,-15C184.417,-15 192.986,-15 201.683,-15"/>
<polygon fill="midnightblue" stroke="midnightblue" points="201.927,-18.5001 211.927,-15 201.927,-11.5001 201.927,-18.5001"/>
</g>
</g>
</svg>
