<?xml version="1.0" encoding="UTF-8" standalone="no"?>
<!DOCTYPE svg PUBLIC "-//W3C//DTD SVG 1.1//EN"
 "http://www.w3.org/Graphics/SVG/1.1/DTD/svg11.dtd">
<!-- Generated by graphviz version 2.36.0 (20140111.2315)
 -->
<!-- Title: CreateInstance Pages: 1 -->
<svg width="494pt" height="38pt"
 viewBox="0.00 0.00 494.00 38.00" xmlns="http://www.w3.org/2000/svg" xmlns:xlink="http://www.w3.org/1999/xlink">
<g id="graph0" class="graph" transform="scale(1 1) rotate(0) translate(4 34)">
<title>CreateInstance</title>
<polygon fill="white" stroke="none" points="-4,4 -4,-34 490,-34 490,4 -4,4"/>
<!-- Node1 -->
<g id="node1" class="node"><title>Node1</title>
<polygon fill="#bfbfbf" stroke="black" points="0.5,-5.5 0.5,-24.5 83.5,-24.5 83.5,-5.5 0.5,-5.5"/>
<text text-anchor="middle" x="42" y="-12.5" font-family="Helvetica,sans-Serif" font-size="10.00">CreateInstance</text>
</g>
<!-- Node2 -->
<g id="node2" class="node"><title>Node2</title>
<g id="a_node2"><a xlink:href="../../d6/da9/classppm__java_1_1backend_1_1module_1_1timer_1_1_t_timer.html#a8ebf4bae5420917957b0f6c9d7e31114" target="_top" xlink:title="cTor. ">
<polygon fill="white" stroke="black" points="120.5,-5.5 120.5,-24.5 167.5,-24.5 167.5,-5.5 120.5,-5.5"/>
<text text-anchor="middle" x="144" y="-12.5" font-family="Helvetica,sans-Serif" font-size="10.00">TTimer</text>
</a>
</g>
</g>
<!-- Node1&#45;&gt;Node2 -->
<g id="edge1" class="edge"><title>Node1&#45;&gt;Node2</title>
<path fill="none" stroke="midnightblue" d="M83.6738,-15C92.4945,-15 101.717,-15 110.189,-15"/>
<polygon fill="midnightblue" stroke="midnightblue" points="110.433,-18.5001 120.433,-15 110.433,-11.5001 110.433,-18.5001"/>
</g>
<!-- Node3 -->
<g id="node3" class="node"><title>Node3</title>
<g id="a_node3"><a xlink:href="../../d6/da9/classppm__java_1_1backend_1_1module_1_1timer_1_1_t_timer.html#ae3856823906c4bc0f3fbea5c1a6a0544" target="_top" xlink:title="Returns a sanitized timer interval, if the given value was out of bounds. ">
<polygon fill="white" stroke="black" points="204,-5.5 204,-24.5 296,-24.5 296,-5.5 204,-5.5"/>
<text text-anchor="middle" x="250" y="-12.5" font-family="Helvetica,sans-Serif" font-size="10.00">_GetSaneInterval</text>
</a>
</g>
</g>
<!-- Node2&#45;&gt;Node3 -->
<g id="edge2" class="edge"><title>Node2&#45;&gt;Node3</title>
<path fill="none" stroke="midnightblue" d="M167.566,-15C175.376,-15 184.505,-15 193.772,-15"/>
<polygon fill="midnightblue" stroke="midnightblue" points="193.826,-18.5001 203.826,-15 193.826,-11.5001 193.826,-18.5001"/>
</g>
<!-- Node4 -->
<g id="node4" class="node"><title>Node4</title>
<g id="a_node4"><a xlink:href="../../de/dd1/classppm__java_1_1typelib_1_1_v_browseable.html#a04cbe3f0b5057d0eb582200dea602297" target="_top" xlink:title="ppm_java.typelib.VBrowseable.\lGetID">
<polygon fill="white" stroke="black" points="332,-0 332,-30 486,-30 486,-0 332,-0"/>
<text text-anchor="start" x="340" y="-18" font-family="Helvetica,sans-Serif" font-size="10.00">ppm_java.typelib.VBrowseable.</text>
<text text-anchor="middle" x="409" y="-7" font-family="Helvetica,sans-Serif" font-size="10.00">GetID</text>
</a>
</g>
</g>
<!-- Node3&#45;&gt;Node4 -->
<g id="edge3" class="edge"><title>Node3&#45;&gt;Node4</title>
<path fill="none" stroke="midnightblue" d="M296.411,-15C304.417,-15 312.986,-15 321.683,-15"/>
<polygon fill="midnightblue" stroke="midnightblue" points="321.927,-18.5001 331.927,-15 321.927,-11.5001 321.927,-18.5001"/>
</g>
</g>
</svg>
