<?xml version="1.0" encoding="UTF-8" standalone="no"?>
<!DOCTYPE svg PUBLIC "-//W3C//DTD SVG 1.1//EN"
 "http://www.w3.org/Graphics/SVG/1.1/DTD/svg11.dtd">
<!-- Generated by graphviz version 2.36.0 (20140111.2315)
 -->
<!-- Title: _GetSaneInterval Pages: 1 -->
<svg width="312pt" height="66pt"
 viewBox="0.00 0.00 312.00 66.00" xmlns="http://www.w3.org/2000/svg" xmlns:xlink="http://www.w3.org/1999/xlink">
<g id="graph0" class="graph" transform="scale(1 1) rotate(0) translate(4 62)">
<title>_GetSaneInterval</title>
<polygon fill="white" stroke="none" points="-4,4 -4,-62 308,-62 308,4 -4,4"/>
<!-- Node1 -->
<g id="node1" class="node"><title>Node1</title>
<polygon fill="#bfbfbf" stroke="black" points="0,-19.5 0,-38.5 92,-38.5 92,-19.5 0,-19.5"/>
<text text-anchor="middle" x="46" y="-26.5" font-family="Helvetica,sans-Serif" font-size="10.00">_GetSaneInterval</text>
</g>
<!-- Node2 -->
<g id="node2" class="node"><title>Node2</title>
<g id="a_node2"><a xlink:href="../../d6/da9/classppm__java_1_1backend_1_1module_1_1timer_1_1_t_timer.html#a1df2b404b6ed320c94f0e6127a4fd940" target="_top" xlink:title="Receive an event with one in&#45;band long as parameter. ">
<polygon fill="white" stroke="black" points="128.5,-38.5 128.5,-57.5 183.5,-57.5 183.5,-38.5 128.5,-38.5"/>
<text text-anchor="middle" x="156" y="-45.5" font-family="Helvetica,sans-Serif" font-size="10.00">OnEvent</text>
</a>
</g>
</g>
<!-- Node1&#45;&gt;Node2 -->
<g id="edge1" class="edge"><title>Node1&#45;&gt;Node2</title>
<path fill="none" stroke="midnightblue" d="M102.117,-38.6965C111.309,-40.3137 120.458,-41.9232 128.498,-43.3376"/>
<polygon fill="midnightblue" stroke="midnightblue" points="102.631,-35.2333 92.176,-36.9476 101.418,-42.1274 102.631,-35.2333"/>
</g>
<!-- Node3 -->
<g id="node3" class="node"><title>Node3</title>
<g id="a_node3"><a xlink:href="../../d6/da9/classppm__java_1_1backend_1_1module_1_1timer_1_1_t_timer.html#a8ebf4bae5420917957b0f6c9d7e31114" target="_top" xlink:title="cTor. ">
<polygon fill="white" stroke="black" points="132.5,-0.5 132.5,-19.5 179.5,-19.5 179.5,-0.5 132.5,-0.5"/>
<text text-anchor="middle" x="156" y="-7.5" font-family="Helvetica,sans-Serif" font-size="10.00">TTimer</text>
</a>
</g>
</g>
<!-- Node1&#45;&gt;Node3 -->
<g id="edge2" class="edge"><title>Node1&#45;&gt;Node3</title>
<path fill="none" stroke="midnightblue" d="M102.342,-19.2639C112.979,-17.3926 123.547,-15.5335 132.393,-13.9772"/>
<polygon fill="midnightblue" stroke="midnightblue" points="101.418,-15.8726 92.176,-21.0524 102.631,-22.7667 101.418,-15.8726"/>
</g>
<!-- Node4 -->
<g id="node4" class="node"><title>Node4</title>
<g id="a_node4"><a xlink:href="../../d6/da9/classppm__java_1_1backend_1_1module_1_1timer_1_1_t_timer.html#adbd31dcd69a952af318756f9167cd1ea" target="_top" xlink:title="Creates a new TTimer instance. ">
<polygon fill="white" stroke="black" points="220.5,-0.5 220.5,-19.5 303.5,-19.5 303.5,-0.5 220.5,-0.5"/>
<text text-anchor="middle" x="262" y="-7.5" font-family="Helvetica,sans-Serif" font-size="10.00">CreateInstance</text>
</a>
</g>
</g>
<!-- Node3&#45;&gt;Node4 -->
<g id="edge3" class="edge"><title>Node3&#45;&gt;Node4</title>
<path fill="none" stroke="midnightblue" d="M189.663,-10C199.423,-10 210.244,-10 220.447,-10"/>
<polygon fill="midnightblue" stroke="midnightblue" points="189.566,-6.5001 179.566,-10 189.566,-13.5001 189.566,-6.5001"/>
</g>
</g>
</svg>
