<?xml version="1.0" encoding="UTF-8" standalone="no"?>
<!DOCTYPE svg PUBLIC "-//W3C//DTD SVG 1.1//EN"
 "http://www.w3.org/Graphics/SVG/1.1/DTD/svg11.dtd">
<!-- Generated by graphviz version 2.36.0 (20140111.2315)
 -->
<!-- Title: TNodePeakEstimator_Endpoint_In Pages: 1 -->
<svg width="436pt" height="950pt"
 viewBox="0.00 0.00 436.00 950.00" xmlns="http://www.w3.org/2000/svg" xmlns:xlink="http://www.w3.org/1999/xlink">
<g id="graph0" class="graph" transform="scale(1 1) rotate(0) translate(4 946)">
<title>TNodePeakEstimator_Endpoint_In</title>
<polygon fill="white" stroke="none" points="-4,4 -4,-946 432,-946 432,4 -4,4"/>
<!-- Node1 -->
<g id="node1" class="node"><title>Node1</title>
<polygon fill="#bfbfbf" stroke="black" points="268.5,-0.5 268.5,-101.5 387.5,-101.5 387.5,-0.5 268.5,-0.5"/>
<text text-anchor="start" x="276.5" y="-89.5" font-family="Helvetica,sans-Serif" font-size="10.00">TNodePeakEstimator</text>
<text text-anchor="middle" x="328" y="-78.5" font-family="Helvetica,sans-Serif" font-size="10.00">_Endpoint_In</text>
<polyline fill="none" stroke="black" points="268.5,-71.5 387.5,-71.5 "/>
<text text-anchor="middle" x="328" y="-59.5" font-family="Helvetica,sans-Serif" font-size="10.00"> </text>
<polyline fill="none" stroke="black" points="268.5,-52.5 387.5,-52.5 "/>
<text text-anchor="start" x="276.5" y="-40.5" font-family="Helvetica,sans-Serif" font-size="10.00">+ ReceivePacket()</text>
<text text-anchor="start" x="276.5" y="-29.5" font-family="Helvetica,sans-Serif" font-size="10.00"># TNodePeakEstimator</text>
<text text-anchor="start" x="276.5" y="-18.5" font-family="Helvetica,sans-Serif" font-size="10.00">_Endpoint_In()</text>
<text text-anchor="start" x="276.5" y="-7.5" font-family="Helvetica,sans-Serif" font-size="10.00"># _Register()</text>
</g>
<!-- Node2 -->
<g id="node2" class="node"><title>Node2</title>
<g id="a_node2"><a xlink:href="../../d5/dbd/classppm__java_1_1typelib_1_1_v_audio_port___input___chunks___unbuffered.html" target="_top" xlink:title="Base class for an input port that receives sample chunks. ">
<polygon fill="white" stroke="black" points="258,-141 258,-253 398,-253 398,-141 258,-141"/>
<text text-anchor="start" x="266" y="-241" font-family="Helvetica,sans-Serif" font-size="10.00">VAudioPort_Input_Chunks</text>
<text text-anchor="middle" x="328" y="-230" font-family="Helvetica,sans-Serif" font-size="10.00">_Unbuffered</text>
<polyline fill="none" stroke="black" points="258,-223 398,-223 "/>
<text text-anchor="middle" x="328" y="-211" font-family="Helvetica,sans-Serif" font-size="10.00"> </text>
<polyline fill="none" stroke="black" points="258,-204 398,-204 "/>
<text text-anchor="start" x="266" y="-192" font-family="Helvetica,sans-Serif" font-size="10.00">+ ReceivePacket()</text>
<text text-anchor="start" x="266" y="-181" font-family="Helvetica,sans-Serif" font-size="10.00"># VAudioPort_Input_Chunks</text>
<text text-anchor="start" x="266" y="-170" font-family="Helvetica,sans-Serif" font-size="10.00">_Unbuffered()</text>
<text text-anchor="start" x="266" y="-159" font-family="Helvetica,sans-Serif" font-size="10.00"># _Accept()</text>
<text text-anchor="start" x="266" y="-148" font-family="Helvetica,sans-Serif" font-size="10.00"># _GetType()</text>
</a>
</g>
</g>
<!-- Node2&#45;&gt;Node1 -->
<g id="edge1" class="edge"><title>Node2&#45;&gt;Node1</title>
<path fill="none" stroke="midnightblue" d="M328,-130.68C328,-120.943 328,-111.041 328,-101.695"/>
<polygon fill="none" stroke="midnightblue" points="324.5,-130.738 328,-140.738 331.5,-130.738 324.5,-130.738"/>
</g>
<!-- Node3 -->
<g id="node3" class="node"><title>Node3</title>
<g id="a_node3"><a xlink:href="../../d9/d0e/classppm__java_1_1typelib_1_1_v_audio_port___input.html" target="_top" xlink:title="Base class for an input audio port. ">
<polygon fill="white" stroke="black" points="274,-292.5 274,-371.5 382,-371.5 382,-292.5 274,-292.5"/>
<text text-anchor="middle" x="328" y="-359.5" font-family="Helvetica,sans-Serif" font-size="10.00">VAudioPort_Input</text>
<polyline fill="none" stroke="black" points="274,-352.5 382,-352.5 "/>
<text text-anchor="start" x="282" y="-340.5" font-family="Helvetica,sans-Serif" font-size="10.00">&#45; fIPort</text>
<polyline fill="none" stroke="black" points="274,-333.5 382,-333.5 "/>
<text text-anchor="start" x="282" y="-321.5" font-family="Helvetica,sans-Serif" font-size="10.00">+ VAudioPort_Input()</text>
<text text-anchor="start" x="282" y="-310.5" font-family="Helvetica,sans-Serif" font-size="10.00">+ GetPortNum()</text>
<text text-anchor="start" x="282" y="-299.5" font-family="Helvetica,sans-Serif" font-size="10.00"># _Accept()</text>
</a>
</g>
</g>
<!-- Node3&#45;&gt;Node2 -->
<g id="edge2" class="edge"><title>Node3&#45;&gt;Node2</title>
<path fill="none" stroke="midnightblue" d="M328,-281.944C328,-272.662 328,-262.892 328,-253.43"/>
<polygon fill="none" stroke="midnightblue" points="324.5,-282.173 328,-292.173 331.5,-282.173 324.5,-282.173"/>
</g>
<!-- Node4 -->
<g id="node4" class="node"><title>Node4</title>
<g id="a_node4"><a xlink:href="../../de/dc9/classppm__java_1_1typelib_1_1_v_audio_port.html" target="_top" xlink:title="Base class for all audio ports. ">
<polygon fill="white" stroke="black" points="287.5,-410.5 287.5,-489.5 368.5,-489.5 368.5,-410.5 287.5,-410.5"/>
<text text-anchor="middle" x="328" y="-477.5" font-family="Helvetica,sans-Serif" font-size="10.00">VAudioPort</text>
<polyline fill="none" stroke="black" points="287.5,-470.5 368.5,-470.5 "/>
<text text-anchor="middle" x="328" y="-458.5" font-family="Helvetica,sans-Serif" font-size="10.00"> </text>
<polyline fill="none" stroke="black" points="287.5,-451.5 368.5,-451.5 "/>
<text text-anchor="start" x="295.5" y="-439.5" font-family="Helvetica,sans-Serif" font-size="10.00">+ VAudioPort()</text>
<text text-anchor="start" x="295.5" y="-428.5" font-family="Helvetica,sans-Serif" font-size="10.00"># _GetHost()</text>
<text text-anchor="start" x="295.5" y="-417.5" font-family="Helvetica,sans-Serif" font-size="10.00"># _GetType()</text>
</a>
</g>
</g>
<!-- Node4&#45;&gt;Node3 -->
<g id="edge3" class="edge"><title>Node4&#45;&gt;Node3</title>
<path fill="none" stroke="midnightblue" d="M328,-400.268C328,-390.786 328,-380.964 328,-371.853"/>
<polygon fill="none" stroke="midnightblue" points="324.5,-400.374 328,-410.374 331.5,-400.374 324.5,-400.374"/>
</g>
<!-- Node5 -->
<g id="node5" class="node"><title>Node5</title>
<g id="a_node5"><a xlink:href="../../d1/db3/classppm__java_1_1typelib_1_1_v_audio_object.html" target="_top" xlink:title="Base class for all browseable audio objects. ">
<polygon fill="white" stroke="black" points="336,-760.5 336,-817.5 428,-817.5 428,-760.5 336,-760.5"/>
<text text-anchor="middle" x="382" y="-805.5" font-family="Helvetica,sans-Serif" font-size="10.00">VAudioObject</text>
<polyline fill="none" stroke="black" points="336,-798.5 428,-798.5 "/>
<text text-anchor="middle" x="382" y="-786.5" font-family="Helvetica,sans-Serif" font-size="10.00"> </text>
<polyline fill="none" stroke="black" points="336,-779.5 428,-779.5 "/>
<text text-anchor="start" x="344" y="-767.5" font-family="Helvetica,sans-Serif" font-size="10.00">+ VAudioObject()</text>
</a>
</g>
</g>
<!-- Node5&#45;&gt;Node4 -->
<g id="edge4" class="edge"><title>Node5&#45;&gt;Node4</title>
<path fill="none" stroke="midnightblue" d="M376.253,-750.036C368.049,-696.163 352.377,-594.464 338,-508 337.011,-502.053 335.937,-495.763 334.871,-489.617"/>
<polygon fill="none" stroke="midnightblue" points="372.828,-750.794 377.792,-760.154 379.749,-749.742 372.828,-750.794"/>
</g>
<!-- Node7 -->
<g id="node7" class="node"><title>Node7</title>
<g id="a_node7"><a xlink:href="../../d5/d6a/classppm__java_1_1typelib_1_1_v_audio_processor.html" target="_top" xlink:title="Base class for all modules processing audio samples. ">
<polygon fill="white" stroke="black" points="203.5,-538.5 203.5,-705.5 310.5,-705.5 310.5,-538.5 203.5,-538.5"/>
<text text-anchor="middle" x="257" y="-693.5" font-family="Helvetica,sans-Serif" font-size="10.00">VAudioProcessor</text>
<polyline fill="none" stroke="black" points="203.5,-686.5 310.5,-686.5 "/>
<text text-anchor="middle" x="257" y="-674.5" font-family="Helvetica,sans-Serif" font-size="10.00"> </text>
<polyline fill="none" stroke="black" points="203.5,-667.5 310.5,-667.5 "/>
<text text-anchor="start" x="211.5" y="-655.5" font-family="Helvetica,sans-Serif" font-size="10.00">+ VAudioProcessor()</text>
<text text-anchor="start" x="211.5" y="-644.5" font-family="Helvetica,sans-Serif" font-size="10.00">+ CreatePort_In()</text>
<text text-anchor="start" x="211.5" y="-633.5" font-family="Helvetica,sans-Serif" font-size="10.00">+ CreatePort_Out()</text>
<text text-anchor="start" x="211.5" y="-622.5" font-family="Helvetica,sans-Serif" font-size="10.00">+ GetNumPortsIn()</text>
<text text-anchor="start" x="211.5" y="-611.5" font-family="Helvetica,sans-Serif" font-size="10.00">+ GetNumPortsOut()</text>
<text text-anchor="start" x="211.5" y="-600.5" font-family="Helvetica,sans-Serif" font-size="10.00">+ GetPortIn()</text>
<text text-anchor="start" x="211.5" y="-589.5" font-family="Helvetica,sans-Serif" font-size="10.00">+ GetPortIn()</text>
<text text-anchor="start" x="211.5" y="-578.5" font-family="Helvetica,sans-Serif" font-size="10.00">+ GetPortOut()</text>
<text text-anchor="start" x="211.5" y="-567.5" font-family="Helvetica,sans-Serif" font-size="10.00">+ GetPortOut()</text>
<text text-anchor="start" x="211.5" y="-556.5" font-family="Helvetica,sans-Serif" font-size="10.00"># AddPortIn()</text>
<text text-anchor="start" x="211.5" y="-545.5" font-family="Helvetica,sans-Serif" font-size="10.00"># AddPortOut()</text>
</a>
</g>
</g>
<!-- Node5&#45;&gt;Node7 -->
<g id="edge7" class="edge"><title>Node5&#45;&gt;Node7</title>
<path fill="none" stroke="midnightblue" d="M354.965,-752.313C341.978,-735.172 325.939,-714 310.625,-693.786"/>
<polygon fill="none" stroke="midnightblue" points="352.249,-754.525 361.078,-760.383 357.829,-750.298 352.249,-754.525"/>
</g>
<!-- Node6 -->
<g id="node6" class="node"><title>Node6</title>
<g id="a_node6"><a xlink:href="../../de/dd1/classppm__java_1_1typelib_1_1_v_browseable.html" target="_top" xlink:title="Base class for all browseable objects. ">
<polygon fill="white" stroke="black" points="337.5,-862.5 337.5,-941.5 426.5,-941.5 426.5,-862.5 337.5,-862.5"/>
<text text-anchor="middle" x="382" y="-929.5" font-family="Helvetica,sans-Serif" font-size="10.00">VBrowseable</text>
<polyline fill="none" stroke="black" points="337.5,-922.5 426.5,-922.5 "/>
<text text-anchor="start" x="345.5" y="-910.5" font-family="Helvetica,sans-Serif" font-size="10.00">&#45; fID</text>
<polyline fill="none" stroke="black" points="337.5,-903.5 426.5,-903.5 "/>
<text text-anchor="start" x="345.5" y="-891.5" font-family="Helvetica,sans-Serif" font-size="10.00">+ VBrowseable()</text>
<text text-anchor="start" x="345.5" y="-880.5" font-family="Helvetica,sans-Serif" font-size="10.00">+ GetID()</text>
<text text-anchor="start" x="345.5" y="-869.5" font-family="Helvetica,sans-Serif" font-size="10.00"># _Register()</text>
</a>
</g>
</g>
<!-- Node6&#45;&gt;Node5 -->
<g id="edge5" class="edge"><title>Node6&#45;&gt;Node5</title>
<path fill="none" stroke="midnightblue" d="M382,-852.227C382,-840.364 382,-828.085 382,-817.601"/>
<polygon fill="none" stroke="midnightblue" points="378.5,-852.489 382,-862.489 385.5,-852.489 378.5,-852.489"/>
</g>
<!-- Node7&#45;&gt;Node4 -->
<g id="edge6" class="edge"><title>Node7&#45;&gt;Node4</title>
<path fill="none" stroke="#404040" d="M291.46,-538.49C296.813,-525.674 302.197,-512.782 307.126,-500.981"/>
<polygon fill="none" stroke="#404040" points="307.259,-500.66 305.881,-493.582 311.884,-489.587 313.263,-496.665 307.259,-500.66"/>
<text text-anchor="middle" x="318.5" y="-511.5" font-family="Helvetica,sans-Serif" font-size="10.00"> &#45;fHost</text>
</g>
<!-- Node8 -->
<g id="node8" class="node"><title>Node8</title>
<polygon fill="white" stroke="#bfbfbf" points="0,-755 0,-823 150,-823 150,-755 0,-755"/>
<text text-anchor="start" x="8" y="-811" font-family="Helvetica,sans-Serif" font-size="10.00">TArrayMap&lt; ppm_java.typelib.</text>
<text text-anchor="middle" x="75" y="-800" font-family="Helvetica,sans-Serif" font-size="10.00">VAudioPort_Output &gt;</text>
<polyline fill="none" stroke="#bfbfbf" points="0,-793 150,-793 "/>
<text text-anchor="middle" x="75" y="-781" font-family="Helvetica,sans-Serif" font-size="10.00"> </text>
<polyline fill="none" stroke="#bfbfbf" points="0,-774 150,-774 "/>
<text text-anchor="middle" x="75" y="-762" font-family="Helvetica,sans-Serif" font-size="10.00"> </text>
</g>
<!-- Node8&#45;&gt;Node7 -->
<g id="edge8" class="edge"><title>Node8&#45;&gt;Node7</title>
<path fill="none" stroke="#404040" d="M111.83,-754.61C135.44,-733.205 166.699,-704.866 194.162,-679.969"/>
<polygon fill="none" stroke="#404040" points="194.423,-679.732 196.181,-672.739 203.313,-671.672 201.555,-678.666 194.423,-679.732"/>
<text text-anchor="middle" x="169.5" y="-727.5" font-family="Helvetica,sans-Serif" font-size="10.00"> &#45;fPortsOut</text>
</g>
<!-- Node9 -->
<g id="node9" class="node"><title>Node9</title>
<polygon fill="white" stroke="#bfbfbf" points="168,-755 168,-823 318,-823 318,-755 168,-755"/>
<text text-anchor="start" x="176" y="-811" font-family="Helvetica,sans-Serif" font-size="10.00">TArrayMap&lt; ppm_java.typelib.</text>
<text text-anchor="middle" x="243" y="-800" font-family="Helvetica,sans-Serif" font-size="10.00">VAudioPort_Input &gt;</text>
<polyline fill="none" stroke="#bfbfbf" points="168,-793 318,-793 "/>
<text text-anchor="middle" x="243" y="-781" font-family="Helvetica,sans-Serif" font-size="10.00"> </text>
<polyline fill="none" stroke="#bfbfbf" points="168,-774 318,-774 "/>
<text text-anchor="middle" x="243" y="-762" font-family="Helvetica,sans-Serif" font-size="10.00"> </text>
</g>
<!-- Node9&#45;&gt;Node7 -->
<g id="edge9" class="edge"><title>Node9&#45;&gt;Node7</title>
<path fill="none" stroke="#404040" d="M245.833,-754.61C246.757,-743.723 247.833,-731.043 248.945,-717.934"/>
<polygon fill="none" stroke="#404040" points="248.959,-717.77 245.48,-711.454 249.973,-705.813 253.452,-712.13 248.959,-717.77"/>
<text text-anchor="middle" x="268.5" y="-727.5" font-family="Helvetica,sans-Serif" font-size="10.00"> &#45;fPortsIn</text>
</g>
</g>
</svg>
