<?xml version="1.0" encoding="UTF-8" standalone="no"?>
<!DOCTYPE svg PUBLIC "-//W3C//DTD SVG 1.1//EN"
 "http://www.w3.org/Graphics/SVG/1.1/DTD/svg11.dtd">
<!-- Generated by graphviz version 2.36.0 (20140111.2315)
 -->
<!-- Title: TSetup Pages: 1 -->
<svg width="206pt" height="284pt"
 viewBox="0.00 0.00 206.00 284.00" xmlns="http://www.w3.org/2000/svg" xmlns:xlink="http://www.w3.org/1999/xlink">
<g id="graph0" class="graph" transform="scale(1 1) rotate(0) translate(4 280)">
<title>TSetup</title>
<polygon fill="white" stroke="none" points="-4,4 -4,-280 202,-280 202,4 -4,4"/>
<!-- Node1 -->
<g id="node1" class="node"><title>Node1</title>
<polygon fill="#bfbfbf" stroke="black" points="-0.5,-1 -0.5,-135 198.5,-135 198.5,-1 -0.5,-1"/>
<text text-anchor="middle" x="99" y="-123" font-family="Helvetica,sans-Serif" font-size="10.00">TSetup</text>
<polyline fill="none" stroke="black" points="-0.5,-116 198.5,-116 "/>
<text text-anchor="start" x="7.5" y="-104" font-family="Helvetica,sans-Serif" font-size="10.00">&#45; fOptConsoleWidth</text>
<text text-anchor="start" x="7.5" y="-93" font-family="Helvetica,sans-Serif" font-size="10.00">&#45; fOptLogFilePath</text>
<text text-anchor="start" x="7.5" y="-82" font-family="Helvetica,sans-Serif" font-size="10.00">&#45; fOptPrintHelp</text>
<text text-anchor="start" x="7.5" y="-71" font-family="Helvetica,sans-Serif" font-size="10.00">&#45; fOptShowDebugWindow</text>
<text text-anchor="start" x="7.5" y="-60" font-family="Helvetica,sans-Serif" font-size="10.00">&#45; fOptUseDeprecatedPPMProcessor</text>
<polyline fill="none" stroke="black" points="-0.5,-53 198.5,-53 "/>
<text text-anchor="start" x="7.5" y="-41" font-family="Helvetica,sans-Serif" font-size="10.00">+ TSetup()</text>
<text text-anchor="start" x="7.5" y="-30" font-family="Helvetica,sans-Serif" font-size="10.00">+ ExecuteWith()</text>
<text text-anchor="start" x="7.5" y="-19" font-family="Helvetica,sans-Serif" font-size="10.00">&#45; _Setup()</text>
<text text-anchor="start" x="7.5" y="-8" font-family="Helvetica,sans-Serif" font-size="10.00">&#45; _Setup_UseDeprecatedPPMProcessor()</text>
</g>
<!-- Node2 -->
<g id="node2" class="node"><title>Node2</title>
<g id="a_node2"><a xlink:href="../../dd/dc2/enumppm__java_1_1typelib_1_1_e_frontend_type.html" target="_top" xlink:title="The various types of frontends available. ">
<polygon fill="white" stroke="black" points="38,-185 38,-275 160,-275 160,-185 38,-185"/>
<text text-anchor="middle" x="99" y="-263" font-family="Helvetica,sans-Serif" font-size="10.00">EFrontendType</text>
<polyline fill="none" stroke="black" points="38,-256 160,-256 "/>
<text text-anchor="start" x="46" y="-244" font-family="Helvetica,sans-Serif" font-size="10.00">+ kConsoleLinearGauge</text>
<text text-anchor="start" x="46" y="-233" font-family="Helvetica,sans-Serif" font-size="10.00">+ kConsoleTextOut</text>
<text text-anchor="start" x="46" y="-222" font-family="Helvetica,sans-Serif" font-size="10.00">+ kGUILinearGauge</text>
<text text-anchor="start" x="46" y="-211" font-family="Helvetica,sans-Serif" font-size="10.00">+ kGUINeedle</text>
<polyline fill="none" stroke="black" points="38,-204 160,-204 "/>
<text text-anchor="middle" x="99" y="-192" font-family="Helvetica,sans-Serif" font-size="10.00"> </text>
</a>
</g>
</g>
<!-- Node2&#45;&gt;Node1 -->
<g id="edge1" class="edge"><title>Node2&#45;&gt;Node1</title>
<path fill="none" stroke="#404040" d="M99,-184.856C99,-173.22 99,-160.308 99,-147.449"/>
<polygon fill="none" stroke="#404040" points="99.0001,-147.181 95,-141.181 99,-135.181 103,-141.181 99.0001,-147.181"/>
<text text-anchor="middle" x="128" y="-157.5" font-family="Helvetica,sans-Serif" font-size="10.00"> &#45;fOptUIType</text>
</g>
</g>
</svg>
