<?xml version="1.0" encoding="UTF-8" standalone="no"?>
<!DOCTYPE svg PUBLIC "-//W3C//DTD SVG 1.1//EN"
 "http://www.w3.org/Graphics/SVG/1.1/DTD/svg11.dtd">
<!-- Generated by graphviz version 2.36.0 (20140111.2315)
 -->
<!-- Title: TGUILinearGauge_Endpoint_In Pages: 1 -->
<svg width="174pt" height="658pt"
 viewBox="0.00 0.00 174.00 658.00" xmlns="http://www.w3.org/2000/svg" xmlns:xlink="http://www.w3.org/1999/xlink">
<g id="graph0" class="graph" transform="scale(1 1) rotate(0) translate(4 654)">
<title>TGUILinearGauge_Endpoint_In</title>
<polygon fill="white" stroke="none" points="-4,4 -4,-654 170,-654 170,4 -4,4"/>
<!-- Node1 -->
<g id="node1" class="node"><title>Node1</title>
<polygon fill="#bfbfbf" stroke="black" points="-0.5,-0.5 -0.5,-79.5 166.5,-79.5 166.5,-0.5 -0.5,-0.5"/>
<text text-anchor="middle" x="83" y="-67.5" font-family="Helvetica,sans-Serif" font-size="10.00">TGUILinearGauge_Endpoint_In</text>
<polyline fill="none" stroke="black" points="-0.5,-60.5 166.5,-60.5 "/>
<text text-anchor="middle" x="83" y="-48.5" font-family="Helvetica,sans-Serif" font-size="10.00"> </text>
<polyline fill="none" stroke="black" points="-0.5,-41.5 166.5,-41.5 "/>
<text text-anchor="start" x="7.5" y="-29.5" font-family="Helvetica,sans-Serif" font-size="10.00">+ TGUILinearGauge_Endpoint_In()</text>
<text text-anchor="start" x="7.5" y="-18.5" font-family="Helvetica,sans-Serif" font-size="10.00">+ ReceiveSample()</text>
<text text-anchor="start" x="7.5" y="-7.5" font-family="Helvetica,sans-Serif" font-size="10.00"># _Register()</text>
</g>
<!-- Node2 -->
<g id="node2" class="node"><title>Node2</title>
<g id="a_node2"><a xlink:href="../../d2/de4/classppm__java_1_1typelib_1_1_v_audio_port___input___samples.html" target="_top" xlink:title="Base class for an input that receives single sample values. ">
<polygon fill="white" stroke="black" points="7,-117 7,-207 159,-207 159,-117 7,-117"/>
<text text-anchor="middle" x="83" y="-195" font-family="Helvetica,sans-Serif" font-size="10.00">VAudioPort_Input_Samples</text>
<polyline fill="none" stroke="black" points="7,-188 159,-188 "/>
<text text-anchor="middle" x="83" y="-176" font-family="Helvetica,sans-Serif" font-size="10.00"> </text>
<polyline fill="none" stroke="black" points="7,-169 159,-169 "/>
<text text-anchor="start" x="15" y="-157" font-family="Helvetica,sans-Serif" font-size="10.00">+ VAudioPort_Input_Samples()</text>
<text text-anchor="start" x="15" y="-146" font-family="Helvetica,sans-Serif" font-size="10.00">+ ReceiveSample()</text>
<text text-anchor="start" x="15" y="-135" font-family="Helvetica,sans-Serif" font-size="10.00"># _Accept()</text>
<text text-anchor="start" x="15" y="-124" font-family="Helvetica,sans-Serif" font-size="10.00"># _GetType()</text>
</a>
</g>
</g>
<!-- Node2&#45;&gt;Node1 -->
<g id="edge1" class="edge"><title>Node2&#45;&gt;Node1</title>
<path fill="none" stroke="midnightblue" d="M83,-106.844C83,-97.7422 83,-88.4594 83,-79.844"/>
<polygon fill="none" stroke="midnightblue" points="79.5001,-106.998 83,-116.998 86.5001,-106.998 79.5001,-106.998"/>
</g>
<!-- Node3 -->
<g id="node3" class="node"><title>Node3</title>
<g id="a_node3"><a xlink:href="../../d9/d0e/classppm__java_1_1typelib_1_1_v_audio_port___input.html" target="_top" xlink:title="Base class for an input audio port. ">
<polygon fill="white" stroke="black" points="29,-244.5 29,-323.5 137,-323.5 137,-244.5 29,-244.5"/>
<text text-anchor="middle" x="83" y="-311.5" font-family="Helvetica,sans-Serif" font-size="10.00">VAudioPort_Input</text>
<polyline fill="none" stroke="black" points="29,-304.5 137,-304.5 "/>
<text text-anchor="start" x="37" y="-292.5" font-family="Helvetica,sans-Serif" font-size="10.00">&#45; fIPort</text>
<polyline fill="none" stroke="black" points="29,-285.5 137,-285.5 "/>
<text text-anchor="start" x="37" y="-273.5" font-family="Helvetica,sans-Serif" font-size="10.00">+ VAudioPort_Input()</text>
<text text-anchor="start" x="37" y="-262.5" font-family="Helvetica,sans-Serif" font-size="10.00">+ GetPortNum()</text>
<text text-anchor="start" x="37" y="-251.5" font-family="Helvetica,sans-Serif" font-size="10.00"># _Accept()</text>
</a>
</g>
</g>
<!-- Node3&#45;&gt;Node2 -->
<g id="edge2" class="edge"><title>Node3&#45;&gt;Node2</title>
<path fill="none" stroke="midnightblue" d="M83,-234.176C83,-225.318 83,-216.123 83,-207.401"/>
<polygon fill="none" stroke="midnightblue" points="79.5001,-234.371 83,-244.371 86.5001,-234.371 79.5001,-234.371"/>
</g>
<!-- Node4 -->
<g id="node4" class="node"><title>Node4</title>
<g id="a_node4"><a xlink:href="../../de/dc9/classppm__java_1_1typelib_1_1_v_audio_port.html" target="_top" xlink:title="Base class for all audio ports. ">
<polygon fill="white" stroke="black" points="42.5,-360.5 42.5,-439.5 123.5,-439.5 123.5,-360.5 42.5,-360.5"/>
<text text-anchor="middle" x="83" y="-427.5" font-family="Helvetica,sans-Serif" font-size="10.00">VAudioPort</text>
<polyline fill="none" stroke="black" points="42.5,-420.5 123.5,-420.5 "/>
<text text-anchor="start" x="50.5" y="-408.5" font-family="Helvetica,sans-Serif" font-size="10.00">&#45; fHost</text>
<polyline fill="none" stroke="black" points="42.5,-401.5 123.5,-401.5 "/>
<text text-anchor="start" x="50.5" y="-389.5" font-family="Helvetica,sans-Serif" font-size="10.00">+ VAudioPort()</text>
<text text-anchor="start" x="50.5" y="-378.5" font-family="Helvetica,sans-Serif" font-size="10.00"># _GetHost()</text>
<text text-anchor="start" x="50.5" y="-367.5" font-family="Helvetica,sans-Serif" font-size="10.00"># _GetType()</text>
</a>
</g>
</g>
<!-- Node4&#45;&gt;Node3 -->
<g id="edge3" class="edge"><title>Node4&#45;&gt;Node3</title>
<path fill="none" stroke="midnightblue" d="M83,-350.146C83,-341.256 83,-332.096 83,-323.555"/>
<polygon fill="none" stroke="midnightblue" points="79.5001,-350.405 83,-360.405 86.5001,-350.405 79.5001,-350.405"/>
</g>
<!-- Node5 -->
<g id="node5" class="node"><title>Node5</title>
<g id="a_node5"><a xlink:href="../../d1/db3/classppm__java_1_1typelib_1_1_v_audio_object.html" target="_top" xlink:title="Base class for all browseable audio objects. ">
<polygon fill="white" stroke="black" points="37,-476.5 37,-533.5 129,-533.5 129,-476.5 37,-476.5"/>
<text text-anchor="middle" x="83" y="-521.5" font-family="Helvetica,sans-Serif" font-size="10.00">VAudioObject</text>
<polyline fill="none" stroke="black" points="37,-514.5 129,-514.5 "/>
<text text-anchor="middle" x="83" y="-502.5" font-family="Helvetica,sans-Serif" font-size="10.00"> </text>
<polyline fill="none" stroke="black" points="37,-495.5 129,-495.5 "/>
<text text-anchor="start" x="45" y="-483.5" font-family="Helvetica,sans-Serif" font-size="10.00">+ VAudioObject()</text>
</a>
</g>
</g>
<!-- Node5&#45;&gt;Node4 -->
<g id="edge4" class="edge"><title>Node5&#45;&gt;Node4</title>
<path fill="none" stroke="midnightblue" d="M83,-466.156C83,-457.473 83,-448.232 83,-439.52"/>
<polygon fill="none" stroke="midnightblue" points="79.5001,-466.398 83,-476.398 86.5001,-466.398 79.5001,-466.398"/>
</g>
<!-- Node6 -->
<g id="node6" class="node"><title>Node6</title>
<g id="a_node6"><a xlink:href="../../de/dd1/classppm__java_1_1typelib_1_1_v_browseable.html" target="_top" xlink:title="Base class for all browseable objects. ">
<polygon fill="white" stroke="black" points="38.5,-570.5 38.5,-649.5 127.5,-649.5 127.5,-570.5 38.5,-570.5"/>
<text text-anchor="middle" x="83" y="-637.5" font-family="Helvetica,sans-Serif" font-size="10.00">VBrowseable</text>
<polyline fill="none" stroke="black" points="38.5,-630.5 127.5,-630.5 "/>
<text text-anchor="start" x="46.5" y="-618.5" font-family="Helvetica,sans-Serif" font-size="10.00">&#45; fID</text>
<polyline fill="none" stroke="black" points="38.5,-611.5 127.5,-611.5 "/>
<text text-anchor="start" x="46.5" y="-599.5" font-family="Helvetica,sans-Serif" font-size="10.00">+ VBrowseable()</text>
<text text-anchor="start" x="46.5" y="-588.5" font-family="Helvetica,sans-Serif" font-size="10.00">+ GetID()</text>
<text text-anchor="start" x="46.5" y="-577.5" font-family="Helvetica,sans-Serif" font-size="10.00"># _Register()</text>
</a>
</g>
</g>
<!-- Node6&#45;&gt;Node5 -->
<g id="edge5" class="edge"><title>Node6&#45;&gt;Node5</title>
<path fill="none" stroke="midnightblue" d="M83,-560.163C83,-551.04 83,-541.806 83,-533.61"/>
<polygon fill="none" stroke="midnightblue" points="79.5001,-560.354 83,-570.354 86.5001,-560.354 79.5001,-560.354"/>
</g>
</g>
</svg>
