<?xml version="1.0" encoding="UTF-8" standalone="no"?>
<!DOCTYPE svg PUBLIC "-//W3C//DTD SVG 1.1//EN"
 "http://www.w3.org/Graphics/SVG/1.1/DTD/svg11.dtd">
<!-- Generated by graphviz version 2.36.0 (20140111.2315)
 -->
<!-- Title: TNodeConverterDb_Stats Pages: 1 -->
<!--zoomable 670 -->
<svg id="main" version="1.1" xmlns="http://www.w3.org/2000/svg" xmlns:xlink="http://www.w3.org/1999/xlink" xml:space="preserve" onload="init(evt)">
<style type="text/css"><![CDATA[
.edge:hover path { stroke: red; }
.edge:hover polygon { stroke: red; fill: red; }
]]></style>
<script type="text/javascript"><![CDATA[
var edges = document.getElementsByTagName('g');
if (edges && edges.length) {
  for (var i=0;i<edges.length;i++) {
    if (edges[i].id.substr(0,4)=='edge') {
      edges[i].setAttribute('class','edge');
    }
  }
}
]]></script>
        <defs>
                <circle id="rim" cx="0" cy="0" r="7"/>
                <circle id="rim2" cx="0" cy="0" r="3.5"/>
                <g id="zoomPlus">
                        <use xlink:href="#rim" fill="#404040">
                                <set attributeName="fill" to="#808080" begin="zoomplus.mouseover" end="zoomplus.mouseout"/>
                        </use>
                        <path d="M-4,0h8M0,-4v8" fill="none" stroke="white" stroke-width="1.5" pointer-events="none"/>
                </g>
                <g id="zoomMin">
                        <use xlink:href="#rim" fill="#404040">
                                <set attributeName="fill" to="#808080" begin="zoomminus.mouseover" end="zoomminus.mouseout"/>
                        </use>
                        <path d="M-4,0h8" fill="none" stroke="white" stroke-width="1.5" pointer-events="none"/>
                </g>
                <g id="dirArrow">
                        <path fill="none" stroke="white" stroke-width="1.5" d="M0,-3.0v7 M-2.5,-0.5L0,-3.0L2.5,-0.5"/>
                </g>
               <g id="resetDef">
                       <use xlink:href="#rim2" fill="#404040">
                               <set attributeName="fill" to="#808080" begin="reset.mouseover" end="reset.mouseout"/>
                       </use>
               </g>
        </defs>

<script type="text/javascript">
var viewWidth = 658;
var viewHeight = 670;
var sectionId = 'dynsection-1';
</script>
<script xlink:href="../../svgpan.js"/>
<svg id="graph" class="graph">
<g id="viewport">
<title>TNodeConverterDb_Stats</title>
<polygon fill="white" stroke="none" points="-4,4 -4,-666 654,-666 654,4 -4,4"/>
<!-- Node1 -->
<g id="node1" class="node"><title>Node1</title>
<polygon fill="#bfbfbf" stroke="black" points="416.5,-223 416.5,-313 561.5,-313 561.5,-223 416.5,-223"/>
<text text-anchor="middle" x="489" y="-301" font-family="Helvetica,sans-Serif" font-size="10.00">TNodeConverterDb_Stats</text>
<polyline fill="none" stroke="black" points="416.5,-294 561.5,-294 "/>
<text text-anchor="middle" x="489" y="-282" font-family="Helvetica,sans-Serif" font-size="10.00"> </text>
<polyline fill="none" stroke="black" points="416.5,-275 561.5,-275 "/>
<text text-anchor="start" x="424.5" y="-263" font-family="Helvetica,sans-Serif" font-size="10.00">+ TNodeConverterDb_Stats()</text>
<text text-anchor="start" x="424.5" y="-252" font-family="Helvetica,sans-Serif" font-size="10.00">+ GetDumpStr()</text>
<text text-anchor="start" x="424.5" y="-241" font-family="Helvetica,sans-Serif" font-size="10.00">~ SetDB()</text>
<text text-anchor="start" x="424.5" y="-230" font-family="Helvetica,sans-Serif" font-size="10.00">~ SetValue()</text>
</g>
<!-- Node5 -->
<g id="node5" class="node"><title>Node5</title>
<g id="a_node5"><a xlink:href="../../dd/db2/classppm__java_1_1backend_1_1module_1_1converter__db_1_1_t_node_converter_db.html" target="_top" xlink:title="Converts a raw value [0, 1] into its equivalent dB value. ">
<polygon fill="white" stroke="black" points="331.5,-1 331.5,-135 444.5,-135 444.5,-1 331.5,-1"/>
<text text-anchor="middle" x="388" y="-123" font-family="Helvetica,sans-Serif" font-size="10.00">TNodeConverterDb</text>
<polyline fill="none" stroke="black" points="331.5,-116 444.5,-116 "/>
<text text-anchor="start" x="339.5" y="-104" font-family="Helvetica,sans-Serif" font-size="10.00">+ gkMinDB</text>
<text text-anchor="start" x="339.5" y="-93" font-family="Helvetica,sans-Serif" font-size="10.00">+ gkMinThreshold</text>
<polyline fill="none" stroke="black" points="331.5,-86 444.5,-86 "/>
<text text-anchor="start" x="339.5" y="-74" font-family="Helvetica,sans-Serif" font-size="10.00">+ CreatePort_In()</text>
<text text-anchor="start" x="339.5" y="-63" font-family="Helvetica,sans-Serif" font-size="10.00">+ CreatePort_Out()</text>
<text text-anchor="start" x="339.5" y="-52" font-family="Helvetica,sans-Serif" font-size="10.00">+ StatsGet()</text>
<text text-anchor="start" x="339.5" y="-41" font-family="Helvetica,sans-Serif" font-size="10.00">+ CreateInstance()</text>
<text text-anchor="start" x="339.5" y="-30" font-family="Helvetica,sans-Serif" font-size="10.00">~ Receive()</text>
<text text-anchor="start" x="339.5" y="-19" font-family="Helvetica,sans-Serif" font-size="10.00"># _Register()</text>
<text text-anchor="start" x="339.5" y="-8" font-family="Helvetica,sans-Serif" font-size="10.00">&#45; TNodeConverterDb()</text>
</a>
</g>
</g>
<!-- Node1&#45;&gt;Node5 -->
<g id="edge11" class="edge"><title>Node1&#45;&gt;Node5</title>
<path fill="none" stroke="#404040" d="M450.37,-222.6C437.3,-205.77 423.601,-185.86 414,-166 411.083,-159.967 408.456,-153.558 406.098,-147.023"/>
<polygon fill="none" stroke="#404040" points="405.942,-146.559 400.246,-142.137 402.138,-135.178 407.834,-139.6 405.942,-146.559"/>
<text text-anchor="middle" x="430.5" y="-157.5" font-family="Helvetica,sans-Serif" font-size="10.00"> &#45;fStats</text>
</g>
<!-- Node2 -->
<g id="node2" class="node"><title>Node2</title>
<g id="a_node2"><a xlink:href="../../d7/d5a/interfaceppm__java_1_1typelib_1_1_i_stats.html" target="_top" xlink:title="Interface for a statistics record. ">
<polygon fill="white" stroke="black" points="446,-443.5 446,-500.5 532,-500.5 532,-443.5 446,-443.5"/>
<text text-anchor="middle" x="489" y="-488.5" font-family="Helvetica,sans-Serif" font-size="10.00">IStats</text>
<polyline fill="none" stroke="black" points="446,-481.5 532,-481.5 "/>
<text text-anchor="middle" x="489" y="-469.5" font-family="Helvetica,sans-Serif" font-size="10.00"> </text>
<polyline fill="none" stroke="black" points="446,-462.5 532,-462.5 "/>
<text text-anchor="start" x="454" y="-450.5" font-family="Helvetica,sans-Serif" font-size="10.00">+ GetDumpStr()</text>
</a>
</g>
</g>
<!-- Node2&#45;&gt;Node1 -->
<g id="edge1" class="edge"><title>Node2&#45;&gt;Node1</title>
<path fill="none" stroke="midnightblue" d="M489,-433.333C489,-399.333 489,-349.279 489,-313.355"/>
<polygon fill="none" stroke="midnightblue" points="485.5,-433.336 489,-443.336 492.5,-433.336 485.5,-433.336"/>
</g>
<!-- Node3 -->
<g id="node3" class="node"><title>Node3</title>
<g id="a_node3"><a xlink:href="../../d2/df7/classppm__java_1_1util_1_1storage_1_1_t_atomic_double.html" target="_top" xlink:title="An thread safe double value. ">
<polygon fill="white" stroke="black" points="550.5,-410.5 550.5,-533.5 649.5,-533.5 649.5,-410.5 550.5,-410.5"/>
<text text-anchor="middle" x="600" y="-521.5" font-family="Helvetica,sans-Serif" font-size="10.00">TAtomicDouble</text>
<polyline fill="none" stroke="black" points="550.5,-514.5 649.5,-514.5 "/>
<text text-anchor="start" x="558.5" y="-502.5" font-family="Helvetica,sans-Serif" font-size="10.00">&#45; fValue</text>
<text text-anchor="start" x="558.5" y="-491.5" font-family="Helvetica,sans-Serif" font-size="10.00">&#45; gkLocked</text>
<text text-anchor="start" x="558.5" y="-480.5" font-family="Helvetica,sans-Serif" font-size="10.00">&#45; gkUnlocked</text>
<polyline fill="none" stroke="black" points="550.5,-473.5 649.5,-473.5 "/>
<text text-anchor="start" x="558.5" y="-461.5" font-family="Helvetica,sans-Serif" font-size="10.00">+ TAtomicDouble()</text>
<text text-anchor="start" x="558.5" y="-450.5" font-family="Helvetica,sans-Serif" font-size="10.00">+ Get()</text>
<text text-anchor="start" x="558.5" y="-439.5" font-family="Helvetica,sans-Serif" font-size="10.00">+ Set()</text>
<text text-anchor="start" x="558.5" y="-428.5" font-family="Helvetica,sans-Serif" font-size="10.00">&#45; _Lock()</text>
<text text-anchor="start" x="558.5" y="-417.5" font-family="Helvetica,sans-Serif" font-size="10.00">&#45; _Unlock()</text>
</a>
</g>
</g>
<!-- Node3&#45;&gt;Node1 -->
<g id="edge2" class="edge"><title>Node3&#45;&gt;Node1</title>
<path fill="none" stroke="#404040" d="M566.696,-410.393C551.598,-382.918 533.877,-350.668 519.174,-323.911"/>
<polygon fill="none" stroke="#404040" points="519.062,-323.708 512.667,-320.376 513.283,-313.191 519.678,-316.523 519.062,-323.708"/>
<text text-anchor="middle" x="570.5" y="-384" font-family="Helvetica,sans-Serif" font-size="10.00"> &#45;fDB</text>
<text text-anchor="middle" x="570.5" y="-373" font-family="Helvetica,sans-Serif" font-size="10.00">&#45;fValue</text>
</g>
<!-- Node4 -->
<g id="node4" class="node"><title>Node4</title>
<polygon fill="white" stroke="#bfbfbf" points="561.5,-593.5 561.5,-650.5 638.5,-650.5 638.5,-593.5 561.5,-593.5"/>
<text text-anchor="middle" x="600" y="-638.5" font-family="Helvetica,sans-Serif" font-size="10.00">AtomicInteger</text>
<polyline fill="none" stroke="#bfbfbf" points="561.5,-631.5 638.5,-631.5 "/>
<text text-anchor="middle" x="600" y="-619.5" font-family="Helvetica,sans-Serif" font-size="10.00"> </text>
<polyline fill="none" stroke="#bfbfbf" points="561.5,-612.5 638.5,-612.5 "/>
<text text-anchor="middle" x="600" y="-600.5" font-family="Helvetica,sans-Serif" font-size="10.00"> </text>
</g>
<!-- Node4&#45;&gt;Node3 -->
<g id="edge3" class="edge"><title>Node4&#45;&gt;Node3</title>
<path fill="none" stroke="#404040" d="M600,-593.162C600,-579.619 600,-562.641 600,-545.75"/>
<polygon fill="none" stroke="#404040" points="600,-545.516 596,-539.516 600,-533.516 604,-539.516 600,-545.516"/>
<text text-anchor="middle" x="615.5" y="-555.5" font-family="Helvetica,sans-Serif" font-size="10.00"> &#45;fLock</text>
</g>
<!-- Node5&#45;&gt;Node1 -->
<g id="edge4" class="edge"><title>Node5&#45;&gt;Node1</title>
<path fill="none" stroke="#404040" d="M440.221,-135.476C444.111,-141.589 447.77,-147.812 451,-154 460.316,-171.845 468.038,-192.44 474.032,-211.121"/>
<polygon fill="none" stroke="#404040" points="474.088,-211.302 479.681,-215.853 477.631,-222.767 472.038,-218.215 474.088,-211.302"/>
<text text-anchor="middle" x="472.5" y="-157.5" font-family="Helvetica,sans-Serif" font-size="10.00"> &#45;fHost</text>
</g>
<!-- Node6 -->
<g id="node6" class="node"><title>Node6</title>
<g id="a_node6"><a xlink:href="../../d5/d6a/classppm__java_1_1typelib_1_1_v_audio_processor.html" target="_top" xlink:title="Base class for all modules processing audio samples. ">
<polygon fill="white" stroke="black" points="165.5,-184.5 165.5,-351.5 272.5,-351.5 272.5,-184.5 165.5,-184.5"/>
<text text-anchor="middle" x="219" y="-339.5" font-family="Helvetica,sans-Serif" font-size="10.00">VAudioProcessor</text>
<polyline fill="none" stroke="black" points="165.5,-332.5 272.5,-332.5 "/>
<text text-anchor="middle" x="219" y="-320.5" font-family="Helvetica,sans-Serif" font-size="10.00"> </text>
<polyline fill="none" stroke="black" points="165.5,-313.5 272.5,-313.5 "/>
<text text-anchor="start" x="173.5" y="-301.5" font-family="Helvetica,sans-Serif" font-size="10.00">+ VAudioProcessor()</text>
<text text-anchor="start" x="173.5" y="-290.5" font-family="Helvetica,sans-Serif" font-size="10.00">+ CreatePort_In()</text>
<text text-anchor="start" x="173.5" y="-279.5" font-family="Helvetica,sans-Serif" font-size="10.00">+ CreatePort_Out()</text>
<text text-anchor="start" x="173.5" y="-268.5" font-family="Helvetica,sans-Serif" font-size="10.00">+ GetNumPortsIn()</text>
<text text-anchor="start" x="173.5" y="-257.5" font-family="Helvetica,sans-Serif" font-size="10.00">+ GetNumPortsOut()</text>
<text text-anchor="start" x="173.5" y="-246.5" font-family="Helvetica,sans-Serif" font-size="10.00">+ GetPortIn()</text>
<text text-anchor="start" x="173.5" y="-235.5" font-family="Helvetica,sans-Serif" font-size="10.00">+ GetPortIn()</text>
<text text-anchor="start" x="173.5" y="-224.5" font-family="Helvetica,sans-Serif" font-size="10.00">+ GetPortOut()</text>
<text text-anchor="start" x="173.5" y="-213.5" font-family="Helvetica,sans-Serif" font-size="10.00">+ GetPortOut()</text>
<text text-anchor="start" x="173.5" y="-202.5" font-family="Helvetica,sans-Serif" font-size="10.00"># AddPortIn()</text>
<text text-anchor="start" x="173.5" y="-191.5" font-family="Helvetica,sans-Serif" font-size="10.00"># AddPortOut()</text>
</a>
</g>
</g>
<!-- Node6&#45;&gt;Node5 -->
<g id="edge5" class="edge"><title>Node6&#45;&gt;Node5</title>
<path fill="none" stroke="midnightblue" d="M279.386,-196.252C296.37,-176.353 314.772,-154.793 331.519,-135.173"/>
<polygon fill="none" stroke="midnightblue" points="276.535,-194.201 272.705,-204.08 281.859,-198.746 276.535,-194.201"/>
</g>
<!-- Node7 -->
<g id="node7" class="node"><title>Node7</title>
<g id="a_node7"><a xlink:href="../../d1/db3/classppm__java_1_1typelib_1_1_v_audio_object.html" target="_top" xlink:title="Base class for all browseable audio objects. ">
<polygon fill="white" stroke="black" points="0,-443.5 0,-500.5 92,-500.5 92,-443.5 0,-443.5"/>
<text text-anchor="middle" x="46" y="-488.5" font-family="Helvetica,sans-Serif" font-size="10.00">VAudioObject</text>
<polyline fill="none" stroke="black" points="0,-481.5 92,-481.5 "/>
<text text-anchor="middle" x="46" y="-469.5" font-family="Helvetica,sans-Serif" font-size="10.00"> </text>
<polyline fill="none" stroke="black" points="0,-462.5 92,-462.5 "/>
<text text-anchor="start" x="8" y="-450.5" font-family="Helvetica,sans-Serif" font-size="10.00">+ VAudioObject()</text>
</a>
</g>
</g>
<!-- Node7&#45;&gt;Node6 -->
<g id="edge6" class="edge"><title>Node7&#45;&gt;Node6</title>
<path fill="none" stroke="midnightblue" d="M76.3245,-435.592C100.889,-406.91 136.105,-365.79 165.403,-331.581"/>
<polygon fill="none" stroke="midnightblue" points="73.5387,-433.464 69.6922,-443.336 78.8554,-438.018 73.5387,-433.464"/>
</g>
<!-- Node8 -->
<g id="node8" class="node"><title>Node8</title>
<g id="a_node8"><a xlink:href="../../de/dd1/classppm__java_1_1typelib_1_1_v_browseable.html" target="_top" xlink:title="Base class for all browseable objects. ">
<polygon fill="white" stroke="black" points="1.5,-582.5 1.5,-661.5 90.5,-661.5 90.5,-582.5 1.5,-582.5"/>
<text text-anchor="middle" x="46" y="-649.5" font-family="Helvetica,sans-Serif" font-size="10.00">VBrowseable</text>
<polyline fill="none" stroke="black" points="1.5,-642.5 90.5,-642.5 "/>
<text text-anchor="start" x="9.5" y="-630.5" font-family="Helvetica,sans-Serif" font-size="10.00">&#45; fID</text>
<polyline fill="none" stroke="black" points="1.5,-623.5 90.5,-623.5 "/>
<text text-anchor="start" x="9.5" y="-611.5" font-family="Helvetica,sans-Serif" font-size="10.00">+ VBrowseable()</text>
<text text-anchor="start" x="9.5" y="-600.5" font-family="Helvetica,sans-Serif" font-size="10.00">+ GetID()</text>
<text text-anchor="start" x="9.5" y="-589.5" font-family="Helvetica,sans-Serif" font-size="10.00"># _Register()</text>
</a>
</g>
</g>
<!-- Node8&#45;&gt;Node7 -->
<g id="edge7" class="edge"><title>Node8&#45;&gt;Node7</title>
<path fill="none" stroke="midnightblue" d="M46,-571.92C46,-548.306 46,-520.859 46,-500.876"/>
<polygon fill="none" stroke="midnightblue" points="42.5001,-572.115 46,-582.115 49.5001,-572.115 42.5001,-572.115"/>
</g>
<!-- Node9 -->
<g id="node9" class="node"><title>Node9</title>
<polygon fill="white" stroke="#bfbfbf" points="110,-438 110,-506 260,-506 260,-438 110,-438"/>
<text text-anchor="start" x="118" y="-494" font-family="Helvetica,sans-Serif" font-size="10.00">TArrayMap&lt; ppm_java.typelib.</text>
<text text-anchor="middle" x="185" y="-483" font-family="Helvetica,sans-Serif" font-size="10.00">VAudioPort_Output &gt;</text>
<polyline fill="none" stroke="#bfbfbf" points="110,-476 260,-476 "/>
<text text-anchor="middle" x="185" y="-464" font-family="Helvetica,sans-Serif" font-size="10.00"> </text>
<polyline fill="none" stroke="#bfbfbf" points="110,-457 260,-457 "/>
<text text-anchor="middle" x="185" y="-445" font-family="Helvetica,sans-Serif" font-size="10.00"> </text>
</g>
<!-- Node9&#45;&gt;Node6 -->
<g id="edge8" class="edge"><title>Node9&#45;&gt;Node6</title>
<path fill="none" stroke="#404040" d="M190.614,-437.644C194.033,-417.334 198.588,-390.271 203.047,-363.78"/>
<polygon fill="none" stroke="#404040" points="203.092,-363.509 200.144,-356.928 205.084,-351.676 208.033,-358.256 203.092,-363.509"/>
<text text-anchor="middle" x="226.5" y="-378.5" font-family="Helvetica,sans-Serif" font-size="10.00"> &#45;fPortsOut</text>
</g>
<!-- Node10 -->
<g id="node10" class="node"><title>Node10</title>
<polygon fill="white" stroke="#bfbfbf" points="278,-438 278,-506 428,-506 428,-438 278,-438"/>
<text text-anchor="start" x="286" y="-494" font-family="Helvetica,sans-Serif" font-size="10.00">TArrayMap&lt; ppm_java.typelib.</text>
<text text-anchor="middle" x="353" y="-483" font-family="Helvetica,sans-Serif" font-size="10.00">VAudioPort_Input &gt;</text>
<polyline fill="none" stroke="#bfbfbf" points="278,-476 428,-476 "/>
<text text-anchor="middle" x="353" y="-464" font-family="Helvetica,sans-Serif" font-size="10.00"> </text>
<polyline fill="none" stroke="#bfbfbf" points="278,-457 428,-457 "/>
<text text-anchor="middle" x="353" y="-445" font-family="Helvetica,sans-Serif" font-size="10.00"> </text>
</g>
<!-- Node10&#45;&gt;Node6 -->
<g id="edge9" class="edge"><title>Node10&#45;&gt;Node6</title>
<path fill="none" stroke="#404040" d="M330.873,-437.644C316.771,-416.386 297.761,-387.729 279.416,-360.075"/>
<polygon fill="none" stroke="#404040" points="279.331,-359.947 272.681,-357.158 272.698,-349.947 279.348,-352.736 279.331,-359.947"/>
<text text-anchor="middle" x="319.5" y="-378.5" font-family="Helvetica,sans-Serif" font-size="10.00"> &#45;fPortsIn</text>
</g>
<!-- Node11 -->
<g id="node11" class="node"><title>Node11</title>
<g id="a_node11"><a xlink:href="../../dc/dc0/interfaceppm__java_1_1typelib_1_1_i_stat_enabled.html" target="_top" xlink:title="Interface for an object that supports runtime statistics. ">
<polygon fill="white" stroke="black" points="325.5,-239.5 325.5,-296.5 398.5,-296.5 398.5,-239.5 325.5,-239.5"/>
<text text-anchor="middle" x="362" y="-284.5" font-family="Helvetica,sans-Serif" font-size="10.00">IStatEnabled</text>
<polyline fill="none" stroke="black" points="325.5,-277.5 398.5,-277.5 "/>
<text text-anchor="middle" x="362" y="-265.5" font-family="Helvetica,sans-Serif" font-size="10.00"> </text>
<polyline fill="none" stroke="black" points="325.5,-258.5 398.5,-258.5 "/>
<text text-anchor="start" x="333.5" y="-246.5" font-family="Helvetica,sans-Serif" font-size="10.00">+ StatsGet()</text>
</a>
</g>
</g>
<!-- Node11&#45;&gt;Node5 -->
<g id="edge10" class="edge"><title>Node11&#45;&gt;Node5</title>
<path fill="none" stroke="midnightblue" d="M366.933,-229.432C370.425,-202.843 375.2,-166.48 379.321,-135.095"/>
<polygon fill="none" stroke="midnightblue" points="363.447,-229.098 365.615,-239.469 370.387,-230.01 363.447,-229.098"/>
</g>
</g>
</svg>
        <g id="navigator" transform="translate(0 0)" fill="#404254">
                <rect fill="#f2f5e9" fill-opacity="0.5" stroke="#606060" stroke-width=".5" x="0" y="0" width="60" height="60"/>
                <use id="zoomplus" xlink:href="#zoomPlus" x="17" y="9" onmousedown="handleZoom(evt,'in')"/>
                <use id="zoomminus" xlink:href="#zoomMin" x="42" y="9" onmousedown="handleZoom(evt,'out')"/>
                <use id="reset" xlink:href="#resetDef" x="30" y="36" onmousedown="handleReset()"/>
                <g id="arrowUp" xlink:href="#dirArrow" transform="translate(30 24)" onmousedown="handlePan(0,-1)">
                  <use xlink:href="#rim" fill="#404040">
                        <set attributeName="fill" to="#808080" begin="arrowUp.mouseover" end="arrowUp.mouseout"/>
                  </use>
                  <path fill="none" stroke="white" stroke-width="1.5" d="M0,-3.0v7 M-2.5,-0.5L0,-3.0L2.5,-0.5"/>
                </g>
                <g id="arrowRight" xlink:href="#dirArrow" transform="rotate(90) translate(36 -43)" onmousedown="handlePan(1,0)">
                  <use xlink:href="#rim" fill="#404040">
                        <set attributeName="fill" to="#808080" begin="arrowRight.mouseover" end="arrowRight.mouseout"/>
                  </use>
                  <path fill="none" stroke="white" stroke-width="1.5" d="M0,-3.0v7 M-2.5,-0.5L0,-3.0L2.5,-0.5"/>
                </g>
                <g id="arrowDown" xlink:href="#dirArrow" transform="rotate(180) translate(-30 -48)" onmousedown="handlePan(0,1)">
                  <use xlink:href="#rim" fill="#404040">
                        <set attributeName="fill" to="#808080" begin="arrowDown.mouseover" end="arrowDown.mouseout"/>
                  </use>
                  <path fill="none" stroke="white" stroke-width="1.5" d="M0,-3.0v7 M-2.5,-0.5L0,-3.0L2.5,-0.5"/>
                </g>
                <g id="arrowLeft" xlink:href="#dirArrow" transform="rotate(270) translate(-36 17)" onmousedown="handlePan(-1,0)">
                  <use xlink:href="#rim" fill="#404040">
                        <set attributeName="fill" to="#808080" begin="arrowLeft.mouseover" end="arrowLeft.mouseout"/>
                  </use>
                  <path fill="none" stroke="white" stroke-width="1.5" d="M0,-3.0v7 M-2.5,-0.5L0,-3.0L2.5,-0.5"/>
                </g>
        </g>
        <svg viewBox="0 0 15 15" width="100%" height="30px" preserveAspectRatio="xMaxYMin meet">
         <g id="arrow_out" transform="scale(0.3 0.3)">
          <a xlink:href="classppm__java_1_1backend_1_1module_1_1converter__db_1_1_t_node_converter_db___stats__coll__graph_org.svg" target="_base">
           <rect id="button" ry="5" rx="5" y="6" x="6" height="38" width="38"
                fill="#f2f5e9" fill-opacity="0.5" stroke="#606060" stroke-width="1.0"/>
           <path id="arrow"
             d="M 11.500037,31.436501 C 11.940474,20.09759 22.043105,11.32322 32.158766,21.979434 L 37.068811,17.246167 C 37.068811,17.246167 37.088388,32 37.088388,32 L 22.160133,31.978069 C 22.160133,31.978069 26.997745,27.140456 26.997745,27.140456 C 18.528582,18.264221 13.291696,25.230495 11.500037,31.436501 z"
             style="fill:#404040;"/>
          </a>
         </g>
        </svg>
</svg>
