<?xml version="1.0" encoding="UTF-8" standalone="no"?>
<!DOCTYPE svg PUBLIC "-//W3C//DTD SVG 1.1//EN"
 "http://www.w3.org/Graphics/SVG/1.1/DTD/svg11.dtd">
<!-- Generated by graphviz version 2.36.0 (20140111.2315)
 -->
<!-- Title: _GetTarget Pages: 1 -->
<svg width="302pt" height="147pt"
 viewBox="0.00 0.00 302.00 147.00" xmlns="http://www.w3.org/2000/svg" xmlns:xlink="http://www.w3.org/1999/xlink">
<g id="graph0" class="graph" transform="scale(1 1) rotate(0) translate(4 143)">
<title>_GetTarget</title>
<polygon fill="white" stroke="none" points="-4,4 -4,-143 298,-143 298,4 -4,4"/>
<!-- Node1 -->
<g id="node1" class="node"><title>Node1</title>
<polygon fill="#bfbfbf" stroke="black" points="0.5,-54.5 0.5,-73.5 65.5,-73.5 65.5,-54.5 0.5,-54.5"/>
<text text-anchor="middle" x="33" y="-61.5" font-family="Helvetica,sans-Serif" font-size="10.00">_GetTarget</text>
</g>
<!-- Node2 -->
<g id="node2" class="node"><title>Node2</title>
<g id="a_node2"><a xlink:href="../../d7/d64/classppm__java_1_1typelib_1_1_v_audio_port___output___chunks___needs_buffer.html#a63d84dc5cc994b7e6c0582bf1955142f" target="_top" xlink:title="Pushes a sample chunk out to the connected input. ">
<polygon fill="white" stroke="black" points="110,-97.5 110,-138.5 286,-138.5 286,-97.5 110,-97.5"/>
<text text-anchor="start" x="118" y="-126.5" font-family="Helvetica,sans-Serif" font-size="10.00">ppm_java.typelib.VAudioPort</text>
<text text-anchor="start" x="118" y="-115.5" font-family="Helvetica,sans-Serif" font-size="10.00">_Output_Chunks_NeedsBuffer.Push</text>
<text text-anchor="middle" x="198" y="-104.5" font-family="Helvetica,sans-Serif" font-size="10.00">Packet</text>
</a>
</g>
</g>
<!-- Node1&#45;&gt;Node2 -->
<g id="edge1" class="edge"><title>Node1&#45;&gt;Node2</title>
<path fill="none" stroke="midnightblue" d="M69.9521,-76.9412C80.275,-80.5884 91.5624,-84.5111 102,-88 111.35,-91.1254 121.246,-94.3463 130.982,-97.4652"/>
<polygon fill="midnightblue" stroke="midnightblue" points="71.0044,-73.6007 60.4096,-73.5519 68.6614,-80.197 71.0044,-73.6007"/>
</g>
<!-- Node3 -->
<g id="node3" class="node"><title>Node3</title>
<g id="a_node3"><a xlink:href="../../d8/db2/classppm__java_1_1typelib_1_1_v_audio_port___output___chunks___no_buffer.html#a63d84dc5cc994b7e6c0582bf1955142f" target="_top" xlink:title="Pushes a sample chunk out to the connected input. ">
<polygon fill="white" stroke="black" points="102.5,-49 102.5,-79 293.5,-79 293.5,-49 102.5,-49"/>
<text text-anchor="start" x="110.5" y="-67" font-family="Helvetica,sans-Serif" font-size="10.00">ppm_java.typelib.VAudioPort</text>
<text text-anchor="middle" x="198" y="-56" font-family="Helvetica,sans-Serif" font-size="10.00">_Output_Chunks_NoBuffer.PushPacket</text>
</a>
</g>
</g>
<!-- Node1&#45;&gt;Node3 -->
<g id="edge2" class="edge"><title>Node1&#45;&gt;Node3</title>
<path fill="none" stroke="midnightblue" d="M75.843,-64C84.0913,-64 93.0562,-64 102.252,-64"/>
<polygon fill="midnightblue" stroke="midnightblue" points="75.815,-60.5001 65.815,-64 75.815,-67.5001 75.815,-60.5001"/>
</g>
<!-- Node4 -->
<g id="node4" class="node"><title>Node4</title>
<g id="a_node4"><a xlink:href="../../df/d90/classppm__java_1_1typelib_1_1_v_audio_port___output___samples.html#adc78e8aef5aef774b7a7591b3778f981" target="_top" xlink:title="Pushes a sample value out to the connected input. ">
<polygon fill="white" stroke="black" points="121.5,-0 121.5,-30 274.5,-30 274.5,-0 121.5,-0"/>
<text text-anchor="start" x="129.5" y="-18" font-family="Helvetica,sans-Serif" font-size="10.00">ppm_java.typelib.VAudioPort</text>
<text text-anchor="middle" x="198" y="-7" font-family="Helvetica,sans-Serif" font-size="10.00">_Output_Samples.PushSample</text>
</a>
</g>
</g>
<!-- Node1&#45;&gt;Node4 -->
<g id="edge3" class="edge"><title>Node1&#45;&gt;Node4</title>
<path fill="none" stroke="midnightblue" d="M69.0478,-51.0128C79.5821,-47.2767 91.2088,-43.3181 102,-40 113.166,-36.5665 125.159,-33.1805 136.736,-30.0624"/>
<polygon fill="midnightblue" stroke="midnightblue" points="67.5731,-47.8235 59.3454,-54.4984 69.9399,-54.4112 67.5731,-47.8235"/>
</g>
</g>
</svg>
