<?xml version="1.0" encoding="UTF-8" standalone="no"?>
<!DOCTYPE svg PUBLIC "-//W3C//DTD SVG 1.1//EN"
 "http://www.w3.org/Graphics/SVG/1.1/DTD/svg11.dtd">
<!-- Generated by graphviz version 2.36.0 (20140111.2315)
 -->
<!-- Title: _SetTarget Pages: 1 -->
<svg width="288pt" height="136pt"
 viewBox="0.00 0.00 288.00 136.00" xmlns="http://www.w3.org/2000/svg" xmlns:xlink="http://www.w3.org/1999/xlink">
<g id="graph0" class="graph" transform="scale(1 1) rotate(0) translate(4 132)">
<title>_SetTarget</title>
<polygon fill="white" stroke="none" points="-4,4 -4,-132 284,-132 284,4 -4,4"/>
<!-- Node1 -->
<g id="node1" class="node"><title>Node1</title>
<polygon fill="#bfbfbf" stroke="black" points="0.5,-54.5 0.5,-73.5 65.5,-73.5 65.5,-54.5 0.5,-54.5"/>
<text text-anchor="middle" x="33" y="-61.5" font-family="Helvetica,sans-Serif" font-size="10.00">_SetTarget</text>
</g>
<!-- Node2 -->
<g id="node2" class="node"><title>Node2</title>
<g id="a_node2"><a xlink:href="../../d7/d64/classppm__java_1_1typelib_1_1_v_audio_port___output___chunks___needs_buffer.html#a4a959b8bb15d4344725e8c38986b5797" target="_top" xlink:title="ppm_java.typelib.VAudioPort\l_Output_Chunks_NeedsBuffer._Visit">
<polygon fill="white" stroke="black" points="102,-98 102,-128 280,-128 280,-98 102,-98"/>
<text text-anchor="start" x="110" y="-116" font-family="Helvetica,sans-Serif" font-size="10.00">ppm_java.typelib.VAudioPort</text>
<text text-anchor="middle" x="191" y="-105" font-family="Helvetica,sans-Serif" font-size="10.00">_Output_Chunks_NeedsBuffer._Visit</text>
</a>
</g>
</g>
<!-- Node1&#45;&gt;Node2 -->
<g id="edge1" class="edge"><title>Node1&#45;&gt;Node2</title>
<path fill="none" stroke="midnightblue" d="M69.6212,-77.0436C80.0149,-80.7213 91.4224,-84.6345 102,-88 112.594,-91.3708 123.974,-94.7674 134.919,-97.9237"/>
<polygon fill="midnightblue" stroke="midnightblue" points="70.6215,-73.6843 60.0269,-73.6152 68.266,-80.2761 70.6215,-73.6843"/>
</g>
<!-- Node3 -->
<g id="node3" class="node"><title>Node3</title>
<g id="a_node3"><a xlink:href="../../df/d90/classppm__java_1_1typelib_1_1_v_audio_port___output___samples.html#acaf514520a989e47382fbf808afc71a6" target="_top" xlink:title="ppm_java.typelib.VAudioPort\l_Output_Samples._Visit">
<polygon fill="white" stroke="black" points="119.5,-49 119.5,-79 262.5,-79 262.5,-49 119.5,-49"/>
<text text-anchor="start" x="127.5" y="-67" font-family="Helvetica,sans-Serif" font-size="10.00">ppm_java.typelib.VAudioPort</text>
<text text-anchor="middle" x="191" y="-56" font-family="Helvetica,sans-Serif" font-size="10.00">_Output_Samples._Visit</text>
</a>
</g>
</g>
<!-- Node1&#45;&gt;Node3 -->
<g id="edge2" class="edge"><title>Node1&#45;&gt;Node3</title>
<path fill="none" stroke="midnightblue" d="M75.9051,-64C89.3354,-64 104.597,-64 119.491,-64"/>
<polygon fill="midnightblue" stroke="midnightblue" points="75.569,-60.5001 65.5689,-64 75.5689,-67.5001 75.569,-60.5001"/>
</g>
<!-- Node4 -->
<g id="node4" class="node"><title>Node4</title>
<g id="a_node4"><a xlink:href="../../d8/db2/classppm__java_1_1typelib_1_1_v_audio_port___output___chunks___no_buffer.html#a4db9e465a6c131476381a203c7d34928" target="_top" xlink:title="ppm_java.typelib.VAudioPort\l_Output_Chunks_NoBuffer._Visit">
<polygon fill="white" stroke="black" points="110,-0 110,-30 272,-30 272,-0 110,-0"/>
<text text-anchor="start" x="118" y="-18" font-family="Helvetica,sans-Serif" font-size="10.00">ppm_java.typelib.VAudioPort</text>
<text text-anchor="middle" x="191" y="-7" font-family="Helvetica,sans-Serif" font-size="10.00">_Output_Chunks_NoBuffer._Visit</text>
</a>
</g>
</g>
<!-- Node1&#45;&gt;Node4 -->
<g id="edge3" class="edge"><title>Node1&#45;&gt;Node4</title>
<path fill="none" stroke="midnightblue" d="M69.6212,-50.9564C80.0149,-47.2787 91.4224,-43.3655 102,-40 112.594,-36.6292 123.974,-33.2326 134.919,-30.0763"/>
<polygon fill="midnightblue" stroke="midnightblue" points="68.266,-47.7239 60.0269,-54.3848 70.6215,-54.3157 68.266,-47.7239"/>
</g>
</g>
</svg>
