<?xml version="1.0" encoding="UTF-8" standalone="no"?>
<!DOCTYPE svg PUBLIC "-//W3C//DTD SVG 1.1//EN"
 "http://www.w3.org/Graphics/SVG/1.1/DTD/svg11.dtd">
<!-- Generated by graphviz version 2.36.0 (20140111.2315)
 -->
<!-- Title: _SetTarget Pages: 1 -->
<svg width="386pt" height="87pt"
 viewBox="0.00 0.00 386.00 87.00" xmlns="http://www.w3.org/2000/svg" xmlns:xlink="http://www.w3.org/1999/xlink">
<g id="graph0" class="graph" transform="scale(1 1) rotate(0) translate(4 83)">
<title>_SetTarget</title>
<polygon fill="white" stroke="none" points="-4,4 -4,-83 382,-83 382,4 -4,4"/>
<!-- Node1 -->
<g id="node1" class="node"><title>Node1</title>
<polygon fill="#bfbfbf" stroke="black" points="0.5,-29.5 0.5,-48.5 65.5,-48.5 65.5,-29.5 0.5,-29.5"/>
<text text-anchor="middle" x="33" y="-36.5" font-family="Helvetica,sans-Serif" font-size="10.00">_SetTarget</text>
</g>
<!-- Node2 -->
<g id="node2" class="node"><title>Node2</title>
<g id="a_node2"><a xlink:href="../../df/d02/classppm__java_1_1typelib_1_1_v_audio_port___output.html#aa5671c0a2de6cd655108cd9a7d530529" target="_top" xlink:title="Logs a message when a connection to a VAudioPort_Input is made. ">
<polygon fill="white" stroke="black" points="102,-29.5 102,-48.5 188,-48.5 188,-29.5 102,-29.5"/>
<text text-anchor="middle" x="145" y="-36.5" font-family="Helvetica,sans-Serif" font-size="10.00">_SetTarget_Log</text>
</a>
</g>
</g>
<!-- Node1&#45;&gt;Node2 -->
<g id="edge1" class="edge"><title>Node1&#45;&gt;Node2</title>
<path fill="none" stroke="midnightblue" d="M65.5216,-39C73.7321,-39 82.802,-39 91.7732,-39"/>
<polygon fill="midnightblue" stroke="midnightblue" points="91.8091,-42.5001 101.809,-39 91.809,-35.5001 91.8091,-42.5001"/>
</g>
<!-- Node3 -->
<g id="node3" class="node"><title>Node3</title>
<g id="a_node3"><a xlink:href="../../de/dd1/classppm__java_1_1typelib_1_1_v_browseable.html#a04cbe3f0b5057d0eb582200dea602297" target="_top" xlink:title="ppm_java.typelib.VBrowseable.\lGetID">
<polygon fill="white" stroke="black" points="224,-49 224,-79 378,-79 378,-49 224,-49"/>
<text text-anchor="start" x="232" y="-67" font-family="Helvetica,sans-Serif" font-size="10.00">ppm_java.typelib.VBrowseable.</text>
<text text-anchor="middle" x="301" y="-56" font-family="Helvetica,sans-Serif" font-size="10.00">GetID</text>
</a>
</g>
</g>
<!-- Node2&#45;&gt;Node3 -->
<g id="edge2" class="edge"><title>Node2&#45;&gt;Node3</title>
<path fill="none" stroke="midnightblue" d="M188.081,-45.8314C196.169,-47.1444 204.909,-48.5632 213.816,-50.0091"/>
<polygon fill="midnightblue" stroke="midnightblue" points="213.485,-53.5011 223.916,-51.6488 214.607,-46.5915 213.485,-53.5011"/>
</g>
<!-- Node4 -->
<g id="node4" class="node"><title>Node4</title>
<g id="a_node4"><a xlink:href="../../de/dc9/classppm__java_1_1typelib_1_1_v_audio_port.html#a465123c9d4f9c58caa6fdf656324ef10" target="_top" xlink:title="Returns textual information of a concrete child&#39;s direct super type. ">
<polygon fill="white" stroke="black" points="228,-0 228,-30 374,-30 374,-0 228,-0"/>
<text text-anchor="start" x="236" y="-18" font-family="Helvetica,sans-Serif" font-size="10.00">ppm_java.typelib.VAudioPort.</text>
<text text-anchor="middle" x="301" y="-7" font-family="Helvetica,sans-Serif" font-size="10.00">_GetType</text>
</a>
</g>
</g>
<!-- Node2&#45;&gt;Node4 -->
<g id="edge3" class="edge"><title>Node2&#45;&gt;Node4</title>
<path fill="none" stroke="midnightblue" d="M188.081,-32.4419C197.394,-30.9905 207.572,-29.4043 217.873,-27.799"/>
<polygon fill="midnightblue" stroke="midnightblue" points="218.421,-31.2559 227.763,-26.2577 217.343,-24.3394 218.421,-31.2559"/>
</g>
</g>
</svg>
