<?xml version="1.0" encoding="UTF-8" standalone="no"?>
<!DOCTYPE svg PUBLIC "-//W3C//DTD SVG 1.1//EN"
 "http://www.w3.org/Graphics/SVG/1.1/DTD/svg11.dtd">
<!-- Generated by graphviz version 2.36.0 (20140111.2315)
 -->
<!-- Title: _SetTarget_Log Pages: 1 -->
<svg width="522pt" height="229pt"
 viewBox="0.00 0.00 522.00 229.00" xmlns="http://www.w3.org/2000/svg" xmlns:xlink="http://www.w3.org/1999/xlink">
<g id="graph0" class="graph" transform="scale(1 1) rotate(0) translate(4 225)">
<title>_SetTarget_Log</title>
<polygon fill="white" stroke="none" points="-4,4 -4,-225 518,-225 518,4 -4,4"/>
<!-- Node1 -->
<g id="node1" class="node"><title>Node1</title>
<polygon fill="#bfbfbf" stroke="black" points="0,-78.5 0,-97.5 86,-97.5 86,-78.5 0,-78.5"/>
<text text-anchor="middle" x="43" y="-85.5" font-family="Helvetica,sans-Serif" font-size="10.00">_SetTarget_Log</text>
</g>
<!-- Node2 -->
<g id="node2" class="node"><title>Node2</title>
<g id="a_node2"><a xlink:href="../../df/d02/classppm__java_1_1typelib_1_1_v_audio_port___output.html#aecd2d710eb754f7813a595e8039c2682" target="_top" xlink:title="Worker method to establish a connection to an input port, called by the _Visit(...) method of the runtime chose subtype. ">
<polygon fill="white" stroke="black" points="178.5,-147.5 178.5,-166.5 243.5,-166.5 243.5,-147.5 178.5,-147.5"/>
<text text-anchor="middle" x="211" y="-154.5" font-family="Helvetica,sans-Serif" font-size="10.00">_SetTarget</text>
</a>
</g>
</g>
<!-- Node1&#45;&gt;Node2 -->
<g id="edge1" class="edge"><title>Node1&#45;&gt;Node2</title>
<path fill="none" stroke="midnightblue" d="M64.3765,-103.5C79.5338,-114.338 101.123,-128.365 122,-137 139.953,-144.425 161.16,-149.35 178.257,-152.454"/>
<polygon fill="midnightblue" stroke="midnightblue" points="66.3862,-100.634 56.2494,-97.552 62.252,-106.282 66.3862,-100.634"/>
</g>
<!-- Node6 -->
<g id="node6" class="node"><title>Node6</title>
<g id="a_node6"><a xlink:href="../../df/d90/classppm__java_1_1typelib_1_1_v_audio_port___output___samples.html#a4a959b8bb15d4344725e8c38986b5797" target="_top" xlink:title="ppm_java.typelib.VAudioPort\l_Output_Samples._Visit">
<polygon fill="white" stroke="black" points="139.5,-98 139.5,-128 282.5,-128 282.5,-98 139.5,-98"/>
<text text-anchor="start" x="147.5" y="-116" font-family="Helvetica,sans-Serif" font-size="10.00">ppm_java.typelib.VAudioPort</text>
<text text-anchor="middle" x="211" y="-105" font-family="Helvetica,sans-Serif" font-size="10.00">_Output_Samples._Visit</text>
</a>
</g>
</g>
<!-- Node1&#45;&gt;Node6 -->
<g id="edge5" class="edge"><title>Node1&#45;&gt;Node6</title>
<path fill="none" stroke="midnightblue" d="M96.4601,-95.9006C110.086,-97.9528 124.989,-100.197 139.383,-102.365"/>
<polygon fill="midnightblue" stroke="midnightblue" points="96.7281,-92.4016 86.3183,-94.3732 95.6856,-99.3235 96.7281,-92.4016"/>
</g>
<!-- Node7 -->
<g id="node7" class="node"><title>Node7</title>
<g id="a_node7"><a xlink:href="../../d8/db2/classppm__java_1_1typelib_1_1_v_audio_port___output___chunks___no_buffer.html#a4a959b8bb15d4344725e8c38986b5797" target="_top" xlink:title="ppm_java.typelib.VAudioPort\l_Output_Chunks_NoBuffer._Visit">
<polygon fill="white" stroke="black" points="130,-49 130,-79 292,-79 292,-49 130,-49"/>
<text text-anchor="start" x="138" y="-67" font-family="Helvetica,sans-Serif" font-size="10.00">ppm_java.typelib.VAudioPort</text>
<text text-anchor="middle" x="211" y="-56" font-family="Helvetica,sans-Serif" font-size="10.00">_Output_Chunks_NoBuffer._Visit</text>
</a>
</g>
</g>
<!-- Node1&#45;&gt;Node7 -->
<g id="edge6" class="edge"><title>Node1&#45;&gt;Node7</title>
<path fill="none" stroke="midnightblue" d="M96.3194,-80.4357C107.034,-78.8867 118.542,-77.2228 129.975,-75.5698"/>
<polygon fill="midnightblue" stroke="midnightblue" points="95.7146,-76.9867 86.3183,-81.8817 96.7163,-83.9147 95.7146,-76.9867"/>
</g>
<!-- Node8 -->
<g id="node8" class="node"><title>Node8</title>
<g id="a_node8"><a xlink:href="../../d7/d64/classppm__java_1_1typelib_1_1_v_audio_port___output___chunks___needs_buffer.html#a4db9e465a6c131476381a203c7d34928" target="_top" xlink:title="ppm_java.typelib.VAudioPort\l_Output_Chunks_NeedsBuffer._Visit">
<polygon fill="white" stroke="black" points="122,-0 122,-30 300,-30 300,-0 122,-0"/>
<text text-anchor="start" x="130" y="-18" font-family="Helvetica,sans-Serif" font-size="10.00">ppm_java.typelib.VAudioPort</text>
<text text-anchor="middle" x="211" y="-7" font-family="Helvetica,sans-Serif" font-size="10.00">_Output_Chunks_NeedsBuffer._Visit</text>
</a>
</g>
</g>
<!-- Node1&#45;&gt;Node8 -->
<g id="edge7" class="edge"><title>Node1&#45;&gt;Node8</title>
<path fill="none" stroke="midnightblue" d="M64.7614,-72.5775C79.9593,-61.8951 101.435,-48.0259 122,-39 129.54,-35.6906 137.648,-32.7354 145.782,-30.1271"/>
<polygon fill="midnightblue" stroke="midnightblue" points="62.6776,-69.7648 56.5928,-78.4381 66.7583,-75.4524 62.6776,-69.7648"/>
</g>
<!-- Node3 -->
<g id="node3" class="node"><title>Node3</title>
<g id="a_node3"><a xlink:href="../../d7/d64/classppm__java_1_1typelib_1_1_v_audio_port___output___chunks___needs_buffer.html#a4a959b8bb15d4344725e8c38986b5797" target="_top" xlink:title="ppm_java.typelib.VAudioPort\l_Output_Chunks_NeedsBuffer._Visit">
<polygon fill="white" stroke="black" points="336,-191 336,-221 514,-221 514,-191 336,-191"/>
<text text-anchor="start" x="344" y="-209" font-family="Helvetica,sans-Serif" font-size="10.00">ppm_java.typelib.VAudioPort</text>
<text text-anchor="middle" x="425" y="-198" font-family="Helvetica,sans-Serif" font-size="10.00">_Output_Chunks_NeedsBuffer._Visit</text>
</a>
</g>
</g>
<!-- Node2&#45;&gt;Node3 -->
<g id="edge2" class="edge"><title>Node2&#45;&gt;Node3</title>
<path fill="none" stroke="midnightblue" d="M253.827,-166.668C283.717,-173.576 324.523,-183.008 358.683,-190.903"/>
<polygon fill="midnightblue" stroke="midnightblue" points="254.27,-163.178 243.739,-164.336 252.693,-169.998 254.27,-163.178"/>
</g>
<!-- Node4 -->
<g id="node4" class="node"><title>Node4</title>
<g id="a_node4"><a xlink:href="../../df/d90/classppm__java_1_1typelib_1_1_v_audio_port___output___samples.html#acaf514520a989e47382fbf808afc71a6" target="_top" xlink:title="ppm_java.typelib.VAudioPort\l_Output_Samples._Visit">
<polygon fill="white" stroke="black" points="353.5,-142 353.5,-172 496.5,-172 496.5,-142 353.5,-142"/>
<text text-anchor="start" x="361.5" y="-160" font-family="Helvetica,sans-Serif" font-size="10.00">ppm_java.typelib.VAudioPort</text>
<text text-anchor="middle" x="425" y="-149" font-family="Helvetica,sans-Serif" font-size="10.00">_Output_Samples._Visit</text>
</a>
</g>
</g>
<!-- Node2&#45;&gt;Node4 -->
<g id="edge3" class="edge"><title>Node2&#45;&gt;Node4</title>
<path fill="none" stroke="midnightblue" d="M254.09,-157C282.422,-157 320.475,-157 353.386,-157"/>
<polygon fill="midnightblue" stroke="midnightblue" points="253.739,-153.5 243.739,-157 253.739,-160.5 253.739,-153.5"/>
</g>
<!-- Node5 -->
<g id="node5" class="node"><title>Node5</title>
<g id="a_node5"><a xlink:href="../../d8/db2/classppm__java_1_1typelib_1_1_v_audio_port___output___chunks___no_buffer.html#a4db9e465a6c131476381a203c7d34928" target="_top" xlink:title="ppm_java.typelib.VAudioPort\l_Output_Chunks_NoBuffer._Visit">
<polygon fill="white" stroke="black" points="344,-93 344,-123 506,-123 506,-93 344,-93"/>
<text text-anchor="start" x="352" y="-111" font-family="Helvetica,sans-Serif" font-size="10.00">ppm_java.typelib.VAudioPort</text>
<text text-anchor="middle" x="425" y="-100" font-family="Helvetica,sans-Serif" font-size="10.00">_Output_Chunks_NoBuffer._Visit</text>
</a>
</g>
</g>
<!-- Node2&#45;&gt;Node5 -->
<g id="edge4" class="edge"><title>Node2&#45;&gt;Node5</title>
<path fill="none" stroke="midnightblue" d="M253.588,-147.604C268.259,-144.275 284.867,-140.489 300,-137 319.497,-132.505 340.705,-127.563 359.979,-123.053"/>
<polygon fill="midnightblue" stroke="midnightblue" points="252.761,-144.203 243.782,-149.827 254.308,-151.03 252.761,-144.203"/>
</g>
</g>
</svg>
