<?xml version="1.0" encoding="UTF-8" standalone="no"?>
<!DOCTYPE svg PUBLIC "-//W3C//DTD SVG 1.1//EN"
 "http://www.w3.org/Graphics/SVG/1.1/DTD/svg11.dtd">
<!-- Generated by graphviz version 2.36.0 (20140111.2315)
 -->
<!-- Title: _SetTarget_Log Pages: 1 -->
<svg width="284pt" height="87pt"
 viewBox="0.00 0.00 284.00 87.00" xmlns="http://www.w3.org/2000/svg" xmlns:xlink="http://www.w3.org/1999/xlink">
<g id="graph0" class="graph" transform="scale(1 1) rotate(0) translate(4 83)">
<title>_SetTarget_Log</title>
<polygon fill="white" stroke="none" points="-4,4 -4,-83 280,-83 280,4 -4,4"/>
<!-- Node1 -->
<g id="node1" class="node"><title>Node1</title>
<polygon fill="#bfbfbf" stroke="black" points="0,-29.5 0,-48.5 86,-48.5 86,-29.5 0,-29.5"/>
<text text-anchor="middle" x="43" y="-36.5" font-family="Helvetica,sans-Serif" font-size="10.00">_SetTarget_Log</text>
</g>
<!-- Node2 -->
<g id="node2" class="node"><title>Node2</title>
<g id="a_node2"><a xlink:href="../../de/dc9/classppm__java_1_1typelib_1_1_v_audio_port.html#a465123c9d4f9c58caa6fdf656324ef10" target="_top" xlink:title="Returns textual information of a concrete child&#39;s direct super type. ">
<polygon fill="white" stroke="black" points="126,-49 126,-79 272,-79 272,-49 126,-49"/>
<text text-anchor="start" x="134" y="-67" font-family="Helvetica,sans-Serif" font-size="10.00">ppm_java.typelib.VAudioPort.</text>
<text text-anchor="middle" x="199" y="-56" font-family="Helvetica,sans-Serif" font-size="10.00">_GetType</text>
</a>
</g>
</g>
<!-- Node1&#45;&gt;Node2 -->
<g id="edge1" class="edge"><title>Node1&#45;&gt;Node2</title>
<path fill="none" stroke="midnightblue" d="M86.0812,-45.8314C95.3945,-47.3433 105.572,-48.9955 115.873,-50.6677"/>
<polygon fill="midnightblue" stroke="midnightblue" points="115.331,-54.1255 125.763,-52.2732 116.453,-47.2159 115.331,-54.1255"/>
</g>
<!-- Node3 -->
<g id="node3" class="node"><title>Node3</title>
<g id="a_node3"><a xlink:href="../../de/dd1/classppm__java_1_1typelib_1_1_v_browseable.html#a04cbe3f0b5057d0eb582200dea602297" target="_top" xlink:title="ppm_java.typelib.VBrowseable.\lGetID">
<polygon fill="white" stroke="black" points="122,-0 122,-30 276,-30 276,-0 122,-0"/>
<text text-anchor="start" x="130" y="-18" font-family="Helvetica,sans-Serif" font-size="10.00">ppm_java.typelib.VBrowseable.</text>
<text text-anchor="middle" x="199" y="-7" font-family="Helvetica,sans-Serif" font-size="10.00">GetID</text>
</a>
</g>
</g>
<!-- Node1&#45;&gt;Node3 -->
<g id="edge2" class="edge"><title>Node1&#45;&gt;Node3</title>
<path fill="none" stroke="midnightblue" d="M86.0812,-32.4419C94.1693,-31.1814 102.909,-29.8193 111.816,-28.4313"/>
<polygon fill="midnightblue" stroke="midnightblue" points="112.575,-31.8554 121.916,-26.8572 111.497,-24.9389 112.575,-31.8554"/>
</g>
</g>
</svg>
