<?xml version="1.0" encoding="UTF-8" standalone="no"?>
<!DOCTYPE svg PUBLIC "-//W3C//DTD SVG 1.1//EN"
 "http://www.w3.org/Graphics/SVG/1.1/DTD/svg11.dtd">
<!-- Generated by graphviz version 2.36.0 (20140111.2315)
 -->
<!-- Title: TNodeIntegrator_PPMBallistics_Endpoint_Out Pages: 1 -->
<svg width="170pt" height="748pt"
 viewBox="0.00 0.00 170.00 748.00" xmlns="http://www.w3.org/2000/svg" xmlns:xlink="http://www.w3.org/1999/xlink">
<g id="graph0" class="graph" transform="scale(1 1) rotate(0) translate(4 744)">
<title>TNodeIntegrator_PPMBallistics_Endpoint_Out</title>
<polygon fill="white" stroke="none" points="-4,4 -4,-744 166,-744 166,4 -4,4"/>
<!-- Node1 -->
<g id="node1" class="node"><title>Node1</title>
<polygon fill="#bfbfbf" stroke="black" points="-0.5,-1 -0.5,-91 162.5,-91 162.5,-1 -0.5,-1"/>
<text text-anchor="start" x="7.5" y="-79" font-family="Helvetica,sans-Serif" font-size="10.00">TNodeIntegrator_PPMBallistics</text>
<text text-anchor="middle" x="81" y="-68" font-family="Helvetica,sans-Serif" font-size="10.00">_Endpoint_Out</text>
<polyline fill="none" stroke="black" points="-0.5,-61 162.5,-61 "/>
<text text-anchor="middle" x="81" y="-49" font-family="Helvetica,sans-Serif" font-size="10.00"> </text>
<polyline fill="none" stroke="black" points="-0.5,-42 162.5,-42 "/>
<text text-anchor="start" x="7.5" y="-30" font-family="Helvetica,sans-Serif" font-size="10.00">+ TNodeIntegrator_PPMBallistics</text>
<text text-anchor="start" x="7.5" y="-19" font-family="Helvetica,sans-Serif" font-size="10.00">_Endpoint_Out()</text>
<text text-anchor="start" x="7.5" y="-8" font-family="Helvetica,sans-Serif" font-size="10.00"># _Register()</text>
</g>
<!-- Node2 -->
<g id="node2" class="node"><title>Node2</title>
<g id="a_node2"><a xlink:href="../../df/d90/classppm__java_1_1typelib_1_1_v_audio_port___output___samples.html" target="_top" xlink:title="Base class for an output that sends single sample values. ">
<polygon fill="white" stroke="black" points="1.5,-129 1.5,-241 160.5,-241 160.5,-129 1.5,-129"/>
<text text-anchor="middle" x="81" y="-229" font-family="Helvetica,sans-Serif" font-size="10.00">VAudioPort_Output_Samples</text>
<polyline fill="none" stroke="black" points="1.5,-222 160.5,-222 "/>
<text text-anchor="middle" x="81" y="-210" font-family="Helvetica,sans-Serif" font-size="10.00"> </text>
<polyline fill="none" stroke="black" points="1.5,-203 160.5,-203 "/>
<text text-anchor="start" x="9.5" y="-191" font-family="Helvetica,sans-Serif" font-size="10.00">+ VAudioPort_Output_Samples()</text>
<text text-anchor="start" x="9.5" y="-180" font-family="Helvetica,sans-Serif" font-size="10.00">+ PushSample()</text>
<text text-anchor="start" x="9.5" y="-169" font-family="Helvetica,sans-Serif" font-size="10.00"># _GetType()</text>
<text text-anchor="start" x="9.5" y="-158" font-family="Helvetica,sans-Serif" font-size="10.00"># _Visit()</text>
<text text-anchor="start" x="9.5" y="-147" font-family="Helvetica,sans-Serif" font-size="10.00"># _Visit()</text>
<text text-anchor="start" x="9.5" y="-136" font-family="Helvetica,sans-Serif" font-size="10.00"># _Visit()</text>
</a>
</g>
</g>
<!-- Node2&#45;&gt;Node1 -->
<g id="edge1" class="edge"><title>Node2&#45;&gt;Node1</title>
<path fill="none" stroke="midnightblue" d="M81,-118.634C81,-109.326 81,-99.9403 81,-91.1667"/>
<polygon fill="none" stroke="midnightblue" points="77.5001,-118.672 81,-128.672 84.5001,-118.672 77.5001,-118.672"/>
</g>
<!-- Node3 -->
<g id="node3" class="node"><title>Node3</title>
<g id="a_node3"><a xlink:href="../../df/d02/classppm__java_1_1typelib_1_1_v_audio_port___output.html" target="_top" xlink:title="Base class for an output audio port. ">
<polygon fill="white" stroke="black" points="23,-279 23,-413 139,-413 139,-279 23,-279"/>
<text text-anchor="middle" x="81" y="-401" font-family="Helvetica,sans-Serif" font-size="10.00">VAudioPort_Output</text>
<polyline fill="none" stroke="black" points="23,-394 139,-394 "/>
<text text-anchor="start" x="31" y="-382" font-family="Helvetica,sans-Serif" font-size="10.00">&#45; fTarget</text>
<polyline fill="none" stroke="black" points="23,-375 139,-375 "/>
<text text-anchor="start" x="31" y="-363" font-family="Helvetica,sans-Serif" font-size="10.00">+ VAudioPort_Output()</text>
<text text-anchor="start" x="31" y="-352" font-family="Helvetica,sans-Serif" font-size="10.00">+ SetTarget()</text>
<text text-anchor="start" x="31" y="-341" font-family="Helvetica,sans-Serif" font-size="10.00"># _GetTarget()</text>
<text text-anchor="start" x="31" y="-330" font-family="Helvetica,sans-Serif" font-size="10.00"># _SetTarget()</text>
<text text-anchor="start" x="31" y="-319" font-family="Helvetica,sans-Serif" font-size="10.00"># _SetTarget_Log()</text>
<text text-anchor="start" x="31" y="-308" font-family="Helvetica,sans-Serif" font-size="10.00"># _Visit()</text>
<text text-anchor="start" x="31" y="-297" font-family="Helvetica,sans-Serif" font-size="10.00"># _Visit()</text>
<text text-anchor="start" x="31" y="-286" font-family="Helvetica,sans-Serif" font-size="10.00"># _Visit()</text>
</a>
</g>
</g>
<!-- Node3&#45;&gt;Node2 -->
<g id="edge2" class="edge"><title>Node3&#45;&gt;Node2</title>
<path fill="none" stroke="midnightblue" d="M81,-268.657C81,-259.494 81,-250.276 81,-241.49"/>
<polygon fill="none" stroke="midnightblue" points="77.5001,-268.951 81,-278.951 84.5001,-268.951 77.5001,-268.951"/>
</g>
<!-- Node4 -->
<g id="node4" class="node"><title>Node4</title>
<g id="a_node4"><a xlink:href="../../de/dc9/classppm__java_1_1typelib_1_1_v_audio_port.html" target="_top" xlink:title="Base class for all audio ports. ">
<polygon fill="white" stroke="black" points="40.5,-450.5 40.5,-529.5 121.5,-529.5 121.5,-450.5 40.5,-450.5"/>
<text text-anchor="middle" x="81" y="-517.5" font-family="Helvetica,sans-Serif" font-size="10.00">VAudioPort</text>
<polyline fill="none" stroke="black" points="40.5,-510.5 121.5,-510.5 "/>
<text text-anchor="start" x="48.5" y="-498.5" font-family="Helvetica,sans-Serif" font-size="10.00">&#45; fHost</text>
<polyline fill="none" stroke="black" points="40.5,-491.5 121.5,-491.5 "/>
<text text-anchor="start" x="48.5" y="-479.5" font-family="Helvetica,sans-Serif" font-size="10.00">+ VAudioPort()</text>
<text text-anchor="start" x="48.5" y="-468.5" font-family="Helvetica,sans-Serif" font-size="10.00"># _GetHost()</text>
<text text-anchor="start" x="48.5" y="-457.5" font-family="Helvetica,sans-Serif" font-size="10.00"># _GetType()</text>
</a>
</g>
</g>
<!-- Node4&#45;&gt;Node3 -->
<g id="edge3" class="edge"><title>Node4&#45;&gt;Node3</title>
<path fill="none" stroke="midnightblue" d="M81,-440.195C81,-431.448 81,-422.201 81,-413.063"/>
<polygon fill="none" stroke="midnightblue" points="77.5001,-440.198 81,-450.198 84.5001,-440.198 77.5001,-440.198"/>
</g>
<!-- Node5 -->
<g id="node5" class="node"><title>Node5</title>
<g id="a_node5"><a xlink:href="../../d1/db3/classppm__java_1_1typelib_1_1_v_audio_object.html" target="_top" xlink:title="Base class for all browseable audio objects. ">
<polygon fill="white" stroke="black" points="35,-566.5 35,-623.5 127,-623.5 127,-566.5 35,-566.5"/>
<text text-anchor="middle" x="81" y="-611.5" font-family="Helvetica,sans-Serif" font-size="10.00">VAudioObject</text>
<polyline fill="none" stroke="black" points="35,-604.5 127,-604.5 "/>
<text text-anchor="middle" x="81" y="-592.5" font-family="Helvetica,sans-Serif" font-size="10.00"> </text>
<polyline fill="none" stroke="black" points="35,-585.5 127,-585.5 "/>
<text text-anchor="start" x="43" y="-573.5" font-family="Helvetica,sans-Serif" font-size="10.00">+ VAudioObject()</text>
</a>
</g>
</g>
<!-- Node5&#45;&gt;Node4 -->
<g id="edge4" class="edge"><title>Node5&#45;&gt;Node4</title>
<path fill="none" stroke="midnightblue" d="M81,-556.156C81,-547.473 81,-538.232 81,-529.52"/>
<polygon fill="none" stroke="midnightblue" points="77.5001,-556.398 81,-566.398 84.5001,-556.398 77.5001,-556.398"/>
</g>
<!-- Node6 -->
<g id="node6" class="node"><title>Node6</title>
<g id="a_node6"><a xlink:href="../../de/dd1/classppm__java_1_1typelib_1_1_v_browseable.html" target="_top" xlink:title="Base class for all browseable objects. ">
<polygon fill="white" stroke="black" points="36.5,-660.5 36.5,-739.5 125.5,-739.5 125.5,-660.5 36.5,-660.5"/>
<text text-anchor="middle" x="81" y="-727.5" font-family="Helvetica,sans-Serif" font-size="10.00">VBrowseable</text>
<polyline fill="none" stroke="black" points="36.5,-720.5 125.5,-720.5 "/>
<text text-anchor="start" x="44.5" y="-708.5" font-family="Helvetica,sans-Serif" font-size="10.00">&#45; fID</text>
<polyline fill="none" stroke="black" points="36.5,-701.5 125.5,-701.5 "/>
<text text-anchor="start" x="44.5" y="-689.5" font-family="Helvetica,sans-Serif" font-size="10.00">+ VBrowseable()</text>
<text text-anchor="start" x="44.5" y="-678.5" font-family="Helvetica,sans-Serif" font-size="10.00">+ GetID()</text>
<text text-anchor="start" x="44.5" y="-667.5" font-family="Helvetica,sans-Serif" font-size="10.00"># _Register()</text>
</a>
</g>
</g>
<!-- Node6&#45;&gt;Node5 -->
<g id="edge5" class="edge"><title>Node6&#45;&gt;Node5</title>
<path fill="none" stroke="midnightblue" d="M81,-650.163C81,-641.04 81,-631.806 81,-623.61"/>
<polygon fill="none" stroke="midnightblue" points="77.5001,-650.354 81,-660.354 84.5001,-650.354 77.5001,-650.354"/>
</g>
</g>
</svg>
