<?xml version="1.0" encoding="UTF-8" standalone="no"?>
<!DOCTYPE svg PUBLIC "-//W3C//DTD SVG 1.1//EN"
 "http://www.w3.org/Graphics/SVG/1.1/DTD/svg11.dtd">
<!-- Generated by graphviz version 2.36.0 (20140111.2315)
 -->
<!-- Title: TNodeConverterDb Pages: 1 -->
<svg width="205pt" height="580pt"
 viewBox="0.00 0.00 205.00 580.00" xmlns="http://www.w3.org/2000/svg" xmlns:xlink="http://www.w3.org/1999/xlink">
<g id="graph0" class="graph" transform="scale(1 1) rotate(0) translate(4 576)">
<title>TNodeConverterDb</title>
<polygon fill="white" stroke="none" points="-4,4 -4,-576 201,-576 201,4 -4,4"/>
<!-- Node1 -->
<g id="node1" class="node"><title>Node1</title>
<polygon fill="#bfbfbf" stroke="black" points="50.5,-0.5 50.5,-145.5 163.5,-145.5 163.5,-0.5 50.5,-0.5"/>
<text text-anchor="middle" x="107" y="-133.5" font-family="Helvetica,sans-Serif" font-size="10.00">TNodeConverterDb</text>
<polyline fill="none" stroke="black" points="50.5,-126.5 163.5,-126.5 "/>
<text text-anchor="start" x="58.5" y="-114.5" font-family="Helvetica,sans-Serif" font-size="10.00">+ gkMinDB</text>
<text text-anchor="start" x="58.5" y="-103.5" font-family="Helvetica,sans-Serif" font-size="10.00">+ gkMinThreshold</text>
<text text-anchor="start" x="58.5" y="-92.5" font-family="Helvetica,sans-Serif" font-size="10.00">&#45; fStats</text>
<polyline fill="none" stroke="black" points="50.5,-85.5 163.5,-85.5 "/>
<text text-anchor="start" x="58.5" y="-73.5" font-family="Helvetica,sans-Serif" font-size="10.00">+ CreatePort_In()</text>
<text text-anchor="start" x="58.5" y="-62.5" font-family="Helvetica,sans-Serif" font-size="10.00">+ CreatePort_Out()</text>
<text text-anchor="start" x="58.5" y="-51.5" font-family="Helvetica,sans-Serif" font-size="10.00">+ StatsGet()</text>
<text text-anchor="start" x="58.5" y="-40.5" font-family="Helvetica,sans-Serif" font-size="10.00">+ CreateInstance()</text>
<text text-anchor="start" x="58.5" y="-29.5" font-family="Helvetica,sans-Serif" font-size="10.00">~ Receive()</text>
<text text-anchor="start" x="58.5" y="-18.5" font-family="Helvetica,sans-Serif" font-size="10.00"># _Register()</text>
<text text-anchor="start" x="58.5" y="-7.5" font-family="Helvetica,sans-Serif" font-size="10.00">&#45; TNodeConverterDb()</text>
</g>
<!-- Node2 -->
<g id="node2" class="node"><title>Node2</title>
<g id="a_node2"><a xlink:href="../../d5/d6a/classppm__java_1_1typelib_1_1_v_audio_processor.html" target="_top" xlink:title="Base class for all modules processing audio samples. ">
<polygon fill="white" stroke="black" points="-0.5,-183 -0.5,-361 106.5,-361 106.5,-183 -0.5,-183"/>
<text text-anchor="middle" x="53" y="-349" font-family="Helvetica,sans-Serif" font-size="10.00">VAudioProcessor</text>
<polyline fill="none" stroke="black" points="-0.5,-342 106.5,-342 "/>
<text text-anchor="start" x="7.5" y="-330" font-family="Helvetica,sans-Serif" font-size="10.00">&#45; fPortsIn</text>
<text text-anchor="start" x="7.5" y="-319" font-family="Helvetica,sans-Serif" font-size="10.00">&#45; fPortsOut</text>
<polyline fill="none" stroke="black" points="-0.5,-312 106.5,-312 "/>
<text text-anchor="start" x="7.5" y="-300" font-family="Helvetica,sans-Serif" font-size="10.00">+ VAudioProcessor()</text>
<text text-anchor="start" x="7.5" y="-289" font-family="Helvetica,sans-Serif" font-size="10.00">+ CreatePort_In()</text>
<text text-anchor="start" x="7.5" y="-278" font-family="Helvetica,sans-Serif" font-size="10.00">+ CreatePort_Out()</text>
<text text-anchor="start" x="7.5" y="-267" font-family="Helvetica,sans-Serif" font-size="10.00">+ GetNumPortsIn()</text>
<text text-anchor="start" x="7.5" y="-256" font-family="Helvetica,sans-Serif" font-size="10.00">+ GetNumPortsOut()</text>
<text text-anchor="start" x="7.5" y="-245" font-family="Helvetica,sans-Serif" font-size="10.00">+ GetPortIn()</text>
<text text-anchor="start" x="7.5" y="-234" font-family="Helvetica,sans-Serif" font-size="10.00">+ GetPortIn()</text>
<text text-anchor="start" x="7.5" y="-223" font-family="Helvetica,sans-Serif" font-size="10.00">+ GetPortOut()</text>
<text text-anchor="start" x="7.5" y="-212" font-family="Helvetica,sans-Serif" font-size="10.00">+ GetPortOut()</text>
<text text-anchor="start" x="7.5" y="-201" font-family="Helvetica,sans-Serif" font-size="10.00"># AddPortIn()</text>
<text text-anchor="start" x="7.5" y="-190" font-family="Helvetica,sans-Serif" font-size="10.00"># AddPortOut()</text>
</a>
</g>
</g>
<!-- Node2&#45;&gt;Node1 -->
<g id="edge1" class="edge"><title>Node2&#45;&gt;Node1</title>
<path fill="none" stroke="midnightblue" d="M79.8153,-173.174C82.3706,-163.852 84.928,-154.522 87.3962,-145.518"/>
<polygon fill="none" stroke="midnightblue" points="76.4252,-172.302 77.157,-182.872 83.1762,-174.153 76.4252,-172.302"/>
</g>
<!-- Node3 -->
<g id="node3" class="node"><title>Node3</title>
<g id="a_node3"><a xlink:href="../../d1/db3/classppm__java_1_1typelib_1_1_v_audio_object.html" target="_top" xlink:title="Base class for all browseable audio objects. ">
<polygon fill="white" stroke="black" points="7,-398.5 7,-455.5 99,-455.5 99,-398.5 7,-398.5"/>
<text text-anchor="middle" x="53" y="-443.5" font-family="Helvetica,sans-Serif" font-size="10.00">VAudioObject</text>
<polyline fill="none" stroke="black" points="7,-436.5 99,-436.5 "/>
<text text-anchor="middle" x="53" y="-424.5" font-family="Helvetica,sans-Serif" font-size="10.00"> </text>
<polyline fill="none" stroke="black" points="7,-417.5 99,-417.5 "/>
<text text-anchor="start" x="15" y="-405.5" font-family="Helvetica,sans-Serif" font-size="10.00">+ VAudioObject()</text>
</a>
</g>
</g>
<!-- Node3&#45;&gt;Node2 -->
<g id="edge2" class="edge"><title>Node3&#45;&gt;Node2</title>
<path fill="none" stroke="midnightblue" d="M53,-388.166C53,-379.781 53,-370.554 53,-361.086"/>
<polygon fill="none" stroke="midnightblue" points="49.5001,-388.293 53,-398.293 56.5001,-388.293 49.5001,-388.293"/>
</g>
<!-- Node4 -->
<g id="node4" class="node"><title>Node4</title>
<g id="a_node4"><a xlink:href="../../de/dd1/classppm__java_1_1typelib_1_1_v_browseable.html" target="_top" xlink:title="Base class for all browseable objects. ">
<polygon fill="white" stroke="black" points="8.5,-492.5 8.5,-571.5 97.5,-571.5 97.5,-492.5 8.5,-492.5"/>
<text text-anchor="middle" x="53" y="-559.5" font-family="Helvetica,sans-Serif" font-size="10.00">VBrowseable</text>
<polyline fill="none" stroke="black" points="8.5,-552.5 97.5,-552.5 "/>
<text text-anchor="start" x="16.5" y="-540.5" font-family="Helvetica,sans-Serif" font-size="10.00">&#45; fID</text>
<polyline fill="none" stroke="black" points="8.5,-533.5 97.5,-533.5 "/>
<text text-anchor="start" x="16.5" y="-521.5" font-family="Helvetica,sans-Serif" font-size="10.00">+ VBrowseable()</text>
<text text-anchor="start" x="16.5" y="-510.5" font-family="Helvetica,sans-Serif" font-size="10.00">+ GetID()</text>
<text text-anchor="start" x="16.5" y="-499.5" font-family="Helvetica,sans-Serif" font-size="10.00"># _Register()</text>
</a>
</g>
</g>
<!-- Node4&#45;&gt;Node3 -->
<g id="edge3" class="edge"><title>Node4&#45;&gt;Node3</title>
<path fill="none" stroke="midnightblue" d="M53,-482.163C53,-473.04 53,-463.806 53,-455.61"/>
<polygon fill="none" stroke="midnightblue" points="49.5001,-482.354 53,-492.354 56.5001,-482.354 49.5001,-482.354"/>
</g>
<!-- Node5 -->
<g id="node5" class="node"><title>Node5</title>
<g id="a_node5"><a xlink:href="../../dc/dc0/interfaceppm__java_1_1typelib_1_1_i_stat_enabled.html" target="_top" xlink:title="Interface for an object that supports runtime statistics. ">
<polygon fill="white" stroke="black" points="124.5,-243.5 124.5,-300.5 197.5,-300.5 197.5,-243.5 124.5,-243.5"/>
<text text-anchor="middle" x="161" y="-288.5" font-family="Helvetica,sans-Serif" font-size="10.00">IStatEnabled</text>
<polyline fill="none" stroke="black" points="124.5,-281.5 197.5,-281.5 "/>
<text text-anchor="middle" x="161" y="-269.5" font-family="Helvetica,sans-Serif" font-size="10.00"> </text>
<polyline fill="none" stroke="black" points="124.5,-262.5 197.5,-262.5 "/>
<text text-anchor="start" x="132.5" y="-250.5" font-family="Helvetica,sans-Serif" font-size="10.00">+ StatsGet()</text>
</a>
</g>
</g>
<!-- Node5&#45;&gt;Node1 -->
<g id="edge4" class="edge"><title>Node5&#45;&gt;Node1</title>
<path fill="none" stroke="midnightblue" d="M150.715,-233.478C143.932,-208.733 134.829,-175.523 126.686,-145.816"/>
<polygon fill="none" stroke="midnightblue" points="147.358,-234.474 153.378,-243.193 154.109,-232.623 147.358,-234.474"/>
</g>
</g>
</svg>
