<?xml version="1.0" encoding="UTF-8" standalone="no"?>
<!DOCTYPE svg PUBLIC "-//W3C//DTD SVG 1.1//EN"
 "http://www.w3.org/Graphics/SVG/1.1/DTD/svg11.dtd">
<!-- Generated by graphviz version 2.36.0 (20140111.2315)
 -->
<!-- Title: TAudioContext_Endpoint_In Pages: 1 -->
<svg width="1069pt" height="1290pt"
 viewBox="0.00 0.00 1069.00 1290.00" xmlns="http://www.w3.org/2000/svg" xmlns:xlink="http://www.w3.org/1999/xlink">
<g id="graph0" class="graph" transform="scale(1 1) rotate(0) translate(4 1286)">
<title>TAudioContext_Endpoint_In</title>
<polygon fill="white" stroke="none" points="-4,4 -4,-1286 1065,-1286 1065,4 -4,4"/>
<!-- Node1 -->
<g id="node1" class="node"><title>Node1</title>
<polygon fill="#bfbfbf" stroke="black" points="436.5,-1 436.5,-69 589.5,-69 589.5,-1 436.5,-1"/>
<text text-anchor="middle" x="513" y="-57" font-family="Helvetica,sans-Serif" font-size="10.00">TAudioContext_Endpoint_In</text>
<polyline fill="none" stroke="black" points="436.5,-50 589.5,-50 "/>
<text text-anchor="middle" x="513" y="-38" font-family="Helvetica,sans-Serif" font-size="10.00"> </text>
<polyline fill="none" stroke="black" points="436.5,-31 589.5,-31 "/>
<text text-anchor="start" x="444.5" y="-19" font-family="Helvetica,sans-Serif" font-size="10.00"># TAudioContext_Endpoint_In()</text>
<text text-anchor="start" x="444.5" y="-8" font-family="Helvetica,sans-Serif" font-size="10.00"># _Register()</text>
</g>
<!-- Node2 -->
<g id="node2" class="node"><title>Node2</title>
<g id="a_node2"><a xlink:href="../../db/d16/classppm__java_1_1typelib_1_1_v_audio_port___input___chunks___buffered.html" target="_top" xlink:title="Base class for an input port that receives sample chunks. ">
<polygon fill="white" stroke="black" points="443,-108.5 443,-253.5 583,-253.5 583,-108.5 443,-108.5"/>
<text text-anchor="start" x="451" y="-241.5" font-family="Helvetica,sans-Serif" font-size="10.00">VAudioPort_Input_Chunks</text>
<text text-anchor="middle" x="513" y="-230.5" font-family="Helvetica,sans-Serif" font-size="10.00">_Buffered</text>
<polyline fill="none" stroke="black" points="443,-223.5 583,-223.5 "/>
<text text-anchor="middle" x="513" y="-211.5" font-family="Helvetica,sans-Serif" font-size="10.00"> </text>
<polyline fill="none" stroke="black" points="443,-204.5 583,-204.5 "/>
<text text-anchor="start" x="451" y="-192.5" font-family="Helvetica,sans-Serif" font-size="10.00">+ FetchPacket()</text>
<text text-anchor="start" x="451" y="-181.5" font-family="Helvetica,sans-Serif" font-size="10.00">+ ReceivePacket()</text>
<text text-anchor="start" x="451" y="-170.5" font-family="Helvetica,sans-Serif" font-size="10.00">+ StatsClear()</text>
<text text-anchor="start" x="451" y="-159.5" font-family="Helvetica,sans-Serif" font-size="10.00">+ StatsGet()</text>
<text text-anchor="start" x="451" y="-148.5" font-family="Helvetica,sans-Serif" font-size="10.00"># VAudioPort_Input_Chunks</text>
<text text-anchor="start" x="451" y="-137.5" font-family="Helvetica,sans-Serif" font-size="10.00">_Buffered()</text>
<text text-anchor="start" x="451" y="-126.5" font-family="Helvetica,sans-Serif" font-size="10.00"># _Accept()</text>
<text text-anchor="start" x="451" y="-115.5" font-family="Helvetica,sans-Serif" font-size="10.00"># _GetType()</text>
</a>
</g>
</g>
<!-- Node2&#45;&gt;Node1 -->
<g id="edge1" class="edge"><title>Node2&#45;&gt;Node1</title>
<path fill="none" stroke="midnightblue" d="M513,-98.1787C513,-87.9937 513,-78.0759 513,-69.2612"/>
<polygon fill="none" stroke="midnightblue" points="509.5,-98.4218 513,-108.422 516.5,-98.4219 509.5,-98.4218"/>
</g>
<!-- Node3 -->
<g id="node3" class="node"><title>Node3</title>
<g id="a_node3"><a xlink:href="../../d9/d0e/classppm__java_1_1typelib_1_1_v_audio_port___input.html" target="_top" xlink:title="Base class for an input audio port. ">
<polygon fill="white" stroke="black" points="338,-379.5 338,-458.5 446,-458.5 446,-379.5 338,-379.5"/>
<text text-anchor="middle" x="392" y="-446.5" font-family="Helvetica,sans-Serif" font-size="10.00">VAudioPort_Input</text>
<polyline fill="none" stroke="black" points="338,-439.5 446,-439.5 "/>
<text text-anchor="start" x="346" y="-427.5" font-family="Helvetica,sans-Serif" font-size="10.00">&#45; fIPort</text>
<polyline fill="none" stroke="black" points="338,-420.5 446,-420.5 "/>
<text text-anchor="start" x="346" y="-408.5" font-family="Helvetica,sans-Serif" font-size="10.00">+ VAudioPort_Input()</text>
<text text-anchor="start" x="346" y="-397.5" font-family="Helvetica,sans-Serif" font-size="10.00">+ GetPortNum()</text>
<text text-anchor="start" x="346" y="-386.5" font-family="Helvetica,sans-Serif" font-size="10.00"># _Accept()</text>
</a>
</g>
</g>
<!-- Node3&#45;&gt;Node2 -->
<g id="edge2" class="edge"><title>Node3&#45;&gt;Node2</title>
<path fill="none" stroke="midnightblue" d="M416.517,-370.182C433.679,-336.708 456.911,-291.398 476.276,-253.626"/>
<polygon fill="none" stroke="midnightblue" points="413.293,-368.798 411.845,-379.294 419.522,-371.992 413.293,-368.798"/>
</g>
<!-- Node4 -->
<g id="node4" class="node"><title>Node4</title>
<g id="a_node4"><a xlink:href="../../de/dc9/classppm__java_1_1typelib_1_1_v_audio_port.html" target="_top" xlink:title="Base class for all audio ports. ">
<polygon fill="white" stroke="black" points="275.5,-667.5 275.5,-746.5 356.5,-746.5 356.5,-667.5 275.5,-667.5"/>
<text text-anchor="middle" x="316" y="-734.5" font-family="Helvetica,sans-Serif" font-size="10.00">VAudioPort</text>
<polyline fill="none" stroke="black" points="275.5,-727.5 356.5,-727.5 "/>
<text text-anchor="middle" x="316" y="-715.5" font-family="Helvetica,sans-Serif" font-size="10.00"> </text>
<polyline fill="none" stroke="black" points="275.5,-708.5 356.5,-708.5 "/>
<text text-anchor="start" x="283.5" y="-696.5" font-family="Helvetica,sans-Serif" font-size="10.00">+ VAudioPort()</text>
<text text-anchor="start" x="283.5" y="-685.5" font-family="Helvetica,sans-Serif" font-size="10.00"># _GetHost()</text>
<text text-anchor="start" x="283.5" y="-674.5" font-family="Helvetica,sans-Serif" font-size="10.00"># _GetType()</text>
</a>
</g>
</g>
<!-- Node4&#45;&gt;Node3 -->
<g id="edge3" class="edge"><title>Node4&#45;&gt;Node3</title>
<path fill="none" stroke="midnightblue" d="M328.824,-657.74C343.704,-601.747 367.945,-510.522 381.67,-458.874"/>
<polygon fill="none" stroke="midnightblue" points="325.435,-656.865 326.25,-667.429 332.201,-658.663 325.435,-656.865"/>
</g>
<!-- Node5 -->
<g id="node5" class="node"><title>Node5</title>
<g id="a_node5"><a xlink:href="../../d1/db3/classppm__java_1_1typelib_1_1_v_audio_object.html" target="_top" xlink:title="Base class for all browseable audio objects. ">
<polygon fill="white" stroke="black" points="336,-1100.5 336,-1157.5 428,-1157.5 428,-1100.5 336,-1100.5"/>
<text text-anchor="middle" x="382" y="-1145.5" font-family="Helvetica,sans-Serif" font-size="10.00">VAudioObject</text>
<polyline fill="none" stroke="black" points="336,-1138.5 428,-1138.5 "/>
<text text-anchor="middle" x="382" y="-1126.5" font-family="Helvetica,sans-Serif" font-size="10.00"> </text>
<polyline fill="none" stroke="black" points="336,-1119.5 428,-1119.5 "/>
<text text-anchor="start" x="344" y="-1107.5" font-family="Helvetica,sans-Serif" font-size="10.00">+ VAudioObject()</text>
</a>
</g>
</g>
<!-- Node5&#45;&gt;Node4 -->
<g id="edge4" class="edge"><title>Node5&#45;&gt;Node4</title>
<path fill="none" stroke="midnightblue" d="M376.091,-1090.4C363.61,-1010.98 334.678,-826.86 322.063,-746.584"/>
<polygon fill="none" stroke="midnightblue" points="372.66,-1091.11 377.67,-1100.44 379.575,-1090.02 372.66,-1091.11"/>
</g>
<!-- Node7 -->
<g id="node7" class="node"><title>Node7</title>
<g id="a_node7"><a xlink:href="../../d5/d6a/classppm__java_1_1typelib_1_1_v_audio_processor.html" target="_top" xlink:title="Base class for all modules processing audio samples. ">
<polygon fill="white" stroke="black" points="203.5,-878.5 203.5,-1045.5 310.5,-1045.5 310.5,-878.5 203.5,-878.5"/>
<text text-anchor="middle" x="257" y="-1033.5" font-family="Helvetica,sans-Serif" font-size="10.00">VAudioProcessor</text>
<polyline fill="none" stroke="black" points="203.5,-1026.5 310.5,-1026.5 "/>
<text text-anchor="middle" x="257" y="-1014.5" font-family="Helvetica,sans-Serif" font-size="10.00"> </text>
<polyline fill="none" stroke="black" points="203.5,-1007.5 310.5,-1007.5 "/>
<text text-anchor="start" x="211.5" y="-995.5" font-family="Helvetica,sans-Serif" font-size="10.00">+ VAudioProcessor()</text>
<text text-anchor="start" x="211.5" y="-984.5" font-family="Helvetica,sans-Serif" font-size="10.00">+ CreatePort_In()</text>
<text text-anchor="start" x="211.5" y="-973.5" font-family="Helvetica,sans-Serif" font-size="10.00">+ CreatePort_Out()</text>
<text text-anchor="start" x="211.5" y="-962.5" font-family="Helvetica,sans-Serif" font-size="10.00">+ GetNumPortsIn()</text>
<text text-anchor="start" x="211.5" y="-951.5" font-family="Helvetica,sans-Serif" font-size="10.00">+ GetNumPortsOut()</text>
<text text-anchor="start" x="211.5" y="-940.5" font-family="Helvetica,sans-Serif" font-size="10.00">+ GetPortIn()</text>
<text text-anchor="start" x="211.5" y="-929.5" font-family="Helvetica,sans-Serif" font-size="10.00">+ GetPortIn()</text>
<text text-anchor="start" x="211.5" y="-918.5" font-family="Helvetica,sans-Serif" font-size="10.00">+ GetPortOut()</text>
<text text-anchor="start" x="211.5" y="-907.5" font-family="Helvetica,sans-Serif" font-size="10.00">+ GetPortOut()</text>
<text text-anchor="start" x="211.5" y="-896.5" font-family="Helvetica,sans-Serif" font-size="10.00"># AddPortIn()</text>
<text text-anchor="start" x="211.5" y="-885.5" font-family="Helvetica,sans-Serif" font-size="10.00"># AddPortOut()</text>
</a>
</g>
</g>
<!-- Node5&#45;&gt;Node7 -->
<g id="edge7" class="edge"><title>Node5&#45;&gt;Node7</title>
<path fill="none" stroke="midnightblue" d="M354.965,-1092.31C341.978,-1075.17 325.939,-1054 310.625,-1033.79"/>
<polygon fill="none" stroke="midnightblue" points="352.249,-1094.53 361.078,-1100.38 357.829,-1090.3 352.249,-1094.53"/>
</g>
<!-- Node6 -->
<g id="node6" class="node"><title>Node6</title>
<g id="a_node6"><a xlink:href="../../de/dd1/classppm__java_1_1typelib_1_1_v_browseable.html" target="_top" xlink:title="Base class for all browseable objects. ">
<polygon fill="white" stroke="black" points="337.5,-1202.5 337.5,-1281.5 426.5,-1281.5 426.5,-1202.5 337.5,-1202.5"/>
<text text-anchor="middle" x="382" y="-1269.5" font-family="Helvetica,sans-Serif" font-size="10.00">VBrowseable</text>
<polyline fill="none" stroke="black" points="337.5,-1262.5 426.5,-1262.5 "/>
<text text-anchor="start" x="345.5" y="-1250.5" font-family="Helvetica,sans-Serif" font-size="10.00">&#45; fID</text>
<polyline fill="none" stroke="black" points="337.5,-1243.5 426.5,-1243.5 "/>
<text text-anchor="start" x="345.5" y="-1231.5" font-family="Helvetica,sans-Serif" font-size="10.00">+ VBrowseable()</text>
<text text-anchor="start" x="345.5" y="-1220.5" font-family="Helvetica,sans-Serif" font-size="10.00">+ GetID()</text>
<text text-anchor="start" x="345.5" y="-1209.5" font-family="Helvetica,sans-Serif" font-size="10.00"># _Register()</text>
</a>
</g>
</g>
<!-- Node6&#45;&gt;Node5 -->
<g id="edge5" class="edge"><title>Node6&#45;&gt;Node5</title>
<path fill="none" stroke="midnightblue" d="M382,-1192.23C382,-1180.36 382,-1168.08 382,-1157.6"/>
<polygon fill="none" stroke="midnightblue" points="378.5,-1192.49 382,-1202.49 385.5,-1192.49 378.5,-1192.49"/>
</g>
<!-- Node7&#45;&gt;Node4 -->
<g id="edge6" class="edge"><title>Node7&#45;&gt;Node4</title>
<path fill="none" stroke="#404040" d="M276.319,-878.158C285.508,-838.755 296.199,-792.91 304.167,-758.74"/>
<polygon fill="none" stroke="#404040" points="304.247,-758.4 301.714,-751.648 306.972,-746.714 309.505,-753.465 304.247,-758.4"/>
<text text-anchor="middle" x="298.5" y="-851.5" font-family="Helvetica,sans-Serif" font-size="10.00"> &#45;fHost</text>
</g>
<!-- Node8 -->
<g id="node8" class="node"><title>Node8</title>
<polygon fill="white" stroke="#bfbfbf" points="0,-1095 0,-1163 150,-1163 150,-1095 0,-1095"/>
<text text-anchor="start" x="8" y="-1151" font-family="Helvetica,sans-Serif" font-size="10.00">TArrayMap&lt; ppm_java.typelib.</text>
<text text-anchor="middle" x="75" y="-1140" font-family="Helvetica,sans-Serif" font-size="10.00">VAudioPort_Output &gt;</text>
<polyline fill="none" stroke="#bfbfbf" points="0,-1133 150,-1133 "/>
<text text-anchor="middle" x="75" y="-1121" font-family="Helvetica,sans-Serif" font-size="10.00"> </text>
<polyline fill="none" stroke="#bfbfbf" points="0,-1114 150,-1114 "/>
<text text-anchor="middle" x="75" y="-1102" font-family="Helvetica,sans-Serif" font-size="10.00"> </text>
</g>
<!-- Node8&#45;&gt;Node7 -->
<g id="edge8" class="edge"><title>Node8&#45;&gt;Node7</title>
<path fill="none" stroke="#404040" d="M111.83,-1094.61C135.44,-1073.21 166.699,-1044.87 194.162,-1019.97"/>
<polygon fill="none" stroke="#404040" points="194.423,-1019.73 196.181,-1012.74 203.313,-1011.67 201.555,-1018.67 194.423,-1019.73"/>
<text text-anchor="middle" x="169.5" y="-1067.5" font-family="Helvetica,sans-Serif" font-size="10.00"> &#45;fPortsOut</text>
</g>
<!-- Node9 -->
<g id="node9" class="node"><title>Node9</title>
<polygon fill="white" stroke="#bfbfbf" points="168,-1095 168,-1163 318,-1163 318,-1095 168,-1095"/>
<text text-anchor="start" x="176" y="-1151" font-family="Helvetica,sans-Serif" font-size="10.00">TArrayMap&lt; ppm_java.typelib.</text>
<text text-anchor="middle" x="243" y="-1140" font-family="Helvetica,sans-Serif" font-size="10.00">VAudioPort_Input &gt;</text>
<polyline fill="none" stroke="#bfbfbf" points="168,-1133 318,-1133 "/>
<text text-anchor="middle" x="243" y="-1121" font-family="Helvetica,sans-Serif" font-size="10.00"> </text>
<polyline fill="none" stroke="#bfbfbf" points="168,-1114 318,-1114 "/>
<text text-anchor="middle" x="243" y="-1102" font-family="Helvetica,sans-Serif" font-size="10.00"> </text>
</g>
<!-- Node9&#45;&gt;Node7 -->
<g id="edge9" class="edge"><title>Node9&#45;&gt;Node7</title>
<path fill="none" stroke="#404040" d="M245.833,-1094.61C246.757,-1083.72 247.833,-1071.04 248.945,-1057.93"/>
<polygon fill="none" stroke="#404040" points="248.959,-1057.77 245.48,-1051.45 249.973,-1045.81 253.452,-1052.13 248.959,-1057.77"/>
<text text-anchor="middle" x="269.5" y="-1067.5" font-family="Helvetica,sans-Serif" font-size="10.00"> &#45;fPortsIn</text>
</g>
<!-- Node10 -->
<g id="node10" class="node"><title>Node10</title>
<g id="a_node10"><a xlink:href="../../da/d4d/classppm__java_1_1util_1_1storage_1_1atomic_buffer_1_1_t_atomic_buffer.html" target="_top" xlink:title="An atomic&#45;access wrapper around a FloatBuffer. ">
<polygon fill="white" stroke="black" points="540.5,-302.5 540.5,-535.5 647.5,-535.5 647.5,-302.5 540.5,-302.5"/>
<text text-anchor="middle" x="594" y="-523.5" font-family="Helvetica,sans-Serif" font-size="10.00">TAtomicBuffer</text>
<polyline fill="none" stroke="black" points="540.5,-516.5 647.5,-516.5 "/>
<text text-anchor="start" x="548.5" y="-504.5" font-family="Helvetica,sans-Serif" font-size="10.00">&#45; fHasBeenCollected</text>
<text text-anchor="start" x="548.5" y="-493.5" font-family="Helvetica,sans-Serif" font-size="10.00">&#45; gkLocked</text>
<text text-anchor="start" x="548.5" y="-482.5" font-family="Helvetica,sans-Serif" font-size="10.00">&#45; gkUnlocked</text>
<polyline fill="none" stroke="black" points="540.5,-475.5 647.5,-475.5 "/>
<text text-anchor="start" x="548.5" y="-463.5" font-family="Helvetica,sans-Serif" font-size="10.00">+ TAtomicBuffer()</text>
<text text-anchor="start" x="548.5" y="-452.5" font-family="Helvetica,sans-Serif" font-size="10.00">+ TAtomicBuffer()</text>
<text text-anchor="start" x="548.5" y="-441.5" font-family="Helvetica,sans-Serif" font-size="10.00">+ TAtomicBuffer()</text>
<text text-anchor="start" x="548.5" y="-430.5" font-family="Helvetica,sans-Serif" font-size="10.00">+ Get()</text>
<text text-anchor="start" x="548.5" y="-419.5" font-family="Helvetica,sans-Serif" font-size="10.00">+ IsLocked()</text>
<text text-anchor="start" x="548.5" y="-408.5" font-family="Helvetica,sans-Serif" font-size="10.00">+ Set()</text>
<text text-anchor="start" x="548.5" y="-397.5" font-family="Helvetica,sans-Serif" font-size="10.00">+ StatsClear()</text>
<text text-anchor="start" x="548.5" y="-386.5" font-family="Helvetica,sans-Serif" font-size="10.00">+ StatsGet()</text>
<text text-anchor="start" x="548.5" y="-375.5" font-family="Helvetica,sans-Serif" font-size="10.00">&#45; _DataGet()</text>
<text text-anchor="start" x="548.5" y="-364.5" font-family="Helvetica,sans-Serif" font-size="10.00">&#45; _DataSet()</text>
<text text-anchor="start" x="548.5" y="-353.5" font-family="Helvetica,sans-Serif" font-size="10.00">&#45; _GetDeepCopy()</text>
<text text-anchor="start" x="548.5" y="-342.5" font-family="Helvetica,sans-Serif" font-size="10.00">&#45; _Init()</text>
<text text-anchor="start" x="548.5" y="-331.5" font-family="Helvetica,sans-Serif" font-size="10.00">&#45; _Lock()</text>
<text text-anchor="start" x="548.5" y="-320.5" font-family="Helvetica,sans-Serif" font-size="10.00">&#45; _TryLock()</text>
<text text-anchor="start" x="548.5" y="-309.5" font-family="Helvetica,sans-Serif" font-size="10.00">&#45; _Unlock()</text>
</a>
</g>
</g>
<!-- Node10&#45;&gt;Node2 -->
<g id="edge10" class="edge"><title>Node10&#45;&gt;Node2</title>
<path fill="none" stroke="#404040" d="M554.331,-302.42C550.017,-289.852 545.691,-277.248 541.548,-265.178"/>
<polygon fill="none" stroke="#404040" points="541.535,-265.138 535.803,-260.761 537.639,-253.788 543.37,-258.164 541.535,-265.138"/>
<text text-anchor="middle" x="565" y="-275.5" font-family="Helvetica,sans-Serif" font-size="10.00"> &#45;fBuffer</text>
</g>
<!-- Node11 -->
<g id="node11" class="node"><title>Node11</title>
<g id="a_node11"><a xlink:href="../../dc/dc0/interfaceppm__java_1_1typelib_1_1_i_stat_enabled.html" target="_top" xlink:title="Interface for an object that supports runtime statistics. ">
<polygon fill="white" stroke="black" points="374.5,-678.5 374.5,-735.5 447.5,-735.5 447.5,-678.5 374.5,-678.5"/>
<text text-anchor="middle" x="411" y="-723.5" font-family="Helvetica,sans-Serif" font-size="10.00">IStatEnabled</text>
<polyline fill="none" stroke="black" points="374.5,-716.5 447.5,-716.5 "/>
<text text-anchor="middle" x="411" y="-704.5" font-family="Helvetica,sans-Serif" font-size="10.00"> </text>
<polyline fill="none" stroke="black" points="374.5,-697.5 447.5,-697.5 "/>
<text text-anchor="start" x="382.5" y="-685.5" font-family="Helvetica,sans-Serif" font-size="10.00">+ StatsGet()</text>
</a>
</g>
</g>
<!-- Node11&#45;&gt;Node10 -->
<g id="edge11" class="edge"><title>Node11&#45;&gt;Node10</title>
<path fill="none" stroke="midnightblue" d="M421.176,-668.649C430.863,-636.707 447.33,-590.284 470,-554 489.398,-522.953 516.534,-492.644 540.476,-468.728"/>
<polygon fill="none" stroke="midnightblue" points="417.749,-667.898 418.27,-678.48 424.462,-669.882 417.749,-667.898"/>
</g>
<!-- Node12 -->
<g id="node12" class="node"><title>Node12</title>
<polygon fill="white" stroke="#bfbfbf" points="450.5,-933.5 450.5,-990.5 527.5,-990.5 527.5,-933.5 450.5,-933.5"/>
<text text-anchor="middle" x="489" y="-978.5" font-family="Helvetica,sans-Serif" font-size="10.00">AtomicInteger</text>
<polyline fill="none" stroke="#bfbfbf" points="450.5,-971.5 527.5,-971.5 "/>
<text text-anchor="middle" x="489" y="-959.5" font-family="Helvetica,sans-Serif" font-size="10.00"> </text>
<polyline fill="none" stroke="#bfbfbf" points="450.5,-952.5 527.5,-952.5 "/>
<text text-anchor="middle" x="489" y="-940.5" font-family="Helvetica,sans-Serif" font-size="10.00"> </text>
</g>
<!-- Node12&#45;&gt;Node10 -->
<g id="edge12" class="edge"><title>Node12&#45;&gt;Node10</title>
<path fill="none" stroke="#404040" d="M484.345,-933.302C474.749,-869.922 456.568,-710.079 493,-584 501.646,-554.081 517.369,-524.224 533.876,-498.345"/>
<polygon fill="none" stroke="#404040" points="533.905,-498.3 533.843,-491.089 540.476,-488.259 540.538,-495.469 533.905,-498.3"/>
<text text-anchor="middle" x="507" y="-704.5" font-family="Helvetica,sans-Serif" font-size="10.00"> &#45;fFlag</text>
</g>
<!-- Node16 -->
<g id="node16" class="node"><title>Node16</title>
<g id="a_node16"><a xlink:href="../../d4/dc0/classppm__java_1_1util_1_1storage_1_1atomic_buffer_1_1_t_atomic_buffer___stats.html" target="_top" xlink:title="Runtime statistics of a TAtomicBuffer. ">
<polygon fill="white" stroke="black" points="530,-585 530,-829 658,-829 658,-585 530,-585"/>
<text text-anchor="middle" x="594" y="-817" font-family="Helvetica,sans-Serif" font-size="10.00">TAtomicBuffer_Stats</text>
<polyline fill="none" stroke="black" points="530,-810 658,-810 "/>
<text text-anchor="start" x="538" y="-798" font-family="Helvetica,sans-Serif" font-size="10.00">&#45; fNumContentions</text>
<text text-anchor="start" x="538" y="-787" font-family="Helvetica,sans-Serif" font-size="10.00">&#45; fNumOverruns</text>
<text text-anchor="start" x="538" y="-776" font-family="Helvetica,sans-Serif" font-size="10.00">&#45; fNumUnderruns</text>
<text text-anchor="start" x="538" y="-765" font-family="Helvetica,sans-Serif" font-size="10.00">&#45; fTot_NumContentions</text>
<text text-anchor="start" x="538" y="-754" font-family="Helvetica,sans-Serif" font-size="10.00">&#45; fTot_NumOverruns</text>
<text text-anchor="start" x="538" y="-743" font-family="Helvetica,sans-Serif" font-size="10.00">&#45; fTot_NumUnderruns</text>
<text text-anchor="start" x="538" y="-732" font-family="Helvetica,sans-Serif" font-size="10.00">&#45; gkLocked</text>
<text text-anchor="start" x="538" y="-721" font-family="Helvetica,sans-Serif" font-size="10.00">&#45; gkUnlocked</text>
<polyline fill="none" stroke="black" points="530,-714 658,-714 "/>
<text text-anchor="start" x="538" y="-702" font-family="Helvetica,sans-Serif" font-size="10.00">+ TAtomicBuffer_Stats()</text>
<text text-anchor="start" x="538" y="-691" font-family="Helvetica,sans-Serif" font-size="10.00">+ Clear()</text>
<text text-anchor="start" x="538" y="-680" font-family="Helvetica,sans-Serif" font-size="10.00">+ GetDumpStr()</text>
<text text-anchor="start" x="538" y="-669" font-family="Helvetica,sans-Serif" font-size="10.00">+ GetRecord()</text>
<text text-anchor="start" x="538" y="-658" font-family="Helvetica,sans-Serif" font-size="10.00">~ IncrementContentions()</text>
<text text-anchor="start" x="538" y="-647" font-family="Helvetica,sans-Serif" font-size="10.00">~ IncrementOverruns()</text>
<text text-anchor="start" x="538" y="-636" font-family="Helvetica,sans-Serif" font-size="10.00">~ IncrementUnderruns()</text>
<text text-anchor="start" x="538" y="-625" font-family="Helvetica,sans-Serif" font-size="10.00">&#45; _Clear()</text>
<text text-anchor="start" x="538" y="-614" font-family="Helvetica,sans-Serif" font-size="10.00">&#45; _Increment()</text>
<text text-anchor="start" x="538" y="-603" font-family="Helvetica,sans-Serif" font-size="10.00">&#45; _Lock()</text>
<text text-anchor="start" x="538" y="-592" font-family="Helvetica,sans-Serif" font-size="10.00">&#45; _Unlock()</text>
</a>
</g>
</g>
<!-- Node12&#45;&gt;Node16 -->
<g id="edge18" class="edge"><title>Node12&#45;&gt;Node16</title>
<path fill="none" stroke="#404040" d="M500.437,-933.443C509.981,-910.446 524.339,-875.85 538.96,-840.619"/>
<polygon fill="none" stroke="#404040" points="539.111,-840.256 537.717,-833.181 543.711,-829.172 545.106,-836.247 539.111,-840.256"/>
<text text-anchor="middle" x="551.5" y="-851.5" font-family="Helvetica,sans-Serif" font-size="10.00"> &#45;fLock</text>
</g>
<!-- Node13 -->
<g id="node13" class="node"><title>Node13</title>
<polygon fill="white" stroke="#bfbfbf" points="676.5,-678.5 676.5,-735.5 741.5,-735.5 741.5,-678.5 676.5,-678.5"/>
<text text-anchor="middle" x="709" y="-723.5" font-family="Helvetica,sans-Serif" font-size="10.00">FloatBuffer</text>
<polyline fill="none" stroke="#bfbfbf" points="676.5,-716.5 741.5,-716.5 "/>
<text text-anchor="middle" x="709" y="-704.5" font-family="Helvetica,sans-Serif" font-size="10.00"> </text>
<polyline fill="none" stroke="#bfbfbf" points="676.5,-697.5 741.5,-697.5 "/>
<text text-anchor="middle" x="709" y="-685.5" font-family="Helvetica,sans-Serif" font-size="10.00"> </text>
</g>
<!-- Node13&#45;&gt;Node10 -->
<g id="edge13" class="edge"><title>Node13&#45;&gt;Node10</title>
<path fill="none" stroke="#404040" d="M700.173,-678.13C692.108,-653.238 679.559,-615.889 667,-584 662.279,-572.011 657.178,-559.617 651.944,-547.262"/>
<polygon fill="none" stroke="#404040" points="651.821,-546.974 645.786,-543.028 647.107,-535.939 653.143,-539.885 651.821,-546.974"/>
<text text-anchor="middle" x="678" y="-557.5" font-family="Helvetica,sans-Serif" font-size="10.00"> &#45;fBuffer</text>
</g>
<!-- Node14 -->
<g id="node14" class="node"><title>Node14</title>
<g id="a_node14"><a xlink:href="../../df/d84/enumppm__java_1_1util_1_1storage_1_1atomic_buffer_1_1_e_atomic_buffer___if_invalid_policy.html" target="_top" xlink:title="The Invalid data policy. ">
<polygon fill="white" stroke="black" points="759.5,-673 759.5,-741 906.5,-741 906.5,-673 759.5,-673"/>
<text text-anchor="middle" x="833" y="-729" font-family="Helvetica,sans-Serif" font-size="10.00">EAtomicBuffer_IfInvalidPolicy</text>
<polyline fill="none" stroke="black" points="759.5,-722 906.5,-722 "/>
<text text-anchor="start" x="767.5" y="-710" font-family="Helvetica,sans-Serif" font-size="10.00">+ kReturnEmpty</text>
<text text-anchor="start" x="767.5" y="-699" font-family="Helvetica,sans-Serif" font-size="10.00">+ kReturnNull</text>
<polyline fill="none" stroke="black" points="759.5,-692 906.5,-692 "/>
<text text-anchor="middle" x="833" y="-680" font-family="Helvetica,sans-Serif" font-size="10.00"> </text>
</a>
</g>
</g>
<!-- Node14&#45;&gt;Node10 -->
<g id="edge14" class="edge"><title>Node14&#45;&gt;Node10</title>
<path fill="none" stroke="#404040" d="M812.542,-672.863C796.53,-647.722 773.164,-612.709 750,-584 721.028,-548.093 685.818,-510.626 656.185,-480.582"/>
<polygon fill="none" stroke="#404040" points="656.035,-480.431 648.969,-478.988 647.584,-471.911 654.649,-473.354 656.035,-480.431"/>
<text text-anchor="middle" x="770.5" y="-557.5" font-family="Helvetica,sans-Serif" font-size="10.00"> &#45;fIfInvalidPolicy</text>
</g>
<!-- Node15 -->
<g id="node15" class="node"><title>Node15</title>
<g id="a_node15"><a xlink:href="../../d4/d79/enumppm__java_1_1util_1_1storage_1_1atomic_buffer_1_1_e_atomic_buffer___copy_policy.html" target="_top" xlink:title="The Copy policy. ">
<polygon fill="white" stroke="black" points="925,-667.5 925,-746.5 1061,-746.5 1061,-667.5 925,-667.5"/>
<text text-anchor="middle" x="993" y="-734.5" font-family="Helvetica,sans-Serif" font-size="10.00">EAtomicBuffer_CopyPolicy</text>
<polyline fill="none" stroke="black" points="925,-727.5 1061,-727.5 "/>
<text text-anchor="start" x="933" y="-715.5" font-family="Helvetica,sans-Serif" font-size="10.00">+ kCopyOnGet</text>
<text text-anchor="start" x="933" y="-704.5" font-family="Helvetica,sans-Serif" font-size="10.00">+ kCopyOnSet</text>
<text text-anchor="start" x="933" y="-693.5" font-family="Helvetica,sans-Serif" font-size="10.00">+ kNoCopy</text>
<polyline fill="none" stroke="black" points="925,-686.5 1061,-686.5 "/>
<text text-anchor="middle" x="993" y="-674.5" font-family="Helvetica,sans-Serif" font-size="10.00"> </text>
</a>
</g>
</g>
<!-- Node15&#45;&gt;Node10 -->
<g id="edge15" class="edge"><title>Node15&#45;&gt;Node10</title>
<path fill="none" stroke="#404040" d="M975.08,-667.28C961.495,-641.193 940.779,-607.404 915,-584 839.115,-515.107 728.947,-467.241 659.418,-441.694"/>
<polygon fill="none" stroke="#404040" points="659.059,-441.564 652.057,-443.286 647.774,-437.485 654.776,-435.763 659.059,-441.564"/>
<text text-anchor="middle" x="923" y="-557.5" font-family="Helvetica,sans-Serif" font-size="10.00"> &#45;fCopyPolicy</text>
</g>
<!-- Node16&#45;&gt;Node10 -->
<g id="edge16" class="edge"><title>Node16&#45;&gt;Node10</title>
<path fill="none" stroke="#404040" d="M594,-584.71C594,-572.493 594,-560.058 594,-547.776"/>
<polygon fill="none" stroke="#404040" points="594,-547.557 590,-541.558 594,-535.557 598,-541.557 594,-547.557"/>
<text text-anchor="middle" x="610.5" y="-557.5" font-family="Helvetica,sans-Serif" font-size="10.00"> &#45;fStats</text>
</g>
<!-- Node17 -->
<g id="node17" class="node"><title>Node17</title>
<g id="a_node17"><a xlink:href="../../d7/d5a/interfaceppm__java_1_1typelib_1_1_i_stats.html" target="_top" xlink:title="Interface for a statistics record. ">
<polygon fill="white" stroke="black" points="551,-933.5 551,-990.5 637,-990.5 637,-933.5 551,-933.5"/>
<text text-anchor="middle" x="594" y="-978.5" font-family="Helvetica,sans-Serif" font-size="10.00">IStats</text>
<polyline fill="none" stroke="black" points="551,-971.5 637,-971.5 "/>
<text text-anchor="middle" x="594" y="-959.5" font-family="Helvetica,sans-Serif" font-size="10.00"> </text>
<polyline fill="none" stroke="black" points="551,-952.5 637,-952.5 "/>
<text text-anchor="start" x="559" y="-940.5" font-family="Helvetica,sans-Serif" font-size="10.00">+ GetDumpStr()</text>
</a>
</g>
</g>
<!-- Node17&#45;&gt;Node16 -->
<g id="edge17" class="edge"><title>Node17&#45;&gt;Node16</title>
<path fill="none" stroke="midnightblue" d="M594,-923.247C594,-898.035 594,-863.344 594,-829.172"/>
<polygon fill="none" stroke="midnightblue" points="590.5,-923.443 594,-933.443 597.5,-923.443 590.5,-923.443"/>
</g>
</g>
</svg>
