<?xml version="1.0" encoding="UTF-8" standalone="no"?>
<!DOCTYPE svg PUBLIC "-//W3C//DTD SVG 1.1//EN"
 "http://www.w3.org/Graphics/SVG/1.1/DTD/svg11.dtd">
<!-- Generated by graphviz version 2.36.0 (20140111.2315)
 -->
<!-- Title: TGUINeedle_WndPPM Pages: 1 -->
<svg width="390pt" height="28pt"
 viewBox="0.00 0.00 390.00 28.00" xmlns="http://www.w3.org/2000/svg" xmlns:xlink="http://www.w3.org/1999/xlink">
<g id="graph0" class="graph" transform="scale(1 1) rotate(0) translate(4 24)">
<title>TGUINeedle_WndPPM</title>
<polygon fill="white" stroke="none" points="-4,4 -4,-24 386,-24 386,4 -4,4"/>
<!-- Node1 -->
<g id="node1" class="node"><title>Node1</title>
<polygon fill="#bfbfbf" stroke="black" points="0.5,-0.5 0.5,-19.5 119.5,-19.5 119.5,-0.5 0.5,-0.5"/>
<text text-anchor="middle" x="60" y="-7.5" font-family="Helvetica,sans-Serif" font-size="10.00">TGUINeedle_WndPPM</text>
</g>
<!-- Node2 -->
<g id="node2" class="node"><title>Node2</title>
<g id="a_node2"><a xlink:href="../../de/d2b/classppm__java_1_1frontend_1_1gui_1_1needle_1_1_t_g_u_i_needle___wnd_p_p_m.html#a77410fe5c5b5ddb55910cd7a2297bff7" target="_top" xlink:title="Initializes the UI components. ">
<polygon fill="white" stroke="black" points="156.5,-0.5 156.5,-19.5 241.5,-19.5 241.5,-0.5 156.5,-0.5"/>
<text text-anchor="middle" x="199" y="-7.5" font-family="Helvetica,sans-Serif" font-size="10.00">initComponents</text>
</a>
</g>
</g>
<!-- Node1&#45;&gt;Node2 -->
<g id="edge1" class="edge"><title>Node1&#45;&gt;Node2</title>
<path fill="none" stroke="midnightblue" d="M119.895,-10C128.557,-10 137.428,-10 145.939,-10"/>
<polygon fill="midnightblue" stroke="midnightblue" points="146.104,-13.5001 156.104,-10 146.104,-6.5001 146.104,-13.5001"/>
</g>
<!-- Node3 -->
<g id="node3" class="node"><title>Node3</title>
<g id="a_node3"><a xlink:href="../../de/d2b/classppm__java_1_1frontend_1_1gui_1_1needle_1_1_t_g_u_i_needle___wnd_p_p_m.html#a863cb0f258737cbcd15264610b8f4f89" target="_top" xlink:title="Handler, when UI window is closing. ">
<polygon fill="white" stroke="black" points="278.5,-0.5 278.5,-19.5 381.5,-19.5 381.5,-0.5 278.5,-0.5"/>
<text text-anchor="middle" x="330" y="-7.5" font-family="Helvetica,sans-Serif" font-size="10.00">_OnWindowClosing</text>
</a>
</g>
</g>
<!-- Node2&#45;&gt;Node3 -->
<g id="edge2" class="edge"><title>Node2&#45;&gt;Node3</title>
<path fill="none" stroke="midnightblue" d="M241.526,-10C249.982,-10 259.043,-10 268.013,-10"/>
<polygon fill="midnightblue" stroke="midnightblue" points="268.065,-13.5001 278.065,-10 268.065,-6.5001 268.065,-13.5001"/>
</g>
</g>
</svg>
