<?xml version="1.0" encoding="UTF-8" standalone="no"?>
<!DOCTYPE svg PUBLIC "-//W3C//DTD SVG 1.1//EN"
 "http://www.w3.org/Graphics/SVG/1.1/DTD/svg11.dtd">
<!-- Generated by graphviz version 2.36.0 (20140111.2315)
 -->
<!-- Title: _OnWindowClosing Pages: 1 -->
<svg width="390pt" height="28pt"
 viewBox="0.00 0.00 390.00 28.00" xmlns="http://www.w3.org/2000/svg" xmlns:xlink="http://www.w3.org/1999/xlink">
<g id="graph0" class="graph" transform="scale(1 1) rotate(0) translate(4 24)">
<title>_OnWindowClosing</title>
<polygon fill="white" stroke="none" points="-4,4 -4,-24 386,-24 386,4 -4,4"/>
<!-- Node1 -->
<g id="node1" class="node"><title>Node1</title>
<polygon fill="#bfbfbf" stroke="black" points="0.5,-0.5 0.5,-19.5 103.5,-19.5 103.5,-0.5 0.5,-0.5"/>
<text text-anchor="middle" x="52" y="-7.5" font-family="Helvetica,sans-Serif" font-size="10.00">_OnWindowClosing</text>
</g>
<!-- Node2 -->
<g id="node2" class="node"><title>Node2</title>
<g id="a_node2"><a xlink:href="../../de/d2b/classppm__java_1_1frontend_1_1gui_1_1needle_1_1_t_g_u_i_needle___wnd_p_p_m.html#a77410fe5c5b5ddb55910cd7a2297bff7" target="_top" xlink:title="Initializes the UI components. ">
<polygon fill="white" stroke="black" points="140.5,-0.5 140.5,-19.5 225.5,-19.5 225.5,-0.5 140.5,-0.5"/>
<text text-anchor="middle" x="183" y="-7.5" font-family="Helvetica,sans-Serif" font-size="10.00">initComponents</text>
</a>
</g>
</g>
<!-- Node1&#45;&gt;Node2 -->
<g id="edge1" class="edge"><title>Node1&#45;&gt;Node2</title>
<path fill="none" stroke="midnightblue" d="M113.69,-10C122.686,-10 131.78,-10 140.271,-10"/>
<polygon fill="midnightblue" stroke="midnightblue" points="113.614,-6.5001 103.614,-10 113.614,-13.5001 113.614,-6.5001"/>
</g>
<!-- Node3 -->
<g id="node3" class="node"><title>Node3</title>
<g id="a_node3"><a xlink:href="../../de/d2b/classppm__java_1_1frontend_1_1gui_1_1needle_1_1_t_g_u_i_needle___wnd_p_p_m.html#a25874df0c0c6b3c1df59603d1f96a099" target="_top" xlink:title="Creates new form TGUINeedle_WndPPM. ">
<polygon fill="white" stroke="black" points="262.5,-0.5 262.5,-19.5 381.5,-19.5 381.5,-0.5 262.5,-0.5"/>
<text text-anchor="middle" x="322" y="-7.5" font-family="Helvetica,sans-Serif" font-size="10.00">TGUINeedle_WndPPM</text>
</a>
</g>
</g>
<!-- Node2&#45;&gt;Node3 -->
<g id="edge2" class="edge"><title>Node2&#45;&gt;Node3</title>
<path fill="none" stroke="midnightblue" d="M236.07,-10C244.629,-10 253.552,-10 262.26,-10"/>
<polygon fill="midnightblue" stroke="midnightblue" points="235.849,-6.5001 225.849,-10 235.849,-13.5001 235.849,-6.5001"/>
</g>
</g>
</svg>
