<?xml version="1.0" encoding="UTF-8" standalone="no"?>
<!DOCTYPE svg PUBLIC "-//W3C//DTD SVG 1.1//EN"
 "http://www.w3.org/Graphics/SVG/1.1/DTD/svg11.dtd">
<!-- Generated by graphviz version 2.36.0 (20140111.2315)
 -->
<!-- Title: TLogger Pages: 1 -->
<svg width="164pt" height="304pt"
 viewBox="0.00 0.00 164.00 304.00" xmlns="http://www.w3.org/2000/svg" xmlns:xlink="http://www.w3.org/1999/xlink">
<g id="graph0" class="graph" transform="scale(1 1) rotate(0) translate(4 300)">
<title>TLogger</title>
<polygon fill="white" stroke="none" points="-4,4 -4,-300 160,-300 160,4 -4,4"/>
<!-- Node1 -->
<g id="node1" class="node"><title>Node1</title>
<polygon fill="#bfbfbf" stroke="black" points="-1,-0.5 -1,-189.5 97,-189.5 97,-0.5 -1,-0.5"/>
<text text-anchor="middle" x="48" y="-177.5" font-family="Helvetica,sans-Serif" font-size="10.00">TLogger</text>
<polyline fill="none" stroke="black" points="-1,-170.5 97,-170.5 "/>
<text text-anchor="middle" x="48" y="-158.5" font-family="Helvetica,sans-Serif" font-size="10.00"> </text>
<polyline fill="none" stroke="black" points="-1,-151.5 97,-151.5 "/>
<text text-anchor="start" x="7" y="-139.5" font-family="Helvetica,sans-Serif" font-size="10.00">+ CreateInstance()</text>
<text text-anchor="start" x="7" y="-128.5" font-family="Helvetica,sans-Serif" font-size="10.00">+ CreateInstance()</text>
<text text-anchor="start" x="7" y="-117.5" font-family="Helvetica,sans-Serif" font-size="10.00">+ LogError()</text>
<text text-anchor="start" x="7" y="-106.5" font-family="Helvetica,sans-Serif" font-size="10.00">+ LogMessage()</text>
<text text-anchor="start" x="7" y="-95.5" font-family="Helvetica,sans-Serif" font-size="10.00">+ LogMessage()</text>
<text text-anchor="start" x="7" y="-84.5" font-family="Helvetica,sans-Serif" font-size="10.00">+ LogMessage()</text>
<text text-anchor="start" x="7" y="-73.5" font-family="Helvetica,sans-Serif" font-size="10.00">+ LogWarning()</text>
<text text-anchor="start" x="7" y="-62.5" font-family="Helvetica,sans-Serif" font-size="10.00">+ LogWarning()</text>
<text text-anchor="start" x="7" y="-51.5" font-family="Helvetica,sans-Serif" font-size="10.00">+ LogWarning()</text>
<text text-anchor="start" x="7" y="-40.5" font-family="Helvetica,sans-Serif" font-size="10.00">&#45; TLogger()</text>
<text text-anchor="start" x="7" y="-29.5" font-family="Helvetica,sans-Serif" font-size="10.00">&#45; TLogger()</text>
<text text-anchor="start" x="7" y="-18.5" font-family="Helvetica,sans-Serif" font-size="10.00">&#45; _Init()</text>
<text text-anchor="start" x="7" y="-7.5" font-family="Helvetica,sans-Serif" font-size="10.00">&#45; _Log()</text>
</g>
<!-- Node1&#45;&gt;Node1 -->
<g id="edge1" class="edge"><title>Node1&#45;&gt;Node1</title>
<path fill="none" stroke="#404040" d="M97.2194,-116.212C107.015,-113.825 114,-106.754 114,-95 114,-88.3884 111.79,-83.2586 108.113,-79.6107"/>
<polygon fill="none" stroke="#404040" points="107.802,-79.4449 100.625,-80.144 97.2194,-73.7879 104.397,-73.0887 107.802,-79.4449"/>
<text text-anchor="middle" x="134.5" y="-92.5" font-family="Helvetica,sans-Serif" font-size="10.00"> &#45;gLogger</text>
</g>
<!-- Node2 -->
<g id="node2" class="node"><title>Node2</title>
<polygon fill="white" stroke="#bfbfbf" points="25,-238.5 25,-295.5 71,-295.5 71,-238.5 25,-238.5"/>
<text text-anchor="middle" x="48" y="-283.5" font-family="Helvetica,sans-Serif" font-size="10.00">Logger</text>
<polyline fill="none" stroke="#bfbfbf" points="25,-276.5 71,-276.5 "/>
<text text-anchor="middle" x="48" y="-264.5" font-family="Helvetica,sans-Serif" font-size="10.00"> </text>
<polyline fill="none" stroke="#bfbfbf" points="25,-257.5 71,-257.5 "/>
<text text-anchor="middle" x="48" y="-245.5" font-family="Helvetica,sans-Serif" font-size="10.00"> </text>
</g>
<!-- Node2&#45;&gt;Node1 -->
<g id="edge2" class="edge"><title>Node2&#45;&gt;Node1</title>
<path fill="none" stroke="#404040" d="M48,-238.308C48,-227.757 48,-215 48,-201.51"/>
<polygon fill="none" stroke="#404040" points="48.0001,-201.504 44,-195.504 48,-189.504 52,-195.504 48.0001,-201.504"/>
<text text-anchor="middle" x="67.5" y="-211.5" font-family="Helvetica,sans-Serif" font-size="10.00"> &#45;fLogger</text>
</g>
</g>
</svg>
