<?xml version="1.0" encoding="UTF-8" standalone="no"?>
<!DOCTYPE svg PUBLIC "-//W3C//DTD SVG 1.1//EN"
 "http://www.w3.org/Graphics/SVG/1.1/DTD/svg11.dtd">
<!-- Generated by graphviz version 2.36.0 (20140111.2315)
 -->
<!-- Title: _PushRecord Pages: 1 -->
<svg width="174pt" height="104pt"
 viewBox="0.00 0.00 174.00 104.00" xmlns="http://www.w3.org/2000/svg" xmlns:xlink="http://www.w3.org/1999/xlink">
<g id="graph0" class="graph" transform="scale(1 1) rotate(0) translate(4 100)">
<title>_PushRecord</title>
<polygon fill="white" stroke="none" points="-4,4 -4,-100 170,-100 170,4 -4,4"/>
<!-- Node1 -->
<g id="node1" class="node"><title>Node1</title>
<polygon fill="#bfbfbf" stroke="black" points="0,-38.5 0,-57.5 76,-57.5 76,-38.5 0,-38.5"/>
<text text-anchor="middle" x="38" y="-45.5" font-family="Helvetica,sans-Serif" font-size="10.00">_PushRecord</text>
</g>
<!-- Node2 -->
<g id="node2" class="node"><title>Node2</title>
<g id="a_node2"><a xlink:href="../../dc/de5/classppm__java_1_1frontend_1_1console_1_1text_1_1_t_console___text_out.html#aa3a93f7b11eb28ac43729cc8ad46ac3b" target="_top" xlink:title="Receives a sample value and prints it to stdout as JSON record. ">
<polygon fill="white" stroke="black" points="112.5,-76.5 112.5,-95.5 165.5,-95.5 165.5,-76.5 112.5,-76.5"/>
<text text-anchor="middle" x="139" y="-83.5" font-family="Helvetica,sans-Serif" font-size="10.00">Receive</text>
</a>
</g>
</g>
<!-- Node1&#45;&gt;Node2 -->
<g id="edge1" class="edge"><title>Node1&#45;&gt;Node2</title>
<path fill="none" stroke="midnightblue" d="M73.5577,-61.2646C86.5546,-66.2533 101.068,-71.8241 113.026,-76.4141"/>
<polygon fill="midnightblue" stroke="midnightblue" points="74.572,-57.905 63.9819,-57.589 72.0635,-64.4401 74.572,-57.905"/>
</g>
<!-- Node3 -->
<g id="node3" class="node"><title>Node3</title>
<g id="a_node3"><a xlink:href="../../dc/de5/classppm__java_1_1frontend_1_1console_1_1text_1_1_t_console___text_out.html#a07aaf1227e4d645f15e0a964f54ef291" target="_top" xlink:title="Starts the module. ">
<polygon fill="white" stroke="black" points="120,-38.5 120,-57.5 158,-57.5 158,-38.5 120,-38.5"/>
<text text-anchor="middle" x="139" y="-45.5" font-family="Helvetica,sans-Serif" font-size="10.00">Start</text>
</a>
</g>
</g>
<!-- Node1&#45;&gt;Node3 -->
<g id="edge2" class="edge"><title>Node1&#45;&gt;Node3</title>
<path fill="none" stroke="midnightblue" d="M86.4668,-48C98.3355,-48 110.36,-48 119.806,-48"/>
<polygon fill="midnightblue" stroke="midnightblue" points="86.1456,-44.5001 76.1456,-48 86.1456,-51.5001 86.1456,-44.5001"/>
</g>
<!-- Node4 -->
<g id="node4" class="node"><title>Node4</title>
<g id="a_node4"><a xlink:href="../../dc/de5/classppm__java_1_1frontend_1_1console_1_1text_1_1_t_console___text_out.html#a17a237457e57625296e6b24feb19c60a" target="_top" xlink:title="Stops the module. ">
<polygon fill="white" stroke="black" points="120.5,-0.5 120.5,-19.5 157.5,-19.5 157.5,-0.5 120.5,-0.5"/>
<text text-anchor="middle" x="139" y="-7.5" font-family="Helvetica,sans-Serif" font-size="10.00">Stop</text>
</a>
</g>
</g>
<!-- Node1&#45;&gt;Node4 -->
<g id="edge3" class="edge"><title>Node1&#45;&gt;Node4</title>
<path fill="none" stroke="midnightblue" d="M73.441,-34.7802C89.2048,-28.7295 107.221,-21.8143 120.208,-16.8293"/>
<polygon fill="midnightblue" stroke="midnightblue" points="72.0635,-31.5599 63.9819,-38.411 74.572,-38.095 72.0635,-31.5599"/>
</g>
</g>
</svg>
