<?xml version="1.0" encoding="UTF-8" standalone="no"?>
<!DOCTYPE svg PUBLIC "-//W3C//DTD SVG 1.1//EN"
 "http://www.w3.org/Graphics/SVG/1.1/DTD/svg11.dtd">
<!-- Generated by graphviz version 2.36.0 (20140111.2315)
 -->
<!-- Title: TNodeConverterDb_Stats Pages: 1 -->
<svg width="152pt" height="216pt"
 viewBox="0.00 0.00 152.00 216.00" xmlns="http://www.w3.org/2000/svg" xmlns:xlink="http://www.w3.org/1999/xlink">
<g id="graph0" class="graph" transform="scale(1 1) rotate(0) translate(4 212)">
<title>TNodeConverterDb_Stats</title>
<polygon fill="white" stroke="none" points="-4,4 -4,-212 148,-212 148,4 -4,4"/>
<!-- Node1 -->
<g id="node1" class="node"><title>Node1</title>
<polygon fill="#bfbfbf" stroke="black" points="-0.5,-1 -0.5,-113 144.5,-113 144.5,-1 -0.5,-1"/>
<text text-anchor="middle" x="72" y="-101" font-family="Helvetica,sans-Serif" font-size="10.00">TNodeConverterDb_Stats</text>
<polyline fill="none" stroke="black" points="-0.5,-94 144.5,-94 "/>
<text text-anchor="start" x="7.5" y="-82" font-family="Helvetica,sans-Serif" font-size="10.00">&#45; fDB</text>
<text text-anchor="start" x="7.5" y="-71" font-family="Helvetica,sans-Serif" font-size="10.00">&#45; fHost</text>
<text text-anchor="start" x="7.5" y="-60" font-family="Helvetica,sans-Serif" font-size="10.00">&#45; fValue</text>
<polyline fill="none" stroke="black" points="-0.5,-53 144.5,-53 "/>
<text text-anchor="start" x="7.5" y="-41" font-family="Helvetica,sans-Serif" font-size="10.00">+ TNodeConverterDb_Stats()</text>
<text text-anchor="start" x="7.5" y="-30" font-family="Helvetica,sans-Serif" font-size="10.00">+ GetDumpStr()</text>
<text text-anchor="start" x="7.5" y="-19" font-family="Helvetica,sans-Serif" font-size="10.00">~ SetDB()</text>
<text text-anchor="start" x="7.5" y="-8" font-family="Helvetica,sans-Serif" font-size="10.00">~ SetValue()</text>
</g>
<!-- Node2 -->
<g id="node2" class="node"><title>Node2</title>
<g id="a_node2"><a xlink:href="../../d7/d5a/interfaceppm__java_1_1typelib_1_1_i_stats.html" target="_top" xlink:title="Interface for a statistics record. ">
<polygon fill="white" stroke="black" points="29,-150.5 29,-207.5 115,-207.5 115,-150.5 29,-150.5"/>
<text text-anchor="middle" x="72" y="-195.5" font-family="Helvetica,sans-Serif" font-size="10.00">IStats</text>
<polyline fill="none" stroke="black" points="29,-188.5 115,-188.5 "/>
<text text-anchor="middle" x="72" y="-176.5" font-family="Helvetica,sans-Serif" font-size="10.00"> </text>
<polyline fill="none" stroke="black" points="29,-169.5 115,-169.5 "/>
<text text-anchor="start" x="37" y="-157.5" font-family="Helvetica,sans-Serif" font-size="10.00">+ GetDumpStr()</text>
</a>
</g>
</g>
<!-- Node2&#45;&gt;Node1 -->
<g id="edge1" class="edge"><title>Node2&#45;&gt;Node1</title>
<path fill="none" stroke="midnightblue" d="M72,-140.398C72,-131.802 72,-122.49 72,-113.324"/>
<polygon fill="none" stroke="midnightblue" points="68.5001,-140.47 72,-150.47 75.5001,-140.47 68.5001,-140.47"/>
</g>
</g>
</svg>
