<?xml version="1.0" encoding="UTF-8" standalone="no"?>
<!DOCTYPE svg PUBLIC "-//W3C//DTD SVG 1.1//EN"
 "http://www.w3.org/Graphics/SVG/1.1/DTD/svg11.dtd">
<!-- Generated by graphviz version 2.36.0 (20140111.2315)
 -->
<!-- Title: VAudioPort_Output Pages: 1 -->
<svg width="1063pt" height="770pt"
 viewBox="0.00 0.00 1063.00 770.00" xmlns="http://www.w3.org/2000/svg" xmlns:xlink="http://www.w3.org/1999/xlink">
<g id="graph0" class="graph" transform="scale(1 1) rotate(0) translate(4 766)">
<title>VAudioPort_Output</title>
<polygon fill="white" stroke="none" points="-4,4 -4,-766 1059,-766 1059,4 -4,4"/>
<!-- Node1 -->
<g id="node1" class="node"><title>Node1</title>
<polygon fill="#bfbfbf" stroke="black" points="196,-301 196,-435 312,-435 312,-301 196,-301"/>
<text text-anchor="middle" x="254" y="-423" font-family="Helvetica,sans-Serif" font-size="10.00">VAudioPort_Output</text>
<polyline fill="none" stroke="black" points="196,-416 312,-416 "/>
<text text-anchor="start" x="204" y="-404" font-family="Helvetica,sans-Serif" font-size="10.00">&#45; fTarget</text>
<polyline fill="none" stroke="black" points="196,-397 312,-397 "/>
<text text-anchor="start" x="204" y="-385" font-family="Helvetica,sans-Serif" font-size="10.00">+ VAudioPort_Output()</text>
<text text-anchor="start" x="204" y="-374" font-family="Helvetica,sans-Serif" font-size="10.00">+ SetTarget()</text>
<text text-anchor="start" x="204" y="-363" font-family="Helvetica,sans-Serif" font-size="10.00"># _GetTarget()</text>
<text text-anchor="start" x="204" y="-352" font-family="Helvetica,sans-Serif" font-size="10.00"># _SetTarget()</text>
<text text-anchor="start" x="204" y="-341" font-family="Helvetica,sans-Serif" font-size="10.00"># _SetTarget_Log()</text>
<text text-anchor="start" x="204" y="-330" font-family="Helvetica,sans-Serif" font-size="10.00"># _Visit()</text>
<text text-anchor="start" x="204" y="-319" font-family="Helvetica,sans-Serif" font-size="10.00"># _Visit()</text>
<text text-anchor="start" x="204" y="-308" font-family="Helvetica,sans-Serif" font-size="10.00"># _Visit()</text>
</g>
<!-- Node5 -->
<g id="node5" class="node"><title>Node5</title>
<g id="a_node5"><a xlink:href="../../d7/d64/classppm__java_1_1typelib_1_1_v_audio_port___output___chunks___needs_buffer.html" target="_top" xlink:title="Base class for an output that connects to a buffered input. ">
<polygon fill="white" stroke="black" points="10,-129 10,-263 158,-263 158,-129 10,-129"/>
<text text-anchor="start" x="18" y="-251" font-family="Helvetica,sans-Serif" font-size="10.00">VAudioPort_Output_Chunks</text>
<text text-anchor="middle" x="84" y="-240" font-family="Helvetica,sans-Serif" font-size="10.00">_NeedsBuffer</text>
<polyline fill="none" stroke="black" points="10,-233 158,-233 "/>
<text text-anchor="middle" x="84" y="-221" font-family="Helvetica,sans-Serif" font-size="10.00"> </text>
<polyline fill="none" stroke="black" points="10,-214 158,-214 "/>
<text text-anchor="start" x="18" y="-202" font-family="Helvetica,sans-Serif" font-size="10.00">+ PushPacket()</text>
<text text-anchor="start" x="18" y="-191" font-family="Helvetica,sans-Serif" font-size="10.00"># VAudioPort_Output_Chunks</text>
<text text-anchor="start" x="18" y="-180" font-family="Helvetica,sans-Serif" font-size="10.00">_NeedsBuffer()</text>
<text text-anchor="start" x="18" y="-169" font-family="Helvetica,sans-Serif" font-size="10.00"># _GetType()</text>
<text text-anchor="start" x="18" y="-158" font-family="Helvetica,sans-Serif" font-size="10.00"># _Visit()</text>
<text text-anchor="start" x="18" y="-147" font-family="Helvetica,sans-Serif" font-size="10.00"># _Visit()</text>
<text text-anchor="start" x="18" y="-136" font-family="Helvetica,sans-Serif" font-size="10.00"># _Visit()</text>
</a>
</g>
</g>
<!-- Node1&#45;&gt;Node5 -->
<g id="edge4" class="edge"><title>Node1&#45;&gt;Node5</title>
<path fill="none" stroke="midnightblue" d="M188.64,-301.64C176.053,-289.053 162.859,-275.859 150.245,-263.245"/>
<polygon fill="none" stroke="midnightblue" points="186.425,-304.375 195.971,-308.971 191.375,-299.425 186.425,-304.375"/>
</g>
<!-- Node7 -->
<g id="node7" class="node"><title>Node7</title>
<g id="a_node7"><a xlink:href="../../d8/db2/classppm__java_1_1typelib_1_1_v_audio_port___output___chunks___no_buffer.html" target="_top" xlink:title="Base class for an output that connects to an unbuffered input. ">
<polygon fill="white" stroke="black" points="180,-129 180,-263 328,-263 328,-129 180,-129"/>
<text text-anchor="start" x="188" y="-251" font-family="Helvetica,sans-Serif" font-size="10.00">VAudioPort_Output_Chunks</text>
<text text-anchor="middle" x="254" y="-240" font-family="Helvetica,sans-Serif" font-size="10.00">_NoBuffer</text>
<polyline fill="none" stroke="black" points="180,-233 328,-233 "/>
<text text-anchor="middle" x="254" y="-221" font-family="Helvetica,sans-Serif" font-size="10.00"> </text>
<polyline fill="none" stroke="black" points="180,-214 328,-214 "/>
<text text-anchor="start" x="188" y="-202" font-family="Helvetica,sans-Serif" font-size="10.00">+ PushPacket()</text>
<text text-anchor="start" x="188" y="-191" font-family="Helvetica,sans-Serif" font-size="10.00"># VAudioPort_Output_Chunks</text>
<text text-anchor="start" x="188" y="-180" font-family="Helvetica,sans-Serif" font-size="10.00">_NoBuffer()</text>
<text text-anchor="start" x="188" y="-169" font-family="Helvetica,sans-Serif" font-size="10.00"># _GetType()</text>
<text text-anchor="start" x="188" y="-158" font-family="Helvetica,sans-Serif" font-size="10.00"># _Visit()</text>
<text text-anchor="start" x="188" y="-147" font-family="Helvetica,sans-Serif" font-size="10.00"># _Visit()</text>
<text text-anchor="start" x="188" y="-136" font-family="Helvetica,sans-Serif" font-size="10.00"># _Visit()</text>
</a>
</g>
</g>
<!-- Node1&#45;&gt;Node7 -->
<g id="edge6" class="edge"><title>Node1&#45;&gt;Node7</title>
<path fill="none" stroke="midnightblue" d="M254,-290.513C254,-281.342 254,-272.037 254,-263.033"/>
<polygon fill="none" stroke="midnightblue" points="250.5,-290.787 254,-300.787 257.5,-290.787 250.5,-290.787"/>
</g>
<!-- Node9 -->
<g id="node9" class="node"><title>Node9</title>
<g id="a_node9"><a xlink:href="../../df/d90/classppm__java_1_1typelib_1_1_v_audio_port___output___samples.html" target="_top" xlink:title="Base class for an output that sends single sample values. ">
<polygon fill="white" stroke="black" points="567.5,-140 567.5,-252 726.5,-252 726.5,-140 567.5,-140"/>
<text text-anchor="middle" x="647" y="-240" font-family="Helvetica,sans-Serif" font-size="10.00">VAudioPort_Output_Samples</text>
<polyline fill="none" stroke="black" points="567.5,-233 726.5,-233 "/>
<text text-anchor="middle" x="647" y="-221" font-family="Helvetica,sans-Serif" font-size="10.00"> </text>
<polyline fill="none" stroke="black" points="567.5,-214 726.5,-214 "/>
<text text-anchor="start" x="575.5" y="-202" font-family="Helvetica,sans-Serif" font-size="10.00">+ VAudioPort_Output_Samples()</text>
<text text-anchor="start" x="575.5" y="-191" font-family="Helvetica,sans-Serif" font-size="10.00">+ PushSample()</text>
<text text-anchor="start" x="575.5" y="-180" font-family="Helvetica,sans-Serif" font-size="10.00"># _GetType()</text>
<text text-anchor="start" x="575.5" y="-169" font-family="Helvetica,sans-Serif" font-size="10.00"># _Visit()</text>
<text text-anchor="start" x="575.5" y="-158" font-family="Helvetica,sans-Serif" font-size="10.00"># _Visit()</text>
<text text-anchor="start" x="575.5" y="-147" font-family="Helvetica,sans-Serif" font-size="10.00"># _Visit()</text>
</a>
</g>
</g>
<!-- Node1&#45;&gt;Node9 -->
<g id="edge8" class="edge"><title>Node1&#45;&gt;Node9</title>
<path fill="none" stroke="midnightblue" d="M321.777,-337.682C389.935,-308.199 494.989,-262.755 567.149,-231.541"/>
<polygon fill="none" stroke="midnightblue" points="320.2,-334.55 312.412,-341.733 322.979,-340.975 320.2,-334.55"/>
</g>
<!-- Node2 -->
<g id="node2" class="node"><title>Node2</title>
<g id="a_node2"><a xlink:href="../../de/dc9/classppm__java_1_1typelib_1_1_v_audio_port.html" target="_top" xlink:title="Base class for all audio ports. ">
<polygon fill="white" stroke="black" points="213.5,-472.5 213.5,-551.5 294.5,-551.5 294.5,-472.5 213.5,-472.5"/>
<text text-anchor="middle" x="254" y="-539.5" font-family="Helvetica,sans-Serif" font-size="10.00">VAudioPort</text>
<polyline fill="none" stroke="black" points="213.5,-532.5 294.5,-532.5 "/>
<text text-anchor="start" x="221.5" y="-520.5" font-family="Helvetica,sans-Serif" font-size="10.00">&#45; fHost</text>
<polyline fill="none" stroke="black" points="213.5,-513.5 294.5,-513.5 "/>
<text text-anchor="start" x="221.5" y="-501.5" font-family="Helvetica,sans-Serif" font-size="10.00">+ VAudioPort()</text>
<text text-anchor="start" x="221.5" y="-490.5" font-family="Helvetica,sans-Serif" font-size="10.00"># _GetHost()</text>
<text text-anchor="start" x="221.5" y="-479.5" font-family="Helvetica,sans-Serif" font-size="10.00"># _GetType()</text>
</a>
</g>
</g>
<!-- Node2&#45;&gt;Node1 -->
<g id="edge1" class="edge"><title>Node2&#45;&gt;Node1</title>
<path fill="none" stroke="midnightblue" d="M254,-462.195C254,-453.448 254,-444.201 254,-435.063"/>
<polygon fill="none" stroke="midnightblue" points="250.5,-462.198 254,-472.198 257.5,-462.198 250.5,-462.198"/>
</g>
<!-- Node3 -->
<g id="node3" class="node"><title>Node3</title>
<g id="a_node3"><a xlink:href="../../d1/db3/classppm__java_1_1typelib_1_1_v_audio_object.html" target="_top" xlink:title="Base class for all browseable audio objects. ">
<polygon fill="white" stroke="black" points="208,-588.5 208,-645.5 300,-645.5 300,-588.5 208,-588.5"/>
<text text-anchor="middle" x="254" y="-633.5" font-family="Helvetica,sans-Serif" font-size="10.00">VAudioObject</text>
<polyline fill="none" stroke="black" points="208,-626.5 300,-626.5 "/>
<text text-anchor="middle" x="254" y="-614.5" font-family="Helvetica,sans-Serif" font-size="10.00"> </text>
<polyline fill="none" stroke="black" points="208,-607.5 300,-607.5 "/>
<text text-anchor="start" x="216" y="-595.5" font-family="Helvetica,sans-Serif" font-size="10.00">+ VAudioObject()</text>
</a>
</g>
</g>
<!-- Node3&#45;&gt;Node2 -->
<g id="edge2" class="edge"><title>Node3&#45;&gt;Node2</title>
<path fill="none" stroke="midnightblue" d="M254,-578.156C254,-569.473 254,-560.232 254,-551.52"/>
<polygon fill="none" stroke="midnightblue" points="250.5,-578.398 254,-588.398 257.5,-578.398 250.5,-578.398"/>
</g>
<!-- Node4 -->
<g id="node4" class="node"><title>Node4</title>
<g id="a_node4"><a xlink:href="../../de/dd1/classppm__java_1_1typelib_1_1_v_browseable.html" target="_top" xlink:title="Base class for all browseable objects. ">
<polygon fill="white" stroke="black" points="209.5,-682.5 209.5,-761.5 298.5,-761.5 298.5,-682.5 209.5,-682.5"/>
<text text-anchor="middle" x="254" y="-749.5" font-family="Helvetica,sans-Serif" font-size="10.00">VBrowseable</text>
<polyline fill="none" stroke="black" points="209.5,-742.5 298.5,-742.5 "/>
<text text-anchor="start" x="217.5" y="-730.5" font-family="Helvetica,sans-Serif" font-size="10.00">&#45; fID</text>
<polyline fill="none" stroke="black" points="209.5,-723.5 298.5,-723.5 "/>
<text text-anchor="start" x="217.5" y="-711.5" font-family="Helvetica,sans-Serif" font-size="10.00">+ VBrowseable()</text>
<text text-anchor="start" x="217.5" y="-700.5" font-family="Helvetica,sans-Serif" font-size="10.00">+ GetID()</text>
<text text-anchor="start" x="217.5" y="-689.5" font-family="Helvetica,sans-Serif" font-size="10.00"># _Register()</text>
</a>
</g>
</g>
<!-- Node4&#45;&gt;Node3 -->
<g id="edge3" class="edge"><title>Node4&#45;&gt;Node3</title>
<path fill="none" stroke="midnightblue" d="M254,-672.163C254,-663.04 254,-653.806 254,-645.61"/>
<polygon fill="none" stroke="midnightblue" points="250.5,-672.354 254,-682.354 257.5,-672.354 250.5,-672.354"/>
</g>
<!-- Node6 -->
<g id="node6" class="node"><title>Node6</title>
<g id="a_node6"><a xlink:href="../../dc/d75/classppm__java_1_1backend_1_1module_1_1jackd_1_1_t_audio_context___endpoint___out.html" target="_top" xlink:title="Audio output port for a TAudioContext_JackD. ">
<polygon fill="white" stroke="black" points="-0.5,-12 -0.5,-80 160.5,-80 160.5,-12 -0.5,-12"/>
<text text-anchor="middle" x="80" y="-68" font-family="Helvetica,sans-Serif" font-size="10.00">TAudioContext_Endpoint_Out</text>
<polyline fill="none" stroke="black" points="-0.5,-61 160.5,-61 "/>
<text text-anchor="middle" x="80" y="-49" font-family="Helvetica,sans-Serif" font-size="10.00"> </text>
<polyline fill="none" stroke="black" points="-0.5,-42 160.5,-42 "/>
<text text-anchor="start" x="7.5" y="-30" font-family="Helvetica,sans-Serif" font-size="10.00"># TAudioContext_Endpoint_Out()</text>
<text text-anchor="start" x="7.5" y="-19" font-family="Helvetica,sans-Serif" font-size="10.00"># _Register()</text>
</a>
</g>
</g>
<!-- Node5&#45;&gt;Node6 -->
<g id="edge5" class="edge"><title>Node5&#45;&gt;Node6</title>
<path fill="none" stroke="midnightblue" d="M81.9332,-118.53C81.5703,-105.1 81.2102,-91.7788 80.901,-80.338"/>
<polygon fill="none" stroke="midnightblue" points="78.4416,-118.89 82.2106,-128.792 85.439,-118.701 78.4416,-118.89"/>
</g>
<!-- Node8 -->
<g id="node8" class="node"><title>Node8</title>
<g id="a_node8"><a xlink:href="../../da/ddf/classppm__java_1_1backend_1_1module_1_1pump_1_1_t_node_pump___endpoint___out.html" target="_top" xlink:title="Audio output port for a TNodePump. ">
<polygon fill="white" stroke="black" points="178.5,-12 178.5,-80 329.5,-80 329.5,-12 178.5,-12"/>
<text text-anchor="middle" x="254" y="-68" font-family="Helvetica,sans-Serif" font-size="10.00">TNodePump_Endpoint_Out</text>
<polyline fill="none" stroke="black" points="178.5,-61 329.5,-61 "/>
<text text-anchor="middle" x="254" y="-49" font-family="Helvetica,sans-Serif" font-size="10.00"> </text>
<polyline fill="none" stroke="black" points="178.5,-42 329.5,-42 "/>
<text text-anchor="start" x="186.5" y="-30" font-family="Helvetica,sans-Serif" font-size="10.00">+ TNodePump_Endpoint_Out()</text>
<text text-anchor="start" x="186.5" y="-19" font-family="Helvetica,sans-Serif" font-size="10.00"># _Register()</text>
</a>
</g>
</g>
<!-- Node7&#45;&gt;Node8 -->
<g id="edge7" class="edge"><title>Node7&#45;&gt;Node8</title>
<path fill="none" stroke="midnightblue" d="M254,-118.53C254,-105.1 254,-91.7788 254,-80.338"/>
<polygon fill="none" stroke="midnightblue" points="250.5,-118.792 254,-128.792 257.5,-118.792 250.5,-118.792"/>
</g>
<!-- Node10 -->
<g id="node10" class="node"><title>Node10</title>
<g id="a_node10"><a xlink:href="../../d5/d60/classppm__java_1_1backend_1_1module_1_1__deprecated__ppm_1_1_t_node_p_p_m_processor___endpoint___out.html" target="_top" xlink:title="Audio output port for a TNodePPMProcessor. ">
<polygon fill="white" stroke="black" points="347.5,-12 347.5,-80 538.5,-80 538.5,-12 347.5,-12"/>
<text text-anchor="middle" x="443" y="-68" font-family="Helvetica,sans-Serif" font-size="10.00">TNodePPMProcessor_Endpoint_Out</text>
<polyline fill="none" stroke="black" points="347.5,-61 538.5,-61 "/>
<text text-anchor="middle" x="443" y="-49" font-family="Helvetica,sans-Serif" font-size="10.00"> </text>
<polyline fill="none" stroke="black" points="347.5,-42 538.5,-42 "/>
<text text-anchor="start" x="355.5" y="-30" font-family="Helvetica,sans-Serif" font-size="10.00">+ TNodePPMProcessor_Endpoint_Out()</text>
<text text-anchor="start" x="355.5" y="-19" font-family="Helvetica,sans-Serif" font-size="10.00"># _Register()</text>
</a>
</g>
</g>
<!-- Node9&#45;&gt;Node10 -->
<g id="edge9" class="edge"><title>Node9&#45;&gt;Node10</title>
<path fill="none" stroke="midnightblue" d="M562.836,-133.94C537.384,-115.475 510.403,-95.9003 488.5,-80.0098"/>
<polygon fill="none" stroke="midnightblue" points="560.888,-136.851 571.038,-139.89 564.999,-131.185 560.888,-136.851"/>
</g>
<!-- Node11 -->
<g id="node11" class="node"><title>Node11</title>
<g id="a_node11"><a xlink:href="../../d3/df9/classppm__java_1_1backend_1_1module_1_1converter__db_1_1_t_node_converter_db___endpoint___out.html" target="_top" xlink:title="Audio output port for a TNodeConverterDb. ">
<polygon fill="white" stroke="black" points="556.5,-12 556.5,-80 737.5,-80 737.5,-12 556.5,-12"/>
<text text-anchor="middle" x="647" y="-68" font-family="Helvetica,sans-Serif" font-size="10.00">TNodeConverterDb_Endpoint_Out</text>
<polyline fill="none" stroke="black" points="556.5,-61 737.5,-61 "/>
<text text-anchor="middle" x="647" y="-49" font-family="Helvetica,sans-Serif" font-size="10.00"> </text>
<polyline fill="none" stroke="black" points="556.5,-42 737.5,-42 "/>
<text text-anchor="start" x="564.5" y="-30" font-family="Helvetica,sans-Serif" font-size="10.00">+ TNodeConverterDb_Endpoint_Out()</text>
<text text-anchor="start" x="564.5" y="-19" font-family="Helvetica,sans-Serif" font-size="10.00"># _Register()</text>
</a>
</g>
</g>
<!-- Node9&#45;&gt;Node11 -->
<g id="edge10" class="edge"><title>Node9&#45;&gt;Node11</title>
<path fill="none" stroke="midnightblue" d="M647,-129.889C647,-112.727 647,-94.9173 647,-80.2256"/>
<polygon fill="none" stroke="midnightblue" points="643.5,-129.89 647,-139.89 650.5,-129.89 643.5,-129.89"/>
</g>
<!-- Node12 -->
<g id="node12" class="node"><title>Node12</title>
<g id="a_node12"><a xlink:href="../../d3/dd8/classppm__java_1_1backend_1_1module_1_1integrator_1_1_t_node_integrator___p_p_m_ballistics___endpoint___out.html" target="_top" xlink:title="Audio output port for a TNodeIntegrator_PPMBallistics. ">
<polygon fill="white" stroke="black" points="755.5,-1 755.5,-91 918.5,-91 918.5,-1 755.5,-1"/>
<text text-anchor="start" x="763.5" y="-79" font-family="Helvetica,sans-Serif" font-size="10.00">TNodeIntegrator_PPMBallistics</text>
<text text-anchor="middle" x="837" y="-68" font-family="Helvetica,sans-Serif" font-size="10.00">_Endpoint_Out</text>
<polyline fill="none" stroke="black" points="755.5,-61 918.5,-61 "/>
<text text-anchor="middle" x="837" y="-49" font-family="Helvetica,sans-Serif" font-size="10.00"> </text>
<polyline fill="none" stroke="black" points="755.5,-42 918.5,-42 "/>
<text text-anchor="start" x="763.5" y="-30" font-family="Helvetica,sans-Serif" font-size="10.00">+ TNodeIntegrator_PPMBallistics</text>
<text text-anchor="start" x="763.5" y="-19" font-family="Helvetica,sans-Serif" font-size="10.00">_Endpoint_Out()</text>
<text text-anchor="start" x="763.5" y="-8" font-family="Helvetica,sans-Serif" font-size="10.00"># _Register()</text>
</a>
</g>
</g>
<!-- Node9&#45;&gt;Node12 -->
<g id="edge11" class="edge"><title>Node9&#45;&gt;Node12</title>
<path fill="none" stroke="midnightblue" d="M726.065,-133.412C744.311,-119.2 763.364,-104.358 780.428,-91.0667"/>
<polygon fill="none" stroke="midnightblue" points="723.487,-130.984 717.749,-139.89 727.789,-136.506 723.487,-130.984"/>
</g>
<!-- Node13 -->
<g id="node13" class="node"><title>Node13</title>
<g id="a_node13"><a xlink:href="../../da/d77/classppm__java_1_1backend_1_1module_1_1peak__estimator_1_1_t_node_peak_estimator___endpoint___out.html" target="_top" xlink:title="Audio output port for a TNodePeakEstimator. ">
<polygon fill="white" stroke="black" points="936.5,-1 936.5,-91 1055.5,-91 1055.5,-1 936.5,-1"/>
<text text-anchor="start" x="944.5" y="-79" font-family="Helvetica,sans-Serif" font-size="10.00">TNodePeakEstimator</text>
<text text-anchor="middle" x="996" y="-68" font-family="Helvetica,sans-Serif" font-size="10.00">_Endpoint_Out</text>
<polyline fill="none" stroke="black" points="936.5,-61 1055.5,-61 "/>
<text text-anchor="middle" x="996" y="-49" font-family="Helvetica,sans-Serif" font-size="10.00"> </text>
<polyline fill="none" stroke="black" points="936.5,-42 1055.5,-42 "/>
<text text-anchor="start" x="944.5" y="-30" font-family="Helvetica,sans-Serif" font-size="10.00">+ TNodePeakEstimator</text>
<text text-anchor="start" x="944.5" y="-19" font-family="Helvetica,sans-Serif" font-size="10.00">_Endpoint_Out()</text>
<text text-anchor="start" x="944.5" y="-8" font-family="Helvetica,sans-Serif" font-size="10.00"># _Register()</text>
</a>
</g>
</g>
<!-- Node9&#45;&gt;Node13 -->
<g id="edge12" class="edge"><title>Node9&#45;&gt;Node13</title>
<path fill="none" stroke="midnightblue" d="M736.095,-167.94C792.204,-149.518 865.408,-122.916 927,-92 930.068,-90.4602 933.167,-88.8137 936.264,-87.0939"/>
<polygon fill="none" stroke="midnightblue" points="734.959,-164.629 726.535,-171.054 737.127,-171.285 734.959,-164.629"/>
</g>
</g>
</svg>
