<?xml version="1.0" encoding="UTF-8" standalone="no"?>
<!DOCTYPE svg PUBLIC "-//W3C//DTD SVG 1.1//EN"
 "http://www.w3.org/Graphics/SVG/1.1/DTD/svg11.dtd">
<!-- Generated by graphviz version 2.36.0 (20140111.2315)
 -->
<!-- Title: Get Pages: 1 -->
<svg width="130pt" height="66pt"
 viewBox="0.00 0.00 130.00 66.00" xmlns="http://www.w3.org/2000/svg" xmlns:xlink="http://www.w3.org/1999/xlink">
<g id="graph0" class="graph" transform="scale(1 1) rotate(0) translate(4 62)">
<title>Get</title>
<polygon fill="white" stroke="none" points="-4,4 -4,-62 126,-62 126,4 -4,4"/>
<!-- Node1 -->
<g id="node1" class="node"><title>Node1</title>
<polygon fill="#bfbfbf" stroke="black" points="0,-19.5 0,-38.5 32,-38.5 32,-19.5 0,-19.5"/>
<text text-anchor="middle" x="16" y="-26.5" font-family="Helvetica,sans-Serif" font-size="10.00">Get</text>
</g>
<!-- Node2 -->
<g id="node2" class="node"><title>Node2</title>
<g id="a_node2"><a xlink:href="../../d2/df7/classppm__java_1_1util_1_1storage_1_1_t_atomic_double.html#a60fe7aa6d1a53dab132be5ecc82d668e" target="_top" xlink:title="Definitely acquire the lock on the critical section (spin lock, as it&#39;s merry&#45;go&#45;round until lock has...">
<polygon fill="white" stroke="black" points="73.5,-38.5 73.5,-57.5 116.5,-57.5 116.5,-38.5 73.5,-38.5"/>
<text text-anchor="middle" x="95" y="-45.5" font-family="Helvetica,sans-Serif" font-size="10.00">_Lock</text>
</a>
</g>
</g>
<!-- Node1&#45;&gt;Node2 -->
<g id="edge1" class="edge"><title>Node1&#45;&gt;Node2</title>
<path fill="none" stroke="midnightblue" d="M32.2127,-32.7538C41.114,-34.9502 52.6755,-37.803 63.3862,-40.446"/>
<polygon fill="midnightblue" stroke="midnightblue" points="62.7326,-43.8896 73.28,-42.8873 64.4097,-37.0934 62.7326,-43.8896"/>
</g>
<!-- Node3 -->
<g id="node3" class="node"><title>Node3</title>
<g id="a_node3"><a xlink:href="../../d2/df7/classppm__java_1_1util_1_1storage_1_1_t_atomic_double.html#a4e9f36f97f1d8af33e8f50dce5153568" target="_top" xlink:title="Definitely release the lock on the critical section (spin lock, as it&#39;s merry&#45;go&#45;round until lock has...">
<polygon fill="white" stroke="black" points="68.5,-0.5 68.5,-19.5 121.5,-19.5 121.5,-0.5 68.5,-0.5"/>
<text text-anchor="middle" x="95" y="-7.5" font-family="Helvetica,sans-Serif" font-size="10.00">_Unlock</text>
</a>
</g>
</g>
<!-- Node1&#45;&gt;Node3 -->
<g id="edge2" class="edge"><title>Node1&#45;&gt;Node3</title>
<path fill="none" stroke="midnightblue" d="M32.2127,-25.2462C39.7444,-23.3878 49.1806,-21.0593 58.3944,-18.7858"/>
<polygon fill="midnightblue" stroke="midnightblue" points="59.3342,-22.159 68.2045,-16.3651 57.6572,-15.3628 59.3342,-22.159"/>
</g>
</g>
</svg>
