<?xml version="1.0" encoding="UTF-8" standalone="no"?>
<!DOCTYPE svg PUBLIC "-//W3C//DTD SVG 1.1//EN"
 "http://www.w3.org/Graphics/SVG/1.1/DTD/svg11.dtd">
<!-- Generated by graphviz version 2.36.0 (20140111.2315)
 -->
<!-- Title: Get Pages: 1 -->
<svg width="282pt" height="337pt"
 viewBox="0.00 0.00 282.00 337.00" xmlns="http://www.w3.org/2000/svg" xmlns:xlink="http://www.w3.org/1999/xlink">
<g id="graph0" class="graph" transform="scale(1 1) rotate(0) translate(4 333)">
<title>Get</title>
<polygon fill="white" stroke="none" points="-4,4 -4,-333 278,-333 278,4 -4,4"/>
<!-- Node1 -->
<g id="node1" class="node"><title>Node1</title>
<polygon fill="#bfbfbf" stroke="black" points="0,-151.5 0,-170.5 32,-170.5 32,-151.5 0,-151.5"/>
<text text-anchor="middle" x="16" y="-158.5" font-family="Helvetica,sans-Serif" font-size="10.00">Get</text>
</g>
<!-- Node2 -->
<g id="node2" class="node"><title>Node2</title>
<g id="a_node2"><a xlink:href="../../df/d4b/classppm__java_1_1frontend_1_1gui_1_1lineargauge_1_1_t_g_u_i_linear_gauge___surrogate___stats___record.html#aeca6a90af8e17967096f2bfd719ceb45" target="_top" xlink:title="ppm_java.frontend.gui.lineargauge.\lTGUILinearGauge_Surrogate_Stats\l_Record.GetDumpStr">
<polygon fill="white" stroke="black" points="85.5,-287.5 85.5,-328.5 256.5,-328.5 256.5,-287.5 85.5,-287.5"/>
<text text-anchor="start" x="93.5" y="-316.5" font-family="Helvetica,sans-Serif" font-size="10.00">ppm_java.frontend.gui.lineargauge.</text>
<text text-anchor="start" x="93.5" y="-305.5" font-family="Helvetica,sans-Serif" font-size="10.00">TGUILinearGauge_Surrogate_Stats</text>
<text text-anchor="middle" x="171" y="-294.5" font-family="Helvetica,sans-Serif" font-size="10.00">_Record.GetDumpStr</text>
</a>
</g>
</g>
<!-- Node1&#45;&gt;Node2 -->
<g id="edge1" class="edge"><title>Node1&#45;&gt;Node2</title>
<path fill="none" stroke="midnightblue" d="M20.4294,-180.776C25.9319,-206.577 39.1897,-251.433 68,-277 73.122,-281.545 78.8942,-285.424 85.0215,-288.735"/>
<polygon fill="midnightblue" stroke="midnightblue" points="23.8144,-179.847 18.4708,-170.698 16.9429,-181.182 23.8144,-179.847"/>
</g>
<!-- Node3 -->
<g id="node3" class="node"><title>Node3</title>
<g id="a_node3"><a xlink:href="../../dd/d13/classppm__java_1_1frontend_1_1gui_1_1needle_1_1_t_g_u_i_needle___surrogate___stats___record.html#aeca6a90af8e17967096f2bfd719ceb45" target="_top" xlink:title="ppm_java.frontend.gui.needle.\lTGUINeedle_Surrogate_Stats\l_Record.GetDumpStr">
<polygon fill="white" stroke="black" points="97.5,-227.5 97.5,-268.5 244.5,-268.5 244.5,-227.5 97.5,-227.5"/>
<text text-anchor="start" x="105.5" y="-256.5" font-family="Helvetica,sans-Serif" font-size="10.00">ppm_java.frontend.gui.needle.</text>
<text text-anchor="start" x="105.5" y="-245.5" font-family="Helvetica,sans-Serif" font-size="10.00">TGUINeedle_Surrogate_Stats</text>
<text text-anchor="middle" x="171" y="-234.5" font-family="Helvetica,sans-Serif" font-size="10.00">_Record.GetDumpStr</text>
</a>
</g>
</g>
<!-- Node1&#45;&gt;Node3 -->
<g id="edge2" class="edge"><title>Node1&#45;&gt;Node3</title>
<path fill="none" stroke="midnightblue" d="M29.3353,-179.012C38.6405,-191.336 52.4355,-207.164 68,-217 76.9964,-222.685 87.0973,-227.38 97.3526,-231.243"/>
<polygon fill="midnightblue" stroke="midnightblue" points="32.0882,-176.846 23.3921,-170.794 26.416,-180.948 32.0882,-176.846"/>
</g>
<!-- Node4 -->
<g id="node4" class="node"><title>Node4</title>
<g id="a_node4"><a xlink:href="../../d8/ddb/classppm__java_1_1backend_1_1module_1_1peak__estimator_1_1_t_node_peak_estimator___stats.html#aeca6a90af8e17967096f2bfd719ceb45" target="_top" xlink:title="ppm_java.backend.module.peak\l_estimator.TNodePeakEstimator\l_Stats.GetDumpStr">
<polygon fill="white" stroke="black" points="91.5,-167.5 91.5,-208.5 250.5,-208.5 250.5,-167.5 91.5,-167.5"/>
<text text-anchor="start" x="99.5" y="-196.5" font-family="Helvetica,sans-Serif" font-size="10.00">ppm_java.backend.module.peak</text>
<text text-anchor="start" x="99.5" y="-185.5" font-family="Helvetica,sans-Serif" font-size="10.00">_estimator.TNodePeakEstimator</text>
<text text-anchor="middle" x="171" y="-174.5" font-family="Helvetica,sans-Serif" font-size="10.00">_Stats.GetDumpStr</text>
</a>
</g>
</g>
<!-- Node1&#45;&gt;Node4 -->
<g id="edge3" class="edge"><title>Node1&#45;&gt;Node4</title>
<path fill="none" stroke="midnightblue" d="M42.2343,-165.453C55.8793,-167.861 73.5555,-170.98 91.3851,-174.127"/>
<polygon fill="midnightblue" stroke="midnightblue" points="42.6857,-161.979 32.2296,-163.688 41.4691,-168.872 42.6857,-161.979"/>
</g>
<!-- Node5 -->
<g id="node5" class="node"><title>Node5</title>
<g id="a_node5"><a xlink:href="../../d0/db3/classppm__java_1_1backend_1_1module_1_1converter__db_1_1_t_node_converter_db___stats.html#aeca6a90af8e17967096f2bfd719ceb45" target="_top" xlink:title="ppm_java.backend.module.converter\l_db.TNodeConverterDb_Stats.GetDumpStr">
<polygon fill="white" stroke="black" points="68,-119 68,-149 274,-149 274,-119 68,-119"/>
<text text-anchor="start" x="76" y="-137" font-family="Helvetica,sans-Serif" font-size="10.00">ppm_java.backend.module.converter</text>
<text text-anchor="middle" x="171" y="-126" font-family="Helvetica,sans-Serif" font-size="10.00">_db.TNodeConverterDb_Stats.GetDumpStr</text>
</a>
</g>
</g>
<!-- Node1&#45;&gt;Node5 -->
<g id="edge4" class="edge"><title>Node1&#45;&gt;Node5</title>
<path fill="none" stroke="midnightblue" d="M42.286,-156.538C54.2671,-154.423 69.3476,-151.762 84.9085,-149.016"/>
<polygon fill="midnightblue" stroke="midnightblue" points="41.4691,-153.128 32.2296,-158.312 42.6857,-160.021 41.4691,-153.128"/>
</g>
<!-- Node6 -->
<g id="node6" class="node"><title>Node6</title>
<g id="a_node6"><a xlink:href="../../d6/d19/classppm__java_1_1backend_1_1module_1_1integrator_1_1_t_node_integrator___p_p_m_ballistics___stats.html#aeca6a90af8e17967096f2bfd719ceb45" target="_top" xlink:title="ppm_java.backend.module.integrator.\lTNodeIntegrator_PPMBallistics\l_Stats.GetDumpStr">
<polygon fill="white" stroke="black" points="81.5,-59.5 81.5,-100.5 260.5,-100.5 260.5,-59.5 81.5,-59.5"/>
<text text-anchor="start" x="89.5" y="-88.5" font-family="Helvetica,sans-Serif" font-size="10.00">ppm_java.backend.module.integrator.</text>
<text text-anchor="start" x="89.5" y="-77.5" font-family="Helvetica,sans-Serif" font-size="10.00">TNodeIntegrator_PPMBallistics</text>
<text text-anchor="middle" x="171" y="-66.5" font-family="Helvetica,sans-Serif" font-size="10.00">_Stats.GetDumpStr</text>
</a>
</g>
</g>
<!-- Node1&#45;&gt;Node6 -->
<g id="edge5" class="edge"><title>Node1&#45;&gt;Node6</title>
<path fill="none" stroke="midnightblue" d="M30.5703,-143.488C39.9834,-132.435 53.4136,-118.659 68,-110 73.9521,-106.467 80.3492,-103.325 86.933,-100.535"/>
<polygon fill="midnightblue" stroke="midnightblue" points="27.8207,-141.321 24.2024,-151.279 33.2407,-145.751 27.8207,-141.321"/>
</g>
<!-- Node7 -->
<g id="node7" class="node"><title>Node7</title>
<g id="a_node7"><a xlink:href="../../df/daf/classppm__java_1_1backend_1_1module_1_1__deprecated__ppm_1_1_t_node_p_p_m_processor___stats.html#aeca6a90af8e17967096f2bfd719ceb45" target="_top" xlink:title="ppm_java.backend.module.\l_deprecated_ppm.TNodePPMProcessor\l_Stats.GetDumpStr">
<polygon fill="white" stroke="black" points="75,0.5 75,-40.5 267,-40.5 267,0.5 75,0.5"/>
<text text-anchor="start" x="83" y="-28.5" font-family="Helvetica,sans-Serif" font-size="10.00">ppm_java.backend.module.</text>
<text text-anchor="start" x="83" y="-17.5" font-family="Helvetica,sans-Serif" font-size="10.00">_deprecated_ppm.TNodePPMProcessor</text>
<text text-anchor="middle" x="171" y="-6.5" font-family="Helvetica,sans-Serif" font-size="10.00">_Stats.GetDumpStr</text>
</a>
</g>
</g>
<!-- Node1&#45;&gt;Node7 -->
<g id="edge6" class="edge"><title>Node1&#45;&gt;Node7</title>
<path fill="none" stroke="midnightblue" d="M20.8114,-141.319C26.6469,-116.468 40.1799,-74.0614 68,-50 72.0487,-46.4983 76.489,-43.405 81.1804,-40.6724"/>
<polygon fill="midnightblue" stroke="midnightblue" points="17.3302,-140.86 18.6483,-151.372 24.1735,-142.332 17.3302,-140.86"/>
</g>
</g>
</svg>
