<?xml version="1.0" encoding="UTF-8" standalone="no"?>
<!DOCTYPE svg PUBLIC "-//W3C//DTD SVG 1.1//EN"
 "http://www.w3.org/Graphics/SVG/1.1/DTD/svg11.dtd">
<!-- Generated by graphviz version 2.36.0 (20140111.2315)
 -->
<!-- Title: _Lock Pages: 1 -->
<svg width="362pt" height="337pt"
 viewBox="0.00 0.00 362.00 337.00" xmlns="http://www.w3.org/2000/svg" xmlns:xlink="http://www.w3.org/1999/xlink">
<g id="graph0" class="graph" transform="scale(1 1) rotate(0) translate(4 333)">
<title>_Lock</title>
<polygon fill="white" stroke="none" points="-4,4 -4,-333 358,-333 358,4 -4,4"/>
<!-- Node1 -->
<g id="node1" class="node"><title>Node1</title>
<polygon fill="#bfbfbf" stroke="black" points="0.5,-138.5 0.5,-157.5 43.5,-157.5 43.5,-138.5 0.5,-138.5"/>
<text text-anchor="middle" x="22" y="-145.5" font-family="Helvetica,sans-Serif" font-size="10.00">_Lock</text>
</g>
<!-- Node2 -->
<g id="node2" class="node"><title>Node2</title>
<g id="a_node2"><a xlink:href="../../d2/df7/classppm__java_1_1util_1_1storage_1_1_t_atomic_double.html#a9cbaa667c3cedd75b2da76e7cc50f567" target="_top" xlink:title="Get">
<polygon fill="white" stroke="black" points="80,-157.5 80,-176.5 112,-176.5 112,-157.5 80,-157.5"/>
<text text-anchor="middle" x="96" y="-164.5" font-family="Helvetica,sans-Serif" font-size="10.00">Get</text>
</a>
</g>
</g>
<!-- Node1&#45;&gt;Node2 -->
<g id="edge1" class="edge"><title>Node1&#45;&gt;Node2</title>
<path fill="none" stroke="midnightblue" d="M53.6685,-156.093C62.6672,-158.468 72.1203,-160.962 79.7114,-162.966"/>
<polygon fill="midnightblue" stroke="midnightblue" points="54.3875,-152.663 43.8254,-153.496 52.6013,-159.431 54.3875,-152.663"/>
</g>
<!-- Node9 -->
<g id="node9" class="node"><title>Node9</title>
<g id="a_node9"><a xlink:href="../../d2/df7/classppm__java_1_1util_1_1storage_1_1_t_atomic_double.html#aef7e152dbe7819bed910bed69a66f889" target="_top" xlink:title="Sets the value. ">
<polygon fill="white" stroke="black" points="80,-119.5 80,-138.5 112,-138.5 112,-119.5 80,-119.5"/>
<text text-anchor="middle" x="96" y="-126.5" font-family="Helvetica,sans-Serif" font-size="10.00">Set</text>
</a>
</g>
</g>
<!-- Node1&#45;&gt;Node9 -->
<g id="edge8" class="edge"><title>Node1&#45;&gt;Node9</title>
<path fill="none" stroke="midnightblue" d="M53.6685,-139.907C62.6672,-137.532 72.1203,-135.038 79.7114,-133.034"/>
<polygon fill="midnightblue" stroke="midnightblue" points="52.6013,-136.569 43.8254,-142.504 54.3875,-143.337 52.6013,-136.569"/>
</g>
<!-- Node3 -->
<g id="node3" class="node"><title>Node3</title>
<g id="a_node3"><a xlink:href="../../df/d4b/classppm__java_1_1frontend_1_1gui_1_1lineargauge_1_1_t_g_u_i_linear_gauge___surrogate___stats___record.html#aeca6a90af8e17967096f2bfd719ceb45" target="_top" xlink:title="ppm_java.frontend.gui.lineargauge.\lTGUILinearGauge_Surrogate_Stats\l_Record.GetDumpStr">
<polygon fill="white" stroke="black" points="165.5,-287.5 165.5,-328.5 336.5,-328.5 336.5,-287.5 165.5,-287.5"/>
<text text-anchor="start" x="173.5" y="-316.5" font-family="Helvetica,sans-Serif" font-size="10.00">ppm_java.frontend.gui.lineargauge.</text>
<text text-anchor="start" x="173.5" y="-305.5" font-family="Helvetica,sans-Serif" font-size="10.00">TGUILinearGauge_Surrogate_Stats</text>
<text text-anchor="middle" x="251" y="-294.5" font-family="Helvetica,sans-Serif" font-size="10.00">_Record.GetDumpStr</text>
</a>
</g>
</g>
<!-- Node2&#45;&gt;Node3 -->
<g id="edge2" class="edge"><title>Node2&#45;&gt;Node3</title>
<path fill="none" stroke="midnightblue" d="M100.897,-186.468C106.823,-211.057 120.453,-253.041 148,-277 153.167,-281.494 158.971,-285.337 165.12,-288.622"/>
<polygon fill="midnightblue" stroke="midnightblue" points="104.273,-185.528 98.6935,-176.522 97.4391,-187.042 104.273,-185.528"/>
</g>
<!-- Node4 -->
<g id="node4" class="node"><title>Node4</title>
<g id="a_node4"><a xlink:href="../../dd/d13/classppm__java_1_1frontend_1_1gui_1_1needle_1_1_t_g_u_i_needle___surrogate___stats___record.html#aeca6a90af8e17967096f2bfd719ceb45" target="_top" xlink:title="ppm_java.frontend.gui.needle.\lTGUINeedle_Surrogate_Stats\l_Record.GetDumpStr">
<polygon fill="white" stroke="black" points="177.5,-227.5 177.5,-268.5 324.5,-268.5 324.5,-227.5 177.5,-227.5"/>
<text text-anchor="start" x="185.5" y="-256.5" font-family="Helvetica,sans-Serif" font-size="10.00">ppm_java.frontend.gui.needle.</text>
<text text-anchor="start" x="185.5" y="-245.5" font-family="Helvetica,sans-Serif" font-size="10.00">TGUINeedle_Surrogate_Stats</text>
<text text-anchor="middle" x="251" y="-234.5" font-family="Helvetica,sans-Serif" font-size="10.00">_Record.GetDumpStr</text>
</a>
</g>
</g>
<!-- Node2&#45;&gt;Node4 -->
<g id="edge3" class="edge"><title>Node2&#45;&gt;Node4</title>
<path fill="none" stroke="midnightblue" d="M110.57,-184.512C119.983,-195.565 133.414,-209.341 148,-218 157.047,-223.371 167.122,-227.837 177.319,-231.536"/>
<polygon fill="midnightblue" stroke="midnightblue" points="113.241,-182.249 104.202,-176.721 107.821,-186.679 113.241,-182.249"/>
</g>
<!-- Node5 -->
<g id="node5" class="node"><title>Node5</title>
<g id="a_node5"><a xlink:href="../../d0/db3/classppm__java_1_1backend_1_1module_1_1converter__db_1_1_t_node_converter_db___stats.html#aeca6a90af8e17967096f2bfd719ceb45" target="_top" xlink:title="ppm_java.backend.module.converter\l_db.TNodeConverterDb_Stats.GetDumpStr">
<polygon fill="white" stroke="black" points="148,-179 148,-209 354,-209 354,-179 148,-179"/>
<text text-anchor="start" x="156" y="-197" font-family="Helvetica,sans-Serif" font-size="10.00">ppm_java.backend.module.converter</text>
<text text-anchor="middle" x="251" y="-186" font-family="Helvetica,sans-Serif" font-size="10.00">_db.TNodeConverterDb_Stats.GetDumpStr</text>
</a>
</g>
</g>
<!-- Node2&#45;&gt;Node5 -->
<g id="edge4" class="edge"><title>Node2&#45;&gt;Node5</title>
<path fill="none" stroke="midnightblue" d="M122.286,-171.462C134.267,-173.577 149.348,-176.238 164.908,-178.984"/>
<polygon fill="midnightblue" stroke="midnightblue" points="122.686,-167.979 112.23,-169.688 121.469,-174.872 122.686,-167.979"/>
</g>
<!-- Node6 -->
<g id="node6" class="node"><title>Node6</title>
<g id="a_node6"><a xlink:href="../../d6/d19/classppm__java_1_1backend_1_1module_1_1integrator_1_1_t_node_integrator___p_p_m_ballistics___stats.html#aeca6a90af8e17967096f2bfd719ceb45" target="_top" xlink:title="ppm_java.backend.module.integrator.\lTNodeIntegrator_PPMBallistics\l_Stats.GetDumpStr">
<polygon fill="white" stroke="black" points="161.5,-119.5 161.5,-160.5 340.5,-160.5 340.5,-119.5 161.5,-119.5"/>
<text text-anchor="start" x="169.5" y="-148.5" font-family="Helvetica,sans-Serif" font-size="10.00">ppm_java.backend.module.integrator.</text>
<text text-anchor="start" x="169.5" y="-137.5" font-family="Helvetica,sans-Serif" font-size="10.00">TNodeIntegrator_PPMBallistics</text>
<text text-anchor="middle" x="251" y="-126.5" font-family="Helvetica,sans-Serif" font-size="10.00">_Stats.GetDumpStr</text>
</a>
</g>
</g>
<!-- Node2&#45;&gt;Node6 -->
<g id="edge5" class="edge"><title>Node2&#45;&gt;Node6</title>
<path fill="none" stroke="midnightblue" d="M122.329,-162.53C133.382,-160.58 147.067,-158.165 161.332,-155.647"/>
<polygon fill="midnightblue" stroke="midnightblue" points="121.469,-159.128 112.23,-164.312 122.686,-166.021 121.469,-159.128"/>
</g>
<!-- Node7 -->
<g id="node7" class="node"><title>Node7</title>
<g id="a_node7"><a xlink:href="../../d8/ddb/classppm__java_1_1backend_1_1module_1_1peak__estimator_1_1_t_node_peak_estimator___stats.html#aeca6a90af8e17967096f2bfd719ceb45" target="_top" xlink:title="ppm_java.backend.module.peak\l_estimator.TNodePeakEstimator\l_Stats.GetDumpStr">
<polygon fill="white" stroke="black" points="171.5,-59.5 171.5,-100.5 330.5,-100.5 330.5,-59.5 171.5,-59.5"/>
<text text-anchor="start" x="179.5" y="-88.5" font-family="Helvetica,sans-Serif" font-size="10.00">ppm_java.backend.module.peak</text>
<text text-anchor="start" x="179.5" y="-77.5" font-family="Helvetica,sans-Serif" font-size="10.00">_estimator.TNodePeakEstimator</text>
<text text-anchor="middle" x="251" y="-66.5" font-family="Helvetica,sans-Serif" font-size="10.00">_Stats.GetDumpStr</text>
</a>
</g>
</g>
<!-- Node2&#45;&gt;Node7 -->
<g id="edge6" class="edge"><title>Node2&#45;&gt;Node7</title>
<path fill="none" stroke="midnightblue" d="M111.155,-149.131C123.058,-134.51 139.46,-115.395 148,-110 155.256,-105.416 163.242,-101.507 171.452,-98.1793"/>
<polygon fill="midnightblue" stroke="midnightblue" points="108.299,-147.097 104.76,-157.083 113.754,-151.484 108.299,-147.097"/>
</g>
<!-- Node8 -->
<g id="node8" class="node"><title>Node8</title>
<g id="a_node8"><a xlink:href="../../df/daf/classppm__java_1_1backend_1_1module_1_1__deprecated__ppm_1_1_t_node_p_p_m_processor___stats.html#aeca6a90af8e17967096f2bfd719ceb45" target="_top" xlink:title="ppm_java.backend.module.\l_deprecated_ppm.TNodePPMProcessor\l_Stats.GetDumpStr">
<polygon fill="white" stroke="black" points="155,0.5 155,-40.5 347,-40.5 347,0.5 155,0.5"/>
<text text-anchor="start" x="163" y="-28.5" font-family="Helvetica,sans-Serif" font-size="10.00">ppm_java.backend.module.</text>
<text text-anchor="start" x="163" y="-17.5" font-family="Helvetica,sans-Serif" font-size="10.00">_deprecated_ppm.TNodePPMProcessor</text>
<text text-anchor="middle" x="251" y="-6.5" font-family="Helvetica,sans-Serif" font-size="10.00">_Stats.GetDumpStr</text>
</a>
</g>
</g>
<!-- Node2&#45;&gt;Node8 -->
<g id="edge7" class="edge"><title>Node2&#45;&gt;Node8</title>
<path fill="none" stroke="midnightblue" d="M111.479,-148.908C111.657,-148.605 111.831,-148.303 112,-148 134.659,-107.507 114.125,-81.7104 148,-50 151.773,-46.468 155.941,-43.3497 160.372,-40.5969"/>
<polygon fill="midnightblue" stroke="midnightblue" points="108.43,-147.161 105.568,-157.362 114.166,-151.172 108.43,-147.161"/>
</g>
</g>
</svg>
