<?xml version="1.0" encoding="UTF-8" standalone="no"?>
<!DOCTYPE svg PUBLIC "-//W3C//DTD SVG 1.1//EN"
 "http://www.w3.org/Graphics/SVG/1.1/DTD/svg11.dtd">
<!-- Generated by graphviz version 2.36.0 (20140111.2315)
 -->
<!-- Title: _Unlock Pages: 1 -->
<svg width="372pt" height="337pt"
 viewBox="0.00 0.00 372.00 337.00" xmlns="http://www.w3.org/2000/svg" xmlns:xlink="http://www.w3.org/1999/xlink">
<g id="graph0" class="graph" transform="scale(1 1) rotate(0) translate(4 333)">
<title>_Unlock</title>
<polygon fill="white" stroke="none" points="-4,4 -4,-333 368,-333 368,4 -4,4"/>
<!-- Node1 -->
<g id="node1" class="node"><title>Node1</title>
<polygon fill="#bfbfbf" stroke="black" points="0.5,-138.5 0.5,-157.5 53.5,-157.5 53.5,-138.5 0.5,-138.5"/>
<text text-anchor="middle" x="27" y="-145.5" font-family="Helvetica,sans-Serif" font-size="10.00">_Unlock</text>
</g>
<!-- Node2 -->
<g id="node2" class="node"><title>Node2</title>
<g id="a_node2"><a xlink:href="../../d2/df7/classppm__java_1_1util_1_1storage_1_1_t_atomic_double.html#a9cbaa667c3cedd75b2da76e7cc50f567" target="_top" xlink:title="Get">
<polygon fill="white" stroke="black" points="90,-157.5 90,-176.5 122,-176.5 122,-157.5 90,-157.5"/>
<text text-anchor="middle" x="106" y="-164.5" font-family="Helvetica,sans-Serif" font-size="10.00">Get</text>
</a>
</g>
</g>
<!-- Node1&#45;&gt;Node2 -->
<g id="edge1" class="edge"><title>Node1&#45;&gt;Node2</title>
<path fill="none" stroke="midnightblue" d="M63.4146,-156.739C72.5999,-159.005 82.0209,-161.33 89.5683,-163.192"/>
<polygon fill="midnightblue" stroke="midnightblue" points="64.1872,-153.324 53.6399,-154.327 62.5102,-160.121 64.1872,-153.324"/>
</g>
<!-- Node9 -->
<g id="node9" class="node"><title>Node9</title>
<g id="a_node9"><a xlink:href="../../d2/df7/classppm__java_1_1util_1_1storage_1_1_t_atomic_double.html#aef7e152dbe7819bed910bed69a66f889" target="_top" xlink:title="Sets the value. ">
<polygon fill="white" stroke="black" points="90,-119.5 90,-138.5 122,-138.5 122,-119.5 90,-119.5"/>
<text text-anchor="middle" x="106" y="-126.5" font-family="Helvetica,sans-Serif" font-size="10.00">Set</text>
</a>
</g>
</g>
<!-- Node1&#45;&gt;Node9 -->
<g id="edge8" class="edge"><title>Node1&#45;&gt;Node9</title>
<path fill="none" stroke="midnightblue" d="M63.4146,-139.261C72.5999,-136.995 82.0209,-134.67 89.5683,-132.808"/>
<polygon fill="midnightblue" stroke="midnightblue" points="62.5102,-135.879 53.6399,-141.673 64.1872,-142.676 62.5102,-135.879"/>
</g>
<!-- Node3 -->
<g id="node3" class="node"><title>Node3</title>
<g id="a_node3"><a xlink:href="../../df/d4b/classppm__java_1_1frontend_1_1gui_1_1lineargauge_1_1_t_g_u_i_linear_gauge___surrogate___stats___record.html#aeca6a90af8e17967096f2bfd719ceb45" target="_top" xlink:title="ppm_java.frontend.gui.lineargauge.\lTGUILinearGauge_Surrogate_Stats\l_Record.GetDumpStr">
<polygon fill="white" stroke="black" points="175.5,-287.5 175.5,-328.5 346.5,-328.5 346.5,-287.5 175.5,-287.5"/>
<text text-anchor="start" x="183.5" y="-316.5" font-family="Helvetica,sans-Serif" font-size="10.00">ppm_java.frontend.gui.lineargauge.</text>
<text text-anchor="start" x="183.5" y="-305.5" font-family="Helvetica,sans-Serif" font-size="10.00">TGUILinearGauge_Surrogate_Stats</text>
<text text-anchor="middle" x="261" y="-294.5" font-family="Helvetica,sans-Serif" font-size="10.00">_Record.GetDumpStr</text>
</a>
</g>
</g>
<!-- Node2&#45;&gt;Node3 -->
<g id="edge2" class="edge"><title>Node2&#45;&gt;Node3</title>
<path fill="none" stroke="midnightblue" d="M110.897,-186.468C116.823,-211.057 130.453,-253.041 158,-277 163.167,-281.494 168.971,-285.337 175.12,-288.622"/>
<polygon fill="midnightblue" stroke="midnightblue" points="114.273,-185.528 108.693,-176.522 107.439,-187.042 114.273,-185.528"/>
</g>
<!-- Node4 -->
<g id="node4" class="node"><title>Node4</title>
<g id="a_node4"><a xlink:href="../../dd/d13/classppm__java_1_1frontend_1_1gui_1_1needle_1_1_t_g_u_i_needle___surrogate___stats___record.html#aeca6a90af8e17967096f2bfd719ceb45" target="_top" xlink:title="ppm_java.frontend.gui.needle.\lTGUINeedle_Surrogate_Stats\l_Record.GetDumpStr">
<polygon fill="white" stroke="black" points="187.5,-227.5 187.5,-268.5 334.5,-268.5 334.5,-227.5 187.5,-227.5"/>
<text text-anchor="start" x="195.5" y="-256.5" font-family="Helvetica,sans-Serif" font-size="10.00">ppm_java.frontend.gui.needle.</text>
<text text-anchor="start" x="195.5" y="-245.5" font-family="Helvetica,sans-Serif" font-size="10.00">TGUINeedle_Surrogate_Stats</text>
<text text-anchor="middle" x="261" y="-234.5" font-family="Helvetica,sans-Serif" font-size="10.00">_Record.GetDumpStr</text>
</a>
</g>
</g>
<!-- Node2&#45;&gt;Node4 -->
<g id="edge3" class="edge"><title>Node2&#45;&gt;Node4</title>
<path fill="none" stroke="midnightblue" d="M120.57,-184.512C129.983,-195.565 143.414,-209.341 158,-218 167.047,-223.371 177.122,-227.837 187.319,-231.536"/>
<polygon fill="midnightblue" stroke="midnightblue" points="123.241,-182.249 114.202,-176.721 117.821,-186.679 123.241,-182.249"/>
</g>
<!-- Node5 -->
<g id="node5" class="node"><title>Node5</title>
<g id="a_node5"><a xlink:href="../../d0/db3/classppm__java_1_1backend_1_1module_1_1converter__db_1_1_t_node_converter_db___stats.html#aeca6a90af8e17967096f2bfd719ceb45" target="_top" xlink:title="ppm_java.backend.module.converter\l_db.TNodeConverterDb_Stats.GetDumpStr">
<polygon fill="white" stroke="black" points="158,-179 158,-209 364,-209 364,-179 158,-179"/>
<text text-anchor="start" x="166" y="-197" font-family="Helvetica,sans-Serif" font-size="10.00">ppm_java.backend.module.converter</text>
<text text-anchor="middle" x="261" y="-186" font-family="Helvetica,sans-Serif" font-size="10.00">_db.TNodeConverterDb_Stats.GetDumpStr</text>
</a>
</g>
</g>
<!-- Node2&#45;&gt;Node5 -->
<g id="edge4" class="edge"><title>Node2&#45;&gt;Node5</title>
<path fill="none" stroke="midnightblue" d="M132.286,-171.462C144.267,-173.577 159.348,-176.238 174.908,-178.984"/>
<polygon fill="midnightblue" stroke="midnightblue" points="132.686,-167.979 122.23,-169.688 131.469,-174.872 132.686,-167.979"/>
</g>
<!-- Node6 -->
<g id="node6" class="node"><title>Node6</title>
<g id="a_node6"><a xlink:href="../../d6/d19/classppm__java_1_1backend_1_1module_1_1integrator_1_1_t_node_integrator___p_p_m_ballistics___stats.html#aeca6a90af8e17967096f2bfd719ceb45" target="_top" xlink:title="ppm_java.backend.module.integrator.\lTNodeIntegrator_PPMBallistics\l_Stats.GetDumpStr">
<polygon fill="white" stroke="black" points="171.5,-119.5 171.5,-160.5 350.5,-160.5 350.5,-119.5 171.5,-119.5"/>
<text text-anchor="start" x="179.5" y="-148.5" font-family="Helvetica,sans-Serif" font-size="10.00">ppm_java.backend.module.integrator.</text>
<text text-anchor="start" x="179.5" y="-137.5" font-family="Helvetica,sans-Serif" font-size="10.00">TNodeIntegrator_PPMBallistics</text>
<text text-anchor="middle" x="261" y="-126.5" font-family="Helvetica,sans-Serif" font-size="10.00">_Stats.GetDumpStr</text>
</a>
</g>
</g>
<!-- Node2&#45;&gt;Node6 -->
<g id="edge5" class="edge"><title>Node2&#45;&gt;Node6</title>
<path fill="none" stroke="midnightblue" d="M132.329,-162.53C143.382,-160.58 157.067,-158.165 171.332,-155.647"/>
<polygon fill="midnightblue" stroke="midnightblue" points="131.469,-159.128 122.23,-164.312 132.686,-166.021 131.469,-159.128"/>
</g>
<!-- Node7 -->
<g id="node7" class="node"><title>Node7</title>
<g id="a_node7"><a xlink:href="../../d8/ddb/classppm__java_1_1backend_1_1module_1_1peak__estimator_1_1_t_node_peak_estimator___stats.html#aeca6a90af8e17967096f2bfd719ceb45" target="_top" xlink:title="ppm_java.backend.module.peak\l_estimator.TNodePeakEstimator\l_Stats.GetDumpStr">
<polygon fill="white" stroke="black" points="181.5,-59.5 181.5,-100.5 340.5,-100.5 340.5,-59.5 181.5,-59.5"/>
<text text-anchor="start" x="189.5" y="-88.5" font-family="Helvetica,sans-Serif" font-size="10.00">ppm_java.backend.module.peak</text>
<text text-anchor="start" x="189.5" y="-77.5" font-family="Helvetica,sans-Serif" font-size="10.00">_estimator.TNodePeakEstimator</text>
<text text-anchor="middle" x="261" y="-66.5" font-family="Helvetica,sans-Serif" font-size="10.00">_Stats.GetDumpStr</text>
</a>
</g>
</g>
<!-- Node2&#45;&gt;Node7 -->
<g id="edge6" class="edge"><title>Node2&#45;&gt;Node7</title>
<path fill="none" stroke="midnightblue" d="M121.155,-149.131C133.058,-134.51 149.46,-115.395 158,-110 165.256,-105.416 173.242,-101.507 181.452,-98.1793"/>
<polygon fill="midnightblue" stroke="midnightblue" points="118.299,-147.097 114.76,-157.083 123.754,-151.484 118.299,-147.097"/>
</g>
<!-- Node8 -->
<g id="node8" class="node"><title>Node8</title>
<g id="a_node8"><a xlink:href="../../df/daf/classppm__java_1_1backend_1_1module_1_1__deprecated__ppm_1_1_t_node_p_p_m_processor___stats.html#aeca6a90af8e17967096f2bfd719ceb45" target="_top" xlink:title="ppm_java.backend.module.\l_deprecated_ppm.TNodePPMProcessor\l_Stats.GetDumpStr">
<polygon fill="white" stroke="black" points="165,0.5 165,-40.5 357,-40.5 357,0.5 165,0.5"/>
<text text-anchor="start" x="173" y="-28.5" font-family="Helvetica,sans-Serif" font-size="10.00">ppm_java.backend.module.</text>
<text text-anchor="start" x="173" y="-17.5" font-family="Helvetica,sans-Serif" font-size="10.00">_deprecated_ppm.TNodePPMProcessor</text>
<text text-anchor="middle" x="261" y="-6.5" font-family="Helvetica,sans-Serif" font-size="10.00">_Stats.GetDumpStr</text>
</a>
</g>
</g>
<!-- Node2&#45;&gt;Node8 -->
<g id="edge7" class="edge"><title>Node2&#45;&gt;Node8</title>
<path fill="none" stroke="midnightblue" d="M121.479,-148.908C121.657,-148.605 121.831,-148.303 122,-148 144.659,-107.507 124.125,-81.7104 158,-50 161.773,-46.468 165.941,-43.3497 170.372,-40.5969"/>
<polygon fill="midnightblue" stroke="midnightblue" points="118.43,-147.161 115.568,-157.362 124.166,-151.172 118.43,-147.161"/>
</g>
</g>
</svg>
