<?xml version="1.0" encoding="UTF-8" standalone="no"?>
<!DOCTYPE svg PUBLIC "-//W3C//DTD SVG 1.1//EN"
 "http://www.w3.org/Graphics/SVG/1.1/DTD/svg11.dtd">
<!-- Generated by graphviz version 2.36.0 (20140111.2315)
 -->
<!-- Title: TGUILinearGauge_Surrogate_Stats Pages: 1 -->
<!--zoomable 1308 -->
<svg id="main" version="1.1" xmlns="http://www.w3.org/2000/svg" xmlns:xlink="http://www.w3.org/1999/xlink" xml:space="preserve" onload="init(evt)">
<style type="text/css"><![CDATA[
.edge:hover path { stroke: red; }
.edge:hover polygon { stroke: red; fill: red; }
]]></style>
<script type="text/javascript"><![CDATA[
var edges = document.getElementsByTagName('g');
if (edges && edges.length) {
  for (var i=0;i<edges.length;i++) {
    if (edges[i].id.substr(0,4)=='edge') {
      edges[i].setAttribute('class','edge');
    }
  }
}
]]></script>
        <defs>
                <circle id="rim" cx="0" cy="0" r="7"/>
                <circle id="rim2" cx="0" cy="0" r="3.5"/>
                <g id="zoomPlus">
                        <use xlink:href="#rim" fill="#404040">
                                <set attributeName="fill" to="#808080" begin="zoomplus.mouseover" end="zoomplus.mouseout"/>
                        </use>
                        <path d="M-4,0h8M0,-4v8" fill="none" stroke="white" stroke-width="1.5" pointer-events="none"/>
                </g>
                <g id="zoomMin">
                        <use xlink:href="#rim" fill="#404040">
                                <set attributeName="fill" to="#808080" begin="zoomminus.mouseover" end="zoomminus.mouseout"/>
                        </use>
                        <path d="M-4,0h8" fill="none" stroke="white" stroke-width="1.5" pointer-events="none"/>
                </g>
                <g id="dirArrow">
                        <path fill="none" stroke="white" stroke-width="1.5" d="M0,-3.0v7 M-2.5,-0.5L0,-3.0L2.5,-0.5"/>
                </g>
               <g id="resetDef">
                       <use xlink:href="#rim2" fill="#404040">
                               <set attributeName="fill" to="#808080" begin="reset.mouseover" end="reset.mouseout"/>
                       </use>
               </g>
        </defs>

<script type="text/javascript">
var viewWidth = 755;
var viewHeight = 1308;
var sectionId = 'dynsection-1';
</script>
<script xlink:href="../../svgpan.js"/>
<svg id="graph" class="graph">
<g id="viewport">
<title>TGUILinearGauge_Surrogate_Stats</title>
<polygon fill="white" stroke="none" points="-4,4 -4,-1304 751,-1304 751,4 -4,4"/>
<!-- Node1 -->
<g id="node1" class="node"><title>Node1</title>
<polygon fill="#bfbfbf" stroke="black" points="476,-702.5 476,-847.5 628,-847.5 628,-702.5 476,-702.5"/>
<text text-anchor="start" x="484" y="-835.5" font-family="Helvetica,sans-Serif" font-size="10.00">TGUILinearGauge_Surrogate</text>
<text text-anchor="middle" x="552" y="-824.5" font-family="Helvetica,sans-Serif" font-size="10.00">_Stats</text>
<polyline fill="none" stroke="black" points="476,-817.5 628,-817.5 "/>
<text text-anchor="start" x="484" y="-805.5" font-family="Helvetica,sans-Serif" font-size="10.00">&#45; fT0</text>
<polyline fill="none" stroke="black" points="476,-798.5 628,-798.5 "/>
<text text-anchor="start" x="484" y="-786.5" font-family="Helvetica,sans-Serif" font-size="10.00">+ TGUILinearGauge_Surrogate</text>
<text text-anchor="start" x="484" y="-775.5" font-family="Helvetica,sans-Serif" font-size="10.00">_Stats()</text>
<text text-anchor="start" x="484" y="-764.5" font-family="Helvetica,sans-Serif" font-size="10.00">+ GetDumpStr()</text>
<text text-anchor="start" x="484" y="-753.5" font-family="Helvetica,sans-Serif" font-size="10.00">~ AddChannel()</text>
<text text-anchor="start" x="484" y="-742.5" font-family="Helvetica,sans-Serif" font-size="10.00">~ OnCycleTick()</text>
<text text-anchor="start" x="484" y="-731.5" font-family="Helvetica,sans-Serif" font-size="10.00">~ SetCalcSection()</text>
<text text-anchor="start" x="484" y="-720.5" font-family="Helvetica,sans-Serif" font-size="10.00">~ SetDBValue()</text>
<text text-anchor="start" x="484" y="-709.5" font-family="Helvetica,sans-Serif" font-size="10.00">~ SetDisplayValue()</text>
</g>
<!-- Node3 -->
<g id="node3" class="node"><title>Node3</title>
<g id="a_node3"><a xlink:href="../../d2/dd7/classppm__java_1_1frontend_1_1gui_1_1lineargauge_1_1_t_g_u_i_linear_gauge___surrogate.html" target="_top" xlink:title="The UI controller. ">
<polygon fill="white" stroke="black" points="343.5,-486.5 343.5,-653.5 498.5,-653.5 498.5,-486.5 343.5,-486.5"/>
<text text-anchor="middle" x="421" y="-641.5" font-family="Helvetica,sans-Serif" font-size="10.00">TGUILinearGauge_Surrogate</text>
<polyline fill="none" stroke="black" points="343.5,-634.5 498.5,-634.5 "/>
<text text-anchor="start" x="351.5" y="-622.5" font-family="Helvetica,sans-Serif" font-size="10.00">&#45; gkLvlClip</text>
<text text-anchor="start" x="351.5" y="-611.5" font-family="Helvetica,sans-Serif" font-size="10.00">&#45; gkLvlWarn</text>
<polyline fill="none" stroke="black" points="343.5,-604.5 498.5,-604.5 "/>
<text text-anchor="start" x="351.5" y="-592.5" font-family="Helvetica,sans-Serif" font-size="10.00">+ CreatePort_In()</text>
<text text-anchor="start" x="351.5" y="-581.5" font-family="Helvetica,sans-Serif" font-size="10.00">+ Start()</text>
<text text-anchor="start" x="351.5" y="-570.5" font-family="Helvetica,sans-Serif" font-size="10.00">+ StatsGet()</text>
<text text-anchor="start" x="351.5" y="-559.5" font-family="Helvetica,sans-Serif" font-size="10.00">+ Stop()</text>
<text text-anchor="start" x="351.5" y="-548.5" font-family="Helvetica,sans-Serif" font-size="10.00">+ CreateInstance()</text>
<text text-anchor="start" x="351.5" y="-537.5" font-family="Helvetica,sans-Serif" font-size="10.00">~ OnSigClip_Click()</text>
<text text-anchor="start" x="351.5" y="-526.5" font-family="Helvetica,sans-Serif" font-size="10.00">~ OnTerminate()</text>
<text text-anchor="start" x="351.5" y="-515.5" font-family="Helvetica,sans-Serif" font-size="10.00">~ SetLevel()</text>
<text text-anchor="start" x="351.5" y="-504.5" font-family="Helvetica,sans-Serif" font-size="10.00"># _Register()</text>
<text text-anchor="start" x="351.5" y="-493.5" font-family="Helvetica,sans-Serif" font-size="10.00">&#45; TGUILinearGauge_Surrogate()</text>
</a>
</g>
</g>
<!-- Node1&#45;&gt;Node3 -->
<g id="edge21" class="edge"><title>Node1&#45;&gt;Node3</title>
<path fill="none" stroke="#404040" d="M489.888,-702.431C485.353,-696.324 480.997,-690.135 477,-684 472.921,-677.74 468.935,-671.14 465.089,-664.404"/>
<polygon fill="none" stroke="#404040" points="464.991,-664.226 458.582,-660.921 459.168,-653.734 465.577,-657.039 464.991,-664.226"/>
<text text-anchor="middle" x="491" y="-675.5" font-family="Helvetica,sans-Serif" font-size="10.00"> &#45;fStat</text>
</g>
<!-- Node2 -->
<g id="node2" class="node"><title>Node2</title>
<g id="a_node2"><a xlink:href="../../d7/d5a/interfaceppm__java_1_1typelib_1_1_i_stats.html" target="_top" xlink:title="Interface for a statistics record. ">
<polygon fill="white" stroke="black" points="339,-951.5 339,-1008.5 425,-1008.5 425,-951.5 339,-951.5"/>
<text text-anchor="middle" x="382" y="-996.5" font-family="Helvetica,sans-Serif" font-size="10.00">IStats</text>
<polyline fill="none" stroke="black" points="339,-989.5 425,-989.5 "/>
<text text-anchor="middle" x="382" y="-977.5" font-family="Helvetica,sans-Serif" font-size="10.00"> </text>
<polyline fill="none" stroke="black" points="339,-970.5 425,-970.5 "/>
<text text-anchor="start" x="347" y="-958.5" font-family="Helvetica,sans-Serif" font-size="10.00">+ GetDumpStr()</text>
</a>
</g>
</g>
<!-- Node2&#45;&gt;Node1 -->
<g id="edge1" class="edge"><title>Node2&#45;&gt;Node1</title>
<path fill="none" stroke="midnightblue" d="M402.513,-942.505C411.488,-927.59 422.569,-910.478 434,-896 446.946,-879.604 461.865,-863.005 476.645,-847.597"/>
<polygon fill="none" stroke="midnightblue" points="399.292,-941.075 397.213,-951.463 405.317,-944.639 399.292,-941.075"/>
</g>
<!-- Node3&#45;&gt;Node1 -->
<g id="edge2" class="edge"><title>Node3&#45;&gt;Node1</title>
<path fill="none" stroke="#404040" d="M496.597,-653.741C501.001,-659.767 505.184,-665.883 509,-672 512.78,-678.058 516.368,-684.506 519.741,-691.104"/>
<polygon fill="none" stroke="#404040" points="519.946,-691.522 526.172,-695.159 525.21,-702.305 518.983,-698.669 519.946,-691.522"/>
<text text-anchor="middle" x="531.5" y="-675.5" font-family="Helvetica,sans-Serif" font-size="10.00"> &#45;fHost</text>
</g>
<!-- Node3&#45;&gt;Node3 -->
<g id="edge22" class="edge"><title>Node3&#45;&gt;Node3</title>
<path fill="none" stroke="#404040" d="M498.531,-587.965C509.018,-584.953 516,-578.965 516,-570 516,-564.817 513.666,-560.629 509.671,-557.436"/>
<polygon fill="none" stroke="#404040" points="509.329,-557.27 502.185,-558.252 498.531,-552.035 505.675,-551.054 509.329,-557.27"/>
<text text-anchor="middle" x="531" y="-567.5" font-family="Helvetica,sans-Serif" font-size="10.00"> &#45;gGUI</text>
</g>
<!-- Node12 -->
<g id="node12" class="node"><title>Node12</title>
<g id="a_node12"><a xlink:href="../../d1/dd6/classppm__java_1_1frontend_1_1gui_1_1lineargauge_1_1_t_g_u_i_linear_gauge___wnd_p_p_m.html" target="_top" xlink:title="The PPM UI. ">
<polygon fill="white" stroke="black" points="160,-270.5 160,-415.5 318,-415.5 318,-270.5 160,-270.5"/>
<text text-anchor="middle" x="239" y="-403.5" font-family="Helvetica,sans-Serif" font-size="10.00">TGUILinearGauge_WndPPM</text>
<polyline fill="none" stroke="black" points="160,-396.5 318,-396.5 "/>
<text text-anchor="start" x="168" y="-384.5" font-family="Helvetica,sans-Serif" font-size="10.00">&#45; gkIChanL</text>
<text text-anchor="start" x="168" y="-373.5" font-family="Helvetica,sans-Serif" font-size="10.00">&#45; gkIChanR</text>
<text text-anchor="start" x="168" y="-362.5" font-family="Helvetica,sans-Serif" font-size="10.00">&#45; serialVersionUID</text>
<polyline fill="none" stroke="black" points="160,-355.5 318,-355.5 "/>
<text text-anchor="start" x="168" y="-343.5" font-family="Helvetica,sans-Serif" font-size="10.00">+ TGUILinearGauge_WndPPM()</text>
<text text-anchor="start" x="168" y="-332.5" font-family="Helvetica,sans-Serif" font-size="10.00">+ ClippingSet()</text>
<text text-anchor="start" x="168" y="-321.5" font-family="Helvetica,sans-Serif" font-size="10.00">+ SetLevel()</text>
<text text-anchor="start" x="168" y="-310.5" font-family="Helvetica,sans-Serif" font-size="10.00">+ Terminate()</text>
<text text-anchor="start" x="168" y="-299.5" font-family="Helvetica,sans-Serif" font-size="10.00">~ _SetClipping()</text>
<text text-anchor="start" x="168" y="-288.5" font-family="Helvetica,sans-Serif" font-size="10.00">&#45; _OnWindowClose()</text>
<text text-anchor="start" x="168" y="-277.5" font-family="Helvetica,sans-Serif" font-size="10.00">&#45; initComponents()</text>
</a>
</g>
</g>
<!-- Node3&#45;&gt;Node12 -->
<g id="edge13" class="edge"><title>Node3&#45;&gt;Node12</title>
<path fill="none" stroke="#404040" d="M366.702,-486.366C354.193,-468.678 340.563,-450.393 327,-434 324.493,-430.969 321.903,-427.92 319.254,-424.869"/>
<polygon fill="none" stroke="#404040" points="319.116,-424.713 312.143,-422.875 311.158,-415.732 318.131,-417.57 319.116,-424.713"/>
<text text-anchor="middle" x="379.5" y="-448.5" font-family="Helvetica,sans-Serif" font-size="10.00"> &#45;fConnector</text>
</g>
<!-- Node4 -->
<g id="node4" class="node"><title>Node4</title>
<g id="a_node4"><a xlink:href="../../da/d04/classppm__java_1_1typelib_1_1_v_frontend.html" target="_top" xlink:title="Base class for a front end. ">
<polygon fill="white" stroke="black" points="177,-735.5 177,-814.5 277,-814.5 277,-735.5 177,-735.5"/>
<text text-anchor="middle" x="227" y="-802.5" font-family="Helvetica,sans-Serif" font-size="10.00">VFrontend</text>
<polyline fill="none" stroke="black" points="177,-795.5 277,-795.5 "/>
<text text-anchor="middle" x="227" y="-783.5" font-family="Helvetica,sans-Serif" font-size="10.00"> </text>
<polyline fill="none" stroke="black" points="177,-776.5 277,-776.5 "/>
<text text-anchor="start" x="185" y="-764.5" font-family="Helvetica,sans-Serif" font-size="10.00">+ VFrontend()</text>
<text text-anchor="start" x="185" y="-753.5" font-family="Helvetica,sans-Serif" font-size="10.00">+ CreatePort_Out()</text>
<text text-anchor="start" x="185" y="-742.5" font-family="Helvetica,sans-Serif" font-size="10.00"># _OnTerminate()</text>
</a>
</g>
</g>
<!-- Node4&#45;&gt;Node3 -->
<g id="edge3" class="edge"><title>Node4&#45;&gt;Node3</title>
<path fill="none" stroke="midnightblue" d="M263.888,-727.391C271.053,-718.799 278.63,-710.015 286,-702 304.015,-682.407 324.242,-662.012 343.447,-643.311"/>
<polygon fill="none" stroke="midnightblue" points="261.109,-725.26 257.442,-735.2 266.507,-729.716 261.109,-725.26"/>
</g>
<!-- Node5 -->
<g id="node5" class="node"><title>Node5</title>
<g id="a_node5"><a xlink:href="../../d5/d6a/classppm__java_1_1typelib_1_1_v_audio_processor.html" target="_top" xlink:title="Base class for all modules processing audio samples. ">
<polygon fill="white" stroke="black" points="173.5,-896.5 173.5,-1063.5 280.5,-1063.5 280.5,-896.5 173.5,-896.5"/>
<text text-anchor="middle" x="227" y="-1051.5" font-family="Helvetica,sans-Serif" font-size="10.00">VAudioProcessor</text>
<polyline fill="none" stroke="black" points="173.5,-1044.5 280.5,-1044.5 "/>
<text text-anchor="middle" x="227" y="-1032.5" font-family="Helvetica,sans-Serif" font-size="10.00"> </text>
<polyline fill="none" stroke="black" points="173.5,-1025.5 280.5,-1025.5 "/>
<text text-anchor="start" x="181.5" y="-1013.5" font-family="Helvetica,sans-Serif" font-size="10.00">+ VAudioProcessor()</text>
<text text-anchor="start" x="181.5" y="-1002.5" font-family="Helvetica,sans-Serif" font-size="10.00">+ CreatePort_In()</text>
<text text-anchor="start" x="181.5" y="-991.5" font-family="Helvetica,sans-Serif" font-size="10.00">+ CreatePort_Out()</text>
<text text-anchor="start" x="181.5" y="-980.5" font-family="Helvetica,sans-Serif" font-size="10.00">+ GetNumPortsIn()</text>
<text text-anchor="start" x="181.5" y="-969.5" font-family="Helvetica,sans-Serif" font-size="10.00">+ GetNumPortsOut()</text>
<text text-anchor="start" x="181.5" y="-958.5" font-family="Helvetica,sans-Serif" font-size="10.00">+ GetPortIn()</text>
<text text-anchor="start" x="181.5" y="-947.5" font-family="Helvetica,sans-Serif" font-size="10.00">+ GetPortIn()</text>
<text text-anchor="start" x="181.5" y="-936.5" font-family="Helvetica,sans-Serif" font-size="10.00">+ GetPortOut()</text>
<text text-anchor="start" x="181.5" y="-925.5" font-family="Helvetica,sans-Serif" font-size="10.00">+ GetPortOut()</text>
<text text-anchor="start" x="181.5" y="-914.5" font-family="Helvetica,sans-Serif" font-size="10.00"># AddPortIn()</text>
<text text-anchor="start" x="181.5" y="-903.5" font-family="Helvetica,sans-Serif" font-size="10.00"># AddPortOut()</text>
</a>
</g>
</g>
<!-- Node5&#45;&gt;Node4 -->
<g id="edge4" class="edge"><title>Node5&#45;&gt;Node4</title>
<path fill="none" stroke="midnightblue" d="M227,-886.407C227,-861.095 227,-835.04 227,-814.601"/>
<polygon fill="none" stroke="midnightblue" points="223.5,-886.432 227,-896.432 230.5,-886.432 223.5,-886.432"/>
</g>
<!-- Node6 -->
<g id="node6" class="node"><title>Node6</title>
<g id="a_node6"><a xlink:href="../../d1/db3/classppm__java_1_1typelib_1_1_v_audio_object.html" target="_top" xlink:title="Base class for all browseable audio objects. ">
<polygon fill="white" stroke="black" points="42,-1118.5 42,-1175.5 134,-1175.5 134,-1118.5 42,-1118.5"/>
<text text-anchor="middle" x="88" y="-1163.5" font-family="Helvetica,sans-Serif" font-size="10.00">VAudioObject</text>
<polyline fill="none" stroke="black" points="42,-1156.5 134,-1156.5 "/>
<text text-anchor="middle" x="88" y="-1144.5" font-family="Helvetica,sans-Serif" font-size="10.00"> </text>
<polyline fill="none" stroke="black" points="42,-1137.5 134,-1137.5 "/>
<text text-anchor="start" x="50" y="-1125.5" font-family="Helvetica,sans-Serif" font-size="10.00">+ VAudioObject()</text>
</a>
</g>
</g>
<!-- Node6&#45;&gt;Node5 -->
<g id="edge5" class="edge"><title>Node6&#45;&gt;Node5</title>
<path fill="none" stroke="midnightblue" d="M117.909,-1110.5C134.063,-1091.32 154.498,-1067.06 173.303,-1044.74"/>
<polygon fill="none" stroke="midnightblue" points="115.032,-1108.48 111.265,-1118.38 120.385,-1112.99 115.032,-1108.48"/>
</g>
<!-- Node7 -->
<g id="node7" class="node"><title>Node7</title>
<g id="a_node7"><a xlink:href="../../de/dd1/classppm__java_1_1typelib_1_1_v_browseable.html" target="_top" xlink:title="Base class for all browseable objects. ">
<polygon fill="white" stroke="black" points="43.5,-1220.5 43.5,-1299.5 132.5,-1299.5 132.5,-1220.5 43.5,-1220.5"/>
<text text-anchor="middle" x="88" y="-1287.5" font-family="Helvetica,sans-Serif" font-size="10.00">VBrowseable</text>
<polyline fill="none" stroke="black" points="43.5,-1280.5 132.5,-1280.5 "/>
<text text-anchor="start" x="51.5" y="-1268.5" font-family="Helvetica,sans-Serif" font-size="10.00">&#45; fID</text>
<polyline fill="none" stroke="black" points="43.5,-1261.5 132.5,-1261.5 "/>
<text text-anchor="start" x="51.5" y="-1249.5" font-family="Helvetica,sans-Serif" font-size="10.00">+ VBrowseable()</text>
<text text-anchor="start" x="51.5" y="-1238.5" font-family="Helvetica,sans-Serif" font-size="10.00">+ GetID()</text>
<text text-anchor="start" x="51.5" y="-1227.5" font-family="Helvetica,sans-Serif" font-size="10.00"># _Register()</text>
</a>
</g>
</g>
<!-- Node7&#45;&gt;Node6 -->
<g id="edge6" class="edge"><title>Node7&#45;&gt;Node6</title>
<path fill="none" stroke="midnightblue" d="M88,-1210.23C88,-1198.36 88,-1186.08 88,-1175.6"/>
<polygon fill="none" stroke="midnightblue" points="84.5001,-1210.49 88,-1220.49 91.5001,-1210.49 84.5001,-1210.49"/>
</g>
<!-- Node8 -->
<g id="node8" class="node"><title>Node8</title>
<polygon fill="white" stroke="#bfbfbf" points="152,-1113 152,-1181 302,-1181 302,-1113 152,-1113"/>
<text text-anchor="start" x="160" y="-1169" font-family="Helvetica,sans-Serif" font-size="10.00">TArrayMap&lt; ppm_java.typelib.</text>
<text text-anchor="middle" x="227" y="-1158" font-family="Helvetica,sans-Serif" font-size="10.00">VAudioPort_Output &gt;</text>
<polyline fill="none" stroke="#bfbfbf" points="152,-1151 302,-1151 "/>
<text text-anchor="middle" x="227" y="-1139" font-family="Helvetica,sans-Serif" font-size="10.00"> </text>
<polyline fill="none" stroke="#bfbfbf" points="152,-1132 302,-1132 "/>
<text text-anchor="middle" x="227" y="-1120" font-family="Helvetica,sans-Serif" font-size="10.00"> </text>
</g>
<!-- Node8&#45;&gt;Node5 -->
<g id="edge7" class="edge"><title>Node8&#45;&gt;Node5</title>
<path fill="none" stroke="#404040" d="M227,-1112.61C227,-1101.72 227,-1089.04 227,-1075.93"/>
<polygon fill="none" stroke="#404040" points="227,-1075.81 223,-1069.81 227,-1063.81 231,-1069.81 227,-1075.81"/>
<text text-anchor="middle" x="251.5" y="-1085.5" font-family="Helvetica,sans-Serif" font-size="10.00"> &#45;fPortsOut</text>
</g>
<!-- Node9 -->
<g id="node9" class="node"><title>Node9</title>
<polygon fill="white" stroke="#bfbfbf" points="320,-1113 320,-1181 470,-1181 470,-1113 320,-1113"/>
<text text-anchor="start" x="328" y="-1169" font-family="Helvetica,sans-Serif" font-size="10.00">TArrayMap&lt; ppm_java.typelib.</text>
<text text-anchor="middle" x="395" y="-1158" font-family="Helvetica,sans-Serif" font-size="10.00">VAudioPort_Input &gt;</text>
<polyline fill="none" stroke="#bfbfbf" points="320,-1151 470,-1151 "/>
<text text-anchor="middle" x="395" y="-1139" font-family="Helvetica,sans-Serif" font-size="10.00"> </text>
<polyline fill="none" stroke="#bfbfbf" points="320,-1132 470,-1132 "/>
<text text-anchor="middle" x="395" y="-1120" font-family="Helvetica,sans-Serif" font-size="10.00"> </text>
</g>
<!-- Node9&#45;&gt;Node5 -->
<g id="edge8" class="edge"><title>Node9&#45;&gt;Node5</title>
<path fill="none" stroke="#404040" d="M361.003,-1112.61C340.509,-1092.48 313.771,-1066.22 289.575,-1042.46"/>
<polygon fill="none" stroke="#404040" points="289.353,-1042.24 282.269,-1040.89 280.792,-1033.83 287.875,-1035.18 289.353,-1042.24"/>
<text text-anchor="middle" x="361.5" y="-1085.5" font-family="Helvetica,sans-Serif" font-size="10.00"> &#45;fPortsIn</text>
</g>
<!-- Node10 -->
<g id="node10" class="node"><title>Node10</title>
<g id="a_node10"><a xlink:href="../../db/d44/interfaceppm__java_1_1typelib_1_1_i_controllable.html" target="_top" xlink:title="A module or construct which can receive some low level control commands (start/stop etc...">
<polygon fill="white" stroke="black" points="295.5,-741 295.5,-809 366.5,-809 366.5,-741 295.5,-741"/>
<text text-anchor="middle" x="331" y="-797" font-family="Helvetica,sans-Serif" font-size="10.00">IControllable</text>
<polyline fill="none" stroke="black" points="295.5,-790 366.5,-790 "/>
<text text-anchor="middle" x="331" y="-778" font-family="Helvetica,sans-Serif" font-size="10.00"> </text>
<polyline fill="none" stroke="black" points="295.5,-771 366.5,-771 "/>
<text text-anchor="start" x="303.5" y="-759" font-family="Helvetica,sans-Serif" font-size="10.00">+ Start()</text>
<text text-anchor="start" x="303.5" y="-748" font-family="Helvetica,sans-Serif" font-size="10.00">+ Stop()</text>
</a>
</g>
</g>
<!-- Node10&#45;&gt;Node3 -->
<g id="edge9" class="edge"><title>Node10&#45;&gt;Node3</title>
<path fill="none" stroke="midnightblue" d="M349.785,-731.629C359.814,-709.008 372.511,-680.37 384.397,-653.56"/>
<polygon fill="none" stroke="midnightblue" points="346.514,-730.372 345.66,-740.933 352.913,-733.209 346.514,-730.372"/>
</g>
<!-- Node11 -->
<g id="node11" class="node"><title>Node11</title>
<g id="a_node11"><a xlink:href="../../dc/dc0/interfaceppm__java_1_1typelib_1_1_i_stat_enabled.html" target="_top" xlink:title="Interface for an object that supports runtime statistics. ">
<polygon fill="white" stroke="black" points="384.5,-746.5 384.5,-803.5 457.5,-803.5 457.5,-746.5 384.5,-746.5"/>
<text text-anchor="middle" x="421" y="-791.5" font-family="Helvetica,sans-Serif" font-size="10.00">IStatEnabled</text>
<polyline fill="none" stroke="black" points="384.5,-784.5 457.5,-784.5 "/>
<text text-anchor="middle" x="421" y="-772.5" font-family="Helvetica,sans-Serif" font-size="10.00"> </text>
<polyline fill="none" stroke="black" points="384.5,-765.5 457.5,-765.5 "/>
<text text-anchor="start" x="392.5" y="-753.5" font-family="Helvetica,sans-Serif" font-size="10.00">+ StatsGet()</text>
</a>
</g>
</g>
<!-- Node11&#45;&gt;Node3 -->
<g id="edge10" class="edge"><title>Node11&#45;&gt;Node3</title>
<path fill="none" stroke="midnightblue" d="M421,-736.09C421,-712.874 421,-682.226 421,-653.646"/>
<polygon fill="none" stroke="midnightblue" points="417.5,-736.199 421,-746.199 424.5,-736.199 417.5,-736.199"/>
</g>
<!-- Node12&#45;&gt;Node3 -->
<g id="edge11" class="edge"><title>Node12&#45;&gt;Node3</title>
<path fill="none" stroke="#404040" d="M318.381,-363.858C354.881,-377.329 394.897,-399.222 417,-434 424.664,-446.059 428.906,-460.027 430.921,-474.311"/>
<polygon fill="none" stroke="#404040" points="430.931,-474.407 435.504,-479.983 432.116,-486.348 427.543,-480.773 430.931,-474.407"/>
<text text-anchor="middle" x="444" y="-448.5" font-family="Helvetica,sans-Serif" font-size="10.00"> &#45;fGUI</text>
</g>
<!-- Node14 -->
<g id="node14" class="node"><title>Node14</title>
<g id="a_node14"><a xlink:href="../../d4/dcb/classppm__java_1_1frontend_1_1gui_1_1lineargauge_1_1_t_g_u_i_linear_gauge___timer_clipping.html" target="_top" xlink:title="A monostable timer for a clipping LED on our PPM GUI. ">
<polygon fill="white" stroke="black" points="52,-0.5 52,-211.5 228,-211.5 228,-0.5 52,-0.5"/>
<text text-anchor="middle" x="140" y="-199.5" font-family="Helvetica,sans-Serif" font-size="10.00">TGUILinearGauge_TimerClipping</text>
<polyline fill="none" stroke="black" points="52,-192.5 228,-192.5 "/>
<text text-anchor="start" x="60" y="-180.5" font-family="Helvetica,sans-Serif" font-size="10.00">&#45; fChannel</text>
<text text-anchor="start" x="60" y="-169.5" font-family="Helvetica,sans-Serif" font-size="10.00">&#45; fState</text>
<text text-anchor="start" x="60" y="-158.5" font-family="Helvetica,sans-Serif" font-size="10.00">&#45; fTLast</text>
<text text-anchor="start" x="60" y="-147.5" font-family="Helvetica,sans-Serif" font-size="10.00">&#45; gkIntervalLoop</text>
<text text-anchor="start" x="60" y="-136.5" font-family="Helvetica,sans-Serif" font-size="10.00">&#45; gkIntervalWait</text>
<text text-anchor="start" x="60" y="-125.5" font-family="Helvetica,sans-Serif" font-size="10.00">&#45; gkStateClear</text>
<text text-anchor="start" x="60" y="-114.5" font-family="Helvetica,sans-Serif" font-size="10.00">&#45; gkStateErr</text>
<text text-anchor="start" x="60" y="-103.5" font-family="Helvetica,sans-Serif" font-size="10.00">&#45; gkStateTerm</text>
<text text-anchor="start" x="60" y="-92.5" font-family="Helvetica,sans-Serif" font-size="10.00">&#45; gkStateWarn</text>
<polyline fill="none" stroke="black" points="52,-85.5 228,-85.5 "/>
<text text-anchor="start" x="60" y="-73.5" font-family="Helvetica,sans-Serif" font-size="10.00">+ TGUILinearGauge_TimerClipping()</text>
<text text-anchor="start" x="60" y="-62.5" font-family="Helvetica,sans-Serif" font-size="10.00">+ run()</text>
<text text-anchor="start" x="60" y="-51.5" font-family="Helvetica,sans-Serif" font-size="10.00">+ SetClip()</text>
<text text-anchor="start" x="60" y="-40.5" font-family="Helvetica,sans-Serif" font-size="10.00">+ Terminate()</text>
<text text-anchor="start" x="60" y="-29.5" font-family="Helvetica,sans-Serif" font-size="10.00">&#45; _DoTransition()</text>
<text text-anchor="start" x="60" y="-18.5" font-family="Helvetica,sans-Serif" font-size="10.00">&#45; _SetLED()</text>
<text text-anchor="start" x="60" y="-7.5" font-family="Helvetica,sans-Serif" font-size="10.00">&#45; _TryReset()</text>
</a>
</g>
</g>
<!-- Node12&#45;&gt;Node14 -->
<g id="edge17" class="edge"><title>Node12&#45;&gt;Node14</title>
<path fill="none" stroke="#404040" d="M187.356,-270.293C183.943,-264.242 180.769,-258.102 178,-252 173.865,-242.887 170.115,-233.241 166.727,-223.426"/>
<polygon fill="none" stroke="#404040" points="166.669,-223.248 160.993,-218.8 162.916,-211.85 168.591,-216.298 166.669,-223.248"/>
<text text-anchor="middle" x="193.5" y="-238.5" font-family="Helvetica,sans-Serif" font-size="10.00"> &#45;fHost</text>
</g>
<!-- Node13 -->
<g id="node13" class="node"><title>Node13</title>
<polygon fill="white" stroke="#bfbfbf" points="8,-541.5 8,-598.5 58,-598.5 58,-541.5 8,-541.5"/>
<text text-anchor="middle" x="33" y="-586.5" font-family="Helvetica,sans-Serif" font-size="10.00">JFrame</text>
<polyline fill="none" stroke="#bfbfbf" points="8,-579.5 58,-579.5 "/>
<text text-anchor="middle" x="33" y="-567.5" font-family="Helvetica,sans-Serif" font-size="10.00"> </text>
<polyline fill="none" stroke="#bfbfbf" points="8,-560.5 58,-560.5 "/>
<text text-anchor="middle" x="33" y="-548.5" font-family="Helvetica,sans-Serif" font-size="10.00"> </text>
</g>
<!-- Node13&#45;&gt;Node12 -->
<g id="edge12" class="edge"><title>Node13&#45;&gt;Node12</title>
<path fill="none" stroke="midnightblue" d="M44.0178,-531.627C49.5029,-516.609 57.1094,-499.656 67,-486 87.8969,-457.148 100.606,-456.776 128,-434 131.863,-430.788 144.394,-420.599 159.721,-408.169"/>
<polygon fill="none" stroke="midnightblue" points="40.6808,-530.567 40.7169,-541.162 47.2957,-532.857 40.6808,-530.567"/>
</g>
<!-- Node14&#45;&gt;Node12 -->
<g id="edge14" class="edge"><title>Node14&#45;&gt;Node12</title>
<path fill="none" stroke="#404040" d="M204.903,-211.596C207.821,-217.733 210.548,-223.894 213,-230 216.649,-239.087 219.854,-248.804 222.652,-258.575"/>
<polygon fill="none" stroke="#404040" points="222.739,-258.897 228.163,-263.648 225.864,-270.483 220.44,-265.732 222.739,-258.897"/>
<text text-anchor="middle" x="241" y="-244" font-family="Helvetica,sans-Serif" font-size="10.00"> &#45;fTimerL</text>
<text text-anchor="middle" x="241" y="-233" font-family="Helvetica,sans-Serif" font-size="10.00">&#45;fTimerR</text>
</g>
<!-- Node15 -->
<g id="node15" class="node"><title>Node15</title>
<polygon fill="white" stroke="#bfbfbf" points="-0.5,-314.5 -0.5,-371.5 46.5,-371.5 46.5,-314.5 -0.5,-314.5"/>
<text text-anchor="middle" x="23" y="-359.5" font-family="Helvetica,sans-Serif" font-size="10.00">Thread</text>
<polyline fill="none" stroke="#bfbfbf" points="-0.5,-352.5 46.5,-352.5 "/>
<text text-anchor="middle" x="23" y="-340.5" font-family="Helvetica,sans-Serif" font-size="10.00"> </text>
<polyline fill="none" stroke="#bfbfbf" points="-0.5,-333.5 46.5,-333.5 "/>
<text text-anchor="middle" x="23" y="-321.5" font-family="Helvetica,sans-Serif" font-size="10.00"> </text>
</g>
<!-- Node15&#45;&gt;Node14 -->
<g id="edge15" class="edge"><title>Node15&#45;&gt;Node14</title>
<path fill="none" stroke="midnightblue" d="M38.8095,-305.238C43.8386,-293.872 49.5212,-281.358 55,-270 64.1517,-251.028 74.2343,-231.004 84.1595,-211.732"/>
<polygon fill="none" stroke="midnightblue" points="35.5743,-303.9 34.7576,-314.464 41.9834,-306.715 35.5743,-303.9"/>
</g>
<!-- Node16 -->
<g id="node16" class="node"><title>Node16</title>
<polygon fill="white" stroke="#bfbfbf" points="64.5,-314.5 64.5,-371.5 141.5,-371.5 141.5,-314.5 64.5,-314.5"/>
<text text-anchor="middle" x="103" y="-359.5" font-family="Helvetica,sans-Serif" font-size="10.00">AtomicInteger</text>
<polyline fill="none" stroke="#bfbfbf" points="64.5,-352.5 141.5,-352.5 "/>
<text text-anchor="middle" x="103" y="-340.5" font-family="Helvetica,sans-Serif" font-size="10.00"> </text>
<polyline fill="none" stroke="#bfbfbf" points="64.5,-333.5 141.5,-333.5 "/>
<text text-anchor="middle" x="103" y="-321.5" font-family="Helvetica,sans-Serif" font-size="10.00"> </text>
</g>
<!-- Node16&#45;&gt;Node14 -->
<g id="edge16" class="edge"><title>Node16&#45;&gt;Node14</title>
<path fill="none" stroke="#404040" d="M103.373,-314.239C104.005,-291.486 105.668,-258.507 110,-230 110.312,-227.946 110.642,-225.876 110.988,-223.793"/>
<polygon fill="none" stroke="#404040" points="111.027,-223.577 108.143,-216.968 113.135,-211.764 116.019,-218.373 111.027,-223.577"/>
<text text-anchor="middle" x="133" y="-238.5" font-family="Helvetica,sans-Serif" font-size="10.00"> &#45;fRequest</text>
</g>
<!-- Node17 -->
<g id="node17" class="node"><title>Node17</title>
<polygon fill="white" stroke="#bfbfbf" points="76,-541.5 76,-598.5 158,-598.5 158,-541.5 76,-541.5"/>
<text text-anchor="middle" x="117" y="-586.5" font-family="Helvetica,sans-Serif" font-size="10.00">LinearBargraph</text>
<polyline fill="none" stroke="#bfbfbf" points="76,-579.5 158,-579.5 "/>
<text text-anchor="middle" x="117" y="-567.5" font-family="Helvetica,sans-Serif" font-size="10.00"> </text>
<polyline fill="none" stroke="#bfbfbf" points="76,-560.5 158,-560.5 "/>
<text text-anchor="middle" x="117" y="-548.5" font-family="Helvetica,sans-Serif" font-size="10.00"> </text>
</g>
<!-- Node17&#45;&gt;Node12 -->
<g id="edge18" class="edge"><title>Node17&#45;&gt;Node12</title>
<path fill="none" stroke="#404040" d="M117.954,-541.482C119.99,-512.972 126.212,-467.921 145,-434 147.305,-429.839 149.866,-425.753 152.627,-421.759"/>
<polygon fill="none" stroke="#404040" points="152.703,-421.656 153.075,-414.455 159.865,-412.028 159.494,-419.229 152.703,-421.656"/>
<text text-anchor="middle" x="166" y="-454" font-family="Helvetica,sans-Serif" font-size="10.00"> &#45;fMeterR</text>
<text text-anchor="middle" x="166" y="-443" font-family="Helvetica,sans-Serif" font-size="10.00">&#45;fMeterL</text>
</g>
<!-- Node18 -->
<g id="node18" class="node"><title>Node18</title>
<polygon fill="white" stroke="#bfbfbf" points="176,-541.5 176,-598.5 232,-598.5 232,-541.5 176,-541.5"/>
<text text-anchor="middle" x="204" y="-586.5" font-family="Helvetica,sans-Serif" font-size="10.00">LedColor</text>
<polyline fill="none" stroke="#bfbfbf" points="176,-579.5 232,-579.5 "/>
<text text-anchor="middle" x="204" y="-567.5" font-family="Helvetica,sans-Serif" font-size="10.00"> </text>
<polyline fill="none" stroke="#bfbfbf" points="176,-560.5 232,-560.5 "/>
<text text-anchor="middle" x="204" y="-548.5" font-family="Helvetica,sans-Serif" font-size="10.00"> </text>
</g>
<!-- Node18&#45;&gt;Node12 -->
<g id="edge19" class="edge"><title>Node18&#45;&gt;Node12</title>
<path fill="none" stroke="#404040" d="M197.528,-541.474C192.127,-513.924 186.555,-470.502 195,-434 195.529,-431.712 196.125,-429.416 196.779,-427.118"/>
<polygon fill="none" stroke="#404040" points="196.797,-427.063 194.839,-420.122 200.493,-415.646 202.45,-422.586 196.797,-427.063"/>
<text text-anchor="middle" x="228.5" y="-459.5" font-family="Helvetica,sans-Serif" font-size="10.00"> &#45;kColorNormal</text>
<text text-anchor="middle" x="228.5" y="-448.5" font-family="Helvetica,sans-Serif" font-size="10.00">&#45;kColorWarn</text>
<text text-anchor="middle" x="228.5" y="-437.5" font-family="Helvetica,sans-Serif" font-size="10.00">&#45;kColorClip</text>
</g>
<!-- Node19 -->
<g id="node19" class="node"><title>Node19</title>
<polygon fill="white" stroke="#bfbfbf" points="260.5,-541.5 260.5,-598.5 307.5,-598.5 307.5,-541.5 260.5,-541.5"/>
<text text-anchor="middle" x="284" y="-586.5" font-family="Helvetica,sans-Serif" font-size="10.00">JPanel</text>
<polyline fill="none" stroke="#bfbfbf" points="260.5,-579.5 307.5,-579.5 "/>
<text text-anchor="middle" x="284" y="-567.5" font-family="Helvetica,sans-Serif" font-size="10.00"> </text>
<polyline fill="none" stroke="#bfbfbf" points="260.5,-560.5 307.5,-560.5 "/>
<text text-anchor="middle" x="284" y="-548.5" font-family="Helvetica,sans-Serif" font-size="10.00"> </text>
</g>
<!-- Node19&#45;&gt;Node12 -->
<g id="edge20" class="edge"><title>Node19&#45;&gt;Node12</title>
<path fill="none" stroke="#404040" d="M280.242,-541.461C276.336,-514.086 269.718,-470.96 262,-434 261.55,-431.844 261.082,-429.662 260.6,-427.463"/>
<polygon fill="none" stroke="#404040" points="260.561,-427.291 255.332,-422.326 257.905,-415.589 263.134,-420.555 260.561,-427.291"/>
<text text-anchor="middle" x="296" y="-454" font-family="Helvetica,sans-Serif" font-size="10.00"> &#45;fPnlMeterL</text>
<text text-anchor="middle" x="296" y="-443" font-family="Helvetica,sans-Serif" font-size="10.00">&#45;fPnlMeterR</text>
</g>
<!-- Node20 -->
<g id="node20" class="node"><title>Node20</title>
<polygon fill="white" stroke="#bfbfbf" points="443.5,-946 443.5,-1014 660.5,-1014 660.5,-946 443.5,-946"/>
<text text-anchor="start" x="451.5" y="-1002" font-family="Helvetica,sans-Serif" font-size="10.00">ArrayList&lt; ppm_java.frontend.gui.lineargauge.</text>
<text text-anchor="middle" x="552" y="-991" font-family="Helvetica,sans-Serif" font-size="10.00">TGUILinearGauge_Surrogate_Stats_Record &gt;</text>
<polyline fill="none" stroke="#bfbfbf" points="443.5,-984 660.5,-984 "/>
<text text-anchor="middle" x="552" y="-972" font-family="Helvetica,sans-Serif" font-size="10.00"> </text>
<polyline fill="none" stroke="#bfbfbf" points="443.5,-965 660.5,-965 "/>
<text text-anchor="middle" x="552" y="-953" font-family="Helvetica,sans-Serif" font-size="10.00"> </text>
</g>
<!-- Node20&#45;&gt;Node1 -->
<g id="edge23" class="edge"><title>Node20&#45;&gt;Node1</title>
<path fill="none" stroke="#404040" d="M552,-945.933C552,-922.629 552,-890.317 552,-860.121"/>
<polygon fill="none" stroke="#404040" points="552,-859.789 548,-853.789 552,-847.789 556,-853.789 552,-859.789"/>
<text text-anchor="middle" x="586.5" y="-869.5" font-family="Helvetica,sans-Serif" font-size="10.00"> &#45;fStatChannels</text>
</g>
<!-- Node21 -->
<g id="node21" class="node"><title>Node21</title>
<polygon fill="white" stroke="#bfbfbf" points="679,-951.5 679,-1008.5 747,-1008.5 747,-951.5 679,-951.5"/>
<text text-anchor="middle" x="713" y="-996.5" font-family="Helvetica,sans-Serif" font-size="10.00">AtomicLong</text>
<polyline fill="none" stroke="#bfbfbf" points="679,-989.5 747,-989.5 "/>
<text text-anchor="middle" x="713" y="-977.5" font-family="Helvetica,sans-Serif" font-size="10.00"> </text>
<polyline fill="none" stroke="#bfbfbf" points="679,-970.5 747,-970.5 "/>
<text text-anchor="middle" x="713" y="-958.5" font-family="Helvetica,sans-Serif" font-size="10.00"> </text>
</g>
<!-- Node21&#45;&gt;Node1 -->
<g id="edge24" class="edge"><title>Node21&#45;&gt;Node1</title>
<path fill="none" stroke="#404040" d="M700.778,-951.306C692.815,-934.592 681.589,-913.262 669,-896 659.274,-882.663 648.113,-869.344 636.63,-856.69"/>
<polygon fill="none" stroke="#404040" points="636.375,-856.414 629.365,-854.724 628.228,-847.603 635.239,-849.293 636.375,-856.414"/>
<text text-anchor="middle" x="680.5" y="-869.5" font-family="Helvetica,sans-Serif" font-size="10.00"> &#45;fTimeCycle</text>
</g>
</g>
</svg>
        <g id="navigator" transform="translate(0 0)" fill="#404254">
                <rect fill="#f2f5e9" fill-opacity="0.5" stroke="#606060" stroke-width=".5" x="0" y="0" width="60" height="60"/>
                <use id="zoomplus" xlink:href="#zoomPlus" x="17" y="9" onmousedown="handleZoom(evt,'in')"/>
                <use id="zoomminus" xlink:href="#zoomMin" x="42" y="9" onmousedown="handleZoom(evt,'out')"/>
                <use id="reset" xlink:href="#resetDef" x="30" y="36" onmousedown="handleReset()"/>
                <g id="arrowUp" xlink:href="#dirArrow" transform="translate(30 24)" onmousedown="handlePan(0,-1)">
                  <use xlink:href="#rim" fill="#404040">
                        <set attributeName="fill" to="#808080" begin="arrowUp.mouseover" end="arrowUp.mouseout"/>
                  </use>
                  <path fill="none" stroke="white" stroke-width="1.5" d="M0,-3.0v7 M-2.5,-0.5L0,-3.0L2.5,-0.5"/>
                </g>
                <g id="arrowRight" xlink:href="#dirArrow" transform="rotate(90) translate(36 -43)" onmousedown="handlePan(1,0)">
                  <use xlink:href="#rim" fill="#404040">
                        <set attributeName="fill" to="#808080" begin="arrowRight.mouseover" end="arrowRight.mouseout"/>
                  </use>
                  <path fill="none" stroke="white" stroke-width="1.5" d="M0,-3.0v7 M-2.5,-0.5L0,-3.0L2.5,-0.5"/>
                </g>
                <g id="arrowDown" xlink:href="#dirArrow" transform="rotate(180) translate(-30 -48)" onmousedown="handlePan(0,1)">
                  <use xlink:href="#rim" fill="#404040">
                        <set attributeName="fill" to="#808080" begin="arrowDown.mouseover" end="arrowDown.mouseout"/>
                  </use>
                  <path fill="none" stroke="white" stroke-width="1.5" d="M0,-3.0v7 M-2.5,-0.5L0,-3.0L2.5,-0.5"/>
                </g>
                <g id="arrowLeft" xlink:href="#dirArrow" transform="rotate(270) translate(-36 17)" onmousedown="handlePan(-1,0)">
                  <use xlink:href="#rim" fill="#404040">
                        <set attributeName="fill" to="#808080" begin="arrowLeft.mouseover" end="arrowLeft.mouseout"/>
                  </use>
                  <path fill="none" stroke="white" stroke-width="1.5" d="M0,-3.0v7 M-2.5,-0.5L0,-3.0L2.5,-0.5"/>
                </g>
        </g>
        <svg viewBox="0 0 15 15" width="100%" height="30px" preserveAspectRatio="xMaxYMin meet">
         <g id="arrow_out" transform="scale(0.3 0.3)">
          <a xlink:href="classppm__java_1_1frontend_1_1gui_1_1lineargauge_1_1_t_g_u_i_linear_gauge___surrogate___stats__coll__graph_org.svg" target="_base">
           <rect id="button" ry="5" rx="5" y="6" x="6" height="38" width="38"
                fill="#f2f5e9" fill-opacity="0.5" stroke="#606060" stroke-width="1.0"/>
           <path id="arrow"
             d="M 11.500037,31.436501 C 11.940474,20.09759 22.043105,11.32322 32.158766,21.979434 L 37.068811,17.246167 C 37.068811,17.246167 37.088388,32 37.088388,32 L 22.160133,31.978069 C 22.160133,31.978069 26.997745,27.140456 26.997745,27.140456 C 18.528582,18.264221 13.291696,25.230495 11.500037,31.436501 z"
             style="fill:#404040;"/>
          </a>
         </g>
        </svg>
</svg>
