<?xml version="1.0" encoding="UTF-8" standalone="no"?>
<!DOCTYPE svg PUBLIC "-//W3C//DTD SVG 1.1//EN"
 "http://www.w3.org/Graphics/SVG/1.1/DTD/svg11.dtd">
<!-- Generated by graphviz version 2.36.0 (20140111.2315)
 -->
<!-- Title: _GetType Pages: 1 -->
<!--zoomable 234 -->
<svg id="main" version="1.1" xmlns="http://www.w3.org/2000/svg" xmlns:xlink="http://www.w3.org/1999/xlink" xml:space="preserve" onload="init(evt)">
<style type="text/css"><![CDATA[
.edge:hover path { stroke: red; }
.edge:hover polygon { stroke: red; fill: red; }
]]></style>
<script type="text/javascript"><![CDATA[
var edges = document.getElementsByTagName('g');
if (edges && edges.length) {
  for (var i=0;i<edges.length;i++) {
    if (edges[i].id.substr(0,4)=='edge') {
      edges[i].setAttribute('class','edge');
    }
  }
}
]]></script>
        <defs>
                <circle id="rim" cx="0" cy="0" r="7"/>
                <circle id="rim2" cx="0" cy="0" r="3.5"/>
                <g id="zoomPlus">
                        <use xlink:href="#rim" fill="#404040">
                                <set attributeName="fill" to="#808080" begin="zoomplus.mouseover" end="zoomplus.mouseout"/>
                        </use>
                        <path d="M-4,0h8M0,-4v8" fill="none" stroke="white" stroke-width="1.5" pointer-events="none"/>
                </g>
                <g id="zoomMin">
                        <use xlink:href="#rim" fill="#404040">
                                <set attributeName="fill" to="#808080" begin="zoomminus.mouseover" end="zoomminus.mouseout"/>
                        </use>
                        <path d="M-4,0h8" fill="none" stroke="white" stroke-width="1.5" pointer-events="none"/>
                </g>
                <g id="dirArrow">
                        <path fill="none" stroke="white" stroke-width="1.5" d="M0,-3.0v7 M-2.5,-0.5L0,-3.0L2.5,-0.5"/>
                </g>
               <g id="resetDef">
                       <use xlink:href="#rim2" fill="#404040">
                               <set attributeName="fill" to="#808080" begin="reset.mouseover" end="reset.mouseout"/>
                       </use>
               </g>
        </defs>

<script type="text/javascript">
var viewWidth = 676;
var viewHeight = 234;
var sectionId = 'dynsection-3';
</script>
<script xlink:href="../../svgpan.js"/>
<svg id="graph" class="graph">
<g id="viewport">
<title>_GetType</title>
<polygon fill="white" stroke="none" points="-4,4 -4,-230 672,-230 672,4 -4,4"/>
<!-- Node1 -->
<g id="node1" class="node"><title>Node1</title>
<polygon fill="#bfbfbf" stroke="black" points="0.5,-78.5 0.5,-97.5 59.5,-97.5 59.5,-78.5 0.5,-78.5"/>
<text text-anchor="middle" x="30" y="-85.5" font-family="Helvetica,sans-Serif" font-size="10.00">_GetType</text>
</g>
<!-- Node2 -->
<g id="node2" class="node"><title>Node2</title>
<g id="a_node2"><a xlink:href="../../df/d02/classppm__java_1_1typelib_1_1_v_audio_port___output.html#aa5671c0a2de6cd655108cd9a7d530529" target="_top" xlink:title="Logs a message when a connection to a VAudioPort_Input is made. ">
<polygon fill="white" stroke="black" points="96.5,-73 96.5,-103 239.5,-103 239.5,-73 96.5,-73"/>
<text text-anchor="start" x="104.5" y="-91" font-family="Helvetica,sans-Serif" font-size="10.00">ppm_java.typelib.VAudioPort</text>
<text text-anchor="middle" x="168" y="-80" font-family="Helvetica,sans-Serif" font-size="10.00">_Output._SetTarget_Log</text>
</a>
</g>
</g>
<!-- Node1&#45;&gt;Node2 -->
<g id="edge1" class="edge"><title>Node1&#45;&gt;Node2</title>
<path fill="none" stroke="midnightblue" d="M69.7191,-88C78.1312,-88 87.2823,-88 96.4947,-88"/>
<polygon fill="midnightblue" stroke="midnightblue" points="69.5101,-84.5001 59.5101,-88 69.51,-91.5001 69.5101,-84.5001"/>
</g>
<!-- Node3 -->
<g id="node3" class="node"><title>Node3</title>
<g id="a_node3"><a xlink:href="../../df/d02/classppm__java_1_1typelib_1_1_v_audio_port___output.html#aecd2d710eb754f7813a595e8039c2682" target="_top" xlink:title="Worker method to establish a connection to an input port, called by the _Visit(...) method of the runtime chose subtype. ">
<polygon fill="white" stroke="black" points="293.5,-147 293.5,-177 436.5,-177 436.5,-147 293.5,-147"/>
<text text-anchor="start" x="301.5" y="-165" font-family="Helvetica,sans-Serif" font-size="10.00">ppm_java.typelib.VAudioPort</text>
<text text-anchor="middle" x="365" y="-154" font-family="Helvetica,sans-Serif" font-size="10.00">_Output._SetTarget</text>
</a>
</g>
</g>
<!-- Node2&#45;&gt;Node3 -->
<g id="edge2" class="edge"><title>Node2&#45;&gt;Node3</title>
<path fill="none" stroke="midnightblue" d="M208.033,-107.616C228.048,-117.225 252.996,-128.521 276,-137 285.687,-140.57 296.127,-143.939 306.315,-146.979"/>
<polygon fill="midnightblue" stroke="midnightblue" points="209.447,-104.412 198.922,-103.195 206.391,-110.71 209.447,-104.412"/>
</g>
<!-- Node7 -->
<g id="node7" class="node"><title>Node7</title>
<g id="a_node7"><a xlink:href="../../d7/d64/classppm__java_1_1typelib_1_1_v_audio_port___output___chunks___needs_buffer.html#a4db9e465a6c131476381a203c7d34928" target="_top" xlink:title="ppm_java.typelib.VAudioPort\l_Output_Chunks_NeedsBuffer._Visit">
<polygon fill="white" stroke="black" points="276,-98 276,-128 454,-128 454,-98 276,-98"/>
<text text-anchor="start" x="284" y="-116" font-family="Helvetica,sans-Serif" font-size="10.00">ppm_java.typelib.VAudioPort</text>
<text text-anchor="middle" x="365" y="-105" font-family="Helvetica,sans-Serif" font-size="10.00">_Output_Chunks_NeedsBuffer._Visit</text>
</a>
</g>
</g>
<!-- Node2&#45;&gt;Node7 -->
<g id="edge6" class="edge"><title>Node2&#45;&gt;Node7</title>
<path fill="none" stroke="midnightblue" d="M249.725,-98.3493C258.371,-99.4578 267.198,-100.59 275.924,-101.708"/>
<polygon fill="midnightblue" stroke="midnightblue" points="250.039,-94.8611 239.675,-97.0609 249.149,-101.804 250.039,-94.8611"/>
</g>
<!-- Node8 -->
<g id="node8" class="node"><title>Node8</title>
<g id="a_node8"><a xlink:href="../../d8/db2/classppm__java_1_1typelib_1_1_v_audio_port___output___chunks___no_buffer.html#a4a959b8bb15d4344725e8c38986b5797" target="_top" xlink:title="ppm_java.typelib.VAudioPort\l_Output_Chunks_NoBuffer._Visit">
<polygon fill="white" stroke="black" points="284,-49 284,-79 446,-79 446,-49 284,-49"/>
<text text-anchor="start" x="292" y="-67" font-family="Helvetica,sans-Serif" font-size="10.00">ppm_java.typelib.VAudioPort</text>
<text text-anchor="middle" x="365" y="-56" font-family="Helvetica,sans-Serif" font-size="10.00">_Output_Chunks_NoBuffer._Visit</text>
</a>
</g>
</g>
<!-- Node2&#45;&gt;Node8 -->
<g id="edge7" class="edge"><title>Node2&#45;&gt;Node8</title>
<path fill="none" stroke="midnightblue" d="M249.913,-78.0415C261.173,-76.6557 272.737,-75.2324 283.98,-73.8486"/>
<polygon fill="midnightblue" stroke="midnightblue" points="249.173,-74.6061 239.675,-79.3015 250.028,-81.5537 249.173,-74.6061"/>
</g>
<!-- Node9 -->
<g id="node9" class="node"><title>Node9</title>
<g id="a_node9"><a xlink:href="../../df/d90/classppm__java_1_1typelib_1_1_v_audio_port___output___samples.html#a4a959b8bb15d4344725e8c38986b5797" target="_top" xlink:title="ppm_java.typelib.VAudioPort\l_Output_Samples._Visit">
<polygon fill="white" stroke="black" points="293.5,-0 293.5,-30 436.5,-30 436.5,-0 293.5,-0"/>
<text text-anchor="start" x="301.5" y="-18" font-family="Helvetica,sans-Serif" font-size="10.00">ppm_java.typelib.VAudioPort</text>
<text text-anchor="middle" x="365" y="-7" font-family="Helvetica,sans-Serif" font-size="10.00">_Output_Samples._Visit</text>
</a>
</g>
</g>
<!-- Node2&#45;&gt;Node9 -->
<g id="edge8" class="edge"><title>Node2&#45;&gt;Node9</title>
<path fill="none" stroke="midnightblue" d="M207.564,-68.489C227.642,-58.8083 252.785,-47.4174 276,-39 284.784,-35.8152 294.193,-32.8236 303.472,-30.1053"/>
<polygon fill="midnightblue" stroke="midnightblue" points="205.889,-65.4122 198.435,-72.9412 208.957,-71.7039 205.889,-65.4122"/>
</g>
<!-- Node4 -->
<g id="node4" class="node"><title>Node4</title>
<g id="a_node4"><a xlink:href="../../d7/d64/classppm__java_1_1typelib_1_1_v_audio_port___output___chunks___needs_buffer.html#a4a959b8bb15d4344725e8c38986b5797" target="_top" xlink:title="ppm_java.typelib.VAudioPort\l_Output_Chunks_NeedsBuffer._Visit">
<polygon fill="white" stroke="black" points="490,-196 490,-226 668,-226 668,-196 490,-196"/>
<text text-anchor="start" x="498" y="-214" font-family="Helvetica,sans-Serif" font-size="10.00">ppm_java.typelib.VAudioPort</text>
<text text-anchor="middle" x="579" y="-203" font-family="Helvetica,sans-Serif" font-size="10.00">_Output_Chunks_NeedsBuffer._Visit</text>
</a>
</g>
</g>
<!-- Node3&#45;&gt;Node4 -->
<g id="edge3" class="edge"><title>Node3&#45;&gt;Node4</title>
<path fill="none" stroke="midnightblue" d="M440.983,-179.331C464.52,-184.771 490.295,-190.729 513.075,-195.994"/>
<polygon fill="midnightblue" stroke="midnightblue" points="441.579,-175.877 431.048,-177.035 440.003,-182.697 441.579,-175.877"/>
</g>
<!-- Node5 -->
<g id="node5" class="node"><title>Node5</title>
<g id="a_node5"><a xlink:href="../../d8/db2/classppm__java_1_1typelib_1_1_v_audio_port___output___chunks___no_buffer.html#a4db9e465a6c131476381a203c7d34928" target="_top" xlink:title="ppm_java.typelib.VAudioPort\l_Output_Chunks_NoBuffer._Visit">
<polygon fill="white" stroke="black" points="498,-147 498,-177 660,-177 660,-147 498,-147"/>
<text text-anchor="start" x="506" y="-165" font-family="Helvetica,sans-Serif" font-size="10.00">ppm_java.typelib.VAudioPort</text>
<text text-anchor="middle" x="579" y="-154" font-family="Helvetica,sans-Serif" font-size="10.00">_Output_Chunks_NoBuffer._Visit</text>
</a>
</g>
</g>
<!-- Node3&#45;&gt;Node5 -->
<g id="edge4" class="edge"><title>Node3&#45;&gt;Node5</title>
<path fill="none" stroke="midnightblue" d="M446.863,-162C463.566,-162 481.152,-162 497.831,-162"/>
<polygon fill="midnightblue" stroke="midnightblue" points="446.593,-158.5 436.593,-162 446.593,-165.5 446.593,-158.5"/>
</g>
<!-- Node6 -->
<g id="node6" class="node"><title>Node6</title>
<g id="a_node6"><a xlink:href="../../df/d90/classppm__java_1_1typelib_1_1_v_audio_port___output___samples.html#acaf514520a989e47382fbf808afc71a6" target="_top" xlink:title="ppm_java.typelib.VAudioPort\l_Output_Samples._Visit">
<polygon fill="white" stroke="black" points="507.5,-98 507.5,-128 650.5,-128 650.5,-98 507.5,-98"/>
<text text-anchor="start" x="515.5" y="-116" font-family="Helvetica,sans-Serif" font-size="10.00">ppm_java.typelib.VAudioPort</text>
<text text-anchor="middle" x="579" y="-105" font-family="Helvetica,sans-Serif" font-size="10.00">_Output_Samples._Visit</text>
</a>
</g>
</g>
<!-- Node3&#45;&gt;Node6 -->
<g id="edge5" class="edge"><title>Node3&#45;&gt;Node6</title>
<path fill="none" stroke="midnightblue" d="M440.983,-144.669C464.52,-139.229 490.295,-133.271 513.075,-128.006"/>
<polygon fill="midnightblue" stroke="midnightblue" points="440.003,-141.303 431.048,-146.965 441.579,-148.123 440.003,-141.303"/>
</g>
</g>
</svg>
        <g id="navigator" transform="translate(0 0)" fill="#404254">
                <rect fill="#f2f5e9" fill-opacity="0.5" stroke="#606060" stroke-width=".5" x="0" y="0" width="60" height="60"/>
                <use id="zoomplus" xlink:href="#zoomPlus" x="17" y="9" onmousedown="handleZoom(evt,'in')"/>
                <use id="zoomminus" xlink:href="#zoomMin" x="42" y="9" onmousedown="handleZoom(evt,'out')"/>
                <use id="reset" xlink:href="#resetDef" x="30" y="36" onmousedown="handleReset()"/>
                <g id="arrowUp" xlink:href="#dirArrow" transform="translate(30 24)" onmousedown="handlePan(0,-1)">
                  <use xlink:href="#rim" fill="#404040">
                        <set attributeName="fill" to="#808080" begin="arrowUp.mouseover" end="arrowUp.mouseout"/>
                  </use>
                  <path fill="none" stroke="white" stroke-width="1.5" d="M0,-3.0v7 M-2.5,-0.5L0,-3.0L2.5,-0.5"/>
                </g>
                <g id="arrowRight" xlink:href="#dirArrow" transform="rotate(90) translate(36 -43)" onmousedown="handlePan(1,0)">
                  <use xlink:href="#rim" fill="#404040">
                        <set attributeName="fill" to="#808080" begin="arrowRight.mouseover" end="arrowRight.mouseout"/>
                  </use>
                  <path fill="none" stroke="white" stroke-width="1.5" d="M0,-3.0v7 M-2.5,-0.5L0,-3.0L2.5,-0.5"/>
                </g>
                <g id="arrowDown" xlink:href="#dirArrow" transform="rotate(180) translate(-30 -48)" onmousedown="handlePan(0,1)">
                  <use xlink:href="#rim" fill="#404040">
                        <set attributeName="fill" to="#808080" begin="arrowDown.mouseover" end="arrowDown.mouseout"/>
                  </use>
                  <path fill="none" stroke="white" stroke-width="1.5" d="M0,-3.0v7 M-2.5,-0.5L0,-3.0L2.5,-0.5"/>
                </g>
                <g id="arrowLeft" xlink:href="#dirArrow" transform="rotate(270) translate(-36 17)" onmousedown="handlePan(-1,0)">
                  <use xlink:href="#rim" fill="#404040">
                        <set attributeName="fill" to="#808080" begin="arrowLeft.mouseover" end="arrowLeft.mouseout"/>
                  </use>
                  <path fill="none" stroke="white" stroke-width="1.5" d="M0,-3.0v7 M-2.5,-0.5L0,-3.0L2.5,-0.5"/>
                </g>
        </g>
        <svg viewBox="0 0 15 15" width="100%" height="30px" preserveAspectRatio="xMaxYMin meet">
         <g id="arrow_out" transform="scale(0.3 0.3)">
          <a xlink:href="classppm__java_1_1typelib_1_1_v_audio_port_a465123c9d4f9c58caa6fdf656324ef10_icgraph_org.svg" target="_base">
           <rect id="button" ry="5" rx="5" y="6" x="6" height="38" width="38"
                fill="#f2f5e9" fill-opacity="0.5" stroke="#606060" stroke-width="1.0"/>
           <path id="arrow"
             d="M 11.500037,31.436501 C 11.940474,20.09759 22.043105,11.32322 32.158766,21.979434 L 37.068811,17.246167 C 37.068811,17.246167 37.088388,32 37.088388,32 L 22.160133,31.978069 C 22.160133,31.978069 26.997745,27.140456 26.997745,27.140456 C 18.528582,18.264221 13.291696,25.230495 11.500037,31.436501 z"
             style="fill:#404040;"/>
          </a>
         </g>
        </svg>
</svg>
