<?xml version="1.0" encoding="UTF-8" standalone="no"?>
<!DOCTYPE svg PUBLIC "-//W3C//DTD SVG 1.1//EN"
 "http://www.w3.org/Graphics/SVG/1.1/DTD/svg11.dtd">
<!-- Generated by graphviz version 2.36.0 (20140111.2315)
 -->
<!-- Title: _GetHost Pages: 1 -->
<svg width="328pt" height="386pt"
 viewBox="0.00 0.00 328.00 386.00" xmlns="http://www.w3.org/2000/svg" xmlns:xlink="http://www.w3.org/1999/xlink">
<g id="graph0" class="graph" transform="scale(1 1) rotate(0) translate(4 382)">
<title>_GetHost</title>
<polygon fill="white" stroke="none" points="-4,4 -4,-382 324,-382 324,4 -4,4"/>
<!-- Node1 -->
<g id="node1" class="node"><title>Node1</title>
<polygon fill="#bfbfbf" stroke="black" points="0.5,-190.5 0.5,-209.5 59.5,-209.5 59.5,-190.5 0.5,-190.5"/>
<text text-anchor="middle" x="30" y="-197.5" font-family="Helvetica,sans-Serif" font-size="10.00">_GetHost</text>
</g>
<!-- Node2 -->
<g id="node2" class="node"><title>Node2</title>
<g id="a_node2"><a xlink:href="../../d8/d7e/classppm__java_1_1backend_1_1module_1_1peak__estimator_1_1_t_node_peak_estimator___endpoint___in.html#a3b20eb13e962f1250920f95831851896" target="_top" xlink:title="ppm_java.backend.module.peak\l_estimator.TNodePeakEstimator\l_Endpoint_In.ReceivePacket">
<polygon fill="white" stroke="black" points="128.5,-336.5 128.5,-377.5 287.5,-377.5 287.5,-336.5 128.5,-336.5"/>
<text text-anchor="start" x="136.5" y="-365.5" font-family="Helvetica,sans-Serif" font-size="10.00">ppm_java.backend.module.peak</text>
<text text-anchor="start" x="136.5" y="-354.5" font-family="Helvetica,sans-Serif" font-size="10.00">_estimator.TNodePeakEstimator</text>
<text text-anchor="middle" x="208" y="-343.5" font-family="Helvetica,sans-Serif" font-size="10.00">_Endpoint_In.ReceivePacket</text>
</a>
</g>
</g>
<!-- Node1&#45;&gt;Node2 -->
<g id="edge1" class="edge"><title>Node1&#45;&gt;Node2</title>
<path fill="none" stroke="midnightblue" d="M35.6131,-219.47C43.2769,-247.497 61.3389,-298.922 96,-327 105.462,-334.665 116.717,-340.38 128.373,-344.64"/>
<polygon fill="midnightblue" stroke="midnightblue" points="38.9705,-218.472 33.0963,-209.654 32.1899,-220.21 38.9705,-218.472"/>
</g>
<!-- Node3 -->
<g id="node3" class="node"><title>Node3</title>
<g id="a_node3"><a xlink:href="../../d9/d1a/classppm__java_1_1frontend_1_1gui_1_1lineargauge_1_1_t_g_u_i_linear_gauge___endpoint___in.html#a070991ed1ae6ed10f2f2026d9816f90a" target="_top" xlink:title="ppm_java.frontend.gui.lineargauge.\lTGUILinearGauge_Endpoint_In.ReceiveSample">
<polygon fill="white" stroke="black" points="96,-288 96,-318 320,-318 320,-288 96,-288"/>
<text text-anchor="start" x="104" y="-306" font-family="Helvetica,sans-Serif" font-size="10.00">ppm_java.frontend.gui.lineargauge.</text>
<text text-anchor="middle" x="208" y="-295" font-family="Helvetica,sans-Serif" font-size="10.00">TGUILinearGauge_Endpoint_In.ReceiveSample</text>
</a>
</g>
</g>
<!-- Node1&#45;&gt;Node3 -->
<g id="edge2" class="edge"><title>Node1&#45;&gt;Node3</title>
<path fill="none" stroke="midnightblue" d="M41.5265,-218.653C52.6915,-236.675 72.0178,-263.336 96,-278 102.32,-281.864 109.17,-285.133 116.259,-287.897"/>
<polygon fill="midnightblue" stroke="midnightblue" points="44.3015,-216.471 36.1856,-209.66 38.2831,-220.046 44.3015,-216.471"/>
</g>
<!-- Node4 -->
<g id="node4" class="node"><title>Node4</title>
<g id="a_node4"><a xlink:href="../../d7/d0d/classppm__java_1_1frontend_1_1gui_1_1needle_1_1_t_g_u_i_needle___endpoint___in.html#a070991ed1ae6ed10f2f2026d9816f90a" target="_top" xlink:title="ppm_java.frontend.gui.needle.\lTGUINeedle_Endpoint_In.ReceiveSample">
<polygon fill="white" stroke="black" points="108,-239 108,-269 308,-269 308,-239 108,-239"/>
<text text-anchor="start" x="116" y="-257" font-family="Helvetica,sans-Serif" font-size="10.00">ppm_java.frontend.gui.needle.</text>
<text text-anchor="middle" x="208" y="-246" font-family="Helvetica,sans-Serif" font-size="10.00">TGUINeedle_Endpoint_In.ReceiveSample</text>
</a>
</g>
</g>
<!-- Node1&#45;&gt;Node4 -->
<g id="edge3" class="edge"><title>Node1&#45;&gt;Node4</title>
<path fill="none" stroke="midnightblue" d="M59.0054,-213.956C70.2981,-219.195 83.5736,-224.874 96,-229 107.155,-232.704 119.12,-236.036 130.917,-238.97"/>
<polygon fill="midnightblue" stroke="midnightblue" points="60.1972,-210.647 49.663,-209.515 57.1919,-216.969 60.1972,-210.647"/>
</g>
<!-- Node5 -->
<g id="node5" class="node"><title>Node5</title>
<g id="a_node5"><a xlink:href="../../d4/d95/classppm__java_1_1backend_1_1module_1_1converter__db_1_1_t_node_converter_db___endpoint___in.html#a070991ed1ae6ed10f2f2026d9816f90a" target="_top" xlink:title="ppm_java.backend.module.converter\l_db.TNodeConverterDb_Endpoint\l_In.ReceiveSample">
<polygon fill="white" stroke="black" points="120,-179.5 120,-220.5 296,-220.5 296,-179.5 120,-179.5"/>
<text text-anchor="start" x="128" y="-208.5" font-family="Helvetica,sans-Serif" font-size="10.00">ppm_java.backend.module.converter</text>
<text text-anchor="start" x="128" y="-197.5" font-family="Helvetica,sans-Serif" font-size="10.00">_db.TNodeConverterDb_Endpoint</text>
<text text-anchor="middle" x="208" y="-186.5" font-family="Helvetica,sans-Serif" font-size="10.00">_In.ReceiveSample</text>
</a>
</g>
</g>
<!-- Node1&#45;&gt;Node5 -->
<g id="edge4" class="edge"><title>Node1&#45;&gt;Node5</title>
<path fill="none" stroke="midnightblue" d="M69.9325,-200C84.7434,-200 102.28,-200 119.775,-200"/>
<polygon fill="midnightblue" stroke="midnightblue" points="69.6692,-196.5 59.6691,-200 69.6691,-203.5 69.6692,-196.5"/>
</g>
<!-- Node6 -->
<g id="node6" class="node"><title>Node6</title>
<g id="a_node6"><a xlink:href="../../d9/d7c/classppm__java_1_1frontend_1_1console_1_1text_1_1_t_console___text_out___endpoint___in.html#a070991ed1ae6ed10f2f2026d9816f90a" target="_top" xlink:title="ppm_java.frontend.console.text.\lTConsole_TextOut_Endpoint\l_In.ReceiveSample">
<polygon fill="white" stroke="black" points="130,-119.5 130,-160.5 286,-160.5 286,-119.5 130,-119.5"/>
<text text-anchor="start" x="138" y="-148.5" font-family="Helvetica,sans-Serif" font-size="10.00">ppm_java.frontend.console.text.</text>
<text text-anchor="start" x="138" y="-137.5" font-family="Helvetica,sans-Serif" font-size="10.00">TConsole_TextOut_Endpoint</text>
<text text-anchor="middle" x="208" y="-126.5" font-family="Helvetica,sans-Serif" font-size="10.00">_In.ReceiveSample</text>
</a>
</g>
</g>
<!-- Node1&#45;&gt;Node6 -->
<g id="edge5" class="edge"><title>Node1&#45;&gt;Node6</title>
<path fill="none" stroke="midnightblue" d="M58.4634,-186.077C69.8894,-180.614 83.4044,-174.572 96,-170 106.79,-166.084 118.332,-162.413 129.745,-159.076"/>
<polygon fill="midnightblue" stroke="midnightblue" points="56.8777,-182.956 49.4229,-190.484 59.9454,-189.248 56.8777,-182.956"/>
</g>
<!-- Node7 -->
<g id="node7" class="node"><title>Node7</title>
<g id="a_node7"><a xlink:href="../../d5/d31/classppm__java_1_1frontend_1_1console_1_1lineargauge_1_1_t_console___linear_gauge___endpoint___in.html#a070991ed1ae6ed10f2f2026d9816f90a" target="_top" xlink:title="ppm_java.frontend.console.lineargauge.\lTConsole_LinearGauge_Endpoint\l_In.ReceiveSample">
<polygon fill="white" stroke="black" points="113.5,-59.5 113.5,-100.5 302.5,-100.5 302.5,-59.5 113.5,-59.5"/>
<text text-anchor="start" x="121.5" y="-88.5" font-family="Helvetica,sans-Serif" font-size="10.00">ppm_java.frontend.console.lineargauge.</text>
<text text-anchor="start" x="121.5" y="-77.5" font-family="Helvetica,sans-Serif" font-size="10.00">TConsole_LinearGauge_Endpoint</text>
<text text-anchor="middle" x="208" y="-66.5" font-family="Helvetica,sans-Serif" font-size="10.00">_In.ReceiveSample</text>
</a>
</g>
</g>
<!-- Node1&#45;&gt;Node7 -->
<g id="edge6" class="edge"><title>Node1&#45;&gt;Node7</title>
<path fill="none" stroke="midnightblue" d="M39.557,-181.461C49.9926,-160.912 69.5637,-128.267 96,-110 101.42,-106.255 107.286,-102.977 113.395,-100.108"/>
<polygon fill="midnightblue" stroke="midnightblue" points="36.4061,-179.937 35.1779,-190.46 42.7005,-183 36.4061,-179.937"/>
</g>
<!-- Node8 -->
<g id="node8" class="node"><title>Node8</title>
<g id="a_node8"><a xlink:href="../../dd/dee/classppm__java_1_1backend_1_1module_1_1integrator_1_1_t_node_integrator___p_p_m_ballistics___endpoint___in.html#a070991ed1ae6ed10f2f2026d9816f90a" target="_top" xlink:title="ppm_java.backend.module.integrator.\lTNodeIntegrator_PPMBallistics\l_Endpoint_In.ReceiveSample">
<polygon fill="white" stroke="black" points="118.5,0.5 118.5,-40.5 297.5,-40.5 297.5,0.5 118.5,0.5"/>
<text text-anchor="start" x="126.5" y="-28.5" font-family="Helvetica,sans-Serif" font-size="10.00">ppm_java.backend.module.integrator.</text>
<text text-anchor="start" x="126.5" y="-17.5" font-family="Helvetica,sans-Serif" font-size="10.00">TNodeIntegrator_PPMBallistics</text>
<text text-anchor="middle" x="208" y="-6.5" font-family="Helvetica,sans-Serif" font-size="10.00">_Endpoint_In.ReceiveSample</text>
</a>
</g>
</g>
<!-- Node1&#45;&gt;Node8 -->
<g id="edge7" class="edge"><title>Node1&#45;&gt;Node8</title>
<path fill="none" stroke="midnightblue" d="M33.959,-180.265C39.8378,-148.109 56.0537,-84.5387 96,-50 102.644,-44.2552 110.284,-39.599 118.38,-35.8268"/>
<polygon fill="midnightblue" stroke="midnightblue" points="30.49,-179.788 32.2887,-190.229 37.3937,-180.946 30.49,-179.788"/>
</g>
</g>
</svg>
