<?xml version="1.0" encoding="UTF-8" standalone="no"?>
<!DOCTYPE svg PUBLIC "-//W3C//DTD SVG 1.1//EN"
 "http://www.w3.org/Graphics/SVG/1.1/DTD/svg11.dtd">
<!-- Generated by graphviz version 2.36.0 (20140111.2315)
 -->
<!-- Title: _Visit Pages: 1 -->
<svg width="420pt" height="87pt"
 viewBox="0.00 0.00 420.00 87.00" xmlns="http://www.w3.org/2000/svg" xmlns:xlink="http://www.w3.org/1999/xlink">
<g id="graph0" class="graph" transform="scale(1 1) rotate(0) translate(4 83)">
<title>_Visit</title>
<polygon fill="white" stroke="none" points="-4,4 -4,-83 416,-83 416,4 -4,4"/>
<!-- Node1 -->
<g id="node1" class="node"><title>Node1</title>
<polygon fill="#bfbfbf" stroke="black" points="0.5,-29.5 0.5,-48.5 41.5,-48.5 41.5,-29.5 0.5,-29.5"/>
<text text-anchor="middle" x="21" y="-36.5" font-family="Helvetica,sans-Serif" font-size="10.00">_Visit</text>
</g>
<!-- Node2 -->
<g id="node2" class="node"><title>Node2</title>
<g id="a_node2"><a xlink:href="../../df/d02/classppm__java_1_1typelib_1_1_v_audio_port___output.html#aa5671c0a2de6cd655108cd9a7d530529" target="_top" xlink:title="Logs a message when a connection to a VAudioPort_Input is made. ">
<polygon fill="white" stroke="black" points="78.5,-24 78.5,-54 221.5,-54 221.5,-24 78.5,-24"/>
<text text-anchor="start" x="86.5" y="-42" font-family="Helvetica,sans-Serif" font-size="10.00">ppm_java.typelib.VAudioPort</text>
<text text-anchor="middle" x="150" y="-31" font-family="Helvetica,sans-Serif" font-size="10.00">_Output._SetTarget_Log</text>
</a>
</g>
</g>
<!-- Node1&#45;&gt;Node2 -->
<g id="edge1" class="edge"><title>Node1&#45;&gt;Node2</title>
<path fill="none" stroke="midnightblue" d="M41.5654,-39C49.1843,-39 58.4584,-39 68.331,-39"/>
<polygon fill="midnightblue" stroke="midnightblue" points="68.3642,-42.5001 78.3642,-39 68.3641,-35.5001 68.3642,-42.5001"/>
</g>
<!-- Node3 -->
<g id="node3" class="node"><title>Node3</title>
<g id="a_node3"><a xlink:href="../../de/dc9/classppm__java_1_1typelib_1_1_v_audio_port.html#a465123c9d4f9c58caa6fdf656324ef10" target="_top" xlink:title="Returns textual information of a concrete child&#39;s direct super type. ">
<polygon fill="white" stroke="black" points="262,-49 262,-79 408,-79 408,-49 262,-49"/>
<text text-anchor="start" x="270" y="-67" font-family="Helvetica,sans-Serif" font-size="10.00">ppm_java.typelib.VAudioPort.</text>
<text text-anchor="middle" x="335" y="-56" font-family="Helvetica,sans-Serif" font-size="10.00">_GetType</text>
</a>
</g>
</g>
<!-- Node2&#45;&gt;Node3 -->
<g id="edge2" class="edge"><title>Node2&#45;&gt;Node3</title>
<path fill="none" stroke="midnightblue" d="M221.753,-48.6657C231.634,-50.0156 241.857,-51.4122 251.926,-52.7877"/>
<polygon fill="midnightblue" stroke="midnightblue" points="251.543,-56.2678 261.925,-54.1537 252.491,-49.3323 251.543,-56.2678"/>
</g>
<!-- Node4 -->
<g id="node4" class="node"><title>Node4</title>
<g id="a_node4"><a xlink:href="../../de/dd1/classppm__java_1_1typelib_1_1_v_browseable.html#a04cbe3f0b5057d0eb582200dea602297" target="_top" xlink:title="ppm_java.typelib.VBrowseable.\lGetID">
<polygon fill="white" stroke="black" points="258,-0 258,-30 412,-30 412,-0 258,-0"/>
<text text-anchor="start" x="266" y="-18" font-family="Helvetica,sans-Serif" font-size="10.00">ppm_java.typelib.VBrowseable.</text>
<text text-anchor="middle" x="335" y="-7" font-family="Helvetica,sans-Serif" font-size="10.00">GetID</text>
</a>
</g>
</g>
<!-- Node2&#45;&gt;Node4 -->
<g id="edge3" class="edge"><title>Node2&#45;&gt;Node4</title>
<path fill="none" stroke="midnightblue" d="M221.753,-29.721C230.283,-28.6022 239.067,-27.4502 247.787,-26.3066"/>
<polygon fill="midnightblue" stroke="midnightblue" points="248.515,-29.7412 257.975,-24.9705 247.605,-22.8006 248.515,-29.7412"/>
</g>
</g>
</svg>
