<?xml version="1.0" encoding="UTF-8" standalone="no"?>
<!DOCTYPE svg PUBLIC "-//W3C//DTD SVG 1.1//EN"
 "http://www.w3.org/Graphics/SVG/1.1/DTD/svg11.dtd">
<!-- Generated by graphviz version 2.36.0 (20140111.2315)
 -->
<!-- Title: TGUILinearGauge_TimerClipping Pages: 1 -->
<!--zoomable 1082 -->
<svg id="main" version="1.1" xmlns="http://www.w3.org/2000/svg" xmlns:xlink="http://www.w3.org/1999/xlink" xml:space="preserve" onload="init(evt)">
<style type="text/css"><![CDATA[
.edge:hover path { stroke: red; }
.edge:hover polygon { stroke: red; fill: red; }
]]></style>
<script type="text/javascript"><![CDATA[
var edges = document.getElementsByTagName('g');
if (edges && edges.length) {
  for (var i=0;i<edges.length;i++) {
    if (edges[i].id.substr(0,4)=='edge') {
      edges[i].setAttribute('class','edge');
    }
  }
}
]]></script>
        <defs>
                <circle id="rim" cx="0" cy="0" r="7"/>
                <circle id="rim2" cx="0" cy="0" r="3.5"/>
                <g id="zoomPlus">
                        <use xlink:href="#rim" fill="#404040">
                                <set attributeName="fill" to="#808080" begin="zoomplus.mouseover" end="zoomplus.mouseout"/>
                        </use>
                        <path d="M-4,0h8M0,-4v8" fill="none" stroke="white" stroke-width="1.5" pointer-events="none"/>
                </g>
                <g id="zoomMin">
                        <use xlink:href="#rim" fill="#404040">
                                <set attributeName="fill" to="#808080" begin="zoomminus.mouseover" end="zoomminus.mouseout"/>
                        </use>
                        <path d="M-4,0h8" fill="none" stroke="white" stroke-width="1.5" pointer-events="none"/>
                </g>
                <g id="dirArrow">
                        <path fill="none" stroke="white" stroke-width="1.5" d="M0,-3.0v7 M-2.5,-0.5L0,-3.0L2.5,-0.5"/>
                </g>
               <g id="resetDef">
                       <use xlink:href="#rim2" fill="#404040">
                               <set attributeName="fill" to="#808080" begin="reset.mouseover" end="reset.mouseout"/>
                       </use>
               </g>
        </defs>

<script type="text/javascript">
var viewWidth = 931;
var viewHeight = 1082;
var sectionId = 'dynsection-1';
</script>
<script xlink:href="../../svgpan.js"/>
<svg id="graph" class="graph">
<g id="viewport">
<title>TGUILinearGauge_TimerClipping</title>
<polygon fill="white" stroke="none" points="-4,4 -4,-1078 927,-1078 927,4 -4,4"/>
<!-- Node1 -->
<g id="node1" class="node"><title>Node1</title>
<polygon fill="#bfbfbf" stroke="black" points="747,-626.5 747,-837.5 923,-837.5 923,-626.5 747,-626.5"/>
<text text-anchor="middle" x="835" y="-825.5" font-family="Helvetica,sans-Serif" font-size="10.00">TGUILinearGauge_TimerClipping</text>
<polyline fill="none" stroke="black" points="747,-818.5 923,-818.5 "/>
<text text-anchor="start" x="755" y="-806.5" font-family="Helvetica,sans-Serif" font-size="10.00">&#45; fChannel</text>
<text text-anchor="start" x="755" y="-795.5" font-family="Helvetica,sans-Serif" font-size="10.00">&#45; fState</text>
<text text-anchor="start" x="755" y="-784.5" font-family="Helvetica,sans-Serif" font-size="10.00">&#45; fTLast</text>
<text text-anchor="start" x="755" y="-773.5" font-family="Helvetica,sans-Serif" font-size="10.00">&#45; gkIntervalLoop</text>
<text text-anchor="start" x="755" y="-762.5" font-family="Helvetica,sans-Serif" font-size="10.00">&#45; gkIntervalWait</text>
<text text-anchor="start" x="755" y="-751.5" font-family="Helvetica,sans-Serif" font-size="10.00">&#45; gkStateClear</text>
<text text-anchor="start" x="755" y="-740.5" font-family="Helvetica,sans-Serif" font-size="10.00">&#45; gkStateErr</text>
<text text-anchor="start" x="755" y="-729.5" font-family="Helvetica,sans-Serif" font-size="10.00">&#45; gkStateTerm</text>
<text text-anchor="start" x="755" y="-718.5" font-family="Helvetica,sans-Serif" font-size="10.00">&#45; gkStateWarn</text>
<polyline fill="none" stroke="black" points="747,-711.5 923,-711.5 "/>
<text text-anchor="start" x="755" y="-699.5" font-family="Helvetica,sans-Serif" font-size="10.00">+ TGUILinearGauge_TimerClipping()</text>
<text text-anchor="start" x="755" y="-688.5" font-family="Helvetica,sans-Serif" font-size="10.00">+ run()</text>
<text text-anchor="start" x="755" y="-677.5" font-family="Helvetica,sans-Serif" font-size="10.00">+ SetClip()</text>
<text text-anchor="start" x="755" y="-666.5" font-family="Helvetica,sans-Serif" font-size="10.00">+ Terminate()</text>
<text text-anchor="start" x="755" y="-655.5" font-family="Helvetica,sans-Serif" font-size="10.00">&#45; _DoTransition()</text>
<text text-anchor="start" x="755" y="-644.5" font-family="Helvetica,sans-Serif" font-size="10.00">&#45; _SetLED()</text>
<text text-anchor="start" x="755" y="-633.5" font-family="Helvetica,sans-Serif" font-size="10.00">&#45; _TryReset()</text>
</g>
<!-- Node4 -->
<g id="node4" class="node"><title>Node4</title>
<g id="a_node4"><a xlink:href="../../d1/dd6/classppm__java_1_1frontend_1_1gui_1_1lineargauge_1_1_t_g_u_i_linear_gauge___wnd_p_p_m.html" target="_top" xlink:title="The PPM UI. ">
<polygon fill="white" stroke="black" points="561,-410.5 561,-555.5 719,-555.5 719,-410.5 561,-410.5"/>
<text text-anchor="middle" x="640" y="-543.5" font-family="Helvetica,sans-Serif" font-size="10.00">TGUILinearGauge_WndPPM</text>
<polyline fill="none" stroke="black" points="561,-536.5 719,-536.5 "/>
<text text-anchor="start" x="569" y="-524.5" font-family="Helvetica,sans-Serif" font-size="10.00">&#45; gkIChanL</text>
<text text-anchor="start" x="569" y="-513.5" font-family="Helvetica,sans-Serif" font-size="10.00">&#45; gkIChanR</text>
<text text-anchor="start" x="569" y="-502.5" font-family="Helvetica,sans-Serif" font-size="10.00">&#45; serialVersionUID</text>
<polyline fill="none" stroke="black" points="561,-495.5 719,-495.5 "/>
<text text-anchor="start" x="569" y="-483.5" font-family="Helvetica,sans-Serif" font-size="10.00">+ TGUILinearGauge_WndPPM()</text>
<text text-anchor="start" x="569" y="-472.5" font-family="Helvetica,sans-Serif" font-size="10.00">+ ClippingSet()</text>
<text text-anchor="start" x="569" y="-461.5" font-family="Helvetica,sans-Serif" font-size="10.00">+ SetLevel()</text>
<text text-anchor="start" x="569" y="-450.5" font-family="Helvetica,sans-Serif" font-size="10.00">+ Terminate()</text>
<text text-anchor="start" x="569" y="-439.5" font-family="Helvetica,sans-Serif" font-size="10.00">~ _SetClipping()</text>
<text text-anchor="start" x="569" y="-428.5" font-family="Helvetica,sans-Serif" font-size="10.00">&#45; _OnWindowClose()</text>
<text text-anchor="start" x="569" y="-417.5" font-family="Helvetica,sans-Serif" font-size="10.00">&#45; initComponents()</text>
</a>
</g>
</g>
<!-- Node1&#45;&gt;Node4 -->
<g id="edge21" class="edge"><title>Node1&#45;&gt;Node4</title>
<path fill="none" stroke="#404040" d="M780.161,-626.47C768.848,-608.279 756.294,-590.063 743,-574 738.231,-568.237 733.076,-562.53 727.702,-556.952"/>
<polygon fill="none" stroke="#404040" points="727.563,-556.813 720.496,-555.379 719.102,-548.304 726.169,-549.738 727.563,-556.813"/>
<text text-anchor="middle" x="786" y="-594" font-family="Helvetica,sans-Serif" font-size="10.00"> &#45;fTimerL</text>
<text text-anchor="middle" x="786" y="-583" font-family="Helvetica,sans-Serif" font-size="10.00">&#45;fTimerR</text>
</g>
<!-- Node2 -->
<g id="node2" class="node"><title>Node2</title>
<polygon fill="white" stroke="#bfbfbf" points="771.5,-892.5 771.5,-949.5 818.5,-949.5 818.5,-892.5 771.5,-892.5"/>
<text text-anchor="middle" x="795" y="-937.5" font-family="Helvetica,sans-Serif" font-size="10.00">Thread</text>
<polyline fill="none" stroke="#bfbfbf" points="771.5,-930.5 818.5,-930.5 "/>
<text text-anchor="middle" x="795" y="-918.5" font-family="Helvetica,sans-Serif" font-size="10.00"> </text>
<polyline fill="none" stroke="#bfbfbf" points="771.5,-911.5 818.5,-911.5 "/>
<text text-anchor="middle" x="795" y="-899.5" font-family="Helvetica,sans-Serif" font-size="10.00"> </text>
</g>
<!-- Node2&#45;&gt;Node1 -->
<g id="edge1" class="edge"><title>Node2&#45;&gt;Node1</title>
<path fill="none" stroke="midnightblue" d="M803.046,-882.384C805.863,-869.215 809.18,-853.71 812.591,-837.762"/>
<polygon fill="none" stroke="midnightblue" points="799.571,-881.897 800.902,-892.408 806.417,-883.361 799.571,-881.897"/>
</g>
<!-- Node3 -->
<g id="node3" class="node"><title>Node3</title>
<polygon fill="white" stroke="#bfbfbf" points="836.5,-892.5 836.5,-949.5 913.5,-949.5 913.5,-892.5 836.5,-892.5"/>
<text text-anchor="middle" x="875" y="-937.5" font-family="Helvetica,sans-Serif" font-size="10.00">AtomicInteger</text>
<polyline fill="none" stroke="#bfbfbf" points="836.5,-930.5 913.5,-930.5 "/>
<text text-anchor="middle" x="875" y="-918.5" font-family="Helvetica,sans-Serif" font-size="10.00"> </text>
<polyline fill="none" stroke="#bfbfbf" points="836.5,-911.5 913.5,-911.5 "/>
<text text-anchor="middle" x="875" y="-899.5" font-family="Helvetica,sans-Serif" font-size="10.00"> </text>
</g>
<!-- Node3&#45;&gt;Node1 -->
<g id="edge2" class="edge"><title>Node3&#45;&gt;Node1</title>
<path fill="none" stroke="#404040" d="M869.098,-892.408C866.552,-880.506 863.387,-865.707 860.018,-849.958"/>
<polygon fill="none" stroke="#404040" points="859.919,-849.497 854.753,-844.466 857.409,-837.762 862.576,-842.793 859.919,-849.497"/>
<text text-anchor="middle" x="886" y="-859.5" font-family="Helvetica,sans-Serif" font-size="10.00"> &#45;fRequest</text>
</g>
<!-- Node4&#45;&gt;Node1 -->
<g id="edge3" class="edge"><title>Node4&#45;&gt;Node1</title>
<path fill="none" stroke="#404040" d="M719.141,-504.969C755.116,-518.651 794.751,-540.397 818,-574 826.287,-585.977 831.867,-599.745 835.506,-614.044"/>
<polygon fill="none" stroke="#404040" points="835.588,-614.423 840.765,-619.442 838.123,-626.152 832.946,-621.133 835.588,-614.423"/>
<text text-anchor="middle" x="847.5" y="-588.5" font-family="Helvetica,sans-Serif" font-size="10.00"> &#45;fHost</text>
</g>
<!-- Node6 -->
<g id="node6" class="node"><title>Node6</title>
<g id="a_node6"><a xlink:href="../../d2/dd7/classppm__java_1_1frontend_1_1gui_1_1lineargauge_1_1_t_g_u_i_linear_gauge___surrogate.html" target="_top" xlink:title="The UI controller. ">
<polygon fill="white" stroke="black" points="428.5,-194.5 428.5,-361.5 583.5,-361.5 583.5,-194.5 428.5,-194.5"/>
<text text-anchor="middle" x="506" y="-349.5" font-family="Helvetica,sans-Serif" font-size="10.00">TGUILinearGauge_Surrogate</text>
<polyline fill="none" stroke="black" points="428.5,-342.5 583.5,-342.5 "/>
<text text-anchor="start" x="436.5" y="-330.5" font-family="Helvetica,sans-Serif" font-size="10.00">&#45; gkLvlClip</text>
<text text-anchor="start" x="436.5" y="-319.5" font-family="Helvetica,sans-Serif" font-size="10.00">&#45; gkLvlWarn</text>
<polyline fill="none" stroke="black" points="428.5,-312.5 583.5,-312.5 "/>
<text text-anchor="start" x="436.5" y="-300.5" font-family="Helvetica,sans-Serif" font-size="10.00">+ CreatePort_In()</text>
<text text-anchor="start" x="436.5" y="-289.5" font-family="Helvetica,sans-Serif" font-size="10.00">+ Start()</text>
<text text-anchor="start" x="436.5" y="-278.5" font-family="Helvetica,sans-Serif" font-size="10.00">+ StatsGet()</text>
<text text-anchor="start" x="436.5" y="-267.5" font-family="Helvetica,sans-Serif" font-size="10.00">+ Stop()</text>
<text text-anchor="start" x="436.5" y="-256.5" font-family="Helvetica,sans-Serif" font-size="10.00">+ CreateInstance()</text>
<text text-anchor="start" x="436.5" y="-245.5" font-family="Helvetica,sans-Serif" font-size="10.00">~ OnSigClip_Click()</text>
<text text-anchor="start" x="436.5" y="-234.5" font-family="Helvetica,sans-Serif" font-size="10.00">~ OnTerminate()</text>
<text text-anchor="start" x="436.5" y="-223.5" font-family="Helvetica,sans-Serif" font-size="10.00">~ SetLevel()</text>
<text text-anchor="start" x="436.5" y="-212.5" font-family="Helvetica,sans-Serif" font-size="10.00"># _Register()</text>
<text text-anchor="start" x="436.5" y="-201.5" font-family="Helvetica,sans-Serif" font-size="10.00">&#45; TGUILinearGauge_Surrogate()</text>
</a>
</g>
</g>
<!-- Node4&#45;&gt;Node6 -->
<g id="edge14" class="edge"><title>Node4&#45;&gt;Node6</title>
<path fill="none" stroke="#404040" d="M577.131,-410.413C572.519,-404.31 568.082,-398.127 564,-392 559.828,-385.738 555.737,-379.137 551.78,-372.399"/>
<polygon fill="none" stroke="#404040" points="551.636,-372.146 545.185,-368.922 545.681,-361.728 552.131,-364.952 551.636,-372.146"/>
<text text-anchor="middle" x="578" y="-383.5" font-family="Helvetica,sans-Serif" font-size="10.00"> &#45;fGUI</text>
</g>
<!-- Node5 -->
<g id="node5" class="node"><title>Node5</title>
<polygon fill="white" stroke="#bfbfbf" points="424,-703.5 424,-760.5 474,-760.5 474,-703.5 424,-703.5"/>
<text text-anchor="middle" x="449" y="-748.5" font-family="Helvetica,sans-Serif" font-size="10.00">JFrame</text>
<polyline fill="none" stroke="#bfbfbf" points="424,-741.5 474,-741.5 "/>
<text text-anchor="middle" x="449" y="-729.5" font-family="Helvetica,sans-Serif" font-size="10.00"> </text>
<polyline fill="none" stroke="#bfbfbf" points="424,-722.5 474,-722.5 "/>
<text text-anchor="middle" x="449" y="-710.5" font-family="Helvetica,sans-Serif" font-size="10.00"> </text>
</g>
<!-- Node5&#45;&gt;Node4 -->
<g id="edge4" class="edge"><title>Node5&#45;&gt;Node4</title>
<path fill="none" stroke="midnightblue" d="M456.105,-693.541C461.284,-672.508 469.76,-646.46 483,-626 494.581,-608.104 527.902,-577.271 560.884,-548.899"/>
<polygon fill="none" stroke="midnightblue" points="452.665,-692.885 453.822,-703.417 459.485,-694.462 452.665,-692.885"/>
</g>
<!-- Node6&#45;&gt;Node4 -->
<g id="edge5" class="edge"><title>Node6&#45;&gt;Node4</title>
<path fill="none" stroke="#404040" d="M583.29,-361.688C587.8,-367.727 592.086,-373.861 596,-380 599.852,-386.042 603.513,-392.479 606.957,-399.069"/>
<polygon fill="none" stroke="#404040" points="607.184,-399.525 613.443,-403.107 612.544,-410.261 606.285,-406.68 607.184,-399.525"/>
<text text-anchor="middle" x="630.5" y="-383.5" font-family="Helvetica,sans-Serif" font-size="10.00"> &#45;fConnector</text>
</g>
<!-- Node6&#45;&gt;Node6 -->
<g id="edge20" class="edge"><title>Node6&#45;&gt;Node6</title>
<path fill="none" stroke="#404040" d="M583.531,-295.965C594.018,-292.953 601,-286.965 601,-278 601,-272.817 598.666,-268.629 594.671,-265.436"/>
<polygon fill="none" stroke="#404040" points="594.329,-265.27 587.185,-266.252 583.531,-260.035 590.675,-259.054 594.329,-265.27"/>
<text text-anchor="middle" x="616" y="-275.5" font-family="Helvetica,sans-Serif" font-size="10.00"> &#45;gGUI</text>
</g>
<!-- Node15 -->
<g id="node15" class="node"><title>Node15</title>
<g id="a_node15"><a xlink:href="../../d2/dbc/classppm__java_1_1frontend_1_1gui_1_1lineargauge_1_1_t_g_u_i_linear_gauge___surrogate___stats.html" target="_top" xlink:title="Combined runtime statistics for all channels. ">
<polygon fill="white" stroke="black" points="297,-0.5 297,-145.5 449,-145.5 449,-0.5 297,-0.5"/>
<text text-anchor="start" x="305" y="-133.5" font-family="Helvetica,sans-Serif" font-size="10.00">TGUILinearGauge_Surrogate</text>
<text text-anchor="middle" x="373" y="-122.5" font-family="Helvetica,sans-Serif" font-size="10.00">_Stats</text>
<polyline fill="none" stroke="black" points="297,-115.5 449,-115.5 "/>
<text text-anchor="start" x="305" y="-103.5" font-family="Helvetica,sans-Serif" font-size="10.00">&#45; fT0</text>
<polyline fill="none" stroke="black" points="297,-96.5 449,-96.5 "/>
<text text-anchor="start" x="305" y="-84.5" font-family="Helvetica,sans-Serif" font-size="10.00">+ TGUILinearGauge_Surrogate</text>
<text text-anchor="start" x="305" y="-73.5" font-family="Helvetica,sans-Serif" font-size="10.00">_Stats()</text>
<text text-anchor="start" x="305" y="-62.5" font-family="Helvetica,sans-Serif" font-size="10.00">+ GetDumpStr()</text>
<text text-anchor="start" x="305" y="-51.5" font-family="Helvetica,sans-Serif" font-size="10.00">~ AddChannel()</text>
<text text-anchor="start" x="305" y="-40.5" font-family="Helvetica,sans-Serif" font-size="10.00">~ OnCycleTick()</text>
<text text-anchor="start" x="305" y="-29.5" font-family="Helvetica,sans-Serif" font-size="10.00">~ SetCalcSection()</text>
<text text-anchor="start" x="305" y="-18.5" font-family="Helvetica,sans-Serif" font-size="10.00">~ SetDBValue()</text>
<text text-anchor="start" x="305" y="-7.5" font-family="Helvetica,sans-Serif" font-size="10.00">~ SetDisplayValue()</text>
</a>
</g>
</g>
<!-- Node6&#45;&gt;Node15 -->
<g id="edge17" class="edge"><title>Node6&#45;&gt;Node15</title>
<path fill="none" stroke="#404040" d="M451.904,-194.432C443.562,-181.7 434.95,-168.555 426.619,-155.839"/>
<polygon fill="none" stroke="#404040" points="426.584,-155.786 419.95,-152.96 420.008,-145.749 426.642,-148.575 426.584,-155.786"/>
<text text-anchor="middle" x="455.5" y="-167.5" font-family="Helvetica,sans-Serif" font-size="10.00"> &#45;fHost</text>
</g>
<!-- Node7 -->
<g id="node7" class="node"><title>Node7</title>
<g id="a_node7"><a xlink:href="../../da/d04/classppm__java_1_1typelib_1_1_v_frontend.html" target="_top" xlink:title="Base class for a front end. ">
<polygon fill="white" stroke="black" points="262,-443.5 262,-522.5 362,-522.5 362,-443.5 262,-443.5"/>
<text text-anchor="middle" x="312" y="-510.5" font-family="Helvetica,sans-Serif" font-size="10.00">VFrontend</text>
<polyline fill="none" stroke="black" points="262,-503.5 362,-503.5 "/>
<text text-anchor="middle" x="312" y="-491.5" font-family="Helvetica,sans-Serif" font-size="10.00"> </text>
<polyline fill="none" stroke="black" points="262,-484.5 362,-484.5 "/>
<text text-anchor="start" x="270" y="-472.5" font-family="Helvetica,sans-Serif" font-size="10.00">+ VFrontend()</text>
<text text-anchor="start" x="270" y="-461.5" font-family="Helvetica,sans-Serif" font-size="10.00">+ CreatePort_Out()</text>
<text text-anchor="start" x="270" y="-450.5" font-family="Helvetica,sans-Serif" font-size="10.00"># _OnTerminate()</text>
</a>
</g>
</g>
<!-- Node7&#45;&gt;Node6 -->
<g id="edge6" class="edge"><title>Node7&#45;&gt;Node6</title>
<path fill="none" stroke="midnightblue" d="M348.888,-435.391C356.053,-426.799 363.63,-418.015 371,-410 389.015,-390.407 409.242,-370.012 428.447,-351.311"/>
<polygon fill="none" stroke="midnightblue" points="346.109,-433.26 342.442,-443.2 351.507,-437.716 346.109,-433.26"/>
</g>
<!-- Node8 -->
<g id="node8" class="node"><title>Node8</title>
<g id="a_node8"><a xlink:href="../../d5/d6a/classppm__java_1_1typelib_1_1_v_audio_processor.html" target="_top" xlink:title="Base class for all modules processing audio samples. ">
<polygon fill="white" stroke="black" points="258.5,-648.5 258.5,-815.5 365.5,-815.5 365.5,-648.5 258.5,-648.5"/>
<text text-anchor="middle" x="312" y="-803.5" font-family="Helvetica,sans-Serif" font-size="10.00">VAudioProcessor</text>
<polyline fill="none" stroke="black" points="258.5,-796.5 365.5,-796.5 "/>
<text text-anchor="middle" x="312" y="-784.5" font-family="Helvetica,sans-Serif" font-size="10.00"> </text>
<polyline fill="none" stroke="black" points="258.5,-777.5 365.5,-777.5 "/>
<text text-anchor="start" x="266.5" y="-765.5" font-family="Helvetica,sans-Serif" font-size="10.00">+ VAudioProcessor()</text>
<text text-anchor="start" x="266.5" y="-754.5" font-family="Helvetica,sans-Serif" font-size="10.00">+ CreatePort_In()</text>
<text text-anchor="start" x="266.5" y="-743.5" font-family="Helvetica,sans-Serif" font-size="10.00">+ CreatePort_Out()</text>
<text text-anchor="start" x="266.5" y="-732.5" font-family="Helvetica,sans-Serif" font-size="10.00">+ GetNumPortsIn()</text>
<text text-anchor="start" x="266.5" y="-721.5" font-family="Helvetica,sans-Serif" font-size="10.00">+ GetNumPortsOut()</text>
<text text-anchor="start" x="266.5" y="-710.5" font-family="Helvetica,sans-Serif" font-size="10.00">+ GetPortIn()</text>
<text text-anchor="start" x="266.5" y="-699.5" font-family="Helvetica,sans-Serif" font-size="10.00">+ GetPortIn()</text>
<text text-anchor="start" x="266.5" y="-688.5" font-family="Helvetica,sans-Serif" font-size="10.00">+ GetPortOut()</text>
<text text-anchor="start" x="266.5" y="-677.5" font-family="Helvetica,sans-Serif" font-size="10.00">+ GetPortOut()</text>
<text text-anchor="start" x="266.5" y="-666.5" font-family="Helvetica,sans-Serif" font-size="10.00"># AddPortIn()</text>
<text text-anchor="start" x="266.5" y="-655.5" font-family="Helvetica,sans-Serif" font-size="10.00"># AddPortOut()</text>
</a>
</g>
</g>
<!-- Node8&#45;&gt;Node7 -->
<g id="edge7" class="edge"><title>Node8&#45;&gt;Node7</title>
<path fill="none" stroke="midnightblue" d="M312,-638.328C312,-598.237 312,-553.515 312,-522.578"/>
<polygon fill="none" stroke="midnightblue" points="308.5,-638.409 312,-648.409 315.5,-638.409 308.5,-638.409"/>
</g>
<!-- Node9 -->
<g id="node9" class="node"><title>Node9</title>
<g id="a_node9"><a xlink:href="../../d1/db3/classppm__java_1_1typelib_1_1_v_audio_object.html" target="_top" xlink:title="Base class for all browseable audio objects. ">
<polygon fill="white" stroke="black" points="127,-892.5 127,-949.5 219,-949.5 219,-892.5 127,-892.5"/>
<text text-anchor="middle" x="173" y="-937.5" font-family="Helvetica,sans-Serif" font-size="10.00">VAudioObject</text>
<polyline fill="none" stroke="black" points="127,-930.5 219,-930.5 "/>
<text text-anchor="middle" x="173" y="-918.5" font-family="Helvetica,sans-Serif" font-size="10.00"> </text>
<polyline fill="none" stroke="black" points="127,-911.5 219,-911.5 "/>
<text text-anchor="start" x="135" y="-899.5" font-family="Helvetica,sans-Serif" font-size="10.00">+ VAudioObject()</text>
</a>
</g>
</g>
<!-- Node9&#45;&gt;Node8 -->
<g id="edge8" class="edge"><title>Node9&#45;&gt;Node8</title>
<path fill="none" stroke="midnightblue" d="M199.604,-884.209C216.23,-861.842 238.235,-832.238 258.365,-805.157"/>
<polygon fill="none" stroke="midnightblue" points="196.667,-882.294 193.51,-892.408 202.285,-886.47 196.667,-882.294"/>
</g>
<!-- Node10 -->
<g id="node10" class="node"><title>Node10</title>
<g id="a_node10"><a xlink:href="../../de/dd1/classppm__java_1_1typelib_1_1_v_browseable.html" target="_top" xlink:title="Base class for all browseable objects. ">
<polygon fill="white" stroke="black" points="128.5,-994.5 128.5,-1073.5 217.5,-1073.5 217.5,-994.5 128.5,-994.5"/>
<text text-anchor="middle" x="173" y="-1061.5" font-family="Helvetica,sans-Serif" font-size="10.00">VBrowseable</text>
<polyline fill="none" stroke="black" points="128.5,-1054.5 217.5,-1054.5 "/>
<text text-anchor="start" x="136.5" y="-1042.5" font-family="Helvetica,sans-Serif" font-size="10.00">&#45; fID</text>
<polyline fill="none" stroke="black" points="128.5,-1035.5 217.5,-1035.5 "/>
<text text-anchor="start" x="136.5" y="-1023.5" font-family="Helvetica,sans-Serif" font-size="10.00">+ VBrowseable()</text>
<text text-anchor="start" x="136.5" y="-1012.5" font-family="Helvetica,sans-Serif" font-size="10.00">+ GetID()</text>
<text text-anchor="start" x="136.5" y="-1001.5" font-family="Helvetica,sans-Serif" font-size="10.00"># _Register()</text>
</a>
</g>
</g>
<!-- Node10&#45;&gt;Node9 -->
<g id="edge9" class="edge"><title>Node10&#45;&gt;Node9</title>
<path fill="none" stroke="midnightblue" d="M173,-984.227C173,-972.364 173,-960.085 173,-949.601"/>
<polygon fill="none" stroke="midnightblue" points="169.5,-984.489 173,-994.489 176.5,-984.489 169.5,-984.489"/>
</g>
<!-- Node11 -->
<g id="node11" class="node"><title>Node11</title>
<polygon fill="white" stroke="#bfbfbf" points="237,-887 237,-955 387,-955 387,-887 237,-887"/>
<text text-anchor="start" x="245" y="-943" font-family="Helvetica,sans-Serif" font-size="10.00">TArrayMap&lt; ppm_java.typelib.</text>
<text text-anchor="middle" x="312" y="-932" font-family="Helvetica,sans-Serif" font-size="10.00">VAudioPort_Output &gt;</text>
<polyline fill="none" stroke="#bfbfbf" points="237,-925 387,-925 "/>
<text text-anchor="middle" x="312" y="-913" font-family="Helvetica,sans-Serif" font-size="10.00"> </text>
<polyline fill="none" stroke="#bfbfbf" points="237,-906 387,-906 "/>
<text text-anchor="middle" x="312" y="-894" font-family="Helvetica,sans-Serif" font-size="10.00"> </text>
</g>
<!-- Node11&#45;&gt;Node8 -->
<g id="edge10" class="edge"><title>Node11&#45;&gt;Node8</title>
<path fill="none" stroke="#404040" d="M312,-886.999C312,-870.355 312,-849.231 312,-828.002"/>
<polygon fill="none" stroke="#404040" points="312,-827.877 308,-821.877 312,-815.877 316,-821.877 312,-827.877"/>
<text text-anchor="middle" x="336.5" y="-859.5" font-family="Helvetica,sans-Serif" font-size="10.00"> &#45;fPortsOut</text>
</g>
<!-- Node12 -->
<g id="node12" class="node"><title>Node12</title>
<polygon fill="white" stroke="#bfbfbf" points="405,-887 405,-955 555,-955 555,-887 405,-887"/>
<text text-anchor="start" x="413" y="-943" font-family="Helvetica,sans-Serif" font-size="10.00">TArrayMap&lt; ppm_java.typelib.</text>
<text text-anchor="middle" x="480" y="-932" font-family="Helvetica,sans-Serif" font-size="10.00">VAudioPort_Input &gt;</text>
<polyline fill="none" stroke="#bfbfbf" points="405,-925 555,-925 "/>
<text text-anchor="middle" x="480" y="-913" font-family="Helvetica,sans-Serif" font-size="10.00"> </text>
<polyline fill="none" stroke="#bfbfbf" points="405,-906 555,-906 "/>
<text text-anchor="middle" x="480" y="-894" font-family="Helvetica,sans-Serif" font-size="10.00"> </text>
</g>
<!-- Node12&#45;&gt;Node8 -->
<g id="edge11" class="edge"><title>Node12&#45;&gt;Node8</title>
<path fill="none" stroke="#404040" d="M450.352,-886.999C429.272,-863.535 400.189,-831.163 374.126,-802.152"/>
<polygon fill="none" stroke="#404040" points="373.804,-801.794 366.819,-800.004 365.784,-792.867 372.77,-794.657 373.804,-801.794"/>
<text text-anchor="middle" x="451.5" y="-859.5" font-family="Helvetica,sans-Serif" font-size="10.00"> &#45;fPortsIn</text>
</g>
<!-- Node13 -->
<g id="node13" class="node"><title>Node13</title>
<g id="a_node13"><a xlink:href="../../db/d44/interfaceppm__java_1_1typelib_1_1_i_controllable.html" target="_top" xlink:title="A module or construct which can receive some low level control commands (start/stop etc...">
<polygon fill="white" stroke="black" points="380.5,-449 380.5,-517 451.5,-517 451.5,-449 380.5,-449"/>
<text text-anchor="middle" x="416" y="-505" font-family="Helvetica,sans-Serif" font-size="10.00">IControllable</text>
<polyline fill="none" stroke="black" points="380.5,-498 451.5,-498 "/>
<text text-anchor="middle" x="416" y="-486" font-family="Helvetica,sans-Serif" font-size="10.00"> </text>
<polyline fill="none" stroke="black" points="380.5,-479 451.5,-479 "/>
<text text-anchor="start" x="388.5" y="-467" font-family="Helvetica,sans-Serif" font-size="10.00">+ Start()</text>
<text text-anchor="start" x="388.5" y="-456" font-family="Helvetica,sans-Serif" font-size="10.00">+ Stop()</text>
</a>
</g>
</g>
<!-- Node13&#45;&gt;Node6 -->
<g id="edge12" class="edge"><title>Node13&#45;&gt;Node6</title>
<path fill="none" stroke="midnightblue" d="M434.785,-439.629C444.814,-417.008 457.511,-388.37 469.397,-361.56"/>
<polygon fill="none" stroke="midnightblue" points="431.514,-438.372 430.66,-448.933 437.913,-441.209 431.514,-438.372"/>
</g>
<!-- Node14 -->
<g id="node14" class="node"><title>Node14</title>
<g id="a_node14"><a xlink:href="../../dc/dc0/interfaceppm__java_1_1typelib_1_1_i_stat_enabled.html" target="_top" xlink:title="Interface for an object that supports runtime statistics. ">
<polygon fill="white" stroke="black" points="469.5,-454.5 469.5,-511.5 542.5,-511.5 542.5,-454.5 469.5,-454.5"/>
<text text-anchor="middle" x="506" y="-499.5" font-family="Helvetica,sans-Serif" font-size="10.00">IStatEnabled</text>
<polyline fill="none" stroke="black" points="469.5,-492.5 542.5,-492.5 "/>
<text text-anchor="middle" x="506" y="-480.5" font-family="Helvetica,sans-Serif" font-size="10.00"> </text>
<polyline fill="none" stroke="black" points="469.5,-473.5 542.5,-473.5 "/>
<text text-anchor="start" x="477.5" y="-461.5" font-family="Helvetica,sans-Serif" font-size="10.00">+ StatsGet()</text>
</a>
</g>
</g>
<!-- Node14&#45;&gt;Node6 -->
<g id="edge13" class="edge"><title>Node14&#45;&gt;Node6</title>
<path fill="none" stroke="midnightblue" d="M506,-444.09C506,-420.874 506,-390.226 506,-361.646"/>
<polygon fill="none" stroke="midnightblue" points="502.5,-444.199 506,-454.199 509.5,-444.199 502.5,-444.199"/>
</g>
<!-- Node15&#45;&gt;Node6 -->
<g id="edge15" class="edge"><title>Node15&#45;&gt;Node6</title>
<path fill="none" stroke="#404040" d="M449.123,-122.756C462.893,-134.721 475.784,-148.585 485,-164 488.456,-169.78 491.365,-176.001 493.812,-182.444"/>
<polygon fill="none" stroke="#404040" points="493.948,-182.851 499.637,-187.281 497.736,-194.237 492.046,-189.807 493.948,-182.851"/>
<text text-anchor="middle" x="505" y="-167.5" font-family="Helvetica,sans-Serif" font-size="10.00"> &#45;fStat</text>
</g>
<!-- Node16 -->
<g id="node16" class="node"><title>Node16</title>
<g id="a_node16"><a xlink:href="../../d7/d5a/interfaceppm__java_1_1typelib_1_1_i_stats.html" target="_top" xlink:title="Interface for a statistics record. ">
<polygon fill="white" stroke="black" points="0,-249.5 0,-306.5 86,-306.5 86,-249.5 0,-249.5"/>
<text text-anchor="middle" x="43" y="-294.5" font-family="Helvetica,sans-Serif" font-size="10.00">IStats</text>
<polyline fill="none" stroke="black" points="0,-287.5 86,-287.5 "/>
<text text-anchor="middle" x="43" y="-275.5" font-family="Helvetica,sans-Serif" font-size="10.00"> </text>
<polyline fill="none" stroke="black" points="0,-268.5 86,-268.5 "/>
<text text-anchor="start" x="8" y="-256.5" font-family="Helvetica,sans-Serif" font-size="10.00">+ GetDumpStr()</text>
</a>
</g>
</g>
<!-- Node16&#45;&gt;Node15 -->
<g id="edge16" class="edge"><title>Node16&#45;&gt;Node15</title>
<path fill="none" stroke="midnightblue" d="M59.7429,-240.241C68.4353,-224.368 80.3309,-206.591 95,-194 153.738,-143.584 236.88,-111.465 296.919,-93.2731"/>
<polygon fill="none" stroke="midnightblue" points="56.531,-238.831 54.9983,-249.314 62.734,-242.075 56.531,-238.831"/>
</g>
<!-- Node17 -->
<g id="node17" class="node"><title>Node17</title>
<polygon fill="white" stroke="#bfbfbf" points="104.5,-244 104.5,-312 321.5,-312 321.5,-244 104.5,-244"/>
<text text-anchor="start" x="112.5" y="-300" font-family="Helvetica,sans-Serif" font-size="10.00">ArrayList&lt; ppm_java.frontend.gui.lineargauge.</text>
<text text-anchor="middle" x="213" y="-289" font-family="Helvetica,sans-Serif" font-size="10.00">TGUILinearGauge_Surrogate_Stats_Record &gt;</text>
<polyline fill="none" stroke="#bfbfbf" points="104.5,-282 321.5,-282 "/>
<text text-anchor="middle" x="213" y="-270" font-family="Helvetica,sans-Serif" font-size="10.00"> </text>
<polyline fill="none" stroke="#bfbfbf" points="104.5,-263 321.5,-263 "/>
<text text-anchor="middle" x="213" y="-251" font-family="Helvetica,sans-Serif" font-size="10.00"> </text>
</g>
<!-- Node17&#45;&gt;Node15 -->
<g id="edge18" class="edge"><title>Node17&#45;&gt;Node15</title>
<path fill="none" stroke="#404040" d="M238.685,-243.783C256.176,-221.221 279.894,-190.739 301,-164 303.282,-161.109 305.608,-158.169 307.96,-155.201"/>
<polygon fill="none" stroke="#404040" points="308.076,-155.054 308.674,-147.868 315.537,-145.655 314.939,-152.842 308.076,-155.054"/>
<text text-anchor="middle" x="335.5" y="-167.5" font-family="Helvetica,sans-Serif" font-size="10.00"> &#45;fStatChannels</text>
</g>
<!-- Node18 -->
<g id="node18" class="node"><title>Node18</title>
<polygon fill="white" stroke="#bfbfbf" points="340,-249.5 340,-306.5 408,-306.5 408,-249.5 340,-249.5"/>
<text text-anchor="middle" x="374" y="-294.5" font-family="Helvetica,sans-Serif" font-size="10.00">AtomicLong</text>
<polyline fill="none" stroke="#bfbfbf" points="340,-287.5 408,-287.5 "/>
<text text-anchor="middle" x="374" y="-275.5" font-family="Helvetica,sans-Serif" font-size="10.00"> </text>
<polyline fill="none" stroke="#bfbfbf" points="340,-268.5 408,-268.5 "/>
<text text-anchor="middle" x="374" y="-256.5" font-family="Helvetica,sans-Serif" font-size="10.00"> </text>
</g>
<!-- Node18&#45;&gt;Node15 -->
<g id="edge19" class="edge"><title>Node18&#45;&gt;Node15</title>
<path fill="none" stroke="#404040" d="M373.863,-249.199C373.747,-225.609 373.574,-190.496 373.413,-157.885"/>
<polygon fill="none" stroke="#404040" points="373.412,-157.538 369.382,-151.558 373.352,-145.538 377.382,-151.518 373.412,-157.538"/>
<text text-anchor="middle" x="402.5" y="-167.5" font-family="Helvetica,sans-Serif" font-size="10.00"> &#45;fTimeCycle</text>
</g>
<!-- Node19 -->
<g id="node19" class="node"><title>Node19</title>
<polygon fill="white" stroke="#bfbfbf" points="492,-703.5 492,-760.5 574,-760.5 574,-703.5 492,-703.5"/>
<text text-anchor="middle" x="533" y="-748.5" font-family="Helvetica,sans-Serif" font-size="10.00">LinearBargraph</text>
<polyline fill="none" stroke="#bfbfbf" points="492,-741.5 574,-741.5 "/>
<text text-anchor="middle" x="533" y="-729.5" font-family="Helvetica,sans-Serif" font-size="10.00"> </text>
<polyline fill="none" stroke="#bfbfbf" points="492,-722.5 574,-722.5 "/>
<text text-anchor="middle" x="533" y="-710.5" font-family="Helvetica,sans-Serif" font-size="10.00"> </text>
</g>
<!-- Node19&#45;&gt;Node4 -->
<g id="edge22" class="edge"><title>Node19&#45;&gt;Node4</title>
<path fill="none" stroke="#404040" d="M534.016,-703.282C536.15,-670.823 542.735,-616.139 563,-574 564.26,-571.381 565.615,-568.777 567.051,-566.194"/>
<polygon fill="none" stroke="#404040" points="567.177,-565.985 566.852,-558.782 573.376,-555.711 573.701,-562.915 567.177,-565.985"/>
<text text-anchor="middle" x="584" y="-594" font-family="Helvetica,sans-Serif" font-size="10.00"> &#45;fMeterR</text>
<text text-anchor="middle" x="584" y="-583" font-family="Helvetica,sans-Serif" font-size="10.00">&#45;fMeterL</text>
</g>
<!-- Node20 -->
<g id="node20" class="node"><title>Node20</title>
<polygon fill="white" stroke="#bfbfbf" points="592,-703.5 592,-760.5 648,-760.5 648,-703.5 592,-703.5"/>
<text text-anchor="middle" x="620" y="-748.5" font-family="Helvetica,sans-Serif" font-size="10.00">LedColor</text>
<polyline fill="none" stroke="#bfbfbf" points="592,-741.5 648,-741.5 "/>
<text text-anchor="middle" x="620" y="-729.5" font-family="Helvetica,sans-Serif" font-size="10.00"> </text>
<polyline fill="none" stroke="#bfbfbf" points="592,-722.5 648,-722.5 "/>
<text text-anchor="middle" x="620" y="-710.5" font-family="Helvetica,sans-Serif" font-size="10.00"> </text>
</g>
<!-- Node20&#45;&gt;Node4 -->
<g id="edge23" class="edge"><title>Node20&#45;&gt;Node4</title>
<path fill="none" stroke="#404040" d="M614.882,-703.315C609.873,-671.812 603.944,-618.906 611,-574 611.339,-571.844 611.721,-569.668 612.14,-567.482"/>
<polygon fill="none" stroke="#404040" points="612.147,-567.452 609.522,-560.736 614.712,-555.73 617.337,-562.446 612.147,-567.452"/>
<text text-anchor="middle" x="644.5" y="-599.5" font-family="Helvetica,sans-Serif" font-size="10.00"> &#45;kColorNormal</text>
<text text-anchor="middle" x="644.5" y="-588.5" font-family="Helvetica,sans-Serif" font-size="10.00">&#45;kColorWarn</text>
<text text-anchor="middle" x="644.5" y="-577.5" font-family="Helvetica,sans-Serif" font-size="10.00">&#45;kColorClip</text>
</g>
<!-- Node21 -->
<g id="node21" class="node"><title>Node21</title>
<polygon fill="white" stroke="#bfbfbf" points="676.5,-703.5 676.5,-760.5 723.5,-760.5 723.5,-703.5 676.5,-703.5"/>
<text text-anchor="middle" x="700" y="-748.5" font-family="Helvetica,sans-Serif" font-size="10.00">JPanel</text>
<polyline fill="none" stroke="#bfbfbf" points="676.5,-741.5 723.5,-741.5 "/>
<text text-anchor="middle" x="700" y="-729.5" font-family="Helvetica,sans-Serif" font-size="10.00"> </text>
<polyline fill="none" stroke="#bfbfbf" points="676.5,-722.5 723.5,-722.5 "/>
<text text-anchor="middle" x="700" y="-710.5" font-family="Helvetica,sans-Serif" font-size="10.00"> </text>
</g>
<!-- Node21&#45;&gt;Node4 -->
<g id="edge24" class="edge"><title>Node21&#45;&gt;Node4</title>
<path fill="none" stroke="#404040" d="M698.307,-703.332C695.867,-671.618 690.232,-618.306 678,-574 677.374,-571.732 676.704,-569.445 675.997,-567.148"/>
<polygon fill="none" stroke="#404040" points="675.953,-567.015 670.27,-562.576 672.182,-555.623 677.864,-560.062 675.953,-567.015"/>
<text text-anchor="middle" x="712" y="-594" font-family="Helvetica,sans-Serif" font-size="10.00"> &#45;fPnlMeterL</text>
<text text-anchor="middle" x="712" y="-583" font-family="Helvetica,sans-Serif" font-size="10.00">&#45;fPnlMeterR</text>
</g>
</g>
</svg>
        <g id="navigator" transform="translate(0 0)" fill="#404254">
                <rect fill="#f2f5e9" fill-opacity="0.5" stroke="#606060" stroke-width=".5" x="0" y="0" width="60" height="60"/>
                <use id="zoomplus" xlink:href="#zoomPlus" x="17" y="9" onmousedown="handleZoom(evt,'in')"/>
                <use id="zoomminus" xlink:href="#zoomMin" x="42" y="9" onmousedown="handleZoom(evt,'out')"/>
                <use id="reset" xlink:href="#resetDef" x="30" y="36" onmousedown="handleReset()"/>
                <g id="arrowUp" xlink:href="#dirArrow" transform="translate(30 24)" onmousedown="handlePan(0,-1)">
                  <use xlink:href="#rim" fill="#404040">
                        <set attributeName="fill" to="#808080" begin="arrowUp.mouseover" end="arrowUp.mouseout"/>
                  </use>
                  <path fill="none" stroke="white" stroke-width="1.5" d="M0,-3.0v7 M-2.5,-0.5L0,-3.0L2.5,-0.5"/>
                </g>
                <g id="arrowRight" xlink:href="#dirArrow" transform="rotate(90) translate(36 -43)" onmousedown="handlePan(1,0)">
                  <use xlink:href="#rim" fill="#404040">
                        <set attributeName="fill" to="#808080" begin="arrowRight.mouseover" end="arrowRight.mouseout"/>
                  </use>
                  <path fill="none" stroke="white" stroke-width="1.5" d="M0,-3.0v7 M-2.5,-0.5L0,-3.0L2.5,-0.5"/>
                </g>
                <g id="arrowDown" xlink:href="#dirArrow" transform="rotate(180) translate(-30 -48)" onmousedown="handlePan(0,1)">
                  <use xlink:href="#rim" fill="#404040">
                        <set attributeName="fill" to="#808080" begin="arrowDown.mouseover" end="arrowDown.mouseout"/>
                  </use>
                  <path fill="none" stroke="white" stroke-width="1.5" d="M0,-3.0v7 M-2.5,-0.5L0,-3.0L2.5,-0.5"/>
                </g>
                <g id="arrowLeft" xlink:href="#dirArrow" transform="rotate(270) translate(-36 17)" onmousedown="handlePan(-1,0)">
                  <use xlink:href="#rim" fill="#404040">
                        <set attributeName="fill" to="#808080" begin="arrowLeft.mouseover" end="arrowLeft.mouseout"/>
                  </use>
                  <path fill="none" stroke="white" stroke-width="1.5" d="M0,-3.0v7 M-2.5,-0.5L0,-3.0L2.5,-0.5"/>
                </g>
        </g>
        <svg viewBox="0 0 15 15" width="100%" height="30px" preserveAspectRatio="xMaxYMin meet">
         <g id="arrow_out" transform="scale(0.3 0.3)">
          <a xlink:href="classppm__java_1_1frontend_1_1gui_1_1lineargauge_1_1_t_g_u_i_linear_gauge___timer_clipping__coll__graph_org.svg" target="_base">
           <rect id="button" ry="5" rx="5" y="6" x="6" height="38" width="38"
                fill="#f2f5e9" fill-opacity="0.5" stroke="#606060" stroke-width="1.0"/>
           <path id="arrow"
             d="M 11.500037,31.436501 C 11.940474,20.09759 22.043105,11.32322 32.158766,21.979434 L 37.068811,17.246167 C 37.068811,17.246167 37.088388,32 37.088388,32 L 22.160133,31.978069 C 22.160133,31.978069 26.997745,27.140456 26.997745,27.140456 C 18.528582,18.264221 13.291696,25.230495 11.500037,31.436501 z"
             style="fill:#404040;"/>
          </a>
         </g>
        </svg>
</svg>
