<?xml version="1.0" encoding="UTF-8" standalone="no"?>
<!DOCTYPE svg PUBLIC "-//W3C//DTD SVG 1.1//EN"
 "http://www.w3.org/Graphics/SVG/1.1/DTD/svg11.dtd">
<!-- Generated by graphviz version 2.36.0 (20140111.2315)
 -->
<!-- Title: TArrayMap&lt; T &gt; Pages: 1 -->
<svg width="281pt" height="350pt"
 viewBox="0.00 0.00 281.00 350.00" xmlns="http://www.w3.org/2000/svg" xmlns:xlink="http://www.w3.org/1999/xlink">
<g id="graph0" class="graph" transform="scale(1 1) rotate(0) translate(4 346)">
<title>TArrayMap&lt; T &gt;</title>
<polygon fill="white" stroke="none" points="-4,4 -4,-346 277,-346 277,4 -4,4"/>
<!-- Node1 -->
<g id="node1" class="node"><title>Node1</title>
<polygon fill="#bfbfbf" stroke="black" points="78,-1 78,-223 194,-223 194,-1 78,-1"/>
<text text-anchor="middle" x="136" y="-211" font-family="Helvetica,sans-Serif" font-size="10.00">TArrayMap&lt; T &gt;</text>
<polyline fill="none" stroke="black" points="78,-204 194,-204 "/>
<text text-anchor="start" x="86" y="-192" font-family="Helvetica,sans-Serif" font-size="10.00">&#45; fNElements</text>
<text text-anchor="start" x="86" y="-181" font-family="Helvetica,sans-Serif" font-size="10.00">&#45; fNElementsMax</text>
<polyline fill="none" stroke="black" points="78,-174 194,-174 "/>
<text text-anchor="start" x="86" y="-162" font-family="Helvetica,sans-Serif" font-size="10.00">+ TArrayMap()</text>
<text text-anchor="start" x="86" y="-151" font-family="Helvetica,sans-Serif" font-size="10.00">+ TArrayMap()</text>
<text text-anchor="start" x="86" y="-140" font-family="Helvetica,sans-Serif" font-size="10.00">+ Get()</text>
<text text-anchor="start" x="86" y="-129" font-family="Helvetica,sans-Serif" font-size="10.00">+ Get()</text>
<text text-anchor="start" x="86" y="-118" font-family="Helvetica,sans-Serif" font-size="10.00">+ GetKey()</text>
<text text-anchor="start" x="86" y="-107" font-family="Helvetica,sans-Serif" font-size="10.00">+ GetNumElements()</text>
<text text-anchor="start" x="86" y="-96" font-family="Helvetica,sans-Serif" font-size="10.00">+ HasElement()</text>
<text text-anchor="start" x="86" y="-85" font-family="Helvetica,sans-Serif" font-size="10.00">+ Remove()</text>
<text text-anchor="start" x="86" y="-74" font-family="Helvetica,sans-Serif" font-size="10.00">+ Remove()</text>
<text text-anchor="start" x="86" y="-63" font-family="Helvetica,sans-Serif" font-size="10.00">+ Set()</text>
<text text-anchor="start" x="86" y="-52" font-family="Helvetica,sans-Serif" font-size="10.00">&#45; _AssertHasElement()</text>
<text text-anchor="start" x="86" y="-41" font-family="Helvetica,sans-Serif" font-size="10.00">&#45; _AssertInRange()</text>
<text text-anchor="start" x="86" y="-30" font-family="Helvetica,sans-Serif" font-size="10.00">&#45; _AssertSpace()</text>
<text text-anchor="start" x="86" y="-19" font-family="Helvetica,sans-Serif" font-size="10.00">&#45; _Init()</text>
<text text-anchor="start" x="86" y="-8" font-family="Helvetica,sans-Serif" font-size="10.00">&#45; _Remove()</text>
</g>
<!-- Node2 -->
<g id="node2" class="node"><title>Node2</title>
<polygon fill="white" stroke="#bfbfbf" points="-0.5,-278.5 -0.5,-335.5 126.5,-335.5 126.5,-278.5 -0.5,-278.5"/>
<text text-anchor="middle" x="63" y="-323.5" font-family="Helvetica,sans-Serif" font-size="10.00">ArrayList&lt; TNode&lt; T &gt; &gt;</text>
<polyline fill="none" stroke="#bfbfbf" points="-0.5,-316.5 126.5,-316.5 "/>
<text text-anchor="middle" x="63" y="-304.5" font-family="Helvetica,sans-Serif" font-size="10.00"> </text>
<polyline fill="none" stroke="#bfbfbf" points="-0.5,-297.5 126.5,-297.5 "/>
<text text-anchor="middle" x="63" y="-285.5" font-family="Helvetica,sans-Serif" font-size="10.00"> </text>
</g>
<!-- Node2&#45;&gt;Node1 -->
<g id="edge1" class="edge"><title>Node2&#45;&gt;Node1</title>
<path fill="none" stroke="#404040" d="M73.4591,-278.348C78.0717,-266.153 83.8421,-250.897 90.0002,-234.616"/>
<polygon fill="none" stroke="#404040" points="90.0706,-234.43 88.452,-227.403 94.316,-223.206 95.9346,-230.233 90.0706,-234.43"/>
<text text-anchor="middle" x="99.5" y="-245.5" font-family="Helvetica,sans-Serif" font-size="10.00"> &#45;fList</text>
</g>
<!-- Node3 -->
<g id="node3" class="node"><title>Node3</title>
<polygon fill="white" stroke="#bfbfbf" points="145,-273 145,-341 273,-341 273,-273 145,-273"/>
<text text-anchor="start" x="153" y="-329" font-family="Helvetica,sans-Serif" font-size="10.00">HashMap&lt; String, TNode</text>
<text text-anchor="middle" x="209" y="-318" font-family="Helvetica,sans-Serif" font-size="10.00">&lt; T &gt; &gt;</text>
<polyline fill="none" stroke="#bfbfbf" points="145,-311 273,-311 "/>
<text text-anchor="middle" x="209" y="-299" font-family="Helvetica,sans-Serif" font-size="10.00"> </text>
<polyline fill="none" stroke="#bfbfbf" points="145,-292 273,-292 "/>
<text text-anchor="middle" x="209" y="-280" font-family="Helvetica,sans-Serif" font-size="10.00"> </text>
</g>
<!-- Node3&#45;&gt;Node1 -->
<g id="edge2" class="edge"><title>Node3&#45;&gt;Node1</title>
<path fill="none" stroke="#404040" d="M196.451,-272.822C192.237,-261.682 187.261,-248.525 182.002,-234.621"/>
<polygon fill="none" stroke="#404040" points="181.978,-234.558 176.114,-230.361 177.732,-223.334 183.596,-227.531 181.978,-234.558"/>
<text text-anchor="middle" x="202" y="-245.5" font-family="Helvetica,sans-Serif" font-size="10.00"> &#45;fMap</text>
</g>
</g>
</svg>
