<?xml version="1.0" encoding="UTF-8" standalone="no"?>
<!DOCTYPE svg PUBLIC "-//W3C//DTD SVG 1.1//EN"
 "http://www.w3.org/Graphics/SVG/1.1/DTD/svg11.dtd">
<!-- Generated by graphviz version 2.36.0 (20140111.2315)
 -->
<!-- Title: VAudioPort_Input_Samples Pages: 1 -->
<svg width="1043pt" height="680pt"
 viewBox="0.00 0.00 1043.00 680.00" xmlns="http://www.w3.org/2000/svg" xmlns:xlink="http://www.w3.org/1999/xlink">
<g id="graph0" class="graph" transform="scale(1 1) rotate(0) translate(4 676)">
<title>VAudioPort_Input_Samples</title>
<polygon fill="white" stroke="none" points="-4,4 -4,-676 1039,-676 1039,4 -4,4"/>
<!-- Node1 -->
<g id="node1" class="node"><title>Node1</title>
<polygon fill="#bfbfbf" stroke="black" points="444,-139 444,-229 596,-229 596,-139 444,-139"/>
<text text-anchor="middle" x="520" y="-217" font-family="Helvetica,sans-Serif" font-size="10.00">VAudioPort_Input_Samples</text>
<polyline fill="none" stroke="black" points="444,-210 596,-210 "/>
<text text-anchor="middle" x="520" y="-198" font-family="Helvetica,sans-Serif" font-size="10.00"> </text>
<polyline fill="none" stroke="black" points="444,-191 596,-191 "/>
<text text-anchor="start" x="452" y="-179" font-family="Helvetica,sans-Serif" font-size="10.00">+ VAudioPort_Input_Samples()</text>
<text text-anchor="start" x="452" y="-168" font-family="Helvetica,sans-Serif" font-size="10.00">+ ReceiveSample()</text>
<text text-anchor="start" x="452" y="-157" font-family="Helvetica,sans-Serif" font-size="10.00"># _Accept()</text>
<text text-anchor="start" x="452" y="-146" font-family="Helvetica,sans-Serif" font-size="10.00"># _GetType()</text>
</g>
<!-- Node6 -->
<g id="node6" class="node"><title>Node6</title>
<g id="a_node6"><a xlink:href="../../d4/d95/classppm__java_1_1backend_1_1module_1_1converter__db_1_1_t_node_converter_db___endpoint___in.html" target="_top" xlink:title="Audio input port for a TNodeConverterDb. ">
<polygon fill="white" stroke="black" points="-0.5,-11.5 -0.5,-90.5 172.5,-90.5 172.5,-11.5 -0.5,-11.5"/>
<text text-anchor="middle" x="86" y="-78.5" font-family="Helvetica,sans-Serif" font-size="10.00">TNodeConverterDb_Endpoint_In</text>
<polyline fill="none" stroke="black" points="-0.5,-71.5 172.5,-71.5 "/>
<text text-anchor="middle" x="86" y="-59.5" font-family="Helvetica,sans-Serif" font-size="10.00"> </text>
<polyline fill="none" stroke="black" points="-0.5,-52.5 172.5,-52.5 "/>
<text text-anchor="start" x="7.5" y="-40.5" font-family="Helvetica,sans-Serif" font-size="10.00">+ TNodeConverterDb_Endpoint_In()</text>
<text text-anchor="start" x="7.5" y="-29.5" font-family="Helvetica,sans-Serif" font-size="10.00">+ ReceiveSample()</text>
<text text-anchor="start" x="7.5" y="-18.5" font-family="Helvetica,sans-Serif" font-size="10.00"># _Register()</text>
</a>
</g>
</g>
<!-- Node1&#45;&gt;Node6 -->
<g id="edge5" class="edge"><title>Node1&#45;&gt;Node6</title>
<path fill="none" stroke="midnightblue" d="M433.951,-168.604C364.353,-155.506 264.545,-133.4 181,-102 172.19,-98.6887 163.158,-94.7381 154.336,-90.5293"/>
<polygon fill="none" stroke="midnightblue" points="433.524,-172.084 443.995,-170.471 434.803,-165.202 433.524,-172.084"/>
</g>
<!-- Node7 -->
<g id="node7" class="node"><title>Node7</title>
<g id="a_node7"><a xlink:href="../../dd/dee/classppm__java_1_1backend_1_1module_1_1integrator_1_1_t_node_integrator___p_p_m_ballistics___endpoint___in.html" target="_top" xlink:title="Audio input port for a TNodeIntegrator_PPMBallistics. ">
<polygon fill="white" stroke="black" points="190.5,-0.5 190.5,-101.5 353.5,-101.5 353.5,-0.5 190.5,-0.5"/>
<text text-anchor="start" x="198.5" y="-89.5" font-family="Helvetica,sans-Serif" font-size="10.00">TNodeIntegrator_PPMBallistics</text>
<text text-anchor="middle" x="272" y="-78.5" font-family="Helvetica,sans-Serif" font-size="10.00">_Endpoint_In</text>
<polyline fill="none" stroke="black" points="190.5,-71.5 353.5,-71.5 "/>
<text text-anchor="middle" x="272" y="-59.5" font-family="Helvetica,sans-Serif" font-size="10.00"> </text>
<polyline fill="none" stroke="black" points="190.5,-52.5 353.5,-52.5 "/>
<text text-anchor="start" x="198.5" y="-40.5" font-family="Helvetica,sans-Serif" font-size="10.00">+ TNodeIntegrator_PPMBallistics</text>
<text text-anchor="start" x="198.5" y="-29.5" font-family="Helvetica,sans-Serif" font-size="10.00">_Endpoint_In()</text>
<text text-anchor="start" x="198.5" y="-18.5" font-family="Helvetica,sans-Serif" font-size="10.00">+ ReceiveSample()</text>
<text text-anchor="start" x="198.5" y="-7.5" font-family="Helvetica,sans-Serif" font-size="10.00"># _Register()</text>
</a>
</g>
</g>
<!-- Node1&#45;&gt;Node7 -->
<g id="edge6" class="edge"><title>Node1&#45;&gt;Node7</title>
<path fill="none" stroke="midnightblue" d="M434.749,-139.53C411.422,-127.496 386.182,-114.346 363,-102 359.977,-100.39 356.901,-98.7436 353.798,-97.075"/>
<polygon fill="none" stroke="midnightblue" points="433.436,-142.79 443.929,-144.259 436.642,-136.568 433.436,-142.79"/>
</g>
<!-- Node8 -->
<g id="node8" class="node"><title>Node8</title>
<g id="a_node8"><a xlink:href="../../d5/d31/classppm__java_1_1frontend_1_1console_1_1lineargauge_1_1_t_console___linear_gauge___endpoint___in.html" target="_top" xlink:title="Audio input port for a TConsole_LinearGauge. ">
<polygon fill="white" stroke="black" points="372,-0.5 372,-101.5 500,-101.5 500,-0.5 372,-0.5"/>
<text text-anchor="start" x="380" y="-89.5" font-family="Helvetica,sans-Serif" font-size="10.00">TConsole_LinearGauge</text>
<text text-anchor="middle" x="436" y="-78.5" font-family="Helvetica,sans-Serif" font-size="10.00">_Endpoint_In</text>
<polyline fill="none" stroke="black" points="372,-71.5 500,-71.5 "/>
<text text-anchor="middle" x="436" y="-59.5" font-family="Helvetica,sans-Serif" font-size="10.00"> </text>
<polyline fill="none" stroke="black" points="372,-52.5 500,-52.5 "/>
<text text-anchor="start" x="380" y="-40.5" font-family="Helvetica,sans-Serif" font-size="10.00">+ TConsole_LinearGauge</text>
<text text-anchor="start" x="380" y="-29.5" font-family="Helvetica,sans-Serif" font-size="10.00">_Endpoint_In()</text>
<text text-anchor="start" x="380" y="-18.5" font-family="Helvetica,sans-Serif" font-size="10.00">+ ReceiveSample()</text>
<text text-anchor="start" x="380" y="-7.5" font-family="Helvetica,sans-Serif" font-size="10.00"># _Register()</text>
</a>
</g>
</g>
<!-- Node1&#45;&gt;Node8 -->
<g id="edge7" class="edge"><title>Node1&#45;&gt;Node8</title>
<path fill="none" stroke="midnightblue" d="M486.112,-130.151C480.091,-120.761 473.839,-111.011 467.877,-101.712"/>
<polygon fill="none" stroke="midnightblue" points="483.217,-132.121 491.561,-138.649 489.11,-128.342 483.217,-132.121"/>
</g>
<!-- Node9 -->
<g id="node9" class="node"><title>Node9</title>
<g id="a_node9"><a xlink:href="../../d9/d7c/classppm__java_1_1frontend_1_1console_1_1text_1_1_t_console___text_out___endpoint___in.html" target="_top" xlink:title="Audio input port for a TConsole_TextOut. ">
<polygon fill="white" stroke="black" points="518.5,-11.5 518.5,-90.5 689.5,-90.5 689.5,-11.5 518.5,-11.5"/>
<text text-anchor="middle" x="604" y="-78.5" font-family="Helvetica,sans-Serif" font-size="10.00">TConsole_TextOut_Endpoint_In</text>
<polyline fill="none" stroke="black" points="518.5,-71.5 689.5,-71.5 "/>
<text text-anchor="middle" x="604" y="-59.5" font-family="Helvetica,sans-Serif" font-size="10.00"> </text>
<polyline fill="none" stroke="black" points="518.5,-52.5 689.5,-52.5 "/>
<text text-anchor="start" x="526.5" y="-40.5" font-family="Helvetica,sans-Serif" font-size="10.00">+ TConsole_TextOut_Endpoint_In()</text>
<text text-anchor="start" x="526.5" y="-29.5" font-family="Helvetica,sans-Serif" font-size="10.00">+ ReceiveSample()</text>
<text text-anchor="start" x="526.5" y="-18.5" font-family="Helvetica,sans-Serif" font-size="10.00"># _Register()</text>
</a>
</g>
</g>
<!-- Node1&#45;&gt;Node9 -->
<g id="edge8" class="edge"><title>Node1&#45;&gt;Node9</title>
<path fill="none" stroke="midnightblue" d="M553.923,-130.097C562.391,-116.891 571.314,-102.975 579.244,-90.6068"/>
<polygon fill="none" stroke="midnightblue" points="550.89,-128.342 548.439,-138.649 556.783,-132.121 550.89,-128.342"/>
</g>
<!-- Node10 -->
<g id="node10" class="node"><title>Node10</title>
<g id="a_node10"><a xlink:href="../../d9/d1a/classppm__java_1_1frontend_1_1gui_1_1lineargauge_1_1_t_g_u_i_linear_gauge___endpoint___in.html" target="_top" xlink:title="Audio input port for a TGUILinearGauge_Surrogate. ">
<polygon fill="white" stroke="black" points="707.5,-11.5 707.5,-90.5 874.5,-90.5 874.5,-11.5 707.5,-11.5"/>
<text text-anchor="middle" x="791" y="-78.5" font-family="Helvetica,sans-Serif" font-size="10.00">TGUILinearGauge_Endpoint_In</text>
<polyline fill="none" stroke="black" points="707.5,-71.5 874.5,-71.5 "/>
<text text-anchor="middle" x="791" y="-59.5" font-family="Helvetica,sans-Serif" font-size="10.00"> </text>
<polyline fill="none" stroke="black" points="707.5,-52.5 874.5,-52.5 "/>
<text text-anchor="start" x="715.5" y="-40.5" font-family="Helvetica,sans-Serif" font-size="10.00">+ TGUILinearGauge_Endpoint_In()</text>
<text text-anchor="start" x="715.5" y="-29.5" font-family="Helvetica,sans-Serif" font-size="10.00">+ ReceiveSample()</text>
<text text-anchor="start" x="715.5" y="-18.5" font-family="Helvetica,sans-Serif" font-size="10.00"># _Register()</text>
</a>
</g>
</g>
<!-- Node1&#45;&gt;Node10 -->
<g id="edge9" class="edge"><title>Node1&#45;&gt;Node10</title>
<path fill="none" stroke="midnightblue" d="M605.735,-145.37C635.181,-132.08 668.217,-116.762 698,-102 705.309,-98.3772 712.887,-94.5031 720.42,-90.5745"/>
<polygon fill="none" stroke="midnightblue" points="603.993,-142.315 596.309,-149.61 606.865,-148.699 603.993,-142.315"/>
</g>
<!-- Node11 -->
<g id="node11" class="node"><title>Node11</title>
<g id="a_node11"><a xlink:href="../../d7/d0d/classppm__java_1_1frontend_1_1gui_1_1needle_1_1_t_g_u_i_needle___endpoint___in.html" target="_top" xlink:title="Audio input port for a TGUINeedle_Surrogate. ">
<polygon fill="white" stroke="black" points="892.5,-11.5 892.5,-90.5 1035.5,-90.5 1035.5,-11.5 892.5,-11.5"/>
<text text-anchor="middle" x="964" y="-78.5" font-family="Helvetica,sans-Serif" font-size="10.00">TGUINeedle_Endpoint_In</text>
<polyline fill="none" stroke="black" points="892.5,-71.5 1035.5,-71.5 "/>
<text text-anchor="middle" x="964" y="-59.5" font-family="Helvetica,sans-Serif" font-size="10.00"> </text>
<polyline fill="none" stroke="black" points="892.5,-52.5 1035.5,-52.5 "/>
<text text-anchor="start" x="900.5" y="-40.5" font-family="Helvetica,sans-Serif" font-size="10.00">+ TGUINeedle_Endpoint_In()</text>
<text text-anchor="start" x="900.5" y="-29.5" font-family="Helvetica,sans-Serif" font-size="10.00">+ ReceiveSample()</text>
<text text-anchor="start" x="900.5" y="-18.5" font-family="Helvetica,sans-Serif" font-size="10.00"># _Register()</text>
</a>
</g>
</g>
<!-- Node1&#45;&gt;Node11 -->
<g id="edge10" class="edge"><title>Node1&#45;&gt;Node11</title>
<path fill="none" stroke="midnightblue" d="M606.143,-172.049C681.264,-160.579 792.127,-138.96 883,-102 890.807,-98.8247 898.718,-94.9301 906.382,-90.7289"/>
<polygon fill="none" stroke="midnightblue" points="605.617,-168.589 596.246,-173.533 606.655,-175.511 605.617,-168.589"/>
</g>
<!-- Node2 -->
<g id="node2" class="node"><title>Node2</title>
<g id="a_node2"><a xlink:href="../../d9/d0e/classppm__java_1_1typelib_1_1_v_audio_port___input.html" target="_top" xlink:title="Base class for an input audio port. ">
<polygon fill="white" stroke="black" points="466,-266.5 466,-345.5 574,-345.5 574,-266.5 466,-266.5"/>
<text text-anchor="middle" x="520" y="-333.5" font-family="Helvetica,sans-Serif" font-size="10.00">VAudioPort_Input</text>
<polyline fill="none" stroke="black" points="466,-326.5 574,-326.5 "/>
<text text-anchor="start" x="474" y="-314.5" font-family="Helvetica,sans-Serif" font-size="10.00">&#45; fIPort</text>
<polyline fill="none" stroke="black" points="466,-307.5 574,-307.5 "/>
<text text-anchor="start" x="474" y="-295.5" font-family="Helvetica,sans-Serif" font-size="10.00">+ VAudioPort_Input()</text>
<text text-anchor="start" x="474" y="-284.5" font-family="Helvetica,sans-Serif" font-size="10.00">+ GetPortNum()</text>
<text text-anchor="start" x="474" y="-273.5" font-family="Helvetica,sans-Serif" font-size="10.00"># _Accept()</text>
</a>
</g>
</g>
<!-- Node2&#45;&gt;Node1 -->
<g id="edge1" class="edge"><title>Node2&#45;&gt;Node1</title>
<path fill="none" stroke="midnightblue" d="M520,-256.176C520,-247.318 520,-238.123 520,-229.401"/>
<polygon fill="none" stroke="midnightblue" points="516.5,-256.371 520,-266.371 523.5,-256.371 516.5,-256.371"/>
</g>
<!-- Node3 -->
<g id="node3" class="node"><title>Node3</title>
<g id="a_node3"><a xlink:href="../../de/dc9/classppm__java_1_1typelib_1_1_v_audio_port.html" target="_top" xlink:title="Base class for all audio ports. ">
<polygon fill="white" stroke="black" points="479.5,-382.5 479.5,-461.5 560.5,-461.5 560.5,-382.5 479.5,-382.5"/>
<text text-anchor="middle" x="520" y="-449.5" font-family="Helvetica,sans-Serif" font-size="10.00">VAudioPort</text>
<polyline fill="none" stroke="black" points="479.5,-442.5 560.5,-442.5 "/>
<text text-anchor="start" x="487.5" y="-430.5" font-family="Helvetica,sans-Serif" font-size="10.00">&#45; fHost</text>
<polyline fill="none" stroke="black" points="479.5,-423.5 560.5,-423.5 "/>
<text text-anchor="start" x="487.5" y="-411.5" font-family="Helvetica,sans-Serif" font-size="10.00">+ VAudioPort()</text>
<text text-anchor="start" x="487.5" y="-400.5" font-family="Helvetica,sans-Serif" font-size="10.00"># _GetHost()</text>
<text text-anchor="start" x="487.5" y="-389.5" font-family="Helvetica,sans-Serif" font-size="10.00"># _GetType()</text>
</a>
</g>
</g>
<!-- Node3&#45;&gt;Node2 -->
<g id="edge2" class="edge"><title>Node3&#45;&gt;Node2</title>
<path fill="none" stroke="midnightblue" d="M520,-372.146C520,-363.256 520,-354.096 520,-345.555"/>
<polygon fill="none" stroke="midnightblue" points="516.5,-372.405 520,-382.405 523.5,-372.405 516.5,-372.405"/>
</g>
<!-- Node4 -->
<g id="node4" class="node"><title>Node4</title>
<g id="a_node4"><a xlink:href="../../d1/db3/classppm__java_1_1typelib_1_1_v_audio_object.html" target="_top" xlink:title="Base class for all browseable audio objects. ">
<polygon fill="white" stroke="black" points="474,-498.5 474,-555.5 566,-555.5 566,-498.5 474,-498.5"/>
<text text-anchor="middle" x="520" y="-543.5" font-family="Helvetica,sans-Serif" font-size="10.00">VAudioObject</text>
<polyline fill="none" stroke="black" points="474,-536.5 566,-536.5 "/>
<text text-anchor="middle" x="520" y="-524.5" font-family="Helvetica,sans-Serif" font-size="10.00"> </text>
<polyline fill="none" stroke="black" points="474,-517.5 566,-517.5 "/>
<text text-anchor="start" x="482" y="-505.5" font-family="Helvetica,sans-Serif" font-size="10.00">+ VAudioObject()</text>
</a>
</g>
</g>
<!-- Node4&#45;&gt;Node3 -->
<g id="edge3" class="edge"><title>Node4&#45;&gt;Node3</title>
<path fill="none" stroke="midnightblue" d="M520,-488.156C520,-479.473 520,-470.232 520,-461.52"/>
<polygon fill="none" stroke="midnightblue" points="516.5,-488.398 520,-498.398 523.5,-488.398 516.5,-488.398"/>
</g>
<!-- Node5 -->
<g id="node5" class="node"><title>Node5</title>
<g id="a_node5"><a xlink:href="../../de/dd1/classppm__java_1_1typelib_1_1_v_browseable.html" target="_top" xlink:title="Base class for all browseable objects. ">
<polygon fill="white" stroke="black" points="475.5,-592.5 475.5,-671.5 564.5,-671.5 564.5,-592.5 475.5,-592.5"/>
<text text-anchor="middle" x="520" y="-659.5" font-family="Helvetica,sans-Serif" font-size="10.00">VBrowseable</text>
<polyline fill="none" stroke="black" points="475.5,-652.5 564.5,-652.5 "/>
<text text-anchor="start" x="483.5" y="-640.5" font-family="Helvetica,sans-Serif" font-size="10.00">&#45; fID</text>
<polyline fill="none" stroke="black" points="475.5,-633.5 564.5,-633.5 "/>
<text text-anchor="start" x="483.5" y="-621.5" font-family="Helvetica,sans-Serif" font-size="10.00">+ VBrowseable()</text>
<text text-anchor="start" x="483.5" y="-610.5" font-family="Helvetica,sans-Serif" font-size="10.00">+ GetID()</text>
<text text-anchor="start" x="483.5" y="-599.5" font-family="Helvetica,sans-Serif" font-size="10.00"># _Register()</text>
</a>
</g>
</g>
<!-- Node5&#45;&gt;Node4 -->
<g id="edge4" class="edge"><title>Node5&#45;&gt;Node4</title>
<path fill="none" stroke="midnightblue" d="M520,-582.163C520,-573.04 520,-563.806 520,-555.61"/>
<polygon fill="none" stroke="midnightblue" points="516.5,-582.354 520,-592.354 523.5,-582.354 516.5,-582.354"/>
</g>
</g>
</svg>
