<?xml version="1.0" encoding="UTF-8" standalone="no"?>
<!DOCTYPE svg PUBLIC "-//W3C//DTD SVG 1.1//EN"
 "http://www.w3.org/Graphics/SVG/1.1/DTD/svg11.dtd">
<!-- Generated by graphviz version 2.36.0 (20140111.2315)
 -->
<!-- Title: TCommandlineParser Pages: 1 -->
<svg width="306pt" height="28pt"
 viewBox="0.00 0.00 306.00 28.00" xmlns="http://www.w3.org/2000/svg" xmlns:xlink="http://www.w3.org/1999/xlink">
<g id="graph0" class="graph" transform="scale(1 1) rotate(0) translate(4 24)">
<title>TCommandlineParser</title>
<polygon fill="white" stroke="none" points="-4,4 -4,-24 302,-24 302,4 -4,4"/>
<!-- Node1 -->
<g id="node1" class="node"><title>Node1</title>
<polygon fill="#bfbfbf" stroke="black" points="0.5,-0.5 0.5,-19.5 111.5,-19.5 111.5,-0.5 0.5,-0.5"/>
<text text-anchor="middle" x="56" y="-7.5" font-family="Helvetica,sans-Serif" font-size="10.00">TCommandlineParser</text>
</g>
<!-- Node2 -->
<g id="node2" class="node"><title>Node2</title>
<g id="a_node2"><a xlink:href="../../d1/da1/classppm__java_1_1backend_1_1boot_1_1_t_commandline_parser.html#a3238b0451c1c1f033b84632eba183439" target="_top" xlink:title="Sets up the parsing template and help text. ">
<polygon fill="white" stroke="black" points="148.5,-0.5 148.5,-19.5 183.5,-19.5 183.5,-0.5 148.5,-0.5"/>
<text text-anchor="middle" x="166" y="-7.5" font-family="Helvetica,sans-Serif" font-size="10.00">_Init</text>
</a>
</g>
</g>
<!-- Node1&#45;&gt;Node2 -->
<g id="edge1" class="edge"><title>Node1&#45;&gt;Node2</title>
<path fill="none" stroke="midnightblue" d="M111.633,-10C120.841,-10 130.025,-10 138.113,-10"/>
<polygon fill="midnightblue" stroke="midnightblue" points="138.362,-13.5001 148.362,-10 138.362,-6.5001 138.362,-13.5001"/>
</g>
<!-- Node3 -->
<g id="node3" class="node"><title>Node3</title>
<g id="a_node3"><a xlink:href="../../d1/da1/classppm__java_1_1backend_1_1boot_1_1_t_commandline_parser.html#aefd6909d2616aa33c6fcec30911cf000" target="_top" xlink:title="_GetHelpText">
<polygon fill="white" stroke="black" points="220.5,-0.5 220.5,-19.5 297.5,-19.5 297.5,-0.5 220.5,-0.5"/>
<text text-anchor="middle" x="259" y="-7.5" font-family="Helvetica,sans-Serif" font-size="10.00">_GetHelpText</text>
</a>
</g>
</g>
<!-- Node2&#45;&gt;Node3 -->
<g id="edge2" class="edge"><title>Node2&#45;&gt;Node3</title>
<path fill="none" stroke="midnightblue" d="M183.691,-10C191.227,-10 200.555,-10 210.025,-10"/>
<polygon fill="midnightblue" stroke="midnightblue" points="210.281,-13.5001 220.281,-10 210.281,-6.5001 210.281,-13.5001"/>
</g>
</g>
</svg>
