<?xml version="1.0" encoding="UTF-8" standalone="no"?>
<!DOCTYPE svg PUBLIC "-//W3C//DTD SVG 1.1//EN"
 "http://www.w3.org/Graphics/SVG/1.1/DTD/svg11.dtd">
<!-- Generated by graphviz version 2.36.0 (20140111.2315)
 -->
<!-- Title: _GetHelpText Pages: 1 -->
<svg width="306pt" height="28pt"
 viewBox="0.00 0.00 306.00 28.00" xmlns="http://www.w3.org/2000/svg" xmlns:xlink="http://www.w3.org/1999/xlink">
<g id="graph0" class="graph" transform="scale(1 1) rotate(0) translate(4 24)">
<title>_GetHelpText</title>
<polygon fill="white" stroke="none" points="-4,4 -4,-24 302,-24 302,4 -4,4"/>
<!-- Node1 -->
<g id="node1" class="node"><title>Node1</title>
<polygon fill="#bfbfbf" stroke="black" points="0.5,-0.5 0.5,-19.5 77.5,-19.5 77.5,-0.5 0.5,-0.5"/>
<text text-anchor="middle" x="39" y="-7.5" font-family="Helvetica,sans-Serif" font-size="10.00">_GetHelpText</text>
</g>
<!-- Node2 -->
<g id="node2" class="node"><title>Node2</title>
<g id="a_node2"><a xlink:href="../../d1/da1/classppm__java_1_1backend_1_1boot_1_1_t_commandline_parser.html#a3238b0451c1c1f033b84632eba183439" target="_top" xlink:title="Sets up the parsing template and help text. ">
<polygon fill="white" stroke="black" points="114.5,-0.5 114.5,-19.5 149.5,-19.5 149.5,-0.5 114.5,-0.5"/>
<text text-anchor="middle" x="132" y="-7.5" font-family="Helvetica,sans-Serif" font-size="10.00">_Init</text>
</a>
</g>
</g>
<!-- Node1&#45;&gt;Node2 -->
<g id="edge1" class="edge"><title>Node1&#45;&gt;Node2</title>
<path fill="none" stroke="midnightblue" d="M87.786,-10C97.2536,-10 106.589,-10 114.147,-10"/>
<polygon fill="midnightblue" stroke="midnightblue" points="87.5386,-6.5001 77.5386,-10 87.5385,-13.5001 87.5386,-6.5001"/>
</g>
<!-- Node3 -->
<g id="node3" class="node"><title>Node3</title>
<g id="a_node3"><a xlink:href="../../d1/da1/classppm__java_1_1backend_1_1boot_1_1_t_commandline_parser.html#a4bbe7960f23f1612e4fef3e570d55b4b" target="_top" xlink:title="cTor. ">
<polygon fill="white" stroke="black" points="186.5,-0.5 186.5,-19.5 297.5,-19.5 297.5,-0.5 186.5,-0.5"/>
<text text-anchor="middle" x="242" y="-7.5" font-family="Helvetica,sans-Serif" font-size="10.00">TCommandlineParser</text>
</a>
</g>
</g>
<!-- Node2&#45;&gt;Node3 -->
<g id="edge2" class="edge"><title>Node2&#45;&gt;Node3</title>
<path fill="none" stroke="midnightblue" d="M160.079,-10C168.12,-10 177.232,-10 186.367,-10"/>
<polygon fill="midnightblue" stroke="midnightblue" points="159.875,-6.5001 149.875,-10 159.875,-13.5001 159.875,-6.5001"/>
</g>
</g>
</svg>
