<?xml version="1.0" encoding="UTF-8" standalone="no"?>
<!DOCTYPE svg PUBLIC "-//W3C//DTD SVG 1.1//EN"
 "http://www.w3.org/Graphics/SVG/1.1/DTD/svg11.dtd">
<!-- Generated by graphviz version 2.36.0 (20140111.2315)
 -->
<!-- Title: TTimerWorker Pages: 1 -->
<!--zoomable 500 -->
<svg id="main" version="1.1" xmlns="http://www.w3.org/2000/svg" xmlns:xlink="http://www.w3.org/1999/xlink" xml:space="preserve" onload="init(evt)">
<style type="text/css"><![CDATA[
.edge:hover path { stroke: red; }
.edge:hover polygon { stroke: red; fill: red; }
]]></style>
<script type="text/javascript"><![CDATA[
var edges = document.getElementsByTagName('g');
if (edges && edges.length) {
  for (var i=0;i<edges.length;i++) {
    if (edges[i].id.substr(0,4)=='edge') {
      edges[i].setAttribute('class','edge');
    }
  }
}
]]></script>
        <defs>
                <circle id="rim" cx="0" cy="0" r="7"/>
                <circle id="rim2" cx="0" cy="0" r="3.5"/>
                <g id="zoomPlus">
                        <use xlink:href="#rim" fill="#404040">
                                <set attributeName="fill" to="#808080" begin="zoomplus.mouseover" end="zoomplus.mouseout"/>
                        </use>
                        <path d="M-4,0h8M0,-4v8" fill="none" stroke="white" stroke-width="1.5" pointer-events="none"/>
                </g>
                <g id="zoomMin">
                        <use xlink:href="#rim" fill="#404040">
                                <set attributeName="fill" to="#808080" begin="zoomminus.mouseover" end="zoomminus.mouseout"/>
                        </use>
                        <path d="M-4,0h8" fill="none" stroke="white" stroke-width="1.5" pointer-events="none"/>
                </g>
                <g id="dirArrow">
                        <path fill="none" stroke="white" stroke-width="1.5" d="M0,-3.0v7 M-2.5,-0.5L0,-3.0L2.5,-0.5"/>
                </g>
               <g id="resetDef">
                       <use xlink:href="#rim2" fill="#404040">
                               <set attributeName="fill" to="#808080" begin="reset.mouseover" end="reset.mouseout"/>
                       </use>
               </g>
        </defs>

<script type="text/javascript">
var viewWidth = 548;
var viewHeight = 500;
var sectionId = 'dynsection-1';
</script>
<script xlink:href="../../svgpan.js"/>
<svg id="graph" class="graph">
<g id="viewport">
<title>TTimerWorker</title>
<polygon fill="white" stroke="none" points="-4,4 -4,-496 544,-496 544,4 -4,4"/>
<!-- Node1 -->
<g id="node1" class="node"><title>Node1</title>
<polygon fill="#bfbfbf" stroke="black" points="368,-240 368,-374 462,-374 462,-240 368,-240"/>
<text text-anchor="middle" x="415" y="-362" font-family="Helvetica,sans-Serif" font-size="10.00">TTimerWorker</text>
<polyline fill="none" stroke="black" points="368,-355 462,-355 "/>
<text text-anchor="start" x="376" y="-343" font-family="Helvetica,sans-Serif" font-size="10.00">&#45; gkLoopInterval</text>
<text text-anchor="start" x="376" y="-332" font-family="Helvetica,sans-Serif" font-size="10.00">&#45; gkStateRun</text>
<text text-anchor="start" x="376" y="-321" font-family="Helvetica,sans-Serif" font-size="10.00">&#45; gkStateStop</text>
<text text-anchor="start" x="376" y="-310" font-family="Helvetica,sans-Serif" font-size="10.00">&#45; gkStateWait</text>
<polyline fill="none" stroke="black" points="368,-303 462,-303 "/>
<text text-anchor="start" x="376" y="-291" font-family="Helvetica,sans-Serif" font-size="10.00">+ GetInterval()</text>
<text text-anchor="start" x="376" y="-280" font-family="Helvetica,sans-Serif" font-size="10.00">+ run()</text>
<text text-anchor="start" x="376" y="-269" font-family="Helvetica,sans-Serif" font-size="10.00">~ TTimerWorker()</text>
<text text-anchor="start" x="376" y="-258" font-family="Helvetica,sans-Serif" font-size="10.00">~ SetInterval()</text>
<text text-anchor="start" x="376" y="-247" font-family="Helvetica,sans-Serif" font-size="10.00">~ Stop()</text>
</g>
<!-- Node5 -->
<g id="node5" class="node"><title>Node5</title>
<g id="a_node5"><a xlink:href="../../d6/da9/classppm__java_1_1backend_1_1module_1_1timer_1_1_t_timer.html" target="_top" xlink:title="Emits a constant stream of IEvented#gkEventTimerTick events, on event per given interval. ">
<polygon fill="white" stroke="black" points="220.5,-1 220.5,-179 325.5,-179 325.5,-1 220.5,-1"/>
<text text-anchor="middle" x="273" y="-167" font-family="Helvetica,sans-Serif" font-size="10.00">TTimer</text>
<polyline fill="none" stroke="black" points="220.5,-160 325.5,-160 "/>
<text text-anchor="start" x="228.5" y="-148" font-family="Helvetica,sans-Serif" font-size="10.00">+ gkLoopIntervalMin</text>
<polyline fill="none" stroke="black" points="220.5,-141 325.5,-141 "/>
<text text-anchor="start" x="228.5" y="-129" font-family="Helvetica,sans-Serif" font-size="10.00">+ GetInterval()</text>
<text text-anchor="start" x="228.5" y="-118" font-family="Helvetica,sans-Serif" font-size="10.00">+ OnEvent()</text>
<text text-anchor="start" x="228.5" y="-107" font-family="Helvetica,sans-Serif" font-size="10.00">+ OnEvent()</text>
<text text-anchor="start" x="228.5" y="-96" font-family="Helvetica,sans-Serif" font-size="10.00">+ OnEvent()</text>
<text text-anchor="start" x="228.5" y="-85" font-family="Helvetica,sans-Serif" font-size="10.00">+ OnEvent()</text>
<text text-anchor="start" x="228.5" y="-74" font-family="Helvetica,sans-Serif" font-size="10.00">+ Start()</text>
<text text-anchor="start" x="228.5" y="-63" font-family="Helvetica,sans-Serif" font-size="10.00">+ Stop()</text>
<text text-anchor="start" x="228.5" y="-52" font-family="Helvetica,sans-Serif" font-size="10.00">+ CreateInstance()</text>
<text text-anchor="start" x="228.5" y="-41" font-family="Helvetica,sans-Serif" font-size="10.00">~ SendTimerEvent()</text>
<text text-anchor="start" x="228.5" y="-30" font-family="Helvetica,sans-Serif" font-size="10.00"># _Register()</text>
<text text-anchor="start" x="228.5" y="-19" font-family="Helvetica,sans-Serif" font-size="10.00">&#45; TTimer()</text>
<text text-anchor="start" x="228.5" y="-8" font-family="Helvetica,sans-Serif" font-size="10.00">&#45; _GetSaneInterval()</text>
</a>
</g>
</g>
<!-- Node1&#45;&gt;Node5 -->
<g id="edge8" class="edge"><title>Node1&#45;&gt;Node5</title>
<path fill="none" stroke="#404040" d="M370.824,-239.971C367.027,-235.738 363.073,-231.698 359,-228 347.204,-217.291 338.729,-221.778 328,-210 322.322,-203.767 317.136,-196.847 312.418,-189.568"/>
<polygon fill="none" stroke="#404040" points="312.277,-189.336 305.747,-186.278 306.058,-179.073 312.588,-182.131 312.277,-189.336"/>
<text text-anchor="middle" x="348.5" y="-201.5" font-family="Helvetica,sans-Serif" font-size="10.00"> &#45;fWorker</text>
</g>
<!-- Node2 -->
<g id="node2" class="node"><title>Node2</title>
<polygon fill="white" stroke="#bfbfbf" points="311.5,-434.5 311.5,-491.5 358.5,-491.5 358.5,-434.5 311.5,-434.5"/>
<text text-anchor="middle" x="335" y="-479.5" font-family="Helvetica,sans-Serif" font-size="10.00">Thread</text>
<polyline fill="none" stroke="#bfbfbf" points="311.5,-472.5 358.5,-472.5 "/>
<text text-anchor="middle" x="335" y="-460.5" font-family="Helvetica,sans-Serif" font-size="10.00"> </text>
<polyline fill="none" stroke="#bfbfbf" points="311.5,-453.5 358.5,-453.5 "/>
<text text-anchor="middle" x="335" y="-441.5" font-family="Helvetica,sans-Serif" font-size="10.00"> </text>
</g>
<!-- Node2&#45;&gt;Node1 -->
<g id="edge1" class="edge"><title>Node2&#45;&gt;Node1</title>
<path fill="none" stroke="midnightblue" d="M354.057,-425.316C362.043,-409.943 371.579,-391.584 380.711,-374.006"/>
<polygon fill="none" stroke="midnightblue" points="350.806,-423.98 349.302,-434.468 357.018,-427.207 350.806,-423.98"/>
</g>
<!-- Node3 -->
<g id="node3" class="node"><title>Node3</title>
<polygon fill="white" stroke="#bfbfbf" points="376.5,-434.5 376.5,-491.5 453.5,-491.5 453.5,-434.5 376.5,-434.5"/>
<text text-anchor="middle" x="415" y="-479.5" font-family="Helvetica,sans-Serif" font-size="10.00">AtomicInteger</text>
<polyline fill="none" stroke="#bfbfbf" points="376.5,-472.5 453.5,-472.5 "/>
<text text-anchor="middle" x="415" y="-460.5" font-family="Helvetica,sans-Serif" font-size="10.00"> </text>
<polyline fill="none" stroke="#bfbfbf" points="376.5,-453.5 453.5,-453.5 "/>
<text text-anchor="middle" x="415" y="-441.5" font-family="Helvetica,sans-Serif" font-size="10.00"> </text>
</g>
<!-- Node3&#45;&gt;Node1 -->
<g id="edge2" class="edge"><title>Node3&#45;&gt;Node1</title>
<path fill="none" stroke="#404040" d="M415,-434.468C415,-420.761 415,-403.426 415,-386.022"/>
<polygon fill="none" stroke="#404040" points="415,-386.006 411,-380.006 415,-374.006 419,-380.006 415,-386.006"/>
<text text-anchor="middle" x="431.5" y="-407.5" font-family="Helvetica,sans-Serif" font-size="10.00"> &#45;fState</text>
</g>
<!-- Node4 -->
<g id="node4" class="node"><title>Node4</title>
<polygon fill="white" stroke="#bfbfbf" points="472,-434.5 472,-491.5 540,-491.5 540,-434.5 472,-434.5"/>
<text text-anchor="middle" x="506" y="-479.5" font-family="Helvetica,sans-Serif" font-size="10.00">AtomicLong</text>
<polyline fill="none" stroke="#bfbfbf" points="472,-472.5 540,-472.5 "/>
<text text-anchor="middle" x="506" y="-460.5" font-family="Helvetica,sans-Serif" font-size="10.00"> </text>
<polyline fill="none" stroke="#bfbfbf" points="472,-453.5 540,-453.5 "/>
<text text-anchor="middle" x="506" y="-441.5" font-family="Helvetica,sans-Serif" font-size="10.00"> </text>
</g>
<!-- Node4&#45;&gt;Node1 -->
<g id="edge3" class="edge"><title>Node4&#45;&gt;Node1</title>
<path fill="none" stroke="#404040" d="M489.731,-434.468C481.398,-420.365 470.796,-402.423 460.214,-384.516"/>
<polygon fill="none" stroke="#404040" points="460.108,-384.337 453.612,-381.207 454.004,-374.006 460.5,-377.137 460.108,-384.337"/>
<text text-anchor="middle" x="503.5" y="-407.5" font-family="Helvetica,sans-Serif" font-size="10.00"> &#45;fIntervalMs</text>
</g>
<!-- Node5&#45;&gt;Node1 -->
<g id="edge4" class="edge"><title>Node5&#45;&gt;Node1</title>
<path fill="none" stroke="#404040" d="M325.618,-139.392C342.337,-156.701 359.873,-177.12 373,-198 379,-207.544 384.386,-218.084 389.138,-228.727"/>
<polygon fill="none" stroke="#404040" points="389.16,-228.778 395.191,-232.731 393.861,-239.818 387.83,-235.865 389.16,-228.778"/>
<text text-anchor="middle" x="394.5" y="-201.5" font-family="Helvetica,sans-Serif" font-size="10.00"> &#45;fHost</text>
</g>
<!-- Node6 -->
<g id="node6" class="node"><title>Node6</title>
<g id="a_node6"><a xlink:href="../../de/dd1/classppm__java_1_1typelib_1_1_v_browseable.html" target="_top" xlink:title="Base class for all browseable objects. ">
<polygon fill="white" stroke="black" points="-0.5,-267.5 -0.5,-346.5 88.5,-346.5 88.5,-267.5 -0.5,-267.5"/>
<text text-anchor="middle" x="44" y="-334.5" font-family="Helvetica,sans-Serif" font-size="10.00">VBrowseable</text>
<polyline fill="none" stroke="black" points="-0.5,-327.5 88.5,-327.5 "/>
<text text-anchor="start" x="7.5" y="-315.5" font-family="Helvetica,sans-Serif" font-size="10.00">&#45; fID</text>
<polyline fill="none" stroke="black" points="-0.5,-308.5 88.5,-308.5 "/>
<text text-anchor="start" x="7.5" y="-296.5" font-family="Helvetica,sans-Serif" font-size="10.00">+ VBrowseable()</text>
<text text-anchor="start" x="7.5" y="-285.5" font-family="Helvetica,sans-Serif" font-size="10.00">+ GetID()</text>
<text text-anchor="start" x="7.5" y="-274.5" font-family="Helvetica,sans-Serif" font-size="10.00"># _Register()</text>
</a>
</g>
</g>
<!-- Node6&#45;&gt;Node5 -->
<g id="edge5" class="edge"><title>Node6&#45;&gt;Node5</title>
<path fill="none" stroke="midnightblue" d="M72.5375,-258.872C79.9097,-248.23 88.2534,-237.331 97,-228 134.074,-188.45 183.235,-151.185 220.175,-125.534"/>
<polygon fill="none" stroke="midnightblue" points="69.5326,-257.068 66.8443,-267.316 75.3366,-260.981 69.5326,-257.068"/>
</g>
<!-- Node7 -->
<g id="node7" class="node"><title>Node7</title>
<g id="a_node7"><a xlink:href="../../db/d44/interfaceppm__java_1_1typelib_1_1_i_controllable.html" target="_top" xlink:title="A module or construct which can receive some low level control commands (start/stop etc...">
<polygon fill="white" stroke="black" points="106.5,-273 106.5,-341 177.5,-341 177.5,-273 106.5,-273"/>
<text text-anchor="middle" x="142" y="-329" font-family="Helvetica,sans-Serif" font-size="10.00">IControllable</text>
<polyline fill="none" stroke="black" points="106.5,-322 177.5,-322 "/>
<text text-anchor="middle" x="142" y="-310" font-family="Helvetica,sans-Serif" font-size="10.00"> </text>
<polyline fill="none" stroke="black" points="106.5,-303 177.5,-303 "/>
<text text-anchor="start" x="114.5" y="-291" font-family="Helvetica,sans-Serif" font-size="10.00">+ Start()</text>
<text text-anchor="start" x="114.5" y="-280" font-family="Helvetica,sans-Serif" font-size="10.00">+ Stop()</text>
</a>
</g>
</g>
<!-- Node7&#45;&gt;Node5 -->
<g id="edge6" class="edge"><title>Node7&#45;&gt;Node5</title>
<path fill="none" stroke="midnightblue" d="M165.802,-264.08C172.564,-252.352 179.996,-239.634 187,-228 197.646,-210.317 209.268,-191.494 220.428,-173.645"/>
<polygon fill="none" stroke="midnightblue" points="162.727,-262.407 160.779,-272.821 168.796,-265.895 162.727,-262.407"/>
</g>
<!-- Node8 -->
<g id="node8" class="node"><title>Node8</title>
<g id="a_node8"><a xlink:href="../../df/dbb/interfaceppm__java_1_1typelib_1_1_i_evented.html" target="_top" xlink:title="Base interface for the event system. ">
<polygon fill="white" stroke="black" points="196,-229 196,-385 350,-385 350,-229 196,-229"/>
<text text-anchor="middle" x="273" y="-373" font-family="Helvetica,sans-Serif" font-size="10.00">IEvented</text>
<polyline fill="none" stroke="black" points="196,-366 350,-366 "/>
<text text-anchor="start" x="204" y="-354" font-family="Helvetica,sans-Serif" font-size="10.00">+ gkEventBufferNotifyOverrun</text>
<text text-anchor="start" x="204" y="-343" font-family="Helvetica,sans-Serif" font-size="10.00">+ gkEventBufferNotifyUnderrun</text>
<text text-anchor="start" x="204" y="-332" font-family="Helvetica,sans-Serif" font-size="10.00">+ gkEventStart</text>
<text text-anchor="start" x="204" y="-321" font-family="Helvetica,sans-Serif" font-size="10.00">+ gkEventStop</text>
<text text-anchor="start" x="204" y="-310" font-family="Helvetica,sans-Serif" font-size="10.00">+ gkEventTimerAdjustInterval</text>
<text text-anchor="start" x="204" y="-299" font-family="Helvetica,sans-Serif" font-size="10.00">+ gkEventTimerNotifyInterval</text>
<text text-anchor="start" x="204" y="-288" font-family="Helvetica,sans-Serif" font-size="10.00">+ gkEventTimerTick</text>
<polyline fill="none" stroke="black" points="196,-281 350,-281 "/>
<text text-anchor="start" x="204" y="-269" font-family="Helvetica,sans-Serif" font-size="10.00">+ OnEvent()</text>
<text text-anchor="start" x="204" y="-258" font-family="Helvetica,sans-Serif" font-size="10.00">+ OnEvent()</text>
<text text-anchor="start" x="204" y="-247" font-family="Helvetica,sans-Serif" font-size="10.00">+ OnEvent()</text>
<text text-anchor="start" x="204" y="-236" font-family="Helvetica,sans-Serif" font-size="10.00">+ OnEvent()</text>
</a>
</g>
</g>
<!-- Node8&#45;&gt;Node5 -->
<g id="edge7" class="edge"><title>Node8&#45;&gt;Node5</title>
<path fill="none" stroke="midnightblue" d="M273,-218.652C273,-205.636 273,-192.211 273,-179.178"/>
<polygon fill="none" stroke="midnightblue" points="269.5,-218.987 273,-228.987 276.5,-218.987 269.5,-218.987"/>
</g>
</g>
</svg>
        <g id="navigator" transform="translate(0 0)" fill="#404254">
                <rect fill="#f2f5e9" fill-opacity="0.5" stroke="#606060" stroke-width=".5" x="0" y="0" width="60" height="60"/>
                <use id="zoomplus" xlink:href="#zoomPlus" x="17" y="9" onmousedown="handleZoom(evt,'in')"/>
                <use id="zoomminus" xlink:href="#zoomMin" x="42" y="9" onmousedown="handleZoom(evt,'out')"/>
                <use id="reset" xlink:href="#resetDef" x="30" y="36" onmousedown="handleReset()"/>
                <g id="arrowUp" xlink:href="#dirArrow" transform="translate(30 24)" onmousedown="handlePan(0,-1)">
                  <use xlink:href="#rim" fill="#404040">
                        <set attributeName="fill" to="#808080" begin="arrowUp.mouseover" end="arrowUp.mouseout"/>
                  </use>
                  <path fill="none" stroke="white" stroke-width="1.5" d="M0,-3.0v7 M-2.5,-0.5L0,-3.0L2.5,-0.5"/>
                </g>
                <g id="arrowRight" xlink:href="#dirArrow" transform="rotate(90) translate(36 -43)" onmousedown="handlePan(1,0)">
                  <use xlink:href="#rim" fill="#404040">
                        <set attributeName="fill" to="#808080" begin="arrowRight.mouseover" end="arrowRight.mouseout"/>
                  </use>
                  <path fill="none" stroke="white" stroke-width="1.5" d="M0,-3.0v7 M-2.5,-0.5L0,-3.0L2.5,-0.5"/>
                </g>
                <g id="arrowDown" xlink:href="#dirArrow" transform="rotate(180) translate(-30 -48)" onmousedown="handlePan(0,1)">
                  <use xlink:href="#rim" fill="#404040">
                        <set attributeName="fill" to="#808080" begin="arrowDown.mouseover" end="arrowDown.mouseout"/>
                  </use>
                  <path fill="none" stroke="white" stroke-width="1.5" d="M0,-3.0v7 M-2.5,-0.5L0,-3.0L2.5,-0.5"/>
                </g>
                <g id="arrowLeft" xlink:href="#dirArrow" transform="rotate(270) translate(-36 17)" onmousedown="handlePan(-1,0)">
                  <use xlink:href="#rim" fill="#404040">
                        <set attributeName="fill" to="#808080" begin="arrowLeft.mouseover" end="arrowLeft.mouseout"/>
                  </use>
                  <path fill="none" stroke="white" stroke-width="1.5" d="M0,-3.0v7 M-2.5,-0.5L0,-3.0L2.5,-0.5"/>
                </g>
        </g>
        <svg viewBox="0 0 15 15" width="100%" height="30px" preserveAspectRatio="xMaxYMin meet">
         <g id="arrow_out" transform="scale(0.3 0.3)">
          <a xlink:href="classppm__java_1_1backend_1_1module_1_1timer_1_1_t_timer_worker__coll__graph_org.svg" target="_base">
           <rect id="button" ry="5" rx="5" y="6" x="6" height="38" width="38"
                fill="#f2f5e9" fill-opacity="0.5" stroke="#606060" stroke-width="1.0"/>
           <path id="arrow"
             d="M 11.500037,31.436501 C 11.940474,20.09759 22.043105,11.32322 32.158766,21.979434 L 37.068811,17.246167 C 37.068811,17.246167 37.088388,32 37.088388,32 L 22.160133,31.978069 C 22.160133,31.978069 26.997745,27.140456 26.997745,27.140456 C 18.528582,18.264221 13.291696,25.230495 11.500037,31.436501 z"
             style="fill:#404040;"/>
          </a>
         </g>
        </svg>
</svg>
