<?xml version="1.0" encoding="UTF-8" standalone="no"?>
<!DOCTYPE svg PUBLIC "-//W3C//DTD SVG 1.1//EN"
 "http://www.w3.org/Graphics/SVG/1.1/DTD/svg11.dtd">
<!-- Generated by graphviz version 2.36.0 (20140111.2315)
 -->
<!-- Title: TNodePeakEstimator Pages: 1 -->
<svg width="205pt" height="570pt"
 viewBox="0.00 0.00 205.00 570.00" xmlns="http://www.w3.org/2000/svg" xmlns:xlink="http://www.w3.org/1999/xlink">
<g id="graph0" class="graph" transform="scale(1 1) rotate(0) translate(4 566)">
<title>TNodePeakEstimator</title>
<polygon fill="white" stroke="none" points="-4,4 -4,-566 201,-566 201,4 -4,4"/>
<!-- Node1 -->
<g id="node1" class="node"><title>Node1</title>
<polygon fill="#bfbfbf" stroke="black" points="46,-1 46,-135 168,-135 168,-1 46,-1"/>
<text text-anchor="middle" x="107" y="-123" font-family="Helvetica,sans-Serif" font-size="10.00">TNodePeakEstimator</text>
<polyline fill="none" stroke="black" points="46,-116 168,-116 "/>
<text text-anchor="start" x="54" y="-104" font-family="Helvetica,sans-Serif" font-size="10.00">&#45; fPeakLast</text>
<text text-anchor="start" x="54" y="-93" font-family="Helvetica,sans-Serif" font-size="10.00">&#45; fStats</text>
<polyline fill="none" stroke="black" points="46,-86 168,-86 "/>
<text text-anchor="start" x="54" y="-74" font-family="Helvetica,sans-Serif" font-size="10.00">+ CreatePort_In()</text>
<text text-anchor="start" x="54" y="-63" font-family="Helvetica,sans-Serif" font-size="10.00">+ CreatePort_Out()</text>
<text text-anchor="start" x="54" y="-52" font-family="Helvetica,sans-Serif" font-size="10.00">+ StatsGet()</text>
<text text-anchor="start" x="54" y="-41" font-family="Helvetica,sans-Serif" font-size="10.00">+ CreateInstance()</text>
<text text-anchor="start" x="54" y="-30" font-family="Helvetica,sans-Serif" font-size="10.00">~ ReceivePacket()</text>
<text text-anchor="start" x="54" y="-19" font-family="Helvetica,sans-Serif" font-size="10.00"># _Register()</text>
<text text-anchor="start" x="54" y="-8" font-family="Helvetica,sans-Serif" font-size="10.00">&#45; TNodePeakEstimator()</text>
</g>
<!-- Node2 -->
<g id="node2" class="node"><title>Node2</title>
<g id="a_node2"><a xlink:href="../../d5/d6a/classppm__java_1_1typelib_1_1_v_audio_processor.html" target="_top" xlink:title="Base class for all modules processing audio samples. ">
<polygon fill="white" stroke="black" points="-0.5,-173 -0.5,-351 106.5,-351 106.5,-173 -0.5,-173"/>
<text text-anchor="middle" x="53" y="-339" font-family="Helvetica,sans-Serif" font-size="10.00">VAudioProcessor</text>
<polyline fill="none" stroke="black" points="-0.5,-332 106.5,-332 "/>
<text text-anchor="start" x="7.5" y="-320" font-family="Helvetica,sans-Serif" font-size="10.00">&#45; fPortsIn</text>
<text text-anchor="start" x="7.5" y="-309" font-family="Helvetica,sans-Serif" font-size="10.00">&#45; fPortsOut</text>
<polyline fill="none" stroke="black" points="-0.5,-302 106.5,-302 "/>
<text text-anchor="start" x="7.5" y="-290" font-family="Helvetica,sans-Serif" font-size="10.00">+ VAudioProcessor()</text>
<text text-anchor="start" x="7.5" y="-279" font-family="Helvetica,sans-Serif" font-size="10.00">+ CreatePort_In()</text>
<text text-anchor="start" x="7.5" y="-268" font-family="Helvetica,sans-Serif" font-size="10.00">+ CreatePort_Out()</text>
<text text-anchor="start" x="7.5" y="-257" font-family="Helvetica,sans-Serif" font-size="10.00">+ GetNumPortsIn()</text>
<text text-anchor="start" x="7.5" y="-246" font-family="Helvetica,sans-Serif" font-size="10.00">+ GetNumPortsOut()</text>
<text text-anchor="start" x="7.5" y="-235" font-family="Helvetica,sans-Serif" font-size="10.00">+ GetPortIn()</text>
<text text-anchor="start" x="7.5" y="-224" font-family="Helvetica,sans-Serif" font-size="10.00">+ GetPortIn()</text>
<text text-anchor="start" x="7.5" y="-213" font-family="Helvetica,sans-Serif" font-size="10.00">+ GetPortOut()</text>
<text text-anchor="start" x="7.5" y="-202" font-family="Helvetica,sans-Serif" font-size="10.00">+ GetPortOut()</text>
<text text-anchor="start" x="7.5" y="-191" font-family="Helvetica,sans-Serif" font-size="10.00"># AddPortIn()</text>
<text text-anchor="start" x="7.5" y="-180" font-family="Helvetica,sans-Serif" font-size="10.00"># AddPortOut()</text>
</a>
</g>
</g>
<!-- Node2&#45;&gt;Node1 -->
<g id="edge1" class="edge"><title>Node2&#45;&gt;Node1</title>
<path fill="none" stroke="midnightblue" d="M80.5597,-163.01C83.2217,-153.545 85.8765,-144.106 88.4204,-135.061"/>
<polygon fill="none" stroke="midnightblue" points="77.1256,-162.293 77.7874,-172.867 83.8642,-164.188 77.1256,-162.293"/>
</g>
<!-- Node3 -->
<g id="node3" class="node"><title>Node3</title>
<g id="a_node3"><a xlink:href="../../d1/db3/classppm__java_1_1typelib_1_1_v_audio_object.html" target="_top" xlink:title="Base class for all browseable audio objects. ">
<polygon fill="white" stroke="black" points="7,-388.5 7,-445.5 99,-445.5 99,-388.5 7,-388.5"/>
<text text-anchor="middle" x="53" y="-433.5" font-family="Helvetica,sans-Serif" font-size="10.00">VAudioObject</text>
<polyline fill="none" stroke="black" points="7,-426.5 99,-426.5 "/>
<text text-anchor="middle" x="53" y="-414.5" font-family="Helvetica,sans-Serif" font-size="10.00"> </text>
<polyline fill="none" stroke="black" points="7,-407.5 99,-407.5 "/>
<text text-anchor="start" x="15" y="-395.5" font-family="Helvetica,sans-Serif" font-size="10.00">+ VAudioObject()</text>
</a>
</g>
</g>
<!-- Node3&#45;&gt;Node2 -->
<g id="edge2" class="edge"><title>Node3&#45;&gt;Node2</title>
<path fill="none" stroke="midnightblue" d="M53,-378.166C53,-369.781 53,-360.554 53,-351.086"/>
<polygon fill="none" stroke="midnightblue" points="49.5001,-378.293 53,-388.293 56.5001,-378.293 49.5001,-378.293"/>
</g>
<!-- Node4 -->
<g id="node4" class="node"><title>Node4</title>
<g id="a_node4"><a xlink:href="../../de/dd1/classppm__java_1_1typelib_1_1_v_browseable.html" target="_top" xlink:title="Base class for all browseable objects. ">
<polygon fill="white" stroke="black" points="8.5,-482.5 8.5,-561.5 97.5,-561.5 97.5,-482.5 8.5,-482.5"/>
<text text-anchor="middle" x="53" y="-549.5" font-family="Helvetica,sans-Serif" font-size="10.00">VBrowseable</text>
<polyline fill="none" stroke="black" points="8.5,-542.5 97.5,-542.5 "/>
<text text-anchor="start" x="16.5" y="-530.5" font-family="Helvetica,sans-Serif" font-size="10.00">&#45; fID</text>
<polyline fill="none" stroke="black" points="8.5,-523.5 97.5,-523.5 "/>
<text text-anchor="start" x="16.5" y="-511.5" font-family="Helvetica,sans-Serif" font-size="10.00">+ VBrowseable()</text>
<text text-anchor="start" x="16.5" y="-500.5" font-family="Helvetica,sans-Serif" font-size="10.00">+ GetID()</text>
<text text-anchor="start" x="16.5" y="-489.5" font-family="Helvetica,sans-Serif" font-size="10.00"># _Register()</text>
</a>
</g>
</g>
<!-- Node4&#45;&gt;Node3 -->
<g id="edge3" class="edge"><title>Node4&#45;&gt;Node3</title>
<path fill="none" stroke="midnightblue" d="M53,-472.163C53,-463.04 53,-453.806 53,-445.61"/>
<polygon fill="none" stroke="midnightblue" points="49.5001,-472.354 53,-482.354 56.5001,-472.354 49.5001,-472.354"/>
</g>
<!-- Node5 -->
<g id="node5" class="node"><title>Node5</title>
<g id="a_node5"><a xlink:href="../../dc/dc0/interfaceppm__java_1_1typelib_1_1_i_stat_enabled.html" target="_top" xlink:title="Interface for an object that supports runtime statistics. ">
<polygon fill="white" stroke="black" points="124.5,-233.5 124.5,-290.5 197.5,-290.5 197.5,-233.5 124.5,-233.5"/>
<text text-anchor="middle" x="161" y="-278.5" font-family="Helvetica,sans-Serif" font-size="10.00">IStatEnabled</text>
<polyline fill="none" stroke="black" points="124.5,-271.5 197.5,-271.5 "/>
<text text-anchor="middle" x="161" y="-259.5" font-family="Helvetica,sans-Serif" font-size="10.00"> </text>
<polyline fill="none" stroke="black" points="124.5,-252.5 197.5,-252.5 "/>
<text text-anchor="start" x="132.5" y="-240.5" font-family="Helvetica,sans-Serif" font-size="10.00">+ StatsGet()</text>
</a>
</g>
</g>
<!-- Node5&#45;&gt;Node1 -->
<g id="edge4" class="edge"><title>Node5&#45;&gt;Node1</title>
<path fill="none" stroke="midnightblue" d="M150.5,-223.666C143.457,-198.624 133.984,-164.944 125.677,-135.407"/>
<polygon fill="none" stroke="midnightblue" points="147.186,-224.812 153.263,-233.491 153.925,-222.917 147.186,-224.812"/>
</g>
</g>
</svg>
