<?xml version="1.0" encoding="UTF-8" standalone="no"?>
<!DOCTYPE svg PUBLIC "-//W3C//DTD SVG 1.1//EN"
 "http://www.w3.org/Graphics/SVG/1.1/DTD/svg11.dtd">
<!-- Generated by graphviz version 2.36.0 (20140111.2315)
 -->
<!-- Title: TNodeIntegrator_PPMBallistics_Stats Pages: 1 -->
<!--zoomable 812 -->
<svg id="main" version="1.1" xmlns="http://www.w3.org/2000/svg" xmlns:xlink="http://www.w3.org/1999/xlink" xml:space="preserve" onload="init(evt)">
<style type="text/css"><![CDATA[
.edge:hover path { stroke: red; }
.edge:hover polygon { stroke: red; fill: red; }
]]></style>
<script type="text/javascript"><![CDATA[
var edges = document.getElementsByTagName('g');
if (edges && edges.length) {
  for (var i=0;i<edges.length;i++) {
    if (edges[i].id.substr(0,4)=='edge') {
      edges[i].setAttribute('class','edge');
    }
  }
}
]]></script>
        <defs>
                <circle id="rim" cx="0" cy="0" r="7"/>
                <circle id="rim2" cx="0" cy="0" r="3.5"/>
                <g id="zoomPlus">
                        <use xlink:href="#rim" fill="#404040">
                                <set attributeName="fill" to="#808080" begin="zoomplus.mouseover" end="zoomplus.mouseout"/>
                        </use>
                        <path d="M-4,0h8M0,-4v8" fill="none" stroke="white" stroke-width="1.5" pointer-events="none"/>
                </g>
                <g id="zoomMin">
                        <use xlink:href="#rim" fill="#404040">
                                <set attributeName="fill" to="#808080" begin="zoomminus.mouseover" end="zoomminus.mouseout"/>
                        </use>
                        <path d="M-4,0h8" fill="none" stroke="white" stroke-width="1.5" pointer-events="none"/>
                </g>
                <g id="dirArrow">
                        <path fill="none" stroke="white" stroke-width="1.5" d="M0,-3.0v7 M-2.5,-0.5L0,-3.0L2.5,-0.5"/>
                </g>
               <g id="resetDef">
                       <use xlink:href="#rim2" fill="#404040">
                               <set attributeName="fill" to="#808080" begin="reset.mouseover" end="reset.mouseout"/>
                       </use>
               </g>
        </defs>

<script type="text/javascript">
var viewWidth = 743;
var viewHeight = 812;
var sectionId = 'dynsection-1';
</script>
<script xlink:href="../../svgpan.js"/>
<svg id="graph" class="graph">
<g id="viewport">
<title>TNodeIntegrator_PPMBallistics_Stats</title>
<polygon fill="white" stroke="none" points="-4,4 -4,-808 739,-808 739,4 -4,4"/>
<!-- Node1 -->
<g id="node1" class="node"><title>Node1</title>
<polygon fill="#bfbfbf" stroke="black" points="520.5,-321 520.5,-455 683.5,-455 683.5,-321 520.5,-321"/>
<text text-anchor="start" x="528.5" y="-443" font-family="Helvetica,sans-Serif" font-size="10.00">TNodeIntegrator_PPMBallistics</text>
<text text-anchor="middle" x="602" y="-432" font-family="Helvetica,sans-Serif" font-size="10.00">_Stats</text>
<polyline fill="none" stroke="black" points="520.5,-425 683.5,-425 "/>
<text text-anchor="middle" x="602" y="-413" font-family="Helvetica,sans-Serif" font-size="10.00"> </text>
<polyline fill="none" stroke="black" points="520.5,-406 683.5,-406 "/>
<text text-anchor="start" x="528.5" y="-394" font-family="Helvetica,sans-Serif" font-size="10.00">+ TNodeIntegrator_PPMBallistics</text>
<text text-anchor="start" x="528.5" y="-383" font-family="Helvetica,sans-Serif" font-size="10.00">_Stats()</text>
<text text-anchor="start" x="528.5" y="-372" font-family="Helvetica,sans-Serif" font-size="10.00">+ GetDumpStr()</text>
<text text-anchor="start" x="528.5" y="-361" font-family="Helvetica,sans-Serif" font-size="10.00">~ SetTimeCycle()</text>
<text text-anchor="start" x="528.5" y="-350" font-family="Helvetica,sans-Serif" font-size="10.00">~ SetValueDBActual()</text>
<text text-anchor="start" x="528.5" y="-339" font-family="Helvetica,sans-Serif" font-size="10.00">~ SetValueDBRef()</text>
<text text-anchor="start" x="528.5" y="-328" font-family="Helvetica,sans-Serif" font-size="10.00">&#45; _RecomputeDiff()</text>
</g>
<!-- Node3 -->
<g id="node3" class="node"><title>Node3</title>
<g id="a_node3"><a xlink:href="../../d2/d99/classppm__java_1_1backend_1_1module_1_1integrator_1_1_t_node_integrator___p_p_m_ballistics.html" target="_top" xlink:title="A stepwise integrator to implement PPM ballistics. ">
<polygon fill="white" stroke="black" points="342,-0.5 342,-255.5 508,-255.5 508,-0.5 342,-0.5"/>
<text text-anchor="middle" x="425" y="-243.5" font-family="Helvetica,sans-Serif" font-size="10.00">TNodeIntegrator_PPMBallistics</text>
<polyline fill="none" stroke="black" points="342,-236.5 508,-236.5 "/>
<text text-anchor="start" x="350" y="-224.5" font-family="Helvetica,sans-Serif" font-size="10.00">&#45; fHasNotBeenInitialized</text>
<text text-anchor="start" x="350" y="-213.5" font-family="Helvetica,sans-Serif" font-size="10.00">&#45; fTLast</text>
<text text-anchor="start" x="350" y="-202.5" font-family="Helvetica,sans-Serif" font-size="10.00">&#45; fValueDeltaFall</text>
<text text-anchor="start" x="350" y="-191.5" font-family="Helvetica,sans-Serif" font-size="10.00">&#45; fValueDeltaRise</text>
<text text-anchor="start" x="350" y="-180.5" font-family="Helvetica,sans-Serif" font-size="10.00">&#45; fVDB</text>
<text text-anchor="start" x="350" y="-169.5" font-family="Helvetica,sans-Serif" font-size="10.00">&#45; gkIntegrFallRangedB</text>
<text text-anchor="start" x="350" y="-158.5" font-family="Helvetica,sans-Serif" font-size="10.00">&#45; gkIntegrFallTime</text>
<text text-anchor="start" x="350" y="-147.5" font-family="Helvetica,sans-Serif" font-size="10.00">&#45; gkIntegrRiseRangedB</text>
<text text-anchor="start" x="350" y="-136.5" font-family="Helvetica,sans-Serif" font-size="10.00">&#45; gkIntegrRiseTime</text>
<polyline fill="none" stroke="black" points="342,-129.5 508,-129.5 "/>
<text text-anchor="start" x="350" y="-117.5" font-family="Helvetica,sans-Serif" font-size="10.00">+ CreatePort_In()</text>
<text text-anchor="start" x="350" y="-106.5" font-family="Helvetica,sans-Serif" font-size="10.00">+ CreatePort_Out()</text>
<text text-anchor="start" x="350" y="-95.5" font-family="Helvetica,sans-Serif" font-size="10.00">+ OnEvent()</text>
<text text-anchor="start" x="350" y="-84.5" font-family="Helvetica,sans-Serif" font-size="10.00">+ OnEvent()</text>
<text text-anchor="start" x="350" y="-73.5" font-family="Helvetica,sans-Serif" font-size="10.00">+ OnEvent()</text>
<text text-anchor="start" x="350" y="-62.5" font-family="Helvetica,sans-Serif" font-size="10.00">+ OnEvent()</text>
<text text-anchor="start" x="350" y="-51.5" font-family="Helvetica,sans-Serif" font-size="10.00">+ StatsGet()</text>
<text text-anchor="start" x="350" y="-40.5" font-family="Helvetica,sans-Serif" font-size="10.00">+ CreateInstance()</text>
<text text-anchor="start" x="350" y="-29.5" font-family="Helvetica,sans-Serif" font-size="10.00">~ SetRef()</text>
<text text-anchor="start" x="350" y="-18.5" font-family="Helvetica,sans-Serif" font-size="10.00"># _Register()</text>
<text text-anchor="start" x="350" y="-7.5" font-family="Helvetica,sans-Serif" font-size="10.00">&#45; TNodeIntegrator_PPMBallistics()</text>
</a>
</g>
</g>
<!-- Node1&#45;&gt;Node3 -->
<g id="edge10" class="edge"><title>Node1&#45;&gt;Node3</title>
<path fill="none" stroke="#404040" d="M530.735,-320.98C520.465,-309.824 510.509,-297.965 502,-286 497.555,-279.749 493.237,-273.203 489.064,-266.481"/>
<polygon fill="none" stroke="#404040" points="488.818,-266.071 482.296,-262.992 482.63,-255.789 489.151,-258.867 488.818,-266.071"/>
<text text-anchor="middle" x="518.5" y="-277.5" font-family="Helvetica,sans-Serif" font-size="10.00"> &#45;fStats</text>
</g>
<!-- Node2 -->
<g id="node2" class="node"><title>Node2</title>
<g id="a_node2"><a xlink:href="../../d7/d5a/interfaceppm__java_1_1typelib_1_1_i_stats.html" target="_top" xlink:title="Interface for a statistics record. ">
<polygon fill="white" stroke="black" points="531,-585.5 531,-642.5 617,-642.5 617,-585.5 531,-585.5"/>
<text text-anchor="middle" x="574" y="-630.5" font-family="Helvetica,sans-Serif" font-size="10.00">IStats</text>
<polyline fill="none" stroke="black" points="531,-623.5 617,-623.5 "/>
<text text-anchor="middle" x="574" y="-611.5" font-family="Helvetica,sans-Serif" font-size="10.00"> </text>
<polyline fill="none" stroke="black" points="531,-604.5 617,-604.5 "/>
<text text-anchor="start" x="539" y="-592.5" font-family="Helvetica,sans-Serif" font-size="10.00">+ GetDumpStr()</text>
</a>
</g>
</g>
<!-- Node2&#45;&gt;Node1 -->
<g id="edge1" class="edge"><title>Node2&#45;&gt;Node1</title>
<path fill="none" stroke="midnightblue" d="M578.745,-575.038C582.831,-542.355 588.821,-494.435 593.698,-455.415"/>
<polygon fill="none" stroke="midnightblue" points="575.257,-574.726 577.49,-585.083 582.203,-575.595 575.257,-574.726"/>
</g>
<!-- Node3&#45;&gt;Node1 -->
<g id="edge2" class="edge"><title>Node3&#45;&gt;Node1</title>
<path fill="none" stroke="#404040" d="M508.022,-230.482C518.803,-244.834 529.416,-259.607 539,-274 546.606,-285.423 554.171,-297.831 561.28,-310.102"/>
<polygon fill="none" stroke="#404040" points="561.45,-310.401 567.899,-313.629 567.399,-320.823 560.951,-317.595 561.45,-310.401"/>
<text text-anchor="middle" x="562.5" y="-277.5" font-family="Helvetica,sans-Serif" font-size="10.00"> &#45;fHost</text>
</g>
<!-- Node4 -->
<g id="node4" class="node"><title>Node4</title>
<g id="a_node4"><a xlink:href="../../d5/d6a/classppm__java_1_1typelib_1_1_v_audio_processor.html" target="_top" xlink:title="Base class for all modules processing audio samples. ">
<polygon fill="white" stroke="black" points="131.5,-304.5 131.5,-471.5 238.5,-471.5 238.5,-304.5 131.5,-304.5"/>
<text text-anchor="middle" x="185" y="-459.5" font-family="Helvetica,sans-Serif" font-size="10.00">VAudioProcessor</text>
<polyline fill="none" stroke="black" points="131.5,-452.5 238.5,-452.5 "/>
<text text-anchor="middle" x="185" y="-440.5" font-family="Helvetica,sans-Serif" font-size="10.00"> </text>
<polyline fill="none" stroke="black" points="131.5,-433.5 238.5,-433.5 "/>
<text text-anchor="start" x="139.5" y="-421.5" font-family="Helvetica,sans-Serif" font-size="10.00">+ VAudioProcessor()</text>
<text text-anchor="start" x="139.5" y="-410.5" font-family="Helvetica,sans-Serif" font-size="10.00">+ CreatePort_In()</text>
<text text-anchor="start" x="139.5" y="-399.5" font-family="Helvetica,sans-Serif" font-size="10.00">+ CreatePort_Out()</text>
<text text-anchor="start" x="139.5" y="-388.5" font-family="Helvetica,sans-Serif" font-size="10.00">+ GetNumPortsIn()</text>
<text text-anchor="start" x="139.5" y="-377.5" font-family="Helvetica,sans-Serif" font-size="10.00">+ GetNumPortsOut()</text>
<text text-anchor="start" x="139.5" y="-366.5" font-family="Helvetica,sans-Serif" font-size="10.00">+ GetPortIn()</text>
<text text-anchor="start" x="139.5" y="-355.5" font-family="Helvetica,sans-Serif" font-size="10.00">+ GetPortIn()</text>
<text text-anchor="start" x="139.5" y="-344.5" font-family="Helvetica,sans-Serif" font-size="10.00">+ GetPortOut()</text>
<text text-anchor="start" x="139.5" y="-333.5" font-family="Helvetica,sans-Serif" font-size="10.00">+ GetPortOut()</text>
<text text-anchor="start" x="139.5" y="-322.5" font-family="Helvetica,sans-Serif" font-size="10.00"># AddPortIn()</text>
<text text-anchor="start" x="139.5" y="-311.5" font-family="Helvetica,sans-Serif" font-size="10.00"># AddPortOut()</text>
</a>
</g>
</g>
<!-- Node4&#45;&gt;Node3 -->
<g id="edge3" class="edge"><title>Node4&#45;&gt;Node3</title>
<path fill="none" stroke="midnightblue" d="M245.469,-305.764C245.979,-305.172 246.49,-304.584 247,-304 276.356,-270.375 310.905,-235.479 341.715,-205.777"/>
<polygon fill="none" stroke="midnightblue" points="242.602,-303.734 238.827,-313.634 247.951,-308.249 242.602,-303.734"/>
</g>
<!-- Node5 -->
<g id="node5" class="node"><title>Node5</title>
<g id="a_node5"><a xlink:href="../../d1/db3/classppm__java_1_1typelib_1_1_v_audio_object.html" target="_top" xlink:title="Base class for all browseable audio objects. ">
<polygon fill="white" stroke="black" points="0,-585.5 0,-642.5 92,-642.5 92,-585.5 0,-585.5"/>
<text text-anchor="middle" x="46" y="-630.5" font-family="Helvetica,sans-Serif" font-size="10.00">VAudioObject</text>
<polyline fill="none" stroke="black" points="0,-623.5 92,-623.5 "/>
<text text-anchor="middle" x="46" y="-611.5" font-family="Helvetica,sans-Serif" font-size="10.00"> </text>
<polyline fill="none" stroke="black" points="0,-604.5 92,-604.5 "/>
<text text-anchor="start" x="8" y="-592.5" font-family="Helvetica,sans-Serif" font-size="10.00">+ VAudioObject()</text>
</a>
</g>
</g>
<!-- Node5&#45;&gt;Node4 -->
<g id="edge4" class="edge"><title>Node5&#45;&gt;Node4</title>
<path fill="none" stroke="midnightblue" d="M68.7479,-576.341C86.2974,-548.06 111.262,-507.829 133.562,-471.893"/>
<polygon fill="none" stroke="midnightblue" points="65.6222,-574.741 63.3234,-585.083 71.5701,-578.432 65.6222,-574.741"/>
</g>
<!-- Node6 -->
<g id="node6" class="node"><title>Node6</title>
<g id="a_node6"><a xlink:href="../../de/dd1/classppm__java_1_1typelib_1_1_v_browseable.html" target="_top" xlink:title="Base class for all browseable objects. ">
<polygon fill="white" stroke="black" points="1.5,-724.5 1.5,-803.5 90.5,-803.5 90.5,-724.5 1.5,-724.5"/>
<text text-anchor="middle" x="46" y="-791.5" font-family="Helvetica,sans-Serif" font-size="10.00">VBrowseable</text>
<polyline fill="none" stroke="black" points="1.5,-784.5 90.5,-784.5 "/>
<text text-anchor="start" x="9.5" y="-772.5" font-family="Helvetica,sans-Serif" font-size="10.00">&#45; fID</text>
<polyline fill="none" stroke="black" points="1.5,-765.5 90.5,-765.5 "/>
<text text-anchor="start" x="9.5" y="-753.5" font-family="Helvetica,sans-Serif" font-size="10.00">+ VBrowseable()</text>
<text text-anchor="start" x="9.5" y="-742.5" font-family="Helvetica,sans-Serif" font-size="10.00">+ GetID()</text>
<text text-anchor="start" x="9.5" y="-731.5" font-family="Helvetica,sans-Serif" font-size="10.00"># _Register()</text>
</a>
</g>
</g>
<!-- Node6&#45;&gt;Node5 -->
<g id="edge5" class="edge"><title>Node6&#45;&gt;Node5</title>
<path fill="none" stroke="midnightblue" d="M46,-713.92C46,-690.306 46,-662.859 46,-642.876"/>
<polygon fill="none" stroke="midnightblue" points="42.5001,-714.115 46,-724.115 49.5001,-714.115 42.5001,-714.115"/>
</g>
<!-- Node7 -->
<g id="node7" class="node"><title>Node7</title>
<polygon fill="white" stroke="#bfbfbf" points="110,-580 110,-648 260,-648 260,-580 110,-580"/>
<text text-anchor="start" x="118" y="-636" font-family="Helvetica,sans-Serif" font-size="10.00">TArrayMap&lt; ppm_java.typelib.</text>
<text text-anchor="middle" x="185" y="-625" font-family="Helvetica,sans-Serif" font-size="10.00">VAudioPort_Output &gt;</text>
<polyline fill="none" stroke="#bfbfbf" points="110,-618 260,-618 "/>
<text text-anchor="middle" x="185" y="-606" font-family="Helvetica,sans-Serif" font-size="10.00"> </text>
<polyline fill="none" stroke="#bfbfbf" points="110,-599 260,-599 "/>
<text text-anchor="middle" x="185" y="-587" font-family="Helvetica,sans-Serif" font-size="10.00"> </text>
</g>
<!-- Node7&#45;&gt;Node4 -->
<g id="edge6" class="edge"><title>Node7&#45;&gt;Node4</title>
<path fill="none" stroke="#404040" d="M185,-579.948C185,-554.474 185,-517.914 185,-483.59"/>
<polygon fill="none" stroke="#404040" points="185,-483.564 181,-477.564 185,-471.564 189,-477.564 185,-483.564"/>
<text text-anchor="middle" x="209.5" y="-509.5" font-family="Helvetica,sans-Serif" font-size="10.00"> &#45;fPortsOut</text>
</g>
<!-- Node8 -->
<g id="node8" class="node"><title>Node8</title>
<polygon fill="white" stroke="#bfbfbf" points="278,-580 278,-648 428,-648 428,-580 278,-580"/>
<text text-anchor="start" x="286" y="-636" font-family="Helvetica,sans-Serif" font-size="10.00">TArrayMap&lt; ppm_java.typelib.</text>
<text text-anchor="middle" x="353" y="-625" font-family="Helvetica,sans-Serif" font-size="10.00">VAudioPort_Input &gt;</text>
<polyline fill="none" stroke="#bfbfbf" points="278,-618 428,-618 "/>
<text text-anchor="middle" x="353" y="-606" font-family="Helvetica,sans-Serif" font-size="10.00"> </text>
<polyline fill="none" stroke="#bfbfbf" points="278,-599 428,-599 "/>
<text text-anchor="middle" x="353" y="-587" font-family="Helvetica,sans-Serif" font-size="10.00"> </text>
</g>
<!-- Node8&#45;&gt;Node4 -->
<g id="edge7" class="edge"><title>Node8&#45;&gt;Node4</title>
<path fill="none" stroke="#404040" d="M328.127,-579.974C306.628,-551.413 274.732,-509.006 247,-472 246.663,-471.55 246.325,-471.099 245.986,-470.647"/>
<polygon fill="none" stroke="#404040" points="245.948,-470.596 239.15,-468.191 238.755,-460.99 245.553,-463.396 245.948,-470.596"/>
<text text-anchor="middle" x="314.5" y="-509.5" font-family="Helvetica,sans-Serif" font-size="10.00"> &#45;fPortsIn</text>
</g>
<!-- Node9 -->
<g id="node9" class="node"><title>Node9</title>
<g id="a_node9"><a xlink:href="../../dc/dc0/interfaceppm__java_1_1typelib_1_1_i_stat_enabled.html" target="_top" xlink:title="Interface for an object that supports runtime statistics. ">
<polygon fill="white" stroke="black" points="256.5,-359.5 256.5,-416.5 329.5,-416.5 329.5,-359.5 256.5,-359.5"/>
<text text-anchor="middle" x="293" y="-404.5" font-family="Helvetica,sans-Serif" font-size="10.00">IStatEnabled</text>
<polyline fill="none" stroke="black" points="256.5,-397.5 329.5,-397.5 "/>
<text text-anchor="middle" x="293" y="-385.5" font-family="Helvetica,sans-Serif" font-size="10.00"> </text>
<polyline fill="none" stroke="black" points="256.5,-378.5 329.5,-378.5 "/>
<text text-anchor="start" x="264.5" y="-366.5" font-family="Helvetica,sans-Serif" font-size="10.00">+ StatsGet()</text>
</a>
</g>
</g>
<!-- Node9&#45;&gt;Node3 -->
<g id="edge8" class="edge"><title>Node9&#45;&gt;Node3</title>
<path fill="none" stroke="midnightblue" d="M311.788,-350.277C324.618,-325.2 342.443,-290.361 360.157,-255.738"/>
<polygon fill="none" stroke="midnightblue" points="308.565,-348.893 307.126,-359.389 314.797,-352.081 308.565,-348.893"/>
</g>
<!-- Node10 -->
<g id="node10" class="node"><title>Node10</title>
<g id="a_node10"><a xlink:href="../../df/dbb/interfaceppm__java_1_1typelib_1_1_i_evented.html" target="_top" xlink:title="Base interface for the event system. ">
<polygon fill="white" stroke="black" points="348,-310 348,-466 502,-466 502,-310 348,-310"/>
<text text-anchor="middle" x="425" y="-454" font-family="Helvetica,sans-Serif" font-size="10.00">IEvented</text>
<polyline fill="none" stroke="black" points="348,-447 502,-447 "/>
<text text-anchor="start" x="356" y="-435" font-family="Helvetica,sans-Serif" font-size="10.00">+ gkEventBufferNotifyOverrun</text>
<text text-anchor="start" x="356" y="-424" font-family="Helvetica,sans-Serif" font-size="10.00">+ gkEventBufferNotifyUnderrun</text>
<text text-anchor="start" x="356" y="-413" font-family="Helvetica,sans-Serif" font-size="10.00">+ gkEventStart</text>
<text text-anchor="start" x="356" y="-402" font-family="Helvetica,sans-Serif" font-size="10.00">+ gkEventStop</text>
<text text-anchor="start" x="356" y="-391" font-family="Helvetica,sans-Serif" font-size="10.00">+ gkEventTimerAdjustInterval</text>
<text text-anchor="start" x="356" y="-380" font-family="Helvetica,sans-Serif" font-size="10.00">+ gkEventTimerNotifyInterval</text>
<text text-anchor="start" x="356" y="-369" font-family="Helvetica,sans-Serif" font-size="10.00">+ gkEventTimerTick</text>
<polyline fill="none" stroke="black" points="348,-362 502,-362 "/>
<text text-anchor="start" x="356" y="-350" font-family="Helvetica,sans-Serif" font-size="10.00">+ OnEvent()</text>
<text text-anchor="start" x="356" y="-339" font-family="Helvetica,sans-Serif" font-size="10.00">+ OnEvent()</text>
<text text-anchor="start" x="356" y="-328" font-family="Helvetica,sans-Serif" font-size="10.00">+ OnEvent()</text>
<text text-anchor="start" x="356" y="-317" font-family="Helvetica,sans-Serif" font-size="10.00">+ OnEvent()</text>
</a>
</g>
</g>
<!-- Node10&#45;&gt;Node3 -->
<g id="edge9" class="edge"><title>Node10&#45;&gt;Node3</title>
<path fill="none" stroke="midnightblue" d="M425,-299.78C425,-285.628 425,-270.724 425,-255.857"/>
<polygon fill="none" stroke="midnightblue" points="421.5,-299.941 425,-309.941 428.5,-299.941 421.5,-299.941"/>
</g>
<!-- Node11 -->
<g id="node11" class="node"><title>Node11</title>
<g id="a_node11"><a xlink:href="../../d2/df7/classppm__java_1_1util_1_1storage_1_1_t_atomic_double.html" target="_top" xlink:title="An thread safe double value. ">
<polygon fill="white" stroke="black" points="635.5,-552.5 635.5,-675.5 734.5,-675.5 734.5,-552.5 635.5,-552.5"/>
<text text-anchor="middle" x="685" y="-663.5" font-family="Helvetica,sans-Serif" font-size="10.00">TAtomicDouble</text>
<polyline fill="none" stroke="black" points="635.5,-656.5 734.5,-656.5 "/>
<text text-anchor="start" x="643.5" y="-644.5" font-family="Helvetica,sans-Serif" font-size="10.00">&#45; fValue</text>
<text text-anchor="start" x="643.5" y="-633.5" font-family="Helvetica,sans-Serif" font-size="10.00">&#45; gkLocked</text>
<text text-anchor="start" x="643.5" y="-622.5" font-family="Helvetica,sans-Serif" font-size="10.00">&#45; gkUnlocked</text>
<polyline fill="none" stroke="black" points="635.5,-615.5 734.5,-615.5 "/>
<text text-anchor="start" x="643.5" y="-603.5" font-family="Helvetica,sans-Serif" font-size="10.00">+ TAtomicDouble()</text>
<text text-anchor="start" x="643.5" y="-592.5" font-family="Helvetica,sans-Serif" font-size="10.00">+ Get()</text>
<text text-anchor="start" x="643.5" y="-581.5" font-family="Helvetica,sans-Serif" font-size="10.00">+ Set()</text>
<text text-anchor="start" x="643.5" y="-570.5" font-family="Helvetica,sans-Serif" font-size="10.00">&#45; _Lock()</text>
<text text-anchor="start" x="643.5" y="-559.5" font-family="Helvetica,sans-Serif" font-size="10.00">&#45; _Unlock()</text>
</a>
</g>
</g>
<!-- Node11&#45;&gt;Node1 -->
<g id="edge11" class="edge"><title>Node11&#45;&gt;Node1</title>
<path fill="none" stroke="#404040" d="M662.539,-552.382C652.75,-525.963 641.156,-494.673 630.747,-466.583"/>
<polygon fill="none" stroke="#404040" points="630.69,-466.428 624.854,-462.191 626.52,-455.175 632.356,-459.412 630.69,-466.428"/>
<text text-anchor="middle" x="690.5" y="-526" font-family="Helvetica,sans-Serif" font-size="10.00"> &#45;fTimeCycle</text>
<text text-anchor="middle" x="690.5" y="-515" font-family="Helvetica,sans-Serif" font-size="10.00">&#45;fValueDBRef</text>
<text text-anchor="middle" x="690.5" y="-504" font-family="Helvetica,sans-Serif" font-size="10.00">&#45;fValueErr</text>
<text text-anchor="middle" x="690.5" y="-493" font-family="Helvetica,sans-Serif" font-size="10.00">&#45;fValueDBActual</text>
</g>
<!-- Node12 -->
<g id="node12" class="node"><title>Node12</title>
<polygon fill="white" stroke="#bfbfbf" points="646.5,-735.5 646.5,-792.5 723.5,-792.5 723.5,-735.5 646.5,-735.5"/>
<text text-anchor="middle" x="685" y="-780.5" font-family="Helvetica,sans-Serif" font-size="10.00">AtomicInteger</text>
<polyline fill="none" stroke="#bfbfbf" points="646.5,-773.5 723.5,-773.5 "/>
<text text-anchor="middle" x="685" y="-761.5" font-family="Helvetica,sans-Serif" font-size="10.00"> </text>
<polyline fill="none" stroke="#bfbfbf" points="646.5,-754.5 723.5,-754.5 "/>
<text text-anchor="middle" x="685" y="-742.5" font-family="Helvetica,sans-Serif" font-size="10.00"> </text>
</g>
<!-- Node12&#45;&gt;Node11 -->
<g id="edge12" class="edge"><title>Node12&#45;&gt;Node11</title>
<path fill="none" stroke="#404040" d="M685,-735.162C685,-721.619 685,-704.641 685,-687.75"/>
<polygon fill="none" stroke="#404040" points="685,-687.516 681,-681.516 685,-675.516 689,-681.516 685,-687.516"/>
<text text-anchor="middle" x="700.5" y="-697.5" font-family="Helvetica,sans-Serif" font-size="10.00"> &#45;fLock</text>
</g>
</g>
</svg>
        <g id="navigator" transform="translate(0 0)" fill="#404254">
                <rect fill="#f2f5e9" fill-opacity="0.5" stroke="#606060" stroke-width=".5" x="0" y="0" width="60" height="60"/>
                <use id="zoomplus" xlink:href="#zoomPlus" x="17" y="9" onmousedown="handleZoom(evt,'in')"/>
                <use id="zoomminus" xlink:href="#zoomMin" x="42" y="9" onmousedown="handleZoom(evt,'out')"/>
                <use id="reset" xlink:href="#resetDef" x="30" y="36" onmousedown="handleReset()"/>
                <g id="arrowUp" xlink:href="#dirArrow" transform="translate(30 24)" onmousedown="handlePan(0,-1)">
                  <use xlink:href="#rim" fill="#404040">
                        <set attributeName="fill" to="#808080" begin="arrowUp.mouseover" end="arrowUp.mouseout"/>
                  </use>
                  <path fill="none" stroke="white" stroke-width="1.5" d="M0,-3.0v7 M-2.5,-0.5L0,-3.0L2.5,-0.5"/>
                </g>
                <g id="arrowRight" xlink:href="#dirArrow" transform="rotate(90) translate(36 -43)" onmousedown="handlePan(1,0)">
                  <use xlink:href="#rim" fill="#404040">
                        <set attributeName="fill" to="#808080" begin="arrowRight.mouseover" end="arrowRight.mouseout"/>
                  </use>
                  <path fill="none" stroke="white" stroke-width="1.5" d="M0,-3.0v7 M-2.5,-0.5L0,-3.0L2.5,-0.5"/>
                </g>
                <g id="arrowDown" xlink:href="#dirArrow" transform="rotate(180) translate(-30 -48)" onmousedown="handlePan(0,1)">
                  <use xlink:href="#rim" fill="#404040">
                        <set attributeName="fill" to="#808080" begin="arrowDown.mouseover" end="arrowDown.mouseout"/>
                  </use>
                  <path fill="none" stroke="white" stroke-width="1.5" d="M0,-3.0v7 M-2.5,-0.5L0,-3.0L2.5,-0.5"/>
                </g>
                <g id="arrowLeft" xlink:href="#dirArrow" transform="rotate(270) translate(-36 17)" onmousedown="handlePan(-1,0)">
                  <use xlink:href="#rim" fill="#404040">
                        <set attributeName="fill" to="#808080" begin="arrowLeft.mouseover" end="arrowLeft.mouseout"/>
                  </use>
                  <path fill="none" stroke="white" stroke-width="1.5" d="M0,-3.0v7 M-2.5,-0.5L0,-3.0L2.5,-0.5"/>
                </g>
        </g>
        <svg viewBox="0 0 15 15" width="100%" height="30px" preserveAspectRatio="xMaxYMin meet">
         <g id="arrow_out" transform="scale(0.3 0.3)">
          <a xlink:href="classppm__java_1_1backend_1_1module_1_1integrator_1_1_t_node_integrator___p_p_m_ballistics___stats__coll__graph_org.svg" target="_base">
           <rect id="button" ry="5" rx="5" y="6" x="6" height="38" width="38"
                fill="#f2f5e9" fill-opacity="0.5" stroke="#606060" stroke-width="1.0"/>
           <path id="arrow"
             d="M 11.500037,31.436501 C 11.940474,20.09759 22.043105,11.32322 32.158766,21.979434 L 37.068811,17.246167 C 37.068811,17.246167 37.088388,32 37.088388,32 L 22.160133,31.978069 C 22.160133,31.978069 26.997745,27.140456 26.997745,27.140456 C 18.528582,18.264221 13.291696,25.230495 11.500037,31.436501 z"
             style="fill:#404040;"/>
          </a>
         </g>
        </svg>
</svg>
