<?xml version="1.0" encoding="UTF-8" standalone="no"?>
<!DOCTYPE svg PUBLIC "-//W3C//DTD SVG 1.1//EN"
 "http://www.w3.org/Graphics/SVG/1.1/DTD/svg11.dtd">
<!-- Generated by graphviz version 2.36.0 (20140111.2315)
 -->
<!-- Title: TConsole_LinearGauge Pages: 1 -->
<svg width="200pt" height="894pt"
 viewBox="0.00 0.00 200.00 894.00" xmlns="http://www.w3.org/2000/svg" xmlns:xlink="http://www.w3.org/1999/xlink">
<g id="graph0" class="graph" transform="scale(1 1) rotate(0) translate(4 890)">
<title>TConsole_LinearGauge</title>
<polygon fill="white" stroke="none" points="-4,4 -4,-890 196,-890 196,4 -4,4"/>
<!-- Node1 -->
<g id="node1" class="node"><title>Node1</title>
<polygon fill="#bfbfbf" stroke="black" points="38,-0.5 38,-343.5 172,-343.5 172,-0.5 38,-0.5"/>
<text text-anchor="middle" x="105" y="-331.5" font-family="Helvetica,sans-Serif" font-size="10.00">TConsole_LinearGauge</text>
<polyline fill="none" stroke="black" points="38,-324.5 172,-324.5 "/>
<text text-anchor="start" x="46" y="-312.5" font-family="Helvetica,sans-Serif" font-size="10.00">~ gkNumSections</text>
<text text-anchor="start" x="46" y="-301.5" font-family="Helvetica,sans-Serif" font-size="10.00">&#45; fBarLen</text>
<text text-anchor="start" x="46" y="-290.5" font-family="Helvetica,sans-Serif" font-size="10.00">&#45; fEmptyBar</text>
<text text-anchor="start" x="46" y="-279.5" font-family="Helvetica,sans-Serif" font-size="10.00">&#45; fFramebar</text>
<text text-anchor="start" x="46" y="-268.5" font-family="Helvetica,sans-Serif" font-size="10.00">&#45; fMeterL</text>
<text text-anchor="start" x="46" y="-257.5" font-family="Helvetica,sans-Serif" font-size="10.00">&#45; fMeterR</text>
<text text-anchor="start" x="46" y="-246.5" font-family="Helvetica,sans-Serif" font-size="10.00">&#45; fNumBar</text>
<text text-anchor="start" x="46" y="-235.5" font-family="Helvetica,sans-Serif" font-size="10.00">&#45; fNumColsPerSection</text>
<text text-anchor="start" x="46" y="-224.5" font-family="Helvetica,sans-Serif" font-size="10.00">&#45; fRefreshTimer</text>
<text text-anchor="start" x="46" y="-213.5" font-family="Helvetica,sans-Serif" font-size="10.00">&#45; gkAnsiCursorPosBottom</text>
<text text-anchor="start" x="46" y="-202.5" font-family="Helvetica,sans-Serif" font-size="10.00">&#45; gkAnsiCursorPosTop</text>
<text text-anchor="start" x="46" y="-191.5" font-family="Helvetica,sans-Serif" font-size="10.00">&#45; gkAnsiCursorPosMeterL</text>
<text text-anchor="start" x="46" y="-180.5" font-family="Helvetica,sans-Serif" font-size="10.00">&#45; gkAnsiCursorPosMeterR</text>
<text text-anchor="start" x="46" y="-169.5" font-family="Helvetica,sans-Serif" font-size="10.00">&#45; gkAnsiScreenClear</text>
<text text-anchor="start" x="46" y="-158.5" font-family="Helvetica,sans-Serif" font-size="10.00">&#45; gkBarLenMax</text>
<text text-anchor="start" x="46" y="-147.5" font-family="Helvetica,sans-Serif" font-size="10.00">&#45; gkBarLenMin</text>
<text text-anchor="start" x="46" y="-136.5" font-family="Helvetica,sans-Serif" font-size="10.00">&#45; gkRefreshInterval</text>
<text text-anchor="start" x="46" y="-125.5" font-family="Helvetica,sans-Serif" font-size="10.00">&#45; gkTickmarkChar</text>
<polyline fill="none" stroke="black" points="38,-118.5 172,-118.5 "/>
<text text-anchor="start" x="46" y="-106.5" font-family="Helvetica,sans-Serif" font-size="10.00">+ TConsole_LinearGauge()</text>
<text text-anchor="start" x="46" y="-95.5" font-family="Helvetica,sans-Serif" font-size="10.00">+ CreatePort_In()</text>
<text text-anchor="start" x="46" y="-84.5" font-family="Helvetica,sans-Serif" font-size="10.00">+ Start()</text>
<text text-anchor="start" x="46" y="-73.5" font-family="Helvetica,sans-Serif" font-size="10.00">+ Stop()</text>
<text text-anchor="start" x="46" y="-62.5" font-family="Helvetica,sans-Serif" font-size="10.00">+ CreateInstance()</text>
<text text-anchor="start" x="46" y="-51.5" font-family="Helvetica,sans-Serif" font-size="10.00">~ _Receive()</text>
<text text-anchor="start" x="46" y="-40.5" font-family="Helvetica,sans-Serif" font-size="10.00"># _Register()</text>
<text text-anchor="start" x="46" y="-29.5" font-family="Helvetica,sans-Serif" font-size="10.00">&#45; _Init()</text>
<text text-anchor="start" x="46" y="-18.5" font-family="Helvetica,sans-Serif" font-size="10.00">&#45; _RefreshFrame()</text>
<text text-anchor="start" x="46" y="-7.5" font-family="Helvetica,sans-Serif" font-size="10.00">&#45; _RefreshUI()</text>
</g>
<!-- Node2 -->
<g id="node2" class="node"><title>Node2</title>
<g id="a_node2"><a xlink:href="../../da/d04/classppm__java_1_1typelib_1_1_v_frontend.html" target="_top" xlink:title="Base class for a front end. ">
<polygon fill="white" stroke="black" points="3,-380.5 3,-459.5 103,-459.5 103,-380.5 3,-380.5"/>
<text text-anchor="middle" x="53" y="-447.5" font-family="Helvetica,sans-Serif" font-size="10.00">VFrontend</text>
<polyline fill="none" stroke="black" points="3,-440.5 103,-440.5 "/>
<text text-anchor="middle" x="53" y="-428.5" font-family="Helvetica,sans-Serif" font-size="10.00"> </text>
<polyline fill="none" stroke="black" points="3,-421.5 103,-421.5 "/>
<text text-anchor="start" x="11" y="-409.5" font-family="Helvetica,sans-Serif" font-size="10.00">+ VFrontend()</text>
<text text-anchor="start" x="11" y="-398.5" font-family="Helvetica,sans-Serif" font-size="10.00">+ CreatePort_Out()</text>
<text text-anchor="start" x="11" y="-387.5" font-family="Helvetica,sans-Serif" font-size="10.00"># _OnTerminate()</text>
</a>
</g>
</g>
<!-- Node2&#45;&gt;Node1 -->
<g id="edge1" class="edge"><title>Node2&#45;&gt;Node1</title>
<path fill="none" stroke="midnightblue" d="M63.2513,-370.503C65.0139,-362.165 66.9315,-353.093 68.944,-343.572"/>
<polygon fill="none" stroke="midnightblue" points="59.8261,-369.784 61.1822,-380.292 66.6747,-371.232 59.8261,-369.784"/>
</g>
<!-- Node3 -->
<g id="node3" class="node"><title>Node3</title>
<g id="a_node3"><a xlink:href="../../d5/d6a/classppm__java_1_1typelib_1_1_v_audio_processor.html" target="_top" xlink:title="Base class for all modules processing audio samples. ">
<polygon fill="white" stroke="black" points="-0.5,-497 -0.5,-675 106.5,-675 106.5,-497 -0.5,-497"/>
<text text-anchor="middle" x="53" y="-663" font-family="Helvetica,sans-Serif" font-size="10.00">VAudioProcessor</text>
<polyline fill="none" stroke="black" points="-0.5,-656 106.5,-656 "/>
<text text-anchor="start" x="7.5" y="-644" font-family="Helvetica,sans-Serif" font-size="10.00">&#45; fPortsIn</text>
<text text-anchor="start" x="7.5" y="-633" font-family="Helvetica,sans-Serif" font-size="10.00">&#45; fPortsOut</text>
<polyline fill="none" stroke="black" points="-0.5,-626 106.5,-626 "/>
<text text-anchor="start" x="7.5" y="-614" font-family="Helvetica,sans-Serif" font-size="10.00">+ VAudioProcessor()</text>
<text text-anchor="start" x="7.5" y="-603" font-family="Helvetica,sans-Serif" font-size="10.00">+ CreatePort_In()</text>
<text text-anchor="start" x="7.5" y="-592" font-family="Helvetica,sans-Serif" font-size="10.00">+ CreatePort_Out()</text>
<text text-anchor="start" x="7.5" y="-581" font-family="Helvetica,sans-Serif" font-size="10.00">+ GetNumPortsIn()</text>
<text text-anchor="start" x="7.5" y="-570" font-family="Helvetica,sans-Serif" font-size="10.00">+ GetNumPortsOut()</text>
<text text-anchor="start" x="7.5" y="-559" font-family="Helvetica,sans-Serif" font-size="10.00">+ GetPortIn()</text>
<text text-anchor="start" x="7.5" y="-548" font-family="Helvetica,sans-Serif" font-size="10.00">+ GetPortIn()</text>
<text text-anchor="start" x="7.5" y="-537" font-family="Helvetica,sans-Serif" font-size="10.00">+ GetPortOut()</text>
<text text-anchor="start" x="7.5" y="-526" font-family="Helvetica,sans-Serif" font-size="10.00">+ GetPortOut()</text>
<text text-anchor="start" x="7.5" y="-515" font-family="Helvetica,sans-Serif" font-size="10.00"># AddPortIn()</text>
<text text-anchor="start" x="7.5" y="-504" font-family="Helvetica,sans-Serif" font-size="10.00"># AddPortOut()</text>
</a>
</g>
</g>
<!-- Node3&#45;&gt;Node2 -->
<g id="edge2" class="edge"><title>Node3&#45;&gt;Node2</title>
<path fill="none" stroke="midnightblue" d="M53,-486.738C53,-477.207 53,-467.98 53,-459.603"/>
<polygon fill="none" stroke="midnightblue" points="49.5001,-486.759 53,-496.759 56.5001,-486.759 49.5001,-486.759"/>
</g>
<!-- Node4 -->
<g id="node4" class="node"><title>Node4</title>
<g id="a_node4"><a xlink:href="../../d1/db3/classppm__java_1_1typelib_1_1_v_audio_object.html" target="_top" xlink:title="Base class for all browseable audio objects. ">
<polygon fill="white" stroke="black" points="7,-712.5 7,-769.5 99,-769.5 99,-712.5 7,-712.5"/>
<text text-anchor="middle" x="53" y="-757.5" font-family="Helvetica,sans-Serif" font-size="10.00">VAudioObject</text>
<polyline fill="none" stroke="black" points="7,-750.5 99,-750.5 "/>
<text text-anchor="middle" x="53" y="-738.5" font-family="Helvetica,sans-Serif" font-size="10.00"> </text>
<polyline fill="none" stroke="black" points="7,-731.5 99,-731.5 "/>
<text text-anchor="start" x="15" y="-719.5" font-family="Helvetica,sans-Serif" font-size="10.00">+ VAudioObject()</text>
</a>
</g>
</g>
<!-- Node4&#45;&gt;Node3 -->
<g id="edge3" class="edge"><title>Node4&#45;&gt;Node3</title>
<path fill="none" stroke="midnightblue" d="M53,-702.166C53,-693.781 53,-684.554 53,-675.086"/>
<polygon fill="none" stroke="midnightblue" points="49.5001,-702.293 53,-712.293 56.5001,-702.293 49.5001,-702.293"/>
</g>
<!-- Node5 -->
<g id="node5" class="node"><title>Node5</title>
<g id="a_node5"><a xlink:href="../../de/dd1/classppm__java_1_1typelib_1_1_v_browseable.html" target="_top" xlink:title="Base class for all browseable objects. ">
<polygon fill="white" stroke="black" points="8.5,-806.5 8.5,-885.5 97.5,-885.5 97.5,-806.5 8.5,-806.5"/>
<text text-anchor="middle" x="53" y="-873.5" font-family="Helvetica,sans-Serif" font-size="10.00">VBrowseable</text>
<polyline fill="none" stroke="black" points="8.5,-866.5 97.5,-866.5 "/>
<text text-anchor="start" x="16.5" y="-854.5" font-family="Helvetica,sans-Serif" font-size="10.00">&#45; fID</text>
<polyline fill="none" stroke="black" points="8.5,-847.5 97.5,-847.5 "/>
<text text-anchor="start" x="16.5" y="-835.5" font-family="Helvetica,sans-Serif" font-size="10.00">+ VBrowseable()</text>
<text text-anchor="start" x="16.5" y="-824.5" font-family="Helvetica,sans-Serif" font-size="10.00">+ GetID()</text>
<text text-anchor="start" x="16.5" y="-813.5" font-family="Helvetica,sans-Serif" font-size="10.00"># _Register()</text>
</a>
</g>
</g>
<!-- Node5&#45;&gt;Node4 -->
<g id="edge4" class="edge"><title>Node5&#45;&gt;Node4</title>
<path fill="none" stroke="midnightblue" d="M53,-796.163C53,-787.04 53,-777.806 53,-769.61"/>
<polygon fill="none" stroke="midnightblue" points="49.5001,-796.354 53,-806.354 56.5001,-796.354 49.5001,-796.354"/>
</g>
<!-- Node6 -->
<g id="node6" class="node"><title>Node6</title>
<g id="a_node6"><a xlink:href="../../db/d44/interfaceppm__java_1_1typelib_1_1_i_controllable.html" target="_top" xlink:title="A module or construct which can receive some low level control commands (start/stop etc...">
<polygon fill="white" stroke="black" points="121.5,-386 121.5,-454 192.5,-454 192.5,-386 121.5,-386"/>
<text text-anchor="middle" x="157" y="-442" font-family="Helvetica,sans-Serif" font-size="10.00">IControllable</text>
<polyline fill="none" stroke="black" points="121.5,-435 192.5,-435 "/>
<text text-anchor="middle" x="157" y="-423" font-family="Helvetica,sans-Serif" font-size="10.00"> </text>
<polyline fill="none" stroke="black" points="121.5,-416 192.5,-416 "/>
<text text-anchor="start" x="129.5" y="-404" font-family="Helvetica,sans-Serif" font-size="10.00">+ Start()</text>
<text text-anchor="start" x="129.5" y="-393" font-family="Helvetica,sans-Serif" font-size="10.00">+ Stop()</text>
</a>
</g>
</g>
<!-- Node6&#45;&gt;Node1 -->
<g id="edge5" class="edge"><title>Node6&#45;&gt;Node1</title>
<path fill="none" stroke="midnightblue" d="M147.859,-375.754C145.803,-366.029 143.5,-355.135 141.057,-343.579"/>
<polygon fill="none" stroke="midnightblue" points="144.495,-376.763 149.987,-385.823 151.343,-375.316 144.495,-376.763"/>
</g>
</g>
</svg>
