<?xml version="1.0" encoding="UTF-8" standalone="no"?>
<!DOCTYPE svg PUBLIC "-//W3C//DTD SVG 1.1//EN"
 "http://www.w3.org/Graphics/SVG/1.1/DTD/svg11.dtd">
<!-- Generated by graphviz version 2.36.0 (20140111.2315)
 -->
<!-- Title: _TryReset Pages: 1 -->
<svg width="250pt" height="28pt"
 viewBox="0.00 0.00 250.00 28.00" xmlns="http://www.w3.org/2000/svg" xmlns:xlink="http://www.w3.org/1999/xlink">
<g id="graph0" class="graph" transform="scale(1 1) rotate(0) translate(4 24)">
<title>_TryReset</title>
<polygon fill="white" stroke="none" points="-4,4 -4,-24 246,-24 246,4 -4,4"/>
<!-- Node1 -->
<g id="node1" class="node"><title>Node1</title>
<polygon fill="#bfbfbf" stroke="black" points="0,-0.5 0,-19.5 62,-19.5 62,-0.5 0,-0.5"/>
<text text-anchor="middle" x="31" y="-7.5" font-family="Helvetica,sans-Serif" font-size="10.00">_TryReset</text>
</g>
<!-- Node2 -->
<g id="node2" class="node"><title>Node2</title>
<g id="a_node2"><a xlink:href="../../d4/dcb/classppm__java_1_1frontend_1_1gui_1_1lineargauge_1_1_t_g_u_i_linear_gauge___timer_clipping.html#a94ad2dfa4735f3b6549366828db0bb92" target="_top" xlink:title="Automaton core method. ">
<polygon fill="white" stroke="black" points="98.5,-0.5 98.5,-19.5 175.5,-19.5 175.5,-0.5 98.5,-0.5"/>
<text text-anchor="middle" x="137" y="-7.5" font-family="Helvetica,sans-Serif" font-size="10.00">_DoTransition</text>
</a>
</g>
</g>
<!-- Node1&#45;&gt;Node2 -->
<g id="edge1" class="edge"><title>Node1&#45;&gt;Node2</title>
<path fill="none" stroke="midnightblue" d="M72.2169,-10C80.7633,-10 89.7579,-10 98.21,-10"/>
<polygon fill="midnightblue" stroke="midnightblue" points="72.0811,-6.5001 62.0811,-10 72.0811,-13.5001 72.0811,-6.5001"/>
</g>
<!-- Node3 -->
<g id="node3" class="node"><title>Node3</title>
<g id="a_node3"><a xlink:href="../../d4/dcb/classppm__java_1_1frontend_1_1gui_1_1lineargauge_1_1_t_g_u_i_linear_gauge___timer_clipping.html#a13a43e6d814de94978c515cb084873b1" target="_top" xlink:title="run">
<polygon fill="white" stroke="black" points="212,-0.5 212,-19.5 242,-19.5 242,-0.5 212,-0.5"/>
<text text-anchor="middle" x="227" y="-7.5" font-family="Helvetica,sans-Serif" font-size="10.00">run</text>
</a>
</g>
</g>
<!-- Node2&#45;&gt;Node3 -->
<g id="edge2" class="edge"><title>Node2&#45;&gt;Node3</title>
<path fill="none" stroke="midnightblue" d="M185.619,-10C195.252,-10 204.651,-10 211.954,-10"/>
<polygon fill="midnightblue" stroke="midnightblue" points="185.575,-6.5001 175.575,-10 185.575,-13.5001 185.575,-6.5001"/>
</g>
</g>
</svg>
