<?xml version="1.0" encoding="UTF-8" standalone="no"?>
<!DOCTYPE svg PUBLIC "-//W3C//DTD SVG 1.1//EN"
 "http://www.w3.org/Graphics/SVG/1.1/DTD/svg11.dtd">
<!-- Generated by graphviz version 2.36.0 (20140111.2315)
 -->
<!-- Title: TNodeConverterDb Pages: 1 -->
<!--zoomable 746 -->
<svg id="main" version="1.1" xmlns="http://www.w3.org/2000/svg" xmlns:xlink="http://www.w3.org/1999/xlink" xml:space="preserve" onload="init(evt)">
<style type="text/css"><![CDATA[
.edge:hover path { stroke: red; }
.edge:hover polygon { stroke: red; fill: red; }
]]></style>
<script type="text/javascript"><![CDATA[
var edges = document.getElementsByTagName('g');
if (edges && edges.length) {
  for (var i=0;i<edges.length;i++) {
    if (edges[i].id.substr(0,4)=='edge') {
      edges[i].setAttribute('class','edge');
    }
  }
}
]]></script>
        <defs>
                <circle id="rim" cx="0" cy="0" r="7"/>
                <circle id="rim2" cx="0" cy="0" r="3.5"/>
                <g id="zoomPlus">
                        <use xlink:href="#rim" fill="#404040">
                                <set attributeName="fill" to="#808080" begin="zoomplus.mouseover" end="zoomplus.mouseout"/>
                        </use>
                        <path d="M-4,0h8M0,-4v8" fill="none" stroke="white" stroke-width="1.5" pointer-events="none"/>
                </g>
                <g id="zoomMin">
                        <use xlink:href="#rim" fill="#404040">
                                <set attributeName="fill" to="#808080" begin="zoomminus.mouseover" end="zoomminus.mouseout"/>
                        </use>
                        <path d="M-4,0h8" fill="none" stroke="white" stroke-width="1.5" pointer-events="none"/>
                </g>
                <g id="dirArrow">
                        <path fill="none" stroke="white" stroke-width="1.5" d="M0,-3.0v7 M-2.5,-0.5L0,-3.0L2.5,-0.5"/>
                </g>
               <g id="resetDef">
                       <use xlink:href="#rim2" fill="#404040">
                               <set attributeName="fill" to="#808080" begin="reset.mouseover" end="reset.mouseout"/>
                       </use>
               </g>
        </defs>

<script type="text/javascript">
var viewWidth = 522;
var viewHeight = 746;
var sectionId = 'dynsection-1';
</script>
<script xlink:href="../../svgpan.js"/>
<svg id="graph" class="graph">
<g id="viewport">
<title>TNodeConverterDb</title>
<polygon fill="white" stroke="none" points="-4,4 -4,-742 518,-742 518,4 -4,4"/>
<!-- Node1 -->
<g id="node1" class="node"><title>Node1</title>
<polygon fill="#bfbfbf" stroke="black" points="221.5,-151 221.5,-285 334.5,-285 334.5,-151 221.5,-151"/>
<text text-anchor="middle" x="278" y="-273" font-family="Helvetica,sans-Serif" font-size="10.00">TNodeConverterDb</text>
<polyline fill="none" stroke="black" points="221.5,-266 334.5,-266 "/>
<text text-anchor="start" x="229.5" y="-254" font-family="Helvetica,sans-Serif" font-size="10.00">+ gkMinDB</text>
<text text-anchor="start" x="229.5" y="-243" font-family="Helvetica,sans-Serif" font-size="10.00">+ gkMinThreshold</text>
<polyline fill="none" stroke="black" points="221.5,-236 334.5,-236 "/>
<text text-anchor="start" x="229.5" y="-224" font-family="Helvetica,sans-Serif" font-size="10.00">+ CreatePort_In()</text>
<text text-anchor="start" x="229.5" y="-213" font-family="Helvetica,sans-Serif" font-size="10.00">+ CreatePort_Out()</text>
<text text-anchor="start" x="229.5" y="-202" font-family="Helvetica,sans-Serif" font-size="10.00">+ StatsGet()</text>
<text text-anchor="start" x="229.5" y="-191" font-family="Helvetica,sans-Serif" font-size="10.00">+ CreateInstance()</text>
<text text-anchor="start" x="229.5" y="-180" font-family="Helvetica,sans-Serif" font-size="10.00">~ Receive()</text>
<text text-anchor="start" x="229.5" y="-169" font-family="Helvetica,sans-Serif" font-size="10.00"># _Register()</text>
<text text-anchor="start" x="229.5" y="-158" font-family="Helvetica,sans-Serif" font-size="10.00">&#45; TNodeConverterDb()</text>
</g>
<!-- Node8 -->
<g id="node8" class="node"><title>Node8</title>
<g id="a_node8"><a xlink:href="../../d0/db3/classppm__java_1_1backend_1_1module_1_1converter__db_1_1_t_node_converter_db___stats.html" target="_top" xlink:title="Runtime statistics of a TNodeConverterDb. ">
<polygon fill="white" stroke="black" points="114.5,-1 114.5,-91 259.5,-91 259.5,-1 114.5,-1"/>
<text text-anchor="middle" x="187" y="-79" font-family="Helvetica,sans-Serif" font-size="10.00">TNodeConverterDb_Stats</text>
<polyline fill="none" stroke="black" points="114.5,-72 259.5,-72 "/>
<text text-anchor="middle" x="187" y="-60" font-family="Helvetica,sans-Serif" font-size="10.00"> </text>
<polyline fill="none" stroke="black" points="114.5,-53 259.5,-53 "/>
<text text-anchor="start" x="122.5" y="-41" font-family="Helvetica,sans-Serif" font-size="10.00">+ TNodeConverterDb_Stats()</text>
<text text-anchor="start" x="122.5" y="-30" font-family="Helvetica,sans-Serif" font-size="10.00">+ GetDumpStr()</text>
<text text-anchor="start" x="122.5" y="-19" font-family="Helvetica,sans-Serif" font-size="10.00">~ SetDB()</text>
<text text-anchor="start" x="122.5" y="-8" font-family="Helvetica,sans-Serif" font-size="10.00">~ SetValue()</text>
</a>
</g>
</g>
<!-- Node1&#45;&gt;Node8 -->
<g id="edge11" class="edge"><title>Node1&#45;&gt;Node8</title>
<path fill="none" stroke="#404040" d="M228.795,-150.771C224.931,-144.554 221.267,-138.241 218,-132 213.183,-122.798 208.787,-112.678 204.915,-102.729"/>
<polygon fill="none" stroke="#404040" points="204.806,-102.438 198.963,-98.2124 200.616,-91.1933 206.459,-95.4189 204.806,-102.438"/>
<text text-anchor="middle" x="233.5" y="-118.5" font-family="Helvetica,sans-Serif" font-size="10.00"> &#45;fHost</text>
</g>
<!-- Node2 -->
<g id="node2" class="node"><title>Node2</title>
<g id="a_node2"><a xlink:href="../../d5/d6a/classppm__java_1_1typelib_1_1_v_audio_processor.html" target="_top" xlink:title="Base class for all modules processing audio samples. ">
<polygon fill="white" stroke="black" points="217.5,-334.5 217.5,-501.5 324.5,-501.5 324.5,-334.5 217.5,-334.5"/>
<text text-anchor="middle" x="271" y="-489.5" font-family="Helvetica,sans-Serif" font-size="10.00">VAudioProcessor</text>
<polyline fill="none" stroke="black" points="217.5,-482.5 324.5,-482.5 "/>
<text text-anchor="middle" x="271" y="-470.5" font-family="Helvetica,sans-Serif" font-size="10.00"> </text>
<polyline fill="none" stroke="black" points="217.5,-463.5 324.5,-463.5 "/>
<text text-anchor="start" x="225.5" y="-451.5" font-family="Helvetica,sans-Serif" font-size="10.00">+ VAudioProcessor()</text>
<text text-anchor="start" x="225.5" y="-440.5" font-family="Helvetica,sans-Serif" font-size="10.00">+ CreatePort_In()</text>
<text text-anchor="start" x="225.5" y="-429.5" font-family="Helvetica,sans-Serif" font-size="10.00">+ CreatePort_Out()</text>
<text text-anchor="start" x="225.5" y="-418.5" font-family="Helvetica,sans-Serif" font-size="10.00">+ GetNumPortsIn()</text>
<text text-anchor="start" x="225.5" y="-407.5" font-family="Helvetica,sans-Serif" font-size="10.00">+ GetNumPortsOut()</text>
<text text-anchor="start" x="225.5" y="-396.5" font-family="Helvetica,sans-Serif" font-size="10.00">+ GetPortIn()</text>
<text text-anchor="start" x="225.5" y="-385.5" font-family="Helvetica,sans-Serif" font-size="10.00">+ GetPortIn()</text>
<text text-anchor="start" x="225.5" y="-374.5" font-family="Helvetica,sans-Serif" font-size="10.00">+ GetPortOut()</text>
<text text-anchor="start" x="225.5" y="-363.5" font-family="Helvetica,sans-Serif" font-size="10.00">+ GetPortOut()</text>
<text text-anchor="start" x="225.5" y="-352.5" font-family="Helvetica,sans-Serif" font-size="10.00"># AddPortIn()</text>
<text text-anchor="start" x="225.5" y="-341.5" font-family="Helvetica,sans-Serif" font-size="10.00"># AddPortOut()</text>
</a>
</g>
</g>
<!-- Node2&#45;&gt;Node1 -->
<g id="edge1" class="edge"><title>Node2&#45;&gt;Node1</title>
<path fill="none" stroke="midnightblue" d="M274.274,-324.38C274.743,-311.134 275.216,-297.734 275.662,-285.136"/>
<polygon fill="none" stroke="midnightblue" points="270.774,-324.346 273.918,-334.464 277.769,-324.594 270.774,-324.346"/>
</g>
<!-- Node3 -->
<g id="node3" class="node"><title>Node3</title>
<g id="a_node3"><a xlink:href="../../d1/db3/classppm__java_1_1typelib_1_1_v_audio_object.html" target="_top" xlink:title="Base class for all browseable audio objects. ">
<polygon fill="white" stroke="black" points="86,-556.5 86,-613.5 178,-613.5 178,-556.5 86,-556.5"/>
<text text-anchor="middle" x="132" y="-601.5" font-family="Helvetica,sans-Serif" font-size="10.00">VAudioObject</text>
<polyline fill="none" stroke="black" points="86,-594.5 178,-594.5 "/>
<text text-anchor="middle" x="132" y="-582.5" font-family="Helvetica,sans-Serif" font-size="10.00"> </text>
<polyline fill="none" stroke="black" points="86,-575.5 178,-575.5 "/>
<text text-anchor="start" x="94" y="-563.5" font-family="Helvetica,sans-Serif" font-size="10.00">+ VAudioObject()</text>
</a>
</g>
</g>
<!-- Node3&#45;&gt;Node2 -->
<g id="edge2" class="edge"><title>Node3&#45;&gt;Node2</title>
<path fill="none" stroke="midnightblue" d="M161.909,-548.496C178.063,-529.321 198.498,-505.064 217.303,-482.741"/>
<polygon fill="none" stroke="midnightblue" points="159.032,-546.48 155.265,-556.383 164.385,-550.99 159.032,-546.48"/>
</g>
<!-- Node4 -->
<g id="node4" class="node"><title>Node4</title>
<g id="a_node4"><a xlink:href="../../de/dd1/classppm__java_1_1typelib_1_1_v_browseable.html" target="_top" xlink:title="Base class for all browseable objects. ">
<polygon fill="white" stroke="black" points="87.5,-658.5 87.5,-737.5 176.5,-737.5 176.5,-658.5 87.5,-658.5"/>
<text text-anchor="middle" x="132" y="-725.5" font-family="Helvetica,sans-Serif" font-size="10.00">VBrowseable</text>
<polyline fill="none" stroke="black" points="87.5,-718.5 176.5,-718.5 "/>
<text text-anchor="start" x="95.5" y="-706.5" font-family="Helvetica,sans-Serif" font-size="10.00">&#45; fID</text>
<polyline fill="none" stroke="black" points="87.5,-699.5 176.5,-699.5 "/>
<text text-anchor="start" x="95.5" y="-687.5" font-family="Helvetica,sans-Serif" font-size="10.00">+ VBrowseable()</text>
<text text-anchor="start" x="95.5" y="-676.5" font-family="Helvetica,sans-Serif" font-size="10.00">+ GetID()</text>
<text text-anchor="start" x="95.5" y="-665.5" font-family="Helvetica,sans-Serif" font-size="10.00"># _Register()</text>
</a>
</g>
</g>
<!-- Node4&#45;&gt;Node3 -->
<g id="edge3" class="edge"><title>Node4&#45;&gt;Node3</title>
<path fill="none" stroke="midnightblue" d="M132,-648.227C132,-636.364 132,-624.085 132,-613.601"/>
<polygon fill="none" stroke="midnightblue" points="128.5,-648.489 132,-658.489 135.5,-648.489 128.5,-648.489"/>
</g>
<!-- Node5 -->
<g id="node5" class="node"><title>Node5</title>
<polygon fill="white" stroke="#bfbfbf" points="196,-551 196,-619 346,-619 346,-551 196,-551"/>
<text text-anchor="start" x="204" y="-607" font-family="Helvetica,sans-Serif" font-size="10.00">TArrayMap&lt; ppm_java.typelib.</text>
<text text-anchor="middle" x="271" y="-596" font-family="Helvetica,sans-Serif" font-size="10.00">VAudioPort_Output &gt;</text>
<polyline fill="none" stroke="#bfbfbf" points="196,-589 346,-589 "/>
<text text-anchor="middle" x="271" y="-577" font-family="Helvetica,sans-Serif" font-size="10.00"> </text>
<polyline fill="none" stroke="#bfbfbf" points="196,-570 346,-570 "/>
<text text-anchor="middle" x="271" y="-558" font-family="Helvetica,sans-Serif" font-size="10.00"> </text>
</g>
<!-- Node5&#45;&gt;Node2 -->
<g id="edge4" class="edge"><title>Node5&#45;&gt;Node2</title>
<path fill="none" stroke="#404040" d="M271,-550.61C271,-539.723 271,-527.043 271,-513.934"/>
<polygon fill="none" stroke="#404040" points="271,-513.813 267,-507.813 271,-501.813 275,-507.813 271,-513.813"/>
<text text-anchor="middle" x="295.5" y="-523.5" font-family="Helvetica,sans-Serif" font-size="10.00"> &#45;fPortsOut</text>
</g>
<!-- Node6 -->
<g id="node6" class="node"><title>Node6</title>
<polygon fill="white" stroke="#bfbfbf" points="364,-551 364,-619 514,-619 514,-551 364,-551"/>
<text text-anchor="start" x="372" y="-607" font-family="Helvetica,sans-Serif" font-size="10.00">TArrayMap&lt; ppm_java.typelib.</text>
<text text-anchor="middle" x="439" y="-596" font-family="Helvetica,sans-Serif" font-size="10.00">VAudioPort_Input &gt;</text>
<polyline fill="none" stroke="#bfbfbf" points="364,-589 514,-589 "/>
<text text-anchor="middle" x="439" y="-577" font-family="Helvetica,sans-Serif" font-size="10.00"> </text>
<polyline fill="none" stroke="#bfbfbf" points="364,-570 514,-570 "/>
<text text-anchor="middle" x="439" y="-558" font-family="Helvetica,sans-Serif" font-size="10.00"> </text>
</g>
<!-- Node6&#45;&gt;Node2 -->
<g id="edge5" class="edge"><title>Node6&#45;&gt;Node2</title>
<path fill="none" stroke="#404040" d="M390.547,-550.844C371.636,-536.828 350.373,-519.668 333,-502 332.913,-501.912 332.827,-501.824 332.74,-501.735"/>
<polygon fill="none" stroke="#404040" points="332.949,-501.958 325.929,-500.309 324.751,-493.194 331.771,-494.844 332.949,-501.958"/>
<text text-anchor="middle" x="385.5" y="-523.5" font-family="Helvetica,sans-Serif" font-size="10.00"> &#45;fPortsIn</text>
</g>
<!-- Node7 -->
<g id="node7" class="node"><title>Node7</title>
<g id="a_node7"><a xlink:href="../../dc/dc0/interfaceppm__java_1_1typelib_1_1_i_stat_enabled.html" target="_top" xlink:title="Interface for an object that supports runtime statistics. ">
<polygon fill="white" stroke="black" points="342.5,-389.5 342.5,-446.5 415.5,-446.5 415.5,-389.5 342.5,-389.5"/>
<text text-anchor="middle" x="379" y="-434.5" font-family="Helvetica,sans-Serif" font-size="10.00">IStatEnabled</text>
<polyline fill="none" stroke="black" points="342.5,-427.5 415.5,-427.5 "/>
<text text-anchor="middle" x="379" y="-415.5" font-family="Helvetica,sans-Serif" font-size="10.00"> </text>
<polyline fill="none" stroke="black" points="342.5,-408.5 415.5,-408.5 "/>
<text text-anchor="start" x="350.5" y="-396.5" font-family="Helvetica,sans-Serif" font-size="10.00">+ StatsGet()</text>
</a>
</g>
</g>
<!-- Node7&#45;&gt;Node1 -->
<g id="edge6" class="edge"><title>Node7&#45;&gt;Node1</title>
<path fill="none" stroke="midnightblue" d="M360.374,-380.486C346.767,-353.81 327.937,-316.896 311.715,-285.095"/>
<polygon fill="none" stroke="midnightblue" points="357.295,-382.151 364.956,-389.469 363.53,-378.971 357.295,-382.151"/>
</g>
<!-- Node8&#45;&gt;Node1 -->
<g id="edge7" class="edge"><title>Node8&#45;&gt;Node1</title>
<path fill="none" stroke="#404040" d="M239.439,-91.1113C244.55,-97.0571 249.228,-103.398 253,-110 258.157,-119.026 262.251,-129.057 265.502,-139.258"/>
<polygon fill="none" stroke="#404040" points="265.505,-139.269 271.009,-143.928 268.824,-150.801 263.321,-146.141 265.505,-139.269"/>
<text text-anchor="middle" x="279.5" y="-118.5" font-family="Helvetica,sans-Serif" font-size="10.00"> &#45;fStats</text>
</g>
<!-- Node9 -->
<g id="node9" class="node"><title>Node9</title>
<g id="a_node9"><a xlink:href="../../d7/d5a/interfaceppm__java_1_1typelib_1_1_i_stats.html" target="_top" xlink:title="Interface for a statistics record. ">
<polygon fill="white" stroke="black" points="0,-189.5 0,-246.5 86,-246.5 86,-189.5 0,-189.5"/>
<text text-anchor="middle" x="43" y="-234.5" font-family="Helvetica,sans-Serif" font-size="10.00">IStats</text>
<polyline fill="none" stroke="black" points="0,-227.5 86,-227.5 "/>
<text text-anchor="middle" x="43" y="-215.5" font-family="Helvetica,sans-Serif" font-size="10.00"> </text>
<polyline fill="none" stroke="black" points="0,-208.5 86,-208.5 "/>
<text text-anchor="start" x="8" y="-196.5" font-family="Helvetica,sans-Serif" font-size="10.00">+ GetDumpStr()</text>
</a>
</g>
</g>
<!-- Node9&#45;&gt;Node8 -->
<g id="edge8" class="edge"><title>Node9&#45;&gt;Node8</title>
<path fill="none" stroke="midnightblue" d="M69.9754,-181.301C77.8965,-171.078 86.6717,-159.998 95,-150 111.42,-130.288 130.186,-109.06 146.468,-91.0271"/>
<polygon fill="none" stroke="midnightblue" points="67.1599,-179.221 63.8309,-189.279 72.7057,-183.492 67.1599,-179.221"/>
</g>
<!-- Node10 -->
<g id="node10" class="node"><title>Node10</title>
<g id="a_node10"><a xlink:href="../../d2/df7/classppm__java_1_1util_1_1storage_1_1_t_atomic_double.html" target="_top" xlink:title="An thread safe double value. ">
<polygon fill="white" stroke="black" points="104.5,-156.5 104.5,-279.5 203.5,-279.5 203.5,-156.5 104.5,-156.5"/>
<text text-anchor="middle" x="154" y="-267.5" font-family="Helvetica,sans-Serif" font-size="10.00">TAtomicDouble</text>
<polyline fill="none" stroke="black" points="104.5,-260.5 203.5,-260.5 "/>
<text text-anchor="start" x="112.5" y="-248.5" font-family="Helvetica,sans-Serif" font-size="10.00">&#45; fValue</text>
<text text-anchor="start" x="112.5" y="-237.5" font-family="Helvetica,sans-Serif" font-size="10.00">&#45; gkLocked</text>
<text text-anchor="start" x="112.5" y="-226.5" font-family="Helvetica,sans-Serif" font-size="10.00">&#45; gkUnlocked</text>
<polyline fill="none" stroke="black" points="104.5,-219.5 203.5,-219.5 "/>
<text text-anchor="start" x="112.5" y="-207.5" font-family="Helvetica,sans-Serif" font-size="10.00">+ TAtomicDouble()</text>
<text text-anchor="start" x="112.5" y="-196.5" font-family="Helvetica,sans-Serif" font-size="10.00">+ Get()</text>
<text text-anchor="start" x="112.5" y="-185.5" font-family="Helvetica,sans-Serif" font-size="10.00">+ Set()</text>
<text text-anchor="start" x="112.5" y="-174.5" font-family="Helvetica,sans-Serif" font-size="10.00">&#45; _Lock()</text>
<text text-anchor="start" x="112.5" y="-163.5" font-family="Helvetica,sans-Serif" font-size="10.00">&#45; _Unlock()</text>
</a>
</g>
</g>
<!-- Node10&#45;&gt;Node8 -->
<g id="edge9" class="edge"><title>Node10&#45;&gt;Node8</title>
<path fill="none" stroke="#404040" d="M157.752,-156.336C159.373,-141.097 161.69,-124.855 165,-110 165.541,-107.571 166.147,-105.105 166.801,-102.627"/>
<polygon fill="none" stroke="#404040" points="166.825,-102.547 164.657,-95.6692 170.173,-91.0235 172.34,-97.9012 166.825,-102.547"/>
<text text-anchor="middle" x="180.5" y="-124" font-family="Helvetica,sans-Serif" font-size="10.00"> &#45;fDB</text>
<text text-anchor="middle" x="180.5" y="-113" font-family="Helvetica,sans-Serif" font-size="10.00">&#45;fValue</text>
</g>
<!-- Node11 -->
<g id="node11" class="node"><title>Node11</title>
<polygon fill="white" stroke="#bfbfbf" points="115.5,-389.5 115.5,-446.5 192.5,-446.5 192.5,-389.5 115.5,-389.5"/>
<text text-anchor="middle" x="154" y="-434.5" font-family="Helvetica,sans-Serif" font-size="10.00">AtomicInteger</text>
<polyline fill="none" stroke="#bfbfbf" points="115.5,-427.5 192.5,-427.5 "/>
<text text-anchor="middle" x="154" y="-415.5" font-family="Helvetica,sans-Serif" font-size="10.00"> </text>
<polyline fill="none" stroke="#bfbfbf" points="115.5,-408.5 192.5,-408.5 "/>
<text text-anchor="middle" x="154" y="-396.5" font-family="Helvetica,sans-Serif" font-size="10.00"> </text>
</g>
<!-- Node11&#45;&gt;Node10 -->
<g id="edge10" class="edge"><title>Node11&#45;&gt;Node10</title>
<path fill="none" stroke="#404040" d="M154,-389.469C154,-364.295 154,-325.921 154,-291.951"/>
<polygon fill="none" stroke="#404040" points="154,-291.668 150,-285.668 154,-279.668 158,-285.668 154,-291.668"/>
<text text-anchor="middle" x="169.5" y="-307.5" font-family="Helvetica,sans-Serif" font-size="10.00"> &#45;fLock</text>
</g>
</g>
</svg>
        <g id="navigator" transform="translate(0 0)" fill="#404254">
                <rect fill="#f2f5e9" fill-opacity="0.5" stroke="#606060" stroke-width=".5" x="0" y="0" width="60" height="60"/>
                <use id="zoomplus" xlink:href="#zoomPlus" x="17" y="9" onmousedown="handleZoom(evt,'in')"/>
                <use id="zoomminus" xlink:href="#zoomMin" x="42" y="9" onmousedown="handleZoom(evt,'out')"/>
                <use id="reset" xlink:href="#resetDef" x="30" y="36" onmousedown="handleReset()"/>
                <g id="arrowUp" xlink:href="#dirArrow" transform="translate(30 24)" onmousedown="handlePan(0,-1)">
                  <use xlink:href="#rim" fill="#404040">
                        <set attributeName="fill" to="#808080" begin="arrowUp.mouseover" end="arrowUp.mouseout"/>
                  </use>
                  <path fill="none" stroke="white" stroke-width="1.5" d="M0,-3.0v7 M-2.5,-0.5L0,-3.0L2.5,-0.5"/>
                </g>
                <g id="arrowRight" xlink:href="#dirArrow" transform="rotate(90) translate(36 -43)" onmousedown="handlePan(1,0)">
                  <use xlink:href="#rim" fill="#404040">
                        <set attributeName="fill" to="#808080" begin="arrowRight.mouseover" end="arrowRight.mouseout"/>
                  </use>
                  <path fill="none" stroke="white" stroke-width="1.5" d="M0,-3.0v7 M-2.5,-0.5L0,-3.0L2.5,-0.5"/>
                </g>
                <g id="arrowDown" xlink:href="#dirArrow" transform="rotate(180) translate(-30 -48)" onmousedown="handlePan(0,1)">
                  <use xlink:href="#rim" fill="#404040">
                        <set attributeName="fill" to="#808080" begin="arrowDown.mouseover" end="arrowDown.mouseout"/>
                  </use>
                  <path fill="none" stroke="white" stroke-width="1.5" d="M0,-3.0v7 M-2.5,-0.5L0,-3.0L2.5,-0.5"/>
                </g>
                <g id="arrowLeft" xlink:href="#dirArrow" transform="rotate(270) translate(-36 17)" onmousedown="handlePan(-1,0)">
                  <use xlink:href="#rim" fill="#404040">
                        <set attributeName="fill" to="#808080" begin="arrowLeft.mouseover" end="arrowLeft.mouseout"/>
                  </use>
                  <path fill="none" stroke="white" stroke-width="1.5" d="M0,-3.0v7 M-2.5,-0.5L0,-3.0L2.5,-0.5"/>
                </g>
        </g>
        <svg viewBox="0 0 15 15" width="100%" height="30px" preserveAspectRatio="xMaxYMin meet">
         <g id="arrow_out" transform="scale(0.3 0.3)">
          <a xlink:href="classppm__java_1_1backend_1_1module_1_1converter__db_1_1_t_node_converter_db__coll__graph_org.svg" target="_base">
           <rect id="button" ry="5" rx="5" y="6" x="6" height="38" width="38"
                fill="#f2f5e9" fill-opacity="0.5" stroke="#606060" stroke-width="1.0"/>
           <path id="arrow"
             d="M 11.500037,31.436501 C 11.940474,20.09759 22.043105,11.32322 32.158766,21.979434 L 37.068811,17.246167 C 37.068811,17.246167 37.088388,32 37.088388,32 L 22.160133,31.978069 C 22.160133,31.978069 26.997745,27.140456 26.997745,27.140456 C 18.528582,18.264221 13.291696,25.230495 11.500037,31.436501 z"
             style="fill:#404040;"/>
          </a>
         </g>
        </svg>
</svg>
