<?xml version="1.0" encoding="UTF-8" standalone="no"?>
<!DOCTYPE svg PUBLIC "-//W3C//DTD SVG 1.1//EN"
 "http://www.w3.org/Graphics/SVG/1.1/DTD/svg11.dtd">
<!-- Generated by graphviz version 2.36.0 (20140111.2315)
 -->
<!-- Title: TNodePPMProcessor Pages: 1 -->
<!--zoomable 790 -->
<svg id="main" version="1.1" xmlns="http://www.w3.org/2000/svg" xmlns:xlink="http://www.w3.org/1999/xlink" xml:space="preserve" onload="init(evt)">
<style type="text/css"><![CDATA[
.edge:hover path { stroke: red; }
.edge:hover polygon { stroke: red; fill: red; }
]]></style>
<script type="text/javascript"><![CDATA[
var edges = document.getElementsByTagName('g');
if (edges && edges.length) {
  for (var i=0;i<edges.length;i++) {
    if (edges[i].id.substr(0,4)=='edge') {
      edges[i].setAttribute('class','edge');
    }
  }
}
]]></script>
        <defs>
                <circle id="rim" cx="0" cy="0" r="7"/>
                <circle id="rim2" cx="0" cy="0" r="3.5"/>
                <g id="zoomPlus">
                        <use xlink:href="#rim" fill="#404040">
                                <set attributeName="fill" to="#808080" begin="zoomplus.mouseover" end="zoomplus.mouseout"/>
                        </use>
                        <path d="M-4,0h8M0,-4v8" fill="none" stroke="white" stroke-width="1.5" pointer-events="none"/>
                </g>
                <g id="zoomMin">
                        <use xlink:href="#rim" fill="#404040">
                                <set attributeName="fill" to="#808080" begin="zoomminus.mouseover" end="zoomminus.mouseout"/>
                        </use>
                        <path d="M-4,0h8" fill="none" stroke="white" stroke-width="1.5" pointer-events="none"/>
                </g>
                <g id="dirArrow">
                        <path fill="none" stroke="white" stroke-width="1.5" d="M0,-3.0v7 M-2.5,-0.5L0,-3.0L2.5,-0.5"/>
                </g>
               <g id="resetDef">
                       <use xlink:href="#rim2" fill="#404040">
                               <set attributeName="fill" to="#808080" begin="reset.mouseover" end="reset.mouseout"/>
                       </use>
               </g>
        </defs>

<script type="text/javascript">
var viewWidth = 378;
var viewHeight = 790;
var sectionId = 'dynsection-0';
</script>
<script xlink:href="../../svgpan.js"/>
<svg id="graph" class="graph">
<g id="viewport">
<title>TNodePPMProcessor</title>
<polygon fill="white" stroke="none" points="-4,4 -4,-786 374,-786 374,4 -4,4"/>
<!-- Node1 -->
<g id="node1" class="node"><title>Node1</title>
<polygon fill="#bfbfbf" stroke="black" points="130,-1 130,-355 274,-355 274,-1 130,-1"/>
<text text-anchor="middle" x="202" y="-343" font-family="Helvetica,sans-Serif" font-size="10.00">TNodePPMProcessor</text>
<polyline fill="none" stroke="black" points="130,-336 274,-336 "/>
<text text-anchor="start" x="138" y="-324" font-family="Helvetica,sans-Serif" font-size="10.00">&#45; fHasInitialTime</text>
<text text-anchor="start" x="138" y="-313" font-family="Helvetica,sans-Serif" font-size="10.00">&#45; fInPacket</text>
<text text-anchor="start" x="138" y="-302" font-family="Helvetica,sans-Serif" font-size="10.00">&#45; fNSamplesPerCycle</text>
<text text-anchor="start" x="138" y="-291" font-family="Helvetica,sans-Serif" font-size="10.00">&#45; fPeak_dB</text>
<text text-anchor="start" x="138" y="-280" font-family="Helvetica,sans-Serif" font-size="10.00">&#45; fPeak_Raw</text>
<text text-anchor="start" x="138" y="-269" font-family="Helvetica,sans-Serif" font-size="10.00">&#45; fPeakDeltaFall</text>
<text text-anchor="start" x="138" y="-258" font-family="Helvetica,sans-Serif" font-size="10.00">&#45; fPeakDeltaRise</text>
<text text-anchor="start" x="138" y="-247" font-family="Helvetica,sans-Serif" font-size="10.00">&#45; fSampleRate</text>
<text text-anchor="start" x="138" y="-236" font-family="Helvetica,sans-Serif" font-size="10.00">&#45; fStats</text>
<text text-anchor="start" x="138" y="-225" font-family="Helvetica,sans-Serif" font-size="10.00">&#45; fTDeltaRequested</text>
<text text-anchor="start" x="138" y="-214" font-family="Helvetica,sans-Serif" font-size="10.00">&#45; fTLast</text>
<text text-anchor="start" x="138" y="-203" font-family="Helvetica,sans-Serif" font-size="10.00">&#45; gkIntegrFallRangedB</text>
<text text-anchor="start" x="138" y="-192" font-family="Helvetica,sans-Serif" font-size="10.00">&#45; gkIntegrFallTime</text>
<text text-anchor="start" x="138" y="-181" font-family="Helvetica,sans-Serif" font-size="10.00">&#45; gkIntegrRiseRangedB</text>
<text text-anchor="start" x="138" y="-170" font-family="Helvetica,sans-Serif" font-size="10.00">&#45; gkIntegrRiseTime</text>
<text text-anchor="start" x="138" y="-159" font-family="Helvetica,sans-Serif" font-size="10.00">&#45; gkMinThreshold</text>
<polyline fill="none" stroke="black" points="130,-152 274,-152 "/>
<text text-anchor="start" x="138" y="-140" font-family="Helvetica,sans-Serif" font-size="10.00">+ CreatePort_In()</text>
<text text-anchor="start" x="138" y="-129" font-family="Helvetica,sans-Serif" font-size="10.00">+ CreatePort_Out()</text>
<text text-anchor="start" x="138" y="-118" font-family="Helvetica,sans-Serif" font-size="10.00">+ OnEvent()</text>
<text text-anchor="start" x="138" y="-107" font-family="Helvetica,sans-Serif" font-size="10.00">+ OnEvent()</text>
<text text-anchor="start" x="138" y="-96" font-family="Helvetica,sans-Serif" font-size="10.00">+ OnEvent()</text>
<text text-anchor="start" x="138" y="-85" font-family="Helvetica,sans-Serif" font-size="10.00">+ OnEvent()</text>
<text text-anchor="start" x="138" y="-74" font-family="Helvetica,sans-Serif" font-size="10.00">+ StatsGet()</text>
<text text-anchor="start" x="138" y="-63" font-family="Helvetica,sans-Serif" font-size="10.00">+ CreateInstance()</text>
<text text-anchor="start" x="138" y="-52" font-family="Helvetica,sans-Serif" font-size="10.00"># _Register()</text>
<text text-anchor="start" x="138" y="-41" font-family="Helvetica,sans-Serif" font-size="10.00">&#45; TNodePPMProcessor()</text>
<text text-anchor="start" x="138" y="-30" font-family="Helvetica,sans-Serif" font-size="10.00">&#45; _CompensateCongestions()</text>
<text text-anchor="start" x="138" y="-19" font-family="Helvetica,sans-Serif" font-size="10.00">&#45; _FindPeak()</text>
<text text-anchor="start" x="138" y="-8" font-family="Helvetica,sans-Serif" font-size="10.00">&#45; _ProcessChunk()</text>
</g>
<!-- Node2 -->
<g id="node2" class="node"><title>Node2</title>
<g id="a_node2"><a xlink:href="../../d5/d6a/classppm__java_1_1typelib_1_1_v_audio_processor.html" target="_top" xlink:title="Base class for all modules processing audio samples. ">
<polygon fill="white" stroke="black" points="-0.5,-393 -0.5,-571 106.5,-571 106.5,-393 -0.5,-393"/>
<text text-anchor="middle" x="53" y="-559" font-family="Helvetica,sans-Serif" font-size="10.00">VAudioProcessor</text>
<polyline fill="none" stroke="black" points="-0.5,-552 106.5,-552 "/>
<text text-anchor="start" x="7.5" y="-540" font-family="Helvetica,sans-Serif" font-size="10.00">&#45; fPortsIn</text>
<text text-anchor="start" x="7.5" y="-529" font-family="Helvetica,sans-Serif" font-size="10.00">&#45; fPortsOut</text>
<polyline fill="none" stroke="black" points="-0.5,-522 106.5,-522 "/>
<text text-anchor="start" x="7.5" y="-510" font-family="Helvetica,sans-Serif" font-size="10.00">+ VAudioProcessor()</text>
<text text-anchor="start" x="7.5" y="-499" font-family="Helvetica,sans-Serif" font-size="10.00">+ CreatePort_In()</text>
<text text-anchor="start" x="7.5" y="-488" font-family="Helvetica,sans-Serif" font-size="10.00">+ CreatePort_Out()</text>
<text text-anchor="start" x="7.5" y="-477" font-family="Helvetica,sans-Serif" font-size="10.00">+ GetNumPortsIn()</text>
<text text-anchor="start" x="7.5" y="-466" font-family="Helvetica,sans-Serif" font-size="10.00">+ GetNumPortsOut()</text>
<text text-anchor="start" x="7.5" y="-455" font-family="Helvetica,sans-Serif" font-size="10.00">+ GetPortIn()</text>
<text text-anchor="start" x="7.5" y="-444" font-family="Helvetica,sans-Serif" font-size="10.00">+ GetPortIn()</text>
<text text-anchor="start" x="7.5" y="-433" font-family="Helvetica,sans-Serif" font-size="10.00">+ GetPortOut()</text>
<text text-anchor="start" x="7.5" y="-422" font-family="Helvetica,sans-Serif" font-size="10.00">+ GetPortOut()</text>
<text text-anchor="start" x="7.5" y="-411" font-family="Helvetica,sans-Serif" font-size="10.00"># AddPortIn()</text>
<text text-anchor="start" x="7.5" y="-400" font-family="Helvetica,sans-Serif" font-size="10.00"># AddPortOut()</text>
</a>
</g>
</g>
<!-- Node2&#45;&gt;Node1 -->
<g id="edge1" class="edge"><title>Node2&#45;&gt;Node1</title>
<path fill="none" stroke="midnightblue" d="M100.993,-383.725C110.26,-364.942 120.157,-344.884 129.995,-324.944"/>
<polygon fill="none" stroke="midnightblue" points="97.7834,-382.321 96.4975,-392.837 104.061,-385.418 97.7834,-382.321"/>
</g>
<!-- Node3 -->
<g id="node3" class="node"><title>Node3</title>
<g id="a_node3"><a xlink:href="../../d1/db3/classppm__java_1_1typelib_1_1_v_audio_object.html" target="_top" xlink:title="Base class for all browseable audio objects. ">
<polygon fill="white" stroke="black" points="7,-608.5 7,-665.5 99,-665.5 99,-608.5 7,-608.5"/>
<text text-anchor="middle" x="53" y="-653.5" font-family="Helvetica,sans-Serif" font-size="10.00">VAudioObject</text>
<polyline fill="none" stroke="black" points="7,-646.5 99,-646.5 "/>
<text text-anchor="middle" x="53" y="-634.5" font-family="Helvetica,sans-Serif" font-size="10.00"> </text>
<polyline fill="none" stroke="black" points="7,-627.5 99,-627.5 "/>
<text text-anchor="start" x="15" y="-615.5" font-family="Helvetica,sans-Serif" font-size="10.00">+ VAudioObject()</text>
</a>
</g>
</g>
<!-- Node3&#45;&gt;Node2 -->
<g id="edge2" class="edge"><title>Node3&#45;&gt;Node2</title>
<path fill="none" stroke="midnightblue" d="M53,-598.166C53,-589.781 53,-580.554 53,-571.086"/>
<polygon fill="none" stroke="midnightblue" points="49.5001,-598.293 53,-608.293 56.5001,-598.293 49.5001,-598.293"/>
</g>
<!-- Node4 -->
<g id="node4" class="node"><title>Node4</title>
<g id="a_node4"><a xlink:href="../../de/dd1/classppm__java_1_1typelib_1_1_v_browseable.html" target="_top" xlink:title="Base class for all browseable objects. ">
<polygon fill="white" stroke="black" points="8.5,-702.5 8.5,-781.5 97.5,-781.5 97.5,-702.5 8.5,-702.5"/>
<text text-anchor="middle" x="53" y="-769.5" font-family="Helvetica,sans-Serif" font-size="10.00">VBrowseable</text>
<polyline fill="none" stroke="black" points="8.5,-762.5 97.5,-762.5 "/>
<text text-anchor="start" x="16.5" y="-750.5" font-family="Helvetica,sans-Serif" font-size="10.00">&#45; fID</text>
<polyline fill="none" stroke="black" points="8.5,-743.5 97.5,-743.5 "/>
<text text-anchor="start" x="16.5" y="-731.5" font-family="Helvetica,sans-Serif" font-size="10.00">+ VBrowseable()</text>
<text text-anchor="start" x="16.5" y="-720.5" font-family="Helvetica,sans-Serif" font-size="10.00">+ GetID()</text>
<text text-anchor="start" x="16.5" y="-709.5" font-family="Helvetica,sans-Serif" font-size="10.00"># _Register()</text>
</a>
</g>
</g>
<!-- Node4&#45;&gt;Node3 -->
<g id="edge3" class="edge"><title>Node4&#45;&gt;Node3</title>
<path fill="none" stroke="midnightblue" d="M53,-692.163C53,-683.04 53,-673.806 53,-665.61"/>
<polygon fill="none" stroke="midnightblue" points="49.5001,-692.354 53,-702.354 56.5001,-692.354 49.5001,-692.354"/>
</g>
<!-- Node5 -->
<g id="node5" class="node"><title>Node5</title>
<g id="a_node5"><a xlink:href="../../df/dbb/interfaceppm__java_1_1typelib_1_1_i_evented.html" target="_top" xlink:title="Base interface for the event system. ">
<polygon fill="white" stroke="black" points="125,-404 125,-560 279,-560 279,-404 125,-404"/>
<text text-anchor="middle" x="202" y="-548" font-family="Helvetica,sans-Serif" font-size="10.00">IEvented</text>
<polyline fill="none" stroke="black" points="125,-541 279,-541 "/>
<text text-anchor="start" x="133" y="-529" font-family="Helvetica,sans-Serif" font-size="10.00">+ gkEventBufferNotifyOverrun</text>
<text text-anchor="start" x="133" y="-518" font-family="Helvetica,sans-Serif" font-size="10.00">+ gkEventBufferNotifyUnderrun</text>
<text text-anchor="start" x="133" y="-507" font-family="Helvetica,sans-Serif" font-size="10.00">+ gkEventStart</text>
<text text-anchor="start" x="133" y="-496" font-family="Helvetica,sans-Serif" font-size="10.00">+ gkEventStop</text>
<text text-anchor="start" x="133" y="-485" font-family="Helvetica,sans-Serif" font-size="10.00">+ gkEventTimerAdjustInterval</text>
<text text-anchor="start" x="133" y="-474" font-family="Helvetica,sans-Serif" font-size="10.00">+ gkEventTimerNotifyInterval</text>
<text text-anchor="start" x="133" y="-463" font-family="Helvetica,sans-Serif" font-size="10.00">+ gkEventTimerTick</text>
<polyline fill="none" stroke="black" points="125,-456 279,-456 "/>
<text text-anchor="start" x="133" y="-444" font-family="Helvetica,sans-Serif" font-size="10.00">+ OnEvent()</text>
<text text-anchor="start" x="133" y="-433" font-family="Helvetica,sans-Serif" font-size="10.00">+ OnEvent()</text>
<text text-anchor="start" x="133" y="-422" font-family="Helvetica,sans-Serif" font-size="10.00">+ OnEvent()</text>
<text text-anchor="start" x="133" y="-411" font-family="Helvetica,sans-Serif" font-size="10.00">+ OnEvent()</text>
</a>
</g>
</g>
<!-- Node5&#45;&gt;Node1 -->
<g id="edge4" class="edge"><title>Node5&#45;&gt;Node1</title>
<path fill="none" stroke="midnightblue" d="M202,-393.521C202,-381.298 202,-368.396 202,-355.231"/>
<polygon fill="none" stroke="midnightblue" points="198.5,-393.62 202,-403.62 205.5,-393.62 198.5,-393.62"/>
</g>
<!-- Node6 -->
<g id="node6" class="node"><title>Node6</title>
<g id="a_node6"><a xlink:href="../../dc/dc0/interfaceppm__java_1_1typelib_1_1_i_stat_enabled.html" target="_top" xlink:title="Interface for an object that supports runtime statistics. ">
<polygon fill="white" stroke="black" points="297.5,-453.5 297.5,-510.5 370.5,-510.5 370.5,-453.5 297.5,-453.5"/>
<text text-anchor="middle" x="334" y="-498.5" font-family="Helvetica,sans-Serif" font-size="10.00">IStatEnabled</text>
<polyline fill="none" stroke="black" points="297.5,-491.5 370.5,-491.5 "/>
<text text-anchor="middle" x="334" y="-479.5" font-family="Helvetica,sans-Serif" font-size="10.00"> </text>
<polyline fill="none" stroke="black" points="297.5,-472.5 370.5,-472.5 "/>
<text text-anchor="start" x="305.5" y="-460.5" font-family="Helvetica,sans-Serif" font-size="10.00">+ StatsGet()</text>
</a>
</g>
</g>
<!-- Node6&#45;&gt;Node1 -->
<g id="edge5" class="edge"><title>Node6&#45;&gt;Node1</title>
<path fill="none" stroke="midnightblue" d="M317.84,-444.028C306.533,-418.158 290.553,-381.599 274.064,-343.874"/>
<polygon fill="none" stroke="midnightblue" points="314.724,-445.638 321.936,-453.399 321.138,-442.834 314.724,-445.638"/>
</g>
</g>
</svg>
        <g id="navigator" transform="translate(0 0)" fill="#404254">
                <rect fill="#f2f5e9" fill-opacity="0.5" stroke="#606060" stroke-width=".5" x="0" y="0" width="60" height="60"/>
                <use id="zoomplus" xlink:href="#zoomPlus" x="17" y="9" onmousedown="handleZoom(evt,'in')"/>
                <use id="zoomminus" xlink:href="#zoomMin" x="42" y="9" onmousedown="handleZoom(evt,'out')"/>
                <use id="reset" xlink:href="#resetDef" x="30" y="36" onmousedown="handleReset()"/>
                <g id="arrowUp" xlink:href="#dirArrow" transform="translate(30 24)" onmousedown="handlePan(0,-1)">
                  <use xlink:href="#rim" fill="#404040">
                        <set attributeName="fill" to="#808080" begin="arrowUp.mouseover" end="arrowUp.mouseout"/>
                  </use>
                  <path fill="none" stroke="white" stroke-width="1.5" d="M0,-3.0v7 M-2.5,-0.5L0,-3.0L2.5,-0.5"/>
                </g>
                <g id="arrowRight" xlink:href="#dirArrow" transform="rotate(90) translate(36 -43)" onmousedown="handlePan(1,0)">
                  <use xlink:href="#rim" fill="#404040">
                        <set attributeName="fill" to="#808080" begin="arrowRight.mouseover" end="arrowRight.mouseout"/>
                  </use>
                  <path fill="none" stroke="white" stroke-width="1.5" d="M0,-3.0v7 M-2.5,-0.5L0,-3.0L2.5,-0.5"/>
                </g>
                <g id="arrowDown" xlink:href="#dirArrow" transform="rotate(180) translate(-30 -48)" onmousedown="handlePan(0,1)">
                  <use xlink:href="#rim" fill="#404040">
                        <set attributeName="fill" to="#808080" begin="arrowDown.mouseover" end="arrowDown.mouseout"/>
                  </use>
                  <path fill="none" stroke="white" stroke-width="1.5" d="M0,-3.0v7 M-2.5,-0.5L0,-3.0L2.5,-0.5"/>
                </g>
                <g id="arrowLeft" xlink:href="#dirArrow" transform="rotate(270) translate(-36 17)" onmousedown="handlePan(-1,0)">
                  <use xlink:href="#rim" fill="#404040">
                        <set attributeName="fill" to="#808080" begin="arrowLeft.mouseover" end="arrowLeft.mouseout"/>
                  </use>
                  <path fill="none" stroke="white" stroke-width="1.5" d="M0,-3.0v7 M-2.5,-0.5L0,-3.0L2.5,-0.5"/>
                </g>
        </g>
        <svg viewBox="0 0 15 15" width="100%" height="30px" preserveAspectRatio="xMaxYMin meet">
         <g id="arrow_out" transform="scale(0.3 0.3)">
          <a xlink:href="classppm__java_1_1backend_1_1module_1_1__deprecated__ppm_1_1_t_node_p_p_m_processor__inherit__graph_org.svg" target="_base">
           <rect id="button" ry="5" rx="5" y="6" x="6" height="38" width="38"
                fill="#f2f5e9" fill-opacity="0.5" stroke="#606060" stroke-width="1.0"/>
           <path id="arrow"
             d="M 11.500037,31.436501 C 11.940474,20.09759 22.043105,11.32322 32.158766,21.979434 L 37.068811,17.246167 C 37.068811,17.246167 37.088388,32 37.088388,32 L 22.160133,31.978069 C 22.160133,31.978069 26.997745,27.140456 26.997745,27.140456 C 18.528582,18.264221 13.291696,25.230495 11.500037,31.436501 z"
             style="fill:#404040;"/>
          </a>
         </g>
        </svg>
</svg>
