<?xml version="1.0" encoding="UTF-8" standalone="no"?>
<!DOCTYPE svg PUBLIC "-//W3C//DTD SVG 1.1//EN"
 "http://www.w3.org/Graphics/SVG/1.1/DTD/svg11.dtd">
<!-- Generated by graphviz version 2.36.0 (20140111.2315)
 -->
<!-- Title: CreateInstance Pages: 1 -->
<svg width="252pt" height="28pt"
 viewBox="0.00 0.00 252.00 28.00" xmlns="http://www.w3.org/2000/svg" xmlns:xlink="http://www.w3.org/1999/xlink">
<g id="graph0" class="graph" transform="scale(1 1) rotate(0) translate(4 24)">
<title>CreateInstance</title>
<polygon fill="white" stroke="none" points="-4,4 -4,-24 248,-24 248,4 -4,4"/>
<!-- Node1 -->
<g id="node1" class="node"><title>Node1</title>
<polygon fill="#bfbfbf" stroke="black" points="0.5,-0.5 0.5,-19.5 83.5,-19.5 83.5,-0.5 0.5,-0.5"/>
<text text-anchor="middle" x="42" y="-7.5" font-family="Helvetica,sans-Serif" font-size="10.00">CreateInstance</text>
</g>
<!-- Node2 -->
<g id="node2" class="node"><title>Node2</title>
<g id="a_node2"><a xlink:href="../../db/d4f/classppm__java_1_1util_1_1logging_1_1_t_logger.html#a4b77827bcfc88c8b4cadb4be1e259733" target="_top" xlink:title="cTor. ">
<polygon fill="white" stroke="black" points="120,-0.5 120,-19.5 172,-19.5 172,-0.5 120,-0.5"/>
<text text-anchor="middle" x="146" y="-7.5" font-family="Helvetica,sans-Serif" font-size="10.00">TLogger</text>
</a>
</g>
</g>
<!-- Node1&#45;&gt;Node2 -->
<g id="edge1" class="edge"><title>Node1&#45;&gt;Node2</title>
<path fill="none" stroke="midnightblue" d="M83.6062,-10C92.2,-10 101.205,-10 109.588,-10"/>
<polygon fill="midnightblue" stroke="midnightblue" points="109.797,-13.5001 119.797,-10 109.797,-6.5001 109.797,-13.5001"/>
</g>
<!-- Node3 -->
<g id="node3" class="node"><title>Node3</title>
<g id="a_node3"><a xlink:href="../../db/d4f/classppm__java_1_1util_1_1logging_1_1_t_logger.html#a4900d2a7cefa869e24092f998a8d0d15" target="_top" xlink:title="Does any necessary setup work. ">
<polygon fill="white" stroke="black" points="208.5,-0.5 208.5,-19.5 243.5,-19.5 243.5,-0.5 208.5,-0.5"/>
<text text-anchor="middle" x="226" y="-7.5" font-family="Helvetica,sans-Serif" font-size="10.00">_Init</text>
</a>
</g>
</g>
<!-- Node2&#45;&gt;Node3 -->
<g id="edge2" class="edge"><title>Node2&#45;&gt;Node3</title>
<path fill="none" stroke="midnightblue" d="M172.109,-10C180.376,-10 189.6,-10 198.002,-10"/>
<polygon fill="midnightblue" stroke="midnightblue" points="198.069,-13.5001 208.069,-10 198.069,-6.5001 198.069,-13.5001"/>
</g>
</g>
</svg>
