<?xml version="1.0" encoding="UTF-8" standalone="no"?>
<!DOCTYPE svg PUBLIC "-//W3C//DTD SVG 1.1//EN"
 "http://www.w3.org/Graphics/SVG/1.1/DTD/svg11.dtd">
<!-- Generated by graphviz version 2.36.0 (20140111.2315)
 -->
<!-- Title: _Init Pages: 1 -->
<svg width="252pt" height="28pt"
 viewBox="0.00 0.00 252.00 28.00" xmlns="http://www.w3.org/2000/svg" xmlns:xlink="http://www.w3.org/1999/xlink">
<g id="graph0" class="graph" transform="scale(1 1) rotate(0) translate(4 24)">
<title>_Init</title>
<polygon fill="white" stroke="none" points="-4,4 -4,-24 248,-24 248,4 -4,4"/>
<!-- Node1 -->
<g id="node1" class="node"><title>Node1</title>
<polygon fill="#bfbfbf" stroke="black" points="0.5,-0.5 0.5,-19.5 35.5,-19.5 35.5,-0.5 0.5,-0.5"/>
<text text-anchor="middle" x="18" y="-7.5" font-family="Helvetica,sans-Serif" font-size="10.00">_Init</text>
</g>
<!-- Node2 -->
<g id="node2" class="node"><title>Node2</title>
<g id="a_node2"><a xlink:href="../../db/d4f/classppm__java_1_1util_1_1logging_1_1_t_logger.html#a4b77827bcfc88c8b4cadb4be1e259733" target="_top" xlink:title="cTor. ">
<polygon fill="white" stroke="black" points="72,-0.5 72,-19.5 124,-19.5 124,-0.5 72,-0.5"/>
<text text-anchor="middle" x="98" y="-7.5" font-family="Helvetica,sans-Serif" font-size="10.00">TLogger</text>
</a>
</g>
</g>
<!-- Node1&#45;&gt;Node2 -->
<g id="edge1" class="edge"><title>Node1&#45;&gt;Node2</title>
<path fill="none" stroke="midnightblue" d="M45.6823,-10C54.1633,-10 63.5104,-10 71.8775,-10"/>
<polygon fill="midnightblue" stroke="midnightblue" points="45.5418,-6.5001 35.5418,-10 45.5418,-13.5001 45.5418,-6.5001"/>
</g>
<!-- Node3 -->
<g id="node3" class="node"><title>Node3</title>
<g id="a_node3"><a xlink:href="../../db/d4f/classppm__java_1_1util_1_1logging_1_1_t_logger.html#a4b52b61b4172bf7741456acbc7d604a1" target="_top" xlink:title="Creates a global logger. ">
<polygon fill="white" stroke="black" points="160.5,-0.5 160.5,-19.5 243.5,-19.5 243.5,-0.5 160.5,-0.5"/>
<text text-anchor="middle" x="202" y="-7.5" font-family="Helvetica,sans-Serif" font-size="10.00">CreateInstance</text>
</a>
</g>
</g>
<!-- Node2&#45;&gt;Node3 -->
<g id="edge2" class="edge"><title>Node2&#45;&gt;Node3</title>
<path fill="none" stroke="midnightblue" d="M134.364,-10C142.698,-10 151.649,-10 160.201,-10"/>
<polygon fill="midnightblue" stroke="midnightblue" points="134.214,-6.5001 124.213,-10 134.213,-13.5001 134.214,-6.5001"/>
</g>
</g>
</svg>
