<?xml version="1.0" encoding="UTF-8" standalone="no"?>
<!DOCTYPE svg PUBLIC "-//W3C//DTD SVG 1.1//EN"
 "http://www.w3.org/Graphics/SVG/1.1/DTD/svg11.dtd">
<!-- Generated by graphviz version 2.36.0 (20140111.2315)
 -->
<!-- Title: TNodePPMProcessor_Endpoint_Out Pages: 1 -->
<svg width="460pt" height="1102pt"
 viewBox="0.00 0.00 460.00 1102.00" xmlns="http://www.w3.org/2000/svg" xmlns:xlink="http://www.w3.org/1999/xlink">
<g id="graph0" class="graph" transform="scale(1 1) rotate(0) translate(4 1098)">
<title>TNodePPMProcessor_Endpoint_Out</title>
<polygon fill="white" stroke="none" points="-4,4 -4,-1098 456,-1098 456,4 -4,4"/>
<!-- Node1 -->
<g id="node1" class="node"><title>Node1</title>
<polygon fill="#bfbfbf" stroke="black" points="248.5,-1 248.5,-69 439.5,-69 439.5,-1 248.5,-1"/>
<text text-anchor="middle" x="344" y="-57" font-family="Helvetica,sans-Serif" font-size="10.00">TNodePPMProcessor_Endpoint_Out</text>
<polyline fill="none" stroke="black" points="248.5,-50 439.5,-50 "/>
<text text-anchor="middle" x="344" y="-38" font-family="Helvetica,sans-Serif" font-size="10.00"> </text>
<polyline fill="none" stroke="black" points="248.5,-31 439.5,-31 "/>
<text text-anchor="start" x="256.5" y="-19" font-family="Helvetica,sans-Serif" font-size="10.00">+ TNodePPMProcessor_Endpoint_Out()</text>
<text text-anchor="start" x="256.5" y="-8" font-family="Helvetica,sans-Serif" font-size="10.00"># _Register()</text>
</g>
<!-- Node2 -->
<g id="node2" class="node"><title>Node2</title>
<g id="a_node2"><a xlink:href="../../df/d90/classppm__java_1_1typelib_1_1_v_audio_port___output___samples.html" target="_top" xlink:title="Base class for an output that sends single sample values. ">
<polygon fill="white" stroke="black" points="264.5,-109 264.5,-221 423.5,-221 423.5,-109 264.5,-109"/>
<text text-anchor="middle" x="344" y="-209" font-family="Helvetica,sans-Serif" font-size="10.00">VAudioPort_Output_Samples</text>
<polyline fill="none" stroke="black" points="264.5,-202 423.5,-202 "/>
<text text-anchor="middle" x="344" y="-190" font-family="Helvetica,sans-Serif" font-size="10.00"> </text>
<polyline fill="none" stroke="black" points="264.5,-183 423.5,-183 "/>
<text text-anchor="start" x="272.5" y="-171" font-family="Helvetica,sans-Serif" font-size="10.00">+ VAudioPort_Output_Samples()</text>
<text text-anchor="start" x="272.5" y="-160" font-family="Helvetica,sans-Serif" font-size="10.00">+ PushSample()</text>
<text text-anchor="start" x="272.5" y="-149" font-family="Helvetica,sans-Serif" font-size="10.00"># _GetType()</text>
<text text-anchor="start" x="272.5" y="-138" font-family="Helvetica,sans-Serif" font-size="10.00"># _Visit()</text>
<text text-anchor="start" x="272.5" y="-127" font-family="Helvetica,sans-Serif" font-size="10.00"># _Visit()</text>
<text text-anchor="start" x="272.5" y="-116" font-family="Helvetica,sans-Serif" font-size="10.00"># _Visit()</text>
</a>
</g>
</g>
<!-- Node2&#45;&gt;Node1 -->
<g id="edge1" class="edge"><title>Node2&#45;&gt;Node1</title>
<path fill="none" stroke="midnightblue" d="M344,-98.7462C344,-88.494 344,-78.2848 344,-69.1713"/>
<polygon fill="none" stroke="midnightblue" points="340.5,-98.9736 344,-108.974 347.5,-98.9737 340.5,-98.9736"/>
</g>
<!-- Node3 -->
<g id="node3" class="node"><title>Node3</title>
<g id="a_node3"><a xlink:href="../../df/d02/classppm__java_1_1typelib_1_1_v_audio_port___output.html" target="_top" xlink:title="Base class for an output audio port. ">
<polygon fill="white" stroke="black" points="286,-261 286,-395 402,-395 402,-261 286,-261"/>
<text text-anchor="middle" x="344" y="-383" font-family="Helvetica,sans-Serif" font-size="10.00">VAudioPort_Output</text>
<polyline fill="none" stroke="black" points="286,-376 402,-376 "/>
<text text-anchor="middle" x="344" y="-364" font-family="Helvetica,sans-Serif" font-size="10.00"> </text>
<polyline fill="none" stroke="black" points="286,-357 402,-357 "/>
<text text-anchor="start" x="294" y="-345" font-family="Helvetica,sans-Serif" font-size="10.00">+ VAudioPort_Output()</text>
<text text-anchor="start" x="294" y="-334" font-family="Helvetica,sans-Serif" font-size="10.00">+ SetTarget()</text>
<text text-anchor="start" x="294" y="-323" font-family="Helvetica,sans-Serif" font-size="10.00"># _GetTarget()</text>
<text text-anchor="start" x="294" y="-312" font-family="Helvetica,sans-Serif" font-size="10.00"># _SetTarget()</text>
<text text-anchor="start" x="294" y="-301" font-family="Helvetica,sans-Serif" font-size="10.00"># _SetTarget_Log()</text>
<text text-anchor="start" x="294" y="-290" font-family="Helvetica,sans-Serif" font-size="10.00"># _Visit()</text>
<text text-anchor="start" x="294" y="-279" font-family="Helvetica,sans-Serif" font-size="10.00"># _Visit()</text>
<text text-anchor="start" x="294" y="-268" font-family="Helvetica,sans-Serif" font-size="10.00"># _Visit()</text>
</a>
</g>
</g>
<!-- Node3&#45;&gt;Node2 -->
<g id="edge2" class="edge"><title>Node3&#45;&gt;Node2</title>
<path fill="none" stroke="midnightblue" d="M344,-250.392C344,-240.56 344,-230.649 344,-221.25"/>
<polygon fill="none" stroke="midnightblue" points="340.5,-250.586 344,-260.586 347.5,-250.586 340.5,-250.586"/>
</g>
<!-- Node4 -->
<g id="node4" class="node"><title>Node4</title>
<g id="a_node4"><a xlink:href="../../de/dc9/classppm__java_1_1typelib_1_1_v_audio_port.html" target="_top" xlink:title="Base class for all audio ports. ">
<polygon fill="white" stroke="black" points="287.5,-562.5 287.5,-641.5 368.5,-641.5 368.5,-562.5 287.5,-562.5"/>
<text text-anchor="middle" x="328" y="-629.5" font-family="Helvetica,sans-Serif" font-size="10.00">VAudioPort</text>
<polyline fill="none" stroke="black" points="287.5,-622.5 368.5,-622.5 "/>
<text text-anchor="middle" x="328" y="-610.5" font-family="Helvetica,sans-Serif" font-size="10.00"> </text>
<polyline fill="none" stroke="black" points="287.5,-603.5 368.5,-603.5 "/>
<text text-anchor="start" x="295.5" y="-591.5" font-family="Helvetica,sans-Serif" font-size="10.00">+ VAudioPort()</text>
<text text-anchor="start" x="295.5" y="-580.5" font-family="Helvetica,sans-Serif" font-size="10.00"># _GetHost()</text>
<text text-anchor="start" x="295.5" y="-569.5" font-family="Helvetica,sans-Serif" font-size="10.00"># _GetType()</text>
</a>
</g>
</g>
<!-- Node4&#45;&gt;Node3 -->
<g id="edge3" class="edge"><title>Node4&#45;&gt;Node3</title>
<path fill="none" stroke="midnightblue" d="M329.756,-552.159C330.974,-521.162 332.776,-480.211 335,-444 335.97,-428.209 337.198,-411.212 338.433,-395.258"/>
<polygon fill="none" stroke="midnightblue" points="326.254,-552.141 329.365,-562.269 333.249,-552.411 326.254,-552.141"/>
</g>
<!-- Node10 -->
<g id="node10" class="node"><title>Node10</title>
<g id="a_node10"><a xlink:href="../../d9/d0e/classppm__java_1_1typelib_1_1_v_audio_port___input.html" target="_top" xlink:title="Base class for an input audio port. ">
<polygon fill="white" stroke="black" points="344,-444.5 344,-523.5 452,-523.5 452,-444.5 344,-444.5"/>
<text text-anchor="middle" x="398" y="-511.5" font-family="Helvetica,sans-Serif" font-size="10.00">VAudioPort_Input</text>
<polyline fill="none" stroke="black" points="344,-504.5 452,-504.5 "/>
<text text-anchor="start" x="352" y="-492.5" font-family="Helvetica,sans-Serif" font-size="10.00">&#45; fIPort</text>
<polyline fill="none" stroke="black" points="344,-485.5 452,-485.5 "/>
<text text-anchor="start" x="352" y="-473.5" font-family="Helvetica,sans-Serif" font-size="10.00">+ VAudioPort_Input()</text>
<text text-anchor="start" x="352" y="-462.5" font-family="Helvetica,sans-Serif" font-size="10.00">+ GetPortNum()</text>
<text text-anchor="start" x="352" y="-451.5" font-family="Helvetica,sans-Serif" font-size="10.00"># _Accept()</text>
</a>
</g>
</g>
<!-- Node4&#45;&gt;Node10 -->
<g id="edge11" class="edge"><title>Node4&#45;&gt;Node10</title>
<path fill="none" stroke="midnightblue" d="M356.496,-553.778C362.498,-543.832 368.764,-533.449 374.554,-523.853"/>
<polygon fill="none" stroke="midnightblue" points="353.479,-552.003 351.309,-562.374 359.472,-555.62 353.479,-552.003"/>
</g>
<!-- Node5 -->
<g id="node5" class="node"><title>Node5</title>
<g id="a_node5"><a xlink:href="../../d1/db3/classppm__java_1_1typelib_1_1_v_audio_object.html" target="_top" xlink:title="Base class for all browseable audio objects. ">
<polygon fill="white" stroke="black" points="336,-912.5 336,-969.5 428,-969.5 428,-912.5 336,-912.5"/>
<text text-anchor="middle" x="382" y="-957.5" font-family="Helvetica,sans-Serif" font-size="10.00">VAudioObject</text>
<polyline fill="none" stroke="black" points="336,-950.5 428,-950.5 "/>
<text text-anchor="middle" x="382" y="-938.5" font-family="Helvetica,sans-Serif" font-size="10.00"> </text>
<polyline fill="none" stroke="black" points="336,-931.5 428,-931.5 "/>
<text text-anchor="start" x="344" y="-919.5" font-family="Helvetica,sans-Serif" font-size="10.00">+ VAudioObject()</text>
</a>
</g>
</g>
<!-- Node5&#45;&gt;Node4 -->
<g id="edge4" class="edge"><title>Node5&#45;&gt;Node4</title>
<path fill="none" stroke="midnightblue" d="M376.253,-902.036C368.049,-848.163 352.377,-746.464 338,-660 337.011,-654.053 335.937,-647.763 334.871,-641.617"/>
<polygon fill="none" stroke="midnightblue" points="372.828,-902.794 377.792,-912.154 379.749,-901.742 372.828,-902.794"/>
</g>
<!-- Node7 -->
<g id="node7" class="node"><title>Node7</title>
<g id="a_node7"><a xlink:href="../../d5/d6a/classppm__java_1_1typelib_1_1_v_audio_processor.html" target="_top" xlink:title="Base class for all modules processing audio samples. ">
<polygon fill="white" stroke="black" points="203.5,-690.5 203.5,-857.5 310.5,-857.5 310.5,-690.5 203.5,-690.5"/>
<text text-anchor="middle" x="257" y="-845.5" font-family="Helvetica,sans-Serif" font-size="10.00">VAudioProcessor</text>
<polyline fill="none" stroke="black" points="203.5,-838.5 310.5,-838.5 "/>
<text text-anchor="middle" x="257" y="-826.5" font-family="Helvetica,sans-Serif" font-size="10.00"> </text>
<polyline fill="none" stroke="black" points="203.5,-819.5 310.5,-819.5 "/>
<text text-anchor="start" x="211.5" y="-807.5" font-family="Helvetica,sans-Serif" font-size="10.00">+ VAudioProcessor()</text>
<text text-anchor="start" x="211.5" y="-796.5" font-family="Helvetica,sans-Serif" font-size="10.00">+ CreatePort_In()</text>
<text text-anchor="start" x="211.5" y="-785.5" font-family="Helvetica,sans-Serif" font-size="10.00">+ CreatePort_Out()</text>
<text text-anchor="start" x="211.5" y="-774.5" font-family="Helvetica,sans-Serif" font-size="10.00">+ GetNumPortsIn()</text>
<text text-anchor="start" x="211.5" y="-763.5" font-family="Helvetica,sans-Serif" font-size="10.00">+ GetNumPortsOut()</text>
<text text-anchor="start" x="211.5" y="-752.5" font-family="Helvetica,sans-Serif" font-size="10.00">+ GetPortIn()</text>
<text text-anchor="start" x="211.5" y="-741.5" font-family="Helvetica,sans-Serif" font-size="10.00">+ GetPortIn()</text>
<text text-anchor="start" x="211.5" y="-730.5" font-family="Helvetica,sans-Serif" font-size="10.00">+ GetPortOut()</text>
<text text-anchor="start" x="211.5" y="-719.5" font-family="Helvetica,sans-Serif" font-size="10.00">+ GetPortOut()</text>
<text text-anchor="start" x="211.5" y="-708.5" font-family="Helvetica,sans-Serif" font-size="10.00"># AddPortIn()</text>
<text text-anchor="start" x="211.5" y="-697.5" font-family="Helvetica,sans-Serif" font-size="10.00"># AddPortOut()</text>
</a>
</g>
</g>
<!-- Node5&#45;&gt;Node7 -->
<g id="edge7" class="edge"><title>Node5&#45;&gt;Node7</title>
<path fill="none" stroke="midnightblue" d="M354.965,-904.313C341.978,-887.172 325.939,-866 310.625,-845.786"/>
<polygon fill="none" stroke="midnightblue" points="352.249,-906.525 361.078,-912.383 357.829,-902.298 352.249,-906.525"/>
</g>
<!-- Node6 -->
<g id="node6" class="node"><title>Node6</title>
<g id="a_node6"><a xlink:href="../../de/dd1/classppm__java_1_1typelib_1_1_v_browseable.html" target="_top" xlink:title="Base class for all browseable objects. ">
<polygon fill="white" stroke="black" points="337.5,-1014.5 337.5,-1093.5 426.5,-1093.5 426.5,-1014.5 337.5,-1014.5"/>
<text text-anchor="middle" x="382" y="-1081.5" font-family="Helvetica,sans-Serif" font-size="10.00">VBrowseable</text>
<polyline fill="none" stroke="black" points="337.5,-1074.5 426.5,-1074.5 "/>
<text text-anchor="start" x="345.5" y="-1062.5" font-family="Helvetica,sans-Serif" font-size="10.00">&#45; fID</text>
<polyline fill="none" stroke="black" points="337.5,-1055.5 426.5,-1055.5 "/>
<text text-anchor="start" x="345.5" y="-1043.5" font-family="Helvetica,sans-Serif" font-size="10.00">+ VBrowseable()</text>
<text text-anchor="start" x="345.5" y="-1032.5" font-family="Helvetica,sans-Serif" font-size="10.00">+ GetID()</text>
<text text-anchor="start" x="345.5" y="-1021.5" font-family="Helvetica,sans-Serif" font-size="10.00"># _Register()</text>
</a>
</g>
</g>
<!-- Node6&#45;&gt;Node5 -->
<g id="edge5" class="edge"><title>Node6&#45;&gt;Node5</title>
<path fill="none" stroke="midnightblue" d="M382,-1004.23C382,-992.364 382,-980.085 382,-969.601"/>
<polygon fill="none" stroke="midnightblue" points="378.5,-1004.49 382,-1014.49 385.5,-1004.49 378.5,-1004.49"/>
</g>
<!-- Node7&#45;&gt;Node4 -->
<g id="edge6" class="edge"><title>Node7&#45;&gt;Node4</title>
<path fill="none" stroke="#404040" d="M291.46,-690.49C296.813,-677.674 302.197,-664.782 307.126,-652.981"/>
<polygon fill="none" stroke="#404040" points="307.259,-652.66 305.881,-645.582 311.884,-641.587 313.263,-648.665 307.259,-652.66"/>
<text text-anchor="middle" x="318.5" y="-663.5" font-family="Helvetica,sans-Serif" font-size="10.00"> &#45;fHost</text>
</g>
<!-- Node8 -->
<g id="node8" class="node"><title>Node8</title>
<polygon fill="white" stroke="#bfbfbf" points="0,-907 0,-975 150,-975 150,-907 0,-907"/>
<text text-anchor="start" x="8" y="-963" font-family="Helvetica,sans-Serif" font-size="10.00">TArrayMap&lt; ppm_java.typelib.</text>
<text text-anchor="middle" x="75" y="-952" font-family="Helvetica,sans-Serif" font-size="10.00">VAudioPort_Output &gt;</text>
<polyline fill="none" stroke="#bfbfbf" points="0,-945 150,-945 "/>
<text text-anchor="middle" x="75" y="-933" font-family="Helvetica,sans-Serif" font-size="10.00"> </text>
<polyline fill="none" stroke="#bfbfbf" points="0,-926 150,-926 "/>
<text text-anchor="middle" x="75" y="-914" font-family="Helvetica,sans-Serif" font-size="10.00"> </text>
</g>
<!-- Node8&#45;&gt;Node7 -->
<g id="edge8" class="edge"><title>Node8&#45;&gt;Node7</title>
<path fill="none" stroke="#404040" d="M111.83,-906.61C135.44,-885.205 166.699,-856.866 194.162,-831.969"/>
<polygon fill="none" stroke="#404040" points="194.423,-831.732 196.181,-824.739 203.313,-823.672 201.555,-830.666 194.423,-831.732"/>
<text text-anchor="middle" x="169.5" y="-879.5" font-family="Helvetica,sans-Serif" font-size="10.00"> &#45;fPortsOut</text>
</g>
<!-- Node9 -->
<g id="node9" class="node"><title>Node9</title>
<polygon fill="white" stroke="#bfbfbf" points="168,-907 168,-975 318,-975 318,-907 168,-907"/>
<text text-anchor="start" x="176" y="-963" font-family="Helvetica,sans-Serif" font-size="10.00">TArrayMap&lt; ppm_java.typelib.</text>
<text text-anchor="middle" x="243" y="-952" font-family="Helvetica,sans-Serif" font-size="10.00">VAudioPort_Input &gt;</text>
<polyline fill="none" stroke="#bfbfbf" points="168,-945 318,-945 "/>
<text text-anchor="middle" x="243" y="-933" font-family="Helvetica,sans-Serif" font-size="10.00"> </text>
<polyline fill="none" stroke="#bfbfbf" points="168,-926 318,-926 "/>
<text text-anchor="middle" x="243" y="-914" font-family="Helvetica,sans-Serif" font-size="10.00"> </text>
</g>
<!-- Node9&#45;&gt;Node7 -->
<g id="edge9" class="edge"><title>Node9&#45;&gt;Node7</title>
<path fill="none" stroke="#404040" d="M245.833,-906.61C246.757,-895.723 247.833,-883.043 248.945,-869.934"/>
<polygon fill="none" stroke="#404040" points="248.959,-869.77 245.48,-863.454 249.973,-857.813 253.452,-864.13 248.959,-869.77"/>
<text text-anchor="middle" x="268.5" y="-879.5" font-family="Helvetica,sans-Serif" font-size="10.00"> &#45;fPortsIn</text>
</g>
<!-- Node10&#45;&gt;Node3 -->
<g id="edge10" class="edge"><title>Node10&#45;&gt;Node3</title>
<path fill="none" stroke="#404040" d="M384.374,-444.139C380.338,-432.63 375.769,-419.6 371.193,-406.549"/>
<polygon fill="none" stroke="#404040" points="371.153,-406.437 365.393,-402.098 367.182,-395.113 372.942,-399.451 371.153,-406.437"/>
<text text-anchor="middle" x="395.5" y="-417.5" font-family="Helvetica,sans-Serif" font-size="10.00"> &#45;fTarget</text>
</g>
</g>
</svg>
