<?xml version="1.0" encoding="UTF-8" standalone="no"?>
<!DOCTYPE svg PUBLIC "-//W3C//DTD SVG 1.1//EN"
 "http://www.w3.org/Graphics/SVG/1.1/DTD/svg11.dtd">
<!-- Generated by graphviz version 2.36.0 (20140111.2315)
 -->
<!-- Title: TRegistry Pages: 1 -->
<svg width="575pt" height="714pt"
 viewBox="0.00 0.00 575.00 714.00" xmlns="http://www.w3.org/2000/svg" xmlns:xlink="http://www.w3.org/1999/xlink">
<g id="graph0" class="graph" transform="scale(1 1) rotate(0) translate(4 710)">
<title>TRegistry</title>
<polygon fill="white" stroke="none" points="-4,4 -4,-710 571,-710 571,4 -4,4"/>
<!-- Node1 -->
<g id="node1" class="node"><title>Node1</title>
<polygon fill="#bfbfbf" stroke="black" points="268,-0.5 268,-145.5 380,-145.5 380,-0.5 268,-0.5"/>
<text text-anchor="middle" x="324" y="-133.5" font-family="Helvetica,sans-Serif" font-size="10.00">TRegistry</text>
<polyline fill="none" stroke="black" points="268,-126.5 380,-126.5 "/>
<text text-anchor="middle" x="324" y="-114.5" font-family="Helvetica,sans-Serif" font-size="10.00"> </text>
<polyline fill="none" stroke="black" points="268,-107.5 380,-107.5 "/>
<text text-anchor="start" x="276" y="-95.5" font-family="Helvetica,sans-Serif" font-size="10.00">+ TRegistry()</text>
<text text-anchor="start" x="276" y="-84.5" font-family="Helvetica,sans-Serif" font-size="10.00">+ GetAudioDriver()</text>
<text text-anchor="start" x="276" y="-73.5" font-family="Helvetica,sans-Serif" font-size="10.00">+ GetNumFrontends()</text>
<text text-anchor="start" x="276" y="-62.5" font-family="Helvetica,sans-Serif" font-size="10.00">+ GetNumObjects()</text>
<text text-anchor="start" x="276" y="-51.5" font-family="Helvetica,sans-Serif" font-size="10.00">+ GetObject()</text>
<text text-anchor="start" x="276" y="-40.5" font-family="Helvetica,sans-Serif" font-size="10.00">+ Register()</text>
<text text-anchor="start" x="276" y="-29.5" font-family="Helvetica,sans-Serif" font-size="10.00">+ Register()</text>
<text text-anchor="start" x="276" y="-18.5" font-family="Helvetica,sans-Serif" font-size="10.00">+ Register()</text>
<text text-anchor="start" x="276" y="-7.5" font-family="Helvetica,sans-Serif" font-size="10.00">+ Unregister()</text>
</g>
<!-- Node2 -->
<g id="node2" class="node"><title>Node2</title>
<g id="a_node2"><a xlink:href="../../dc/d95/classppm__java_1_1typelib_1_1_v_audio_driver.html" target="_top" xlink:title="Base class for all audio drivers. ">
<polygon fill="white" stroke="black" points="139,-195 139,-263 231,-263 231,-195 139,-195"/>
<text text-anchor="middle" x="185" y="-251" font-family="Helvetica,sans-Serif" font-size="10.00">VAudioDriver</text>
<polyline fill="none" stroke="black" points="139,-244 231,-244 "/>
<text text-anchor="middle" x="185" y="-232" font-family="Helvetica,sans-Serif" font-size="10.00"> </text>
<polyline fill="none" stroke="black" points="139,-225 231,-225 "/>
<text text-anchor="start" x="147" y="-213" font-family="Helvetica,sans-Serif" font-size="10.00">+ VAudioDriver()</text>
<text text-anchor="start" x="147" y="-202" font-family="Helvetica,sans-Serif" font-size="10.00">+ CreatePort_In()</text>
</a>
</g>
</g>
<!-- Node2&#45;&gt;Node1 -->
<g id="edge1" class="edge"><title>Node2&#45;&gt;Node1</title>
<path fill="none" stroke="#404040" d="M214.819,-194.963C227.997,-180.363 244.038,-162.591 259.723,-145.214"/>
<polygon fill="none" stroke="#404040" points="259.835,-145.09 260.885,-137.956 267.875,-136.182 266.824,-143.316 259.835,-145.09"/>
<text text-anchor="middle" x="273.5" y="-167.5" font-family="Helvetica,sans-Serif" font-size="10.00"> &#45;fAudioDriver</text>
</g>
<!-- Node3 -->
<g id="node3" class="node"><title>Node3</title>
<g id="a_node3"><a xlink:href="../../d5/d6a/classppm__java_1_1typelib_1_1_v_audio_processor.html" target="_top" xlink:title="Base class for all modules processing audio samples. ">
<polygon fill="white" stroke="black" points="131.5,-302.5 131.5,-469.5 238.5,-469.5 238.5,-302.5 131.5,-302.5"/>
<text text-anchor="middle" x="185" y="-457.5" font-family="Helvetica,sans-Serif" font-size="10.00">VAudioProcessor</text>
<polyline fill="none" stroke="black" points="131.5,-450.5 238.5,-450.5 "/>
<text text-anchor="middle" x="185" y="-438.5" font-family="Helvetica,sans-Serif" font-size="10.00"> </text>
<polyline fill="none" stroke="black" points="131.5,-431.5 238.5,-431.5 "/>
<text text-anchor="start" x="139.5" y="-419.5" font-family="Helvetica,sans-Serif" font-size="10.00">+ VAudioProcessor()</text>
<text text-anchor="start" x="139.5" y="-408.5" font-family="Helvetica,sans-Serif" font-size="10.00">+ CreatePort_In()</text>
<text text-anchor="start" x="139.5" y="-397.5" font-family="Helvetica,sans-Serif" font-size="10.00">+ CreatePort_Out()</text>
<text text-anchor="start" x="139.5" y="-386.5" font-family="Helvetica,sans-Serif" font-size="10.00">+ GetNumPortsIn()</text>
<text text-anchor="start" x="139.5" y="-375.5" font-family="Helvetica,sans-Serif" font-size="10.00">+ GetNumPortsOut()</text>
<text text-anchor="start" x="139.5" y="-364.5" font-family="Helvetica,sans-Serif" font-size="10.00">+ GetPortIn()</text>
<text text-anchor="start" x="139.5" y="-353.5" font-family="Helvetica,sans-Serif" font-size="10.00">+ GetPortIn()</text>
<text text-anchor="start" x="139.5" y="-342.5" font-family="Helvetica,sans-Serif" font-size="10.00">+ GetPortOut()</text>
<text text-anchor="start" x="139.5" y="-331.5" font-family="Helvetica,sans-Serif" font-size="10.00">+ GetPortOut()</text>
<text text-anchor="start" x="139.5" y="-320.5" font-family="Helvetica,sans-Serif" font-size="10.00"># AddPortIn()</text>
<text text-anchor="start" x="139.5" y="-309.5" font-family="Helvetica,sans-Serif" font-size="10.00"># AddPortOut()</text>
</a>
</g>
</g>
<!-- Node3&#45;&gt;Node2 -->
<g id="edge2" class="edge"><title>Node3&#45;&gt;Node2</title>
<path fill="none" stroke="midnightblue" d="M185,-291.761C185,-281.566 185,-271.751 185,-263.061"/>
<polygon fill="none" stroke="midnightblue" points="181.5,-292.055 185,-302.055 188.5,-292.055 181.5,-292.055"/>
</g>
<!-- Node4 -->
<g id="node4" class="node"><title>Node4</title>
<g id="a_node4"><a xlink:href="../../d1/db3/classppm__java_1_1typelib_1_1_v_audio_object.html" target="_top" xlink:title="Base class for all browseable audio objects. ">
<polygon fill="white" stroke="black" points="0,-524.5 0,-581.5 92,-581.5 92,-524.5 0,-524.5"/>
<text text-anchor="middle" x="46" y="-569.5" font-family="Helvetica,sans-Serif" font-size="10.00">VAudioObject</text>
<polyline fill="none" stroke="black" points="0,-562.5 92,-562.5 "/>
<text text-anchor="middle" x="46" y="-550.5" font-family="Helvetica,sans-Serif" font-size="10.00"> </text>
<polyline fill="none" stroke="black" points="0,-543.5 92,-543.5 "/>
<text text-anchor="start" x="8" y="-531.5" font-family="Helvetica,sans-Serif" font-size="10.00">+ VAudioObject()</text>
</a>
</g>
</g>
<!-- Node4&#45;&gt;Node3 -->
<g id="edge3" class="edge"><title>Node4&#45;&gt;Node3</title>
<path fill="none" stroke="midnightblue" d="M75.9091,-516.496C92.0628,-497.321 112.498,-473.064 131.303,-450.741"/>
<polygon fill="none" stroke="midnightblue" points="73.0315,-514.48 69.2655,-524.383 78.3851,-518.99 73.0315,-514.48"/>
</g>
<!-- Node5 -->
<g id="node5" class="node"><title>Node5</title>
<g id="a_node5"><a xlink:href="../../de/dd1/classppm__java_1_1typelib_1_1_v_browseable.html" target="_top" xlink:title="Base class for all browseable objects. ">
<polygon fill="white" stroke="black" points="1.5,-626.5 1.5,-705.5 90.5,-705.5 90.5,-626.5 1.5,-626.5"/>
<text text-anchor="middle" x="46" y="-693.5" font-family="Helvetica,sans-Serif" font-size="10.00">VBrowseable</text>
<polyline fill="none" stroke="black" points="1.5,-686.5 90.5,-686.5 "/>
<text text-anchor="start" x="9.5" y="-674.5" font-family="Helvetica,sans-Serif" font-size="10.00">&#45; fID</text>
<polyline fill="none" stroke="black" points="1.5,-667.5 90.5,-667.5 "/>
<text text-anchor="start" x="9.5" y="-655.5" font-family="Helvetica,sans-Serif" font-size="10.00">+ VBrowseable()</text>
<text text-anchor="start" x="9.5" y="-644.5" font-family="Helvetica,sans-Serif" font-size="10.00">+ GetID()</text>
<text text-anchor="start" x="9.5" y="-633.5" font-family="Helvetica,sans-Serif" font-size="10.00"># _Register()</text>
</a>
</g>
</g>
<!-- Node5&#45;&gt;Node4 -->
<g id="edge4" class="edge"><title>Node5&#45;&gt;Node4</title>
<path fill="none" stroke="midnightblue" d="M46,-616.227C46,-604.364 46,-592.085 46,-581.601"/>
<polygon fill="none" stroke="midnightblue" points="42.5001,-616.489 46,-626.489 49.5001,-616.489 42.5001,-616.489"/>
</g>
<!-- Node6 -->
<g id="node6" class="node"><title>Node6</title>
<polygon fill="white" stroke="#bfbfbf" points="110,-519 110,-587 260,-587 260,-519 110,-519"/>
<text text-anchor="start" x="118" y="-575" font-family="Helvetica,sans-Serif" font-size="10.00">TArrayMap&lt; ppm_java.typelib.</text>
<text text-anchor="middle" x="185" y="-564" font-family="Helvetica,sans-Serif" font-size="10.00">VAudioPort_Output &gt;</text>
<polyline fill="none" stroke="#bfbfbf" points="110,-557 260,-557 "/>
<text text-anchor="middle" x="185" y="-545" font-family="Helvetica,sans-Serif" font-size="10.00"> </text>
<polyline fill="none" stroke="#bfbfbf" points="110,-538 260,-538 "/>
<text text-anchor="middle" x="185" y="-526" font-family="Helvetica,sans-Serif" font-size="10.00"> </text>
</g>
<!-- Node6&#45;&gt;Node3 -->
<g id="edge5" class="edge"><title>Node6&#45;&gt;Node3</title>
<path fill="none" stroke="#404040" d="M185,-518.61C185,-507.723 185,-495.043 185,-481.934"/>
<polygon fill="none" stroke="#404040" points="185,-481.813 181,-475.813 185,-469.813 189,-475.813 185,-481.813"/>
<text text-anchor="middle" x="209.5" y="-491.5" font-family="Helvetica,sans-Serif" font-size="10.00"> &#45;fPortsOut</text>
</g>
<!-- Node7 -->
<g id="node7" class="node"><title>Node7</title>
<polygon fill="white" stroke="#bfbfbf" points="278,-519 278,-587 428,-587 428,-519 278,-519"/>
<text text-anchor="start" x="286" y="-575" font-family="Helvetica,sans-Serif" font-size="10.00">TArrayMap&lt; ppm_java.typelib.</text>
<text text-anchor="middle" x="353" y="-564" font-family="Helvetica,sans-Serif" font-size="10.00">VAudioPort_Input &gt;</text>
<polyline fill="none" stroke="#bfbfbf" points="278,-557 428,-557 "/>
<text text-anchor="middle" x="353" y="-545" font-family="Helvetica,sans-Serif" font-size="10.00"> </text>
<polyline fill="none" stroke="#bfbfbf" points="278,-538 428,-538 "/>
<text text-anchor="middle" x="353" y="-526" font-family="Helvetica,sans-Serif" font-size="10.00"> </text>
</g>
<!-- Node7&#45;&gt;Node3 -->
<g id="edge6" class="edge"><title>Node7&#45;&gt;Node3</title>
<path fill="none" stroke="#404040" d="M319.003,-518.61C298.509,-498.482 271.771,-472.221 247.575,-448.457"/>
<polygon fill="none" stroke="#404040" points="247.353,-448.24 240.269,-446.889 238.792,-439.831 245.875,-441.182 247.353,-448.24"/>
<text text-anchor="middle" x="319.5" y="-491.5" font-family="Helvetica,sans-Serif" font-size="10.00"> &#45;fPortsIn</text>
</g>
<!-- Node8 -->
<g id="node8" class="node"><title>Node8</title>
<polygon fill="white" stroke="#bfbfbf" points="249,-195 249,-263 399,-263 399,-195 249,-195"/>
<text text-anchor="start" x="257" y="-251" font-family="Helvetica,sans-Serif" font-size="10.00">TArrayMap&lt; ppm_java.typelib.</text>
<text text-anchor="middle" x="324" y="-240" font-family="Helvetica,sans-Serif" font-size="10.00">VFrontend &gt;</text>
<polyline fill="none" stroke="#bfbfbf" points="249,-233 399,-233 "/>
<text text-anchor="middle" x="324" y="-221" font-family="Helvetica,sans-Serif" font-size="10.00"> </text>
<polyline fill="none" stroke="#bfbfbf" points="249,-214 399,-214 "/>
<text text-anchor="middle" x="324" y="-202" font-family="Helvetica,sans-Serif" font-size="10.00"> </text>
</g>
<!-- Node8&#45;&gt;Node1 -->
<g id="edge7" class="edge"><title>Node8&#45;&gt;Node1</title>
<path fill="none" stroke="#404040" d="M324,-194.963C324,-183.866 324,-170.937 324,-157.741"/>
<polygon fill="none" stroke="#404040" points="324,-157.593 320,-151.593 324,-145.593 328,-151.593 324,-157.593"/>
<text text-anchor="middle" x="350.5" y="-167.5" font-family="Helvetica,sans-Serif" font-size="10.00"> &#45;fFrontends</text>
</g>
<!-- Node9 -->
<g id="node9" class="node"><title>Node9</title>
<polygon fill="white" stroke="#bfbfbf" points="417,-195 417,-263 567,-263 567,-195 417,-195"/>
<text text-anchor="start" x="425" y="-251" font-family="Helvetica,sans-Serif" font-size="10.00">TArrayMap&lt; ppm_java.typelib.</text>
<text text-anchor="middle" x="492" y="-240" font-family="Helvetica,sans-Serif" font-size="10.00">VBrowseable &gt;</text>
<polyline fill="none" stroke="#bfbfbf" points="417,-233 567,-233 "/>
<text text-anchor="middle" x="492" y="-221" font-family="Helvetica,sans-Serif" font-size="10.00"> </text>
<polyline fill="none" stroke="#bfbfbf" points="417,-214 567,-214 "/>
<text text-anchor="middle" x="492" y="-202" font-family="Helvetica,sans-Serif" font-size="10.00"> </text>
</g>
<!-- Node9&#45;&gt;Node1 -->
<g id="edge8" class="edge"><title>Node9&#45;&gt;Node1</title>
<path fill="none" stroke="#404040" d="M455.96,-194.963C436.468,-177.096 411.796,-154.479 389.073,-133.65"/>
<polygon fill="none" stroke="#404040" points="388.989,-133.573 381.863,-132.468 380.143,-125.465 387.269,-126.57 388.989,-133.573"/>
<text text-anchor="middle" x="463" y="-167.5" font-family="Helvetica,sans-Serif" font-size="10.00"> &#45;fObjectsMap</text>
</g>
</g>
</svg>
