<?xml version="1.0" encoding="UTF-8" standalone="no"?>
<!DOCTYPE svg PUBLIC "-//W3C//DTD SVG 1.1//EN"
 "http://www.w3.org/Graphics/SVG/1.1/DTD/svg11.dtd">
<!-- Generated by graphviz version 2.36.0 (20140111.2315)
 -->
<!-- Title: TNodePeakEstimator_Stats Pages: 1 -->
<svg width="658pt" height="658pt"
 viewBox="0.00 0.00 658.00 658.00" xmlns="http://www.w3.org/2000/svg" xmlns:xlink="http://www.w3.org/1999/xlink">
<g id="graph0" class="graph" transform="scale(1 1) rotate(0) translate(4 654)">
<title>TNodePeakEstimator_Stats</title>
<polygon fill="white" stroke="none" points="-4,4 -4,-654 654,-654 654,4 -4,4"/>
<!-- Node1 -->
<g id="node1" class="node"><title>Node1</title>
<polygon fill="#bfbfbf" stroke="black" points="429.5,-205.5 429.5,-306.5 548.5,-306.5 548.5,-205.5 429.5,-205.5"/>
<text text-anchor="start" x="437.5" y="-294.5" font-family="Helvetica,sans-Serif" font-size="10.00">TNodePeakEstimator</text>
<text text-anchor="middle" x="489" y="-283.5" font-family="Helvetica,sans-Serif" font-size="10.00">_Stats</text>
<polyline fill="none" stroke="black" points="429.5,-276.5 548.5,-276.5 "/>
<text text-anchor="middle" x="489" y="-264.5" font-family="Helvetica,sans-Serif" font-size="10.00"> </text>
<polyline fill="none" stroke="black" points="429.5,-257.5 548.5,-257.5 "/>
<text text-anchor="start" x="437.5" y="-245.5" font-family="Helvetica,sans-Serif" font-size="10.00">+ TNodePeakEstimator</text>
<text text-anchor="start" x="437.5" y="-234.5" font-family="Helvetica,sans-Serif" font-size="10.00">_Stats()</text>
<text text-anchor="start" x="437.5" y="-223.5" font-family="Helvetica,sans-Serif" font-size="10.00">+ GetDumpStr()</text>
<text text-anchor="start" x="437.5" y="-212.5" font-family="Helvetica,sans-Serif" font-size="10.00">~ SetPeak()</text>
</g>
<!-- Node5 -->
<g id="node5" class="node"><title>Node5</title>
<g id="a_node5"><a xlink:href="../../da/da6/classppm__java_1_1backend_1_1module_1_1peak__estimator_1_1_t_node_peak_estimator.html" target="_top" xlink:title="Estimator that finds the raw peak value of each given sample chunk and pushes its absolute value to t...">
<polygon fill="white" stroke="black" points="336,-0.5 336,-123.5 458,-123.5 458,-0.5 336,-0.5"/>
<text text-anchor="middle" x="397" y="-111.5" font-family="Helvetica,sans-Serif" font-size="10.00">TNodePeakEstimator</text>
<polyline fill="none" stroke="black" points="336,-104.5 458,-104.5 "/>
<text text-anchor="start" x="344" y="-92.5" font-family="Helvetica,sans-Serif" font-size="10.00">&#45; fPeakLast</text>
<polyline fill="none" stroke="black" points="336,-85.5 458,-85.5 "/>
<text text-anchor="start" x="344" y="-73.5" font-family="Helvetica,sans-Serif" font-size="10.00">+ CreatePort_In()</text>
<text text-anchor="start" x="344" y="-62.5" font-family="Helvetica,sans-Serif" font-size="10.00">+ CreatePort_Out()</text>
<text text-anchor="start" x="344" y="-51.5" font-family="Helvetica,sans-Serif" font-size="10.00">+ StatsGet()</text>
<text text-anchor="start" x="344" y="-40.5" font-family="Helvetica,sans-Serif" font-size="10.00">+ CreateInstance()</text>
<text text-anchor="start" x="344" y="-29.5" font-family="Helvetica,sans-Serif" font-size="10.00">~ ReceivePacket()</text>
<text text-anchor="start" x="344" y="-18.5" font-family="Helvetica,sans-Serif" font-size="10.00"># _Register()</text>
<text text-anchor="start" x="344" y="-7.5" font-family="Helvetica,sans-Serif" font-size="10.00">&#45; TNodePeakEstimator()</text>
</a>
</g>
</g>
<!-- Node1&#45;&gt;Node5 -->
<g id="edge11" class="edge"><title>Node1&#45;&gt;Node5</title>
<path fill="none" stroke="#404040" d="M450.034,-205.428C439.076,-189.669 427.984,-171.715 420,-154 417.322,-148.058 414.919,-141.75 412.771,-135.338"/>
<polygon fill="none" stroke="#404040" points="412.728,-135.199 407.13,-130.652 409.175,-123.737 414.772,-128.283 412.728,-135.199"/>
<text text-anchor="middle" x="436.5" y="-145.5" font-family="Helvetica,sans-Serif" font-size="10.00"> &#45;fStats</text>
</g>
<!-- Node2 -->
<g id="node2" class="node"><title>Node2</title>
<g id="a_node2"><a xlink:href="../../d7/d5a/interfaceppm__java_1_1typelib_1_1_i_stats.html" target="_top" xlink:title="Interface for a statistics record. ">
<polygon fill="white" stroke="black" points="446,-431.5 446,-488.5 532,-488.5 532,-431.5 446,-431.5"/>
<text text-anchor="middle" x="489" y="-476.5" font-family="Helvetica,sans-Serif" font-size="10.00">IStats</text>
<polyline fill="none" stroke="black" points="446,-469.5 532,-469.5 "/>
<text text-anchor="middle" x="489" y="-457.5" font-family="Helvetica,sans-Serif" font-size="10.00"> </text>
<polyline fill="none" stroke="black" points="446,-450.5 532,-450.5 "/>
<text text-anchor="start" x="454" y="-438.5" font-family="Helvetica,sans-Serif" font-size="10.00">+ GetDumpStr()</text>
</a>
</g>
</g>
<!-- Node2&#45;&gt;Node1 -->
<g id="edge1" class="edge"><title>Node2&#45;&gt;Node1</title>
<path fill="none" stroke="midnightblue" d="M489,-420.97C489,-388.677 489,-342.095 489,-306.827"/>
<polygon fill="none" stroke="midnightblue" points="485.5,-421.336 489,-431.336 492.5,-421.336 485.5,-421.336"/>
</g>
<!-- Node3 -->
<g id="node3" class="node"><title>Node3</title>
<g id="a_node3"><a xlink:href="../../d2/df7/classppm__java_1_1util_1_1storage_1_1_t_atomic_double.html" target="_top" xlink:title="An thread safe double value. ">
<polygon fill="white" stroke="black" points="550.5,-398.5 550.5,-521.5 649.5,-521.5 649.5,-398.5 550.5,-398.5"/>
<text text-anchor="middle" x="600" y="-509.5" font-family="Helvetica,sans-Serif" font-size="10.00">TAtomicDouble</text>
<polyline fill="none" stroke="black" points="550.5,-502.5 649.5,-502.5 "/>
<text text-anchor="start" x="558.5" y="-490.5" font-family="Helvetica,sans-Serif" font-size="10.00">&#45; fValue</text>
<text text-anchor="start" x="558.5" y="-479.5" font-family="Helvetica,sans-Serif" font-size="10.00">&#45; gkLocked</text>
<text text-anchor="start" x="558.5" y="-468.5" font-family="Helvetica,sans-Serif" font-size="10.00">&#45; gkUnlocked</text>
<polyline fill="none" stroke="black" points="550.5,-461.5 649.5,-461.5 "/>
<text text-anchor="start" x="558.5" y="-449.5" font-family="Helvetica,sans-Serif" font-size="10.00">+ TAtomicDouble()</text>
<text text-anchor="start" x="558.5" y="-438.5" font-family="Helvetica,sans-Serif" font-size="10.00">+ Get()</text>
<text text-anchor="start" x="558.5" y="-427.5" font-family="Helvetica,sans-Serif" font-size="10.00">+ Set()</text>
<text text-anchor="start" x="558.5" y="-416.5" font-family="Helvetica,sans-Serif" font-size="10.00">&#45; _Lock()</text>
<text text-anchor="start" x="558.5" y="-405.5" font-family="Helvetica,sans-Serif" font-size="10.00">&#45; _Unlock()</text>
</a>
</g>
</g>
<!-- Node3&#45;&gt;Node1 -->
<g id="edge2" class="edge"><title>Node3&#45;&gt;Node1</title>
<path fill="none" stroke="#404040" d="M566.696,-398.393C552.615,-372.769 536.252,-342.991 522.184,-317.39"/>
<polygon fill="none" stroke="#404040" points="522.088,-317.215 515.693,-313.883 516.309,-306.698 522.704,-310.03 522.088,-317.215"/>
<text text-anchor="middle" x="582.5" y="-372" font-family="Helvetica,sans-Serif" font-size="10.00"> &#45;fPeakDelta</text>
<text text-anchor="middle" x="582.5" y="-361" font-family="Helvetica,sans-Serif" font-size="10.00">&#45;fPeakLast</text>
</g>
<!-- Node4 -->
<g id="node4" class="node"><title>Node4</title>
<polygon fill="white" stroke="#bfbfbf" points="561.5,-581.5 561.5,-638.5 638.5,-638.5 638.5,-581.5 561.5,-581.5"/>
<text text-anchor="middle" x="600" y="-626.5" font-family="Helvetica,sans-Serif" font-size="10.00">AtomicInteger</text>
<polyline fill="none" stroke="#bfbfbf" points="561.5,-619.5 638.5,-619.5 "/>
<text text-anchor="middle" x="600" y="-607.5" font-family="Helvetica,sans-Serif" font-size="10.00"> </text>
<polyline fill="none" stroke="#bfbfbf" points="561.5,-600.5 638.5,-600.5 "/>
<text text-anchor="middle" x="600" y="-588.5" font-family="Helvetica,sans-Serif" font-size="10.00"> </text>
</g>
<!-- Node4&#45;&gt;Node3 -->
<g id="edge3" class="edge"><title>Node4&#45;&gt;Node3</title>
<path fill="none" stroke="#404040" d="M600,-581.162C600,-567.619 600,-550.641 600,-533.75"/>
<polygon fill="none" stroke="#404040" points="600,-533.516 596,-527.516 600,-521.516 604,-527.516 600,-533.516"/>
<text text-anchor="middle" x="615.5" y="-543.5" font-family="Helvetica,sans-Serif" font-size="10.00"> &#45;fLock</text>
</g>
<!-- Node5&#45;&gt;Node1 -->
<g id="edge4" class="edge"><title>Node5&#45;&gt;Node1</title>
<path fill="none" stroke="#404040" d="M446.495,-123.651C450.345,-129.669 453.925,-135.836 457,-142 465.024,-158.084 471.317,-176.491 476.118,-193.713"/>
<polygon fill="none" stroke="#404040" points="476.142,-193.802 481.542,-198.581 479.208,-205.404 473.807,-200.625 476.142,-193.802"/>
<text text-anchor="middle" x="478.5" y="-145.5" font-family="Helvetica,sans-Serif" font-size="10.00"> &#45;fHost</text>
</g>
<!-- Node6 -->
<g id="node6" class="node"><title>Node6</title>
<g id="a_node6"><a xlink:href="../../d5/d6a/classppm__java_1_1typelib_1_1_v_audio_processor.html" target="_top" xlink:title="Base class for all modules processing audio samples. ">
<polygon fill="white" stroke="black" points="172.5,-172.5 172.5,-339.5 279.5,-339.5 279.5,-172.5 172.5,-172.5"/>
<text text-anchor="middle" x="226" y="-327.5" font-family="Helvetica,sans-Serif" font-size="10.00">VAudioProcessor</text>
<polyline fill="none" stroke="black" points="172.5,-320.5 279.5,-320.5 "/>
<text text-anchor="middle" x="226" y="-308.5" font-family="Helvetica,sans-Serif" font-size="10.00"> </text>
<polyline fill="none" stroke="black" points="172.5,-301.5 279.5,-301.5 "/>
<text text-anchor="start" x="180.5" y="-289.5" font-family="Helvetica,sans-Serif" font-size="10.00">+ VAudioProcessor()</text>
<text text-anchor="start" x="180.5" y="-278.5" font-family="Helvetica,sans-Serif" font-size="10.00">+ CreatePort_In()</text>
<text text-anchor="start" x="180.5" y="-267.5" font-family="Helvetica,sans-Serif" font-size="10.00">+ CreatePort_Out()</text>
<text text-anchor="start" x="180.5" y="-256.5" font-family="Helvetica,sans-Serif" font-size="10.00">+ GetNumPortsIn()</text>
<text text-anchor="start" x="180.5" y="-245.5" font-family="Helvetica,sans-Serif" font-size="10.00">+ GetNumPortsOut()</text>
<text text-anchor="start" x="180.5" y="-234.5" font-family="Helvetica,sans-Serif" font-size="10.00">+ GetPortIn()</text>
<text text-anchor="start" x="180.5" y="-223.5" font-family="Helvetica,sans-Serif" font-size="10.00">+ GetPortIn()</text>
<text text-anchor="start" x="180.5" y="-212.5" font-family="Helvetica,sans-Serif" font-size="10.00">+ GetPortOut()</text>
<text text-anchor="start" x="180.5" y="-201.5" font-family="Helvetica,sans-Serif" font-size="10.00">+ GetPortOut()</text>
<text text-anchor="start" x="180.5" y="-190.5" font-family="Helvetica,sans-Serif" font-size="10.00"># AddPortIn()</text>
<text text-anchor="start" x="180.5" y="-179.5" font-family="Helvetica,sans-Serif" font-size="10.00"># AddPortOut()</text>
</a>
</g>
</g>
<!-- Node6&#45;&gt;Node5 -->
<g id="edge5" class="edge"><title>Node6&#45;&gt;Node5</title>
<path fill="none" stroke="midnightblue" d="M286.349,-187.24C304.799,-166.524 324.964,-143.883 342.966,-123.67"/>
<polygon fill="none" stroke="midnightblue" points="283.674,-184.981 279.636,-194.777 288.901,-189.637 283.674,-184.981"/>
</g>
<!-- Node7 -->
<g id="node7" class="node"><title>Node7</title>
<g id="a_node7"><a xlink:href="../../d1/db3/classppm__java_1_1typelib_1_1_v_audio_object.html" target="_top" xlink:title="Base class for all browseable audio objects. ">
<polygon fill="white" stroke="black" points="0,-431.5 0,-488.5 92,-488.5 92,-431.5 0,-431.5"/>
<text text-anchor="middle" x="46" y="-476.5" font-family="Helvetica,sans-Serif" font-size="10.00">VAudioObject</text>
<polyline fill="none" stroke="black" points="0,-469.5 92,-469.5 "/>
<text text-anchor="middle" x="46" y="-457.5" font-family="Helvetica,sans-Serif" font-size="10.00"> </text>
<polyline fill="none" stroke="black" points="0,-450.5 92,-450.5 "/>
<text text-anchor="start" x="8" y="-438.5" font-family="Helvetica,sans-Serif" font-size="10.00">+ VAudioObject()</text>
</a>
</g>
</g>
<!-- Node7&#45;&gt;Node6 -->
<g id="edge6" class="edge"><title>Node7&#45;&gt;Node6</title>
<path fill="none" stroke="midnightblue" d="M77.3798,-423.785C103.578,-394.385 141.505,-351.822 172.488,-317.052"/>
<polygon fill="none" stroke="midnightblue" points="74.6906,-421.542 70.6508,-431.336 79.9167,-426.199 74.6906,-421.542"/>
</g>
<!-- Node8 -->
<g id="node8" class="node"><title>Node8</title>
<g id="a_node8"><a xlink:href="../../de/dd1/classppm__java_1_1typelib_1_1_v_browseable.html" target="_top" xlink:title="Base class for all browseable objects. ">
<polygon fill="white" stroke="black" points="1.5,-570.5 1.5,-649.5 90.5,-649.5 90.5,-570.5 1.5,-570.5"/>
<text text-anchor="middle" x="46" y="-637.5" font-family="Helvetica,sans-Serif" font-size="10.00">VBrowseable</text>
<polyline fill="none" stroke="black" points="1.5,-630.5 90.5,-630.5 "/>
<text text-anchor="start" x="9.5" y="-618.5" font-family="Helvetica,sans-Serif" font-size="10.00">&#45; fID</text>
<polyline fill="none" stroke="black" points="1.5,-611.5 90.5,-611.5 "/>
<text text-anchor="start" x="9.5" y="-599.5" font-family="Helvetica,sans-Serif" font-size="10.00">+ VBrowseable()</text>
<text text-anchor="start" x="9.5" y="-588.5" font-family="Helvetica,sans-Serif" font-size="10.00">+ GetID()</text>
<text text-anchor="start" x="9.5" y="-577.5" font-family="Helvetica,sans-Serif" font-size="10.00"># _Register()</text>
</a>
</g>
</g>
<!-- Node8&#45;&gt;Node7 -->
<g id="edge7" class="edge"><title>Node8&#45;&gt;Node7</title>
<path fill="none" stroke="midnightblue" d="M46,-559.92C46,-536.306 46,-508.859 46,-488.876"/>
<polygon fill="none" stroke="midnightblue" points="42.5001,-560.115 46,-570.115 49.5001,-560.115 42.5001,-560.115"/>
</g>
<!-- Node9 -->
<g id="node9" class="node"><title>Node9</title>
<polygon fill="white" stroke="#bfbfbf" points="110,-426 110,-494 260,-494 260,-426 110,-426"/>
<text text-anchor="start" x="118" y="-482" font-family="Helvetica,sans-Serif" font-size="10.00">TArrayMap&lt; ppm_java.typelib.</text>
<text text-anchor="middle" x="185" y="-471" font-family="Helvetica,sans-Serif" font-size="10.00">VAudioPort_Output &gt;</text>
<polyline fill="none" stroke="#bfbfbf" points="110,-464 260,-464 "/>
<text text-anchor="middle" x="185" y="-452" font-family="Helvetica,sans-Serif" font-size="10.00"> </text>
<polyline fill="none" stroke="#bfbfbf" points="110,-445 260,-445 "/>
<text text-anchor="middle" x="185" y="-433" font-family="Helvetica,sans-Serif" font-size="10.00"> </text>
</g>
<!-- Node9&#45;&gt;Node6 -->
<g id="edge8" class="edge"><title>Node9&#45;&gt;Node6</title>
<path fill="none" stroke="#404040" d="M191.77,-425.644C195.893,-405.334 201.386,-378.271 206.762,-351.78"/>
<polygon fill="none" stroke="#404040" points="206.832,-351.436 204.106,-344.76 209.219,-339.676 211.946,-346.351 206.832,-351.436"/>
<text text-anchor="middle" x="230.5" y="-366.5" font-family="Helvetica,sans-Serif" font-size="10.00"> &#45;fPortsOut</text>
</g>
<!-- Node10 -->
<g id="node10" class="node"><title>Node10</title>
<polygon fill="white" stroke="#bfbfbf" points="278,-426 278,-494 428,-494 428,-426 278,-426"/>
<text text-anchor="start" x="286" y="-482" font-family="Helvetica,sans-Serif" font-size="10.00">TArrayMap&lt; ppm_java.typelib.</text>
<text text-anchor="middle" x="353" y="-471" font-family="Helvetica,sans-Serif" font-size="10.00">VAudioPort_Input &gt;</text>
<polyline fill="none" stroke="#bfbfbf" points="278,-464 428,-464 "/>
<text text-anchor="middle" x="353" y="-452" font-family="Helvetica,sans-Serif" font-size="10.00"> </text>
<polyline fill="none" stroke="#bfbfbf" points="278,-445 428,-445 "/>
<text text-anchor="middle" x="353" y="-433" font-family="Helvetica,sans-Serif" font-size="10.00"> </text>
</g>
<!-- Node10&#45;&gt;Node6 -->
<g id="edge9" class="edge"><title>Node10&#45;&gt;Node6</title>
<path fill="none" stroke="#404040" d="M332.029,-425.644C318.972,-404.877 301.476,-377.048 284.465,-349.991"/>
<polygon fill="none" stroke="#404040" points="284.366,-349.835 277.786,-346.884 277.979,-339.676 284.559,-342.626 284.366,-349.835"/>
<text text-anchor="middle" x="321.5" y="-366.5" font-family="Helvetica,sans-Serif" font-size="10.00"> &#45;fPortsIn</text>
</g>
<!-- Node11 -->
<g id="node11" class="node"><title>Node11</title>
<g id="a_node11"><a xlink:href="../../dc/dc0/interfaceppm__java_1_1typelib_1_1_i_stat_enabled.html" target="_top" xlink:title="Interface for an object that supports runtime statistics. ">
<polygon fill="white" stroke="black" points="338.5,-227.5 338.5,-284.5 411.5,-284.5 411.5,-227.5 338.5,-227.5"/>
<text text-anchor="middle" x="375" y="-272.5" font-family="Helvetica,sans-Serif" font-size="10.00">IStatEnabled</text>
<polyline fill="none" stroke="black" points="338.5,-265.5 411.5,-265.5 "/>
<text text-anchor="middle" x="375" y="-253.5" font-family="Helvetica,sans-Serif" font-size="10.00"> </text>
<polyline fill="none" stroke="black" points="338.5,-246.5 411.5,-246.5 "/>
<text text-anchor="start" x="346.5" y="-234.5" font-family="Helvetica,sans-Serif" font-size="10.00">+ StatsGet()</text>
</a>
</g>
</g>
<!-- Node11&#45;&gt;Node5 -->
<g id="edge10" class="edge"><title>Node11&#45;&gt;Node5</title>
<path fill="none" stroke="midnightblue" d="M379.305,-217.429C382.358,-190.787 386.521,-154.456 390.042,-123.725"/>
<polygon fill="none" stroke="midnightblue" points="375.813,-217.158 378.152,-227.491 382.768,-217.955 375.813,-217.158"/>
</g>
</g>
</svg>
