<?xml version="1.0" encoding="UTF-8" standalone="no"?>
<!DOCTYPE svg PUBLIC "-//W3C//DTD SVG 1.1//EN"
 "http://www.w3.org/Graphics/SVG/1.1/DTD/svg11.dtd">
<!-- Generated by graphviz version 2.36.0 (20140111.2315)
 -->
<!-- Title: TGUILinearGauge_Surrogate Pages: 1 -->
<svg width="291pt" height="752pt"
 viewBox="0.00 0.00 291.00 752.00" xmlns="http://www.w3.org/2000/svg" xmlns:xlink="http://www.w3.org/1999/xlink">
<g id="graph0" class="graph" transform="scale(1 1) rotate(0) translate(4 748)">
<title>TGUILinearGauge_Surrogate</title>
<polygon fill="white" stroke="none" points="-4,4 -4,-748 287,-748 287,4 -4,4"/>
<!-- Node1 -->
<g id="node1" class="node"><title>Node1</title>
<polygon fill="#bfbfbf" stroke="black" points="79.5,-1 79.5,-201 234.5,-201 234.5,-1 79.5,-1"/>
<text text-anchor="middle" x="157" y="-189" font-family="Helvetica,sans-Serif" font-size="10.00">TGUILinearGauge_Surrogate</text>
<polyline fill="none" stroke="black" points="79.5,-182 234.5,-182 "/>
<text text-anchor="start" x="87.5" y="-170" font-family="Helvetica,sans-Serif" font-size="10.00">&#45; fGUI</text>
<text text-anchor="start" x="87.5" y="-159" font-family="Helvetica,sans-Serif" font-size="10.00">&#45; fStat</text>
<text text-anchor="start" x="87.5" y="-148" font-family="Helvetica,sans-Serif" font-size="10.00">&#45; gGUI</text>
<text text-anchor="start" x="87.5" y="-137" font-family="Helvetica,sans-Serif" font-size="10.00">&#45; gkLvlClip</text>
<text text-anchor="start" x="87.5" y="-126" font-family="Helvetica,sans-Serif" font-size="10.00">&#45; gkLvlWarn</text>
<polyline fill="none" stroke="black" points="79.5,-119 234.5,-119 "/>
<text text-anchor="start" x="87.5" y="-107" font-family="Helvetica,sans-Serif" font-size="10.00">+ CreatePort_In()</text>
<text text-anchor="start" x="87.5" y="-96" font-family="Helvetica,sans-Serif" font-size="10.00">+ Start()</text>
<text text-anchor="start" x="87.5" y="-85" font-family="Helvetica,sans-Serif" font-size="10.00">+ StatsGet()</text>
<text text-anchor="start" x="87.5" y="-74" font-family="Helvetica,sans-Serif" font-size="10.00">+ Stop()</text>
<text text-anchor="start" x="87.5" y="-63" font-family="Helvetica,sans-Serif" font-size="10.00">+ CreateInstance()</text>
<text text-anchor="start" x="87.5" y="-52" font-family="Helvetica,sans-Serif" font-size="10.00">~ OnSigClip_Click()</text>
<text text-anchor="start" x="87.5" y="-41" font-family="Helvetica,sans-Serif" font-size="10.00">~ OnTerminate()</text>
<text text-anchor="start" x="87.5" y="-30" font-family="Helvetica,sans-Serif" font-size="10.00">~ SetLevel()</text>
<text text-anchor="start" x="87.5" y="-19" font-family="Helvetica,sans-Serif" font-size="10.00"># _Register()</text>
<text text-anchor="start" x="87.5" y="-8" font-family="Helvetica,sans-Serif" font-size="10.00">&#45; TGUILinearGauge_Surrogate()</text>
</g>
<!-- Node2 -->
<g id="node2" class="node"><title>Node2</title>
<g id="a_node2"><a xlink:href="../../da/d04/classppm__java_1_1typelib_1_1_v_frontend.html" target="_top" xlink:title="Base class for a front end. ">
<polygon fill="white" stroke="black" points="3,-238.5 3,-317.5 103,-317.5 103,-238.5 3,-238.5"/>
<text text-anchor="middle" x="53" y="-305.5" font-family="Helvetica,sans-Serif" font-size="10.00">VFrontend</text>
<polyline fill="none" stroke="black" points="3,-298.5 103,-298.5 "/>
<text text-anchor="middle" x="53" y="-286.5" font-family="Helvetica,sans-Serif" font-size="10.00"> </text>
<polyline fill="none" stroke="black" points="3,-279.5 103,-279.5 "/>
<text text-anchor="start" x="11" y="-267.5" font-family="Helvetica,sans-Serif" font-size="10.00">+ VFrontend()</text>
<text text-anchor="start" x="11" y="-256.5" font-family="Helvetica,sans-Serif" font-size="10.00">+ CreatePort_Out()</text>
<text text-anchor="start" x="11" y="-245.5" font-family="Helvetica,sans-Serif" font-size="10.00"># _OnTerminate()</text>
</a>
</g>
</g>
<!-- Node2&#45;&gt;Node1 -->
<g id="edge1" class="edge"><title>Node2&#45;&gt;Node1</title>
<path fill="none" stroke="midnightblue" d="M81.2248,-229.506C86.5194,-220.597 92.2331,-210.983 98.0654,-201.169"/>
<polygon fill="none" stroke="midnightblue" points="78.181,-227.777 76.081,-238.162 84.1986,-231.353 78.181,-227.777"/>
</g>
<!-- Node3 -->
<g id="node3" class="node"><title>Node3</title>
<g id="a_node3"><a xlink:href="../../d5/d6a/classppm__java_1_1typelib_1_1_v_audio_processor.html" target="_top" xlink:title="Base class for all modules processing audio samples. ">
<polygon fill="white" stroke="black" points="-0.5,-355 -0.5,-533 106.5,-533 106.5,-355 -0.5,-355"/>
<text text-anchor="middle" x="53" y="-521" font-family="Helvetica,sans-Serif" font-size="10.00">VAudioProcessor</text>
<polyline fill="none" stroke="black" points="-0.5,-514 106.5,-514 "/>
<text text-anchor="start" x="7.5" y="-502" font-family="Helvetica,sans-Serif" font-size="10.00">&#45; fPortsIn</text>
<text text-anchor="start" x="7.5" y="-491" font-family="Helvetica,sans-Serif" font-size="10.00">&#45; fPortsOut</text>
<polyline fill="none" stroke="black" points="-0.5,-484 106.5,-484 "/>
<text text-anchor="start" x="7.5" y="-472" font-family="Helvetica,sans-Serif" font-size="10.00">+ VAudioProcessor()</text>
<text text-anchor="start" x="7.5" y="-461" font-family="Helvetica,sans-Serif" font-size="10.00">+ CreatePort_In()</text>
<text text-anchor="start" x="7.5" y="-450" font-family="Helvetica,sans-Serif" font-size="10.00">+ CreatePort_Out()</text>
<text text-anchor="start" x="7.5" y="-439" font-family="Helvetica,sans-Serif" font-size="10.00">+ GetNumPortsIn()</text>
<text text-anchor="start" x="7.5" y="-428" font-family="Helvetica,sans-Serif" font-size="10.00">+ GetNumPortsOut()</text>
<text text-anchor="start" x="7.5" y="-417" font-family="Helvetica,sans-Serif" font-size="10.00">+ GetPortIn()</text>
<text text-anchor="start" x="7.5" y="-406" font-family="Helvetica,sans-Serif" font-size="10.00">+ GetPortIn()</text>
<text text-anchor="start" x="7.5" y="-395" font-family="Helvetica,sans-Serif" font-size="10.00">+ GetPortOut()</text>
<text text-anchor="start" x="7.5" y="-384" font-family="Helvetica,sans-Serif" font-size="10.00">+ GetPortOut()</text>
<text text-anchor="start" x="7.5" y="-373" font-family="Helvetica,sans-Serif" font-size="10.00"># AddPortIn()</text>
<text text-anchor="start" x="7.5" y="-362" font-family="Helvetica,sans-Serif" font-size="10.00"># AddPortOut()</text>
</a>
</g>
</g>
<!-- Node3&#45;&gt;Node2 -->
<g id="edge2" class="edge"><title>Node3&#45;&gt;Node2</title>
<path fill="none" stroke="midnightblue" d="M53,-344.738C53,-335.207 53,-325.98 53,-317.603"/>
<polygon fill="none" stroke="midnightblue" points="49.5001,-344.759 53,-354.759 56.5001,-344.759 49.5001,-344.759"/>
</g>
<!-- Node4 -->
<g id="node4" class="node"><title>Node4</title>
<g id="a_node4"><a xlink:href="../../d1/db3/classppm__java_1_1typelib_1_1_v_audio_object.html" target="_top" xlink:title="Base class for all browseable audio objects. ">
<polygon fill="white" stroke="black" points="7,-570.5 7,-627.5 99,-627.5 99,-570.5 7,-570.5"/>
<text text-anchor="middle" x="53" y="-615.5" font-family="Helvetica,sans-Serif" font-size="10.00">VAudioObject</text>
<polyline fill="none" stroke="black" points="7,-608.5 99,-608.5 "/>
<text text-anchor="middle" x="53" y="-596.5" font-family="Helvetica,sans-Serif" font-size="10.00"> </text>
<polyline fill="none" stroke="black" points="7,-589.5 99,-589.5 "/>
<text text-anchor="start" x="15" y="-577.5" font-family="Helvetica,sans-Serif" font-size="10.00">+ VAudioObject()</text>
</a>
</g>
</g>
<!-- Node4&#45;&gt;Node3 -->
<g id="edge3" class="edge"><title>Node4&#45;&gt;Node3</title>
<path fill="none" stroke="midnightblue" d="M53,-560.166C53,-551.781 53,-542.554 53,-533.086"/>
<polygon fill="none" stroke="midnightblue" points="49.5001,-560.293 53,-570.293 56.5001,-560.293 49.5001,-560.293"/>
</g>
<!-- Node5 -->
<g id="node5" class="node"><title>Node5</title>
<g id="a_node5"><a xlink:href="../../de/dd1/classppm__java_1_1typelib_1_1_v_browseable.html" target="_top" xlink:title="Base class for all browseable objects. ">
<polygon fill="white" stroke="black" points="8.5,-664.5 8.5,-743.5 97.5,-743.5 97.5,-664.5 8.5,-664.5"/>
<text text-anchor="middle" x="53" y="-731.5" font-family="Helvetica,sans-Serif" font-size="10.00">VBrowseable</text>
<polyline fill="none" stroke="black" points="8.5,-724.5 97.5,-724.5 "/>
<text text-anchor="start" x="16.5" y="-712.5" font-family="Helvetica,sans-Serif" font-size="10.00">&#45; fID</text>
<polyline fill="none" stroke="black" points="8.5,-705.5 97.5,-705.5 "/>
<text text-anchor="start" x="16.5" y="-693.5" font-family="Helvetica,sans-Serif" font-size="10.00">+ VBrowseable()</text>
<text text-anchor="start" x="16.5" y="-682.5" font-family="Helvetica,sans-Serif" font-size="10.00">+ GetID()</text>
<text text-anchor="start" x="16.5" y="-671.5" font-family="Helvetica,sans-Serif" font-size="10.00"># _Register()</text>
</a>
</g>
</g>
<!-- Node5&#45;&gt;Node4 -->
<g id="edge4" class="edge"><title>Node5&#45;&gt;Node4</title>
<path fill="none" stroke="midnightblue" d="M53,-654.163C53,-645.04 53,-635.806 53,-627.61"/>
<polygon fill="none" stroke="midnightblue" points="49.5001,-654.354 53,-664.354 56.5001,-654.354 49.5001,-654.354"/>
</g>
<!-- Node6 -->
<g id="node6" class="node"><title>Node6</title>
<g id="a_node6"><a xlink:href="../../db/d44/interfaceppm__java_1_1typelib_1_1_i_controllable.html" target="_top" xlink:title="A module or construct which can receive some low level control commands (start/stop etc...">
<polygon fill="white" stroke="black" points="121.5,-244 121.5,-312 192.5,-312 192.5,-244 121.5,-244"/>
<text text-anchor="middle" x="157" y="-300" font-family="Helvetica,sans-Serif" font-size="10.00">IControllable</text>
<polyline fill="none" stroke="black" points="121.5,-293 192.5,-293 "/>
<text text-anchor="middle" x="157" y="-281" font-family="Helvetica,sans-Serif" font-size="10.00"> </text>
<polyline fill="none" stroke="black" points="121.5,-274 192.5,-274 "/>
<text text-anchor="start" x="129.5" y="-262" font-family="Helvetica,sans-Serif" font-size="10.00">+ Start()</text>
<text text-anchor="start" x="129.5" y="-251" font-family="Helvetica,sans-Serif" font-size="10.00">+ Stop()</text>
</a>
</g>
</g>
<!-- Node6&#45;&gt;Node1 -->
<g id="edge5" class="edge"><title>Node6&#45;&gt;Node1</title>
<path fill="none" stroke="midnightblue" d="M157,-233.64C157,-223.619 157,-212.551 157,-201.216"/>
<polygon fill="none" stroke="midnightblue" points="153.5,-233.672 157,-243.672 160.5,-233.672 153.5,-233.672"/>
</g>
<!-- Node7 -->
<g id="node7" class="node"><title>Node7</title>
<g id="a_node7"><a xlink:href="../../dc/dc0/interfaceppm__java_1_1typelib_1_1_i_stat_enabled.html" target="_top" xlink:title="Interface for an object that supports runtime statistics. ">
<polygon fill="white" stroke="black" points="210.5,-249.5 210.5,-306.5 283.5,-306.5 283.5,-249.5 210.5,-249.5"/>
<text text-anchor="middle" x="247" y="-294.5" font-family="Helvetica,sans-Serif" font-size="10.00">IStatEnabled</text>
<polyline fill="none" stroke="black" points="210.5,-287.5 283.5,-287.5 "/>
<text text-anchor="middle" x="247" y="-275.5" font-family="Helvetica,sans-Serif" font-size="10.00"> </text>
<polyline fill="none" stroke="black" points="210.5,-268.5 283.5,-268.5 "/>
<text text-anchor="start" x="218.5" y="-256.5" font-family="Helvetica,sans-Serif" font-size="10.00">+ StatsGet()</text>
</a>
</g>
</g>
<!-- Node7&#45;&gt;Node1 -->
<g id="edge6" class="edge"><title>Node7&#45;&gt;Node1</title>
<path fill="none" stroke="midnightblue" d="M228.148,-240.343C222.151,-228.683 215.206,-215.179 208.054,-201.271"/>
<polygon fill="none" stroke="midnightblue" points="225.053,-241.979 232.739,-249.271 231.278,-238.777 225.053,-241.979"/>
</g>
</g>
</svg>
