<?xml version="1.0" encoding="UTF-8" standalone="no"?>
<!DOCTYPE svg PUBLIC "-//W3C//DTD SVG 1.1//EN"
 "http://www.w3.org/Graphics/SVG/1.1/DTD/svg11.dtd">
<!-- Generated by graphviz version 2.36.0 (20140111.2315)
 -->
<!-- Title: GetSubscriber Pages: 1 -->
<svg width="492pt" height="38pt"
 viewBox="0.00 0.00 492.00 38.00" xmlns="http://www.w3.org/2000/svg" xmlns:xlink="http://www.w3.org/1999/xlink">
<g id="graph0" class="graph" transform="scale(1 1) rotate(0) translate(4 34)">
<title>GetSubscriber</title>
<polygon fill="white" stroke="none" points="-4,4 -4,-34 488,-34 488,4 -4,4"/>
<!-- Node1 -->
<g id="node1" class="node"><title>Node1</title>
<polygon fill="#bfbfbf" stroke="black" points="0.5,-5.5 0.5,-24.5 79.5,-24.5 79.5,-5.5 0.5,-5.5"/>
<text text-anchor="middle" x="40" y="-12.5" font-family="Helvetica,sans-Serif" font-size="10.00">GetSubscriber</text>
</g>
<!-- Node2 -->
<g id="node2" class="node"><title>Node2</title>
<g id="a_node2"><a xlink:href="../../d6/da4/classppm__java_1_1backend_1_1event_1_1_t_broker.html#afb8eb442cd7b822ef4029641727998ac" target="_top" xlink:title="Internal broker worker method. ">
<polygon fill="white" stroke="black" points="116,-0 116,-30 282,-30 282,-0 116,-0"/>
<text text-anchor="start" x="124" y="-18" font-family="Helvetica,sans-Serif" font-size="10.00">ppm_java.backend.event.TBroker.</text>
<text text-anchor="middle" x="199" y="-7" font-family="Helvetica,sans-Serif" font-size="10.00">_Broker</text>
</a>
</g>
</g>
<!-- Node1&#45;&gt;Node2 -->
<g id="edge1" class="edge"><title>Node1&#45;&gt;Node2</title>
<path fill="none" stroke="midnightblue" d="M89.9334,-15C98.1674,-15 106.91,-15 115.716,-15"/>
<polygon fill="midnightblue" stroke="midnightblue" points="89.809,-11.5001 79.809,-15 89.809,-18.5001 89.809,-11.5001"/>
</g>
<!-- Node3 -->
<g id="node3" class="node"><title>Node3</title>
<g id="a_node3"><a xlink:href="../../d6/da4/classppm__java_1_1backend_1_1event_1_1_t_broker.html#aa862fb0ad7f25268eb982274161acb0e" target="_top" xlink:title="Broker an event with no in&#45;band parameter. ">
<polygon fill="white" stroke="black" points="318,-0 318,-30 484,-30 484,-0 318,-0"/>
<text text-anchor="start" x="326" y="-18" font-family="Helvetica,sans-Serif" font-size="10.00">ppm_java.backend.event.TBroker.</text>
<text text-anchor="middle" x="401" y="-7" font-family="Helvetica,sans-Serif" font-size="10.00">Broker</text>
</a>
</g>
</g>
<!-- Node2&#45;&gt;Node3 -->
<g id="edge2" class="edge"><title>Node2&#45;&gt;Node3</title>
<path fill="none" stroke="midnightblue" d="M292.466,-15C300.914,-15 309.434,-15 317.783,-15"/>
<polygon fill="midnightblue" stroke="midnightblue" points="292.213,-11.5001 282.213,-15 292.213,-18.5001 292.213,-11.5001"/>
</g>
</g>
</svg>
