<?xml version="1.0" encoding="UTF-8" standalone="no"?>
<!DOCTYPE svg PUBLIC "-//W3C//DTD SVG 1.1//EN"
 "http://www.w3.org/Graphics/SVG/1.1/DTD/svg11.dtd">
<!-- Generated by graphviz version 2.36.0 (20140111.2315)
 -->
<!-- Title: _ProcessInputs Pages: 1 -->
<svg width="302pt" height="87pt"
 viewBox="0.00 0.00 302.00 87.00" xmlns="http://www.w3.org/2000/svg" xmlns:xlink="http://www.w3.org/1999/xlink">
<g id="graph0" class="graph" transform="scale(1 1) rotate(0) translate(4 83)">
<title>_ProcessInputs</title>
<polygon fill="white" stroke="none" points="-4,4 -4,-83 298,-83 298,4 -4,4"/>
<!-- Node1 -->
<g id="node1" class="node"><title>Node1</title>
<polygon fill="#bfbfbf" stroke="black" points="0.5,-29.5 0.5,-48.5 85.5,-48.5 85.5,-29.5 0.5,-29.5"/>
<text text-anchor="middle" x="43" y="-36.5" font-family="Helvetica,sans-Serif" font-size="10.00">_ProcessInputs</text>
</g>
<!-- Node2 -->
<g id="node2" class="node"><title>Node2</title>
<g id="a_node2"><a xlink:href="../../d5/d6a/classppm__java_1_1typelib_1_1_v_audio_processor.html#a74df81bf9ed4fa17020e9ac54f349066" target="_top" xlink:title="ppm_java.typelib.VAudioProcessor.\lGetNumPortsIn">
<polygon fill="white" stroke="black" points="122,-49 122,-79 294,-79 294,-49 122,-49"/>
<text text-anchor="start" x="130" y="-67" font-family="Helvetica,sans-Serif" font-size="10.00">ppm_java.typelib.VAudioProcessor.</text>
<text text-anchor="middle" x="208" y="-56" font-family="Helvetica,sans-Serif" font-size="10.00">GetNumPortsIn</text>
</a>
</g>
</g>
<!-- Node1&#45;&gt;Node2 -->
<g id="edge1" class="edge"><title>Node1&#45;&gt;Node2</title>
<path fill="none" stroke="midnightblue" d="M85.5535,-45.3732C93.7271,-46.6269 102.613,-47.9897 111.736,-49.3889"/>
<polygon fill="midnightblue" stroke="midnightblue" points="111.29,-52.8614 121.705,-50.918 112.351,-45.9423 111.29,-52.8614"/>
</g>
<!-- Node3 -->
<g id="node3" class="node"><title>Node3</title>
<g id="a_node3"><a xlink:href="../../d5/d6a/classppm__java_1_1typelib_1_1_v_audio_processor.html#a5bfd065f6711c094469beafa8b649b71" target="_top" xlink:title="Returns the ith input port. ">
<polygon fill="white" stroke="black" points="122,-0 122,-30 294,-30 294,-0 122,-0"/>
<text text-anchor="start" x="130" y="-18" font-family="Helvetica,sans-Serif" font-size="10.00">ppm_java.typelib.VAudioProcessor.</text>
<text text-anchor="middle" x="208" y="-7" font-family="Helvetica,sans-Serif" font-size="10.00">GetPortIn</text>
</a>
</g>
</g>
<!-- Node1&#45;&gt;Node3 -->
<g id="edge2" class="edge"><title>Node1&#45;&gt;Node3</title>
<path fill="none" stroke="midnightblue" d="M85.5535,-32.8817C93.7271,-31.6782 102.613,-30.3699 111.736,-29.0267"/>
<polygon fill="midnightblue" stroke="midnightblue" points="112.322,-32.4782 121.705,-27.5587 111.302,-25.5529 112.322,-32.4782"/>
</g>
</g>
</svg>
