<?xml version="1.0" encoding="UTF-8" standalone="no"?>
<!DOCTYPE svg PUBLIC "-//W3C//DTD SVG 1.1//EN"
 "http://www.w3.org/Graphics/SVG/1.1/DTD/svg11.dtd">
<!-- Generated by graphviz version 2.36.0 (20140111.2315)
 -->
<!-- Title: Start Pages: 1 -->
<svg width="360pt" height="136pt"
 viewBox="0.00 0.00 360.00 136.00" xmlns="http://www.w3.org/2000/svg" xmlns:xlink="http://www.w3.org/1999/xlink">
<g id="graph0" class="graph" transform="scale(1 1) rotate(0) translate(4 132)">
<title>Start</title>
<polygon fill="white" stroke="none" points="-4,4 -4,-132 356,-132 356,4 -4,4"/>
<!-- Node1 -->
<g id="node1" class="node"><title>Node1</title>
<polygon fill="#bfbfbf" stroke="black" points="0,-54.5 0,-73.5 38,-73.5 38,-54.5 0,-54.5"/>
<text text-anchor="middle" x="19" y="-61.5" font-family="Helvetica,sans-Serif" font-size="10.00">Start</text>
</g>
<!-- Node2 -->
<g id="node2" class="node"><title>Node2</title>
<g id="a_node2"><a xlink:href="../../dc/da9/classppm__java_1_1backend_1_1module_1_1jackd_1_1_t_audio_context___jack_d.html#a241daff2103a886e197a4ccb424264fa" target="_top" xlink:title="Loads and initializes the JackD driver. ">
<polygon fill="white" stroke="black" points="74.5,-54.5 74.5,-73.5 143.5,-73.5 143.5,-54.5 74.5,-54.5"/>
<text text-anchor="middle" x="109" y="-61.5" font-family="Helvetica,sans-Serif" font-size="10.00">_LoadDriver</text>
</a>
</g>
</g>
<!-- Node1&#45;&gt;Node2 -->
<g id="edge1" class="edge"><title>Node1&#45;&gt;Node2</title>
<path fill="none" stroke="midnightblue" d="M38.2337,-64C45.8418,-64 55.0368,-64 64.2192,-64"/>
<polygon fill="midnightblue" stroke="midnightblue" points="64.4957,-67.5001 74.4956,-64 64.4956,-60.5001 64.4957,-67.5001"/>
</g>
<!-- Node3 -->
<g id="node3" class="node"><title>Node3</title>
<g id="a_node3"><a xlink:href="../../de/dd1/classppm__java_1_1typelib_1_1_v_browseable.html#a04cbe3f0b5057d0eb582200dea602297" target="_top" xlink:title="ppm_java.typelib.VBrowseable.\lGetID">
<polygon fill="white" stroke="black" points="189,-98 189,-128 343,-128 343,-98 189,-98"/>
<text text-anchor="start" x="197" y="-116" font-family="Helvetica,sans-Serif" font-size="10.00">ppm_java.typelib.VBrowseable.</text>
<text text-anchor="middle" x="266" y="-105" font-family="Helvetica,sans-Serif" font-size="10.00">GetID</text>
</a>
</g>
</g>
<!-- Node2&#45;&gt;Node3 -->
<g id="edge2" class="edge"><title>Node2&#45;&gt;Node3</title>
<path fill="none" stroke="midnightblue" d="M136.833,-73.5106C149.825,-78.0359 165.677,-83.4407 180,-88 187.317,-90.3292 195.013,-92.7006 202.661,-95.0093"/>
<polygon fill="midnightblue" stroke="midnightblue" points="201.708,-98.3774 212.292,-97.8922 203.716,-91.6714 201.708,-98.3774"/>
</g>
<!-- Node4 -->
<g id="node4" class="node"><title>Node4</title>
<g id="a_node4"><a xlink:href="../../d5/d6a/classppm__java_1_1typelib_1_1_v_audio_processor.html#a74df81bf9ed4fa17020e9ac54f349066" target="_top" xlink:title="ppm_java.typelib.VAudioProcessor.\lGetNumPortsIn">
<polygon fill="white" stroke="black" points="180,-49 180,-79 352,-79 352,-49 180,-49"/>
<text text-anchor="start" x="188" y="-67" font-family="Helvetica,sans-Serif" font-size="10.00">ppm_java.typelib.VAudioProcessor.</text>
<text text-anchor="middle" x="266" y="-56" font-family="Helvetica,sans-Serif" font-size="10.00">GetNumPortsIn</text>
</a>
</g>
</g>
<!-- Node2&#45;&gt;Node4 -->
<g id="edge3" class="edge"><title>Node2&#45;&gt;Node4</title>
<path fill="none" stroke="midnightblue" d="M143.633,-64C151.61,-64 160.511,-64 169.77,-64"/>
<polygon fill="midnightblue" stroke="midnightblue" points="169.929,-67.5001 179.929,-64 169.929,-60.5001 169.929,-67.5001"/>
</g>
<!-- Node5 -->
<g id="node5" class="node"><title>Node5</title>
<g id="a_node5"><a xlink:href="../../d5/d6a/classppm__java_1_1typelib_1_1_v_audio_processor.html#ab030471d2e0ce8c7ba7b074d56dcb7c2" target="_top" xlink:title="ppm_java.typelib.VAudioProcessor.\lGetNumPortsOut">
<polygon fill="white" stroke="black" points="180,-0 180,-30 352,-30 352,-0 180,-0"/>
<text text-anchor="start" x="188" y="-18" font-family="Helvetica,sans-Serif" font-size="10.00">ppm_java.typelib.VAudioProcessor.</text>
<text text-anchor="middle" x="266" y="-7" font-family="Helvetica,sans-Serif" font-size="10.00">GetNumPortsOut</text>
</a>
</g>
</g>
<!-- Node2&#45;&gt;Node5 -->
<g id="edge4" class="edge"><title>Node2&#45;&gt;Node5</title>
<path fill="none" stroke="midnightblue" d="M136.833,-54.4894C149.825,-49.9641 165.677,-44.5593 180,-40 187.317,-37.6708 195.013,-35.2994 202.661,-32.9907"/>
<polygon fill="midnightblue" stroke="midnightblue" points="203.716,-36.3286 212.292,-30.1078 201.708,-29.6226 203.716,-36.3286"/>
</g>
</g>
</svg>
