<?xml version="1.0" encoding="UTF-8" standalone="no"?>
<!DOCTYPE svg PUBLIC "-//W3C//DTD SVG 1.1//EN"
 "http://www.w3.org/Graphics/SVG/1.1/DTD/svg11.dtd">
<!-- Generated by graphviz version 2.36.0 (20140111.2315)
 -->
<!-- Title: _LoadDriver Pages: 1 -->
<svg width="286pt" height="136pt"
 viewBox="0.00 0.00 286.00 136.00" xmlns="http://www.w3.org/2000/svg" xmlns:xlink="http://www.w3.org/1999/xlink">
<g id="graph0" class="graph" transform="scale(1 1) rotate(0) translate(4 132)">
<title>_LoadDriver</title>
<polygon fill="white" stroke="none" points="-4,4 -4,-132 282,-132 282,4 -4,4"/>
<!-- Node1 -->
<g id="node1" class="node"><title>Node1</title>
<polygon fill="#bfbfbf" stroke="black" points="0.5,-54.5 0.5,-73.5 69.5,-73.5 69.5,-54.5 0.5,-54.5"/>
<text text-anchor="middle" x="35" y="-61.5" font-family="Helvetica,sans-Serif" font-size="10.00">_LoadDriver</text>
</g>
<!-- Node2 -->
<g id="node2" class="node"><title>Node2</title>
<g id="a_node2"><a xlink:href="../../de/dd1/classppm__java_1_1typelib_1_1_v_browseable.html#a04cbe3f0b5057d0eb582200dea602297" target="_top" xlink:title="ppm_java.typelib.VBrowseable.\lGetID">
<polygon fill="white" stroke="black" points="115,-98 115,-128 269,-128 269,-98 115,-98"/>
<text text-anchor="start" x="123" y="-116" font-family="Helvetica,sans-Serif" font-size="10.00">ppm_java.typelib.VBrowseable.</text>
<text text-anchor="middle" x="192" y="-105" font-family="Helvetica,sans-Serif" font-size="10.00">GetID</text>
</a>
</g>
</g>
<!-- Node1&#45;&gt;Node2 -->
<g id="edge1" class="edge"><title>Node1&#45;&gt;Node2</title>
<path fill="none" stroke="midnightblue" d="M62.8326,-73.5106C75.8246,-78.0359 91.6769,-83.4407 106,-88 113.317,-90.3292 121.013,-92.7006 128.661,-95.0093"/>
<polygon fill="midnightblue" stroke="midnightblue" points="127.708,-98.3774 138.292,-97.8922 129.716,-91.6714 127.708,-98.3774"/>
</g>
<!-- Node3 -->
<g id="node3" class="node"><title>Node3</title>
<g id="a_node3"><a xlink:href="../../d5/d6a/classppm__java_1_1typelib_1_1_v_audio_processor.html#a74df81bf9ed4fa17020e9ac54f349066" target="_top" xlink:title="ppm_java.typelib.VAudioProcessor.\lGetNumPortsIn">
<polygon fill="white" stroke="black" points="106,-49 106,-79 278,-79 278,-49 106,-49"/>
<text text-anchor="start" x="114" y="-67" font-family="Helvetica,sans-Serif" font-size="10.00">ppm_java.typelib.VAudioProcessor.</text>
<text text-anchor="middle" x="192" y="-56" font-family="Helvetica,sans-Serif" font-size="10.00">GetNumPortsIn</text>
</a>
</g>
</g>
<!-- Node1&#45;&gt;Node3 -->
<g id="edge2" class="edge"><title>Node1&#45;&gt;Node3</title>
<path fill="none" stroke="midnightblue" d="M69.6327,-64C77.6098,-64 86.5115,-64 95.7699,-64"/>
<polygon fill="midnightblue" stroke="midnightblue" points="95.9294,-67.5001 105.929,-64 95.9293,-60.5001 95.9294,-67.5001"/>
</g>
<!-- Node4 -->
<g id="node4" class="node"><title>Node4</title>
<g id="a_node4"><a xlink:href="../../d5/d6a/classppm__java_1_1typelib_1_1_v_audio_processor.html#ab030471d2e0ce8c7ba7b074d56dcb7c2" target="_top" xlink:title="ppm_java.typelib.VAudioProcessor.\lGetNumPortsOut">
<polygon fill="white" stroke="black" points="106,-0 106,-30 278,-30 278,-0 106,-0"/>
<text text-anchor="start" x="114" y="-18" font-family="Helvetica,sans-Serif" font-size="10.00">ppm_java.typelib.VAudioProcessor.</text>
<text text-anchor="middle" x="192" y="-7" font-family="Helvetica,sans-Serif" font-size="10.00">GetNumPortsOut</text>
</a>
</g>
</g>
<!-- Node1&#45;&gt;Node4 -->
<g id="edge3" class="edge"><title>Node1&#45;&gt;Node4</title>
<path fill="none" stroke="midnightblue" d="M62.8326,-54.4894C75.8246,-49.9641 91.6769,-44.5593 106,-40 113.317,-37.6708 121.013,-35.2994 128.661,-32.9907"/>
<polygon fill="midnightblue" stroke="midnightblue" points="129.716,-36.3286 138.292,-30.1078 127.708,-29.6226 129.716,-36.3286"/>
</g>
</g>
</svg>
