<?xml version="1.0" encoding="UTF-8" standalone="no"?>
<!DOCTYPE svg PUBLIC "-//W3C//DTD SVG 1.1//EN"
 "http://www.w3.org/Graphics/SVG/1.1/DTD/svg11.dtd">
<!-- Generated by graphviz version 2.36.0 (20140111.2315)
 -->
<!-- Title: process Pages: 1 -->
<svg width="396pt" height="185pt"
 viewBox="0.00 0.00 396.00 185.00" xmlns="http://www.w3.org/2000/svg" xmlns:xlink="http://www.w3.org/1999/xlink">
<g id="graph0" class="graph" transform="scale(1 1) rotate(0) translate(4 181)">
<title>process</title>
<polygon fill="white" stroke="none" points="-4,4 -4,-181 392,-181 392,4 -4,4"/>
<!-- Node1 -->
<g id="node1" class="node"><title>Node1</title>
<polygon fill="#bfbfbf" stroke="black" points="0.5,-78.5 0.5,-97.5 51.5,-97.5 51.5,-78.5 0.5,-78.5"/>
<text text-anchor="middle" x="26" y="-85.5" font-family="Helvetica,sans-Serif" font-size="10.00">process</text>
</g>
<!-- Node2 -->
<g id="node2" class="node"><title>Node2</title>
<g id="a_node2"><a xlink:href="../../dc/da9/classppm__java_1_1backend_1_1module_1_1jackd_1_1_t_audio_context___jack_d.html#adcb71601f3fe96a1cfb862abb6a0ceb2" target="_top" xlink:title="Processes data ready to be sent to the Jack driver i.e. ">
<polygon fill="white" stroke="black" points="91.5,-103.5 91.5,-122.5 176.5,-122.5 176.5,-103.5 91.5,-103.5"/>
<text text-anchor="middle" x="134" y="-110.5" font-family="Helvetica,sans-Serif" font-size="10.00">_ProcessInputs</text>
</a>
</g>
</g>
<!-- Node1&#45;&gt;Node2 -->
<g id="edge1" class="edge"><title>Node1&#45;&gt;Node2</title>
<path fill="none" stroke="midnightblue" d="M51.585,-93.7983C60.8563,-95.985 71.7747,-98.5601 82.552,-101.102"/>
<polygon fill="midnightblue" stroke="midnightblue" points="81.8222,-104.526 92.3587,-103.415 83.4291,-97.7127 81.8222,-104.526"/>
</g>
<!-- Node5 -->
<g id="node5" class="node"><title>Node5</title>
<g id="a_node5"><a xlink:href="../../dc/da9/classppm__java_1_1backend_1_1module_1_1jackd_1_1_t_audio_context___jack_d.html#a4856e0278c53e540fa90916754598360" target="_top" xlink:title="Processes data ready to be retrieved from the Jack driver i.e. ">
<polygon fill="white" stroke="black" points="88,-54.5 88,-73.5 180,-73.5 180,-54.5 88,-54.5"/>
<text text-anchor="middle" x="134" y="-61.5" font-family="Helvetica,sans-Serif" font-size="10.00">_ProcessOutputs</text>
</a>
</g>
</g>
<!-- Node1&#45;&gt;Node5 -->
<g id="edge4" class="edge"><title>Node1&#45;&gt;Node5</title>
<path fill="none" stroke="midnightblue" d="M51.585,-82.4336C60.3909,-80.4398 70.6827,-78.1096 80.9283,-75.7898"/>
<polygon fill="midnightblue" stroke="midnightblue" points="81.7069,-79.2022 90.6871,-73.5803 80.1611,-72.375 81.7069,-79.2022"/>
</g>
<!-- Node3 -->
<g id="node3" class="node"><title>Node3</title>
<g id="a_node3"><a xlink:href="../../d5/d6a/classppm__java_1_1typelib_1_1_v_audio_processor.html#a74df81bf9ed4fa17020e9ac54f349066" target="_top" xlink:title="ppm_java.typelib.VAudioProcessor.\lGetNumPortsIn">
<polygon fill="white" stroke="black" points="216,-147 216,-177 388,-177 388,-147 216,-147"/>
<text text-anchor="start" x="224" y="-165" font-family="Helvetica,sans-Serif" font-size="10.00">ppm_java.typelib.VAudioProcessor.</text>
<text text-anchor="middle" x="302" y="-154" font-family="Helvetica,sans-Serif" font-size="10.00">GetNumPortsIn</text>
</a>
</g>
</g>
<!-- Node2&#45;&gt;Node3 -->
<g id="edge2" class="edge"><title>Node2&#45;&gt;Node3</title>
<path fill="none" stroke="midnightblue" d="M167.316,-122.591C182.147,-126.989 199.964,-132.266 216,-137 223.761,-139.291 231.922,-141.696 239.991,-144.072"/>
<polygon fill="midnightblue" stroke="midnightblue" points="239.173,-147.48 249.754,-146.946 241.149,-140.765 239.173,-147.48"/>
</g>
<!-- Node4 -->
<g id="node4" class="node"><title>Node4</title>
<g id="a_node4"><a xlink:href="../../d5/d6a/classppm__java_1_1typelib_1_1_v_audio_processor.html#a5bfd065f6711c094469beafa8b649b71" target="_top" xlink:title="Returns the ith input port. ">
<polygon fill="white" stroke="black" points="216,-98 216,-128 388,-128 388,-98 216,-98"/>
<text text-anchor="start" x="224" y="-116" font-family="Helvetica,sans-Serif" font-size="10.00">ppm_java.typelib.VAudioProcessor.</text>
<text text-anchor="middle" x="302" y="-105" font-family="Helvetica,sans-Serif" font-size="10.00">GetPortIn</text>
</a>
</g>
</g>
<!-- Node2&#45;&gt;Node4 -->
<g id="edge3" class="edge"><title>Node2&#45;&gt;Node4</title>
<path fill="none" stroke="midnightblue" d="M176.889,-113C185.821,-113 195.603,-113 205.632,-113"/>
<polygon fill="midnightblue" stroke="midnightblue" points="205.721,-116.5 215.721,-113 205.721,-109.5 205.721,-116.5"/>
</g>
<!-- Node6 -->
<g id="node6" class="node"><title>Node6</title>
<g id="a_node6"><a xlink:href="../../d5/d6a/classppm__java_1_1typelib_1_1_v_audio_processor.html#ab030471d2e0ce8c7ba7b074d56dcb7c2" target="_top" xlink:title="ppm_java.typelib.VAudioProcessor.\lGetNumPortsOut">
<polygon fill="white" stroke="black" points="216,-49 216,-79 388,-79 388,-49 216,-49"/>
<text text-anchor="start" x="224" y="-67" font-family="Helvetica,sans-Serif" font-size="10.00">ppm_java.typelib.VAudioProcessor.</text>
<text text-anchor="middle" x="302" y="-56" font-family="Helvetica,sans-Serif" font-size="10.00">GetNumPortsOut</text>
</a>
</g>
</g>
<!-- Node5&#45;&gt;Node6 -->
<g id="edge5" class="edge"><title>Node5&#45;&gt;Node6</title>
<path fill="none" stroke="midnightblue" d="M180.36,-64C188.295,-64 196.812,-64 205.516,-64"/>
<polygon fill="midnightblue" stroke="midnightblue" points="205.797,-67.5001 215.797,-64 205.797,-60.5001 205.797,-67.5001"/>
</g>
<!-- Node7 -->
<g id="node7" class="node"><title>Node7</title>
<g id="a_node7"><a xlink:href="../../d5/d6a/classppm__java_1_1typelib_1_1_v_audio_processor.html#a2a3eff032668d4235f02e6cad3f43a66" target="_top" xlink:title="Returns the ith output port. ">
<polygon fill="white" stroke="black" points="216,-0 216,-30 388,-30 388,-0 216,-0"/>
<text text-anchor="start" x="224" y="-18" font-family="Helvetica,sans-Serif" font-size="10.00">ppm_java.typelib.VAudioProcessor.</text>
<text text-anchor="middle" x="302" y="-7" font-family="Helvetica,sans-Serif" font-size="10.00">GetPortOut</text>
</a>
</g>
</g>
<!-- Node5&#45;&gt;Node7 -->
<g id="edge6" class="edge"><title>Node5&#45;&gt;Node7</title>
<path fill="none" stroke="midnightblue" d="M167.316,-54.4087C182.147,-50.011 199.964,-44.7339 216,-40 223.761,-37.7088 231.922,-35.3035 239.991,-32.9278"/>
<polygon fill="midnightblue" stroke="midnightblue" points="241.149,-36.2354 249.754,-30.0542 239.173,-29.5202 241.149,-36.2354"/>
</g>
</g>
</svg>
