<?xml version="1.0" encoding="UTF-8" standalone="no"?>
<!DOCTYPE svg PUBLIC "-//W3C//DTD SVG 1.1//EN"
 "http://www.w3.org/Graphics/SVG/1.1/DTD/svg11.dtd">
<!-- Generated by graphviz version 2.36.0 (20140111.2315)
 -->
<!-- Title: AddPortOut Pages: 1 -->
<svg width="308pt" height="314pt"
 viewBox="0.00 0.00 308.00 314.00" xmlns="http://www.w3.org/2000/svg" xmlns:xlink="http://www.w3.org/1999/xlink">
<g id="graph0" class="graph" transform="scale(1 1) rotate(0) translate(4 310)">
<title>AddPortOut</title>
<polygon fill="white" stroke="none" points="-4,4 -4,-310 304,-310 304,4 -4,4"/>
<!-- Node1 -->
<g id="node1" class="node"><title>Node1</title>
<polygon fill="#bfbfbf" stroke="black" points="0,-145.5 0,-164.5 68,-164.5 68,-145.5 0,-145.5"/>
<text text-anchor="middle" x="34" y="-152.5" font-family="Helvetica,sans-Serif" font-size="10.00">AddPortOut</text>
</g>
<!-- Node2 -->
<g id="node2" class="node"><title>Node2</title>
<g id="a_node2"><a xlink:href="../../da/da6/classppm__java_1_1backend_1_1module_1_1peak__estimator_1_1_t_node_peak_estimator.html#a1d50b4bdc07d447555e6c7ff69b97855" target="_top" xlink:title="ppm_java.backend.module.peak\l_estimator.TNodePeakEstimator.Create\lPort_Out">
<polygon fill="white" stroke="black" points="106.5,-264.5 106.5,-305.5 297.5,-305.5 297.5,-264.5 106.5,-264.5"/>
<text text-anchor="start" x="114.5" y="-293.5" font-family="Helvetica,sans-Serif" font-size="10.00">ppm_java.backend.module.peak</text>
<text text-anchor="start" x="114.5" y="-282.5" font-family="Helvetica,sans-Serif" font-size="10.00">_estimator.TNodePeakEstimator.Create</text>
<text text-anchor="middle" x="202" y="-271.5" font-family="Helvetica,sans-Serif" font-size="10.00">Port_Out</text>
</a>
</g>
</g>
<!-- Node1&#45;&gt;Node2 -->
<g id="edge1" class="edge"><title>Node1&#45;&gt;Node2</title>
<path fill="none" stroke="midnightblue" d="M43.1849,-173.757C53.9478,-196.277 74.9553,-233.672 104,-255 108.831,-258.547 114.089,-261.681 119.577,-264.45"/>
<polygon fill="midnightblue" stroke="midnightblue" points="46.32,-172.197 38.9686,-164.567 39.9578,-175.116 46.32,-172.197"/>
</g>
<!-- Node3 -->
<g id="node3" class="node"><title>Node3</title>
<g id="a_node3"><a xlink:href="../../dd/db2/classppm__java_1_1backend_1_1module_1_1converter__db_1_1_t_node_converter_db.html#a1d50b4bdc07d447555e6c7ff69b97855" target="_top" xlink:title="ppm_java.backend.module.converter\l_db.TNodeConverterDb.CreatePort_Out">
<polygon fill="white" stroke="black" points="106.5,-216 106.5,-246 297.5,-246 297.5,-216 106.5,-216"/>
<text text-anchor="start" x="114.5" y="-234" font-family="Helvetica,sans-Serif" font-size="10.00">ppm_java.backend.module.converter</text>
<text text-anchor="middle" x="202" y="-223" font-family="Helvetica,sans-Serif" font-size="10.00">_db.TNodeConverterDb.CreatePort_Out</text>
</a>
</g>
</g>
<!-- Node1&#45;&gt;Node3 -->
<g id="edge2" class="edge"><title>Node1&#45;&gt;Node3</title>
<path fill="none" stroke="midnightblue" d="M53.2198,-171.534C66.4474,-182.735 85.2443,-197.07 104,-206 112.086,-209.85 120.845,-213.163 129.678,-215.999"/>
<polygon fill="midnightblue" stroke="midnightblue" points="55.228,-168.642 45.388,-164.714 50.631,-173.921 55.228,-168.642"/>
</g>
<!-- Node4 -->
<g id="node4" class="node"><title>Node4</title>
<g id="a_node4"><a xlink:href="../../dc/da9/classppm__java_1_1backend_1_1module_1_1jackd_1_1_t_audio_context___jack_d.html#a1d50b4bdc07d447555e6c7ff69b97855" target="_top" xlink:title="ppm_java.backend.module.jackd.\lTAudioContext_JackD.CreatePort_Out">
<polygon fill="white" stroke="black" points="108.5,-167 108.5,-197 295.5,-197 295.5,-167 108.5,-167"/>
<text text-anchor="start" x="116.5" y="-185" font-family="Helvetica,sans-Serif" font-size="10.00">ppm_java.backend.module.jackd.</text>
<text text-anchor="middle" x="202" y="-174" font-family="Helvetica,sans-Serif" font-size="10.00">TAudioContext_JackD.CreatePort_Out</text>
</a>
</g>
</g>
<!-- Node1&#45;&gt;Node4 -->
<g id="edge3" class="edge"><title>Node1&#45;&gt;Node4</title>
<path fill="none" stroke="midnightblue" d="M78.1204,-162.014C87.6311,-163.56 98.0582,-165.256 108.692,-166.986"/>
<polygon fill="midnightblue" stroke="midnightblue" points="78.6258,-158.55 68.1936,-160.399 77.502,-165.459 78.6258,-158.55"/>
</g>
<!-- Node5 -->
<g id="node5" class="node"><title>Node5</title>
<g id="a_node5"><a xlink:href="../../d2/d99/classppm__java_1_1backend_1_1module_1_1integrator_1_1_t_node_integrator___p_p_m_ballistics.html#a1d50b4bdc07d447555e6c7ff69b97855" target="_top" xlink:title="ppm_java.backend.module.integrator.\lTNodeIntegrator_PPMBallistics.Create\lPort_Out">
<polygon fill="white" stroke="black" points="109,-107.5 109,-148.5 295,-148.5 295,-107.5 109,-107.5"/>
<text text-anchor="start" x="117" y="-136.5" font-family="Helvetica,sans-Serif" font-size="10.00">ppm_java.backend.module.integrator.</text>
<text text-anchor="start" x="117" y="-125.5" font-family="Helvetica,sans-Serif" font-size="10.00">TNodeIntegrator_PPMBallistics.Create</text>
<text text-anchor="middle" x="202" y="-114.5" font-family="Helvetica,sans-Serif" font-size="10.00">Port_Out</text>
</a>
</g>
</g>
<!-- Node1&#45;&gt;Node5 -->
<g id="edge4" class="edge"><title>Node1&#45;&gt;Node5</title>
<path fill="none" stroke="midnightblue" d="M78.1204,-147.986C87.6311,-146.44 98.0582,-144.744 108.692,-143.014"/>
<polygon fill="midnightblue" stroke="midnightblue" points="77.502,-144.541 68.1936,-149.601 78.6258,-151.45 77.502,-144.541"/>
</g>
<!-- Node6 -->
<g id="node6" class="node"><title>Node6</title>
<g id="a_node6"><a xlink:href="../../de/db8/classppm__java_1_1backend_1_1module_1_1pump_1_1_t_node_pump.html#a1d50b4bdc07d447555e6c7ff69b97855" target="_top" xlink:title="ppm_java.backend.module.pump.\lTNodePump.CreatePort_Out">
<polygon fill="white" stroke="black" points="120.5,-59 120.5,-89 283.5,-89 283.5,-59 120.5,-59"/>
<text text-anchor="start" x="128.5" y="-77" font-family="Helvetica,sans-Serif" font-size="10.00">ppm_java.backend.module.pump.</text>
<text text-anchor="middle" x="202" y="-66" font-family="Helvetica,sans-Serif" font-size="10.00">TNodePump.CreatePort_Out</text>
</a>
</g>
</g>
<!-- Node1&#45;&gt;Node6 -->
<g id="edge5" class="edge"><title>Node1&#45;&gt;Node6</title>
<path fill="none" stroke="midnightblue" d="M51.1153,-138.058C64.2122,-125.249 83.7733,-108.186 104,-98 110.818,-94.5669 118.157,-91.6049 125.638,-89.0536"/>
<polygon fill="midnightblue" stroke="midnightblue" points="48.406,-135.819 43.8477,-145.383 53.3754,-140.749 48.406,-135.819"/>
</g>
<!-- Node7 -->
<g id="node7" class="node"><title>Node7</title>
<g id="a_node7"><a xlink:href="../../dc/d04/classppm__java_1_1backend_1_1module_1_1__deprecated__ppm_1_1_t_node_p_p_m_processor.html#a1d50b4bdc07d447555e6c7ff69b97855" target="_top" xlink:title="ppm_java.backend.module.\l_deprecated_ppm.TNodePPMProcessor.\lCreatePort_Out">
<polygon fill="white" stroke="black" points="104.5,0.5 104.5,-40.5 299.5,-40.5 299.5,0.5 104.5,0.5"/>
<text text-anchor="start" x="112.5" y="-28.5" font-family="Helvetica,sans-Serif" font-size="10.00">ppm_java.backend.module.</text>
<text text-anchor="start" x="112.5" y="-17.5" font-family="Helvetica,sans-Serif" font-size="10.00">_deprecated_ppm.TNodePPMProcessor.</text>
<text text-anchor="middle" x="202" y="-6.5" font-family="Helvetica,sans-Serif" font-size="10.00">CreatePort_Out</text>
</a>
</g>
</g>
<!-- Node1&#45;&gt;Node7 -->
<g id="edge6" class="edge"><title>Node1&#45;&gt;Node7</title>
<path fill="none" stroke="midnightblue" d="M42.639,-135.982C53.0573,-112.415 73.9289,-72.6088 104,-50 108.649,-46.5043 113.712,-43.4113 119.004,-40.6754"/>
<polygon fill="midnightblue" stroke="midnightblue" points="39.3825,-134.697 38.7046,-145.27 45.828,-137.427 39.3825,-134.697"/>
</g>
</g>
</svg>
