<?xml version="1.0" encoding="UTF-8" standalone="no"?>
<!DOCTYPE svg PUBLIC "-//W3C//DTD SVG 1.1//EN"
 "http://www.w3.org/Graphics/SVG/1.1/DTD/svg11.dtd">
<!-- Generated by graphviz version 2.36.0 (20140111.2315)
 -->
<!-- Title: GetNumPortsIn Pages: 1 -->
<svg width="516pt" height="87pt"
 viewBox="0.00 0.00 516.00 87.00" xmlns="http://www.w3.org/2000/svg" xmlns:xlink="http://www.w3.org/1999/xlink">
<g id="graph0" class="graph" transform="scale(1 1) rotate(0) translate(4 83)">
<title>GetNumPortsIn</title>
<polygon fill="white" stroke="none" points="-4,4 -4,-83 512,-83 512,4 -4,4"/>
<!-- Node1 -->
<g id="node1" class="node"><title>Node1</title>
<polygon fill="#bfbfbf" stroke="black" points="0.5,-29.5 0.5,-48.5 85.5,-48.5 85.5,-29.5 0.5,-29.5"/>
<text text-anchor="middle" x="43" y="-36.5" font-family="Helvetica,sans-Serif" font-size="10.00">GetNumPortsIn</text>
</g>
<!-- Node2 -->
<g id="node2" class="node"><title>Node2</title>
<g id="a_node2"><a xlink:href="../../dc/da9/classppm__java_1_1backend_1_1module_1_1jackd_1_1_t_audio_context___jack_d.html#a241daff2103a886e197a4ccb424264fa" target="_top" xlink:title="Loads and initializes the JackD driver. ">
<polygon fill="white" stroke="black" points="130.5,-49 130.5,-79 301.5,-79 301.5,-49 130.5,-49"/>
<text text-anchor="start" x="138.5" y="-67" font-family="Helvetica,sans-Serif" font-size="10.00">ppm_java.backend.module.jackd.</text>
<text text-anchor="middle" x="216" y="-56" font-family="Helvetica,sans-Serif" font-size="10.00">TAudioContext_JackD._LoadDriver</text>
</a>
</g>
</g>
<!-- Node1&#45;&gt;Node2 -->
<g id="edge1" class="edge"><title>Node1&#45;&gt;Node2</title>
<path fill="none" stroke="midnightblue" d="M95.9961,-46.6018C106.904,-48.1966 118.677,-49.9177 130.427,-51.6355"/>
<polygon fill="midnightblue" stroke="midnightblue" points="96.2325,-43.0992 85.8313,-45.1157 95.2198,-50.0256 96.2325,-43.0992"/>
</g>
<!-- Node4 -->
<g id="node4" class="node"><title>Node4</title>
<g id="a_node4"><a xlink:href="../../dc/da9/classppm__java_1_1backend_1_1module_1_1jackd_1_1_t_audio_context___jack_d.html#adcb71601f3fe96a1cfb862abb6a0ceb2" target="_top" xlink:title="Processes data ready to be sent to the Jack driver i.e. ">
<polygon fill="white" stroke="black" points="122.5,-0 122.5,-30 309.5,-30 309.5,-0 122.5,-0"/>
<text text-anchor="start" x="130.5" y="-18" font-family="Helvetica,sans-Serif" font-size="10.00">ppm_java.backend.module.jackd.</text>
<text text-anchor="middle" x="216" y="-7" font-family="Helvetica,sans-Serif" font-size="10.00">TAudioContext_JackD._ProcessInputs</text>
</a>
</g>
</g>
<!-- Node1&#45;&gt;Node4 -->
<g id="edge3" class="edge"><title>Node1&#45;&gt;Node4</title>
<path fill="none" stroke="midnightblue" d="M95.8336,-31.7251C104.268,-30.5414 113.222,-29.2846 122.286,-28.0126"/>
<polygon fill="midnightblue" stroke="midnightblue" points="95.2478,-28.2729 85.8313,-33.1289 96.2207,-35.205 95.2478,-28.2729"/>
</g>
<!-- Node3 -->
<g id="node3" class="node"><title>Node3</title>
<g id="a_node3"><a xlink:href="../../dc/da9/classppm__java_1_1backend_1_1module_1_1jackd_1_1_t_audio_context___jack_d.html#a07aaf1227e4d645f15e0a964f54ef291" target="_top" xlink:title="Starts the module. ">
<polygon fill="white" stroke="black" points="346,-49 346,-79 508,-79 508,-49 346,-49"/>
<text text-anchor="start" x="354" y="-67" font-family="Helvetica,sans-Serif" font-size="10.00">ppm_java.backend.module.jackd.</text>
<text text-anchor="middle" x="427" y="-56" font-family="Helvetica,sans-Serif" font-size="10.00">TAudioContext_JackD.Start</text>
</a>
</g>
</g>
<!-- Node2&#45;&gt;Node3 -->
<g id="edge2" class="edge"><title>Node2&#45;&gt;Node3</title>
<path fill="none" stroke="midnightblue" d="M312.043,-64C323.36,-64 334.827,-64 345.905,-64"/>
<polygon fill="midnightblue" stroke="midnightblue" points="311.707,-60.5001 301.707,-64 311.707,-67.5001 311.707,-60.5001"/>
</g>
<!-- Node5 -->
<g id="node5" class="node"><title>Node5</title>
<g id="a_node5"><a xlink:href="../../dc/da9/classppm__java_1_1backend_1_1module_1_1jackd_1_1_t_audio_context___jack_d.html#af4cc5a6da7617be29646351c30a34e69" target="_top" xlink:title="ppm_java.backend.module.jackd.\lTAudioContext_JackD.process">
<polygon fill="white" stroke="black" points="346,-0 346,-30 508,-30 508,-0 346,-0"/>
<text text-anchor="start" x="354" y="-18" font-family="Helvetica,sans-Serif" font-size="10.00">ppm_java.backend.module.jackd.</text>
<text text-anchor="middle" x="427" y="-7" font-family="Helvetica,sans-Serif" font-size="10.00">TAudioContext_JackD.process</text>
</a>
</g>
</g>
<!-- Node4&#45;&gt;Node5 -->
<g id="edge4" class="edge"><title>Node4&#45;&gt;Node5</title>
<path fill="none" stroke="midnightblue" d="M319.846,-15C328.607,-15 337.383,-15 345.929,-15"/>
<polygon fill="midnightblue" stroke="midnightblue" points="319.583,-11.5001 309.583,-15 319.583,-18.5001 319.583,-11.5001"/>
</g>
</g>
</svg>
