<?xml version="1.0" encoding="UTF-8" standalone="no"?>
<!DOCTYPE svg PUBLIC "-//W3C//DTD SVG 1.1//EN"
 "http://www.w3.org/Graphics/SVG/1.1/DTD/svg11.dtd">
<!-- Generated by graphviz version 2.36.0 (20140111.2315)
 -->
<!-- Title: GetNumPortsOut Pages: 1 -->
<svg width="528pt" height="87pt"
 viewBox="0.00 0.00 528.00 87.00" xmlns="http://www.w3.org/2000/svg" xmlns:xlink="http://www.w3.org/1999/xlink">
<g id="graph0" class="graph" transform="scale(1 1) rotate(0) translate(4 83)">
<title>GetNumPortsOut</title>
<polygon fill="white" stroke="none" points="-4,4 -4,-83 524,-83 524,4 -4,4"/>
<!-- Node1 -->
<g id="node1" class="node"><title>Node1</title>
<polygon fill="#bfbfbf" stroke="black" points="0,-29.5 0,-48.5 92,-48.5 92,-29.5 0,-29.5"/>
<text text-anchor="middle" x="46" y="-36.5" font-family="Helvetica,sans-Serif" font-size="10.00">GetNumPortsOut</text>
</g>
<!-- Node2 -->
<g id="node2" class="node"><title>Node2</title>
<g id="a_node2"><a xlink:href="../../dc/da9/classppm__java_1_1backend_1_1module_1_1jackd_1_1_t_audio_context___jack_d.html#a241daff2103a886e197a4ccb424264fa" target="_top" xlink:title="Loads and initializes the JackD driver. ">
<polygon fill="white" stroke="black" points="139.5,-49 139.5,-79 310.5,-79 310.5,-49 139.5,-49"/>
<text text-anchor="start" x="147.5" y="-67" font-family="Helvetica,sans-Serif" font-size="10.00">ppm_java.backend.module.jackd.</text>
<text text-anchor="middle" x="225" y="-56" font-family="Helvetica,sans-Serif" font-size="10.00">TAudioContext_JackD._LoadDriver</text>
</a>
</g>
</g>
<!-- Node1&#45;&gt;Node2 -->
<g id="edge1" class="edge"><title>Node1&#45;&gt;Node2</title>
<path fill="none" stroke="midnightblue" d="M102.228,-46.8005C114.027,-48.4671 126.749,-50.264 139.367,-52.0462"/>
<polygon fill="midnightblue" stroke="midnightblue" points="102.514,-43.3063 92.1225,-45.3732 101.535,-50.2375 102.514,-43.3063"/>
</g>
<!-- Node4 -->
<g id="node4" class="node"><title>Node4</title>
<g id="a_node4"><a xlink:href="../../dc/da9/classppm__java_1_1backend_1_1module_1_1jackd_1_1_t_audio_context___jack_d.html#a4856e0278c53e540fa90916754598360" target="_top" xlink:title="Processes data ready to be retrieved from the Jack driver i.e. ">
<polygon fill="white" stroke="black" points="128,-0 128,-30 322,-30 322,-0 128,-0"/>
<text text-anchor="start" x="136" y="-18" font-family="Helvetica,sans-Serif" font-size="10.00">ppm_java.backend.module.jackd.</text>
<text text-anchor="middle" x="225" y="-7" font-family="Helvetica,sans-Serif" font-size="10.00">TAudioContext_JackD._ProcessOutputs</text>
</a>
</g>
</g>
<!-- Node1&#45;&gt;Node4 -->
<g id="edge3" class="edge"><title>Node1&#45;&gt;Node4</title>
<path fill="none" stroke="midnightblue" d="M102.266,-31.5063C110.483,-30.3921 119.148,-29.2173 127.912,-28.0288"/>
<polygon fill="midnightblue" stroke="midnightblue" points="101.562,-28.0697 92.1225,-32.8817 102.502,-35.0062 101.562,-28.0697"/>
</g>
<!-- Node3 -->
<g id="node3" class="node"><title>Node3</title>
<g id="a_node3"><a xlink:href="../../dc/da9/classppm__java_1_1backend_1_1module_1_1jackd_1_1_t_audio_context___jack_d.html#a07aaf1227e4d645f15e0a964f54ef291" target="_top" xlink:title="Starts the module. ">
<polygon fill="white" stroke="black" points="358,-49 358,-79 520,-79 520,-49 358,-49"/>
<text text-anchor="start" x="366" y="-67" font-family="Helvetica,sans-Serif" font-size="10.00">ppm_java.backend.module.jackd.</text>
<text text-anchor="middle" x="439" y="-56" font-family="Helvetica,sans-Serif" font-size="10.00">TAudioContext_JackD.Start</text>
</a>
</g>
</g>
<!-- Node2&#45;&gt;Node3 -->
<g id="edge2" class="edge"><title>Node2&#45;&gt;Node3</title>
<path fill="none" stroke="midnightblue" d="M320.997,-64C333.326,-64 345.856,-64 357.91,-64"/>
<polygon fill="midnightblue" stroke="midnightblue" points="320.702,-60.5001 310.702,-64 320.702,-67.5001 320.702,-60.5001"/>
</g>
<!-- Node5 -->
<g id="node5" class="node"><title>Node5</title>
<g id="a_node5"><a xlink:href="../../dc/da9/classppm__java_1_1backend_1_1module_1_1jackd_1_1_t_audio_context___jack_d.html#af4cc5a6da7617be29646351c30a34e69" target="_top" xlink:title="ppm_java.backend.module.jackd.\lTAudioContext_JackD.process">
<polygon fill="white" stroke="black" points="358,-0 358,-30 520,-30 520,-0 358,-0"/>
<text text-anchor="start" x="366" y="-18" font-family="Helvetica,sans-Serif" font-size="10.00">ppm_java.backend.module.jackd.</text>
<text text-anchor="middle" x="439" y="-7" font-family="Helvetica,sans-Serif" font-size="10.00">TAudioContext_JackD.process</text>
</a>
</g>
</g>
<!-- Node4&#45;&gt;Node5 -->
<g id="edge4" class="edge"><title>Node4&#45;&gt;Node5</title>
<path fill="none" stroke="midnightblue" d="M332.178,-15C340.794,-15 349.409,-15 357.795,-15"/>
<polygon fill="midnightblue" stroke="midnightblue" points="332.075,-11.5001 322.075,-15 332.075,-18.5001 332.075,-11.5001"/>
</g>
</g>
</svg>
