<?xml version="1.0" encoding="UTF-8" standalone="no"?>
<!DOCTYPE svg PUBLIC "-//W3C//DTD SVG 1.1//EN"
 "http://www.w3.org/Graphics/SVG/1.1/DTD/svg11.dtd">
<!-- Generated by graphviz version 2.36.0 (20140111.2315)
 -->
<!-- Title: GetPortIn Pages: 1 -->
<!--zoomable 235 -->
<svg id="main" version="1.1" xmlns="http://www.w3.org/2000/svg" xmlns:xlink="http://www.w3.org/1999/xlink" xml:space="preserve" onload="init(evt)">
<style type="text/css"><![CDATA[
.edge:hover path { stroke: red; }
.edge:hover polygon { stroke: red; fill: red; }
]]></style>
<script type="text/javascript"><![CDATA[
var edges = document.getElementsByTagName('g');
if (edges && edges.length) {
  for (var i=0;i<edges.length;i++) {
    if (edges[i].id.substr(0,4)=='edge') {
      edges[i].setAttribute('class','edge');
    }
  }
}
]]></script>
        <defs>
                <circle id="rim" cx="0" cy="0" r="7"/>
                <circle id="rim2" cx="0" cy="0" r="3.5"/>
                <g id="zoomPlus">
                        <use xlink:href="#rim" fill="#404040">
                                <set attributeName="fill" to="#808080" begin="zoomplus.mouseover" end="zoomplus.mouseout"/>
                        </use>
                        <path d="M-4,0h8M0,-4v8" fill="none" stroke="white" stroke-width="1.5" pointer-events="none"/>
                </g>
                <g id="zoomMin">
                        <use xlink:href="#rim" fill="#404040">
                                <set attributeName="fill" to="#808080" begin="zoomminus.mouseover" end="zoomminus.mouseout"/>
                        </use>
                        <path d="M-4,0h8" fill="none" stroke="white" stroke-width="1.5" pointer-events="none"/>
                </g>
                <g id="dirArrow">
                        <path fill="none" stroke="white" stroke-width="1.5" d="M0,-3.0v7 M-2.5,-0.5L0,-3.0L2.5,-0.5"/>
                </g>
               <g id="resetDef">
                       <use xlink:href="#rim2" fill="#404040">
                               <set attributeName="fill" to="#808080" begin="reset.mouseover" end="reset.mouseout"/>
                       </use>
               </g>
        </defs>

<script type="text/javascript">
var viewWidth = 770;
var viewHeight = 235;
var sectionId = 'dynsection-6';
</script>
<script xlink:href="../../svgpan.js"/>
<svg id="graph" class="graph">
<g id="viewport">
<title>GetPortIn</title>
<polygon fill="white" stroke="none" points="-4,4 -4,-231 766,-231 766,4 -4,4"/>
<!-- Node1 -->
<g id="node1" class="node"><title>Node1</title>
<polygon fill="#bfbfbf" stroke="black" points="0.5,-103.5 0.5,-122.5 59.5,-122.5 59.5,-103.5 0.5,-103.5"/>
<text text-anchor="middle" x="30" y="-110.5" font-family="Helvetica,sans-Serif" font-size="10.00">GetPortIn</text>
</g>
<!-- Node2 -->
<g id="node2" class="node"><title>Node2</title>
<g id="a_node2"><a xlink:href="../../dc/d04/classppm__java_1_1backend_1_1module_1_1__deprecated__ppm_1_1_t_node_p_p_m_processor.html#acb24179b9cce6b4e388b2c7589b0a681" target="_top" xlink:title="Auto compensation for Overruns/Underruns on the atomic buffer associated with the input...">
<polygon fill="white" stroke="black" points="99.5,-185.5 99.5,-226.5 294.5,-226.5 294.5,-185.5 99.5,-185.5"/>
<text text-anchor="start" x="107.5" y="-214.5" font-family="Helvetica,sans-Serif" font-size="10.00">ppm_java.backend.module.</text>
<text text-anchor="start" x="107.5" y="-203.5" font-family="Helvetica,sans-Serif" font-size="10.00">_deprecated_ppm.TNodePPMProcessor.</text>
<text text-anchor="middle" x="197" y="-192.5" font-family="Helvetica,sans-Serif" font-size="10.00">_CompensateCongestions</text>
</a>
</g>
</g>
<!-- Node1&#45;&gt;Node2 -->
<g id="edge1" class="edge"><title>Node1&#45;&gt;Node2</title>
<path fill="none" stroke="midnightblue" d="M46.6404,-130.216C58.9931,-142.95 77.2258,-159.934 96,-171 105.27,-176.464 115.525,-181.258 125.831,-185.404"/>
<polygon fill="midnightblue" stroke="midnightblue" points="49.1675,-127.794 39.7566,-122.927 44.0784,-132.6 49.1675,-127.794"/>
</g>
<!-- Node3 -->
<g id="node3" class="node"><title>Node3</title>
<g id="a_node3"><a xlink:href="../../dc/d04/classppm__java_1_1backend_1_1module_1_1__deprecated__ppm_1_1_t_node_p_p_m_processor.html#a9170c532c1d0021b723f0285c672a6cd" target="_top" xlink:title="The central computation piece of the PPM level meter. ">
<polygon fill="white" stroke="black" points="334.5,-165.5 334.5,-206.5 529.5,-206.5 529.5,-165.5 334.5,-165.5"/>
<text text-anchor="start" x="342.5" y="-194.5" font-family="Helvetica,sans-Serif" font-size="10.00">ppm_java.backend.module.</text>
<text text-anchor="start" x="342.5" y="-183.5" font-family="Helvetica,sans-Serif" font-size="10.00">_deprecated_ppm.TNodePPMProcessor.</text>
<text text-anchor="middle" x="432" y="-172.5" font-family="Helvetica,sans-Serif" font-size="10.00">_ProcessChunk</text>
</a>
</g>
</g>
<!-- Node1&#45;&gt;Node3 -->
<g id="edge6" class="edge"><title>Node1&#45;&gt;Node3</title>
<path fill="none" stroke="midnightblue" d="M62.7401,-126.224C73.1876,-130.169 84.9577,-134.187 96,-137 175.031,-157.135 266.801,-169.838 334.286,-177.251"/>
<polygon fill="midnightblue" stroke="midnightblue" points="63.7841,-122.875 53.1957,-122.505 61.2428,-129.397 63.7841,-122.875"/>
</g>
<!-- Node5 -->
<g id="node5" class="node"><title>Node5</title>
<g id="a_node5"><a xlink:href="../../de/db8/classppm__java_1_1backend_1_1module_1_1pump_1_1_t_node_pump.html#ae229ebda3ceb1f6b51687126a833aa40" target="_top" xlink:title="Initializes a few objects and sets the initial value for fTLast. ">
<polygon fill="white" stroke="black" points="115.5,-98 115.5,-128 278.5,-128 278.5,-98 115.5,-98"/>
<text text-anchor="start" x="123.5" y="-116" font-family="Helvetica,sans-Serif" font-size="10.00">ppm_java.backend.module.pump.</text>
<text text-anchor="middle" x="197" y="-105" font-family="Helvetica,sans-Serif" font-size="10.00">TNodePump._Initialize</text>
</a>
</g>
</g>
<!-- Node1&#45;&gt;Node5 -->
<g id="edge4" class="edge"><title>Node1&#45;&gt;Node5</title>
<path fill="none" stroke="midnightblue" d="M69.7726,-113C83.5237,-113 99.5544,-113 115.486,-113"/>
<polygon fill="midnightblue" stroke="midnightblue" points="69.7408,-109.5 59.7408,-113 69.7408,-116.5 69.7408,-109.5"/>
</g>
<!-- Node7 -->
<g id="node7" class="node"><title>Node7</title>
<g id="a_node7"><a xlink:href="../../dc/da9/classppm__java_1_1backend_1_1module_1_1jackd_1_1_t_audio_context___jack_d.html#adcb71601f3fe96a1cfb862abb6a0ceb2" target="_top" xlink:title="Processes data ready to be sent to the Jack driver i.e. ">
<polygon fill="white" stroke="black" points="103.5,-49 103.5,-79 290.5,-79 290.5,-49 103.5,-49"/>
<text text-anchor="start" x="111.5" y="-67" font-family="Helvetica,sans-Serif" font-size="10.00">ppm_java.backend.module.jackd.</text>
<text text-anchor="middle" x="197" y="-56" font-family="Helvetica,sans-Serif" font-size="10.00">TAudioContext_JackD._ProcessInputs</text>
</a>
</g>
</g>
<!-- Node1&#45;&gt;Node7 -->
<g id="edge7" class="edge"><title>Node1&#45;&gt;Node7</title>
<path fill="none" stroke="midnightblue" d="M63.1167,-99.6853C73.5082,-95.6373 85.1506,-91.3723 96,-88 106.315,-84.7938 117.34,-81.7627 128.162,-79.0028"/>
<polygon fill="midnightblue" stroke="midnightblue" points="61.6056,-96.5194 53.6038,-103.464 64.1896,-103.025 61.6056,-96.5194"/>
</g>
<!-- Node9 -->
<g id="node9" class="node"><title>Node9</title>
<g id="a_node9"><a xlink:href="../../d3/df6/classppm__java_1_1backend_1_1module_1_1jackd_1_1_t_audio_context___jack_d___stats.html#aeca6a90af8e17967096f2bfd719ceb45" target="_top" xlink:title="ppm_java.backend.module.jackd.\lTAudioContext_JackD_Stats.GetDumpStr">
<polygon fill="white" stroke="black" points="96,-0 96,-30 298,-30 298,-0 96,-0"/>
<text text-anchor="start" x="104" y="-18" font-family="Helvetica,sans-Serif" font-size="10.00">ppm_java.backend.module.jackd.</text>
<text text-anchor="middle" x="197" y="-7" font-family="Helvetica,sans-Serif" font-size="10.00">TAudioContext_JackD_Stats.GetDumpStr</text>
</a>
</g>
</g>
<!-- Node1&#45;&gt;Node9 -->
<g id="edge9" class="edge"><title>Node1&#45;&gt;Node9</title>
<path fill="none" stroke="midnightblue" d="M42.1603,-94.8342C53.5817,-77.8038 72.898,-52.9361 96,-39 101.733,-35.5416 107.932,-32.5815 114.338,-30.0478"/>
<polygon fill="midnightblue" stroke="midnightblue" points="39.1336,-93.0695 36.6534,-103.37 45.0157,-96.8644 39.1336,-93.0695"/>
</g>
<!-- Node2&#45;&gt;Node3 -->
<g id="edge2" class="edge"><title>Node2&#45;&gt;Node3</title>
<path fill="none" stroke="midnightblue" d="M304.902,-196.824C314.649,-195.987 324.486,-195.143 334.138,-194.314"/>
<polygon fill="midnightblue" stroke="midnightblue" points="304.453,-193.349 294.789,-197.692 305.052,-200.324 304.453,-193.349"/>
</g>
<!-- Node4 -->
<g id="node4" class="node"><title>Node4</title>
<g id="a_node4"><a xlink:href="../../dc/d04/classppm__java_1_1backend_1_1module_1_1__deprecated__ppm_1_1_t_node_p_p_m_processor.html#a310a2f2cdbda46d8166b50e45943e7e4" target="_top" xlink:title="Receive an event with no parameter. ">
<polygon fill="white" stroke="black" points="566.5,-165.5 566.5,-206.5 761.5,-206.5 761.5,-165.5 566.5,-165.5"/>
<text text-anchor="start" x="574.5" y="-194.5" font-family="Helvetica,sans-Serif" font-size="10.00">ppm_java.backend.module.</text>
<text text-anchor="start" x="574.5" y="-183.5" font-family="Helvetica,sans-Serif" font-size="10.00">_deprecated_ppm.TNodePPMProcessor.</text>
<text text-anchor="middle" x="664" y="-172.5" font-family="Helvetica,sans-Serif" font-size="10.00">OnEvent</text>
</a>
</g>
</g>
<!-- Node3&#45;&gt;Node4 -->
<g id="edge3" class="edge"><title>Node3&#45;&gt;Node4</title>
<path fill="none" stroke="midnightblue" d="M539.577,-186C548.501,-186 557.493,-186 566.337,-186"/>
<polygon fill="midnightblue" stroke="midnightblue" points="539.541,-182.5 529.541,-186 539.541,-189.5 539.541,-182.5"/>
</g>
<!-- Node6 -->
<g id="node6" class="node"><title>Node6</title>
<g id="a_node6"><a xlink:href="../../de/db8/classppm__java_1_1backend_1_1module_1_1pump_1_1_t_node_pump.html#a310a2f2cdbda46d8166b50e45943e7e4" target="_top" xlink:title="Receive an event with no parameter. ">
<polygon fill="white" stroke="black" points="350.5,-98 350.5,-128 513.5,-128 513.5,-98 350.5,-98"/>
<text text-anchor="start" x="358.5" y="-116" font-family="Helvetica,sans-Serif" font-size="10.00">ppm_java.backend.module.pump.</text>
<text text-anchor="middle" x="432" y="-105" font-family="Helvetica,sans-Serif" font-size="10.00">TNodePump.OnEvent</text>
</a>
</g>
</g>
<!-- Node5&#45;&gt;Node6 -->
<g id="edge5" class="edge"><title>Node5&#45;&gt;Node6</title>
<path fill="none" stroke="midnightblue" d="M288.727,-113C309.094,-113 330.568,-113 350.485,-113"/>
<polygon fill="midnightblue" stroke="midnightblue" points="288.512,-109.5 278.512,-113 288.512,-116.5 288.512,-109.5"/>
</g>
<!-- Node8 -->
<g id="node8" class="node"><title>Node8</title>
<g id="a_node8"><a xlink:href="../../dc/da9/classppm__java_1_1backend_1_1module_1_1jackd_1_1_t_audio_context___jack_d.html#af4cc5a6da7617be29646351c30a34e69" target="_top" xlink:title="ppm_java.backend.module.jackd.\lTAudioContext_JackD.process">
<polygon fill="white" stroke="black" points="351,-49 351,-79 513,-79 513,-49 351,-49"/>
<text text-anchor="start" x="359" y="-67" font-family="Helvetica,sans-Serif" font-size="10.00">ppm_java.backend.module.jackd.</text>
<text text-anchor="middle" x="432" y="-56" font-family="Helvetica,sans-Serif" font-size="10.00">TAudioContext_JackD.process</text>
</a>
</g>
</g>
<!-- Node7&#45;&gt;Node8 -->
<g id="edge8" class="edge"><title>Node7&#45;&gt;Node8</title>
<path fill="none" stroke="midnightblue" d="M301.104,-64C317.819,-64 334.907,-64 350.966,-64"/>
<polygon fill="midnightblue" stroke="midnightblue" points="300.757,-60.5001 290.757,-64 300.757,-67.5001 300.757,-60.5001"/>
</g>
</g>
</svg>
        <g id="navigator" transform="translate(0 0)" fill="#404254">
                <rect fill="#f2f5e9" fill-opacity="0.5" stroke="#606060" stroke-width=".5" x="0" y="0" width="60" height="60"/>
                <use id="zoomplus" xlink:href="#zoomPlus" x="17" y="9" onmousedown="handleZoom(evt,'in')"/>
                <use id="zoomminus" xlink:href="#zoomMin" x="42" y="9" onmousedown="handleZoom(evt,'out')"/>
                <use id="reset" xlink:href="#resetDef" x="30" y="36" onmousedown="handleReset()"/>
                <g id="arrowUp" xlink:href="#dirArrow" transform="translate(30 24)" onmousedown="handlePan(0,-1)">
                  <use xlink:href="#rim" fill="#404040">
                        <set attributeName="fill" to="#808080" begin="arrowUp.mouseover" end="arrowUp.mouseout"/>
                  </use>
                  <path fill="none" stroke="white" stroke-width="1.5" d="M0,-3.0v7 M-2.5,-0.5L0,-3.0L2.5,-0.5"/>
                </g>
                <g id="arrowRight" xlink:href="#dirArrow" transform="rotate(90) translate(36 -43)" onmousedown="handlePan(1,0)">
                  <use xlink:href="#rim" fill="#404040">
                        <set attributeName="fill" to="#808080" begin="arrowRight.mouseover" end="arrowRight.mouseout"/>
                  </use>
                  <path fill="none" stroke="white" stroke-width="1.5" d="M0,-3.0v7 M-2.5,-0.5L0,-3.0L2.5,-0.5"/>
                </g>
                <g id="arrowDown" xlink:href="#dirArrow" transform="rotate(180) translate(-30 -48)" onmousedown="handlePan(0,1)">
                  <use xlink:href="#rim" fill="#404040">
                        <set attributeName="fill" to="#808080" begin="arrowDown.mouseover" end="arrowDown.mouseout"/>
                  </use>
                  <path fill="none" stroke="white" stroke-width="1.5" d="M0,-3.0v7 M-2.5,-0.5L0,-3.0L2.5,-0.5"/>
                </g>
                <g id="arrowLeft" xlink:href="#dirArrow" transform="rotate(270) translate(-36 17)" onmousedown="handlePan(-1,0)">
                  <use xlink:href="#rim" fill="#404040">
                        <set attributeName="fill" to="#808080" begin="arrowLeft.mouseover" end="arrowLeft.mouseout"/>
                  </use>
                  <path fill="none" stroke="white" stroke-width="1.5" d="M0,-3.0v7 M-2.5,-0.5L0,-3.0L2.5,-0.5"/>
                </g>
        </g>
        <svg viewBox="0 0 15 15" width="100%" height="30px" preserveAspectRatio="xMaxYMin meet">
         <g id="arrow_out" transform="scale(0.3 0.3)">
          <a xlink:href="classppm__java_1_1typelib_1_1_v_audio_processor_a5bfd065f6711c094469beafa8b649b71_icgraph_org.svg" target="_base">
           <rect id="button" ry="5" rx="5" y="6" x="6" height="38" width="38"
                fill="#f2f5e9" fill-opacity="0.5" stroke="#606060" stroke-width="1.0"/>
           <path id="arrow"
             d="M 11.500037,31.436501 C 11.940474,20.09759 22.043105,11.32322 32.158766,21.979434 L 37.068811,17.246167 C 37.068811,17.246167 37.088388,32 37.088388,32 L 22.160133,31.978069 C 22.160133,31.978069 26.997745,27.140456 26.997745,27.140456 C 18.528582,18.264221 13.291696,25.230495 11.500037,31.436501 z"
             style="fill:#404040;"/>
          </a>
         </g>
        </svg>
</svg>
