<?xml version="1.0" encoding="UTF-8" standalone="no"?>
<!DOCTYPE svg PUBLIC "-//W3C//DTD SVG 1.1//EN"
 "http://www.w3.org/Graphics/SVG/1.1/DTD/svg11.dtd">
<!-- Generated by graphviz version 2.36.0 (20140111.2315)
 -->
<!-- Title: AddPortIn Pages: 1 -->
<!--zoomable 461 -->
<svg id="main" version="1.1" xmlns="http://www.w3.org/2000/svg" xmlns:xlink="http://www.w3.org/1999/xlink" xml:space="preserve" onload="init(evt)">
<style type="text/css"><![CDATA[
.edge:hover path { stroke: red; }
.edge:hover polygon { stroke: red; fill: red; }
]]></style>
<script type="text/javascript"><![CDATA[
var edges = document.getElementsByTagName('g');
if (edges && edges.length) {
  for (var i=0;i<edges.length;i++) {
    if (edges[i].id.substr(0,4)=='edge') {
      edges[i].setAttribute('class','edge');
    }
  }
}
]]></script>
        <defs>
                <circle id="rim" cx="0" cy="0" r="7"/>
                <circle id="rim2" cx="0" cy="0" r="3.5"/>
                <g id="zoomPlus">
                        <use xlink:href="#rim" fill="#404040">
                                <set attributeName="fill" to="#808080" begin="zoomplus.mouseover" end="zoomplus.mouseout"/>
                        </use>
                        <path d="M-4,0h8M0,-4v8" fill="none" stroke="white" stroke-width="1.5" pointer-events="none"/>
                </g>
                <g id="zoomMin">
                        <use xlink:href="#rim" fill="#404040">
                                <set attributeName="fill" to="#808080" begin="zoomminus.mouseover" end="zoomminus.mouseout"/>
                        </use>
                        <path d="M-4,0h8" fill="none" stroke="white" stroke-width="1.5" pointer-events="none"/>
                </g>
                <g id="dirArrow">
                        <path fill="none" stroke="white" stroke-width="1.5" d="M0,-3.0v7 M-2.5,-0.5L0,-3.0L2.5,-0.5"/>
                </g>
               <g id="resetDef">
                       <use xlink:href="#rim2" fill="#404040">
                               <set attributeName="fill" to="#808080" begin="reset.mouseover" end="reset.mouseout"/>
                       </use>
               </g>
        </defs>

<script type="text/javascript">
var viewWidth = 310;
var viewHeight = 461;
var sectionId = 'dynsection-2';
</script>
<script xlink:href="../../svgpan.js"/>
<svg id="graph" class="graph">
<g id="viewport">
<title>AddPortIn</title>
<polygon fill="white" stroke="none" points="-4,4 -4,-457 306,-457 306,4 -4,4"/>
<!-- Node1 -->
<g id="node1" class="node"><title>Node1</title>
<polygon fill="#bfbfbf" stroke="black" points="0,-221.5 0,-240.5 60,-240.5 60,-221.5 0,-221.5"/>
<text text-anchor="middle" x="30" y="-228.5" font-family="Helvetica,sans-Serif" font-size="10.00">AddPortIn</text>
</g>
<!-- Node2 -->
<g id="node2" class="node"><title>Node2</title>
<g id="a_node2"><a xlink:href="../../da/da6/classppm__java_1_1backend_1_1module_1_1peak__estimator_1_1_t_node_peak_estimator.html#a37e105f6d7c8e5d2286f29179d25e305" target="_top" xlink:title="ppm_java.backend.module.peak\l_estimator.TNodePeakEstimator.Create\lPort_In">
<polygon fill="white" stroke="black" points="103.5,-411.5 103.5,-452.5 294.5,-452.5 294.5,-411.5 103.5,-411.5"/>
<text text-anchor="start" x="111.5" y="-440.5" font-family="Helvetica,sans-Serif" font-size="10.00">ppm_java.backend.module.peak</text>
<text text-anchor="start" x="111.5" y="-429.5" font-family="Helvetica,sans-Serif" font-size="10.00">_estimator.TNodePeakEstimator.Create</text>
<text text-anchor="middle" x="199" y="-418.5" font-family="Helvetica,sans-Serif" font-size="10.00">Port_In</text>
</a>
</g>
</g>
<!-- Node1&#45;&gt;Node2 -->
<g id="edge1" class="edge"><title>Node1&#45;&gt;Node2</title>
<path fill="none" stroke="midnightblue" d="M32.8754,-250.842C37.3016,-286.361 51.6237,-360.924 96,-402 99.7929,-405.511 103.976,-408.613 108.419,-411.353"/>
<polygon fill="midnightblue" stroke="midnightblue" points="36.3399,-250.328 31.7605,-240.774 29.3825,-251.098 36.3399,-250.328"/>
</g>
<!-- Node3 -->
<g id="node3" class="node"><title>Node3</title>
<g id="a_node3"><a xlink:href="../../d2/dd7/classppm__java_1_1frontend_1_1gui_1_1lineargauge_1_1_t_g_u_i_linear_gauge___surrogate.html#a37e105f6d7c8e5d2286f29179d25e305" target="_top" xlink:title="ppm_java.frontend.gui.lineargauge.\lTGUILinearGauge_Surrogate.CreatePort_In">
<polygon fill="white" stroke="black" points="96,-363 96,-393 302,-393 302,-363 96,-363"/>
<text text-anchor="start" x="104" y="-381" font-family="Helvetica,sans-Serif" font-size="10.00">ppm_java.frontend.gui.lineargauge.</text>
<text text-anchor="middle" x="199" y="-370" font-family="Helvetica,sans-Serif" font-size="10.00">TGUILinearGauge_Surrogate.CreatePort_In</text>
</a>
</g>
</g>
<!-- Node1&#45;&gt;Node3 -->
<g id="edge2" class="edge"><title>Node1&#45;&gt;Node3</title>
<path fill="none" stroke="midnightblue" d="M35.9767,-250.582C43.9377,-277.812 62.1948,-326.72 96,-353 100.966,-356.861 106.446,-360.135 112.211,-362.91"/>
<polygon fill="midnightblue" stroke="midnightblue" points="39.2803,-249.395 33.2587,-240.677 32.5299,-251.247 39.2803,-249.395"/>
</g>
<!-- Node4 -->
<g id="node4" class="node"><title>Node4</title>
<g id="a_node4"><a xlink:href="../../dd/db2/classppm__java_1_1backend_1_1module_1_1converter__db_1_1_t_node_converter_db.html#a37e105f6d7c8e5d2286f29179d25e305" target="_top" xlink:title="ppm_java.backend.module.converter\l_db.TNodeConverterDb.CreatePort_In">
<polygon fill="white" stroke="black" points="107,-314 107,-344 291,-344 291,-314 107,-314"/>
<text text-anchor="start" x="115" y="-332" font-family="Helvetica,sans-Serif" font-size="10.00">ppm_java.backend.module.converter</text>
<text text-anchor="middle" x="199" y="-321" font-family="Helvetica,sans-Serif" font-size="10.00">_db.TNodeConverterDb.CreatePort_In</text>
</a>
</g>
</g>
<!-- Node1&#45;&gt;Node4 -->
<g id="edge3" class="edge"><title>Node1&#45;&gt;Node4</title>
<path fill="none" stroke="midnightblue" d="M42.4168,-249.164C53.9134,-265.936 73.183,-290.266 96,-304 102.483,-307.902 109.544,-311.196 116.826,-313.976"/>
<polygon fill="midnightblue" stroke="midnightblue" points="45.2857,-247.157 36.8563,-240.738 39.4433,-251.012 45.2857,-247.157"/>
</g>
<!-- Node5 -->
<g id="node5" class="node"><title>Node5</title>
<g id="a_node5"><a xlink:href="../../d5/d13/classppm__java_1_1frontend_1_1gui_1_1needle_1_1_t_g_u_i_needle___surrogate.html#a37e105f6d7c8e5d2286f29179d25e305" target="_top" xlink:title="ppm_java.frontend.gui.needle.\lTGUINeedle_Surrogate.CreatePort_In">
<polygon fill="white" stroke="black" points="108,-265 108,-295 290,-295 290,-265 108,-265"/>
<text text-anchor="start" x="116" y="-283" font-family="Helvetica,sans-Serif" font-size="10.00">ppm_java.frontend.gui.needle.</text>
<text text-anchor="middle" x="199" y="-272" font-family="Helvetica,sans-Serif" font-size="10.00">TGUINeedle_Surrogate.CreatePort_In</text>
</a>
</g>
</g>
<!-- Node1&#45;&gt;Node5 -->
<g id="edge4" class="edge"><title>Node1&#45;&gt;Node5</title>
<path fill="none" stroke="midnightblue" d="M64.4889,-244.19C74.5405,-247.924 85.6476,-251.831 96,-255 107.506,-258.522 119.86,-261.89 131.858,-264.948"/>
<polygon fill="midnightblue" stroke="midnightblue" points="65.4476,-240.81 54.8561,-240.546 62.9712,-247.358 65.4476,-240.81"/>
</g>
<!-- Node6 -->
<g id="node6" class="node"><title>Node6</title>
<g id="a_node6"><a xlink:href="../../dc/de5/classppm__java_1_1frontend_1_1console_1_1text_1_1_t_console___text_out.html#a37e105f6d7c8e5d2286f29179d25e305" target="_top" xlink:title="ppm_java.frontend.console.text.\lTConsole_TextOut.CreatePort_In">
<polygon fill="white" stroke="black" points="117.5,-216 117.5,-246 280.5,-246 280.5,-216 117.5,-216"/>
<text text-anchor="start" x="125.5" y="-234" font-family="Helvetica,sans-Serif" font-size="10.00">ppm_java.frontend.console.text.</text>
<text text-anchor="middle" x="199" y="-223" font-family="Helvetica,sans-Serif" font-size="10.00">TConsole_TextOut.CreatePort_In</text>
</a>
</g>
</g>
<!-- Node1&#45;&gt;Node6 -->
<g id="edge5" class="edge"><title>Node1&#45;&gt;Node6</title>
<path fill="none" stroke="midnightblue" d="M70.3686,-231C84.4652,-231 100.916,-231 117.229,-231"/>
<polygon fill="midnightblue" stroke="midnightblue" points="70.0892,-227.5 60.0892,-231 70.0891,-234.5 70.0892,-227.5"/>
</g>
<!-- Node7 -->
<g id="node7" class="node"><title>Node7</title>
<g id="a_node7"><a xlink:href="../../d2/d99/classppm__java_1_1backend_1_1module_1_1integrator_1_1_t_node_integrator___p_p_m_ballistics.html#a37e105f6d7c8e5d2286f29179d25e305" target="_top" xlink:title="ppm_java.backend.module.integrator.\lTNodeIntegrator_PPMBallistics.Create\lPort_In">
<polygon fill="white" stroke="black" points="106,-156.5 106,-197.5 292,-197.5 292,-156.5 106,-156.5"/>
<text text-anchor="start" x="114" y="-185.5" font-family="Helvetica,sans-Serif" font-size="10.00">ppm_java.backend.module.integrator.</text>
<text text-anchor="start" x="114" y="-174.5" font-family="Helvetica,sans-Serif" font-size="10.00">TNodeIntegrator_PPMBallistics.Create</text>
<text text-anchor="middle" x="199" y="-163.5" font-family="Helvetica,sans-Serif" font-size="10.00">Port_In</text>
</a>
</g>
</g>
<!-- Node1&#45;&gt;Node7 -->
<g id="edge6" class="edge"><title>Node1&#45;&gt;Node7</title>
<path fill="none" stroke="midnightblue" d="M65.0872,-217.921C75.0072,-214.249 85.894,-210.348 96,-207 105.637,-203.808 115.841,-200.602 125.924,-197.537"/>
<polygon fill="midnightblue" stroke="midnightblue" points="63.6936,-214.705 55.5541,-221.488 66.1466,-221.262 63.6936,-214.705"/>
</g>
<!-- Node8 -->
<g id="node8" class="node"><title>Node8</title>
<g id="a_node8"><a xlink:href="../../de/db8/classppm__java_1_1backend_1_1module_1_1pump_1_1_t_node_pump.html#a37e105f6d7c8e5d2286f29179d25e305" target="_top" xlink:title="ppm_java.backend.module.pump.\lTNodePump.CreatePort_In">
<polygon fill="white" stroke="black" points="117.5,-108 117.5,-138 280.5,-138 280.5,-108 117.5,-108"/>
<text text-anchor="start" x="125.5" y="-126" font-family="Helvetica,sans-Serif" font-size="10.00">ppm_java.backend.module.pump.</text>
<text text-anchor="middle" x="199" y="-115" font-family="Helvetica,sans-Serif" font-size="10.00">TNodePump.CreatePort_In</text>
</a>
</g>
</g>
<!-- Node1&#45;&gt;Node8 -->
<g id="edge7" class="edge"><title>Node1&#45;&gt;Node8</title>
<path fill="none" stroke="midnightblue" d="M40.3952,-212.413C51.1633,-193.051 70.6448,-163.311 96,-147 102.579,-142.768 109.825,-139.28 117.33,-136.407"/>
<polygon fill="midnightblue" stroke="midnightblue" points="37.1852,-210.995 35.5735,-221.466 43.3636,-214.286 37.1852,-210.995"/>
</g>
<!-- Node9 -->
<g id="node9" class="node"><title>Node9</title>
<g id="a_node9"><a xlink:href="../../db/d79/classppm__java_1_1frontend_1_1console_1_1lineargauge_1_1_t_console___linear_gauge.html#a37e105f6d7c8e5d2286f29179d25e305" target="_top" xlink:title="ppm_java.frontend.console.lineargauge.\lTConsole_LinearGauge.CreatePort_In">
<polygon fill="white" stroke="black" points="104.5,-59 104.5,-89 293.5,-89 293.5,-59 104.5,-59"/>
<text text-anchor="start" x="112.5" y="-77" font-family="Helvetica,sans-Serif" font-size="10.00">ppm_java.frontend.console.lineargauge.</text>
<text text-anchor="middle" x="199" y="-66" font-family="Helvetica,sans-Serif" font-size="10.00">TConsole_LinearGauge.CreatePort_In</text>
</a>
</g>
</g>
<!-- Node1&#45;&gt;Node9 -->
<g id="edge8" class="edge"><title>Node1&#45;&gt;Node9</title>
<path fill="none" stroke="midnightblue" d="M35.0947,-211.48C42.2366,-182.417 59.8008,-128.081 96,-99 100.833,-95.1176 106.181,-91.8254 111.822,-89.0353"/>
<polygon fill="midnightblue" stroke="midnightblue" points="31.6721,-210.747 32.8507,-221.276 38.4953,-212.31 31.6721,-210.747"/>
</g>
<!-- Node10 -->
<g id="node10" class="node"><title>Node10</title>
<g id="a_node10"><a xlink:href="../../dc/d04/classppm__java_1_1backend_1_1module_1_1__deprecated__ppm_1_1_t_node_p_p_m_processor.html#a37e105f6d7c8e5d2286f29179d25e305" target="_top" xlink:title="ppm_java.backend.module.\l_deprecated_ppm.TNodePPMProcessor.\lCreatePort_In">
<polygon fill="white" stroke="black" points="101.5,0.5 101.5,-40.5 296.5,-40.5 296.5,0.5 101.5,0.5"/>
<text text-anchor="start" x="109.5" y="-28.5" font-family="Helvetica,sans-Serif" font-size="10.00">ppm_java.backend.module.</text>
<text text-anchor="start" x="109.5" y="-17.5" font-family="Helvetica,sans-Serif" font-size="10.00">_deprecated_ppm.TNodePPMProcessor.</text>
<text text-anchor="middle" x="199" y="-6.5" font-family="Helvetica,sans-Serif" font-size="10.00">CreatePort_In</text>
</a>
</g>
</g>
<!-- Node1&#45;&gt;Node10 -->
<g id="edge9" class="edge"><title>Node1&#45;&gt;Node10</title>
<path fill="none" stroke="midnightblue" d="M32.4039,-211.037C36.0999,-173.906 49.3288,-94.008 96,-50 99.7603,-46.4543 103.918,-43.3253 108.342,-40.5643"/>
<polygon fill="midnightblue" stroke="midnightblue" points="28.9082,-210.837 31.5364,-221.101 35.8824,-211.438 28.9082,-210.837"/>
</g>
</g>
</svg>
        <g id="navigator" transform="translate(0 0)" fill="#404254">
                <rect fill="#f2f5e9" fill-opacity="0.5" stroke="#606060" stroke-width=".5" x="0" y="0" width="60" height="60"/>
                <use id="zoomplus" xlink:href="#zoomPlus" x="17" y="9" onmousedown="handleZoom(evt,'in')"/>
                <use id="zoomminus" xlink:href="#zoomMin" x="42" y="9" onmousedown="handleZoom(evt,'out')"/>
                <use id="reset" xlink:href="#resetDef" x="30" y="36" onmousedown="handleReset()"/>
                <g id="arrowUp" xlink:href="#dirArrow" transform="translate(30 24)" onmousedown="handlePan(0,-1)">
                  <use xlink:href="#rim" fill="#404040">
                        <set attributeName="fill" to="#808080" begin="arrowUp.mouseover" end="arrowUp.mouseout"/>
                  </use>
                  <path fill="none" stroke="white" stroke-width="1.5" d="M0,-3.0v7 M-2.5,-0.5L0,-3.0L2.5,-0.5"/>
                </g>
                <g id="arrowRight" xlink:href="#dirArrow" transform="rotate(90) translate(36 -43)" onmousedown="handlePan(1,0)">
                  <use xlink:href="#rim" fill="#404040">
                        <set attributeName="fill" to="#808080" begin="arrowRight.mouseover" end="arrowRight.mouseout"/>
                  </use>
                  <path fill="none" stroke="white" stroke-width="1.5" d="M0,-3.0v7 M-2.5,-0.5L0,-3.0L2.5,-0.5"/>
                </g>
                <g id="arrowDown" xlink:href="#dirArrow" transform="rotate(180) translate(-30 -48)" onmousedown="handlePan(0,1)">
                  <use xlink:href="#rim" fill="#404040">
                        <set attributeName="fill" to="#808080" begin="arrowDown.mouseover" end="arrowDown.mouseout"/>
                  </use>
                  <path fill="none" stroke="white" stroke-width="1.5" d="M0,-3.0v7 M-2.5,-0.5L0,-3.0L2.5,-0.5"/>
                </g>
                <g id="arrowLeft" xlink:href="#dirArrow" transform="rotate(270) translate(-36 17)" onmousedown="handlePan(-1,0)">
                  <use xlink:href="#rim" fill="#404040">
                        <set attributeName="fill" to="#808080" begin="arrowLeft.mouseover" end="arrowLeft.mouseout"/>
                  </use>
                  <path fill="none" stroke="white" stroke-width="1.5" d="M0,-3.0v7 M-2.5,-0.5L0,-3.0L2.5,-0.5"/>
                </g>
        </g>
        <svg viewBox="0 0 15 15" width="100%" height="30px" preserveAspectRatio="xMaxYMin meet">
         <g id="arrow_out" transform="scale(0.3 0.3)">
          <a xlink:href="classppm__java_1_1typelib_1_1_v_audio_processor_ae6ad41af4d37cd98828d850455948f4a_icgraph_org.svg" target="_base">
           <rect id="button" ry="5" rx="5" y="6" x="6" height="38" width="38"
                fill="#f2f5e9" fill-opacity="0.5" stroke="#606060" stroke-width="1.0"/>
           <path id="arrow"
             d="M 11.500037,31.436501 C 11.940474,20.09759 22.043105,11.32322 32.158766,21.979434 L 37.068811,17.246167 C 37.068811,17.246167 37.088388,32 37.088388,32 L 22.160133,31.978069 C 22.160133,31.978069 26.997745,27.140456 26.997745,27.140456 C 18.528582,18.264221 13.291696,25.230495 11.500037,31.436501 z"
             style="fill:#404040;"/>
          </a>
         </g>
        </svg>
</svg>
