<?xml version="1.0" encoding="UTF-8" standalone="no"?>
<!DOCTYPE svg PUBLIC "-//W3C//DTD SVG 1.1//EN"
 "http://www.w3.org/Graphics/SVG/1.1/DTD/svg11.dtd">
<!-- Generated by graphviz version 2.36.0 (20140111.2315)
 -->
<!-- Title: GetPortOut Pages: 1 -->
<svg width="544pt" height="352pt"
 viewBox="0.00 0.00 544.00 352.00" xmlns="http://www.w3.org/2000/svg" xmlns:xlink="http://www.w3.org/1999/xlink">
<g id="graph0" class="graph" transform="scale(1 1) rotate(0) translate(4 348)">
<title>GetPortOut</title>
<polygon fill="white" stroke="none" points="-4,4 -4,-348 540,-348 540,4 -4,4"/>
<!-- Node1 -->
<g id="node1" class="node"><title>Node1</title>
<polygon fill="#bfbfbf" stroke="black" points="0,-162.5 0,-181.5 66,-181.5 66,-162.5 0,-162.5"/>
<text text-anchor="middle" x="33" y="-169.5" font-family="Helvetica,sans-Serif" font-size="10.00">GetPortOut</text>
</g>
<!-- Node2 -->
<g id="node2" class="node"><title>Node2</title>
<g id="a_node2"><a xlink:href="../../de/db8/classppm__java_1_1backend_1_1module_1_1pump_1_1_t_node_pump.html#ae229ebda3ceb1f6b51687126a833aa40" target="_top" xlink:title="Initializes a few objects and sets the initial value for fTLast. ">
<polygon fill="white" stroke="black" points="121.5,-314 121.5,-344 284.5,-344 284.5,-314 121.5,-314"/>
<text text-anchor="start" x="129.5" y="-332" font-family="Helvetica,sans-Serif" font-size="10.00">ppm_java.backend.module.pump.</text>
<text text-anchor="middle" x="203" y="-321" font-family="Helvetica,sans-Serif" font-size="10.00">TNodePump._Initialize</text>
</a>
</g>
</g>
<!-- Node1&#45;&gt;Node2 -->
<g id="edge1" class="edge"><title>Node1&#45;&gt;Node2</title>
<path fill="none" stroke="midnightblue" d="M38.5715,-191.515C46.417,-220.572 65.2713,-274.899 102,-304 107.751,-308.556 114.225,-312.295 121.042,-315.36"/>
<polygon fill="midnightblue" stroke="midnightblue" points="41.9389,-190.555 36.0893,-181.722 35.1535,-192.275 41.9389,-190.555"/>
</g>
<!-- Node4 -->
<g id="node4" class="node"><title>Node4</title>
<g id="a_node4"><a xlink:href="../../dc/d04/classppm__java_1_1backend_1_1module_1_1__deprecated__ppm_1_1_t_node_p_p_m_processor.html#a9170c532c1d0021b723f0285c672a6cd" target="_top" xlink:title="The central computation piece of the PPM level meter. ">
<polygon fill="white" stroke="black" points="105.5,-254.5 105.5,-295.5 300.5,-295.5 300.5,-254.5 105.5,-254.5"/>
<text text-anchor="start" x="113.5" y="-283.5" font-family="Helvetica,sans-Serif" font-size="10.00">ppm_java.backend.module.</text>
<text text-anchor="start" x="113.5" y="-272.5" font-family="Helvetica,sans-Serif" font-size="10.00">_deprecated_ppm.TNodePPMProcessor.</text>
<text text-anchor="middle" x="203" y="-261.5" font-family="Helvetica,sans-Serif" font-size="10.00">_ProcessChunk</text>
</a>
</g>
</g>
<!-- Node1&#45;&gt;Node4 -->
<g id="edge3" class="edge"><title>Node1&#45;&gt;Node4</title>
<path fill="none" stroke="midnightblue" d="M46.2962,-189.887C58.5782,-206.46 78.9145,-230.65 102,-245 107.696,-248.54 113.834,-251.684 120.168,-254.472"/>
<polygon fill="midnightblue" stroke="midnightblue" points="49.007,-187.661 40.3352,-181.575 43.3185,-191.741 49.007,-187.661"/>
</g>
<!-- Node6 -->
<g id="node6" class="node"><title>Node6</title>
<g id="a_node6"><a xlink:href="../../dc/da9/classppm__java_1_1backend_1_1module_1_1jackd_1_1_t_audio_context___jack_d.html#a4856e0278c53e540fa90916754598360" target="_top" xlink:title="Processes data ready to be retrieved from the Jack driver i.e. ">
<polygon fill="white" stroke="black" points="106,-206 106,-236 300,-236 300,-206 106,-206"/>
<text text-anchor="start" x="114" y="-224" font-family="Helvetica,sans-Serif" font-size="10.00">ppm_java.backend.module.jackd.</text>
<text text-anchor="middle" x="203" y="-213" font-family="Helvetica,sans-Serif" font-size="10.00">TAudioContext_JackD._ProcessOutputs</text>
</a>
</g>
</g>
<!-- Node1&#45;&gt;Node6 -->
<g id="edge5" class="edge"><title>Node1&#45;&gt;Node6</title>
<path fill="none" stroke="midnightblue" d="M69.0222,-185.071C79.5559,-188.81 91.1885,-192.749 102,-196 113.568,-199.479 125.987,-202.861 138.006,-205.956"/>
<polygon fill="midnightblue" stroke="midnightblue" points="69.9168,-181.673 59.3224,-181.577 67.5445,-188.259 69.9168,-181.673"/>
</g>
<!-- Node8 -->
<g id="node8" class="node"><title>Node8</title>
<g id="a_node8"><a xlink:href="../../d3/df6/classppm__java_1_1backend_1_1module_1_1jackd_1_1_t_audio_context___jack_d___stats.html#aeca6a90af8e17967096f2bfd719ceb45" target="_top" xlink:title="ppm_java.backend.module.jackd.\lTAudioContext_JackD_Stats.GetDumpStr">
<polygon fill="white" stroke="black" points="102,-157 102,-187 304,-187 304,-157 102,-157"/>
<text text-anchor="start" x="110" y="-175" font-family="Helvetica,sans-Serif" font-size="10.00">ppm_java.backend.module.jackd.</text>
<text text-anchor="middle" x="203" y="-164" font-family="Helvetica,sans-Serif" font-size="10.00">TAudioContext_JackD_Stats.GetDumpStr</text>
</a>
</g>
</g>
<!-- Node1&#45;&gt;Node8 -->
<g id="edge7" class="edge"><title>Node1&#45;&gt;Node8</title>
<path fill="none" stroke="midnightblue" d="M76.4323,-172C84.3878,-172 93.0083,-172 101.878,-172"/>
<polygon fill="midnightblue" stroke="midnightblue" points="76.3921,-168.5 66.3921,-172 76.3921,-175.5 76.3921,-168.5"/>
</g>
<!-- Node9 -->
<g id="node9" class="node"><title>Node9</title>
<g id="a_node9"><a xlink:href="../../dd/db2/classppm__java_1_1backend_1_1module_1_1converter__db_1_1_t_node_converter_db.html#a37022893e0f0a46838e14f2ab39a651b" target="_top" xlink:title="Receives a sample value from the associated endpoint and converts it to its equivalent value in dB...">
<polygon fill="white" stroke="black" points="115,-108 115,-138 291,-138 291,-108 115,-108"/>
<text text-anchor="start" x="123" y="-126" font-family="Helvetica,sans-Serif" font-size="10.00">ppm_java.backend.module.converter</text>
<text text-anchor="middle" x="203" y="-115" font-family="Helvetica,sans-Serif" font-size="10.00">_db.TNodeConverterDb.Receive</text>
</a>
</g>
</g>
<!-- Node1&#45;&gt;Node9 -->
<g id="edge8" class="edge"><title>Node1&#45;&gt;Node9</title>
<path fill="none" stroke="midnightblue" d="M69.0222,-158.929C79.5559,-155.19 91.1885,-151.251 102,-148 113.568,-144.521 125.987,-141.139 138.006,-138.044"/>
<polygon fill="midnightblue" stroke="midnightblue" points="67.5445,-155.741 59.3224,-162.423 69.9168,-162.327 67.5445,-155.741"/>
</g>
<!-- Node10 -->
<g id="node10" class="node"><title>Node10</title>
<g id="a_node10"><a xlink:href="../../da/da6/classppm__java_1_1backend_1_1module_1_1peak__estimator_1_1_t_node_peak_estimator.html#a3b20eb13e962f1250920f95831851896" target="_top" xlink:title="Receives a sample chunk, finds the peak value and pushes its absolute value to the output port...">
<polygon fill="white" stroke="black" points="104,-48.5 104,-89.5 302,-89.5 302,-48.5 104,-48.5"/>
<text text-anchor="start" x="112" y="-77.5" font-family="Helvetica,sans-Serif" font-size="10.00">ppm_java.backend.module.peak</text>
<text text-anchor="start" x="112" y="-66.5" font-family="Helvetica,sans-Serif" font-size="10.00">_estimator.TNodePeakEstimator.Receive</text>
<text text-anchor="middle" x="203" y="-55.5" font-family="Helvetica,sans-Serif" font-size="10.00">Packet</text>
</a>
</g>
</g>
<!-- Node1&#45;&gt;Node10 -->
<g id="edge9" class="edge"><title>Node1&#45;&gt;Node10</title>
<path fill="none" stroke="midnightblue" d="M46.2962,-154.113C58.5782,-137.54 78.9145,-113.35 102,-99 107.696,-95.4595 113.834,-92.3158 120.168,-89.5281"/>
<polygon fill="midnightblue" stroke="midnightblue" points="43.3185,-152.259 40.3352,-162.425 49.007,-156.339 43.3185,-152.259"/>
</g>
<!-- Node11 -->
<g id="node11" class="node"><title>Node11</title>
<g id="a_node11"><a xlink:href="../../d2/d99/classppm__java_1_1backend_1_1module_1_1integrator_1_1_t_node_integrator___p_p_m_ballistics.html#af71bc3fdb5d34ae23f79b9ec7f627481" target="_top" xlink:title="Updates input value, then recomputes output value to follow with the set rise/fall ballistics of a PP...">
<polygon fill="white" stroke="black" points="109,-0 109,-30 297,-30 297,-0 109,-0"/>
<text text-anchor="start" x="117" y="-18" font-family="Helvetica,sans-Serif" font-size="10.00">ppm_java.backend.module.integrator.</text>
<text text-anchor="middle" x="203" y="-7" font-family="Helvetica,sans-Serif" font-size="10.00">TNodeIntegrator_PPMBallistics.SetRef</text>
</a>
</g>
</g>
<!-- Node1&#45;&gt;Node11 -->
<g id="edge10" class="edge"><title>Node1&#45;&gt;Node11</title>
<path fill="none" stroke="midnightblue" d="M38.4925,-152.296C46.2354,-122.965 64.9582,-68.1574 102,-39 106.349,-35.5766 111.111,-32.6304 116.123,-30.0961"/>
<polygon fill="midnightblue" stroke="midnightblue" points="35.0506,-151.635 36.0473,-162.183 41.8458,-153.316 35.0506,-151.635"/>
</g>
<!-- Node3 -->
<g id="node3" class="node"><title>Node3</title>
<g id="a_node3"><a xlink:href="../../de/db8/classppm__java_1_1backend_1_1module_1_1pump_1_1_t_node_pump.html#a310a2f2cdbda46d8166b50e45943e7e4" target="_top" xlink:title="Receive an event with no parameter. ">
<polygon fill="white" stroke="black" points="356.5,-314 356.5,-344 519.5,-344 519.5,-314 356.5,-314"/>
<text text-anchor="start" x="364.5" y="-332" font-family="Helvetica,sans-Serif" font-size="10.00">ppm_java.backend.module.pump.</text>
<text text-anchor="middle" x="438" y="-321" font-family="Helvetica,sans-Serif" font-size="10.00">TNodePump.OnEvent</text>
</a>
</g>
</g>
<!-- Node2&#45;&gt;Node3 -->
<g id="edge2" class="edge"><title>Node2&#45;&gt;Node3</title>
<path fill="none" stroke="midnightblue" d="M294.727,-329C315.094,-329 336.568,-329 356.485,-329"/>
<polygon fill="midnightblue" stroke="midnightblue" points="294.512,-325.5 284.512,-329 294.512,-332.5 294.512,-325.5"/>
</g>
<!-- Node5 -->
<g id="node5" class="node"><title>Node5</title>
<g id="a_node5"><a xlink:href="../../dc/d04/classppm__java_1_1backend_1_1module_1_1__deprecated__ppm_1_1_t_node_p_p_m_processor.html#a310a2f2cdbda46d8166b50e45943e7e4" target="_top" xlink:title="Receive an event with no parameter. ">
<polygon fill="white" stroke="black" points="340.5,-254.5 340.5,-295.5 535.5,-295.5 535.5,-254.5 340.5,-254.5"/>
<text text-anchor="start" x="348.5" y="-283.5" font-family="Helvetica,sans-Serif" font-size="10.00">ppm_java.backend.module.</text>
<text text-anchor="start" x="348.5" y="-272.5" font-family="Helvetica,sans-Serif" font-size="10.00">_deprecated_ppm.TNodePPMProcessor.</text>
<text text-anchor="middle" x="438" y="-261.5" font-family="Helvetica,sans-Serif" font-size="10.00">OnEvent</text>
</a>
</g>
</g>
<!-- Node4&#45;&gt;Node5 -->
<g id="edge4" class="edge"><title>Node4&#45;&gt;Node5</title>
<path fill="none" stroke="midnightblue" d="M310.902,-275C320.649,-275 330.486,-275 340.138,-275"/>
<polygon fill="midnightblue" stroke="midnightblue" points="310.789,-271.5 300.789,-275 310.789,-278.5 310.789,-271.5"/>
</g>
<!-- Node7 -->
<g id="node7" class="node"><title>Node7</title>
<g id="a_node7"><a xlink:href="../../dc/da9/classppm__java_1_1backend_1_1module_1_1jackd_1_1_t_audio_context___jack_d.html#af4cc5a6da7617be29646351c30a34e69" target="_top" xlink:title="ppm_java.backend.module.jackd.\lTAudioContext_JackD.process">
<polygon fill="white" stroke="black" points="357,-206 357,-236 519,-236 519,-206 357,-206"/>
<text text-anchor="start" x="365" y="-224" font-family="Helvetica,sans-Serif" font-size="10.00">ppm_java.backend.module.jackd.</text>
<text text-anchor="middle" x="438" y="-213" font-family="Helvetica,sans-Serif" font-size="10.00">TAudioContext_JackD.process</text>
</a>
</g>
</g>
<!-- Node6&#45;&gt;Node7 -->
<g id="edge6" class="edge"><title>Node6&#45;&gt;Node7</title>
<path fill="none" stroke="midnightblue" d="M310.31,-221C325.897,-221 341.728,-221 356.677,-221"/>
<polygon fill="midnightblue" stroke="midnightblue" points="310.115,-217.5 300.115,-221 310.115,-224.5 310.115,-217.5"/>
</g>
</g>
</svg>
