<?xml version="1.0" encoding="UTF-8" standalone="no"?>
<!DOCTYPE svg PUBLIC "-//W3C//DTD SVG 1.1//EN"
 "http://www.w3.org/Graphics/SVG/1.1/DTD/svg11.dtd">
<!-- Generated by graphviz version 2.36.0 (20140111.2315)
 -->
<!-- Title: _Init Pages: 1 -->
<svg width="198pt" height="28pt"
 viewBox="0.00 0.00 198.00 28.00" xmlns="http://www.w3.org/2000/svg" xmlns:xlink="http://www.w3.org/1999/xlink">
<g id="graph0" class="graph" transform="scale(1 1) rotate(0) translate(4 24)">
<title>_Init</title>
<polygon fill="white" stroke="none" points="-4,4 -4,-24 194,-24 194,4 -4,4"/>
<!-- Node1 -->
<g id="node1" class="node"><title>Node1</title>
<polygon fill="#bfbfbf" stroke="black" points="0.5,-0.5 0.5,-19.5 35.5,-19.5 35.5,-0.5 0.5,-0.5"/>
<text text-anchor="middle" x="18" y="-7.5" font-family="Helvetica,sans-Serif" font-size="10.00">_Init</text>
</g>
<!-- Node2 -->
<g id="node2" class="node"><title>Node2</title>
<g id="a_node2"><a xlink:href="../../da/dd4/classppm__java_1_1_t_main.html#a8e318939c3e363b0640af8624c89489a" target="_top" xlink:title="cTor. ">
<polygon fill="white" stroke="black" points="72,-0.5 72,-19.5 116,-19.5 116,-0.5 72,-0.5"/>
<text text-anchor="middle" x="94" y="-7.5" font-family="Helvetica,sans-Serif" font-size="10.00">TMain</text>
</a>
</g>
</g>
<!-- Node1&#45;&gt;Node2 -->
<g id="edge1" class="edge"><title>Node1&#45;&gt;Node2</title>
<path fill="none" stroke="midnightblue" d="M45.9911,-10C54.4819,-10 63.7331,-10 71.7651,-10"/>
<polygon fill="midnightblue" stroke="midnightblue" points="45.7918,-6.5001 35.7917,-10 45.7917,-13.5001 45.7918,-6.5001"/>
</g>
<!-- Node3 -->
<g id="node3" class="node"><title>Node3</title>
<g id="a_node3"><a xlink:href="../../da/dd4/classppm__java_1_1_t_main.html#a8b260eecbaabcef8473fd87ada040682" target="_top" xlink:title="Application entry point. ">
<polygon fill="white" stroke="black" points="152,-0.5 152,-19.5 190,-19.5 190,-0.5 152,-0.5"/>
<text text-anchor="middle" x="171" y="-7.5" font-family="Helvetica,sans-Serif" font-size="10.00">main</text>
</a>
</g>
</g>
<!-- Node2&#45;&gt;Node3 -->
<g id="edge2" class="edge"><title>Node2&#45;&gt;Node3</title>
<path fill="none" stroke="midnightblue" d="M126.532,-10C135.211,-10 144.328,-10 151.958,-10"/>
<polygon fill="midnightblue" stroke="midnightblue" points="126.291,-6.5001 116.291,-10 126.291,-13.5001 126.291,-6.5001"/>
</g>
</g>
</svg>
