<?xml version="1.0" encoding="UTF-8" standalone="no"?>
<!DOCTYPE svg PUBLIC "-//W3C//DTD SVG 1.1//EN"
 "http://www.w3.org/Graphics/SVG/1.1/DTD/svg11.dtd">
<!-- Generated by graphviz version 2.36.0 (20140111.2315)
 -->
<!-- Title: TMain Pages: 1 -->
<svg width="324pt" height="38pt"
 viewBox="0.00 0.00 324.00 38.00" xmlns="http://www.w3.org/2000/svg" xmlns:xlink="http://www.w3.org/1999/xlink">
<g id="graph0" class="graph" transform="scale(1 1) rotate(0) translate(4 34)">
<title>TMain</title>
<polygon fill="white" stroke="none" points="-4,4 -4,-34 320,-34 320,4 -4,4"/>
<!-- Node1 -->
<g id="node1" class="node"><title>Node1</title>
<polygon fill="#bfbfbf" stroke="black" points="0,-5.5 0,-24.5 44,-24.5 44,-5.5 0,-5.5"/>
<text text-anchor="middle" x="22" y="-12.5" font-family="Helvetica,sans-Serif" font-size="10.00">TMain</text>
</g>
<!-- Node2 -->
<g id="node2" class="node"><title>Node2</title>
<g id="a_node2"><a xlink:href="../../da/dd4/classppm__java_1_1_t_main.html#a71fb0cb3dd3880a4a9dd86b168f00ee6" target="_top" xlink:title="Initializer. ">
<polygon fill="white" stroke="black" points="80.5,-5.5 80.5,-24.5 115.5,-24.5 115.5,-5.5 80.5,-5.5"/>
<text text-anchor="middle" x="98" y="-12.5" font-family="Helvetica,sans-Serif" font-size="10.00">_Init</text>
</a>
</g>
</g>
<!-- Node1&#45;&gt;Node2 -->
<g id="edge1" class="edge"><title>Node1&#45;&gt;Node2</title>
<path fill="none" stroke="midnightblue" d="M44.0075,-15C52.0594,-15 61.3625,-15 69.9052,-15"/>
<polygon fill="midnightblue" stroke="midnightblue" points="70.1678,-18.5001 80.1678,-15 70.1677,-11.5001 70.1678,-18.5001"/>
</g>
<!-- Node3 -->
<g id="node3" class="node"><title>Node3</title>
<g id="a_node3"><a xlink:href="../../d3/da4/classppm__java_1_1backend_1_1boot_1_1_t_session_properties.html#a393cdc81997166ab42e4767712995acb" target="_top" xlink:title="ppm_java.backend.boot.TSession\lProperties.GetHelpText">
<polygon fill="white" stroke="black" points="152,-0 152,-30 316,-30 316,-0 152,-0"/>
<text text-anchor="start" x="160" y="-18" font-family="Helvetica,sans-Serif" font-size="10.00">ppm_java.backend.boot.TSession</text>
<text text-anchor="middle" x="234" y="-7" font-family="Helvetica,sans-Serif" font-size="10.00">Properties.GetHelpText</text>
</a>
</g>
</g>
<!-- Node2&#45;&gt;Node3 -->
<g id="edge2" class="edge"><title>Node2&#45;&gt;Node3</title>
<path fill="none" stroke="midnightblue" d="M115.7,-15C122.909,-15 131.949,-15 141.794,-15"/>
<polygon fill="midnightblue" stroke="midnightblue" points="141.869,-18.5001 151.869,-15 141.869,-11.5001 141.869,-18.5001"/>
</g>
</g>
</svg>
