<?xml version="1.0" encoding="UTF-8" standalone="no"?>
<!DOCTYPE svg PUBLIC "-//W3C//DTD SVG 1.1//EN"
 "http://www.w3.org/Graphics/SVG/1.1/DTD/svg11.dtd">
<!-- Generated by graphviz version 2.36.0 (20140111.2315)
 -->
<!-- Title: main Pages: 1 -->
<svg width="398pt" height="38pt"
 viewBox="0.00 0.00 398.00 38.00" xmlns="http://www.w3.org/2000/svg" xmlns:xlink="http://www.w3.org/1999/xlink">
<g id="graph0" class="graph" transform="scale(1 1) rotate(0) translate(4 34)">
<title>main</title>
<polygon fill="white" stroke="none" points="-4,4 -4,-34 394,-34 394,4 -4,4"/>
<!-- Node1 -->
<g id="node1" class="node"><title>Node1</title>
<polygon fill="#bfbfbf" stroke="black" points="0,-5.5 0,-24.5 38,-24.5 38,-5.5 0,-5.5"/>
<text text-anchor="middle" x="19" y="-12.5" font-family="Helvetica,sans-Serif" font-size="10.00">main</text>
</g>
<!-- Node2 -->
<g id="node2" class="node"><title>Node2</title>
<g id="a_node2"><a xlink:href="../../da/dd4/classppm__java_1_1_t_main.html#a8e318939c3e363b0640af8624c89489a" target="_top" xlink:title="cTor. ">
<polygon fill="white" stroke="black" points="74,-5.5 74,-24.5 118,-24.5 118,-5.5 74,-5.5"/>
<text text-anchor="middle" x="96" y="-12.5" font-family="Helvetica,sans-Serif" font-size="10.00">TMain</text>
</a>
</g>
</g>
<!-- Node1&#45;&gt;Node2 -->
<g id="edge1" class="edge"><title>Node1&#45;&gt;Node2</title>
<path fill="none" stroke="midnightblue" d="M38.1554,-15C45.799,-15 54.9191,-15 63.5925,-15"/>
<polygon fill="midnightblue" stroke="midnightblue" points="63.8213,-18.5001 73.8212,-15 63.8212,-11.5001 63.8213,-18.5001"/>
</g>
<!-- Node3 -->
<g id="node3" class="node"><title>Node3</title>
<g id="a_node3"><a xlink:href="../../da/dd4/classppm__java_1_1_t_main.html#a71fb0cb3dd3880a4a9dd86b168f00ee6" target="_top" xlink:title="Initializer. ">
<polygon fill="white" stroke="black" points="154.5,-5.5 154.5,-24.5 189.5,-24.5 189.5,-5.5 154.5,-5.5"/>
<text text-anchor="middle" x="172" y="-12.5" font-family="Helvetica,sans-Serif" font-size="10.00">_Init</text>
</a>
</g>
</g>
<!-- Node2&#45;&gt;Node3 -->
<g id="edge2" class="edge"><title>Node2&#45;&gt;Node3</title>
<path fill="none" stroke="midnightblue" d="M118.007,-15C126.059,-15 135.362,-15 143.905,-15"/>
<polygon fill="midnightblue" stroke="midnightblue" points="144.168,-18.5001 154.168,-15 144.168,-11.5001 144.168,-18.5001"/>
</g>
<!-- Node4 -->
<g id="node4" class="node"><title>Node4</title>
<g id="a_node4"><a xlink:href="../../d3/da4/classppm__java_1_1backend_1_1boot_1_1_t_session_properties.html#a393cdc81997166ab42e4767712995acb" target="_top" xlink:title="ppm_java.backend.boot.TSession\lProperties.GetHelpText">
<polygon fill="white" stroke="black" points="226,-0 226,-30 390,-30 390,-0 226,-0"/>
<text text-anchor="start" x="234" y="-18" font-family="Helvetica,sans-Serif" font-size="10.00">ppm_java.backend.boot.TSession</text>
<text text-anchor="middle" x="308" y="-7" font-family="Helvetica,sans-Serif" font-size="10.00">Properties.GetHelpText</text>
</a>
</g>
</g>
<!-- Node3&#45;&gt;Node4 -->
<g id="edge3" class="edge"><title>Node3&#45;&gt;Node4</title>
<path fill="none" stroke="midnightblue" d="M189.7,-15C196.909,-15 205.949,-15 215.794,-15"/>
<polygon fill="midnightblue" stroke="midnightblue" points="215.869,-18.5001 225.869,-15 215.869,-11.5001 215.869,-18.5001"/>
</g>
</g>
</svg>
