<?xml version="1.0" encoding="UTF-8" standalone="no"?>
<!DOCTYPE svg PUBLIC "-//W3C//DTD SVG 1.1//EN"
 "http://www.w3.org/Graphics/SVG/1.1/DTD/svg11.dtd">
<!-- Generated by graphviz version 2.36.0 (20140111.2315)
 -->
<!-- Title: _RefreshFrame Pages: 1 -->
<svg width="290pt" height="66pt"
 viewBox="0.00 0.00 290.00 66.00" xmlns="http://www.w3.org/2000/svg" xmlns:xlink="http://www.w3.org/1999/xlink">
<g id="graph0" class="graph" transform="scale(1 1) rotate(0) translate(4 62)">
<title>_RefreshFrame</title>
<polygon fill="white" stroke="none" points="-4,4 -4,-62 286,-62 286,4 -4,4"/>
<!-- Node1 -->
<g id="node1" class="node"><title>Node1</title>
<polygon fill="#bfbfbf" stroke="black" points="0,-19.5 0,-38.5 84,-38.5 84,-19.5 0,-19.5"/>
<text text-anchor="middle" x="42" y="-26.5" font-family="Helvetica,sans-Serif" font-size="10.00">_RefreshFrame</text>
</g>
<!-- Node2 -->
<g id="node2" class="node"><title>Node2</title>
<g id="a_node2"><a xlink:href="../../db/d79/classppm__java_1_1frontend_1_1console_1_1lineargauge_1_1_t_console___linear_gauge.html#a8b01b31a317c827932d73a22808edbab" target="_top" xlink:title="If the refresh timer has expired: Redraws the UI and restarts the timer [110]. ">
<polygon fill="white" stroke="black" points="120.5,-38.5 120.5,-57.5 187.5,-57.5 187.5,-38.5 120.5,-38.5"/>
<text text-anchor="middle" x="154" y="-45.5" font-family="Helvetica,sans-Serif" font-size="10.00">_RefreshUI</text>
</a>
</g>
</g>
<!-- Node1&#45;&gt;Node2 -->
<g id="edge1" class="edge"><title>Node1&#45;&gt;Node2</title>
<path fill="none" stroke="midnightblue" d="M94.2314,-37.8491C103.146,-39.3889 112.194,-40.9517 120.431,-42.3745"/>
<polygon fill="midnightblue" stroke="midnightblue" points="94.7227,-34.3822 84.2729,-36.129 93.5312,-41.28 94.7227,-34.3822"/>
</g>
<!-- Node4 -->
<g id="node4" class="node"><title>Node4</title>
<g id="a_node4"><a xlink:href="../../db/d79/classppm__java_1_1frontend_1_1console_1_1lineargauge_1_1_t_console___linear_gauge.html#a07aaf1227e4d645f15e0a964f54ef291" target="_top" xlink:title="Starts the module. ">
<polygon fill="white" stroke="black" points="135,-0.5 135,-19.5 173,-19.5 173,-0.5 135,-0.5"/>
<text text-anchor="middle" x="154" y="-7.5" font-family="Helvetica,sans-Serif" font-size="10.00">Start</text>
</a>
</g>
</g>
<!-- Node1&#45;&gt;Node4 -->
<g id="edge3" class="edge"><title>Node1&#45;&gt;Node4</title>
<path fill="none" stroke="midnightblue" d="M94.2373,-20.1499C108.784,-17.6372 123.684,-15.0636 134.841,-13.1366"/>
<polygon fill="midnightblue" stroke="midnightblue" points="93.5312,-16.72 84.2729,-21.871 94.7227,-23.6178 93.5312,-16.72"/>
</g>
<!-- Node3 -->
<g id="node3" class="node"><title>Node3</title>
<g id="a_node3"><a xlink:href="../../db/d79/classppm__java_1_1frontend_1_1console_1_1lineargauge_1_1_t_console___linear_gauge.html#acfe067e0a6576f0bc895919eaadeaa8c" target="_top" xlink:title="Receives a level update on the given channel. ">
<polygon fill="white" stroke="black" points="224,-38.5 224,-57.5 282,-57.5 282,-38.5 224,-38.5"/>
<text text-anchor="middle" x="253" y="-45.5" font-family="Helvetica,sans-Serif" font-size="10.00">_Receive</text>
</a>
</g>
</g>
<!-- Node2&#45;&gt;Node3 -->
<g id="edge2" class="edge"><title>Node2&#45;&gt;Node3</title>
<path fill="none" stroke="midnightblue" d="M197.77,-48C206.622,-48 215.731,-48 223.898,-48"/>
<polygon fill="midnightblue" stroke="midnightblue" points="197.569,-44.5001 187.569,-48 197.569,-51.5001 197.569,-44.5001"/>
</g>
</g>
</svg>
