<?xml version="1.0" encoding="UTF-8" standalone="no"?>
<!DOCTYPE svg PUBLIC "-//W3C//DTD SVG 1.1//EN"
 "http://www.w3.org/Graphics/SVG/1.1/DTD/svg11.dtd">
<!-- Generated by graphviz version 2.36.0 (20140111.2315)
 -->
<!-- Title: _Init Pages: 1 -->
<svg width="320pt" height="28pt"
 viewBox="0.00 0.00 320.00 28.00" xmlns="http://www.w3.org/2000/svg" xmlns:xlink="http://www.w3.org/1999/xlink">
<g id="graph0" class="graph" transform="scale(1 1) rotate(0) translate(4 24)">
<title>_Init</title>
<polygon fill="white" stroke="none" points="-4,4 -4,-24 316,-24 316,4 -4,4"/>
<!-- Node1 -->
<g id="node1" class="node"><title>Node1</title>
<polygon fill="#bfbfbf" stroke="black" points="0.5,-0.5 0.5,-19.5 35.5,-19.5 35.5,-0.5 0.5,-0.5"/>
<text text-anchor="middle" x="18" y="-7.5" font-family="Helvetica,sans-Serif" font-size="10.00">_Init</text>
</g>
<!-- Node2 -->
<g id="node2" class="node"><title>Node2</title>
<g id="a_node2"><a xlink:href="../../db/d79/classppm__java_1_1frontend_1_1console_1_1lineargauge_1_1_t_console___linear_gauge.html#ac911f41415efbe0ee0f0918e93193294" target="_top" xlink:title="cTor. ">
<polygon fill="white" stroke="black" points="72.5,-0.5 72.5,-19.5 191.5,-19.5 191.5,-0.5 72.5,-0.5"/>
<text text-anchor="middle" x="132" y="-7.5" font-family="Helvetica,sans-Serif" font-size="10.00">TConsole_LinearGauge</text>
</a>
</g>
</g>
<!-- Node1&#45;&gt;Node2 -->
<g id="edge1" class="edge"><title>Node1&#45;&gt;Node2</title>
<path fill="none" stroke="midnightblue" d="M45.7806,-10C53.8884,-10 63.1312,-10 72.4681,-10"/>
<polygon fill="midnightblue" stroke="midnightblue" points="45.526,-6.5001 35.526,-10 45.526,-13.5001 45.526,-6.5001"/>
</g>
<!-- Node3 -->
<g id="node3" class="node"><title>Node3</title>
<g id="a_node3"><a xlink:href="../../db/d79/classppm__java_1_1frontend_1_1console_1_1lineargauge_1_1_t_console___linear_gauge.html#a98492a76d72ce1a242ee6aa8efa48ba4" target="_top" xlink:title="Creates a new instance of this frontend. ">
<polygon fill="white" stroke="black" points="228.5,-0.5 228.5,-19.5 311.5,-19.5 311.5,-0.5 228.5,-0.5"/>
<text text-anchor="middle" x="270" y="-7.5" font-family="Helvetica,sans-Serif" font-size="10.00">CreateInstance</text>
</a>
</g>
</g>
<!-- Node2&#45;&gt;Node3 -->
<g id="edge2" class="edge"><title>Node2&#45;&gt;Node3</title>
<path fill="none" stroke="midnightblue" d="M202.047,-10C211.091,-10 220.109,-10 228.463,-10"/>
<polygon fill="midnightblue" stroke="midnightblue" points="201.861,-6.5001 191.861,-10 201.861,-13.5001 201.861,-6.5001"/>
</g>
</g>
</svg>
