<?xml version="1.0" encoding="UTF-8" standalone="no"?>
<!DOCTYPE svg PUBLIC "-//W3C//DTD SVG 1.1//EN"
 "http://www.w3.org/Graphics/SVG/1.1/DTD/svg11.dtd">
<!-- Generated by graphviz version 2.36.0 (20140111.2315)
 -->
<!-- Title: _Receive Pages: 1 -->
<svg width="290pt" height="28pt"
 viewBox="0.00 0.00 290.00 28.00" xmlns="http://www.w3.org/2000/svg" xmlns:xlink="http://www.w3.org/1999/xlink">
<g id="graph0" class="graph" transform="scale(1 1) rotate(0) translate(4 24)">
<title>_Receive</title>
<polygon fill="white" stroke="none" points="-4,4 -4,-24 286,-24 286,4 -4,4"/>
<!-- Node1 -->
<g id="node1" class="node"><title>Node1</title>
<polygon fill="#bfbfbf" stroke="black" points="0,-0.5 0,-19.5 58,-19.5 58,-0.5 0,-0.5"/>
<text text-anchor="middle" x="29" y="-7.5" font-family="Helvetica,sans-Serif" font-size="10.00">_Receive</text>
</g>
<!-- Node2 -->
<g id="node2" class="node"><title>Node2</title>
<g id="a_node2"><a xlink:href="../../db/d79/classppm__java_1_1frontend_1_1console_1_1lineargauge_1_1_t_console___linear_gauge.html#a8b01b31a317c827932d73a22808edbab" target="_top" xlink:title="If the refresh timer has expired: Redraws the UI and restarts the timer [110]. ">
<polygon fill="white" stroke="black" points="94.5,-0.5 94.5,-19.5 161.5,-19.5 161.5,-0.5 94.5,-0.5"/>
<text text-anchor="middle" x="128" y="-7.5" font-family="Helvetica,sans-Serif" font-size="10.00">_RefreshUI</text>
</a>
</g>
</g>
<!-- Node1&#45;&gt;Node2 -->
<g id="edge1" class="edge"><title>Node1&#45;&gt;Node2</title>
<path fill="none" stroke="midnightblue" d="M58.0564,-10C66.1801,-10 75.2403,-10 84.0528,-10"/>
<polygon fill="midnightblue" stroke="midnightblue" points="84.2131,-13.5001 94.2131,-10 84.213,-6.5001 84.2131,-13.5001"/>
</g>
<!-- Node3 -->
<g id="node3" class="node"><title>Node3</title>
<g id="a_node3"><a xlink:href="../../db/d79/classppm__java_1_1frontend_1_1console_1_1lineargauge_1_1_t_console___linear_gauge.html#a40fd4ef04690468e4f93b3f68fce68d2" target="_top" xlink:title="Redraws the UI &#45; worker method. ">
<polygon fill="white" stroke="black" points="198,-0.5 198,-19.5 282,-19.5 282,-0.5 198,-0.5"/>
<text text-anchor="middle" x="240" y="-7.5" font-family="Helvetica,sans-Serif" font-size="10.00">_RefreshFrame</text>
</a>
</g>
</g>
<!-- Node2&#45;&gt;Node3 -->
<g id="edge2" class="edge"><title>Node2&#45;&gt;Node3</title>
<path fill="none" stroke="midnightblue" d="M161.706,-10C169.808,-10 178.687,-10 187.449,-10"/>
<polygon fill="midnightblue" stroke="midnightblue" points="187.628,-13.5001 197.628,-10 187.628,-6.5001 187.628,-13.5001"/>
</g>
</g>
</svg>
