<?xml version="1.0" encoding="UTF-8" standalone="no"?>
<!DOCTYPE svg PUBLIC "-//W3C//DTD SVG 1.1//EN"
 "http://www.w3.org/Graphics/SVG/1.1/DTD/svg11.dtd">
<!-- Generated by graphviz version 2.36.0 (20140111.2315)
 -->
<!-- Title: CreateInstance Pages: 1 -->
<svg width="320pt" height="28pt"
 viewBox="0.00 0.00 320.00 28.00" xmlns="http://www.w3.org/2000/svg" xmlns:xlink="http://www.w3.org/1999/xlink">
<g id="graph0" class="graph" transform="scale(1 1) rotate(0) translate(4 24)">
<title>CreateInstance</title>
<polygon fill="white" stroke="none" points="-4,4 -4,-24 316,-24 316,4 -4,4"/>
<!-- Node1 -->
<g id="node1" class="node"><title>Node1</title>
<polygon fill="#bfbfbf" stroke="black" points="0.5,-0.5 0.5,-19.5 83.5,-19.5 83.5,-0.5 0.5,-0.5"/>
<text text-anchor="middle" x="42" y="-7.5" font-family="Helvetica,sans-Serif" font-size="10.00">CreateInstance</text>
</g>
<!-- Node2 -->
<g id="node2" class="node"><title>Node2</title>
<g id="a_node2"><a xlink:href="../../db/d79/classppm__java_1_1frontend_1_1console_1_1lineargauge_1_1_t_console___linear_gauge.html#ac911f41415efbe0ee0f0918e93193294" target="_top" xlink:title="cTor. ">
<polygon fill="white" stroke="black" points="120.5,-0.5 120.5,-19.5 239.5,-19.5 239.5,-0.5 120.5,-0.5"/>
<text text-anchor="middle" x="180" y="-7.5" font-family="Helvetica,sans-Serif" font-size="10.00">TConsole_LinearGauge</text>
</a>
</g>
</g>
<!-- Node1&#45;&gt;Node2 -->
<g id="edge1" class="edge"><title>Node1&#45;&gt;Node2</title>
<path fill="none" stroke="midnightblue" d="M83.8045,-10C92.161,-10 101.174,-10 110.205,-10"/>
<polygon fill="midnightblue" stroke="midnightblue" points="110.376,-13.5001 120.376,-10 110.376,-6.5001 110.376,-13.5001"/>
</g>
<!-- Node3 -->
<g id="node3" class="node"><title>Node3</title>
<g id="a_node3"><a xlink:href="../../db/d79/classppm__java_1_1frontend_1_1console_1_1lineargauge_1_1_t_console___linear_gauge.html#ab2b79a0cf0bfd3e21a7c1b153ad98f88" target="_top" xlink:title="initializes the UI &#45; sanitized the bar length and prepares all pre cached decorations. ">
<polygon fill="white" stroke="black" points="276.5,-0.5 276.5,-19.5 311.5,-19.5 311.5,-0.5 276.5,-0.5"/>
<text text-anchor="middle" x="294" y="-7.5" font-family="Helvetica,sans-Serif" font-size="10.00">_Init</text>
</a>
</g>
</g>
<!-- Node2&#45;&gt;Node3 -->
<g id="edge2" class="edge"><title>Node2&#45;&gt;Node3</title>
<path fill="none" stroke="midnightblue" d="M239.624,-10C248.939,-10 258.157,-10 266.244,-10"/>
<polygon fill="midnightblue" stroke="midnightblue" points="266.474,-13.5001 276.474,-10 266.474,-6.5001 266.474,-13.5001"/>
</g>
</g>
</svg>
