<?xml version="1.0" encoding="UTF-8" standalone="no"?>
<!DOCTYPE svg PUBLIC "-//W3C//DTD SVG 1.1//EN"
 "http://www.w3.org/Graphics/SVG/1.1/DTD/svg11.dtd">
<!-- Generated by graphviz version 2.36.0 (20140111.2315)
 -->
<!-- Title: TNodePPMProcessor_Stats Pages: 1 -->
<!--zoomable 880 -->
<svg id="main" version="1.1" xmlns="http://www.w3.org/2000/svg" xmlns:xlink="http://www.w3.org/1999/xlink" xml:space="preserve" onload="init(evt)">
<style type="text/css"><![CDATA[
.edge:hover path { stroke: red; }
.edge:hover polygon { stroke: red; fill: red; }
]]></style>
<script type="text/javascript"><![CDATA[
var edges = document.getElementsByTagName('g');
if (edges && edges.length) {
  for (var i=0;i<edges.length;i++) {
    if (edges[i].id.substr(0,4)=='edge') {
      edges[i].setAttribute('class','edge');
    }
  }
}
]]></script>
        <defs>
                <circle id="rim" cx="0" cy="0" r="7"/>
                <circle id="rim2" cx="0" cy="0" r="3.5"/>
                <g id="zoomPlus">
                        <use xlink:href="#rim" fill="#404040">
                                <set attributeName="fill" to="#808080" begin="zoomplus.mouseover" end="zoomplus.mouseout"/>
                        </use>
                        <path d="M-4,0h8M0,-4v8" fill="none" stroke="white" stroke-width="1.5" pointer-events="none"/>
                </g>
                <g id="zoomMin">
                        <use xlink:href="#rim" fill="#404040">
                                <set attributeName="fill" to="#808080" begin="zoomminus.mouseover" end="zoomminus.mouseout"/>
                        </use>
                        <path d="M-4,0h8" fill="none" stroke="white" stroke-width="1.5" pointer-events="none"/>
                </g>
                <g id="dirArrow">
                        <path fill="none" stroke="white" stroke-width="1.5" d="M0,-3.0v7 M-2.5,-0.5L0,-3.0L2.5,-0.5"/>
                </g>
               <g id="resetDef">
                       <use xlink:href="#rim2" fill="#404040">
                               <set attributeName="fill" to="#808080" begin="reset.mouseover" end="reset.mouseout"/>
                       </use>
               </g>
        </defs>

<script type="text/javascript">
var viewWidth = 926;
var viewHeight = 880;
var sectionId = 'dynsection-1';
</script>
<script xlink:href="../../svgpan.js"/>
<svg id="graph" class="graph">
<g id="viewport">
<title>TNodePPMProcessor_Stats</title>
<polygon fill="white" stroke="none" points="-4,4 -4,-876 922,-876 922,4 -4,4"/>
<!-- Node1 -->
<g id="node1" class="node"><title>Node1</title>
<polygon fill="#bfbfbf" stroke="black" points="603.5,-399 603.5,-533 758.5,-533 758.5,-399 603.5,-399"/>
<text text-anchor="middle" x="681" y="-521" font-family="Helvetica,sans-Serif" font-size="10.00">TNodePPMProcessor_Stats</text>
<polyline fill="none" stroke="black" points="603.5,-514 758.5,-514 "/>
<text text-anchor="middle" x="681" y="-502" font-family="Helvetica,sans-Serif" font-size="10.00"> </text>
<polyline fill="none" stroke="black" points="603.5,-495 758.5,-495 "/>
<text text-anchor="start" x="611.5" y="-483" font-family="Helvetica,sans-Serif" font-size="10.00">+ TNodePPMProcessor_Stats()</text>
<text text-anchor="start" x="611.5" y="-472" font-family="Helvetica,sans-Serif" font-size="10.00">+ GetDumpStr()</text>
<text text-anchor="start" x="611.5" y="-461" font-family="Helvetica,sans-Serif" font-size="10.00">~ SetCycleTime()</text>
<text text-anchor="start" x="611.5" y="-450" font-family="Helvetica,sans-Serif" font-size="10.00">~ SetDBValue()</text>
<text text-anchor="start" x="611.5" y="-439" font-family="Helvetica,sans-Serif" font-size="10.00">~ SetNumSamplesPerCycle()</text>
<text text-anchor="start" x="611.5" y="-428" font-family="Helvetica,sans-Serif" font-size="10.00">~ SetPeakValue()</text>
<text text-anchor="start" x="611.5" y="-417" font-family="Helvetica,sans-Serif" font-size="10.00">~ SetPeakValueProjected()</text>
<text text-anchor="start" x="611.5" y="-406" font-family="Helvetica,sans-Serif" font-size="10.00">~ SetSampleRate()</text>
</g>
<!-- Node5 -->
<g id="node5" class="node"><title>Node5</title>
<g id="a_node5"><a xlink:href="../../dc/d04/classppm__java_1_1backend_1_1module_1_1__deprecated__ppm_1_1_t_node_p_p_m_processor.html" target="_top" xlink:title="PPM meter class. ">
<polygon fill="white" stroke="black" points="437,-1 437,-333 581,-333 581,-1 437,-1"/>
<text text-anchor="middle" x="509" y="-321" font-family="Helvetica,sans-Serif" font-size="10.00">TNodePPMProcessor</text>
<polyline fill="none" stroke="black" points="437,-314 581,-314 "/>
<text text-anchor="start" x="445" y="-302" font-family="Helvetica,sans-Serif" font-size="10.00">&#45; fHasInitialTime</text>
<text text-anchor="start" x="445" y="-291" font-family="Helvetica,sans-Serif" font-size="10.00">&#45; fNSamplesPerCycle</text>
<text text-anchor="start" x="445" y="-280" font-family="Helvetica,sans-Serif" font-size="10.00">&#45; fPeak_dB</text>
<text text-anchor="start" x="445" y="-269" font-family="Helvetica,sans-Serif" font-size="10.00">&#45; fPeak_Raw</text>
<text text-anchor="start" x="445" y="-258" font-family="Helvetica,sans-Serif" font-size="10.00">&#45; fPeakDeltaFall</text>
<text text-anchor="start" x="445" y="-247" font-family="Helvetica,sans-Serif" font-size="10.00">&#45; fPeakDeltaRise</text>
<text text-anchor="start" x="445" y="-236" font-family="Helvetica,sans-Serif" font-size="10.00">&#45; fSampleRate</text>
<text text-anchor="start" x="445" y="-225" font-family="Helvetica,sans-Serif" font-size="10.00">&#45; fTDeltaRequested</text>
<text text-anchor="start" x="445" y="-214" font-family="Helvetica,sans-Serif" font-size="10.00">&#45; fTLast</text>
<text text-anchor="start" x="445" y="-203" font-family="Helvetica,sans-Serif" font-size="10.00">&#45; gkIntegrFallRangedB</text>
<text text-anchor="start" x="445" y="-192" font-family="Helvetica,sans-Serif" font-size="10.00">&#45; gkIntegrFallTime</text>
<text text-anchor="start" x="445" y="-181" font-family="Helvetica,sans-Serif" font-size="10.00">&#45; gkIntegrRiseRangedB</text>
<text text-anchor="start" x="445" y="-170" font-family="Helvetica,sans-Serif" font-size="10.00">&#45; gkIntegrRiseTime</text>
<text text-anchor="start" x="445" y="-159" font-family="Helvetica,sans-Serif" font-size="10.00">&#45; gkMinThreshold</text>
<polyline fill="none" stroke="black" points="437,-152 581,-152 "/>
<text text-anchor="start" x="445" y="-140" font-family="Helvetica,sans-Serif" font-size="10.00">+ CreatePort_In()</text>
<text text-anchor="start" x="445" y="-129" font-family="Helvetica,sans-Serif" font-size="10.00">+ CreatePort_Out()</text>
<text text-anchor="start" x="445" y="-118" font-family="Helvetica,sans-Serif" font-size="10.00">+ OnEvent()</text>
<text text-anchor="start" x="445" y="-107" font-family="Helvetica,sans-Serif" font-size="10.00">+ OnEvent()</text>
<text text-anchor="start" x="445" y="-96" font-family="Helvetica,sans-Serif" font-size="10.00">+ OnEvent()</text>
<text text-anchor="start" x="445" y="-85" font-family="Helvetica,sans-Serif" font-size="10.00">+ OnEvent()</text>
<text text-anchor="start" x="445" y="-74" font-family="Helvetica,sans-Serif" font-size="10.00">+ StatsGet()</text>
<text text-anchor="start" x="445" y="-63" font-family="Helvetica,sans-Serif" font-size="10.00">+ CreateInstance()</text>
<text text-anchor="start" x="445" y="-52" font-family="Helvetica,sans-Serif" font-size="10.00"># _Register()</text>
<text text-anchor="start" x="445" y="-41" font-family="Helvetica,sans-Serif" font-size="10.00">&#45; TNodePPMProcessor()</text>
<text text-anchor="start" x="445" y="-30" font-family="Helvetica,sans-Serif" font-size="10.00">&#45; _CompensateCongestions()</text>
<text text-anchor="start" x="445" y="-19" font-family="Helvetica,sans-Serif" font-size="10.00">&#45; _FindPeak()</text>
<text text-anchor="start" x="445" y="-8" font-family="Helvetica,sans-Serif" font-size="10.00">&#45; _ProcessChunk()</text>
</a>
</g>
</g>
<!-- Node1&#45;&gt;Node5 -->
<g id="edge13" class="edge"><title>Node1&#45;&gt;Node5</title>
<path fill="none" stroke="#404040" d="M642.227,-398.75C635.473,-387.174 628.524,-375.241 622,-364 610.71,-344.545 598.816,-323.986 587.154,-303.791"/>
<polygon fill="none" stroke="#404040" points="587.08,-303.663 580.616,-300.467 581.081,-293.271 587.544,-296.467 587.08,-303.663"/>
<text text-anchor="middle" x="638.5" y="-355.5" font-family="Helvetica,sans-Serif" font-size="10.00"> &#45;fStats</text>
</g>
<!-- Node2 -->
<g id="node2" class="node"><title>Node2</title>
<g id="a_node2"><a xlink:href="../../d7/d5a/interfaceppm__java_1_1typelib_1_1_i_stats.html" target="_top" xlink:title="Interface for a statistics record. ">
<polygon fill="white" stroke="black" points="544,-653.5 544,-710.5 630,-710.5 630,-653.5 544,-653.5"/>
<text text-anchor="middle" x="587" y="-698.5" font-family="Helvetica,sans-Serif" font-size="10.00">IStats</text>
<polyline fill="none" stroke="black" points="544,-691.5 630,-691.5 "/>
<text text-anchor="middle" x="587" y="-679.5" font-family="Helvetica,sans-Serif" font-size="10.00"> </text>
<polyline fill="none" stroke="black" points="544,-672.5 630,-672.5 "/>
<text text-anchor="start" x="552" y="-660.5" font-family="Helvetica,sans-Serif" font-size="10.00">+ GetDumpStr()</text>
</a>
</g>
</g>
<!-- Node2&#45;&gt;Node1 -->
<g id="edge1" class="edge"><title>Node2&#45;&gt;Node1</title>
<path fill="none" stroke="midnightblue" d="M603.222,-644.069C616.608,-613.594 635.939,-569.586 651.98,-533.067"/>
<polygon fill="none" stroke="midnightblue" points="599.914,-642.898 599.096,-653.461 606.323,-645.713 599.914,-642.898"/>
</g>
<!-- Node3 -->
<g id="node3" class="node"><title>Node3</title>
<g id="a_node3"><a xlink:href="../../d2/df7/classppm__java_1_1util_1_1storage_1_1_t_atomic_double.html" target="_top" xlink:title="An thread safe double value. ">
<polygon fill="white" stroke="black" points="648.5,-620.5 648.5,-743.5 747.5,-743.5 747.5,-620.5 648.5,-620.5"/>
<text text-anchor="middle" x="698" y="-731.5" font-family="Helvetica,sans-Serif" font-size="10.00">TAtomicDouble</text>
<polyline fill="none" stroke="black" points="648.5,-724.5 747.5,-724.5 "/>
<text text-anchor="start" x="656.5" y="-712.5" font-family="Helvetica,sans-Serif" font-size="10.00">&#45; fValue</text>
<text text-anchor="start" x="656.5" y="-701.5" font-family="Helvetica,sans-Serif" font-size="10.00">&#45; gkLocked</text>
<text text-anchor="start" x="656.5" y="-690.5" font-family="Helvetica,sans-Serif" font-size="10.00">&#45; gkUnlocked</text>
<polyline fill="none" stroke="black" points="648.5,-683.5 747.5,-683.5 "/>
<text text-anchor="start" x="656.5" y="-671.5" font-family="Helvetica,sans-Serif" font-size="10.00">+ TAtomicDouble()</text>
<text text-anchor="start" x="656.5" y="-660.5" font-family="Helvetica,sans-Serif" font-size="10.00">+ Get()</text>
<text text-anchor="start" x="656.5" y="-649.5" font-family="Helvetica,sans-Serif" font-size="10.00">+ Set()</text>
<text text-anchor="start" x="656.5" y="-638.5" font-family="Helvetica,sans-Serif" font-size="10.00">&#45; _Lock()</text>
<text text-anchor="start" x="656.5" y="-627.5" font-family="Helvetica,sans-Serif" font-size="10.00">&#45; _Unlock()</text>
</a>
</g>
</g>
<!-- Node3&#45;&gt;Node1 -->
<g id="edge2" class="edge"><title>Node3&#45;&gt;Node1</title>
<path fill="none" stroke="#404040" d="M684.495,-620.368C683.487,-614.188 682.622,-607.985 682,-602 680.091,-583.641 679.262,-563.803 679.029,-545.132"/>
<polygon fill="none" stroke="#404040" points="679.028,-545.058 674.992,-539.083 678.956,-533.059 682.992,-539.035 679.028,-545.058"/>
<text text-anchor="middle" x="739" y="-593.5" font-family="Helvetica,sans-Serif" font-size="10.00"> &#45;fLastPeakValue</text>
<text text-anchor="middle" x="739" y="-582.5" font-family="Helvetica,sans-Serif" font-size="10.00">&#45;fLastDBValue</text>
<text text-anchor="middle" x="739" y="-571.5" font-family="Helvetica,sans-Serif" font-size="10.00">&#45;fLastPeakProjectedValue</text>
</g>
<!-- Node4 -->
<g id="node4" class="node"><title>Node4</title>
<polygon fill="white" stroke="#bfbfbf" points="659.5,-803.5 659.5,-860.5 736.5,-860.5 736.5,-803.5 659.5,-803.5"/>
<text text-anchor="middle" x="698" y="-848.5" font-family="Helvetica,sans-Serif" font-size="10.00">AtomicInteger</text>
<polyline fill="none" stroke="#bfbfbf" points="659.5,-841.5 736.5,-841.5 "/>
<text text-anchor="middle" x="698" y="-829.5" font-family="Helvetica,sans-Serif" font-size="10.00"> </text>
<polyline fill="none" stroke="#bfbfbf" points="659.5,-822.5 736.5,-822.5 "/>
<text text-anchor="middle" x="698" y="-810.5" font-family="Helvetica,sans-Serif" font-size="10.00"> </text>
</g>
<!-- Node4&#45;&gt;Node3 -->
<g id="edge3" class="edge"><title>Node4&#45;&gt;Node3</title>
<path fill="none" stroke="#404040" d="M698,-803.162C698,-789.619 698,-772.641 698,-755.75"/>
<polygon fill="none" stroke="#404040" points="698,-755.516 694,-749.516 698,-743.516 702,-749.516 698,-755.516"/>
<text text-anchor="middle" x="713.5" y="-765.5" font-family="Helvetica,sans-Serif" font-size="10.00"> &#45;fLock</text>
</g>
<!-- Node5&#45;&gt;Node1 -->
<g id="edge4" class="edge"><title>Node5&#45;&gt;Node1</title>
<path fill="none" stroke="#404040" d="M581.337,-239.656C609.644,-271.562 639.854,-311.133 659,-352 664.087,-362.859 667.999,-374.835 671.005,-386.809"/>
<polygon fill="none" stroke="#404040" points="671.058,-387.038 676.289,-392.001 673.721,-398.739 668.489,-393.777 671.058,-387.038"/>
<text text-anchor="middle" x="679.5" y="-355.5" font-family="Helvetica,sans-Serif" font-size="10.00"> &#45;fHost</text>
</g>
<!-- Node6 -->
<g id="node6" class="node"><title>Node6</title>
<g id="a_node6"><a xlink:href="../../d5/d6a/classppm__java_1_1typelib_1_1_v_audio_processor.html" target="_top" xlink:title="Base class for all modules processing audio samples. ">
<polygon fill="white" stroke="black" points="131.5,-382.5 131.5,-549.5 238.5,-549.5 238.5,-382.5 131.5,-382.5"/>
<text text-anchor="middle" x="185" y="-537.5" font-family="Helvetica,sans-Serif" font-size="10.00">VAudioProcessor</text>
<polyline fill="none" stroke="black" points="131.5,-530.5 238.5,-530.5 "/>
<text text-anchor="middle" x="185" y="-518.5" font-family="Helvetica,sans-Serif" font-size="10.00"> </text>
<polyline fill="none" stroke="black" points="131.5,-511.5 238.5,-511.5 "/>
<text text-anchor="start" x="139.5" y="-499.5" font-family="Helvetica,sans-Serif" font-size="10.00">+ VAudioProcessor()</text>
<text text-anchor="start" x="139.5" y="-488.5" font-family="Helvetica,sans-Serif" font-size="10.00">+ CreatePort_In()</text>
<text text-anchor="start" x="139.5" y="-477.5" font-family="Helvetica,sans-Serif" font-size="10.00">+ CreatePort_Out()</text>
<text text-anchor="start" x="139.5" y="-466.5" font-family="Helvetica,sans-Serif" font-size="10.00">+ GetNumPortsIn()</text>
<text text-anchor="start" x="139.5" y="-455.5" font-family="Helvetica,sans-Serif" font-size="10.00">+ GetNumPortsOut()</text>
<text text-anchor="start" x="139.5" y="-444.5" font-family="Helvetica,sans-Serif" font-size="10.00">+ GetPortIn()</text>
<text text-anchor="start" x="139.5" y="-433.5" font-family="Helvetica,sans-Serif" font-size="10.00">+ GetPortIn()</text>
<text text-anchor="start" x="139.5" y="-422.5" font-family="Helvetica,sans-Serif" font-size="10.00">+ GetPortOut()</text>
<text text-anchor="start" x="139.5" y="-411.5" font-family="Helvetica,sans-Serif" font-size="10.00">+ GetPortOut()</text>
<text text-anchor="start" x="139.5" y="-400.5" font-family="Helvetica,sans-Serif" font-size="10.00"># AddPortIn()</text>
<text text-anchor="start" x="139.5" y="-389.5" font-family="Helvetica,sans-Serif" font-size="10.00"># AddPortOut()</text>
</a>
</g>
</g>
<!-- Node6&#45;&gt;Node5 -->
<g id="edge5" class="edge"><title>Node6&#45;&gt;Node5</title>
<path fill="none" stroke="midnightblue" d="M245.65,-384.471C246.432,-383.638 247.216,-382.814 248,-382 306.637,-321.121 382.062,-260.904 436.738,-219.932"/>
<polygon fill="none" stroke="midnightblue" points="242.783,-382.421 238.651,-392.177 247.965,-387.127 242.783,-382.421"/>
</g>
<!-- Node7 -->
<g id="node7" class="node"><title>Node7</title>
<g id="a_node7"><a xlink:href="../../d1/db3/classppm__java_1_1typelib_1_1_v_audio_object.html" target="_top" xlink:title="Base class for all browseable audio objects. ">
<polygon fill="white" stroke="black" points="0,-653.5 0,-710.5 92,-710.5 92,-653.5 0,-653.5"/>
<text text-anchor="middle" x="46" y="-698.5" font-family="Helvetica,sans-Serif" font-size="10.00">VAudioObject</text>
<polyline fill="none" stroke="black" points="0,-691.5 92,-691.5 "/>
<text text-anchor="middle" x="46" y="-679.5" font-family="Helvetica,sans-Serif" font-size="10.00"> </text>
<polyline fill="none" stroke="black" points="0,-672.5 92,-672.5 "/>
<text text-anchor="start" x="8" y="-660.5" font-family="Helvetica,sans-Serif" font-size="10.00">+ VAudioObject()</text>
</a>
</g>
</g>
<!-- Node7&#45;&gt;Node6 -->
<g id="edge6" class="edge"><title>Node7&#45;&gt;Node6</title>
<path fill="none" stroke="midnightblue" d="M69.3501,-645.051C86.2465,-619.038 109.783,-582.802 131.215,-549.805"/>
<polygon fill="none" stroke="midnightblue" points="66.3992,-643.169 63.8873,-653.461 72.2696,-646.982 66.3992,-643.169"/>
</g>
<!-- Node8 -->
<g id="node8" class="node"><title>Node8</title>
<g id="a_node8"><a xlink:href="../../de/dd1/classppm__java_1_1typelib_1_1_v_browseable.html" target="_top" xlink:title="Base class for all browseable objects. ">
<polygon fill="white" stroke="black" points="1.5,-792.5 1.5,-871.5 90.5,-871.5 90.5,-792.5 1.5,-792.5"/>
<text text-anchor="middle" x="46" y="-859.5" font-family="Helvetica,sans-Serif" font-size="10.00">VBrowseable</text>
<polyline fill="none" stroke="black" points="1.5,-852.5 90.5,-852.5 "/>
<text text-anchor="start" x="9.5" y="-840.5" font-family="Helvetica,sans-Serif" font-size="10.00">&#45; fID</text>
<polyline fill="none" stroke="black" points="1.5,-833.5 90.5,-833.5 "/>
<text text-anchor="start" x="9.5" y="-821.5" font-family="Helvetica,sans-Serif" font-size="10.00">+ VBrowseable()</text>
<text text-anchor="start" x="9.5" y="-810.5" font-family="Helvetica,sans-Serif" font-size="10.00">+ GetID()</text>
<text text-anchor="start" x="9.5" y="-799.5" font-family="Helvetica,sans-Serif" font-size="10.00"># _Register()</text>
</a>
</g>
</g>
<!-- Node8&#45;&gt;Node7 -->
<g id="edge7" class="edge"><title>Node8&#45;&gt;Node7</title>
<path fill="none" stroke="midnightblue" d="M46,-781.92C46,-758.306 46,-730.859 46,-710.876"/>
<polygon fill="none" stroke="midnightblue" points="42.5001,-782.115 46,-792.115 49.5001,-782.115 42.5001,-782.115"/>
</g>
<!-- Node9 -->
<g id="node9" class="node"><title>Node9</title>
<polygon fill="white" stroke="#bfbfbf" points="110,-648 110,-716 260,-716 260,-648 110,-648"/>
<text text-anchor="start" x="118" y="-704" font-family="Helvetica,sans-Serif" font-size="10.00">TArrayMap&lt; ppm_java.typelib.</text>
<text text-anchor="middle" x="185" y="-693" font-family="Helvetica,sans-Serif" font-size="10.00">VAudioPort_Output &gt;</text>
<polyline fill="none" stroke="#bfbfbf" points="110,-686 260,-686 "/>
<text text-anchor="middle" x="185" y="-674" font-family="Helvetica,sans-Serif" font-size="10.00"> </text>
<polyline fill="none" stroke="#bfbfbf" points="110,-667 260,-667 "/>
<text text-anchor="middle" x="185" y="-655" font-family="Helvetica,sans-Serif" font-size="10.00"> </text>
</g>
<!-- Node9&#45;&gt;Node6 -->
<g id="edge8" class="edge"><title>Node9&#45;&gt;Node6</title>
<path fill="none" stroke="#404040" d="M185,-647.562C185,-624.42 185,-592.379 185,-561.704"/>
<polygon fill="none" stroke="#404040" points="185,-561.585 181,-555.585 185,-549.585 189,-555.585 185,-561.585"/>
<text text-anchor="middle" x="209.5" y="-582.5" font-family="Helvetica,sans-Serif" font-size="10.00"> &#45;fPortsOut</text>
</g>
<!-- Node10 -->
<g id="node10" class="node"><title>Node10</title>
<polygon fill="white" stroke="#bfbfbf" points="278,-648 278,-716 428,-716 428,-648 278,-648"/>
<text text-anchor="start" x="286" y="-704" font-family="Helvetica,sans-Serif" font-size="10.00">TArrayMap&lt; ppm_java.typelib.</text>
<text text-anchor="middle" x="353" y="-693" font-family="Helvetica,sans-Serif" font-size="10.00">VAudioPort_Input &gt;</text>
<polyline fill="none" stroke="#bfbfbf" points="278,-686 428,-686 "/>
<text text-anchor="middle" x="353" y="-674" font-family="Helvetica,sans-Serif" font-size="10.00"> </text>
<polyline fill="none" stroke="#bfbfbf" points="278,-667 428,-667 "/>
<text text-anchor="middle" x="353" y="-655" font-family="Helvetica,sans-Serif" font-size="10.00"> </text>
</g>
<!-- Node10&#45;&gt;Node6 -->
<g id="edge9" class="edge"><title>Node10&#45;&gt;Node6</title>
<path fill="none" stroke="#404040" d="M325.999,-647.81C304.645,-621.444 274.174,-583.553 248,-550 247.437,-549.278 246.871,-548.552 246.303,-547.822"/>
<polygon fill="none" stroke="#404040" points="246.182,-547.666 239.346,-545.373 238.834,-538.18 245.67,-540.473 246.182,-547.666"/>
<text text-anchor="middle" x="309.5" y="-582.5" font-family="Helvetica,sans-Serif" font-size="10.00"> &#45;fPortsIn</text>
</g>
<!-- Node11 -->
<g id="node11" class="node"><title>Node11</title>
<g id="a_node11"><a xlink:href="../../df/dbb/interfaceppm__java_1_1typelib_1_1_i_evented.html" target="_top" xlink:title="Base interface for the event system. ">
<polygon fill="white" stroke="black" points="257,-388 257,-544 411,-544 411,-388 257,-388"/>
<text text-anchor="middle" x="334" y="-532" font-family="Helvetica,sans-Serif" font-size="10.00">IEvented</text>
<polyline fill="none" stroke="black" points="257,-525 411,-525 "/>
<text text-anchor="start" x="265" y="-513" font-family="Helvetica,sans-Serif" font-size="10.00">+ gkEventBufferNotifyOverrun</text>
<text text-anchor="start" x="265" y="-502" font-family="Helvetica,sans-Serif" font-size="10.00">+ gkEventBufferNotifyUnderrun</text>
<text text-anchor="start" x="265" y="-491" font-family="Helvetica,sans-Serif" font-size="10.00">+ gkEventStart</text>
<text text-anchor="start" x="265" y="-480" font-family="Helvetica,sans-Serif" font-size="10.00">+ gkEventStop</text>
<text text-anchor="start" x="265" y="-469" font-family="Helvetica,sans-Serif" font-size="10.00">+ gkEventTimerAdjustInterval</text>
<text text-anchor="start" x="265" y="-458" font-family="Helvetica,sans-Serif" font-size="10.00">+ gkEventTimerNotifyInterval</text>
<text text-anchor="start" x="265" y="-447" font-family="Helvetica,sans-Serif" font-size="10.00">+ gkEventTimerTick</text>
<polyline fill="none" stroke="black" points="257,-440 411,-440 "/>
<text text-anchor="start" x="265" y="-428" font-family="Helvetica,sans-Serif" font-size="10.00">+ OnEvent()</text>
<text text-anchor="start" x="265" y="-417" font-family="Helvetica,sans-Serif" font-size="10.00">+ OnEvent()</text>
<text text-anchor="start" x="265" y="-406" font-family="Helvetica,sans-Serif" font-size="10.00">+ OnEvent()</text>
<text text-anchor="start" x="265" y="-395" font-family="Helvetica,sans-Serif" font-size="10.00">+ OnEvent()</text>
</a>
</g>
</g>
<!-- Node11&#45;&gt;Node5 -->
<g id="edge10" class="edge"><title>Node11&#45;&gt;Node5</title>
<path fill="none" stroke="midnightblue" d="M384.736,-378.894C401.029,-351.242 419.402,-320.061 436.922,-290.327"/>
<polygon fill="none" stroke="midnightblue" points="381.583,-377.35 379.522,-387.742 387.614,-380.903 381.583,-377.35"/>
</g>
<!-- Node12 -->
<g id="node12" class="node"><title>Node12</title>
<g id="a_node12"><a xlink:href="../../dc/dc0/interfaceppm__java_1_1typelib_1_1_i_stat_enabled.html" target="_top" xlink:title="Interface for an object that supports runtime statistics. ">
<polygon fill="white" stroke="black" points="429.5,-437.5 429.5,-494.5 502.5,-494.5 502.5,-437.5 429.5,-437.5"/>
<text text-anchor="middle" x="466" y="-482.5" font-family="Helvetica,sans-Serif" font-size="10.00">IStatEnabled</text>
<polyline fill="none" stroke="black" points="429.5,-475.5 502.5,-475.5 "/>
<text text-anchor="middle" x="466" y="-463.5" font-family="Helvetica,sans-Serif" font-size="10.00"> </text>
<polyline fill="none" stroke="black" points="429.5,-456.5 502.5,-456.5 "/>
<text text-anchor="start" x="437.5" y="-444.5" font-family="Helvetica,sans-Serif" font-size="10.00">+ StatsGet()</text>
</a>
</g>
</g>
<!-- Node12&#45;&gt;Node5 -->
<g id="edge11" class="edge"><title>Node12&#45;&gt;Node5</title>
<path fill="none" stroke="midnightblue" d="M471.45,-427.355C475.023,-402.68 479.968,-368.525 485.098,-333.094"/>
<polygon fill="none" stroke="midnightblue" points="467.976,-426.927 470.007,-437.326 474.904,-427.93 467.976,-426.927"/>
</g>
<!-- Node13 -->
<g id="node13" class="node"><title>Node13</title>
<polygon fill="white" stroke="#bfbfbf" points="520.5,-437.5 520.5,-494.5 585.5,-494.5 585.5,-437.5 520.5,-437.5"/>
<text text-anchor="middle" x="553" y="-482.5" font-family="Helvetica,sans-Serif" font-size="10.00">FloatBuffer</text>
<polyline fill="none" stroke="#bfbfbf" points="520.5,-475.5 585.5,-475.5 "/>
<text text-anchor="middle" x="553" y="-463.5" font-family="Helvetica,sans-Serif" font-size="10.00"> </text>
<polyline fill="none" stroke="#bfbfbf" points="520.5,-456.5 585.5,-456.5 "/>
<text text-anchor="middle" x="553" y="-444.5" font-family="Helvetica,sans-Serif" font-size="10.00"> </text>
</g>
<!-- Node13&#45;&gt;Node5 -->
<g id="edge12" class="edge"><title>Node13&#45;&gt;Node5</title>
<path fill="none" stroke="#404040" d="M548.9,-437.326C545.584,-414.943 540.604,-381.33 535.277,-345.367"/>
<polygon fill="none" stroke="#404040" points="535.217,-344.964 530.381,-339.615 533.458,-333.094 538.295,-338.443 535.217,-344.964"/>
<text text-anchor="middle" x="562.5" y="-355.5" font-family="Helvetica,sans-Serif" font-size="10.00"> &#45;fInPacket</text>
</g>
<!-- Node14 -->
<g id="node14" class="node"><title>Node14</title>
<polygon fill="white" stroke="#bfbfbf" points="784,-653.5 784,-710.5 852,-710.5 852,-653.5 784,-653.5"/>
<text text-anchor="middle" x="818" y="-698.5" font-family="Helvetica,sans-Serif" font-size="10.00">AtomicLong</text>
<polyline fill="none" stroke="#bfbfbf" points="784,-691.5 852,-691.5 "/>
<text text-anchor="middle" x="818" y="-679.5" font-family="Helvetica,sans-Serif" font-size="10.00"> </text>
<polyline fill="none" stroke="#bfbfbf" points="784,-672.5 852,-672.5 "/>
<text text-anchor="middle" x="818" y="-660.5" font-family="Helvetica,sans-Serif" font-size="10.00"> </text>
</g>
<!-- Node14&#45;&gt;Node1 -->
<g id="edge14" class="edge"><title>Node14&#45;&gt;Node1</title>
<path fill="none" stroke="#404040" d="M817.547,-653.249C816.046,-629.243 811.127,-594.346 796,-568 788.431,-554.817 778.502,-542.483 767.646,-531.276"/>
<polygon fill="none" stroke="#404040" points="767.319,-530.954 760.237,-529.595 758.768,-522.535 765.85,-523.894 767.319,-530.954"/>
<text text-anchor="middle" x="863.5" y="-593.5" font-family="Helvetica,sans-Serif" font-size="10.00"> &#45;fNumSamplesPerCycle</text>
<text text-anchor="middle" x="863.5" y="-582.5" font-family="Helvetica,sans-Serif" font-size="10.00">&#45;fTimeCycle</text>
<text text-anchor="middle" x="863.5" y="-571.5" font-family="Helvetica,sans-Serif" font-size="10.00">&#45;fSampleRate</text>
</g>
</g>
</svg>
        <g id="navigator" transform="translate(0 0)" fill="#404254">
                <rect fill="#f2f5e9" fill-opacity="0.5" stroke="#606060" stroke-width=".5" x="0" y="0" width="60" height="60"/>
                <use id="zoomplus" xlink:href="#zoomPlus" x="17" y="9" onmousedown="handleZoom(evt,'in')"/>
                <use id="zoomminus" xlink:href="#zoomMin" x="42" y="9" onmousedown="handleZoom(evt,'out')"/>
                <use id="reset" xlink:href="#resetDef" x="30" y="36" onmousedown="handleReset()"/>
                <g id="arrowUp" xlink:href="#dirArrow" transform="translate(30 24)" onmousedown="handlePan(0,-1)">
                  <use xlink:href="#rim" fill="#404040">
                        <set attributeName="fill" to="#808080" begin="arrowUp.mouseover" end="arrowUp.mouseout"/>
                  </use>
                  <path fill="none" stroke="white" stroke-width="1.5" d="M0,-3.0v7 M-2.5,-0.5L0,-3.0L2.5,-0.5"/>
                </g>
                <g id="arrowRight" xlink:href="#dirArrow" transform="rotate(90) translate(36 -43)" onmousedown="handlePan(1,0)">
                  <use xlink:href="#rim" fill="#404040">
                        <set attributeName="fill" to="#808080" begin="arrowRight.mouseover" end="arrowRight.mouseout"/>
                  </use>
                  <path fill="none" stroke="white" stroke-width="1.5" d="M0,-3.0v7 M-2.5,-0.5L0,-3.0L2.5,-0.5"/>
                </g>
                <g id="arrowDown" xlink:href="#dirArrow" transform="rotate(180) translate(-30 -48)" onmousedown="handlePan(0,1)">
                  <use xlink:href="#rim" fill="#404040">
                        <set attributeName="fill" to="#808080" begin="arrowDown.mouseover" end="arrowDown.mouseout"/>
                  </use>
                  <path fill="none" stroke="white" stroke-width="1.5" d="M0,-3.0v7 M-2.5,-0.5L0,-3.0L2.5,-0.5"/>
                </g>
                <g id="arrowLeft" xlink:href="#dirArrow" transform="rotate(270) translate(-36 17)" onmousedown="handlePan(-1,0)">
                  <use xlink:href="#rim" fill="#404040">
                        <set attributeName="fill" to="#808080" begin="arrowLeft.mouseover" end="arrowLeft.mouseout"/>
                  </use>
                  <path fill="none" stroke="white" stroke-width="1.5" d="M0,-3.0v7 M-2.5,-0.5L0,-3.0L2.5,-0.5"/>
                </g>
        </g>
        <svg viewBox="0 0 15 15" width="100%" height="30px" preserveAspectRatio="xMaxYMin meet">
         <g id="arrow_out" transform="scale(0.3 0.3)">
          <a xlink:href="classppm__java_1_1backend_1_1module_1_1__deprecated__ppm_1_1_t_node_p_p_m_processor___stats__coll__graph_org.svg" target="_base">
           <rect id="button" ry="5" rx="5" y="6" x="6" height="38" width="38"
                fill="#f2f5e9" fill-opacity="0.5" stroke="#606060" stroke-width="1.0"/>
           <path id="arrow"
             d="M 11.500037,31.436501 C 11.940474,20.09759 22.043105,11.32322 32.158766,21.979434 L 37.068811,17.246167 C 37.068811,17.246167 37.088388,32 37.088388,32 L 22.160133,31.978069 C 22.160133,31.978069 26.997745,27.140456 26.997745,27.140456 C 18.528582,18.264221 13.291696,25.230495 11.500037,31.436501 z"
             style="fill:#404040;"/>
          </a>
         </g>
        </svg>
</svg>
