<?xml version="1.0" encoding="UTF-8" standalone="no"?>
<!DOCTYPE svg PUBLIC "-//W3C//DTD SVG 1.1//EN"
 "http://www.w3.org/Graphics/SVG/1.1/DTD/svg11.dtd">
<!-- Generated by graphviz version 2.36.0 (20140111.2315)
 -->
<!-- Title: Create_Port_Out Pages: 1 -->
<svg width="410pt" height="38pt"
 viewBox="0.00 0.00 410.00 38.00" xmlns="http://www.w3.org/2000/svg" xmlns:xlink="http://www.w3.org/1999/xlink">
<g id="graph0" class="graph" transform="scale(1 1) rotate(0) translate(4 34)">
<title>Create_Port_Out</title>
<polygon fill="white" stroke="none" points="-4,4 -4,-34 406,-34 406,4 -4,4"/>
<!-- Node1 -->
<g id="node1" class="node"><title>Node1</title>
<polygon fill="#bfbfbf" stroke="black" points="0,-5.5 0,-24.5 90,-24.5 90,-5.5 0,-5.5"/>
<text text-anchor="middle" x="45" y="-12.5" font-family="Helvetica,sans-Serif" font-size="10.00">Create_Port_Out</text>
</g>
<!-- Node2 -->
<g id="node2" class="node"><title>Node2</title>
<g id="a_node2"><a xlink:href="../../df/d79/classppm__java_1_1backend_1_1_t_controller.html#aafdb47c9c900c8052bbb9d27e147c766" target="_top" xlink:title="Looks up an audio object by ID. ">
<polygon fill="white" stroke="black" points="126.5,-5.5 126.5,-24.5 217.5,-24.5 217.5,-5.5 126.5,-5.5"/>
<text text-anchor="middle" x="172" y="-12.5" font-family="Helvetica,sans-Serif" font-size="10.00">_GetAudioObject</text>
</a>
</g>
</g>
<!-- Node1&#45;&gt;Node2 -->
<g id="edge1" class="edge"><title>Node1&#45;&gt;Node2</title>
<path fill="none" stroke="midnightblue" d="M90.0703,-15C98.5578,-15 107.543,-15 116.32,-15"/>
<polygon fill="midnightblue" stroke="midnightblue" points="116.484,-18.5001 126.484,-15 116.484,-11.5001 116.484,-18.5001"/>
</g>
<!-- Node3 -->
<g id="node3" class="node"><title>Node3</title>
<g id="a_node3"><a xlink:href="../../d6/d7c/classppm__java_1_1backend_1_1_t_registry.html#a1dd73f977e1e9c1b07944ebfb2fd3c77" target="_top" xlink:title="Queries the central storage for object id. ">
<polygon fill="white" stroke="black" points="254.5,-0 254.5,-30 401.5,-30 401.5,-0 254.5,-0"/>
<text text-anchor="start" x="262.5" y="-18" font-family="Helvetica,sans-Serif" font-size="10.00">ppm_java.backend.TRegistry.</text>
<text text-anchor="middle" x="328" y="-7" font-family="Helvetica,sans-Serif" font-size="10.00">GetObject</text>
</a>
</g>
</g>
<!-- Node2&#45;&gt;Node3 -->
<g id="edge2" class="edge"><title>Node2&#45;&gt;Node3</title>
<path fill="none" stroke="midnightblue" d="M217.543,-15C226.024,-15 235.148,-15 244.38,-15"/>
<polygon fill="midnightblue" stroke="midnightblue" points="244.414,-18.5001 254.414,-15 244.414,-11.5001 244.414,-18.5001"/>
</g>
</g>
</svg>
