<?xml version="1.0" encoding="UTF-8" standalone="no"?>
<!DOCTYPE svg PUBLIC "-//W3C//DTD SVG 1.1//EN"
 "http://www.w3.org/Graphics/SVG/1.1/DTD/svg11.dtd">
<!-- Generated by graphviz version 2.36.0 (20140111.2315)
 -->
<!-- Title: _GetAudioObject Pages: 1 -->
<svg width="226pt" height="66pt"
 viewBox="0.00 0.00 226.00 66.00" xmlns="http://www.w3.org/2000/svg" xmlns:xlink="http://www.w3.org/1999/xlink">
<g id="graph0" class="graph" transform="scale(1 1) rotate(0) translate(4 62)">
<title>_GetAudioObject</title>
<polygon fill="white" stroke="none" points="-4,4 -4,-62 222,-62 222,4 -4,4"/>
<!-- Node1 -->
<g id="node1" class="node"><title>Node1</title>
<polygon fill="#bfbfbf" stroke="black" points="0.5,-19.5 0.5,-38.5 91.5,-38.5 91.5,-19.5 0.5,-19.5"/>
<text text-anchor="middle" x="46" y="-26.5" font-family="Helvetica,sans-Serif" font-size="10.00">_GetAudioObject</text>
</g>
<!-- Node2 -->
<g id="node2" class="node"><title>Node2</title>
<g id="a_node2"><a xlink:href="../../df/d79/classppm__java_1_1backend_1_1_t_controller.html#a840dd5e2bf669143e3fcfbd395f69a05" target="_top" xlink:title="Creates an input port on a module. ">
<polygon fill="white" stroke="black" points="131.5,-38.5 131.5,-57.5 214.5,-57.5 214.5,-38.5 131.5,-38.5"/>
<text text-anchor="middle" x="173" y="-45.5" font-family="Helvetica,sans-Serif" font-size="10.00">Create_Port_In</text>
</a>
</g>
</g>
<!-- Node1&#45;&gt;Node2 -->
<g id="edge1" class="edge"><title>Node1&#45;&gt;Node2</title>
<path fill="none" stroke="midnightblue" d="M101.921,-37.348C111.786,-38.8475 121.907,-40.3859 131.281,-41.8107"/>
<polygon fill="midnightblue" stroke="midnightblue" points="102.187,-33.8483 91.7748,-35.8058 101.135,-40.7688 102.187,-33.8483"/>
</g>
<!-- Node3 -->
<g id="node3" class="node"><title>Node3</title>
<g id="a_node3"><a xlink:href="../../df/d79/classppm__java_1_1backend_1_1_t_controller.html#a8411f5bb89772321ad7f3fb75ea7755d" target="_top" xlink:title="Creates an output port on a module. ">
<polygon fill="white" stroke="black" points="128,-0.5 128,-19.5 218,-19.5 218,-0.5 128,-0.5"/>
<text text-anchor="middle" x="173" y="-7.5" font-family="Helvetica,sans-Serif" font-size="10.00">Create_Port_Out</text>
</a>
</g>
</g>
<!-- Node1&#45;&gt;Node3 -->
<g id="edge2" class="edge"><title>Node1&#45;&gt;Node3</title>
<path fill="none" stroke="midnightblue" d="M101.88,-20.6582C110.603,-19.3324 119.526,-17.976 127.957,-16.6945"/>
<polygon fill="midnightblue" stroke="midnightblue" points="101.135,-17.2312 91.7748,-22.1942 102.187,-24.1517 101.135,-17.2312"/>
</g>
</g>
</svg>
