<?xml version="1.0" encoding="UTF-8" standalone="no"?>
<!DOCTYPE svg PUBLIC "-//W3C//DTD SVG 1.1//EN"
 "http://www.w3.org/Graphics/SVG/1.1/DTD/svg11.dtd">
<!-- Generated by graphviz version 2.36.0 (20140111.2315)
 -->
<!-- Title: GetPortNum Pages: 1 -->
<svg width="340pt" height="206pt"
 viewBox="0.00 0.00 340.00 206.00" xmlns="http://www.w3.org/2000/svg" xmlns:xlink="http://www.w3.org/1999/xlink">
<g id="graph0" class="graph" transform="scale(1 1) rotate(0) translate(4 202)">
<title>GetPortNum</title>
<polygon fill="white" stroke="none" points="-4,4 -4,-202 336,-202 336,4 -4,4"/>
<!-- Node1 -->
<g id="node1" class="node"><title>Node1</title>
<polygon fill="#bfbfbf" stroke="black" points="0.5,-97.5 0.5,-116.5 71.5,-116.5 71.5,-97.5 0.5,-97.5"/>
<text text-anchor="middle" x="36" y="-104.5" font-family="Helvetica,sans-Serif" font-size="10.00">GetPortNum</text>
</g>
<!-- Node2 -->
<g id="node2" class="node"><title>Node2</title>
<g id="a_node2"><a xlink:href="../../d9/d1a/classppm__java_1_1frontend_1_1gui_1_1lineargauge_1_1_t_g_u_i_linear_gauge___endpoint___in.html#a070991ed1ae6ed10f2f2026d9816f90a" target="_top" xlink:title="ppm_java.frontend.gui.lineargauge.\lTGUILinearGauge_Endpoint_In.ReceiveSample">
<polygon fill="white" stroke="black" points="108,-168 108,-198 332,-198 332,-168 108,-168"/>
<text text-anchor="start" x="116" y="-186" font-family="Helvetica,sans-Serif" font-size="10.00">ppm_java.frontend.gui.lineargauge.</text>
<text text-anchor="middle" x="220" y="-175" font-family="Helvetica,sans-Serif" font-size="10.00">TGUILinearGauge_Endpoint_In.ReceiveSample</text>
</a>
</g>
</g>
<!-- Node1&#45;&gt;Node2 -->
<g id="edge1" class="edge"><title>Node1&#45;&gt;Node2</title>
<path fill="none" stroke="midnightblue" d="M55.3566,-123.373C68.9845,-134.695 88.5102,-149.244 108,-158 116.559,-161.845 125.763,-165.124 135.079,-167.914"/>
<polygon fill="midnightblue" stroke="midnightblue" points="57.5631,-120.654 47.6864,-116.82 53.0164,-125.977 57.5631,-120.654"/>
</g>
<!-- Node3 -->
<g id="node3" class="node"><title>Node3</title>
<g id="a_node3"><a xlink:href="../../d7/d0d/classppm__java_1_1frontend_1_1gui_1_1needle_1_1_t_g_u_i_needle___endpoint___in.html#a070991ed1ae6ed10f2f2026d9816f90a" target="_top" xlink:title="ppm_java.frontend.gui.needle.\lTGUINeedle_Endpoint_In.ReceiveSample">
<polygon fill="white" stroke="black" points="120,-119 120,-149 320,-149 320,-119 120,-119"/>
<text text-anchor="start" x="128" y="-137" font-family="Helvetica,sans-Serif" font-size="10.00">ppm_java.frontend.gui.needle.</text>
<text text-anchor="middle" x="220" y="-126" font-family="Helvetica,sans-Serif" font-size="10.00">TGUINeedle_Endpoint_In.ReceiveSample</text>
</a>
</g>
</g>
<!-- Node1&#45;&gt;Node3 -->
<g id="edge2" class="edge"><title>Node1&#45;&gt;Node3</title>
<path fill="none" stroke="midnightblue" d="M81.897,-113.661C93.4931,-115.381 106.447,-117.303 119.637,-119.259"/>
<polygon fill="midnightblue" stroke="midnightblue" points="82.0666,-110.147 71.6612,-112.142 81.0393,-117.072 82.0666,-110.147"/>
</g>
<!-- Node4 -->
<g id="node4" class="node"><title>Node4</title>
<g id="a_node4"><a xlink:href="../../d5/d31/classppm__java_1_1frontend_1_1console_1_1lineargauge_1_1_t_console___linear_gauge___endpoint___in.html#a070991ed1ae6ed10f2f2026d9816f90a" target="_top" xlink:title="ppm_java.frontend.console.lineargauge.\lTConsole_LinearGauge_Endpoint\l_In.ReceiveSample">
<polygon fill="white" stroke="black" points="125.5,-59.5 125.5,-100.5 314.5,-100.5 314.5,-59.5 125.5,-59.5"/>
<text text-anchor="start" x="133.5" y="-88.5" font-family="Helvetica,sans-Serif" font-size="10.00">ppm_java.frontend.console.lineargauge.</text>
<text text-anchor="start" x="133.5" y="-77.5" font-family="Helvetica,sans-Serif" font-size="10.00">TConsole_LinearGauge_Endpoint</text>
<text text-anchor="middle" x="220" y="-66.5" font-family="Helvetica,sans-Serif" font-size="10.00">_In.ReceiveSample</text>
</a>
</g>
</g>
<!-- Node1&#45;&gt;Node4 -->
<g id="edge3" class="edge"><title>Node1&#45;&gt;Node4</title>
<path fill="none" stroke="midnightblue" d="M81.897,-100.339C95.176,-98.3695 110.235,-96.1355 125.391,-93.8871"/>
<polygon fill="midnightblue" stroke="midnightblue" points="81.0393,-96.9283 71.6612,-101.858 82.0666,-103.853 81.0393,-96.9283"/>
</g>
<!-- Node5 -->
<g id="node5" class="node"><title>Node5</title>
<g id="a_node5"><a xlink:href="../../d9/d7c/classppm__java_1_1frontend_1_1console_1_1text_1_1_t_console___text_out___endpoint___in.html#a070991ed1ae6ed10f2f2026d9816f90a" target="_top" xlink:title="ppm_java.frontend.console.text.\lTConsole_TextOut_Endpoint\l_In.ReceiveSample">
<polygon fill="white" stroke="black" points="142,0.5 142,-40.5 298,-40.5 298,0.5 142,0.5"/>
<text text-anchor="start" x="150" y="-28.5" font-family="Helvetica,sans-Serif" font-size="10.00">ppm_java.frontend.console.text.</text>
<text text-anchor="start" x="150" y="-17.5" font-family="Helvetica,sans-Serif" font-size="10.00">TConsole_TextOut_Endpoint</text>
<text text-anchor="middle" x="220" y="-6.5" font-family="Helvetica,sans-Serif" font-size="10.00">_In.ReceiveSample</text>
</a>
</g>
</g>
<!-- Node1&#45;&gt;Node5 -->
<g id="edge4" class="edge"><title>Node1&#45;&gt;Node5</title>
<path fill="none" stroke="midnightblue" d="M53.7351,-90.1983C67.2953,-77.467 87.4614,-60.4384 108,-50 118.589,-44.6186 130.251,-40.1181 141.917,-36.3798"/>
<polygon fill="midnightblue" stroke="midnightblue" points="50.964,-88.0086 46.2013,-97.4726 55.8263,-93.0443 50.964,-88.0086"/>
</g>
</g>
</svg>
