<?xml version="1.0" encoding="UTF-8" standalone="no"?>
<!DOCTYPE svg PUBLIC "-//W3C//DTD SVG 1.1//EN"
 "http://www.w3.org/Graphics/SVG/1.1/DTD/svg11.dtd">
<!-- Generated by graphviz version 2.36.0 (20140111.2315)
 -->
<!-- Title: TWndDebug Pages: 1 -->
<svg width="229pt" height="194pt"
 viewBox="0.00 0.00 229.00 194.00" xmlns="http://www.w3.org/2000/svg" xmlns:xlink="http://www.w3.org/1999/xlink">
<g id="graph0" class="graph" transform="scale(1 1) rotate(0) translate(4 190)">
<title>TWndDebug</title>
<polygon fill="white" stroke="none" points="-4,4 -4,-190 225,-190 225,4 -4,4"/>
<!-- Node1 -->
<g id="node1" class="node"><title>Node1</title>
<polygon fill="#bfbfbf" stroke="black" points="50.5,-0.5 50.5,-79.5 147.5,-79.5 147.5,-0.5 50.5,-0.5"/>
<text text-anchor="middle" x="99" y="-67.5" font-family="Helvetica,sans-Serif" font-size="10.00">TWndDebug</text>
<polyline fill="none" stroke="black" points="50.5,-60.5 147.5,-60.5 "/>
<text text-anchor="start" x="58.5" y="-48.5" font-family="Helvetica,sans-Serif" font-size="10.00">&#45; serialVersionUID</text>
<polyline fill="none" stroke="black" points="50.5,-41.5 147.5,-41.5 "/>
<text text-anchor="start" x="58.5" y="-29.5" font-family="Helvetica,sans-Serif" font-size="10.00">+ TWndDebug()</text>
<text text-anchor="start" x="58.5" y="-18.5" font-family="Helvetica,sans-Serif" font-size="10.00">+ Show()</text>
<text text-anchor="start" x="58.5" y="-7.5" font-family="Helvetica,sans-Serif" font-size="10.00">+ SetText()</text>
</g>
<!-- Node1&#45;&gt;Node1 -->
<g id="edge3" class="edge"><title>Node1&#45;&gt;Node1</title>
<path fill="none" stroke="#404040" d="M147.64,-51.5781C157.738,-50.3594 165,-46.5 165,-40 165,-36.4453 162.828,-33.6804 159.208,-31.7052"/>
<polygon fill="none" stroke="#404040" points="159.184,-31.6983 152.32,-33.9081 147.64,-28.4219 154.504,-26.2121 159.184,-31.6983"/>
<text text-anchor="middle" x="181" y="-37.5" font-family="Helvetica,sans-Serif" font-size="10.00"> &#45;gWnd</text>
</g>
<!-- Node2 -->
<g id="node2" class="node"><title>Node2</title>
<polygon fill="white" stroke="#bfbfbf" points="0,-128.5 0,-185.5 50,-185.5 50,-128.5 0,-128.5"/>
<text text-anchor="middle" x="25" y="-173.5" font-family="Helvetica,sans-Serif" font-size="10.00">JFrame</text>
<polyline fill="none" stroke="#bfbfbf" points="0,-166.5 50,-166.5 "/>
<text text-anchor="middle" x="25" y="-154.5" font-family="Helvetica,sans-Serif" font-size="10.00"> </text>
<polyline fill="none" stroke="#bfbfbf" points="0,-147.5 50,-147.5 "/>
<text text-anchor="middle" x="25" y="-135.5" font-family="Helvetica,sans-Serif" font-size="10.00"> </text>
</g>
<!-- Node2&#45;&gt;Node1 -->
<g id="edge1" class="edge"><title>Node2&#45;&gt;Node1</title>
<path fill="none" stroke="midnightblue" d="M48.2349,-119.892C56.4744,-107.087 65.776,-92.6319 74.1452,-79.6258"/>
<polygon fill="none" stroke="midnightblue" points="45.1929,-118.151 42.7248,-128.455 51.0795,-121.939 45.1929,-118.151"/>
</g>
<!-- Node3 -->
<g id="node3" class="node"><title>Node3</title>
<polygon fill="white" stroke="#bfbfbf" points="68,-128.5 68,-185.5 130,-185.5 130,-128.5 68,-128.5"/>
<text text-anchor="middle" x="99" y="-173.5" font-family="Helvetica,sans-Serif" font-size="10.00">JTextArea</text>
<polyline fill="none" stroke="#bfbfbf" points="68,-166.5 130,-166.5 "/>
<text text-anchor="middle" x="99" y="-154.5" font-family="Helvetica,sans-Serif" font-size="10.00"> </text>
<polyline fill="none" stroke="#bfbfbf" points="68,-147.5 130,-147.5 "/>
<text text-anchor="middle" x="99" y="-135.5" font-family="Helvetica,sans-Serif" font-size="10.00"> </text>
</g>
<!-- Node3&#45;&gt;Node1 -->
<g id="edge2" class="edge"><title>Node3&#45;&gt;Node1</title>
<path fill="none" stroke="#404040" d="M99,-128.455C99,-117.491 99,-104.511 99,-91.9527"/>
<polygon fill="none" stroke="#404040" points="99.0001,-91.6258 95,-85.6258 99,-79.6258 103,-85.6257 99.0001,-91.6258"/>
<text text-anchor="middle" x="125.5" y="-101.5" font-family="Helvetica,sans-Serif" font-size="10.00"> &#45;fTxtOutput</text>
</g>
<!-- Node4 -->
<g id="node4" class="node"><title>Node4</title>
<polygon fill="white" stroke="#bfbfbf" points="151.5,-128.5 151.5,-185.5 198.5,-185.5 198.5,-128.5 151.5,-128.5"/>
<text text-anchor="middle" x="175" y="-173.5" font-family="Helvetica,sans-Serif" font-size="10.00">JPanel</text>
<polyline fill="none" stroke="#bfbfbf" points="151.5,-166.5 198.5,-166.5 "/>
<text text-anchor="middle" x="175" y="-154.5" font-family="Helvetica,sans-Serif" font-size="10.00"> </text>
<polyline fill="none" stroke="#bfbfbf" points="151.5,-147.5 198.5,-147.5 "/>
<text text-anchor="middle" x="175" y="-135.5" font-family="Helvetica,sans-Serif" font-size="10.00"> </text>
</g>
<!-- Node4&#45;&gt;Node1 -->
<g id="edge4" class="edge"><title>Node4&#45;&gt;Node1</title>
<path fill="none" stroke="#404040" d="M167.034,-128.387C163.518,-118.402 158.839,-107.304 153,-98 151.166,-95.0774 149.166,-92.1755 147.052,-89.3188"/>
<polygon fill="none" stroke="#404040" points="146.965,-89.2086 140.1,-87.0014 139.497,-79.8155 146.362,-82.0227 146.965,-89.2086"/>
<text text-anchor="middle" x="190.5" y="-101.5" font-family="Helvetica,sans-Serif" font-size="10.00"> &#45;contentPane</text>
</g>
</g>
</svg>
