<?xml version="1.0" encoding="UTF-8" standalone="no"?>
<!DOCTYPE svg PUBLIC "-//W3C//DTD SVG 1.1//EN"
 "http://www.w3.org/Graphics/SVG/1.1/DTD/svg11.dtd">
<!-- Generated by graphviz version 2.36.0 (20140111.2315)
 -->
<!-- Title: TGUILinearGauge_Surrogate_Stats_Record Pages: 1 -->
<svg width="248pt" height="420pt"
 viewBox="0.00 0.00 248.00 420.00" xmlns="http://www.w3.org/2000/svg" xmlns:xlink="http://www.w3.org/1999/xlink">
<g id="graph0" class="graph" transform="scale(1 1) rotate(0) translate(4 416)">
<title>TGUILinearGauge_Surrogate_Stats_Record</title>
<polygon fill="white" stroke="none" points="-4,4 -4,-416 244,-416 244,4 -4,4"/>
<!-- Node1 -->
<g id="node1" class="node"><title>Node1</title>
<polygon fill="#bfbfbf" stroke="black" points="0,-0.5 0,-123.5 152,-123.5 152,-0.5 0,-0.5"/>
<text text-anchor="start" x="8" y="-111.5" font-family="Helvetica,sans-Serif" font-size="10.00">TGUILinearGauge_Surrogate</text>
<text text-anchor="middle" x="76" y="-100.5" font-family="Helvetica,sans-Serif" font-size="10.00">_Stats_Record</text>
<polyline fill="none" stroke="black" points="0,-93.5 152,-93.5 "/>
<text text-anchor="middle" x="76" y="-81.5" font-family="Helvetica,sans-Serif" font-size="10.00"> </text>
<polyline fill="none" stroke="black" points="0,-74.5 152,-74.5 "/>
<text text-anchor="start" x="8" y="-62.5" font-family="Helvetica,sans-Serif" font-size="10.00">+ TGUILinearGauge_Surrogate</text>
<text text-anchor="start" x="8" y="-51.5" font-family="Helvetica,sans-Serif" font-size="10.00">_Stats_Record()</text>
<text text-anchor="start" x="8" y="-40.5" font-family="Helvetica,sans-Serif" font-size="10.00">+ GetDumpStr()</text>
<text text-anchor="start" x="8" y="-29.5" font-family="Helvetica,sans-Serif" font-size="10.00">~ SetCalcSection()</text>
<text text-anchor="start" x="8" y="-18.5" font-family="Helvetica,sans-Serif" font-size="10.00">~ SetDBValue()</text>
<text text-anchor="start" x="8" y="-7.5" font-family="Helvetica,sans-Serif" font-size="10.00">~ SetDisplayValue()</text>
</g>
<!-- Node2 -->
<g id="node2" class="node"><title>Node2</title>
<polygon fill="white" stroke="#bfbfbf" points="62.5,-354.5 62.5,-411.5 139.5,-411.5 139.5,-354.5 62.5,-354.5"/>
<text text-anchor="middle" x="101" y="-399.5" font-family="Helvetica,sans-Serif" font-size="10.00">AtomicInteger</text>
<polyline fill="none" stroke="#bfbfbf" points="62.5,-392.5 139.5,-392.5 "/>
<text text-anchor="middle" x="101" y="-380.5" font-family="Helvetica,sans-Serif" font-size="10.00"> </text>
<polyline fill="none" stroke="#bfbfbf" points="62.5,-373.5 139.5,-373.5 "/>
<text text-anchor="middle" x="101" y="-361.5" font-family="Helvetica,sans-Serif" font-size="10.00"> </text>
</g>
<!-- Node2&#45;&gt;Node1 -->
<g id="edge1" class="edge"><title>Node2&#45;&gt;Node1</title>
<path fill="none" stroke="#404040" d="M86.6716,-354.296C80.1912,-340.232 73.2633,-322.64 70,-306 58.9199,-249.499 61.3546,-184.2 66.0456,-135.531"/>
<polygon fill="none" stroke="#404040" points="66.052,-135.468 62.687,-129.09 67.28,-123.531 70.645,-129.909 66.052,-135.468"/>
<text text-anchor="middle" x="101.5" y="-241.5" font-family="Helvetica,sans-Serif" font-size="10.00"> &#45;fCalcSection</text>
</g>
<!-- Node3 -->
<g id="node3" class="node"><title>Node3</title>
<g id="a_node3"><a xlink:href="../../d2/df7/classppm__java_1_1util_1_1storage_1_1_t_atomic_double.html" target="_top" xlink:title="An thread safe double value. ">
<polygon fill="white" stroke="black" points="141.5,-182.5 141.5,-305.5 240.5,-305.5 240.5,-182.5 141.5,-182.5"/>
<text text-anchor="middle" x="191" y="-293.5" font-family="Helvetica,sans-Serif" font-size="10.00">TAtomicDouble</text>
<polyline fill="none" stroke="black" points="141.5,-286.5 240.5,-286.5 "/>
<text text-anchor="start" x="149.5" y="-274.5" font-family="Helvetica,sans-Serif" font-size="10.00">&#45; fValue</text>
<text text-anchor="start" x="149.5" y="-263.5" font-family="Helvetica,sans-Serif" font-size="10.00">&#45; gkLocked</text>
<text text-anchor="start" x="149.5" y="-252.5" font-family="Helvetica,sans-Serif" font-size="10.00">&#45; gkUnlocked</text>
<polyline fill="none" stroke="black" points="141.5,-245.5 240.5,-245.5 "/>
<text text-anchor="start" x="149.5" y="-233.5" font-family="Helvetica,sans-Serif" font-size="10.00">+ TAtomicDouble()</text>
<text text-anchor="start" x="149.5" y="-222.5" font-family="Helvetica,sans-Serif" font-size="10.00">+ Get()</text>
<text text-anchor="start" x="149.5" y="-211.5" font-family="Helvetica,sans-Serif" font-size="10.00">+ Set()</text>
<text text-anchor="start" x="149.5" y="-200.5" font-family="Helvetica,sans-Serif" font-size="10.00">&#45; _Lock()</text>
<text text-anchor="start" x="149.5" y="-189.5" font-family="Helvetica,sans-Serif" font-size="10.00">&#45; _Unlock()</text>
</a>
</g>
</g>
<!-- Node2&#45;&gt;Node3 -->
<g id="edge3" class="edge"><title>Node2&#45;&gt;Node3</title>
<path fill="none" stroke="#404040" d="M119.213,-354.276C126.58,-343.061 135.454,-329.553 144.412,-315.918"/>
<polygon fill="none" stroke="#404040" points="144.666,-315.531 144.617,-308.32 151.255,-305.501 151.303,-312.712 144.666,-315.531"/>
<text text-anchor="middle" x="152.5" y="-327.5" font-family="Helvetica,sans-Serif" font-size="10.00"> &#45;fLock</text>
</g>
<!-- Node3&#45;&gt;Node1 -->
<g id="edge2" class="edge"><title>Node3&#45;&gt;Node1</title>
<path fill="none" stroke="#404040" d="M152.227,-182.311C142.331,-166.822 131.605,-150.033 121.41,-134.076"/>
<polygon fill="none" stroke="#404040" points="121.261,-133.844 114.66,-130.941 114.801,-123.731 121.402,-126.634 121.261,-133.844"/>
<text text-anchor="middle" x="183" y="-156" font-family="Helvetica,sans-Serif" font-size="10.00"> &#45;fLastDisplayValue</text>
<text text-anchor="middle" x="183" y="-145" font-family="Helvetica,sans-Serif" font-size="10.00">&#45;fLastDBValue</text>
</g>
</g>
</svg>
