<?xml version="1.0" encoding="UTF-8" standalone="no"?>
<!DOCTYPE svg PUBLIC "-//W3C//DTD SVG 1.1//EN"
 "http://www.w3.org/Graphics/SVG/1.1/DTD/svg11.dtd">
<!-- Generated by graphviz version 2.36.0 (20140111.2315)
 -->
<!-- Title: TGUINeedle_Surrogate Pages: 1 -->
<!--zoomable 1234 -->
<svg id="main" version="1.1" xmlns="http://www.w3.org/2000/svg" xmlns:xlink="http://www.w3.org/1999/xlink" xml:space="preserve" onload="init(evt)">
<style type="text/css"><![CDATA[
.edge:hover path { stroke: red; }
.edge:hover polygon { stroke: red; fill: red; }
]]></style>
<script type="text/javascript"><![CDATA[
var edges = document.getElementsByTagName('g');
if (edges && edges.length) {
  for (var i=0;i<edges.length;i++) {
    if (edges[i].id.substr(0,4)=='edge') {
      edges[i].setAttribute('class','edge');
    }
  }
}
]]></script>
        <defs>
                <circle id="rim" cx="0" cy="0" r="7"/>
                <circle id="rim2" cx="0" cy="0" r="3.5"/>
                <g id="zoomPlus">
                        <use xlink:href="#rim" fill="#404040">
                                <set attributeName="fill" to="#808080" begin="zoomplus.mouseover" end="zoomplus.mouseout"/>
                        </use>
                        <path d="M-4,0h8M0,-4v8" fill="none" stroke="white" stroke-width="1.5" pointer-events="none"/>
                </g>
                <g id="zoomMin">
                        <use xlink:href="#rim" fill="#404040">
                                <set attributeName="fill" to="#808080" begin="zoomminus.mouseover" end="zoomminus.mouseout"/>
                        </use>
                        <path d="M-4,0h8" fill="none" stroke="white" stroke-width="1.5" pointer-events="none"/>
                </g>
                <g id="dirArrow">
                        <path fill="none" stroke="white" stroke-width="1.5" d="M0,-3.0v7 M-2.5,-0.5L0,-3.0L2.5,-0.5"/>
                </g>
               <g id="resetDef">
                       <use xlink:href="#rim2" fill="#404040">
                               <set attributeName="fill" to="#808080" begin="reset.mouseover" end="reset.mouseout"/>
                       </use>
               </g>
        </defs>

<script type="text/javascript">
var viewWidth = 746;
var viewHeight = 1234;
var sectionId = 'dynsection-1';
</script>
<script xlink:href="../../svgpan.js"/>
<svg id="graph" class="graph">
<g id="viewport">
<title>TGUINeedle_Surrogate</title>
<polygon fill="white" stroke="none" points="-4,4 -4,-1230 742,-1230 742,4 -4,4"/>
<!-- Node1 -->
<g id="node1" class="node"><title>Node1</title>
<polygon fill="#bfbfbf" stroke="black" points="403.5,-509 403.5,-665 534.5,-665 534.5,-509 403.5,-509"/>
<text text-anchor="middle" x="469" y="-653" font-family="Helvetica,sans-Serif" font-size="10.00">TGUINeedle_Surrogate</text>
<polyline fill="none" stroke="black" points="403.5,-646 534.5,-646 "/>
<text text-anchor="start" x="411.5" y="-634" font-family="Helvetica,sans-Serif" font-size="10.00">&#45; gkLvlClip</text>
<text text-anchor="start" x="411.5" y="-623" font-family="Helvetica,sans-Serif" font-size="10.00">&#45; gkLvlWarn</text>
<polyline fill="none" stroke="black" points="403.5,-616 534.5,-616 "/>
<text text-anchor="start" x="411.5" y="-604" font-family="Helvetica,sans-Serif" font-size="10.00">+ CreatePort_In()</text>
<text text-anchor="start" x="411.5" y="-593" font-family="Helvetica,sans-Serif" font-size="10.00">+ Start()</text>
<text text-anchor="start" x="411.5" y="-582" font-family="Helvetica,sans-Serif" font-size="10.00">+ StatsGet()</text>
<text text-anchor="start" x="411.5" y="-571" font-family="Helvetica,sans-Serif" font-size="10.00">+ Stop()</text>
<text text-anchor="start" x="411.5" y="-560" font-family="Helvetica,sans-Serif" font-size="10.00">+ CreateInstance()</text>
<text text-anchor="start" x="411.5" y="-549" font-family="Helvetica,sans-Serif" font-size="10.00">~ OnTerminate()</text>
<text text-anchor="start" x="411.5" y="-538" font-family="Helvetica,sans-Serif" font-size="10.00">~ SetLevel()</text>
<text text-anchor="start" x="411.5" y="-527" font-family="Helvetica,sans-Serif" font-size="10.00"># _Register()</text>
<text text-anchor="start" x="411.5" y="-516" font-family="Helvetica,sans-Serif" font-size="10.00">&#45; TGUINeedle_Surrogate()</text>
</g>
<!-- Node1&#45;&gt;Node1 -->
<g id="edge9" class="edge"><title>Node1&#45;&gt;Node1</title>
<path fill="none" stroke="#404040" d="M534.753,-603.84C545.008,-601.322 552,-595.709 552,-587 552,-582.101 549.788,-578.182 546.027,-575.242"/>
<polygon fill="none" stroke="#404040" points="545.693,-575.092 538.579,-576.273 534.753,-570.16 541.866,-568.979 545.693,-575.092"/>
<text text-anchor="middle" x="567" y="-584.5" font-family="Helvetica,sans-Serif" font-size="10.00"> &#45;gGUI</text>
</g>
<!-- Node10 -->
<g id="node10" class="node"><title>Node10</title>
<g id="a_node10"><a xlink:href="../../dc/d65/classppm__java_1_1frontend_1_1gui_1_1needle_1_1_t_g_u_i_needle___surrogate___stats.html" target="_top" xlink:title="Combined runtime statistics for all channels. ">
<polygon fill="white" stroke="black" points="255,-281.5 255,-426.5 383,-426.5 383,-281.5 255,-281.5"/>
<text text-anchor="start" x="263" y="-414.5" font-family="Helvetica,sans-Serif" font-size="10.00">TGUINeedle_Surrogate</text>
<text text-anchor="middle" x="319" y="-403.5" font-family="Helvetica,sans-Serif" font-size="10.00">_Stats</text>
<polyline fill="none" stroke="black" points="255,-396.5 383,-396.5 "/>
<text text-anchor="start" x="263" y="-384.5" font-family="Helvetica,sans-Serif" font-size="10.00">&#45; fT0</text>
<polyline fill="none" stroke="black" points="255,-377.5 383,-377.5 "/>
<text text-anchor="start" x="263" y="-365.5" font-family="Helvetica,sans-Serif" font-size="10.00">+ TGUINeedle_Surrogate</text>
<text text-anchor="start" x="263" y="-354.5" font-family="Helvetica,sans-Serif" font-size="10.00">_Stats()</text>
<text text-anchor="start" x="263" y="-343.5" font-family="Helvetica,sans-Serif" font-size="10.00">+ GetDumpStr()</text>
<text text-anchor="start" x="263" y="-332.5" font-family="Helvetica,sans-Serif" font-size="10.00">~ AddChannel()</text>
<text text-anchor="start" x="263" y="-321.5" font-family="Helvetica,sans-Serif" font-size="10.00">~ OnCycleTick()</text>
<text text-anchor="start" x="263" y="-310.5" font-family="Helvetica,sans-Serif" font-size="10.00">~ SetCalcSection()</text>
<text text-anchor="start" x="263" y="-299.5" font-family="Helvetica,sans-Serif" font-size="10.00">~ SetDBValue()</text>
<text text-anchor="start" x="263" y="-288.5" font-family="Helvetica,sans-Serif" font-size="10.00">~ SetDisplayValue()</text>
</a>
</g>
</g>
<!-- Node1&#45;&gt;Node10 -->
<g id="edge13" class="edge"><title>Node1&#45;&gt;Node10</title>
<path fill="none" stroke="#404040" d="M445.468,-508.72C437.795,-490.384 428.061,-471.63 416,-456 407.855,-445.444 401.788,-447.054 392,-438 391.014,-437.088 390.027,-436.164 389.04,-435.228"/>
<polygon fill="none" stroke="#404040" points="388.758,-434.952 381.673,-433.612 380.185,-426.556 387.27,-427.896 388.758,-434.952"/>
<text text-anchor="middle" x="452.5" y="-470.5" font-family="Helvetica,sans-Serif" font-size="10.00"> &#45;fHost</text>
</g>
<!-- Node14 -->
<g id="node14" class="node"><title>Node14</title>
<g id="a_node14"><a xlink:href="../../de/d2b/classppm__java_1_1frontend_1_1gui_1_1needle_1_1_t_g_u_i_needle___wnd_p_p_m.html" target="_top" xlink:title="The PPM UI. ">
<polygon fill="white" stroke="black" points="562,-270.5 562,-437.5 696,-437.5 696,-270.5 562,-270.5"/>
<text text-anchor="middle" x="629" y="-425.5" font-family="Helvetica,sans-Serif" font-size="10.00">TGUINeedle_WndPPM</text>
<polyline fill="none" stroke="black" points="562,-418.5 696,-418.5 "/>
<text text-anchor="start" x="570" y="-406.5" font-family="Helvetica,sans-Serif" font-size="10.00">&#45; fMeterL</text>
<text text-anchor="start" x="570" y="-395.5" font-family="Helvetica,sans-Serif" font-size="10.00">&#45; fMeterR</text>
<text text-anchor="start" x="570" y="-384.5" font-family="Helvetica,sans-Serif" font-size="10.00">&#45; gkIChanL</text>
<text text-anchor="start" x="570" y="-373.5" font-family="Helvetica,sans-Serif" font-size="10.00">&#45; gkIChanR</text>
<text text-anchor="start" x="570" y="-362.5" font-family="Helvetica,sans-Serif" font-size="10.00">&#45; serialVersionUID</text>
<polyline fill="none" stroke="black" points="562,-355.5 696,-355.5 "/>
<text text-anchor="start" x="570" y="-343.5" font-family="Helvetica,sans-Serif" font-size="10.00">+ TGUINeedle_WndPPM()</text>
<text text-anchor="start" x="570" y="-332.5" font-family="Helvetica,sans-Serif" font-size="10.00">+ SetClipping()</text>
<text text-anchor="start" x="570" y="-321.5" font-family="Helvetica,sans-Serif" font-size="10.00">+ SetLevel()</text>
<text text-anchor="start" x="570" y="-310.5" font-family="Helvetica,sans-Serif" font-size="10.00">+ Terminate()</text>
<text text-anchor="start" x="570" y="-299.5" font-family="Helvetica,sans-Serif" font-size="10.00">~ _SetClipping()</text>
<text text-anchor="start" x="570" y="-288.5" font-family="Helvetica,sans-Serif" font-size="10.00">&#45; _OnWindowClosing()</text>
<text text-anchor="start" x="570" y="-277.5" font-family="Helvetica,sans-Serif" font-size="10.00">&#45; initComponents()</text>
</a>
</g>
</g>
<!-- Node1&#45;&gt;Node14 -->
<g id="edge21" class="edge"><title>Node1&#45;&gt;Node14</title>
<path fill="none" stroke="#404040" d="M471.512,-508.982C475.523,-489.797 482.9,-470.571 496,-456 511.43,-438.837 526.073,-448.891 551.203,-437.129"/>
<polygon fill="none" stroke="#404040" points="551.331,-437.057 554.601,-430.63 561.791,-431.177 558.521,-437.604 551.331,-437.057"/>
<text text-anchor="middle" x="523.5" y="-470.5" font-family="Helvetica,sans-Serif" font-size="10.00"> &#45;fConnector</text>
</g>
<!-- Node2 -->
<g id="node2" class="node"><title>Node2</title>
<g id="a_node2"><a xlink:href="../../da/d04/classppm__java_1_1typelib_1_1_v_frontend.html" target="_top" xlink:title="Base class for a front end. ">
<polygon fill="white" stroke="black" points="315,-704.5 315,-783.5 415,-783.5 415,-704.5 315,-704.5"/>
<text text-anchor="middle" x="365" y="-771.5" font-family="Helvetica,sans-Serif" font-size="10.00">VFrontend</text>
<polyline fill="none" stroke="black" points="315,-764.5 415,-764.5 "/>
<text text-anchor="middle" x="365" y="-752.5" font-family="Helvetica,sans-Serif" font-size="10.00"> </text>
<polyline fill="none" stroke="black" points="315,-745.5 415,-745.5 "/>
<text text-anchor="start" x="323" y="-733.5" font-family="Helvetica,sans-Serif" font-size="10.00">+ VFrontend()</text>
<text text-anchor="start" x="323" y="-722.5" font-family="Helvetica,sans-Serif" font-size="10.00">+ CreatePort_Out()</text>
<text text-anchor="start" x="323" y="-711.5" font-family="Helvetica,sans-Serif" font-size="10.00"># _OnTerminate()</text>
</a>
</g>
</g>
<!-- Node2&#45;&gt;Node1 -->
<g id="edge1" class="edge"><title>Node2&#45;&gt;Node1</title>
<path fill="none" stroke="midnightblue" d="M396.572,-695.946C403.105,-686.21 410.149,-675.711 417.189,-665.219"/>
<polygon fill="none" stroke="midnightblue" points="393.641,-694.033 390.975,-704.287 399.453,-697.933 393.641,-694.033"/>
</g>
<!-- Node3 -->
<g id="node3" class="node"><title>Node3</title>
<g id="a_node3"><a xlink:href="../../d5/d6a/classppm__java_1_1typelib_1_1_v_audio_processor.html" target="_top" xlink:title="Base class for all modules processing audio samples. ">
<polygon fill="white" stroke="black" points="311.5,-822.5 311.5,-989.5 418.5,-989.5 418.5,-822.5 311.5,-822.5"/>
<text text-anchor="middle" x="365" y="-977.5" font-family="Helvetica,sans-Serif" font-size="10.00">VAudioProcessor</text>
<polyline fill="none" stroke="black" points="311.5,-970.5 418.5,-970.5 "/>
<text text-anchor="middle" x="365" y="-958.5" font-family="Helvetica,sans-Serif" font-size="10.00"> </text>
<polyline fill="none" stroke="black" points="311.5,-951.5 418.5,-951.5 "/>
<text text-anchor="start" x="319.5" y="-939.5" font-family="Helvetica,sans-Serif" font-size="10.00">+ VAudioProcessor()</text>
<text text-anchor="start" x="319.5" y="-928.5" font-family="Helvetica,sans-Serif" font-size="10.00">+ CreatePort_In()</text>
<text text-anchor="start" x="319.5" y="-917.5" font-family="Helvetica,sans-Serif" font-size="10.00">+ CreatePort_Out()</text>
<text text-anchor="start" x="319.5" y="-906.5" font-family="Helvetica,sans-Serif" font-size="10.00">+ GetNumPortsIn()</text>
<text text-anchor="start" x="319.5" y="-895.5" font-family="Helvetica,sans-Serif" font-size="10.00">+ GetNumPortsOut()</text>
<text text-anchor="start" x="319.5" y="-884.5" font-family="Helvetica,sans-Serif" font-size="10.00">+ GetPortIn()</text>
<text text-anchor="start" x="319.5" y="-873.5" font-family="Helvetica,sans-Serif" font-size="10.00">+ GetPortIn()</text>
<text text-anchor="start" x="319.5" y="-862.5" font-family="Helvetica,sans-Serif" font-size="10.00">+ GetPortOut()</text>
<text text-anchor="start" x="319.5" y="-851.5" font-family="Helvetica,sans-Serif" font-size="10.00">+ GetPortOut()</text>
<text text-anchor="start" x="319.5" y="-840.5" font-family="Helvetica,sans-Serif" font-size="10.00"># AddPortIn()</text>
<text text-anchor="start" x="319.5" y="-829.5" font-family="Helvetica,sans-Serif" font-size="10.00"># AddPortOut()</text>
</a>
</g>
</g>
<!-- Node3&#45;&gt;Node2 -->
<g id="edge2" class="edge"><title>Node3&#45;&gt;Node2</title>
<path fill="none" stroke="midnightblue" d="M365,-812.166C365,-802.211 365,-792.529 365,-783.757"/>
<polygon fill="none" stroke="midnightblue" points="361.5,-812.188 365,-822.188 368.5,-812.188 361.5,-812.188"/>
</g>
<!-- Node4 -->
<g id="node4" class="node"><title>Node4</title>
<g id="a_node4"><a xlink:href="../../d1/db3/classppm__java_1_1typelib_1_1_v_audio_object.html" target="_top" xlink:title="Base class for all browseable audio objects. ">
<polygon fill="white" stroke="black" points="180,-1044.5 180,-1101.5 272,-1101.5 272,-1044.5 180,-1044.5"/>
<text text-anchor="middle" x="226" y="-1089.5" font-family="Helvetica,sans-Serif" font-size="10.00">VAudioObject</text>
<polyline fill="none" stroke="black" points="180,-1082.5 272,-1082.5 "/>
<text text-anchor="middle" x="226" y="-1070.5" font-family="Helvetica,sans-Serif" font-size="10.00"> </text>
<polyline fill="none" stroke="black" points="180,-1063.5 272,-1063.5 "/>
<text text-anchor="start" x="188" y="-1051.5" font-family="Helvetica,sans-Serif" font-size="10.00">+ VAudioObject()</text>
</a>
</g>
</g>
<!-- Node4&#45;&gt;Node3 -->
<g id="edge3" class="edge"><title>Node4&#45;&gt;Node3</title>
<path fill="none" stroke="midnightblue" d="M255.909,-1036.5C272.063,-1017.32 292.498,-993.064 311.303,-970.741"/>
<polygon fill="none" stroke="midnightblue" points="253.032,-1034.48 249.265,-1044.38 258.385,-1038.99 253.032,-1034.48"/>
</g>
<!-- Node5 -->
<g id="node5" class="node"><title>Node5</title>
<g id="a_node5"><a xlink:href="../../de/dd1/classppm__java_1_1typelib_1_1_v_browseable.html" target="_top" xlink:title="Base class for all browseable objects. ">
<polygon fill="white" stroke="black" points="181.5,-1146.5 181.5,-1225.5 270.5,-1225.5 270.5,-1146.5 181.5,-1146.5"/>
<text text-anchor="middle" x="226" y="-1213.5" font-family="Helvetica,sans-Serif" font-size="10.00">VBrowseable</text>
<polyline fill="none" stroke="black" points="181.5,-1206.5 270.5,-1206.5 "/>
<text text-anchor="start" x="189.5" y="-1194.5" font-family="Helvetica,sans-Serif" font-size="10.00">&#45; fID</text>
<polyline fill="none" stroke="black" points="181.5,-1187.5 270.5,-1187.5 "/>
<text text-anchor="start" x="189.5" y="-1175.5" font-family="Helvetica,sans-Serif" font-size="10.00">+ VBrowseable()</text>
<text text-anchor="start" x="189.5" y="-1164.5" font-family="Helvetica,sans-Serif" font-size="10.00">+ GetID()</text>
<text text-anchor="start" x="189.5" y="-1153.5" font-family="Helvetica,sans-Serif" font-size="10.00"># _Register()</text>
</a>
</g>
</g>
<!-- Node5&#45;&gt;Node4 -->
<g id="edge4" class="edge"><title>Node5&#45;&gt;Node4</title>
<path fill="none" stroke="midnightblue" d="M226,-1136.23C226,-1124.36 226,-1112.08 226,-1101.6"/>
<polygon fill="none" stroke="midnightblue" points="222.5,-1136.49 226,-1146.49 229.5,-1136.49 222.5,-1136.49"/>
</g>
<!-- Node6 -->
<g id="node6" class="node"><title>Node6</title>
<polygon fill="white" stroke="#bfbfbf" points="290,-1039 290,-1107 440,-1107 440,-1039 290,-1039"/>
<text text-anchor="start" x="298" y="-1095" font-family="Helvetica,sans-Serif" font-size="10.00">TArrayMap&lt; ppm_java.typelib.</text>
<text text-anchor="middle" x="365" y="-1084" font-family="Helvetica,sans-Serif" font-size="10.00">VAudioPort_Output &gt;</text>
<polyline fill="none" stroke="#bfbfbf" points="290,-1077 440,-1077 "/>
<text text-anchor="middle" x="365" y="-1065" font-family="Helvetica,sans-Serif" font-size="10.00"> </text>
<polyline fill="none" stroke="#bfbfbf" points="290,-1058 440,-1058 "/>
<text text-anchor="middle" x="365" y="-1046" font-family="Helvetica,sans-Serif" font-size="10.00"> </text>
</g>
<!-- Node6&#45;&gt;Node3 -->
<g id="edge5" class="edge"><title>Node6&#45;&gt;Node3</title>
<path fill="none" stroke="#404040" d="M365,-1038.61C365,-1027.72 365,-1015.04 365,-1001.93"/>
<polygon fill="none" stroke="#404040" points="365,-1001.81 361,-995.813 365,-989.813 369,-995.813 365,-1001.81"/>
<text text-anchor="middle" x="389.5" y="-1011.5" font-family="Helvetica,sans-Serif" font-size="10.00"> &#45;fPortsOut</text>
</g>
<!-- Node7 -->
<g id="node7" class="node"><title>Node7</title>
<polygon fill="white" stroke="#bfbfbf" points="458,-1039 458,-1107 608,-1107 608,-1039 458,-1039"/>
<text text-anchor="start" x="466" y="-1095" font-family="Helvetica,sans-Serif" font-size="10.00">TArrayMap&lt; ppm_java.typelib.</text>
<text text-anchor="middle" x="533" y="-1084" font-family="Helvetica,sans-Serif" font-size="10.00">VAudioPort_Input &gt;</text>
<polyline fill="none" stroke="#bfbfbf" points="458,-1077 608,-1077 "/>
<text text-anchor="middle" x="533" y="-1065" font-family="Helvetica,sans-Serif" font-size="10.00"> </text>
<polyline fill="none" stroke="#bfbfbf" points="458,-1058 608,-1058 "/>
<text text-anchor="middle" x="533" y="-1046" font-family="Helvetica,sans-Serif" font-size="10.00"> </text>
</g>
<!-- Node7&#45;&gt;Node3 -->
<g id="edge6" class="edge"><title>Node7&#45;&gt;Node3</title>
<path fill="none" stroke="#404040" d="M499.003,-1038.61C478.509,-1018.48 451.771,-992.221 427.575,-968.457"/>
<polygon fill="none" stroke="#404040" points="427.353,-968.24 420.269,-966.889 418.792,-959.831 425.875,-961.182 427.353,-968.24"/>
<text text-anchor="middle" x="499.5" y="-1011.5" font-family="Helvetica,sans-Serif" font-size="10.00"> &#45;fPortsIn</text>
</g>
<!-- Node8 -->
<g id="node8" class="node"><title>Node8</title>
<g id="a_node8"><a xlink:href="../../db/d44/interfaceppm__java_1_1typelib_1_1_i_controllable.html" target="_top" xlink:title="A module or construct which can receive some low level control commands (start/stop etc...">
<polygon fill="white" stroke="black" points="433.5,-710 433.5,-778 504.5,-778 504.5,-710 433.5,-710"/>
<text text-anchor="middle" x="469" y="-766" font-family="Helvetica,sans-Serif" font-size="10.00">IControllable</text>
<polyline fill="none" stroke="black" points="433.5,-759 504.5,-759 "/>
<text text-anchor="middle" x="469" y="-747" font-family="Helvetica,sans-Serif" font-size="10.00"> </text>
<polyline fill="none" stroke="black" points="433.5,-740 504.5,-740 "/>
<text text-anchor="start" x="441.5" y="-728" font-family="Helvetica,sans-Serif" font-size="10.00">+ Start()</text>
<text text-anchor="start" x="441.5" y="-717" font-family="Helvetica,sans-Serif" font-size="10.00">+ Stop()</text>
</a>
</g>
</g>
<!-- Node8&#45;&gt;Node1 -->
<g id="edge7" class="edge"><title>Node8&#45;&gt;Node1</title>
<path fill="none" stroke="midnightblue" d="M469,-699.435C469,-688.721 469,-676.93 469,-665.149"/>
<polygon fill="none" stroke="midnightblue" points="465.5,-699.749 469,-709.749 472.5,-699.749 465.5,-699.749"/>
</g>
<!-- Node9 -->
<g id="node9" class="node"><title>Node9</title>
<g id="a_node9"><a xlink:href="../../dc/dc0/interfaceppm__java_1_1typelib_1_1_i_stat_enabled.html" target="_top" xlink:title="Interface for an object that supports runtime statistics. ">
<polygon fill="white" stroke="black" points="522.5,-715.5 522.5,-772.5 595.5,-772.5 595.5,-715.5 522.5,-715.5"/>
<text text-anchor="middle" x="559" y="-760.5" font-family="Helvetica,sans-Serif" font-size="10.00">IStatEnabled</text>
<polyline fill="none" stroke="black" points="522.5,-753.5 595.5,-753.5 "/>
<text text-anchor="middle" x="559" y="-741.5" font-family="Helvetica,sans-Serif" font-size="10.00"> </text>
<polyline fill="none" stroke="black" points="522.5,-734.5 595.5,-734.5 "/>
<text text-anchor="start" x="530.5" y="-722.5" font-family="Helvetica,sans-Serif" font-size="10.00">+ StatsGet()</text>
</a>
</g>
</g>
<!-- Node9&#45;&gt;Node1 -->
<g id="edge8" class="edge"><title>Node9&#45;&gt;Node1</title>
<path fill="none" stroke="midnightblue" d="M537.841,-706.559C530.573,-694.043 522.14,-679.518 513.719,-665.016"/>
<polygon fill="none" stroke="midnightblue" points="534.862,-708.399 542.91,-715.289 540.915,-704.884 534.862,-708.399"/>
</g>
<!-- Node10&#45;&gt;Node1 -->
<g id="edge10" class="edge"><title>Node10&#45;&gt;Node1</title>
<path fill="none" stroke="#404040" d="M351.869,-426.79C362.464,-447.73 374.886,-470.272 388,-490 390.608,-493.923 393.352,-497.867 396.192,-501.802"/>
<polygon fill="none" stroke="#404040" points="396.27,-501.907 403.058,-504.341 403.422,-511.543 396.634,-509.109 396.27,-501.907"/>
<text text-anchor="middle" x="402" y="-470.5" font-family="Helvetica,sans-Serif" font-size="10.00"> &#45;fStat</text>
</g>
<!-- Node11 -->
<g id="node11" class="node"><title>Node11</title>
<g id="a_node11"><a xlink:href="../../d7/d5a/interfaceppm__java_1_1typelib_1_1_i_stats.html" target="_top" xlink:title="Interface for a statistics record. ">
<polygon fill="white" stroke="black" points="299,-558.5 299,-615.5 385,-615.5 385,-558.5 299,-558.5"/>
<text text-anchor="middle" x="342" y="-603.5" font-family="Helvetica,sans-Serif" font-size="10.00">IStats</text>
<polyline fill="none" stroke="black" points="299,-596.5 385,-596.5 "/>
<text text-anchor="middle" x="342" y="-584.5" font-family="Helvetica,sans-Serif" font-size="10.00"> </text>
<polyline fill="none" stroke="black" points="299,-577.5 385,-577.5 "/>
<text text-anchor="start" x="307" y="-565.5" font-family="Helvetica,sans-Serif" font-size="10.00">+ GetDumpStr()</text>
</a>
</g>
</g>
<!-- Node11&#45;&gt;Node10 -->
<g id="edge11" class="edge"><title>Node11&#45;&gt;Node10</title>
<path fill="none" stroke="midnightblue" d="M338.22,-548.036C334.945,-515.147 330.119,-466.673 326.122,-426.53"/>
<polygon fill="none" stroke="midnightblue" points="334.752,-548.532 339.226,-558.136 341.718,-547.838 334.752,-548.532"/>
</g>
<!-- Node12 -->
<g id="node12" class="node"><title>Node12</title>
<polygon fill="white" stroke="#bfbfbf" points="-0.5,-553 -0.5,-621 194.5,-621 194.5,-553 -0.5,-553"/>
<text text-anchor="start" x="7.5" y="-609" font-family="Helvetica,sans-Serif" font-size="10.00">ArrayList&lt; ppm_java.frontend.gui.needle.</text>
<text text-anchor="middle" x="97" y="-598" font-family="Helvetica,sans-Serif" font-size="10.00">TGUINeedle_Surrogate_Stats_Record &gt;</text>
<polyline fill="none" stroke="#bfbfbf" points="-0.5,-591 194.5,-591 "/>
<text text-anchor="middle" x="97" y="-579" font-family="Helvetica,sans-Serif" font-size="10.00"> </text>
<polyline fill="none" stroke="#bfbfbf" points="-0.5,-572 194.5,-572 "/>
<text text-anchor="middle" x="97" y="-560" font-family="Helvetica,sans-Serif" font-size="10.00"> </text>
</g>
<!-- Node12&#45;&gt;Node10 -->
<g id="edge12" class="edge"><title>Node12&#45;&gt;Node10</title>
<path fill="none" stroke="#404040" d="M116.206,-552.964C133.123,-525.381 159.46,-485.886 188,-456 205.052,-438.144 225.425,-420.89 244.966,-405.847"/>
<polygon fill="none" stroke="#404040" points="245.211,-405.662 247.581,-398.852 254.779,-398.42 252.409,-405.231 245.211,-405.662"/>
<text text-anchor="middle" x="222.5" y="-470.5" font-family="Helvetica,sans-Serif" font-size="10.00"> &#45;fStatChannels</text>
</g>
<!-- Node13 -->
<g id="node13" class="node"><title>Node13</title>
<polygon fill="white" stroke="#bfbfbf" points="213,-558.5 213,-615.5 281,-615.5 281,-558.5 213,-558.5"/>
<text text-anchor="middle" x="247" y="-603.5" font-family="Helvetica,sans-Serif" font-size="10.00">AtomicLong</text>
<polyline fill="none" stroke="#bfbfbf" points="213,-596.5 281,-596.5 "/>
<text text-anchor="middle" x="247" y="-584.5" font-family="Helvetica,sans-Serif" font-size="10.00"> </text>
<polyline fill="none" stroke="#bfbfbf" points="213,-577.5 281,-577.5 "/>
<text text-anchor="middle" x="247" y="-565.5" font-family="Helvetica,sans-Serif" font-size="10.00"> </text>
</g>
<!-- Node13&#45;&gt;Node10 -->
<g id="edge14" class="edge"><title>Node13&#45;&gt;Node10</title>
<path fill="none" stroke="#404040" d="M249.324,-558.304C252.113,-531.597 257.876,-490.293 269,-456 270.913,-450.103 273.118,-444.118 275.515,-438.157"/>
<polygon fill="none" stroke="#404040" points="275.662,-437.809 274.312,-430.725 280.331,-426.755 281.681,-433.838 275.662,-437.809"/>
<text text-anchor="middle" x="297.5" y="-470.5" font-family="Helvetica,sans-Serif" font-size="10.00"> &#45;fTimeCycle</text>
</g>
<!-- Node14&#45;&gt;Node1 -->
<g id="edge15" class="edge"><title>Node14&#45;&gt;Node1</title>
<path fill="none" stroke="#404040" d="M587.502,-437.846C577.58,-455.521 566.504,-473.747 555,-490 550.983,-495.675 546.675,-501.386 542.204,-507.041"/>
<polygon fill="none" stroke="#404040" points="542.104,-507.165 541.436,-514.345 534.551,-516.49 535.22,-509.31 542.104,-507.165"/>
<text text-anchor="middle" x="590" y="-470.5" font-family="Helvetica,sans-Serif" font-size="10.00"> &#45;fGUI</text>
</g>
<!-- Node16 -->
<g id="node16" class="node"><title>Node16</title>
<g id="a_node16"><a xlink:href="../../d2/d93/classppm__java_1_1frontend_1_1gui_1_1needle_1_1_t_g_u_i_needle___timer_clipping.html" target="_top" xlink:title="A monostable timer for a clipping LED on our PPM GUI. ">
<polygon fill="white" stroke="black" points="463,-0.5 463,-211.5 615,-211.5 615,-0.5 463,-0.5"/>
<text text-anchor="middle" x="539" y="-199.5" font-family="Helvetica,sans-Serif" font-size="10.00">TGUINeedle_TimerClipping</text>
<polyline fill="none" stroke="black" points="463,-192.5 615,-192.5 "/>
<text text-anchor="start" x="471" y="-180.5" font-family="Helvetica,sans-Serif" font-size="10.00">&#45; fChannel</text>
<text text-anchor="start" x="471" y="-169.5" font-family="Helvetica,sans-Serif" font-size="10.00">&#45; fState</text>
<text text-anchor="start" x="471" y="-158.5" font-family="Helvetica,sans-Serif" font-size="10.00">&#45; fTLast</text>
<text text-anchor="start" x="471" y="-147.5" font-family="Helvetica,sans-Serif" font-size="10.00">&#45; gkIntervalLoop</text>
<text text-anchor="start" x="471" y="-136.5" font-family="Helvetica,sans-Serif" font-size="10.00">&#45; gkIntervalWait</text>
<text text-anchor="start" x="471" y="-125.5" font-family="Helvetica,sans-Serif" font-size="10.00">&#45; gkStateClear</text>
<text text-anchor="start" x="471" y="-114.5" font-family="Helvetica,sans-Serif" font-size="10.00">&#45; gkStateErr</text>
<text text-anchor="start" x="471" y="-103.5" font-family="Helvetica,sans-Serif" font-size="10.00">&#45; gkStateTerm</text>
<text text-anchor="start" x="471" y="-92.5" font-family="Helvetica,sans-Serif" font-size="10.00">&#45; gkStateWarn</text>
<polyline fill="none" stroke="black" points="463,-85.5 615,-85.5 "/>
<text text-anchor="start" x="471" y="-73.5" font-family="Helvetica,sans-Serif" font-size="10.00">+ TGUINeedle_TimerClipping()</text>
<text text-anchor="start" x="471" y="-62.5" font-family="Helvetica,sans-Serif" font-size="10.00">+ run()</text>
<text text-anchor="start" x="471" y="-51.5" font-family="Helvetica,sans-Serif" font-size="10.00">+ SetClip()</text>
<text text-anchor="start" x="471" y="-40.5" font-family="Helvetica,sans-Serif" font-size="10.00">+ Terminate()</text>
<text text-anchor="start" x="471" y="-29.5" font-family="Helvetica,sans-Serif" font-size="10.00">&#45; _DoTransition()</text>
<text text-anchor="start" x="471" y="-18.5" font-family="Helvetica,sans-Serif" font-size="10.00">&#45; _SetLED()</text>
<text text-anchor="start" x="471" y="-7.5" font-family="Helvetica,sans-Serif" font-size="10.00">&#45; _TryReset()</text>
</a>
</g>
</g>
<!-- Node14&#45;&gt;Node16 -->
<g id="edge20" class="edge"><title>Node14&#45;&gt;Node16</title>
<path fill="none" stroke="#404040" d="M578.99,-270.484C576.076,-264.329 573.372,-258.129 571,-252 567.422,-242.755 564.197,-233.016 561.3,-223.14"/>
<polygon fill="none" stroke="#404040" points="561.278,-223.061 555.811,-218.36 558.048,-211.504 563.515,-216.206 561.278,-223.061"/>
<text text-anchor="middle" x="586.5" y="-238.5" font-family="Helvetica,sans-Serif" font-size="10.00"> &#45;fHost</text>
</g>
<!-- Node15 -->
<g id="node15" class="node"><title>Node15</title>
<polygon fill="white" stroke="#bfbfbf" points="688,-558.5 688,-615.5 738,-615.5 738,-558.5 688,-558.5"/>
<text text-anchor="middle" x="713" y="-603.5" font-family="Helvetica,sans-Serif" font-size="10.00">JFrame</text>
<polyline fill="none" stroke="#bfbfbf" points="688,-596.5 738,-596.5 "/>
<text text-anchor="middle" x="713" y="-584.5" font-family="Helvetica,sans-Serif" font-size="10.00"> </text>
<polyline fill="none" stroke="#bfbfbf" points="688,-577.5 738,-577.5 "/>
<text text-anchor="middle" x="713" y="-565.5" font-family="Helvetica,sans-Serif" font-size="10.00"> </text>
</g>
<!-- Node15&#45;&gt;Node14 -->
<g id="edge16" class="edge"><title>Node15&#45;&gt;Node14</title>
<path fill="none" stroke="midnightblue" d="M713.815,-548.415C713.24,-521.829 710.09,-485.764 699,-456 696.691,-449.803 693.914,-443.625 690.818,-437.553"/>
<polygon fill="none" stroke="midnightblue" points="710.316,-548.502 713.921,-558.464 717.316,-548.428 710.316,-548.502"/>
</g>
<!-- Node16&#45;&gt;Node14 -->
<g id="edge17" class="edge"><title>Node16&#45;&gt;Node14</title>
<path fill="none" stroke="#404040" d="M598.787,-211.681C601.409,-217.797 603.84,-223.929 606,-230 609.236,-239.094 612.041,-248.737 614.468,-258.464"/>
<polygon fill="none" stroke="#404040" points="614.512,-258.655 619.773,-263.587 617.244,-270.34 611.983,-265.408 614.512,-258.655"/>
<text text-anchor="middle" x="633" y="-244" font-family="Helvetica,sans-Serif" font-size="10.00"> &#45;fTimerL</text>
<text text-anchor="middle" x="633" y="-233" font-family="Helvetica,sans-Serif" font-size="10.00">&#45;fTimerR</text>
</g>
<!-- Node17 -->
<g id="node17" class="node"><title>Node17</title>
<polygon fill="white" stroke="#bfbfbf" points="401.5,-325.5 401.5,-382.5 448.5,-382.5 448.5,-325.5 401.5,-325.5"/>
<text text-anchor="middle" x="425" y="-370.5" font-family="Helvetica,sans-Serif" font-size="10.00">Thread</text>
<polyline fill="none" stroke="#bfbfbf" points="401.5,-363.5 448.5,-363.5 "/>
<text text-anchor="middle" x="425" y="-351.5" font-family="Helvetica,sans-Serif" font-size="10.00"> </text>
<polyline fill="none" stroke="#bfbfbf" points="401.5,-344.5 448.5,-344.5 "/>
<text text-anchor="middle" x="425" y="-332.5" font-family="Helvetica,sans-Serif" font-size="10.00"> </text>
</g>
<!-- Node17&#45;&gt;Node16 -->
<g id="edge18" class="edge"><title>Node17&#45;&gt;Node16</title>
<path fill="none" stroke="midnightblue" d="M438.44,-315.832C443.892,-301.394 450.443,-284.799 457,-270 465.404,-251.029 474.876,-231.096 484.319,-211.934"/>
<polygon fill="none" stroke="midnightblue" points="435.073,-314.842 434.854,-325.435 441.631,-317.291 435.073,-314.842"/>
</g>
<!-- Node18 -->
<g id="node18" class="node"><title>Node18</title>
<polygon fill="white" stroke="#bfbfbf" points="466.5,-325.5 466.5,-382.5 543.5,-382.5 543.5,-325.5 466.5,-325.5"/>
<text text-anchor="middle" x="505" y="-370.5" font-family="Helvetica,sans-Serif" font-size="10.00">AtomicInteger</text>
<polyline fill="none" stroke="#bfbfbf" points="466.5,-363.5 543.5,-363.5 "/>
<text text-anchor="middle" x="505" y="-351.5" font-family="Helvetica,sans-Serif" font-size="10.00"> </text>
<polyline fill="none" stroke="#bfbfbf" points="466.5,-344.5 543.5,-344.5 "/>
<text text-anchor="middle" x="505" y="-332.5" font-family="Helvetica,sans-Serif" font-size="10.00"> </text>
</g>
<!-- Node18&#45;&gt;Node16 -->
<g id="edge19" class="edge"><title>Node18&#45;&gt;Node16</title>
<path fill="none" stroke="#404040" d="M503.218,-325.011C502.101,-299.987 501.598,-262.375 506,-230 506.282,-227.929 506.587,-225.843 506.915,-223.747"/>
<polygon fill="none" stroke="#404040" points="506.963,-223.47 504.05,-216.874 509.018,-211.647 511.932,-218.244 506.963,-223.47"/>
<text text-anchor="middle" x="529" y="-238.5" font-family="Helvetica,sans-Serif" font-size="10.00"> &#45;fRequest</text>
</g>
<!-- Node19 -->
<g id="node19" class="node"><title>Node19</title>
<polygon fill="white" stroke="#bfbfbf" points="601,-558.5 601,-615.5 657,-615.5 657,-558.5 601,-558.5"/>
<text text-anchor="middle" x="629" y="-603.5" font-family="Helvetica,sans-Serif" font-size="10.00">LedColor</text>
<polyline fill="none" stroke="#bfbfbf" points="601,-596.5 657,-596.5 "/>
<text text-anchor="middle" x="629" y="-584.5" font-family="Helvetica,sans-Serif" font-size="10.00"> </text>
<polyline fill="none" stroke="#bfbfbf" points="601,-577.5 657,-577.5 "/>
<text text-anchor="middle" x="629" y="-565.5" font-family="Helvetica,sans-Serif" font-size="10.00"> </text>
</g>
<!-- Node19&#45;&gt;Node14 -->
<g id="edge22" class="edge"><title>Node19&#45;&gt;Node14</title>
<path fill="none" stroke="#404040" d="M629,-558.136C629,-531.166 629,-488.732 629,-449.606"/>
<polygon fill="none" stroke="#404040" points="629,-449.591 625,-443.591 629,-437.591 633,-443.591 629,-449.591"/>
<text text-anchor="middle" x="663.5" y="-481.5" font-family="Helvetica,sans-Serif" font-size="10.00"> &#45;gkColorClip</text>
<text text-anchor="middle" x="663.5" y="-470.5" font-family="Helvetica,sans-Serif" font-size="10.00">&#45;gkColorWarn</text>
<text text-anchor="middle" x="663.5" y="-459.5" font-family="Helvetica,sans-Serif" font-size="10.00">&#45;gkColorNormal</text>
</g>
</g>
</svg>
        <g id="navigator" transform="translate(0 0)" fill="#404254">
                <rect fill="#f2f5e9" fill-opacity="0.5" stroke="#606060" stroke-width=".5" x="0" y="0" width="60" height="60"/>
                <use id="zoomplus" xlink:href="#zoomPlus" x="17" y="9" onmousedown="handleZoom(evt,'in')"/>
                <use id="zoomminus" xlink:href="#zoomMin" x="42" y="9" onmousedown="handleZoom(evt,'out')"/>
                <use id="reset" xlink:href="#resetDef" x="30" y="36" onmousedown="handleReset()"/>
                <g id="arrowUp" xlink:href="#dirArrow" transform="translate(30 24)" onmousedown="handlePan(0,-1)">
                  <use xlink:href="#rim" fill="#404040">
                        <set attributeName="fill" to="#808080" begin="arrowUp.mouseover" end="arrowUp.mouseout"/>
                  </use>
                  <path fill="none" stroke="white" stroke-width="1.5" d="M0,-3.0v7 M-2.5,-0.5L0,-3.0L2.5,-0.5"/>
                </g>
                <g id="arrowRight" xlink:href="#dirArrow" transform="rotate(90) translate(36 -43)" onmousedown="handlePan(1,0)">
                  <use xlink:href="#rim" fill="#404040">
                        <set attributeName="fill" to="#808080" begin="arrowRight.mouseover" end="arrowRight.mouseout"/>
                  </use>
                  <path fill="none" stroke="white" stroke-width="1.5" d="M0,-3.0v7 M-2.5,-0.5L0,-3.0L2.5,-0.5"/>
                </g>
                <g id="arrowDown" xlink:href="#dirArrow" transform="rotate(180) translate(-30 -48)" onmousedown="handlePan(0,1)">
                  <use xlink:href="#rim" fill="#404040">
                        <set attributeName="fill" to="#808080" begin="arrowDown.mouseover" end="arrowDown.mouseout"/>
                  </use>
                  <path fill="none" stroke="white" stroke-width="1.5" d="M0,-3.0v7 M-2.5,-0.5L0,-3.0L2.5,-0.5"/>
                </g>
                <g id="arrowLeft" xlink:href="#dirArrow" transform="rotate(270) translate(-36 17)" onmousedown="handlePan(-1,0)">
                  <use xlink:href="#rim" fill="#404040">
                        <set attributeName="fill" to="#808080" begin="arrowLeft.mouseover" end="arrowLeft.mouseout"/>
                  </use>
                  <path fill="none" stroke="white" stroke-width="1.5" d="M0,-3.0v7 M-2.5,-0.5L0,-3.0L2.5,-0.5"/>
                </g>
        </g>
        <svg viewBox="0 0 15 15" width="100%" height="30px" preserveAspectRatio="xMaxYMin meet">
         <g id="arrow_out" transform="scale(0.3 0.3)">
          <a xlink:href="classppm__java_1_1frontend_1_1gui_1_1needle_1_1_t_g_u_i_needle___surrogate__coll__graph_org.svg" target="_base">
           <rect id="button" ry="5" rx="5" y="6" x="6" height="38" width="38"
                fill="#f2f5e9" fill-opacity="0.5" stroke="#606060" stroke-width="1.0"/>
           <path id="arrow"
             d="M 11.500037,31.436501 C 11.940474,20.09759 22.043105,11.32322 32.158766,21.979434 L 37.068811,17.246167 C 37.068811,17.246167 37.088388,32 37.088388,32 L 22.160133,31.978069 C 22.160133,31.978069 26.997745,27.140456 26.997745,27.140456 C 18.528582,18.264221 13.291696,25.230495 11.500037,31.436501 z"
             style="fill:#404040;"/>
          </a>
         </g>
        </svg>
</svg>
