<?xml version="1.0" encoding="UTF-8" standalone="no"?>
<!DOCTYPE svg PUBLIC "-//W3C//DTD SVG 1.1//EN"
 "http://www.w3.org/Graphics/SVG/1.1/DTD/svg11.dtd">
<!-- Generated by graphviz version 2.36.0 (20140111.2315)
 -->
<!-- Title: Clear Pages: 1 -->
<svg width="220pt" height="66pt"
 viewBox="0.00 0.00 220.00 66.00" xmlns="http://www.w3.org/2000/svg" xmlns:xlink="http://www.w3.org/1999/xlink">
<g id="graph0" class="graph" transform="scale(1 1) rotate(0) translate(4 62)">
<title>Clear</title>
<polygon fill="white" stroke="none" points="-4,4 -4,-62 216,-62 216,4 -4,4"/>
<!-- Node1 -->
<g id="node1" class="node"><title>Node1</title>
<polygon fill="#bfbfbf" stroke="black" points="0,-19.5 0,-38.5 40,-38.5 40,-19.5 0,-19.5"/>
<text text-anchor="middle" x="20" y="-26.5" font-family="Helvetica,sans-Serif" font-size="10.00">Clear</text>
</g>
<!-- Node2 -->
<g id="node2" class="node"><title>Node2</title>
<g id="a_node2"><a xlink:href="../../d4/dc0/classppm__java_1_1util_1_1storage_1_1atomic_buffer_1_1_t_atomic_buffer___stats.html#a27f3771a68ae90c1ed341baa6cf5cecd" target="_top" xlink:title="Clear all the fields. ">
<polygon fill="white" stroke="black" points="76.5,-19.5 76.5,-38.5 121.5,-38.5 121.5,-19.5 76.5,-19.5"/>
<text text-anchor="middle" x="99" y="-26.5" font-family="Helvetica,sans-Serif" font-size="10.00">_Clear</text>
</a>
</g>
</g>
<!-- Node1&#45;&gt;Node2 -->
<g id="edge1" class="edge"><title>Node1&#45;&gt;Node2</title>
<path fill="none" stroke="midnightblue" d="M40.0337,-29C47.9721,-29 57.4088,-29 66.3385,-29"/>
<polygon fill="midnightblue" stroke="midnightblue" points="66.4681,-32.5001 76.468,-29 66.468,-25.5001 66.4681,-32.5001"/>
</g>
<!-- Node3 -->
<g id="node3" class="node"><title>Node3</title>
<g id="a_node3"><a xlink:href="../../d4/dc0/classppm__java_1_1util_1_1storage_1_1atomic_buffer_1_1_t_atomic_buffer___stats.html#a60fe7aa6d1a53dab132be5ecc82d668e" target="_top" xlink:title="Locks the critical sections. ">
<polygon fill="white" stroke="black" points="163.5,-38.5 163.5,-57.5 206.5,-57.5 206.5,-38.5 163.5,-38.5"/>
<text text-anchor="middle" x="185" y="-45.5" font-family="Helvetica,sans-Serif" font-size="10.00">_Lock</text>
</a>
</g>
</g>
<!-- Node2&#45;&gt;Node3 -->
<g id="edge2" class="edge"><title>Node2&#45;&gt;Node3</title>
<path fill="none" stroke="midnightblue" d="M121.632,-33.893C131.257,-36.07 142.765,-38.673 153.26,-41.0469"/>
<polygon fill="midnightblue" stroke="midnightblue" points="152.784,-44.5276 163.31,-43.3201 154.329,-37.7001 152.784,-44.5276"/>
</g>
<!-- Node4 -->
<g id="node4" class="node"><title>Node4</title>
<g id="a_node4"><a xlink:href="../../d4/dc0/classppm__java_1_1util_1_1storage_1_1atomic_buffer_1_1_t_atomic_buffer___stats.html#a4e9f36f97f1d8af33e8f50dce5153568" target="_top" xlink:title="Unlocks the critical sections. ">
<polygon fill="white" stroke="black" points="158.5,-0.5 158.5,-19.5 211.5,-19.5 211.5,-0.5 158.5,-0.5"/>
<text text-anchor="middle" x="185" y="-7.5" font-family="Helvetica,sans-Serif" font-size="10.00">_Unlock</text>
</a>
</g>
</g>
<!-- Node2&#45;&gt;Node4 -->
<g id="edge3" class="edge"><title>Node2&#45;&gt;Node4</title>
<path fill="none" stroke="midnightblue" d="M121.632,-24.107C129.755,-22.2696 139.22,-20.1288 148.285,-18.0784"/>
<polygon fill="midnightblue" stroke="midnightblue" points="149.275,-21.4429 158.257,-15.8229 147.731,-14.6154 149.275,-21.4429"/>
</g>
</g>
</svg>
