<?xml version="1.0" encoding="UTF-8" standalone="no"?>
<!DOCTYPE svg PUBLIC "-//W3C//DTD SVG 1.1//EN"
 "http://www.w3.org/Graphics/SVG/1.1/DTD/svg11.dtd">
<!-- Generated by graphviz version 2.36.0 (20140111.2315)
 -->
<!-- Title: _Increment Pages: 1 -->
<svg width="224pt" height="104pt"
 viewBox="0.00 0.00 224.00 104.00" xmlns="http://www.w3.org/2000/svg" xmlns:xlink="http://www.w3.org/1999/xlink">
<g id="graph0" class="graph" transform="scale(1 1) rotate(0) translate(4 100)">
<title>_Increment</title>
<polygon fill="white" stroke="none" points="-4,4 -4,-100 220,-100 220,4 -4,4"/>
<!-- Node1 -->
<g id="node1" class="node"><title>Node1</title>
<polygon fill="#bfbfbf" stroke="black" points="0.5,-38.5 0.5,-57.5 65.5,-57.5 65.5,-38.5 0.5,-38.5"/>
<text text-anchor="middle" x="33" y="-45.5" font-family="Helvetica,sans-Serif" font-size="10.00">_Increment</text>
</g>
<!-- Node2 -->
<g id="node2" class="node"><title>Node2</title>
<g id="a_node2"><a xlink:href="../../d4/dc0/classppm__java_1_1util_1_1storage_1_1atomic_buffer_1_1_t_atomic_buffer___stats.html#a39d57e251a00462b0a8cbcab50f50114" target="_top" xlink:title="Increments the contention counter. ">
<polygon fill="white" stroke="black" points="102.5,-76.5 102.5,-95.5 215.5,-95.5 215.5,-76.5 102.5,-76.5"/>
<text text-anchor="middle" x="159" y="-83.5" font-family="Helvetica,sans-Serif" font-size="10.00">IncrementContentions</text>
</a>
</g>
</g>
<!-- Node1&#45;&gt;Node2 -->
<g id="edge1" class="edge"><title>Node1&#45;&gt;Node2</title>
<path fill="none" stroke="midnightblue" d="M74.9047,-60.5353C91.7734,-65.7048 111.008,-71.5991 126.72,-76.4141"/>
<polygon fill="midnightblue" stroke="midnightblue" points="75.8771,-57.1727 65.2904,-57.589 73.826,-63.8655 75.8771,-57.1727"/>
</g>
<!-- Node3 -->
<g id="node3" class="node"><title>Node3</title>
<g id="a_node3"><a xlink:href="../../d4/dc0/classppm__java_1_1util_1_1storage_1_1atomic_buffer_1_1_t_atomic_buffer___stats.html#a462fb36e9359fa766daa48d9889313ae" target="_top" xlink:title="Increments the overrun counter. ">
<polygon fill="white" stroke="black" points="109,-38.5 109,-57.5 209,-57.5 209,-38.5 109,-38.5"/>
<text text-anchor="middle" x="159" y="-45.5" font-family="Helvetica,sans-Serif" font-size="10.00">IncrementOverruns</text>
</a>
</g>
</g>
<!-- Node1&#45;&gt;Node3 -->
<g id="edge2" class="edge"><title>Node1&#45;&gt;Node3</title>
<path fill="none" stroke="midnightblue" d="M75.8015,-48C86.3351,-48 97.7419,-48 108.609,-48"/>
<polygon fill="midnightblue" stroke="midnightblue" points="75.6113,-44.5001 65.6113,-48 75.6112,-51.5001 75.6113,-44.5001"/>
</g>
<!-- Node4 -->
<g id="node4" class="node"><title>Node4</title>
<g id="a_node4"><a xlink:href="../../d4/dc0/classppm__java_1_1util_1_1storage_1_1atomic_buffer_1_1_t_atomic_buffer___stats.html#a68893108bb5b91dced707e014565a9e5" target="_top" xlink:title="Increments the underrun counter. ">
<polygon fill="white" stroke="black" points="106.5,-0.5 106.5,-19.5 211.5,-19.5 211.5,-0.5 106.5,-0.5"/>
<text text-anchor="middle" x="159" y="-7.5" font-family="Helvetica,sans-Serif" font-size="10.00">IncrementUnderruns</text>
</a>
</g>
</g>
<!-- Node1&#45;&gt;Node4 -->
<g id="edge3" class="edge"><title>Node1&#45;&gt;Node4</title>
<path fill="none" stroke="midnightblue" d="M74.9047,-35.4647C91.7734,-30.2952 111.008,-24.4009 126.72,-19.5859"/>
<polygon fill="midnightblue" stroke="midnightblue" points="73.826,-32.1345 65.2904,-38.411 75.8771,-38.8273 73.826,-32.1345"/>
</g>
</g>
</svg>
