<?xml version="1.0" encoding="UTF-8" standalone="no"?>
<!DOCTYPE svg PUBLIC "-//W3C//DTD SVG 1.1//EN"
 "http://www.w3.org/Graphics/SVG/1.1/DTD/svg11.dtd">
<!-- Generated by graphviz version 2.36.0 (20140111.2315)
 -->
<!-- Title: _Increment Pages: 1 -->
<svg width="164pt" height="66pt"
 viewBox="0.00 0.00 164.00 66.00" xmlns="http://www.w3.org/2000/svg" xmlns:xlink="http://www.w3.org/1999/xlink">
<g id="graph0" class="graph" transform="scale(1 1) rotate(0) translate(4 62)">
<title>_Increment</title>
<polygon fill="white" stroke="none" points="-4,4 -4,-62 160,-62 160,4 -4,4"/>
<!-- Node1 -->
<g id="node1" class="node"><title>Node1</title>
<polygon fill="#bfbfbf" stroke="black" points="0.5,-19.5 0.5,-38.5 65.5,-38.5 65.5,-19.5 0.5,-19.5"/>
<text text-anchor="middle" x="33" y="-26.5" font-family="Helvetica,sans-Serif" font-size="10.00">_Increment</text>
</g>
<!-- Node2 -->
<g id="node2" class="node"><title>Node2</title>
<g id="a_node2"><a xlink:href="../../d4/dc0/classppm__java_1_1util_1_1storage_1_1atomic_buffer_1_1_t_atomic_buffer___stats.html#a60fe7aa6d1a53dab132be5ecc82d668e" target="_top" xlink:title="Locks the critical sections. ">
<polygon fill="white" stroke="black" points="107.5,-38.5 107.5,-57.5 150.5,-57.5 150.5,-38.5 107.5,-38.5"/>
<text text-anchor="middle" x="129" y="-45.5" font-family="Helvetica,sans-Serif" font-size="10.00">_Lock</text>
</a>
</g>
</g>
<!-- Node1&#45;&gt;Node2 -->
<g id="edge1" class="edge"><title>Node1&#45;&gt;Node2</title>
<path fill="none" stroke="midnightblue" d="M65.5621,-35.3796C75.7751,-37.4439 87.0822,-39.7294 97.2364,-41.7818"/>
<polygon fill="midnightblue" stroke="midnightblue" points="96.8116,-45.2667 107.307,-43.8173 98.1985,-38.4054 96.8116,-45.2667"/>
</g>
<!-- Node3 -->
<g id="node3" class="node"><title>Node3</title>
<g id="a_node3"><a xlink:href="../../d4/dc0/classppm__java_1_1util_1_1storage_1_1atomic_buffer_1_1_t_atomic_buffer___stats.html#a4e9f36f97f1d8af33e8f50dce5153568" target="_top" xlink:title="Unlocks the critical sections. ">
<polygon fill="white" stroke="black" points="102.5,-0.5 102.5,-19.5 155.5,-19.5 155.5,-0.5 102.5,-0.5"/>
<text text-anchor="middle" x="129" y="-7.5" font-family="Helvetica,sans-Serif" font-size="10.00">_Unlock</text>
</a>
</g>
</g>
<!-- Node1&#45;&gt;Node3 -->
<g id="edge2" class="edge"><title>Node1&#45;&gt;Node3</title>
<path fill="none" stroke="midnightblue" d="M65.5621,-22.6204C74.1492,-20.8847 83.5097,-18.9927 92.3082,-17.2143"/>
<polygon fill="midnightblue" stroke="midnightblue" points="93.1902,-20.6069 102.299,-15.195 91.8033,-13.7456 93.1902,-20.6069"/>
</g>
</g>
</svg>
