<?xml version="1.0" encoding="UTF-8" standalone="no"?>
<!DOCTYPE svg PUBLIC "-//W3C//DTD SVG 1.1//EN"
 "http://www.w3.org/Graphics/SVG/1.1/DTD/svg11.dtd">
<!-- Generated by graphviz version 2.36.0 (20140111.2315)
 -->
<!-- Title: GetRecord Pages: 1 -->
<svg width="162pt" height="66pt"
 viewBox="0.00 0.00 162.00 66.00" xmlns="http://www.w3.org/2000/svg" xmlns:xlink="http://www.w3.org/1999/xlink">
<g id="graph0" class="graph" transform="scale(1 1) rotate(0) translate(4 62)">
<title>GetRecord</title>
<polygon fill="white" stroke="none" points="-4,4 -4,-62 158,-62 158,4 -4,4"/>
<!-- Node1 -->
<g id="node1" class="node"><title>Node1</title>
<polygon fill="#bfbfbf" stroke="black" points="0,-19.5 0,-38.5 64,-38.5 64,-19.5 0,-19.5"/>
<text text-anchor="middle" x="32" y="-26.5" font-family="Helvetica,sans-Serif" font-size="10.00">GetRecord</text>
</g>
<!-- Node2 -->
<g id="node2" class="node"><title>Node2</title>
<g id="a_node2"><a xlink:href="../../d4/dc0/classppm__java_1_1util_1_1storage_1_1atomic_buffer_1_1_t_atomic_buffer___stats.html#a60fe7aa6d1a53dab132be5ecc82d668e" target="_top" xlink:title="Locks the critical sections. ">
<polygon fill="white" stroke="black" points="105.5,-38.5 105.5,-57.5 148.5,-57.5 148.5,-38.5 105.5,-38.5"/>
<text text-anchor="middle" x="127" y="-45.5" font-family="Helvetica,sans-Serif" font-size="10.00">_Lock</text>
</a>
</g>
</g>
<!-- Node1&#45;&gt;Node2 -->
<g id="edge1" class="edge"><title>Node1&#45;&gt;Node2</title>
<path fill="none" stroke="midnightblue" d="M64.2264,-35.3796C74.2524,-37.4279 85.3441,-39.694 95.3299,-41.7341"/>
<polygon fill="midnightblue" stroke="midnightblue" points="94.7465,-45.1871 105.245,-43.7597 96.1477,-38.3288 94.7465,-45.1871"/>
</g>
<!-- Node3 -->
<g id="node3" class="node"><title>Node3</title>
<g id="a_node3"><a xlink:href="../../d4/dc0/classppm__java_1_1util_1_1storage_1_1atomic_buffer_1_1_t_atomic_buffer___stats.html#a4e9f36f97f1d8af33e8f50dce5153568" target="_top" xlink:title="Unlocks the critical sections. ">
<polygon fill="white" stroke="black" points="100.5,-0.5 100.5,-19.5 153.5,-19.5 153.5,-0.5 100.5,-0.5"/>
<text text-anchor="middle" x="127" y="-7.5" font-family="Helvetica,sans-Serif" font-size="10.00">_Unlock</text>
</a>
</g>
</g>
<!-- Node1&#45;&gt;Node3 -->
<g id="edge2" class="edge"><title>Node1&#45;&gt;Node3</title>
<path fill="none" stroke="midnightblue" d="M64.2264,-22.6204C72.6462,-20.9002 81.8177,-19.0265 90.4546,-17.262"/>
<polygon fill="midnightblue" stroke="midnightblue" points="91.1738,-20.6874 100.271,-15.2565 89.7726,-13.8291 91.1738,-20.6874"/>
</g>
</g>
</svg>
