<?xml version="1.0" encoding="UTF-8" standalone="no"?>
<!DOCTYPE svg PUBLIC "-//W3C//DTD SVG 1.1//EN"
 "http://www.w3.org/Graphics/SVG/1.1/DTD/svg11.dtd">
<!-- Generated by graphviz version 2.36.0 (20140111.2315)
 -->
<!-- Title: _Unlock Pages: 1 -->
<svg width="320pt" height="170pt"
 viewBox="0.00 0.00 320.00 170.00" xmlns="http://www.w3.org/2000/svg" xmlns:xlink="http://www.w3.org/1999/xlink">
<g id="graph0" class="graph" transform="scale(1 1) rotate(0) translate(4 166)">
<title>_Unlock</title>
<polygon fill="white" stroke="none" points="-4,4 -4,-166 316,-166 316,4 -4,4"/>
<!-- Node1 -->
<g id="node1" class="node"><title>Node1</title>
<polygon fill="#bfbfbf" stroke="black" points="0.5,-57.5 0.5,-76.5 53.5,-76.5 53.5,-57.5 0.5,-57.5"/>
<text text-anchor="middle" x="27" y="-64.5" font-family="Helvetica,sans-Serif" font-size="10.00">_Unlock</text>
</g>
<!-- Node2 -->
<g id="node2" class="node"><title>Node2</title>
<g id="a_node2"><a xlink:href="../../d4/dc0/classppm__java_1_1util_1_1storage_1_1atomic_buffer_1_1_t_atomic_buffer___stats.html#a27f3771a68ae90c1ed341baa6cf5cecd" target="_top" xlink:title="Clear all the fields. ">
<polygon fill="white" stroke="black" points="103.5,-123.5 103.5,-142.5 148.5,-142.5 148.5,-123.5 103.5,-123.5"/>
<text text-anchor="middle" x="126" y="-130.5" font-family="Helvetica,sans-Serif" font-size="10.00">_Clear</text>
</a>
</g>
</g>
<!-- Node1&#45;&gt;Node2 -->
<g id="edge1" class="edge"><title>Node1&#45;&gt;Node2</title>
<path fill="none" stroke="midnightblue" d="M50.8154,-82.5239C69.4522,-95.2046 95.2008,-112.724 110.944,-123.436"/>
<polygon fill="midnightblue" stroke="midnightblue" points="52.5493,-79.4703 42.3127,-76.7385 48.6115,-85.2577 52.5493,-79.4703"/>
</g>
<!-- Node4 -->
<g id="node4" class="node"><title>Node4</title>
<g id="a_node4"><a xlink:href="../../d4/dc0/classppm__java_1_1util_1_1storage_1_1atomic_buffer_1_1_t_atomic_buffer___stats.html#a4a1d84e8a1c15b8327e23925bf1f2a12" target="_top" xlink:title="Increments the requested field. ">
<polygon fill="white" stroke="black" points="93.5,-76.5 93.5,-95.5 158.5,-95.5 158.5,-76.5 93.5,-76.5"/>
<text text-anchor="middle" x="126" y="-83.5" font-family="Helvetica,sans-Serif" font-size="10.00">_Increment</text>
</a>
</g>
</g>
<!-- Node1&#45;&gt;Node4 -->
<g id="edge3" class="edge"><title>Node1&#45;&gt;Node4</title>
<path fill="none" stroke="midnightblue" d="M63.8405,-74.0203C73.4818,-75.9088 83.8407,-77.9379 93.2428,-79.7795"/>
<polygon fill="midnightblue" stroke="midnightblue" points="64.2259,-70.5294 53.7396,-72.0418 62.8803,-77.3988 64.2259,-70.5294"/>
</g>
<!-- Node8 -->
<g id="node8" class="node"><title>Node8</title>
<g id="a_node8"><a xlink:href="../../d4/dc0/classppm__java_1_1util_1_1storage_1_1atomic_buffer_1_1_t_atomic_buffer___stats.html#aeca6a90af8e17967096f2bfd719ceb45" target="_top" xlink:title="GetDumpStr">
<polygon fill="white" stroke="black" points="90.5,-38.5 90.5,-57.5 161.5,-57.5 161.5,-38.5 90.5,-38.5"/>
<text text-anchor="middle" x="126" y="-45.5" font-family="Helvetica,sans-Serif" font-size="10.00">GetDumpStr</text>
</a>
</g>
</g>
<!-- Node1&#45;&gt;Node8 -->
<g id="edge7" class="edge"><title>Node1&#45;&gt;Node8</title>
<path fill="none" stroke="midnightblue" d="M63.6354,-60.0199C72.3633,-58.3103 81.6903,-56.4833 90.3702,-54.7832"/>
<polygon fill="midnightblue" stroke="midnightblue" points="62.8803,-56.6012 53.7396,-61.9582 64.2259,-63.4706 62.8803,-56.6012"/>
</g>
<!-- Node9 -->
<g id="node9" class="node"><title>Node9</title>
<g id="a_node9"><a xlink:href="../../d4/dc0/classppm__java_1_1util_1_1storage_1_1atomic_buffer_1_1_t_atomic_buffer___stats.html#aa09e1ecd93d0d2d3966dd8426cc785f3" target="_top" xlink:title="Returns a dump of all the fields as one object. ">
<polygon fill="white" stroke="black" points="94,-0.5 94,-19.5 158,-19.5 158,-0.5 94,-0.5"/>
<text text-anchor="middle" x="126" y="-7.5" font-family="Helvetica,sans-Serif" font-size="10.00">GetRecord</text>
</a>
</g>
</g>
<!-- Node1&#45;&gt;Node9 -->
<g id="edge8" class="edge"><title>Node1&#45;&gt;Node9</title>
<path fill="none" stroke="midnightblue" d="M51.7368,-52.0488C63.2108,-44.9255 77.2319,-36.3717 90,-29 95.3889,-25.8887 101.315,-22.6167 106.734,-19.6816"/>
<polygon fill="midnightblue" stroke="midnightblue" points="49.7844,-49.1416 43.1537,-57.4051 53.4903,-55.0802 49.7844,-49.1416"/>
</g>
<!-- Node3 -->
<g id="node3" class="node"><title>Node3</title>
<g id="a_node3"><a xlink:href="../../d4/dc0/classppm__java_1_1util_1_1storage_1_1atomic_buffer_1_1_t_atomic_buffer___stats.html#aa71d36872f416feaa853788a7a7a7ef8" target="_top" xlink:title="Clears the overrun, underrun and contention counter. ">
<polygon fill="white" stroke="black" points="235,-142.5 235,-161.5 275,-161.5 275,-142.5 235,-142.5"/>
<text text-anchor="middle" x="255" y="-149.5" font-family="Helvetica,sans-Serif" font-size="10.00">Clear</text>
</a>
</g>
</g>
<!-- Node2&#45;&gt;Node3 -->
<g id="edge2" class="edge"><title>Node2&#45;&gt;Node3</title>
<path fill="none" stroke="midnightblue" d="M158.572,-137.723C182.52,-141.306 214.657,-146.114 234.847,-149.135"/>
<polygon fill="midnightblue" stroke="midnightblue" points="158.952,-134.241 148.544,-136.223 157.916,-141.164 158.952,-134.241"/>
</g>
<!-- Node5 -->
<g id="node5" class="node"><title>Node5</title>
<g id="a_node5"><a xlink:href="../../d4/dc0/classppm__java_1_1util_1_1storage_1_1atomic_buffer_1_1_t_atomic_buffer___stats.html#a39d57e251a00462b0a8cbcab50f50114" target="_top" xlink:title="Increments the contention counter. ">
<polygon fill="white" stroke="black" points="198.5,-104.5 198.5,-123.5 311.5,-123.5 311.5,-104.5 198.5,-104.5"/>
<text text-anchor="middle" x="255" y="-111.5" font-family="Helvetica,sans-Serif" font-size="10.00">IncrementContentions</text>
</a>
</g>
</g>
<!-- Node4&#45;&gt;Node5 -->
<g id="edge4" class="edge"><title>Node4&#45;&gt;Node5</title>
<path fill="none" stroke="midnightblue" d="M168.687,-95.1908C182.163,-98.1619 197.131,-101.462 210.72,-104.458"/>
<polygon fill="midnightblue" stroke="midnightblue" points="169.239,-91.7285 158.72,-92.9934 167.732,-98.5644 169.239,-91.7285"/>
</g>
<!-- Node6 -->
<g id="node6" class="node"><title>Node6</title>
<g id="a_node6"><a xlink:href="../../d4/dc0/classppm__java_1_1util_1_1storage_1_1atomic_buffer_1_1_t_atomic_buffer___stats.html#a462fb36e9359fa766daa48d9889313ae" target="_top" xlink:title="Increments the overrun counter. ">
<polygon fill="white" stroke="black" points="205,-66.5 205,-85.5 305,-85.5 305,-66.5 205,-66.5"/>
<text text-anchor="middle" x="255" y="-73.5" font-family="Helvetica,sans-Serif" font-size="10.00">IncrementOverruns</text>
</a>
</g>
</g>
<!-- Node4&#45;&gt;Node6 -->
<g id="edge5" class="edge"><title>Node4&#45;&gt;Node6</title>
<path fill="none" stroke="midnightblue" d="M168.939,-82.6977C180.45,-81.7913 193.034,-80.8005 204.908,-79.8655"/>
<polygon fill="midnightblue" stroke="midnightblue" points="168.414,-79.2281 158.72,-83.5024 168.964,-86.2065 168.414,-79.2281"/>
</g>
<!-- Node7 -->
<g id="node7" class="node"><title>Node7</title>
<g id="a_node7"><a xlink:href="../../d4/dc0/classppm__java_1_1util_1_1storage_1_1atomic_buffer_1_1_t_atomic_buffer___stats.html#a68893108bb5b91dced707e014565a9e5" target="_top" xlink:title="Increments the underrun counter. ">
<polygon fill="white" stroke="black" points="202.5,-28.5 202.5,-47.5 307.5,-47.5 307.5,-28.5 202.5,-28.5"/>
<text text-anchor="middle" x="255" y="-35.5" font-family="Helvetica,sans-Serif" font-size="10.00">IncrementUnderruns</text>
</a>
</g>
</g>
<!-- Node4&#45;&gt;Node7 -->
<g id="edge6" class="edge"><title>Node4&#45;&gt;Node7</title>
<path fill="none" stroke="midnightblue" d="M158.871,-72.5014C171.05,-67.4701 185.107,-61.8154 198,-57 206.656,-53.7672 216.147,-50.4592 224.816,-47.5283"/>
<polygon fill="midnightblue" stroke="midnightblue" points="157.452,-69.3008 149.565,-76.3746 160.142,-75.7634 157.452,-69.3008"/>
</g>
</g>
</svg>
