<?xml version="1.0" encoding="UTF-8" standalone="no"?>
<!DOCTYPE svg PUBLIC "-//W3C//DTD SVG 1.1//EN"
 "http://www.w3.org/Graphics/SVG/1.1/DTD/svg11.dtd">
<!-- Generated by graphviz version 2.36.0 (20140111.2315)
 -->
<!-- Title: _Lock Pages: 1 -->
<svg width="310pt" height="170pt"
 viewBox="0.00 0.00 310.00 170.00" xmlns="http://www.w3.org/2000/svg" xmlns:xlink="http://www.w3.org/1999/xlink">
<g id="graph0" class="graph" transform="scale(1 1) rotate(0) translate(4 166)">
<title>_Lock</title>
<polygon fill="white" stroke="none" points="-4,4 -4,-166 306,-166 306,4 -4,4"/>
<!-- Node1 -->
<g id="node1" class="node"><title>Node1</title>
<polygon fill="#bfbfbf" stroke="black" points="0.5,-57.5 0.5,-76.5 43.5,-76.5 43.5,-57.5 0.5,-57.5"/>
<text text-anchor="middle" x="22" y="-64.5" font-family="Helvetica,sans-Serif" font-size="10.00">_Lock</text>
</g>
<!-- Node2 -->
<g id="node2" class="node"><title>Node2</title>
<g id="a_node2"><a xlink:href="../../d4/dc0/classppm__java_1_1util_1_1storage_1_1atomic_buffer_1_1_t_atomic_buffer___stats.html#a27f3771a68ae90c1ed341baa6cf5cecd" target="_top" xlink:title="Clear all the fields. ">
<polygon fill="white" stroke="black" points="93.5,-123.5 93.5,-142.5 138.5,-142.5 138.5,-123.5 93.5,-123.5"/>
<text text-anchor="middle" x="116" y="-130.5" font-family="Helvetica,sans-Serif" font-size="10.00">_Clear</text>
</a>
</g>
</g>
<!-- Node1&#45;&gt;Node2 -->
<g id="edge1" class="edge"><title>Node1&#45;&gt;Node2</title>
<path fill="none" stroke="midnightblue" d="M45.1231,-82.8709C62.7588,-95.5226 86.8726,-112.822 101.669,-123.436"/>
<polygon fill="midnightblue" stroke="midnightblue" points="46.7405,-79.7238 36.5749,-76.7385 42.6601,-85.4115 46.7405,-79.7238"/>
</g>
<!-- Node4 -->
<g id="node4" class="node"><title>Node4</title>
<g id="a_node4"><a xlink:href="../../d4/dc0/classppm__java_1_1util_1_1storage_1_1atomic_buffer_1_1_t_atomic_buffer___stats.html#a4a1d84e8a1c15b8327e23925bf1f2a12" target="_top" xlink:title="Increments the requested field. ">
<polygon fill="white" stroke="black" points="83.5,-76.5 83.5,-95.5 148.5,-95.5 148.5,-76.5 83.5,-76.5"/>
<text text-anchor="middle" x="116" y="-83.5" font-family="Helvetica,sans-Serif" font-size="10.00">_Increment</text>
</a>
</g>
</g>
<!-- Node1&#45;&gt;Node4 -->
<g id="edge3" class="edge"><title>Node1&#45;&gt;Node4</title>
<path fill="none" stroke="midnightblue" d="M53.738,-73.3481C63.266,-75.3158 73.7793,-77.487 83.367,-79.4671"/>
<polygon fill="midnightblue" stroke="midnightblue" points="54.3775,-69.9063 43.8762,-71.3114 52.9616,-76.7617 54.3775,-69.9063"/>
</g>
<!-- Node8 -->
<g id="node8" class="node"><title>Node8</title>
<g id="a_node8"><a xlink:href="../../d4/dc0/classppm__java_1_1util_1_1storage_1_1atomic_buffer_1_1_t_atomic_buffer___stats.html#aeca6a90af8e17967096f2bfd719ceb45" target="_top" xlink:title="GetDumpStr">
<polygon fill="white" stroke="black" points="80.5,-38.5 80.5,-57.5 151.5,-57.5 151.5,-38.5 80.5,-38.5"/>
<text text-anchor="middle" x="116" y="-45.5" font-family="Helvetica,sans-Serif" font-size="10.00">GetDumpStr</text>
</a>
</g>
</g>
<!-- Node1&#45;&gt;Node8 -->
<g id="edge7" class="edge"><title>Node1&#45;&gt;Node8</title>
<path fill="none" stroke="midnightblue" d="M53.832,-60.6325C62.3909,-58.8649 71.7387,-56.9344 80.4931,-55.1264"/>
<polygon fill="midnightblue" stroke="midnightblue" points="52.9616,-57.2383 43.8762,-62.6886 54.3775,-64.0937 52.9616,-57.2383"/>
</g>
<!-- Node9 -->
<g id="node9" class="node"><title>Node9</title>
<g id="a_node9"><a xlink:href="../../d4/dc0/classppm__java_1_1util_1_1storage_1_1atomic_buffer_1_1_t_atomic_buffer___stats.html#aa09e1ecd93d0d2d3966dd8426cc785f3" target="_top" xlink:title="Returns a dump of all the fields as one object. ">
<polygon fill="white" stroke="black" points="84,-0.5 84,-19.5 148,-19.5 148,-0.5 84,-0.5"/>
<text text-anchor="middle" x="116" y="-7.5" font-family="Helvetica,sans-Serif" font-size="10.00">GetRecord</text>
</a>
</g>
</g>
<!-- Node1&#45;&gt;Node9 -->
<g id="edge8" class="edge"><title>Node1&#45;&gt;Node9</title>
<path fill="none" stroke="midnightblue" d="M45.3124,-51.4452C55.7129,-44.3715 68.3418,-36.0307 80,-29 85.3286,-25.7865 91.2364,-22.4841 96.6575,-19.5526"/>
<polygon fill="midnightblue" stroke="midnightblue" points="43.0901,-48.7254 36.8265,-57.2705 47.0518,-54.4965 43.0901,-48.7254"/>
</g>
<!-- Node3 -->
<g id="node3" class="node"><title>Node3</title>
<g id="a_node3"><a xlink:href="../../d4/dc0/classppm__java_1_1util_1_1storage_1_1atomic_buffer_1_1_t_atomic_buffer___stats.html#aa71d36872f416feaa853788a7a7a7ef8" target="_top" xlink:title="Clears the overrun, underrun and contention counter. ">
<polygon fill="white" stroke="black" points="225,-142.5 225,-161.5 265,-161.5 265,-142.5 225,-142.5"/>
<text text-anchor="middle" x="245" y="-149.5" font-family="Helvetica,sans-Serif" font-size="10.00">Clear</text>
</a>
</g>
</g>
<!-- Node2&#45;&gt;Node3 -->
<g id="edge2" class="edge"><title>Node2&#45;&gt;Node3</title>
<path fill="none" stroke="midnightblue" d="M148.572,-137.723C172.52,-141.306 204.657,-146.114 224.847,-149.135"/>
<polygon fill="midnightblue" stroke="midnightblue" points="148.952,-134.241 138.544,-136.223 147.916,-141.164 148.952,-134.241"/>
</g>
<!-- Node5 -->
<g id="node5" class="node"><title>Node5</title>
<g id="a_node5"><a xlink:href="../../d4/dc0/classppm__java_1_1util_1_1storage_1_1atomic_buffer_1_1_t_atomic_buffer___stats.html#a39d57e251a00462b0a8cbcab50f50114" target="_top" xlink:title="Increments the contention counter. ">
<polygon fill="white" stroke="black" points="188.5,-104.5 188.5,-123.5 301.5,-123.5 301.5,-104.5 188.5,-104.5"/>
<text text-anchor="middle" x="245" y="-111.5" font-family="Helvetica,sans-Serif" font-size="10.00">IncrementContentions</text>
</a>
</g>
</g>
<!-- Node4&#45;&gt;Node5 -->
<g id="edge4" class="edge"><title>Node4&#45;&gt;Node5</title>
<path fill="none" stroke="midnightblue" d="M158.687,-95.1908C172.163,-98.1619 187.131,-101.462 200.72,-104.458"/>
<polygon fill="midnightblue" stroke="midnightblue" points="159.239,-91.7285 148.72,-92.9934 157.732,-98.5644 159.239,-91.7285"/>
</g>
<!-- Node6 -->
<g id="node6" class="node"><title>Node6</title>
<g id="a_node6"><a xlink:href="../../d4/dc0/classppm__java_1_1util_1_1storage_1_1atomic_buffer_1_1_t_atomic_buffer___stats.html#a462fb36e9359fa766daa48d9889313ae" target="_top" xlink:title="Increments the overrun counter. ">
<polygon fill="white" stroke="black" points="195,-66.5 195,-85.5 295,-85.5 295,-66.5 195,-66.5"/>
<text text-anchor="middle" x="245" y="-73.5" font-family="Helvetica,sans-Serif" font-size="10.00">IncrementOverruns</text>
</a>
</g>
</g>
<!-- Node4&#45;&gt;Node6 -->
<g id="edge5" class="edge"><title>Node4&#45;&gt;Node6</title>
<path fill="none" stroke="midnightblue" d="M158.939,-82.6977C170.45,-81.7913 183.034,-80.8005 194.908,-79.8655"/>
<polygon fill="midnightblue" stroke="midnightblue" points="158.414,-79.2281 148.72,-83.5024 158.964,-86.2065 158.414,-79.2281"/>
</g>
<!-- Node7 -->
<g id="node7" class="node"><title>Node7</title>
<g id="a_node7"><a xlink:href="../../d4/dc0/classppm__java_1_1util_1_1storage_1_1atomic_buffer_1_1_t_atomic_buffer___stats.html#a68893108bb5b91dced707e014565a9e5" target="_top" xlink:title="Increments the underrun counter. ">
<polygon fill="white" stroke="black" points="192.5,-28.5 192.5,-47.5 297.5,-47.5 297.5,-28.5 192.5,-28.5"/>
<text text-anchor="middle" x="245" y="-35.5" font-family="Helvetica,sans-Serif" font-size="10.00">IncrementUnderruns</text>
</a>
</g>
</g>
<!-- Node4&#45;&gt;Node7 -->
<g id="edge6" class="edge"><title>Node4&#45;&gt;Node7</title>
<path fill="none" stroke="midnightblue" d="M148.871,-72.5014C161.05,-67.4701 175.107,-61.8154 188,-57 196.656,-53.7672 206.147,-50.4592 214.816,-47.5283"/>
<polygon fill="midnightblue" stroke="midnightblue" points="147.452,-69.3008 139.565,-76.3746 150.142,-75.7634 147.452,-69.3008"/>
</g>
</g>
</svg>
