<?xml version="1.0" encoding="UTF-8" standalone="no"?>
<!DOCTYPE svg PUBLIC "-//W3C//DTD SVG 1.1//EN"
 "http://www.w3.org/Graphics/SVG/1.1/DTD/svg11.dtd">
<!-- Generated by graphviz version 2.36.0 (20140111.2315)
 -->
<!-- Title: IncrementUnderruns Pages: 1 -->
<svg width="306pt" height="66pt"
 viewBox="0.00 0.00 306.00 66.00" xmlns="http://www.w3.org/2000/svg" xmlns:xlink="http://www.w3.org/1999/xlink">
<g id="graph0" class="graph" transform="scale(1 1) rotate(0) translate(4 62)">
<title>IncrementUnderruns</title>
<polygon fill="white" stroke="none" points="-4,4 -4,-62 302,-62 302,4 -4,4"/>
<!-- Node1 -->
<g id="node1" class="node"><title>Node1</title>
<polygon fill="#bfbfbf" stroke="black" points="0.5,-19.5 0.5,-38.5 105.5,-38.5 105.5,-19.5 0.5,-19.5"/>
<text text-anchor="middle" x="53" y="-26.5" font-family="Helvetica,sans-Serif" font-size="10.00">IncrementUnderruns</text>
</g>
<!-- Node2 -->
<g id="node2" class="node"><title>Node2</title>
<g id="a_node2"><a xlink:href="../../d4/dc0/classppm__java_1_1util_1_1storage_1_1atomic_buffer_1_1_t_atomic_buffer___stats.html#a4a1d84e8a1c15b8327e23925bf1f2a12" target="_top" xlink:title="Increments the requested field. ">
<polygon fill="white" stroke="black" points="142.5,-19.5 142.5,-38.5 207.5,-38.5 207.5,-19.5 142.5,-19.5"/>
<text text-anchor="middle" x="175" y="-26.5" font-family="Helvetica,sans-Serif" font-size="10.00">_Increment</text>
</a>
</g>
</g>
<!-- Node1&#45;&gt;Node2 -->
<g id="edge1" class="edge"><title>Node1&#45;&gt;Node2</title>
<path fill="none" stroke="midnightblue" d="M105.587,-29C114.439,-29 123.54,-29 132.098,-29"/>
<polygon fill="midnightblue" stroke="midnightblue" points="132.216,-32.5001 142.216,-29 132.216,-25.5001 132.216,-32.5001"/>
</g>
<!-- Node3 -->
<g id="node3" class="node"><title>Node3</title>
<g id="a_node3"><a xlink:href="../../d4/dc0/classppm__java_1_1util_1_1storage_1_1atomic_buffer_1_1_t_atomic_buffer___stats.html#a60fe7aa6d1a53dab132be5ecc82d668e" target="_top" xlink:title="Locks the critical sections. ">
<polygon fill="white" stroke="black" points="249.5,-38.5 249.5,-57.5 292.5,-57.5 292.5,-38.5 249.5,-38.5"/>
<text text-anchor="middle" x="271" y="-45.5" font-family="Helvetica,sans-Serif" font-size="10.00">_Lock</text>
</a>
</g>
</g>
<!-- Node2&#45;&gt;Node3 -->
<g id="edge2" class="edge"><title>Node2&#45;&gt;Node3</title>
<path fill="none" stroke="midnightblue" d="M207.562,-35.3796C217.775,-37.4439 229.082,-39.7294 239.236,-41.7818"/>
<polygon fill="midnightblue" stroke="midnightblue" points="238.812,-45.2667 249.307,-43.8173 240.198,-38.4054 238.812,-45.2667"/>
</g>
<!-- Node4 -->
<g id="node4" class="node"><title>Node4</title>
<g id="a_node4"><a xlink:href="../../d4/dc0/classppm__java_1_1util_1_1storage_1_1atomic_buffer_1_1_t_atomic_buffer___stats.html#a4e9f36f97f1d8af33e8f50dce5153568" target="_top" xlink:title="Unlocks the critical sections. ">
<polygon fill="white" stroke="black" points="244.5,-0.5 244.5,-19.5 297.5,-19.5 297.5,-0.5 244.5,-0.5"/>
<text text-anchor="middle" x="271" y="-7.5" font-family="Helvetica,sans-Serif" font-size="10.00">_Unlock</text>
</a>
</g>
</g>
<!-- Node2&#45;&gt;Node4 -->
<g id="edge3" class="edge"><title>Node2&#45;&gt;Node4</title>
<path fill="none" stroke="midnightblue" d="M207.562,-22.6204C216.149,-20.8847 225.51,-18.9927 234.308,-17.2143"/>
<polygon fill="midnightblue" stroke="midnightblue" points="235.19,-20.6069 244.299,-15.195 233.803,-13.7456 235.19,-20.6069"/>
</g>
</g>
</svg>
