<?xml version="1.0" encoding="UTF-8" standalone="no"?>
<!DOCTYPE svg PUBLIC "-//W3C//DTD SVG 1.1//EN"
 "http://www.w3.org/Graphics/SVG/1.1/DTD/svg11.dtd">
<!-- Generated by graphviz version 2.36.0 (20140111.2315)
 -->
<!-- Title: TAtomicBuffer_Stats Pages: 1 -->
<svg width="189pt" height="326pt"
 viewBox="0.00 0.00 189.00 326.00" xmlns="http://www.w3.org/2000/svg" xmlns:xlink="http://www.w3.org/1999/xlink">
<g id="graph0" class="graph" transform="scale(1 1) rotate(0) translate(4 322)">
<title>TAtomicBuffer_Stats</title>
<polygon fill="white" stroke="none" points="-4,4 -4,-322 185,-322 185,4 -4,4"/>
<!-- Node1 -->
<g id="node1" class="node"><title>Node1</title>
<polygon fill="#bfbfbf" stroke="black" points="29,-0.5 29,-211.5 157,-211.5 157,-0.5 29,-0.5"/>
<text text-anchor="middle" x="93" y="-199.5" font-family="Helvetica,sans-Serif" font-size="10.00">TAtomicBuffer_Stats</text>
<polyline fill="none" stroke="black" points="29,-192.5 157,-192.5 "/>
<text text-anchor="start" x="37" y="-180.5" font-family="Helvetica,sans-Serif" font-size="10.00">~ fNumContentions</text>
<text text-anchor="start" x="37" y="-169.5" font-family="Helvetica,sans-Serif" font-size="10.00">~ fNumOverruns</text>
<text text-anchor="start" x="37" y="-158.5" font-family="Helvetica,sans-Serif" font-size="10.00">&#45; fNumUnderruns</text>
<text text-anchor="start" x="37" y="-147.5" font-family="Helvetica,sans-Serif" font-size="10.00">&#45; gkLocked</text>
<text text-anchor="start" x="37" y="-136.5" font-family="Helvetica,sans-Serif" font-size="10.00">&#45; gkUnlocked</text>
<polyline fill="none" stroke="black" points="29,-129.5 157,-129.5 "/>
<text text-anchor="start" x="37" y="-117.5" font-family="Helvetica,sans-Serif" font-size="10.00">+ TAtomicBuffer_Stats()</text>
<text text-anchor="start" x="37" y="-106.5" font-family="Helvetica,sans-Serif" font-size="10.00">+ Clear()</text>
<text text-anchor="start" x="37" y="-95.5" font-family="Helvetica,sans-Serif" font-size="10.00">+ GetDumpStr()</text>
<text text-anchor="start" x="37" y="-84.5" font-family="Helvetica,sans-Serif" font-size="10.00">+ GetRecord()</text>
<text text-anchor="start" x="37" y="-73.5" font-family="Helvetica,sans-Serif" font-size="10.00">~ IncrementContentions()</text>
<text text-anchor="start" x="37" y="-62.5" font-family="Helvetica,sans-Serif" font-size="10.00">~ IncrementOverruns()</text>
<text text-anchor="start" x="37" y="-51.5" font-family="Helvetica,sans-Serif" font-size="10.00">~ IncrementUnderruns()</text>
<text text-anchor="start" x="37" y="-40.5" font-family="Helvetica,sans-Serif" font-size="10.00">&#45; _Clear()</text>
<text text-anchor="start" x="37" y="-29.5" font-family="Helvetica,sans-Serif" font-size="10.00">&#45; _Increment()</text>
<text text-anchor="start" x="37" y="-18.5" font-family="Helvetica,sans-Serif" font-size="10.00">&#45; _Lock()</text>
<text text-anchor="start" x="37" y="-7.5" font-family="Helvetica,sans-Serif" font-size="10.00">&#45; _Unlock()</text>
</g>
<!-- Node2 -->
<g id="node2" class="node"><title>Node2</title>
<g id="a_node2"><a xlink:href="../../d7/d5a/interfaceppm__java_1_1typelib_1_1_i_stats.html" target="_top" xlink:title="Interface for a statistics record. ">
<polygon fill="white" stroke="black" points="0,-260.5 0,-317.5 86,-317.5 86,-260.5 0,-260.5"/>
<text text-anchor="middle" x="43" y="-305.5" font-family="Helvetica,sans-Serif" font-size="10.00">IStats</text>
<polyline fill="none" stroke="black" points="0,-298.5 86,-298.5 "/>
<text text-anchor="middle" x="43" y="-286.5" font-family="Helvetica,sans-Serif" font-size="10.00"> </text>
<polyline fill="none" stroke="black" points="0,-279.5 86,-279.5 "/>
<text text-anchor="start" x="8" y="-267.5" font-family="Helvetica,sans-Serif" font-size="10.00">+ GetDumpStr()</text>
</a>
</g>
</g>
<!-- Node2&#45;&gt;Node1 -->
<g id="edge1" class="edge"><title>Node2&#45;&gt;Node1</title>
<path fill="none" stroke="midnightblue" d="M53.3806,-250.422C56.5827,-238.831 60.2781,-225.453 64.0981,-211.625"/>
<polygon fill="none" stroke="midnightblue" points="49.9921,-249.544 50.7029,-260.115 56.7393,-251.408 49.9921,-249.544"/>
</g>
<!-- Node3 -->
<g id="node3" class="node"><title>Node3</title>
<polygon fill="white" stroke="#bfbfbf" points="104.5,-260.5 104.5,-317.5 181.5,-317.5 181.5,-260.5 104.5,-260.5"/>
<text text-anchor="middle" x="143" y="-305.5" font-family="Helvetica,sans-Serif" font-size="10.00">AtomicInteger</text>
<polyline fill="none" stroke="#bfbfbf" points="104.5,-298.5 181.5,-298.5 "/>
<text text-anchor="middle" x="143" y="-286.5" font-family="Helvetica,sans-Serif" font-size="10.00"> </text>
<polyline fill="none" stroke="#bfbfbf" points="104.5,-279.5 181.5,-279.5 "/>
<text text-anchor="middle" x="143" y="-267.5" font-family="Helvetica,sans-Serif" font-size="10.00"> </text>
</g>
<!-- Node3&#45;&gt;Node1 -->
<g id="edge2" class="edge"><title>Node3&#45;&gt;Node1</title>
<path fill="none" stroke="#404040" d="M135.297,-260.115C132.387,-249.579 128.862,-236.822 125.105,-223.22"/>
<polygon fill="none" stroke="#404040" points="125.097,-223.192 119.644,-218.473 121.902,-211.625 127.355,-216.343 125.097,-223.192"/>
<text text-anchor="middle" x="145.5" y="-233.5" font-family="Helvetica,sans-Serif" font-size="10.00"> &#45;fLock</text>
</g>
</g>
</svg>
