<?xml version="1.0" encoding="UTF-8" standalone="no"?>
<!DOCTYPE svg PUBLIC "-//W3C//DTD SVG 1.1//EN"
 "http://www.w3.org/Graphics/SVG/1.1/DTD/svg11.dtd">
<!-- Generated by graphviz version 2.36.0 (20140111.2315)
 -->
<!-- Title: TAtomicBuffer_Stats Pages: 1 -->
<svg width="189pt" height="360pt"
 viewBox="0.00 0.00 189.00 360.00" xmlns="http://www.w3.org/2000/svg" xmlns:xlink="http://www.w3.org/1999/xlink">
<g id="graph0" class="graph" transform="scale(1 1) rotate(0) translate(4 356)">
<title>TAtomicBuffer_Stats</title>
<polygon fill="white" stroke="none" points="-4,4 -4,-356 185,-356 185,4 -4,4"/>
<!-- Node1 -->
<g id="node1" class="node"><title>Node1</title>
<polygon fill="#bfbfbf" stroke="black" points="29,-1 29,-245 157,-245 157,-1 29,-1"/>
<text text-anchor="middle" x="93" y="-233" font-family="Helvetica,sans-Serif" font-size="10.00">TAtomicBuffer_Stats</text>
<polyline fill="none" stroke="black" points="29,-226 157,-226 "/>
<text text-anchor="start" x="37" y="-214" font-family="Helvetica,sans-Serif" font-size="10.00">&#45; fNumContentions</text>
<text text-anchor="start" x="37" y="-203" font-family="Helvetica,sans-Serif" font-size="10.00">&#45; fNumOverruns</text>
<text text-anchor="start" x="37" y="-192" font-family="Helvetica,sans-Serif" font-size="10.00">&#45; fNumUnderruns</text>
<text text-anchor="start" x="37" y="-181" font-family="Helvetica,sans-Serif" font-size="10.00">&#45; fTot_NumContentions</text>
<text text-anchor="start" x="37" y="-170" font-family="Helvetica,sans-Serif" font-size="10.00">&#45; fTot_NumOverruns</text>
<text text-anchor="start" x="37" y="-159" font-family="Helvetica,sans-Serif" font-size="10.00">&#45; fTot_NumUnderruns</text>
<text text-anchor="start" x="37" y="-148" font-family="Helvetica,sans-Serif" font-size="10.00">&#45; gkLocked</text>
<text text-anchor="start" x="37" y="-137" font-family="Helvetica,sans-Serif" font-size="10.00">&#45; gkUnlocked</text>
<polyline fill="none" stroke="black" points="29,-130 157,-130 "/>
<text text-anchor="start" x="37" y="-118" font-family="Helvetica,sans-Serif" font-size="10.00">+ TAtomicBuffer_Stats()</text>
<text text-anchor="start" x="37" y="-107" font-family="Helvetica,sans-Serif" font-size="10.00">+ Clear()</text>
<text text-anchor="start" x="37" y="-96" font-family="Helvetica,sans-Serif" font-size="10.00">+ GetDumpStr()</text>
<text text-anchor="start" x="37" y="-85" font-family="Helvetica,sans-Serif" font-size="10.00">+ GetRecord()</text>
<text text-anchor="start" x="37" y="-74" font-family="Helvetica,sans-Serif" font-size="10.00">~ IncrementContentions()</text>
<text text-anchor="start" x="37" y="-63" font-family="Helvetica,sans-Serif" font-size="10.00">~ IncrementOverruns()</text>
<text text-anchor="start" x="37" y="-52" font-family="Helvetica,sans-Serif" font-size="10.00">~ IncrementUnderruns()</text>
<text text-anchor="start" x="37" y="-41" font-family="Helvetica,sans-Serif" font-size="10.00">&#45; _Clear()</text>
<text text-anchor="start" x="37" y="-30" font-family="Helvetica,sans-Serif" font-size="10.00">&#45; _Increment()</text>
<text text-anchor="start" x="37" y="-19" font-family="Helvetica,sans-Serif" font-size="10.00">&#45; _Lock()</text>
<text text-anchor="start" x="37" y="-8" font-family="Helvetica,sans-Serif" font-size="10.00">&#45; _Unlock()</text>
</g>
<!-- Node2 -->
<g id="node2" class="node"><title>Node2</title>
<g id="a_node2"><a xlink:href="../../d7/d5a/interfaceppm__java_1_1typelib_1_1_i_stats.html" target="_top" xlink:title="Interface for a statistics record. ">
<polygon fill="white" stroke="black" points="0,-294.5 0,-351.5 86,-351.5 86,-294.5 0,-294.5"/>
<text text-anchor="middle" x="43" y="-339.5" font-family="Helvetica,sans-Serif" font-size="10.00">IStats</text>
<polyline fill="none" stroke="black" points="0,-332.5 86,-332.5 "/>
<text text-anchor="middle" x="43" y="-320.5" font-family="Helvetica,sans-Serif" font-size="10.00"> </text>
<polyline fill="none" stroke="black" points="0,-313.5 86,-313.5 "/>
<text text-anchor="start" x="8" y="-301.5" font-family="Helvetica,sans-Serif" font-size="10.00">+ GetDumpStr()</text>
</a>
</g>
</g>
<!-- Node2&#45;&gt;Node1 -->
<g id="edge1" class="edge"><title>Node2&#45;&gt;Node1</title>
<path fill="none" stroke="midnightblue" d="M52.4081,-284.744C55.3524,-273.085 58.7769,-259.523 62.3648,-245.315"/>
<polygon fill="none" stroke="midnightblue" points="49.0073,-283.916 49.9523,-294.469 55.7942,-285.63 49.0073,-283.916"/>
</g>
<!-- Node3 -->
<g id="node3" class="node"><title>Node3</title>
<polygon fill="white" stroke="#bfbfbf" points="104.5,-294.5 104.5,-351.5 181.5,-351.5 181.5,-294.5 104.5,-294.5"/>
<text text-anchor="middle" x="143" y="-339.5" font-family="Helvetica,sans-Serif" font-size="10.00">AtomicInteger</text>
<polyline fill="none" stroke="#bfbfbf" points="104.5,-332.5 181.5,-332.5 "/>
<text text-anchor="middle" x="143" y="-320.5" font-family="Helvetica,sans-Serif" font-size="10.00"> </text>
<polyline fill="none" stroke="#bfbfbf" points="104.5,-313.5 181.5,-313.5 "/>
<text text-anchor="middle" x="143" y="-301.5" font-family="Helvetica,sans-Serif" font-size="10.00"> </text>
</g>
<!-- Node3&#45;&gt;Node1 -->
<g id="edge2" class="edge"><title>Node3&#45;&gt;Node1</title>
<path fill="none" stroke="#404040" d="M136.048,-294.469C133.385,-283.926 130.138,-271.068 126.633,-257.187"/>
<polygon fill="none" stroke="#404040" points="126.573,-256.95 121.226,-252.112 123.635,-245.315 128.982,-250.153 126.573,-256.95"/>
<text text-anchor="middle" x="146.5" y="-267.5" font-family="Helvetica,sans-Serif" font-size="10.00"> &#45;fLock</text>
</g>
</g>
</svg>
