<?xml version="1.0" encoding="UTF-8" standalone="no"?>
<!DOCTYPE svg PUBLIC "-//W3C//DTD SVG 1.1//EN"
 "http://www.w3.org/Graphics/SVG/1.1/DTD/svg11.dtd">
<!-- Generated by graphviz version 2.36.0 (20140111.2315)
 -->
<!-- Title: TConnection Pages: 1 -->
<!--zoomable 1004 -->
<svg id="main" version="1.1" xmlns="http://www.w3.org/2000/svg" xmlns:xlink="http://www.w3.org/1999/xlink" xml:space="preserve" onload="init(evt)">
<style type="text/css"><![CDATA[
.edge:hover path { stroke: red; }
.edge:hover polygon { stroke: red; fill: red; }
]]></style>
<script type="text/javascript"><![CDATA[
var edges = document.getElementsByTagName('g');
if (edges && edges.length) {
  for (var i=0;i<edges.length;i++) {
    if (edges[i].id.substr(0,4)=='edge') {
      edges[i].setAttribute('class','edge');
    }
  }
}
]]></script>
        <defs>
                <circle id="rim" cx="0" cy="0" r="7"/>
                <circle id="rim2" cx="0" cy="0" r="3.5"/>
                <g id="zoomPlus">
                        <use xlink:href="#rim" fill="#404040">
                                <set attributeName="fill" to="#808080" begin="zoomplus.mouseover" end="zoomplus.mouseout"/>
                        </use>
                        <path d="M-4,0h8M0,-4v8" fill="none" stroke="white" stroke-width="1.5" pointer-events="none"/>
                </g>
                <g id="zoomMin">
                        <use xlink:href="#rim" fill="#404040">
                                <set attributeName="fill" to="#808080" begin="zoomminus.mouseover" end="zoomminus.mouseout"/>
                        </use>
                        <path d="M-4,0h8" fill="none" stroke="white" stroke-width="1.5" pointer-events="none"/>
                </g>
                <g id="dirArrow">
                        <path fill="none" stroke="white" stroke-width="1.5" d="M0,-3.0v7 M-2.5,-0.5L0,-3.0L2.5,-0.5"/>
                </g>
               <g id="resetDef">
                       <use xlink:href="#rim2" fill="#404040">
                               <set attributeName="fill" to="#808080" begin="reset.mouseover" end="reset.mouseout"/>
                       </use>
               </g>
        </defs>

<script type="text/javascript">
var viewWidth = 483;
var viewHeight = 1004;
var sectionId = 'dynsection-1';
</script>
<script xlink:href="../../svgpan.js"/>
<svg id="graph" class="graph">
<g id="viewport">
<title>TConnection</title>
<polygon fill="white" stroke="none" points="-4,4 -4,-1000 479,-1000 479,4 -4,4"/>
<!-- Node1 -->
<g id="node1" class="node"><title>Node1</title>
<polygon fill="#bfbfbf" stroke="black" points="19,-1 19,-113 117,-113 117,-1 19,-1"/>
<text text-anchor="middle" x="68" y="-101" font-family="Helvetica,sans-Serif" font-size="10.00">TConnection</text>
<polyline fill="none" stroke="black" points="19,-94 117,-94 "/>
<text text-anchor="start" x="27" y="-82" font-family="Helvetica,sans-Serif" font-size="10.00">&#45; gCounter</text>
<polyline fill="none" stroke="black" points="19,-75 117,-75 "/>
<text text-anchor="start" x="27" y="-63" font-family="Helvetica,sans-Serif" font-size="10.00">+ Get_FromPort()</text>
<text text-anchor="start" x="27" y="-52" font-family="Helvetica,sans-Serif" font-size="10.00">+ Get_ToPort()</text>
<text text-anchor="start" x="27" y="-41" font-family="Helvetica,sans-Serif" font-size="10.00">+ CreateInstance()</text>
<text text-anchor="start" x="27" y="-30" font-family="Helvetica,sans-Serif" font-size="10.00"># _Register()</text>
<text text-anchor="start" x="27" y="-19" font-family="Helvetica,sans-Serif" font-size="10.00">&#45; TConnection()</text>
<text text-anchor="start" x="27" y="-8" font-family="Helvetica,sans-Serif" font-size="10.00">&#45; _GetID()</text>
</g>
<!-- Node2 -->
<g id="node2" class="node"><title>Node2</title>
<g id="a_node2"><a xlink:href="../../de/dd1/classppm__java_1_1typelib_1_1_v_browseable.html" target="_top" xlink:title="Base class for all browseable objects. ">
<polygon fill="white" stroke="black" points="-0.5,-916.5 -0.5,-995.5 88.5,-995.5 88.5,-916.5 -0.5,-916.5"/>
<text text-anchor="middle" x="44" y="-983.5" font-family="Helvetica,sans-Serif" font-size="10.00">VBrowseable</text>
<polyline fill="none" stroke="black" points="-0.5,-976.5 88.5,-976.5 "/>
<text text-anchor="start" x="7.5" y="-964.5" font-family="Helvetica,sans-Serif" font-size="10.00">&#45; fID</text>
<polyline fill="none" stroke="black" points="-0.5,-957.5 88.5,-957.5 "/>
<text text-anchor="start" x="7.5" y="-945.5" font-family="Helvetica,sans-Serif" font-size="10.00">+ VBrowseable()</text>
<text text-anchor="start" x="7.5" y="-934.5" font-family="Helvetica,sans-Serif" font-size="10.00">+ GetID()</text>
<text text-anchor="start" x="7.5" y="-923.5" font-family="Helvetica,sans-Serif" font-size="10.00"># _Register()</text>
</a>
</g>
</g>
<!-- Node2&#45;&gt;Node1 -->
<g id="edge1" class="edge"><title>Node2&#45;&gt;Node1</title>
<path fill="none" stroke="midnightblue" d="M28.8813,-906.635C24.0833,-887.348 20,-864.819 20,-844 20,-844 20,-844 20,-229 20,-189.223 32.1882,-146.113 44.2812,-113.13"/>
<polygon fill="none" stroke="midnightblue" points="25.5189,-907.612 31.4377,-916.399 32.2907,-905.839 25.5189,-907.612"/>
</g>
<!-- Node5 -->
<g id="node5" class="node"><title>Node5</title>
<g id="a_node5"><a xlink:href="../../d1/db3/classppm__java_1_1typelib_1_1_v_audio_object.html" target="_top" xlink:title="Base class for all browseable audio objects. ">
<polygon fill="white" stroke="black" points="48,-814.5 48,-871.5 140,-871.5 140,-814.5 48,-814.5"/>
<text text-anchor="middle" x="94" y="-859.5" font-family="Helvetica,sans-Serif" font-size="10.00">VAudioObject</text>
<polyline fill="none" stroke="black" points="48,-852.5 140,-852.5 "/>
<text text-anchor="middle" x="94" y="-840.5" font-family="Helvetica,sans-Serif" font-size="10.00"> </text>
<polyline fill="none" stroke="black" points="48,-833.5 140,-833.5 "/>
<text text-anchor="start" x="56" y="-821.5" font-family="Helvetica,sans-Serif" font-size="10.00">+ VAudioObject()</text>
</a>
</g>
</g>
<!-- Node2&#45;&gt;Node5 -->
<g id="edge5" class="edge"><title>Node2&#45;&gt;Node5</title>
<path fill="none" stroke="midnightblue" d="M65.4847,-907.304C70.9776,-895.11 76.7015,-882.403 81.5672,-871.601"/>
<polygon fill="none" stroke="midnightblue" points="62.2632,-905.934 61.3473,-916.489 68.6456,-908.809 62.2632,-905.934"/>
</g>
<!-- Node3 -->
<g id="node3" class="node"><title>Node3</title>
<g id="a_node3"><a xlink:href="../../d9/d0e/classppm__java_1_1typelib_1_1_v_audio_port___input.html" target="_top" xlink:title="Base class for an input audio port. ">
<polygon fill="white" stroke="black" points="48,-346.5 48,-425.5 156,-425.5 156,-346.5 48,-346.5"/>
<text text-anchor="middle" x="102" y="-413.5" font-family="Helvetica,sans-Serif" font-size="10.00">VAudioPort_Input</text>
<polyline fill="none" stroke="black" points="48,-406.5 156,-406.5 "/>
<text text-anchor="start" x="56" y="-394.5" font-family="Helvetica,sans-Serif" font-size="10.00">&#45; fIPort</text>
<polyline fill="none" stroke="black" points="48,-387.5 156,-387.5 "/>
<text text-anchor="start" x="56" y="-375.5" font-family="Helvetica,sans-Serif" font-size="10.00">+ VAudioPort_Input()</text>
<text text-anchor="start" x="56" y="-364.5" font-family="Helvetica,sans-Serif" font-size="10.00">+ GetPortNum()</text>
<text text-anchor="start" x="56" y="-353.5" font-family="Helvetica,sans-Serif" font-size="10.00"># _Accept()</text>
</a>
</g>
</g>
<!-- Node3&#45;&gt;Node1 -->
<g id="edge2" class="edge"><title>Node3&#45;&gt;Node1</title>
<path fill="none" stroke="#404040" d="M88.7565,-346.478C84.1922,-331.523 79.5821,-314.139 77,-298 67.7587,-240.24 65.9432,-173.712 66.1899,-125.371"/>
<polygon fill="none" stroke="#404040" points="66.1915,-125.178 62.2448,-119.143 66.2977,-113.179 70.2445,-119.214 66.1915,-125.178"/>
<text text-anchor="middle" x="95.5" y="-227.5" font-family="Helvetica,sans-Serif" font-size="10.00"> &#45;fTarget</text>
</g>
<!-- Node9 -->
<g id="node9" class="node"><title>Node9</title>
<g id="a_node9"><a xlink:href="../../df/d02/classppm__java_1_1typelib_1_1_v_audio_port___output.html" target="_top" xlink:title="Base class for an output audio port. ">
<polygon fill="white" stroke="black" points="123,-163 123,-297 239,-297 239,-163 123,-163"/>
<text text-anchor="middle" x="181" y="-285" font-family="Helvetica,sans-Serif" font-size="10.00">VAudioPort_Output</text>
<polyline fill="none" stroke="black" points="123,-278 239,-278 "/>
<text text-anchor="middle" x="181" y="-266" font-family="Helvetica,sans-Serif" font-size="10.00"> </text>
<polyline fill="none" stroke="black" points="123,-259 239,-259 "/>
<text text-anchor="start" x="131" y="-247" font-family="Helvetica,sans-Serif" font-size="10.00">+ VAudioPort_Output()</text>
<text text-anchor="start" x="131" y="-236" font-family="Helvetica,sans-Serif" font-size="10.00">+ SetTarget()</text>
<text text-anchor="start" x="131" y="-225" font-family="Helvetica,sans-Serif" font-size="10.00"># _GetTarget()</text>
<text text-anchor="start" x="131" y="-214" font-family="Helvetica,sans-Serif" font-size="10.00"># _SetTarget()</text>
<text text-anchor="start" x="131" y="-203" font-family="Helvetica,sans-Serif" font-size="10.00"># _SetTarget_Log()</text>
<text text-anchor="start" x="131" y="-192" font-family="Helvetica,sans-Serif" font-size="10.00"># _Visit()</text>
<text text-anchor="start" x="131" y="-181" font-family="Helvetica,sans-Serif" font-size="10.00"># _Visit()</text>
<text text-anchor="start" x="131" y="-170" font-family="Helvetica,sans-Serif" font-size="10.00"># _Visit()</text>
</a>
</g>
</g>
<!-- Node3&#45;&gt;Node9 -->
<g id="edge12" class="edge"><title>Node3&#45;&gt;Node9</title>
<path fill="none" stroke="#404040" d="M118.598,-346.383C123.094,-336.4 128.081,-325.727 133,-316 134.372,-313.287 135.787,-310.537 137.233,-307.769"/>
<polygon fill="none" stroke="#404040" points="137.304,-307.634 136.586,-300.459 142.934,-297.037 143.651,-304.212 137.304,-307.634"/>
<text text-anchor="middle" x="151.5" y="-319.5" font-family="Helvetica,sans-Serif" font-size="10.00"> &#45;fTarget</text>
</g>
<!-- Node4 -->
<g id="node4" class="node"><title>Node4</title>
<g id="a_node4"><a xlink:href="../../de/dc9/classppm__java_1_1typelib_1_1_v_audio_port.html" target="_top" xlink:title="Base class for all audio ports. ">
<polygon fill="white" stroke="black" points="117.5,-464.5 117.5,-543.5 198.5,-543.5 198.5,-464.5 117.5,-464.5"/>
<text text-anchor="middle" x="158" y="-531.5" font-family="Helvetica,sans-Serif" font-size="10.00">VAudioPort</text>
<polyline fill="none" stroke="black" points="117.5,-524.5 198.5,-524.5 "/>
<text text-anchor="middle" x="158" y="-512.5" font-family="Helvetica,sans-Serif" font-size="10.00"> </text>
<polyline fill="none" stroke="black" points="117.5,-505.5 198.5,-505.5 "/>
<text text-anchor="start" x="125.5" y="-493.5" font-family="Helvetica,sans-Serif" font-size="10.00">+ VAudioPort()</text>
<text text-anchor="start" x="125.5" y="-482.5" font-family="Helvetica,sans-Serif" font-size="10.00"># _GetHost()</text>
<text text-anchor="start" x="125.5" y="-471.5" font-family="Helvetica,sans-Serif" font-size="10.00"># _GetType()</text>
</a>
</g>
</g>
<!-- Node4&#45;&gt;Node3 -->
<g id="edge3" class="edge"><title>Node4&#45;&gt;Node3</title>
<path fill="none" stroke="midnightblue" d="M134.912,-455.174C130.199,-445.413 125.296,-435.255 120.757,-425.853"/>
<polygon fill="none" stroke="midnightblue" points="131.853,-456.89 139.353,-464.374 138.157,-453.847 131.853,-456.89"/>
</g>
<!-- Node4&#45;&gt;Node9 -->
<g id="edge11" class="edge"><title>Node4&#45;&gt;Node9</title>
<path fill="none" stroke="midnightblue" d="M162.497,-454.248C163.344,-444.874 164.21,-435.134 165,-426 168.702,-383.19 172.652,-335.075 175.701,-297.35"/>
<polygon fill="none" stroke="midnightblue" points="159.01,-453.954 161.592,-464.229 165.981,-454.586 159.01,-453.954"/>
</g>
<!-- Node5&#45;&gt;Node4 -->
<g id="edge4" class="edge"><title>Node5&#45;&gt;Node4</title>
<path fill="none" stroke="midnightblue" d="M101.163,-804.284C113.419,-739.746 138.286,-608.805 150.662,-543.64"/>
<polygon fill="none" stroke="midnightblue" points="97.6647,-803.944 99.2374,-814.422 104.542,-805.251 97.6647,-803.944"/>
</g>
<!-- Node6 -->
<g id="node6" class="node"><title>Node6</title>
<g id="a_node6"><a xlink:href="../../d5/d6a/classppm__java_1_1typelib_1_1_v_audio_processor.html" target="_top" xlink:title="Base class for all modules processing audio samples. ">
<polygon fill="white" stroke="black" points="165.5,-592.5 165.5,-759.5 272.5,-759.5 272.5,-592.5 165.5,-592.5"/>
<text text-anchor="middle" x="219" y="-747.5" font-family="Helvetica,sans-Serif" font-size="10.00">VAudioProcessor</text>
<polyline fill="none" stroke="black" points="165.5,-740.5 272.5,-740.5 "/>
<text text-anchor="middle" x="219" y="-728.5" font-family="Helvetica,sans-Serif" font-size="10.00"> </text>
<polyline fill="none" stroke="black" points="165.5,-721.5 272.5,-721.5 "/>
<text text-anchor="start" x="173.5" y="-709.5" font-family="Helvetica,sans-Serif" font-size="10.00">+ VAudioProcessor()</text>
<text text-anchor="start" x="173.5" y="-698.5" font-family="Helvetica,sans-Serif" font-size="10.00">+ CreatePort_In()</text>
<text text-anchor="start" x="173.5" y="-687.5" font-family="Helvetica,sans-Serif" font-size="10.00">+ CreatePort_Out()</text>
<text text-anchor="start" x="173.5" y="-676.5" font-family="Helvetica,sans-Serif" font-size="10.00">+ GetNumPortsIn()</text>
<text text-anchor="start" x="173.5" y="-665.5" font-family="Helvetica,sans-Serif" font-size="10.00">+ GetNumPortsOut()</text>
<text text-anchor="start" x="173.5" y="-654.5" font-family="Helvetica,sans-Serif" font-size="10.00">+ GetPortIn()</text>
<text text-anchor="start" x="173.5" y="-643.5" font-family="Helvetica,sans-Serif" font-size="10.00">+ GetPortIn()</text>
<text text-anchor="start" x="173.5" y="-632.5" font-family="Helvetica,sans-Serif" font-size="10.00">+ GetPortOut()</text>
<text text-anchor="start" x="173.5" y="-621.5" font-family="Helvetica,sans-Serif" font-size="10.00">+ GetPortOut()</text>
<text text-anchor="start" x="173.5" y="-610.5" font-family="Helvetica,sans-Serif" font-size="10.00"># AddPortIn()</text>
<text text-anchor="start" x="173.5" y="-599.5" font-family="Helvetica,sans-Serif" font-size="10.00"># AddPortOut()</text>
</a>
</g>
</g>
<!-- Node5&#45;&gt;Node6 -->
<g id="edge7" class="edge"><title>Node5&#45;&gt;Node6</title>
<path fill="none" stroke="midnightblue" d="M121.035,-806.313C134.022,-789.172 150.061,-768 165.375,-747.786"/>
<polygon fill="none" stroke="midnightblue" points="118.171,-804.298 114.922,-814.383 123.751,-808.525 118.171,-804.298"/>
</g>
<!-- Node6&#45;&gt;Node4 -->
<g id="edge6" class="edge"><title>Node6&#45;&gt;Node4</title>
<path fill="none" stroke="#404040" d="M189.393,-592.49C184.795,-579.674 180.169,-566.782 175.934,-554.981"/>
<polygon fill="none" stroke="#404040" points="175.899,-554.882 170.108,-550.586 171.846,-543.587 177.637,-547.884 175.899,-554.882"/>
<text text-anchor="middle" x="197.5" y="-565.5" font-family="Helvetica,sans-Serif" font-size="10.00"> &#45;fHost</text>
</g>
<!-- Node7 -->
<g id="node7" class="node"><title>Node7</title>
<polygon fill="white" stroke="#bfbfbf" points="158,-809 158,-877 308,-877 308,-809 158,-809"/>
<text text-anchor="start" x="166" y="-865" font-family="Helvetica,sans-Serif" font-size="10.00">TArrayMap&lt; ppm_java.typelib.</text>
<text text-anchor="middle" x="233" y="-854" font-family="Helvetica,sans-Serif" font-size="10.00">VAudioPort_Output &gt;</text>
<polyline fill="none" stroke="#bfbfbf" points="158,-847 308,-847 "/>
<text text-anchor="middle" x="233" y="-835" font-family="Helvetica,sans-Serif" font-size="10.00"> </text>
<polyline fill="none" stroke="#bfbfbf" points="158,-828 308,-828 "/>
<text text-anchor="middle" x="233" y="-816" font-family="Helvetica,sans-Serif" font-size="10.00"> </text>
</g>
<!-- Node7&#45;&gt;Node6 -->
<g id="edge8" class="edge"><title>Node7&#45;&gt;Node6</title>
<path fill="none" stroke="#404040" d="M230.167,-808.61C229.243,-797.723 228.167,-785.043 227.055,-771.934"/>
<polygon fill="none" stroke="#404040" points="227.041,-771.77 222.548,-766.13 226.027,-759.813 230.52,-765.454 227.041,-771.77"/>
<text text-anchor="middle" x="253.5" y="-781.5" font-family="Helvetica,sans-Serif" font-size="10.00"> &#45;fPortsOut</text>
</g>
<!-- Node8 -->
<g id="node8" class="node"><title>Node8</title>
<polygon fill="white" stroke="#bfbfbf" points="326,-809 326,-877 476,-877 476,-809 326,-809"/>
<text text-anchor="start" x="334" y="-865" font-family="Helvetica,sans-Serif" font-size="10.00">TArrayMap&lt; ppm_java.typelib.</text>
<text text-anchor="middle" x="401" y="-854" font-family="Helvetica,sans-Serif" font-size="10.00">VAudioPort_Input &gt;</text>
<polyline fill="none" stroke="#bfbfbf" points="326,-847 476,-847 "/>
<text text-anchor="middle" x="401" y="-835" font-family="Helvetica,sans-Serif" font-size="10.00"> </text>
<polyline fill="none" stroke="#bfbfbf" points="326,-828 476,-828 "/>
<text text-anchor="middle" x="401" y="-816" font-family="Helvetica,sans-Serif" font-size="10.00"> </text>
</g>
<!-- Node8&#45;&gt;Node6 -->
<g id="edge9" class="edge"><title>Node8&#45;&gt;Node6</title>
<path fill="none" stroke="#404040" d="M364.17,-808.61C340.56,-787.205 309.301,-758.866 281.838,-733.969"/>
<polygon fill="none" stroke="#404040" points="281.577,-733.732 274.445,-732.666 272.687,-725.672 279.819,-726.739 281.577,-733.732"/>
<text text-anchor="middle" x="363.5" y="-781.5" font-family="Helvetica,sans-Serif" font-size="10.00"> &#45;fPortsIn</text>
</g>
<!-- Node9&#45;&gt;Node1 -->
<g id="edge10" class="edge"><title>Node9&#45;&gt;Node1</title>
<path fill="none" stroke="#404040" d="M137.311,-162.887C128.735,-149.909 119.744,-136.302 111.184,-123.35"/>
<polygon fill="none" stroke="#404040" points="111.045,-123.138 104.4,-120.338 104.429,-113.127 111.074,-115.927 111.045,-123.138"/>
<text text-anchor="middle" x="145" y="-135.5" font-family="Helvetica,sans-Serif" font-size="10.00"> &#45;fSource</text>
</g>
</g>
</svg>
        <g id="navigator" transform="translate(0 0)" fill="#404254">
                <rect fill="#f2f5e9" fill-opacity="0.5" stroke="#606060" stroke-width=".5" x="0" y="0" width="60" height="60"/>
                <use id="zoomplus" xlink:href="#zoomPlus" x="17" y="9" onmousedown="handleZoom(evt,'in')"/>
                <use id="zoomminus" xlink:href="#zoomMin" x="42" y="9" onmousedown="handleZoom(evt,'out')"/>
                <use id="reset" xlink:href="#resetDef" x="30" y="36" onmousedown="handleReset()"/>
                <g id="arrowUp" xlink:href="#dirArrow" transform="translate(30 24)" onmousedown="handlePan(0,-1)">
                  <use xlink:href="#rim" fill="#404040">
                        <set attributeName="fill" to="#808080" begin="arrowUp.mouseover" end="arrowUp.mouseout"/>
                  </use>
                  <path fill="none" stroke="white" stroke-width="1.5" d="M0,-3.0v7 M-2.5,-0.5L0,-3.0L2.5,-0.5"/>
                </g>
                <g id="arrowRight" xlink:href="#dirArrow" transform="rotate(90) translate(36 -43)" onmousedown="handlePan(1,0)">
                  <use xlink:href="#rim" fill="#404040">
                        <set attributeName="fill" to="#808080" begin="arrowRight.mouseover" end="arrowRight.mouseout"/>
                  </use>
                  <path fill="none" stroke="white" stroke-width="1.5" d="M0,-3.0v7 M-2.5,-0.5L0,-3.0L2.5,-0.5"/>
                </g>
                <g id="arrowDown" xlink:href="#dirArrow" transform="rotate(180) translate(-30 -48)" onmousedown="handlePan(0,1)">
                  <use xlink:href="#rim" fill="#404040">
                        <set attributeName="fill" to="#808080" begin="arrowDown.mouseover" end="arrowDown.mouseout"/>
                  </use>
                  <path fill="none" stroke="white" stroke-width="1.5" d="M0,-3.0v7 M-2.5,-0.5L0,-3.0L2.5,-0.5"/>
                </g>
                <g id="arrowLeft" xlink:href="#dirArrow" transform="rotate(270) translate(-36 17)" onmousedown="handlePan(-1,0)">
                  <use xlink:href="#rim" fill="#404040">
                        <set attributeName="fill" to="#808080" begin="arrowLeft.mouseover" end="arrowLeft.mouseout"/>
                  </use>
                  <path fill="none" stroke="white" stroke-width="1.5" d="M0,-3.0v7 M-2.5,-0.5L0,-3.0L2.5,-0.5"/>
                </g>
        </g>
        <svg viewBox="0 0 15 15" width="100%" height="30px" preserveAspectRatio="xMaxYMin meet">
         <g id="arrow_out" transform="scale(0.3 0.3)">
          <a xlink:href="classppm__java_1_1backend_1_1_t_connection__coll__graph_org.svg" target="_base">
           <rect id="button" ry="5" rx="5" y="6" x="6" height="38" width="38"
                fill="#f2f5e9" fill-opacity="0.5" stroke="#606060" stroke-width="1.0"/>
           <path id="arrow"
             d="M 11.500037,31.436501 C 11.940474,20.09759 22.043105,11.32322 32.158766,21.979434 L 37.068811,17.246167 C 37.068811,17.246167 37.088388,32 37.088388,32 L 22.160133,31.978069 C 22.160133,31.978069 26.997745,27.140456 26.997745,27.140456 C 18.528582,18.264221 13.291696,25.230495 11.500037,31.436501 z"
             style="fill:#404040;"/>
          </a>
         </g>
        </svg>
</svg>
