<?xml version="1.0" encoding="UTF-8" standalone="no"?>
<!DOCTYPE svg PUBLIC "-//W3C//DTD SVG 1.1//EN"
 "http://www.w3.org/Graphics/SVG/1.1/DTD/svg11.dtd">
<!-- Generated by graphviz version 2.36.0 (20140111.2315)
 -->
<!-- Title: TMain Pages: 1 -->
<!--zoomable 620 -->
<svg id="main" version="1.1" xmlns="http://www.w3.org/2000/svg" xmlns:xlink="http://www.w3.org/1999/xlink" xml:space="preserve" onload="init(evt)">
<style type="text/css"><![CDATA[
.edge:hover path { stroke: red; }
.edge:hover polygon { stroke: red; fill: red; }
]]></style>
<script type="text/javascript"><![CDATA[
var edges = document.getElementsByTagName('g');
if (edges && edges.length) {
  for (var i=0;i<edges.length;i++) {
    if (edges[i].id.substr(0,4)=='edge') {
      edges[i].setAttribute('class','edge');
    }
  }
}
]]></script>
        <defs>
                <circle id="rim" cx="0" cy="0" r="7"/>
                <circle id="rim2" cx="0" cy="0" r="3.5"/>
                <g id="zoomPlus">
                        <use xlink:href="#rim" fill="#404040">
                                <set attributeName="fill" to="#808080" begin="zoomplus.mouseover" end="zoomplus.mouseout"/>
                        </use>
                        <path d="M-4,0h8M0,-4v8" fill="none" stroke="white" stroke-width="1.5" pointer-events="none"/>
                </g>
                <g id="zoomMin">
                        <use xlink:href="#rim" fill="#404040">
                                <set attributeName="fill" to="#808080" begin="zoomminus.mouseover" end="zoomminus.mouseout"/>
                        </use>
                        <path d="M-4,0h8" fill="none" stroke="white" stroke-width="1.5" pointer-events="none"/>
                </g>
                <g id="dirArrow">
                        <path fill="none" stroke="white" stroke-width="1.5" d="M0,-3.0v7 M-2.5,-0.5L0,-3.0L2.5,-0.5"/>
                </g>
               <g id="resetDef">
                       <use xlink:href="#rim2" fill="#404040">
                               <set attributeName="fill" to="#808080" begin="reset.mouseover" end="reset.mouseout"/>
                       </use>
               </g>
        </defs>

<script type="text/javascript">
var viewWidth = 415;
var viewHeight = 620;
var sectionId = 'dynsection-0';
</script>
<script xlink:href="../../svgpan.js"/>
<svg id="graph" class="graph">
<g id="viewport">
<title>TMain</title>
<polygon fill="white" stroke="none" points="-4,4 -4,-616 411,-616 411,4 -4,4"/>
<!-- Node1 -->
<g id="node1" class="node"><title>Node1</title>
<polygon fill="#bfbfbf" stroke="black" points="145,-0.5 145,-79.5 201,-79.5 201,-0.5 145,-0.5"/>
<text text-anchor="middle" x="173" y="-67.5" font-family="Helvetica,sans-Serif" font-size="10.00">TMain</text>
<polyline fill="none" stroke="black" points="145,-60.5 201,-60.5 "/>
<text text-anchor="middle" x="173" y="-48.5" font-family="Helvetica,sans-Serif" font-size="10.00"> </text>
<polyline fill="none" stroke="black" points="145,-41.5 201,-41.5 "/>
<text text-anchor="start" x="153" y="-29.5" font-family="Helvetica,sans-Serif" font-size="10.00">+ main()</text>
<text text-anchor="start" x="153" y="-18.5" font-family="Helvetica,sans-Serif" font-size="10.00">&#45; TMain()</text>
<text text-anchor="start" x="153" y="-7.5" font-family="Helvetica,sans-Serif" font-size="10.00">&#45; _Init()</text>
</g>
<!-- Node2 -->
<g id="node2" class="node"><title>Node2</title>
<g id="a_node2"><a xlink:href="../../de/d7f/classppm__java_1_1backend_1_1boot_1_1_t_setup.html" target="_top" xlink:title="Session setup agent. ">
<polygon fill="white" stroke="black" points="-0.5,-228 -0.5,-362 198.5,-362 198.5,-228 -0.5,-228"/>
<text text-anchor="middle" x="99" y="-350" font-family="Helvetica,sans-Serif" font-size="10.00">TSetup</text>
<polyline fill="none" stroke="black" points="-0.5,-343 198.5,-343 "/>
<text text-anchor="start" x="7.5" y="-331" font-family="Helvetica,sans-Serif" font-size="10.00">&#45; fOptConsoleWidth</text>
<text text-anchor="start" x="7.5" y="-320" font-family="Helvetica,sans-Serif" font-size="10.00">&#45; fOptLogFilePath</text>
<text text-anchor="start" x="7.5" y="-309" font-family="Helvetica,sans-Serif" font-size="10.00">&#45; fOptPrintHelp</text>
<text text-anchor="start" x="7.5" y="-298" font-family="Helvetica,sans-Serif" font-size="10.00">&#45; fOptShowDebugWindow</text>
<text text-anchor="start" x="7.5" y="-287" font-family="Helvetica,sans-Serif" font-size="10.00">&#45; fOptUseDeprecatedPPMProcessor</text>
<polyline fill="none" stroke="black" points="-0.5,-280 198.5,-280 "/>
<text text-anchor="start" x="7.5" y="-268" font-family="Helvetica,sans-Serif" font-size="10.00">+ TSetup()</text>
<text text-anchor="start" x="7.5" y="-257" font-family="Helvetica,sans-Serif" font-size="10.00">+ ExecuteWith()</text>
<text text-anchor="start" x="7.5" y="-246" font-family="Helvetica,sans-Serif" font-size="10.00">&#45; _Setup()</text>
<text text-anchor="start" x="7.5" y="-235" font-family="Helvetica,sans-Serif" font-size="10.00">&#45; _Setup_UseDeprecatedPPMProcessor()</text>
</a>
</g>
</g>
<!-- Node2&#45;&gt;Node1 -->
<g id="edge1" class="edge"><title>Node2&#45;&gt;Node1</title>
<path fill="none" stroke="#404040" d="M118.346,-227.858C130.842,-185.134 146.848,-130.412 158.303,-91.2468"/>
<polygon fill="none" stroke="#404040" points="158.335,-91.1395 156.18,-84.2578 161.703,-79.622 163.858,-86.5037 158.335,-91.1395"/>
<text text-anchor="middle" x="186.5" y="-101.5" font-family="Helvetica,sans-Serif" font-size="10.00"> &#45;fSetupAgent</text>
</g>
<!-- Node3 -->
<g id="node3" class="node"><title>Node3</title>
<g id="a_node3"><a xlink:href="../../dd/dc2/enumppm__java_1_1typelib_1_1_e_frontend_type.html" target="_top" xlink:title="The various types of frontends available. ">
<polygon fill="white" stroke="black" points="161,-521 161,-611 283,-611 283,-521 161,-521"/>
<text text-anchor="middle" x="222" y="-599" font-family="Helvetica,sans-Serif" font-size="10.00">EFrontendType</text>
<polyline fill="none" stroke="black" points="161,-592 283,-592 "/>
<text text-anchor="start" x="169" y="-580" font-family="Helvetica,sans-Serif" font-size="10.00">+ kConsoleLinearGauge</text>
<text text-anchor="start" x="169" y="-569" font-family="Helvetica,sans-Serif" font-size="10.00">+ kConsoleTextOut</text>
<text text-anchor="start" x="169" y="-558" font-family="Helvetica,sans-Serif" font-size="10.00">+ kGUILinearGauge</text>
<text text-anchor="start" x="169" y="-547" font-family="Helvetica,sans-Serif" font-size="10.00">+ kGUINeedle</text>
<polyline fill="none" stroke="black" points="161,-540 283,-540 "/>
<text text-anchor="middle" x="222" y="-528" font-family="Helvetica,sans-Serif" font-size="10.00"> </text>
</a>
</g>
</g>
<!-- Node3&#45;&gt;Node2 -->
<g id="edge2" class="edge"><title>Node3&#45;&gt;Node2</title>
<path fill="none" stroke="#404040" d="M192.557,-520.852C188.823,-514.625 185.196,-508.224 182,-502 160.841,-460.791 141.262,-412.891 126.44,-373.656"/>
<polygon fill="none" stroke="#404040" points="126.398,-373.544 120.549,-369.327 122.192,-362.305 128.041,-366.523 126.398,-373.544"/>
<text text-anchor="middle" x="211" y="-488.5" font-family="Helvetica,sans-Serif" font-size="10.00"> &#45;fOptUIType</text>
</g>
<!-- Node4 -->
<g id="node4" class="node"><title>Node4</title>
<g id="a_node4"><a xlink:href="../../d3/da4/classppm__java_1_1backend_1_1boot_1_1_t_session_properties.html" target="_top" xlink:title="Properties of a ppm&#45;java session. ">
<polygon fill="white" stroke="black" points="217,-129 217,-461 407,-461 407,-129 217,-129"/>
<text text-anchor="middle" x="312" y="-449" font-family="Helvetica,sans-Serif" font-size="10.00">TSessionProperties</text>
<polyline fill="none" stroke="black" points="217,-442 407,-442 "/>
<text text-anchor="start" x="225" y="-430" font-family="Helvetica,sans-Serif" font-size="10.00">+ gkDefaultOptConsoleWidth</text>
<text text-anchor="start" x="225" y="-419" font-family="Helvetica,sans-Serif" font-size="10.00">+ gkDefaultOptShowDebugWindow</text>
<text text-anchor="start" x="225" y="-408" font-family="Helvetica,sans-Serif" font-size="10.00">+ gkDefaultOptTimerIntervalMs</text>
<text text-anchor="start" x="225" y="-397" font-family="Helvetica,sans-Serif" font-size="10.00">+ gkDefaultOptUseDeprecated</text>
<text text-anchor="start" x="225" y="-386" font-family="Helvetica,sans-Serif" font-size="10.00">PPMProcessor</text>
<text text-anchor="start" x="225" y="-375" font-family="Helvetica,sans-Serif" font-size="10.00">&#45; fErrorMsg</text>
<text text-anchor="start" x="225" y="-364" font-family="Helvetica,sans-Serif" font-size="10.00">&#45; fHelpText</text>
<text text-anchor="start" x="225" y="-353" font-family="Helvetica,sans-Serif" font-size="10.00">&#45; fIsValid</text>
<text text-anchor="start" x="225" y="-342" font-family="Helvetica,sans-Serif" font-size="10.00">&#45; fOptConsoleWidth</text>
<text text-anchor="start" x="225" y="-331" font-family="Helvetica,sans-Serif" font-size="10.00">&#45; fOptLogFilePath</text>
<text text-anchor="start" x="225" y="-320" font-family="Helvetica,sans-Serif" font-size="10.00">&#45; fOptPrintHelp</text>
<text text-anchor="start" x="225" y="-309" font-family="Helvetica,sans-Serif" font-size="10.00">&#45; fOptShowDebugWindow</text>
<text text-anchor="start" x="225" y="-298" font-family="Helvetica,sans-Serif" font-size="10.00">&#45; fOptUseDeprecatedPPMProcessor</text>
<polyline fill="none" stroke="black" points="217,-291 407,-291 "/>
<text text-anchor="start" x="225" y="-279" font-family="Helvetica,sans-Serif" font-size="10.00">+ TSessionProperties()</text>
<text text-anchor="start" x="225" y="-268" font-family="Helvetica,sans-Serif" font-size="10.00">+ GetErrorMessage()</text>
<text text-anchor="start" x="225" y="-257" font-family="Helvetica,sans-Serif" font-size="10.00">+ GetHelpText()</text>
<text text-anchor="start" x="225" y="-246" font-family="Helvetica,sans-Serif" font-size="10.00">+ GetOptConsoleWidth()</text>
<text text-anchor="start" x="225" y="-235" font-family="Helvetica,sans-Serif" font-size="10.00">+ GetOptLogFilePath()</text>
<text text-anchor="start" x="225" y="-224" font-family="Helvetica,sans-Serif" font-size="10.00">+ GetOptUIType()</text>
<text text-anchor="start" x="225" y="-213" font-family="Helvetica,sans-Serif" font-size="10.00">+ IsOptPrintHelp()</text>
<text text-anchor="start" x="225" y="-202" font-family="Helvetica,sans-Serif" font-size="10.00">+ IsOptShowDebugWindow()</text>
<text text-anchor="start" x="225" y="-191" font-family="Helvetica,sans-Serif" font-size="10.00">+ IsOptUseDeprecatedPPMProcessor()</text>
<text text-anchor="start" x="225" y="-180" font-family="Helvetica,sans-Serif" font-size="10.00">+ IsValid()</text>
<text text-anchor="start" x="225" y="-169" font-family="Helvetica,sans-Serif" font-size="10.00">~ Set()</text>
<text text-anchor="start" x="225" y="-158" font-family="Helvetica,sans-Serif" font-size="10.00">~ SetHelpText()</text>
<text text-anchor="start" x="225" y="-147" font-family="Helvetica,sans-Serif" font-size="10.00">~ SetErrorMessage()</text>
<text text-anchor="start" x="225" y="-136" font-family="Helvetica,sans-Serif" font-size="10.00">&#45; _Invalidate()</text>
</a>
</g>
</g>
<!-- Node3&#45;&gt;Node4 -->
<g id="edge4" class="edge"><title>Node3&#45;&gt;Node4</title>
<path fill="none" stroke="#404040" d="M236.761,-520.881C241.488,-506.753 247.043,-490.149 252.958,-472.47"/>
<polygon fill="none" stroke="#404040" points="252.98,-472.405 251.09,-465.446 256.787,-461.025 258.677,-467.985 252.98,-472.405"/>
<text text-anchor="middle" x="299" y="-494" font-family="Helvetica,sans-Serif" font-size="10.00"> +gkDefaultOptUIType</text>
<text text-anchor="middle" x="299" y="-483" font-family="Helvetica,sans-Serif" font-size="10.00">&#45;fOptUIType</text>
</g>
<!-- Node4&#45;&gt;Node1 -->
<g id="edge3" class="edge"><title>Node4&#45;&gt;Node1</title>
<path fill="none" stroke="#404040" d="M239.304,-128.912C233.417,-118.282 227.3,-107.888 221,-98 217.394,-92.34 213.278,-86.6334 209.008,-81.1314"/>
<polygon fill="none" stroke="#404040" points="208.771,-80.8379 201.889,-78.684 201.23,-71.5031 208.112,-73.6569 208.771,-80.8379"/>
<text text-anchor="middle" x="263" y="-101.5" font-family="Helvetica,sans-Serif" font-size="10.00"> &#45;fSessionProps</text>
</g>
</g>
</svg>
        <g id="navigator" transform="translate(0 0)" fill="#404254">
                <rect fill="#f2f5e9" fill-opacity="0.5" stroke="#606060" stroke-width=".5" x="0" y="0" width="60" height="60"/>
                <use id="zoomplus" xlink:href="#zoomPlus" x="17" y="9" onmousedown="handleZoom(evt,'in')"/>
                <use id="zoomminus" xlink:href="#zoomMin" x="42" y="9" onmousedown="handleZoom(evt,'out')"/>
                <use id="reset" xlink:href="#resetDef" x="30" y="36" onmousedown="handleReset()"/>
                <g id="arrowUp" xlink:href="#dirArrow" transform="translate(30 24)" onmousedown="handlePan(0,-1)">
                  <use xlink:href="#rim" fill="#404040">
                        <set attributeName="fill" to="#808080" begin="arrowUp.mouseover" end="arrowUp.mouseout"/>
                  </use>
                  <path fill="none" stroke="white" stroke-width="1.5" d="M0,-3.0v7 M-2.5,-0.5L0,-3.0L2.5,-0.5"/>
                </g>
                <g id="arrowRight" xlink:href="#dirArrow" transform="rotate(90) translate(36 -43)" onmousedown="handlePan(1,0)">
                  <use xlink:href="#rim" fill="#404040">
                        <set attributeName="fill" to="#808080" begin="arrowRight.mouseover" end="arrowRight.mouseout"/>
                  </use>
                  <path fill="none" stroke="white" stroke-width="1.5" d="M0,-3.0v7 M-2.5,-0.5L0,-3.0L2.5,-0.5"/>
                </g>
                <g id="arrowDown" xlink:href="#dirArrow" transform="rotate(180) translate(-30 -48)" onmousedown="handlePan(0,1)">
                  <use xlink:href="#rim" fill="#404040">
                        <set attributeName="fill" to="#808080" begin="arrowDown.mouseover" end="arrowDown.mouseout"/>
                  </use>
                  <path fill="none" stroke="white" stroke-width="1.5" d="M0,-3.0v7 M-2.5,-0.5L0,-3.0L2.5,-0.5"/>
                </g>
                <g id="arrowLeft" xlink:href="#dirArrow" transform="rotate(270) translate(-36 17)" onmousedown="handlePan(-1,0)">
                  <use xlink:href="#rim" fill="#404040">
                        <set attributeName="fill" to="#808080" begin="arrowLeft.mouseover" end="arrowLeft.mouseout"/>
                  </use>
                  <path fill="none" stroke="white" stroke-width="1.5" d="M0,-3.0v7 M-2.5,-0.5L0,-3.0L2.5,-0.5"/>
                </g>
        </g>
        <svg viewBox="0 0 15 15" width="100%" height="30px" preserveAspectRatio="xMaxYMin meet">
         <g id="arrow_out" transform="scale(0.3 0.3)">
          <a xlink:href="classppm__java_1_1_t_main__coll__graph_org.svg" target="_base">
           <rect id="button" ry="5" rx="5" y="6" x="6" height="38" width="38"
                fill="#f2f5e9" fill-opacity="0.5" stroke="#606060" stroke-width="1.0"/>
           <path id="arrow"
             d="M 11.500037,31.436501 C 11.940474,20.09759 22.043105,11.32322 32.158766,21.979434 L 37.068811,17.246167 C 37.068811,17.246167 37.088388,32 37.088388,32 L 22.160133,31.978069 C 22.160133,31.978069 26.997745,27.140456 26.997745,27.140456 C 18.528582,18.264221 13.291696,25.230495 11.500037,31.436501 z"
             style="fill:#404040;"/>
          </a>
         </g>
        </svg>
</svg>
