<?xml version="1.0" encoding="UTF-8" standalone="no"?>
<!DOCTYPE svg PUBLIC "-//W3C//DTD SVG 1.1//EN"
 "http://www.w3.org/Graphics/SVG/1.1/DTD/svg11.dtd">
<!-- Generated by graphviz version 2.36.0 (20140111.2315)
 -->
<!-- Title: VAudioPort_Input_Chunks_Unbuffered Pages: 1 -->
<svg width="436pt" height="810pt"
 viewBox="0.00 0.00 436.00 810.00" xmlns="http://www.w3.org/2000/svg" xmlns:xlink="http://www.w3.org/1999/xlink">
<g id="graph0" class="graph" transform="scale(1 1) rotate(0) translate(4 806)">
<title>VAudioPort_Input_Chunks_Unbuffered</title>
<polygon fill="white" stroke="none" points="-4,4 -4,-806 432,-806 432,4 -4,4"/>
<!-- Node1 -->
<g id="node1" class="node"><title>Node1</title>
<polygon fill="#bfbfbf" stroke="black" points="258,-1 258,-113 398,-113 398,-1 258,-1"/>
<text text-anchor="start" x="266" y="-101" font-family="Helvetica,sans-Serif" font-size="10.00">VAudioPort_Input_Chunks</text>
<text text-anchor="middle" x="328" y="-90" font-family="Helvetica,sans-Serif" font-size="10.00">_Unbuffered</text>
<polyline fill="none" stroke="black" points="258,-83 398,-83 "/>
<text text-anchor="middle" x="328" y="-71" font-family="Helvetica,sans-Serif" font-size="10.00"> </text>
<polyline fill="none" stroke="black" points="258,-64 398,-64 "/>
<text text-anchor="start" x="266" y="-52" font-family="Helvetica,sans-Serif" font-size="10.00">+ ReceivePacket()</text>
<text text-anchor="start" x="266" y="-41" font-family="Helvetica,sans-Serif" font-size="10.00"># VAudioPort_Input_Chunks</text>
<text text-anchor="start" x="266" y="-30" font-family="Helvetica,sans-Serif" font-size="10.00">_Unbuffered()</text>
<text text-anchor="start" x="266" y="-19" font-family="Helvetica,sans-Serif" font-size="10.00"># _Accept()</text>
<text text-anchor="start" x="266" y="-8" font-family="Helvetica,sans-Serif" font-size="10.00"># _GetType()</text>
</g>
<!-- Node2 -->
<g id="node2" class="node"><title>Node2</title>
<g id="a_node2"><a xlink:href="../../d9/d0e/classppm__java_1_1typelib_1_1_v_audio_port___input.html" target="_top" xlink:title="Base class for an input audio port. ">
<polygon fill="white" stroke="black" points="274,-152.5 274,-231.5 382,-231.5 382,-152.5 274,-152.5"/>
<text text-anchor="middle" x="328" y="-219.5" font-family="Helvetica,sans-Serif" font-size="10.00">VAudioPort_Input</text>
<polyline fill="none" stroke="black" points="274,-212.5 382,-212.5 "/>
<text text-anchor="start" x="282" y="-200.5" font-family="Helvetica,sans-Serif" font-size="10.00">&#45; fIPort</text>
<polyline fill="none" stroke="black" points="274,-193.5 382,-193.5 "/>
<text text-anchor="start" x="282" y="-181.5" font-family="Helvetica,sans-Serif" font-size="10.00">+ VAudioPort_Input()</text>
<text text-anchor="start" x="282" y="-170.5" font-family="Helvetica,sans-Serif" font-size="10.00">+ GetPortNum()</text>
<text text-anchor="start" x="282" y="-159.5" font-family="Helvetica,sans-Serif" font-size="10.00"># _Accept()</text>
</a>
</g>
</g>
<!-- Node2&#45;&gt;Node1 -->
<g id="edge1" class="edge"><title>Node2&#45;&gt;Node1</title>
<path fill="none" stroke="midnightblue" d="M328,-141.944C328,-132.662 328,-122.892 328,-113.43"/>
<polygon fill="none" stroke="midnightblue" points="324.5,-142.173 328,-152.173 331.5,-142.173 324.5,-142.173"/>
</g>
<!-- Node3 -->
<g id="node3" class="node"><title>Node3</title>
<g id="a_node3"><a xlink:href="../../de/dc9/classppm__java_1_1typelib_1_1_v_audio_port.html" target="_top" xlink:title="Base class for all audio ports. ">
<polygon fill="white" stroke="black" points="287.5,-270.5 287.5,-349.5 368.5,-349.5 368.5,-270.5 287.5,-270.5"/>
<text text-anchor="middle" x="328" y="-337.5" font-family="Helvetica,sans-Serif" font-size="10.00">VAudioPort</text>
<polyline fill="none" stroke="black" points="287.5,-330.5 368.5,-330.5 "/>
<text text-anchor="middle" x="328" y="-318.5" font-family="Helvetica,sans-Serif" font-size="10.00"> </text>
<polyline fill="none" stroke="black" points="287.5,-311.5 368.5,-311.5 "/>
<text text-anchor="start" x="295.5" y="-299.5" font-family="Helvetica,sans-Serif" font-size="10.00">+ VAudioPort()</text>
<text text-anchor="start" x="295.5" y="-288.5" font-family="Helvetica,sans-Serif" font-size="10.00"># _GetHost()</text>
<text text-anchor="start" x="295.5" y="-277.5" font-family="Helvetica,sans-Serif" font-size="10.00"># _GetType()</text>
</a>
</g>
</g>
<!-- Node3&#45;&gt;Node2 -->
<g id="edge2" class="edge"><title>Node3&#45;&gt;Node2</title>
<path fill="none" stroke="midnightblue" d="M328,-260.268C328,-250.786 328,-240.964 328,-231.853"/>
<polygon fill="none" stroke="midnightblue" points="324.5,-260.374 328,-270.374 331.5,-260.374 324.5,-260.374"/>
</g>
<!-- Node4 -->
<g id="node4" class="node"><title>Node4</title>
<g id="a_node4"><a xlink:href="../../d1/db3/classppm__java_1_1typelib_1_1_v_audio_object.html" target="_top" xlink:title="Base class for all browseable audio objects. ">
<polygon fill="white" stroke="black" points="336,-620.5 336,-677.5 428,-677.5 428,-620.5 336,-620.5"/>
<text text-anchor="middle" x="382" y="-665.5" font-family="Helvetica,sans-Serif" font-size="10.00">VAudioObject</text>
<polyline fill="none" stroke="black" points="336,-658.5 428,-658.5 "/>
<text text-anchor="middle" x="382" y="-646.5" font-family="Helvetica,sans-Serif" font-size="10.00"> </text>
<polyline fill="none" stroke="black" points="336,-639.5 428,-639.5 "/>
<text text-anchor="start" x="344" y="-627.5" font-family="Helvetica,sans-Serif" font-size="10.00">+ VAudioObject()</text>
</a>
</g>
</g>
<!-- Node4&#45;&gt;Node3 -->
<g id="edge3" class="edge"><title>Node4&#45;&gt;Node3</title>
<path fill="none" stroke="midnightblue" d="M376.253,-610.036C368.049,-556.163 352.377,-454.464 338,-368 337.011,-362.053 335.937,-355.763 334.871,-349.617"/>
<polygon fill="none" stroke="midnightblue" points="372.828,-610.794 377.792,-620.154 379.749,-609.742 372.828,-610.794"/>
</g>
<!-- Node6 -->
<g id="node6" class="node"><title>Node6</title>
<g id="a_node6"><a xlink:href="../../d5/d6a/classppm__java_1_1typelib_1_1_v_audio_processor.html" target="_top" xlink:title="Base class for all modules processing audio samples. ">
<polygon fill="white" stroke="black" points="203.5,-398.5 203.5,-565.5 310.5,-565.5 310.5,-398.5 203.5,-398.5"/>
<text text-anchor="middle" x="257" y="-553.5" font-family="Helvetica,sans-Serif" font-size="10.00">VAudioProcessor</text>
<polyline fill="none" stroke="black" points="203.5,-546.5 310.5,-546.5 "/>
<text text-anchor="middle" x="257" y="-534.5" font-family="Helvetica,sans-Serif" font-size="10.00"> </text>
<polyline fill="none" stroke="black" points="203.5,-527.5 310.5,-527.5 "/>
<text text-anchor="start" x="211.5" y="-515.5" font-family="Helvetica,sans-Serif" font-size="10.00">+ VAudioProcessor()</text>
<text text-anchor="start" x="211.5" y="-504.5" font-family="Helvetica,sans-Serif" font-size="10.00">+ CreatePort_In()</text>
<text text-anchor="start" x="211.5" y="-493.5" font-family="Helvetica,sans-Serif" font-size="10.00">+ CreatePort_Out()</text>
<text text-anchor="start" x="211.5" y="-482.5" font-family="Helvetica,sans-Serif" font-size="10.00">+ GetNumPortsIn()</text>
<text text-anchor="start" x="211.5" y="-471.5" font-family="Helvetica,sans-Serif" font-size="10.00">+ GetNumPortsOut()</text>
<text text-anchor="start" x="211.5" y="-460.5" font-family="Helvetica,sans-Serif" font-size="10.00">+ GetPortIn()</text>
<text text-anchor="start" x="211.5" y="-449.5" font-family="Helvetica,sans-Serif" font-size="10.00">+ GetPortIn()</text>
<text text-anchor="start" x="211.5" y="-438.5" font-family="Helvetica,sans-Serif" font-size="10.00">+ GetPortOut()</text>
<text text-anchor="start" x="211.5" y="-427.5" font-family="Helvetica,sans-Serif" font-size="10.00">+ GetPortOut()</text>
<text text-anchor="start" x="211.5" y="-416.5" font-family="Helvetica,sans-Serif" font-size="10.00"># AddPortIn()</text>
<text text-anchor="start" x="211.5" y="-405.5" font-family="Helvetica,sans-Serif" font-size="10.00"># AddPortOut()</text>
</a>
</g>
</g>
<!-- Node4&#45;&gt;Node6 -->
<g id="edge6" class="edge"><title>Node4&#45;&gt;Node6</title>
<path fill="none" stroke="midnightblue" d="M354.965,-612.313C341.978,-595.172 325.939,-574 310.625,-553.786"/>
<polygon fill="none" stroke="midnightblue" points="352.249,-614.525 361.078,-620.383 357.829,-610.298 352.249,-614.525"/>
</g>
<!-- Node5 -->
<g id="node5" class="node"><title>Node5</title>
<g id="a_node5"><a xlink:href="../../de/dd1/classppm__java_1_1typelib_1_1_v_browseable.html" target="_top" xlink:title="Base class for all browseable objects. ">
<polygon fill="white" stroke="black" points="337.5,-722.5 337.5,-801.5 426.5,-801.5 426.5,-722.5 337.5,-722.5"/>
<text text-anchor="middle" x="382" y="-789.5" font-family="Helvetica,sans-Serif" font-size="10.00">VBrowseable</text>
<polyline fill="none" stroke="black" points="337.5,-782.5 426.5,-782.5 "/>
<text text-anchor="start" x="345.5" y="-770.5" font-family="Helvetica,sans-Serif" font-size="10.00">&#45; fID</text>
<polyline fill="none" stroke="black" points="337.5,-763.5 426.5,-763.5 "/>
<text text-anchor="start" x="345.5" y="-751.5" font-family="Helvetica,sans-Serif" font-size="10.00">+ VBrowseable()</text>
<text text-anchor="start" x="345.5" y="-740.5" font-family="Helvetica,sans-Serif" font-size="10.00">+ GetID()</text>
<text text-anchor="start" x="345.5" y="-729.5" font-family="Helvetica,sans-Serif" font-size="10.00"># _Register()</text>
</a>
</g>
</g>
<!-- Node5&#45;&gt;Node4 -->
<g id="edge4" class="edge"><title>Node5&#45;&gt;Node4</title>
<path fill="none" stroke="midnightblue" d="M382,-712.227C382,-700.364 382,-688.085 382,-677.601"/>
<polygon fill="none" stroke="midnightblue" points="378.5,-712.489 382,-722.489 385.5,-712.489 378.5,-712.489"/>
</g>
<!-- Node6&#45;&gt;Node3 -->
<g id="edge5" class="edge"><title>Node6&#45;&gt;Node3</title>
<path fill="none" stroke="#404040" d="M291.46,-398.49C296.813,-385.674 302.197,-372.782 307.126,-360.981"/>
<polygon fill="none" stroke="#404040" points="307.259,-360.66 305.881,-353.582 311.884,-349.587 313.263,-356.665 307.259,-360.66"/>
<text text-anchor="middle" x="318.5" y="-371.5" font-family="Helvetica,sans-Serif" font-size="10.00"> &#45;fHost</text>
</g>
<!-- Node7 -->
<g id="node7" class="node"><title>Node7</title>
<polygon fill="white" stroke="#bfbfbf" points="0,-615 0,-683 150,-683 150,-615 0,-615"/>
<text text-anchor="start" x="8" y="-671" font-family="Helvetica,sans-Serif" font-size="10.00">TArrayMap&lt; ppm_java.typelib.</text>
<text text-anchor="middle" x="75" y="-660" font-family="Helvetica,sans-Serif" font-size="10.00">VAudioPort_Output &gt;</text>
<polyline fill="none" stroke="#bfbfbf" points="0,-653 150,-653 "/>
<text text-anchor="middle" x="75" y="-641" font-family="Helvetica,sans-Serif" font-size="10.00"> </text>
<polyline fill="none" stroke="#bfbfbf" points="0,-634 150,-634 "/>
<text text-anchor="middle" x="75" y="-622" font-family="Helvetica,sans-Serif" font-size="10.00"> </text>
</g>
<!-- Node7&#45;&gt;Node6 -->
<g id="edge7" class="edge"><title>Node7&#45;&gt;Node6</title>
<path fill="none" stroke="#404040" d="M111.83,-614.61C135.44,-593.205 166.699,-564.866 194.162,-539.969"/>
<polygon fill="none" stroke="#404040" points="194.423,-539.732 196.181,-532.739 203.313,-531.672 201.555,-538.666 194.423,-539.732"/>
<text text-anchor="middle" x="169.5" y="-587.5" font-family="Helvetica,sans-Serif" font-size="10.00"> &#45;fPortsOut</text>
</g>
<!-- Node8 -->
<g id="node8" class="node"><title>Node8</title>
<polygon fill="white" stroke="#bfbfbf" points="168,-615 168,-683 318,-683 318,-615 168,-615"/>
<text text-anchor="start" x="176" y="-671" font-family="Helvetica,sans-Serif" font-size="10.00">TArrayMap&lt; ppm_java.typelib.</text>
<text text-anchor="middle" x="243" y="-660" font-family="Helvetica,sans-Serif" font-size="10.00">VAudioPort_Input &gt;</text>
<polyline fill="none" stroke="#bfbfbf" points="168,-653 318,-653 "/>
<text text-anchor="middle" x="243" y="-641" font-family="Helvetica,sans-Serif" font-size="10.00"> </text>
<polyline fill="none" stroke="#bfbfbf" points="168,-634 318,-634 "/>
<text text-anchor="middle" x="243" y="-622" font-family="Helvetica,sans-Serif" font-size="10.00"> </text>
</g>
<!-- Node8&#45;&gt;Node6 -->
<g id="edge8" class="edge"><title>Node8&#45;&gt;Node6</title>
<path fill="none" stroke="#404040" d="M245.833,-614.61C246.757,-603.723 247.833,-591.043 248.945,-577.934"/>
<polygon fill="none" stroke="#404040" points="248.959,-577.77 245.48,-571.454 249.973,-565.813 253.452,-572.13 248.959,-577.77"/>
<text text-anchor="middle" x="268.5" y="-587.5" font-family="Helvetica,sans-Serif" font-size="10.00"> &#45;fPortsIn</text>
</g>
</g>
</svg>
