<?xml version="1.0" encoding="UTF-8" standalone="no"?>
<!DOCTYPE svg PUBLIC "-//W3C//DTD SVG 1.1//EN"
 "http://www.w3.org/Graphics/SVG/1.1/DTD/svg11.dtd">
<!-- Generated by graphviz version 2.36.0 (20140111.2315)
 -->
<!-- Title: VAudioPort Pages: 1 -->
<svg width="2787pt" height="790pt"
 viewBox="0.00 0.00 2787.00 790.00" xmlns="http://www.w3.org/2000/svg" xmlns:xlink="http://www.w3.org/1999/xlink">
<g id="graph0" class="graph" transform="scale(1 1) rotate(0) translate(4 786)">
<title>VAudioPort</title>
<polygon fill="white" stroke="none" points="-4,4 -4,-786 2783,-786 2783,4 -4,4"/>
<!-- Node1 -->
<g id="node1" class="node"><title>Node1</title>
<polygon fill="#bfbfbf" stroke="black" points="1457.5,-492.5 1457.5,-571.5 1538.5,-571.5 1538.5,-492.5 1457.5,-492.5"/>
<text text-anchor="middle" x="1498" y="-559.5" font-family="Helvetica,sans-Serif" font-size="10.00">VAudioPort</text>
<polyline fill="none" stroke="black" points="1457.5,-552.5 1538.5,-552.5 "/>
<text text-anchor="start" x="1465.5" y="-540.5" font-family="Helvetica,sans-Serif" font-size="10.00">&#45; fHost</text>
<polyline fill="none" stroke="black" points="1457.5,-533.5 1538.5,-533.5 "/>
<text text-anchor="start" x="1465.5" y="-521.5" font-family="Helvetica,sans-Serif" font-size="10.00">+ VAudioPort()</text>
<text text-anchor="start" x="1465.5" y="-510.5" font-family="Helvetica,sans-Serif" font-size="10.00"># _GetHost()</text>
<text text-anchor="start" x="1465.5" y="-499.5" font-family="Helvetica,sans-Serif" font-size="10.00"># _GetType()</text>
</g>
<!-- Node4 -->
<g id="node4" class="node"><title>Node4</title>
<g id="a_node4"><a xlink:href="../../d9/d0e/classppm__java_1_1typelib_1_1_v_audio_port___input.html" target="_top" xlink:title="Base class for an input audio port. ">
<polygon fill="white" stroke="black" points="843,-348.5 843,-427.5 951,-427.5 951,-348.5 843,-348.5"/>
<text text-anchor="middle" x="897" y="-415.5" font-family="Helvetica,sans-Serif" font-size="10.00">VAudioPort_Input</text>
<polyline fill="none" stroke="black" points="843,-408.5 951,-408.5 "/>
<text text-anchor="start" x="851" y="-396.5" font-family="Helvetica,sans-Serif" font-size="10.00">&#45; fIPort</text>
<polyline fill="none" stroke="black" points="843,-389.5 951,-389.5 "/>
<text text-anchor="start" x="851" y="-377.5" font-family="Helvetica,sans-Serif" font-size="10.00">+ VAudioPort_Input()</text>
<text text-anchor="start" x="851" y="-366.5" font-family="Helvetica,sans-Serif" font-size="10.00">+ GetPortNum()</text>
<text text-anchor="start" x="851" y="-355.5" font-family="Helvetica,sans-Serif" font-size="10.00"># _Accept()</text>
</a>
</g>
</g>
<!-- Node1&#45;&gt;Node4 -->
<g id="edge3" class="edge"><title>Node1&#45;&gt;Node4</title>
<path fill="none" stroke="midnightblue" d="M1447.12,-518.977C1334.87,-492.456 1066.84,-429.129 951.408,-401.855"/>
<polygon fill="none" stroke="midnightblue" points="1446.63,-522.458 1457.16,-521.351 1448.24,-515.646 1446.63,-522.458"/>
</g>
<!-- Node18 -->
<g id="node18" class="node"><title>Node18</title>
<g id="a_node18"><a xlink:href="../../df/d02/classppm__java_1_1typelib_1_1_v_audio_port___output.html" target="_top" xlink:title="Base class for an output audio port. ">
<polygon fill="white" stroke="black" points="1835,-321 1835,-455 1951,-455 1951,-321 1835,-321"/>
<text text-anchor="middle" x="1893" y="-443" font-family="Helvetica,sans-Serif" font-size="10.00">VAudioPort_Output</text>
<polyline fill="none" stroke="black" points="1835,-436 1951,-436 "/>
<text text-anchor="start" x="1843" y="-424" font-family="Helvetica,sans-Serif" font-size="10.00">&#45; fTarget</text>
<polyline fill="none" stroke="black" points="1835,-417 1951,-417 "/>
<text text-anchor="start" x="1843" y="-405" font-family="Helvetica,sans-Serif" font-size="10.00">+ VAudioPort_Output()</text>
<text text-anchor="start" x="1843" y="-394" font-family="Helvetica,sans-Serif" font-size="10.00">+ SetTarget()</text>
<text text-anchor="start" x="1843" y="-383" font-family="Helvetica,sans-Serif" font-size="10.00"># _GetTarget()</text>
<text text-anchor="start" x="1843" y="-372" font-family="Helvetica,sans-Serif" font-size="10.00"># _SetTarget()</text>
<text text-anchor="start" x="1843" y="-361" font-family="Helvetica,sans-Serif" font-size="10.00"># _SetTarget_Log()</text>
<text text-anchor="start" x="1843" y="-350" font-family="Helvetica,sans-Serif" font-size="10.00"># _Visit()</text>
<text text-anchor="start" x="1843" y="-339" font-family="Helvetica,sans-Serif" font-size="10.00"># _Visit()</text>
<text text-anchor="start" x="1843" y="-328" font-family="Helvetica,sans-Serif" font-size="10.00"># _Visit()</text>
</a>
</g>
</g>
<!-- Node1&#45;&gt;Node18 -->
<g id="edge17" class="edge"><title>Node1&#45;&gt;Node18</title>
<path fill="none" stroke="midnightblue" d="M1548.27,-512.929C1621.57,-486.576 1757.49,-437.716 1834.95,-409.867"/>
<polygon fill="none" stroke="midnightblue" points="1547.01,-509.662 1538.78,-516.338 1549.38,-516.249 1547.01,-509.662"/>
</g>
<!-- Node2 -->
<g id="node2" class="node"><title>Node2</title>
<g id="a_node2"><a xlink:href="../../d1/db3/classppm__java_1_1typelib_1_1_v_audio_object.html" target="_top" xlink:title="Base class for all browseable audio objects. ">
<polygon fill="white" stroke="black" points="1452,-608.5 1452,-665.5 1544,-665.5 1544,-608.5 1452,-608.5"/>
<text text-anchor="middle" x="1498" y="-653.5" font-family="Helvetica,sans-Serif" font-size="10.00">VAudioObject</text>
<polyline fill="none" stroke="black" points="1452,-646.5 1544,-646.5 "/>
<text text-anchor="middle" x="1498" y="-634.5" font-family="Helvetica,sans-Serif" font-size="10.00"> </text>
<polyline fill="none" stroke="black" points="1452,-627.5 1544,-627.5 "/>
<text text-anchor="start" x="1460" y="-615.5" font-family="Helvetica,sans-Serif" font-size="10.00">+ VAudioObject()</text>
</a>
</g>
</g>
<!-- Node2&#45;&gt;Node1 -->
<g id="edge1" class="edge"><title>Node2&#45;&gt;Node1</title>
<path fill="none" stroke="midnightblue" d="M1498,-598.156C1498,-589.473 1498,-580.232 1498,-571.52"/>
<polygon fill="none" stroke="midnightblue" points="1494.5,-598.398 1498,-608.398 1501.5,-598.398 1494.5,-598.398"/>
</g>
<!-- Node3 -->
<g id="node3" class="node"><title>Node3</title>
<g id="a_node3"><a xlink:href="../../de/dd1/classppm__java_1_1typelib_1_1_v_browseable.html" target="_top" xlink:title="Base class for all browseable objects. ">
<polygon fill="white" stroke="black" points="1453.5,-702.5 1453.5,-781.5 1542.5,-781.5 1542.5,-702.5 1453.5,-702.5"/>
<text text-anchor="middle" x="1498" y="-769.5" font-family="Helvetica,sans-Serif" font-size="10.00">VBrowseable</text>
<polyline fill="none" stroke="black" points="1453.5,-762.5 1542.5,-762.5 "/>
<text text-anchor="start" x="1461.5" y="-750.5" font-family="Helvetica,sans-Serif" font-size="10.00">&#45; fID</text>
<polyline fill="none" stroke="black" points="1453.5,-743.5 1542.5,-743.5 "/>
<text text-anchor="start" x="1461.5" y="-731.5" font-family="Helvetica,sans-Serif" font-size="10.00">+ VBrowseable()</text>
<text text-anchor="start" x="1461.5" y="-720.5" font-family="Helvetica,sans-Serif" font-size="10.00">+ GetID()</text>
<text text-anchor="start" x="1461.5" y="-709.5" font-family="Helvetica,sans-Serif" font-size="10.00"># _Register()</text>
</a>
</g>
</g>
<!-- Node3&#45;&gt;Node2 -->
<g id="edge2" class="edge"><title>Node3&#45;&gt;Node2</title>
<path fill="none" stroke="midnightblue" d="M1498,-692.163C1498,-683.04 1498,-673.806 1498,-665.61"/>
<polygon fill="none" stroke="midnightblue" points="1494.5,-692.354 1498,-702.354 1501.5,-692.354 1494.5,-692.354"/>
</g>
<!-- Node5 -->
<g id="node5" class="node"><title>Node5</title>
<g id="a_node5"><a xlink:href="../../db/d16/classppm__java_1_1typelib_1_1_v_audio_port___input___chunks___buffered.html" target="_top" xlink:title="Base class for an input port that receives sample chunks. ">
<polygon fill="white" stroke="black" points="290,-138.5 290,-283.5 430,-283.5 430,-138.5 290,-138.5"/>
<text text-anchor="start" x="298" y="-271.5" font-family="Helvetica,sans-Serif" font-size="10.00">VAudioPort_Input_Chunks</text>
<text text-anchor="middle" x="360" y="-260.5" font-family="Helvetica,sans-Serif" font-size="10.00">_Buffered</text>
<polyline fill="none" stroke="black" points="290,-253.5 430,-253.5 "/>
<text text-anchor="start" x="298" y="-241.5" font-family="Helvetica,sans-Serif" font-size="10.00">&#45; fBuffer</text>
<polyline fill="none" stroke="black" points="290,-234.5 430,-234.5 "/>
<text text-anchor="start" x="298" y="-222.5" font-family="Helvetica,sans-Serif" font-size="10.00">+ FetchPacket()</text>
<text text-anchor="start" x="298" y="-211.5" font-family="Helvetica,sans-Serif" font-size="10.00">+ ReceivePacket()</text>
<text text-anchor="start" x="298" y="-200.5" font-family="Helvetica,sans-Serif" font-size="10.00">+ StatsClear()</text>
<text text-anchor="start" x="298" y="-189.5" font-family="Helvetica,sans-Serif" font-size="10.00">+ StatsGet()</text>
<text text-anchor="start" x="298" y="-178.5" font-family="Helvetica,sans-Serif" font-size="10.00"># VAudioPort_Input_Chunks</text>
<text text-anchor="start" x="298" y="-167.5" font-family="Helvetica,sans-Serif" font-size="10.00">_Buffered()</text>
<text text-anchor="start" x="298" y="-156.5" font-family="Helvetica,sans-Serif" font-size="10.00"># _Accept()</text>
<text text-anchor="start" x="298" y="-145.5" font-family="Helvetica,sans-Serif" font-size="10.00"># _GetType()</text>
</a>
</g>
</g>
<!-- Node4&#45;&gt;Node5 -->
<g id="edge4" class="edge"><title>Node4&#45;&gt;Node5</title>
<path fill="none" stroke="midnightblue" d="M832.751,-366.062C731.392,-333.031 535.137,-269.074 430.198,-234.876"/>
<polygon fill="none" stroke="midnightblue" points="831.962,-369.486 842.554,-369.257 834.131,-362.831 831.962,-369.486"/>
</g>
<!-- Node9 -->
<g id="node9" class="node"><title>Node9</title>
<g id="a_node9"><a xlink:href="../../d5/dbd/classppm__java_1_1typelib_1_1_v_audio_port___input___chunks___unbuffered.html" target="_top" xlink:title="Base class for an input port that receives sample chunks. ">
<polygon fill="white" stroke="black" points="618,-155 618,-267 758,-267 758,-155 618,-155"/>
<text text-anchor="start" x="626" y="-255" font-family="Helvetica,sans-Serif" font-size="10.00">VAudioPort_Input_Chunks</text>
<text text-anchor="middle" x="688" y="-244" font-family="Helvetica,sans-Serif" font-size="10.00">_Unbuffered</text>
<polyline fill="none" stroke="black" points="618,-237 758,-237 "/>
<text text-anchor="middle" x="688" y="-225" font-family="Helvetica,sans-Serif" font-size="10.00"> </text>
<polyline fill="none" stroke="black" points="618,-218 758,-218 "/>
<text text-anchor="start" x="626" y="-206" font-family="Helvetica,sans-Serif" font-size="10.00">+ ReceivePacket()</text>
<text text-anchor="start" x="626" y="-195" font-family="Helvetica,sans-Serif" font-size="10.00"># VAudioPort_Input_Chunks</text>
<text text-anchor="start" x="626" y="-184" font-family="Helvetica,sans-Serif" font-size="10.00">_Unbuffered()</text>
<text text-anchor="start" x="626" y="-173" font-family="Helvetica,sans-Serif" font-size="10.00"># _Accept()</text>
<text text-anchor="start" x="626" y="-162" font-family="Helvetica,sans-Serif" font-size="10.00"># _GetType()</text>
</a>
</g>
</g>
<!-- Node4&#45;&gt;Node9 -->
<g id="edge8" class="edge"><title>Node4&#45;&gt;Node9</title>
<path fill="none" stroke="midnightblue" d="M843,-341.785C815.779,-318.992 782.538,-291.159 753.83,-267.121"/>
<polygon fill="none" stroke="midnightblue" points="840.961,-344.642 850.875,-348.379 845.455,-339.275 840.961,-344.642"/>
</g>
<!-- Node11 -->
<g id="node11" class="node"><title>Node11</title>
<g id="a_node11"><a xlink:href="../../d2/de4/classppm__java_1_1typelib_1_1_v_audio_port___input___samples.html" target="_top" xlink:title="Base class for an input that receives single sample values. ">
<polygon fill="white" stroke="black" points="1030,-166 1030,-256 1182,-256 1182,-166 1030,-166"/>
<text text-anchor="middle" x="1106" y="-244" font-family="Helvetica,sans-Serif" font-size="10.00">VAudioPort_Input_Samples</text>
<polyline fill="none" stroke="black" points="1030,-237 1182,-237 "/>
<text text-anchor="middle" x="1106" y="-225" font-family="Helvetica,sans-Serif" font-size="10.00"> </text>
<polyline fill="none" stroke="black" points="1030,-218 1182,-218 "/>
<text text-anchor="start" x="1038" y="-206" font-family="Helvetica,sans-Serif" font-size="10.00">+ VAudioPort_Input_Samples()</text>
<text text-anchor="start" x="1038" y="-195" font-family="Helvetica,sans-Serif" font-size="10.00">+ ReceiveSample()</text>
<text text-anchor="start" x="1038" y="-184" font-family="Helvetica,sans-Serif" font-size="10.00"># _Accept()</text>
<text text-anchor="start" x="1038" y="-173" font-family="Helvetica,sans-Serif" font-size="10.00"># _GetType()</text>
</a>
</g>
</g>
<!-- Node4&#45;&gt;Node11 -->
<g id="edge10" class="edge"><title>Node4&#45;&gt;Node11</title>
<path fill="none" stroke="midnightblue" d="M950.954,-341.823C982.474,-315.431 1022.08,-282.272 1053.37,-256.072"/>
<polygon fill="none" stroke="midnightblue" points="948.545,-339.275 943.125,-348.379 953.039,-344.642 948.545,-339.275"/>
</g>
<!-- Node6 -->
<g id="node6" class="node"><title>Node6</title>
<g id="a_node6"><a xlink:href="../../d2/d9c/classppm__java_1_1backend_1_1module_1_1__deprecated__ppm_1_1_t_node_p_p_m_processor___endpoint___in.html" target="_top" xlink:title="Audio input port for a TNodePPMProcessor. ">
<polygon fill="white" stroke="black" points="-0.5,-17 -0.5,-85 182.5,-85 182.5,-17 -0.5,-17"/>
<text text-anchor="middle" x="91" y="-73" font-family="Helvetica,sans-Serif" font-size="10.00">TNodePPMProcessor_Endpoint_In</text>
<polyline fill="none" stroke="black" points="-0.5,-66 182.5,-66 "/>
<text text-anchor="middle" x="91" y="-54" font-family="Helvetica,sans-Serif" font-size="10.00"> </text>
<polyline fill="none" stroke="black" points="-0.5,-47 182.5,-47 "/>
<text text-anchor="start" x="7.5" y="-35" font-family="Helvetica,sans-Serif" font-size="10.00"># TNodePPMProcessor_Endpoint_In()</text>
<text text-anchor="start" x="7.5" y="-24" font-family="Helvetica,sans-Serif" font-size="10.00"># _Register()</text>
</a>
</g>
</g>
<!-- Node5&#45;&gt;Node6 -->
<g id="edge5" class="edge"><title>Node5&#45;&gt;Node6</title>
<path fill="none" stroke="midnightblue" d="M280.952,-163.57C238.085,-138.392 186.107,-107.862 147.368,-85.1081"/>
<polygon fill="none" stroke="midnightblue" points="279.28,-166.647 289.675,-168.694 282.825,-160.611 279.28,-166.647"/>
</g>
<!-- Node7 -->
<g id="node7" class="node"><title>Node7</title>
<g id="a_node7"><a xlink:href="../../db/d6c/classppm__java_1_1backend_1_1module_1_1jackd_1_1_t_audio_context___endpoint___in.html" target="_top" xlink:title="Audio input port for a TAudioContext_JackD. ">
<polygon fill="white" stroke="black" points="200.5,-17 200.5,-85 353.5,-85 353.5,-17 200.5,-17"/>
<text text-anchor="middle" x="277" y="-73" font-family="Helvetica,sans-Serif" font-size="10.00">TAudioContext_Endpoint_In</text>
<polyline fill="none" stroke="black" points="200.5,-66 353.5,-66 "/>
<text text-anchor="middle" x="277" y="-54" font-family="Helvetica,sans-Serif" font-size="10.00"> </text>
<polyline fill="none" stroke="black" points="200.5,-47 353.5,-47 "/>
<text text-anchor="start" x="208.5" y="-35" font-family="Helvetica,sans-Serif" font-size="10.00"># TAudioContext_Endpoint_In()</text>
<text text-anchor="start" x="208.5" y="-24" font-family="Helvetica,sans-Serif" font-size="10.00"># _Register()</text>
</a>
</g>
</g>
<!-- Node5&#45;&gt;Node7 -->
<g id="edge6" class="edge"><title>Node5&#45;&gt;Node7</title>
<path fill="none" stroke="midnightblue" d="M317.559,-129.208C309.353,-113.588 301.197,-98.0624 294.374,-85.0739"/>
<polygon fill="none" stroke="midnightblue" points="314.636,-131.171 322.386,-138.397 320.833,-127.916 314.636,-131.171"/>
</g>
<!-- Node8 -->
<g id="node8" class="node"><title>Node8</title>
<g id="a_node8"><a xlink:href="../../d3/d99/classppm__java_1_1backend_1_1module_1_1pump_1_1_t_node_pump___endpoint___in.html" target="_top" xlink:title="Audio input port for a TNodePump. ">
<polygon fill="white" stroke="black" points="371.5,-17 371.5,-85 514.5,-85 514.5,-17 371.5,-17"/>
<text text-anchor="middle" x="443" y="-73" font-family="Helvetica,sans-Serif" font-size="10.00">TNodePump_Endpoint_In</text>
<polyline fill="none" stroke="black" points="371.5,-66 514.5,-66 "/>
<text text-anchor="middle" x="443" y="-54" font-family="Helvetica,sans-Serif" font-size="10.00"> </text>
<polyline fill="none" stroke="black" points="371.5,-47 514.5,-47 "/>
<text text-anchor="start" x="379.5" y="-35" font-family="Helvetica,sans-Serif" font-size="10.00"># TNodePump_Endpoint_In()</text>
<text text-anchor="start" x="379.5" y="-24" font-family="Helvetica,sans-Serif" font-size="10.00"># _Register()</text>
</a>
</g>
</g>
<!-- Node5&#45;&gt;Node8 -->
<g id="edge7" class="edge"><title>Node5&#45;&gt;Node8</title>
<path fill="none" stroke="midnightblue" d="M402.441,-129.208C410.647,-113.588 418.803,-98.0624 425.626,-85.0739"/>
<polygon fill="none" stroke="midnightblue" points="399.167,-127.916 397.614,-138.397 405.364,-131.171 399.167,-127.916"/>
</g>
<!-- Node10 -->
<g id="node10" class="node"><title>Node10</title>
<g id="a_node10"><a xlink:href="../../d8/d7e/classppm__java_1_1backend_1_1module_1_1peak__estimator_1_1_t_node_peak_estimator___endpoint___in.html" target="_top" xlink:title="Audio input port for a TNodePeakEstimator. ">
<polygon fill="white" stroke="black" points="532.5,-0.5 532.5,-101.5 651.5,-101.5 651.5,-0.5 532.5,-0.5"/>
<text text-anchor="start" x="540.5" y="-89.5" font-family="Helvetica,sans-Serif" font-size="10.00">TNodePeakEstimator</text>
<text text-anchor="middle" x="592" y="-78.5" font-family="Helvetica,sans-Serif" font-size="10.00">_Endpoint_In</text>
<polyline fill="none" stroke="black" points="532.5,-71.5 651.5,-71.5 "/>
<text text-anchor="middle" x="592" y="-59.5" font-family="Helvetica,sans-Serif" font-size="10.00"> </text>
<polyline fill="none" stroke="black" points="532.5,-52.5 651.5,-52.5 "/>
<text text-anchor="start" x="540.5" y="-40.5" font-family="Helvetica,sans-Serif" font-size="10.00">+ ReceivePacket()</text>
<text text-anchor="start" x="540.5" y="-29.5" font-family="Helvetica,sans-Serif" font-size="10.00"># TNodePeakEstimator</text>
<text text-anchor="start" x="540.5" y="-18.5" font-family="Helvetica,sans-Serif" font-size="10.00">_Endpoint_In()</text>
<text text-anchor="start" x="540.5" y="-7.5" font-family="Helvetica,sans-Serif" font-size="10.00"># _Register()</text>
</a>
</g>
</g>
<!-- Node9&#45;&gt;Node10 -->
<g id="edge9" class="edge"><title>Node9&#45;&gt;Node10</title>
<path fill="none" stroke="midnightblue" d="M649.189,-146.124C640.194,-131.319 630.751,-115.778 622.19,-101.687"/>
<polygon fill="none" stroke="midnightblue" points="646.24,-148.011 654.424,-154.739 652.222,-144.376 646.24,-148.011"/>
</g>
<!-- Node12 -->
<g id="node12" class="node"><title>Node12</title>
<g id="a_node12"><a xlink:href="../../d4/d95/classppm__java_1_1backend_1_1module_1_1converter__db_1_1_t_node_converter_db___endpoint___in.html" target="_top" xlink:title="Audio input port for a TNodeConverterDb. ">
<polygon fill="white" stroke="black" points="669.5,-11.5 669.5,-90.5 842.5,-90.5 842.5,-11.5 669.5,-11.5"/>
<text text-anchor="middle" x="756" y="-78.5" font-family="Helvetica,sans-Serif" font-size="10.00">TNodeConverterDb_Endpoint_In</text>
<polyline fill="none" stroke="black" points="669.5,-71.5 842.5,-71.5 "/>
<text text-anchor="middle" x="756" y="-59.5" font-family="Helvetica,sans-Serif" font-size="10.00"> </text>
<polyline fill="none" stroke="black" points="669.5,-52.5 842.5,-52.5 "/>
<text text-anchor="start" x="677.5" y="-40.5" font-family="Helvetica,sans-Serif" font-size="10.00">+ TNodeConverterDb_Endpoint_In()</text>
<text text-anchor="start" x="677.5" y="-29.5" font-family="Helvetica,sans-Serif" font-size="10.00">+ ReceiveSample()</text>
<text text-anchor="start" x="677.5" y="-18.5" font-family="Helvetica,sans-Serif" font-size="10.00"># _Register()</text>
</a>
</g>
</g>
<!-- Node11&#45;&gt;Node12 -->
<g id="edge11" class="edge"><title>Node11&#45;&gt;Node12</title>
<path fill="none" stroke="midnightblue" d="M1020.48,-175.878C970.595,-155.453 906.713,-128.403 851,-102 843.421,-98.4083 835.571,-94.5343 827.78,-90.5883"/>
<polygon fill="none" stroke="midnightblue" points="1019.37,-179.203 1029.95,-179.743 1022.01,-172.722 1019.37,-179.203"/>
</g>
<!-- Node13 -->
<g id="node13" class="node"><title>Node13</title>
<g id="a_node13"><a xlink:href="../../dd/dee/classppm__java_1_1backend_1_1module_1_1integrator_1_1_t_node_integrator___p_p_m_ballistics___endpoint___in.html" target="_top" xlink:title="Audio input port for a TNodeIntegrator_PPMBallistics. ">
<polygon fill="white" stroke="black" points="860.5,-0.5 860.5,-101.5 1023.5,-101.5 1023.5,-0.5 860.5,-0.5"/>
<text text-anchor="start" x="868.5" y="-89.5" font-family="Helvetica,sans-Serif" font-size="10.00">TNodeIntegrator_PPMBallistics</text>
<text text-anchor="middle" x="942" y="-78.5" font-family="Helvetica,sans-Serif" font-size="10.00">_Endpoint_In</text>
<polyline fill="none" stroke="black" points="860.5,-71.5 1023.5,-71.5 "/>
<text text-anchor="middle" x="942" y="-59.5" font-family="Helvetica,sans-Serif" font-size="10.00"> </text>
<polyline fill="none" stroke="black" points="860.5,-52.5 1023.5,-52.5 "/>
<text text-anchor="start" x="868.5" y="-40.5" font-family="Helvetica,sans-Serif" font-size="10.00">+ TNodeIntegrator_PPMBallistics</text>
<text text-anchor="start" x="868.5" y="-29.5" font-family="Helvetica,sans-Serif" font-size="10.00">_Endpoint_In()</text>
<text text-anchor="start" x="868.5" y="-18.5" font-family="Helvetica,sans-Serif" font-size="10.00">+ ReceiveSample()</text>
<text text-anchor="start" x="868.5" y="-7.5" font-family="Helvetica,sans-Serif" font-size="10.00"># _Register()</text>
</a>
</g>
</g>
<!-- Node11&#45;&gt;Node13 -->
<g id="edge12" class="edge"><title>Node11&#45;&gt;Node13</title>
<path fill="none" stroke="midnightblue" d="M1052.87,-158.815C1033.83,-140.469 1012.4,-119.829 993.502,-101.618"/>
<polygon fill="none" stroke="midnightblue" points="1050.69,-161.571 1060.32,-165.988 1055.54,-156.529 1050.69,-161.571"/>
</g>
<!-- Node14 -->
<g id="node14" class="node"><title>Node14</title>
<g id="a_node14"><a xlink:href="../../d5/d31/classppm__java_1_1frontend_1_1console_1_1lineargauge_1_1_t_console___linear_gauge___endpoint___in.html" target="_top" xlink:title="Audio input port for a TConsole_LinearGauge. ">
<polygon fill="white" stroke="black" points="1042,-0.5 1042,-101.5 1170,-101.5 1170,-0.5 1042,-0.5"/>
<text text-anchor="start" x="1050" y="-89.5" font-family="Helvetica,sans-Serif" font-size="10.00">TConsole_LinearGauge</text>
<text text-anchor="middle" x="1106" y="-78.5" font-family="Helvetica,sans-Serif" font-size="10.00">_Endpoint_In</text>
<polyline fill="none" stroke="black" points="1042,-71.5 1170,-71.5 "/>
<text text-anchor="middle" x="1106" y="-59.5" font-family="Helvetica,sans-Serif" font-size="10.00"> </text>
<polyline fill="none" stroke="black" points="1042,-52.5 1170,-52.5 "/>
<text text-anchor="start" x="1050" y="-40.5" font-family="Helvetica,sans-Serif" font-size="10.00">+ TConsole_LinearGauge</text>
<text text-anchor="start" x="1050" y="-29.5" font-family="Helvetica,sans-Serif" font-size="10.00">_Endpoint_In()</text>
<text text-anchor="start" x="1050" y="-18.5" font-family="Helvetica,sans-Serif" font-size="10.00">+ ReceiveSample()</text>
<text text-anchor="start" x="1050" y="-7.5" font-family="Helvetica,sans-Serif" font-size="10.00"># _Register()</text>
</a>
</g>
</g>
<!-- Node11&#45;&gt;Node14 -->
<g id="edge13" class="edge"><title>Node11&#45;&gt;Node14</title>
<path fill="none" stroke="midnightblue" d="M1106,-155.874C1106,-138.284 1106,-118.862 1106,-101.618"/>
<polygon fill="none" stroke="midnightblue" points="1102.5,-155.988 1106,-165.988 1109.5,-155.988 1102.5,-155.988"/>
</g>
<!-- Node15 -->
<g id="node15" class="node"><title>Node15</title>
<g id="a_node15"><a xlink:href="../../d9/d7c/classppm__java_1_1frontend_1_1console_1_1text_1_1_t_console___text_out___endpoint___in.html" target="_top" xlink:title="Audio input port for a TConsole_TextOut. ">
<polygon fill="white" stroke="black" points="1188.5,-11.5 1188.5,-90.5 1359.5,-90.5 1359.5,-11.5 1188.5,-11.5"/>
<text text-anchor="middle" x="1274" y="-78.5" font-family="Helvetica,sans-Serif" font-size="10.00">TConsole_TextOut_Endpoint_In</text>
<polyline fill="none" stroke="black" points="1188.5,-71.5 1359.5,-71.5 "/>
<text text-anchor="middle" x="1274" y="-59.5" font-family="Helvetica,sans-Serif" font-size="10.00"> </text>
<polyline fill="none" stroke="black" points="1188.5,-52.5 1359.5,-52.5 "/>
<text text-anchor="start" x="1196.5" y="-40.5" font-family="Helvetica,sans-Serif" font-size="10.00">+ TConsole_TextOut_Endpoint_In()</text>
<text text-anchor="start" x="1196.5" y="-29.5" font-family="Helvetica,sans-Serif" font-size="10.00">+ ReceiveSample()</text>
<text text-anchor="start" x="1196.5" y="-18.5" font-family="Helvetica,sans-Serif" font-size="10.00"># _Register()</text>
</a>
</g>
</g>
<!-- Node11&#45;&gt;Node15 -->
<g id="edge14" class="edge"><title>Node11&#45;&gt;Node15</title>
<path fill="none" stroke="midnightblue" d="M1160.31,-158.92C1183.88,-136.754 1211.03,-111.223 1232.88,-90.6685"/>
<polygon fill="none" stroke="midnightblue" points="1157.68,-156.588 1152.8,-165.988 1162.48,-161.687 1157.68,-156.588"/>
</g>
<!-- Node16 -->
<g id="node16" class="node"><title>Node16</title>
<g id="a_node16"><a xlink:href="../../d9/d1a/classppm__java_1_1frontend_1_1gui_1_1lineargauge_1_1_t_g_u_i_linear_gauge___endpoint___in.html" target="_top" xlink:title="Audio input port for a TGUILinearGauge_Surrogate. ">
<polygon fill="white" stroke="black" points="1377.5,-11.5 1377.5,-90.5 1544.5,-90.5 1544.5,-11.5 1377.5,-11.5"/>
<text text-anchor="middle" x="1461" y="-78.5" font-family="Helvetica,sans-Serif" font-size="10.00">TGUILinearGauge_Endpoint_In</text>
<polyline fill="none" stroke="black" points="1377.5,-71.5 1544.5,-71.5 "/>
<text text-anchor="middle" x="1461" y="-59.5" font-family="Helvetica,sans-Serif" font-size="10.00"> </text>
<polyline fill="none" stroke="black" points="1377.5,-52.5 1544.5,-52.5 "/>
<text text-anchor="start" x="1385.5" y="-40.5" font-family="Helvetica,sans-Serif" font-size="10.00">+ TGUILinearGauge_Endpoint_In()</text>
<text text-anchor="start" x="1385.5" y="-29.5" font-family="Helvetica,sans-Serif" font-size="10.00">+ ReceiveSample()</text>
<text text-anchor="start" x="1385.5" y="-18.5" font-family="Helvetica,sans-Serif" font-size="10.00"># _Register()</text>
</a>
</g>
</g>
<!-- Node11&#45;&gt;Node16 -->
<g id="edge15" class="edge"><title>Node11&#45;&gt;Node16</title>
<path fill="none" stroke="midnightblue" d="M1191.74,-177.224C1243.38,-156.852 1310.13,-129.398 1368,-102 1375.54,-98.4311 1383.34,-94.5514 1391.06,-90.5841"/>
<polygon fill="none" stroke="midnightblue" points="1190.31,-174.028 1182.28,-180.944 1192.87,-180.542 1190.31,-174.028"/>
</g>
<!-- Node17 -->
<g id="node17" class="node"><title>Node17</title>
<g id="a_node17"><a xlink:href="../../d7/d0d/classppm__java_1_1frontend_1_1gui_1_1needle_1_1_t_g_u_i_needle___endpoint___in.html" target="_top" xlink:title="Audio input port for a TGUINeedle_Surrogate. ">
<polygon fill="white" stroke="black" points="1562.5,-11.5 1562.5,-90.5 1705.5,-90.5 1705.5,-11.5 1562.5,-11.5"/>
<text text-anchor="middle" x="1634" y="-78.5" font-family="Helvetica,sans-Serif" font-size="10.00">TGUINeedle_Endpoint_In</text>
<polyline fill="none" stroke="black" points="1562.5,-71.5 1705.5,-71.5 "/>
<text text-anchor="middle" x="1634" y="-59.5" font-family="Helvetica,sans-Serif" font-size="10.00"> </text>
<polyline fill="none" stroke="black" points="1562.5,-52.5 1705.5,-52.5 "/>
<text text-anchor="start" x="1570.5" y="-40.5" font-family="Helvetica,sans-Serif" font-size="10.00">+ TGUINeedle_Endpoint_In()</text>
<text text-anchor="start" x="1570.5" y="-29.5" font-family="Helvetica,sans-Serif" font-size="10.00">+ ReceiveSample()</text>
<text text-anchor="start" x="1570.5" y="-18.5" font-family="Helvetica,sans-Serif" font-size="10.00"># _Register()</text>
</a>
</g>
</g>
<!-- Node11&#45;&gt;Node17 -->
<g id="edge16" class="edge"><title>Node11&#45;&gt;Node17</title>
<path fill="none" stroke="midnightblue" d="M1192.33,-197.463C1284.27,-182.222 1432.79,-152.124 1553,-102 1560.78,-98.7564 1568.67,-94.8207 1576.33,-90.5975"/>
<polygon fill="none" stroke="midnightblue" points="1191.54,-194.046 1182.24,-199.115 1192.67,-200.954 1191.54,-194.046"/>
</g>
<!-- Node19 -->
<g id="node19" class="node"><title>Node19</title>
<g id="a_node19"><a xlink:href="../../d7/d64/classppm__java_1_1typelib_1_1_v_audio_port___output___chunks___needs_buffer.html" target="_top" xlink:title="Base class for an output that connects to a buffered input. ">
<polygon fill="white" stroke="black" points="1732,-144 1732,-278 1880,-278 1880,-144 1732,-144"/>
<text text-anchor="start" x="1740" y="-266" font-family="Helvetica,sans-Serif" font-size="10.00">VAudioPort_Output_Chunks</text>
<text text-anchor="middle" x="1806" y="-255" font-family="Helvetica,sans-Serif" font-size="10.00">_NeedsBuffer</text>
<polyline fill="none" stroke="black" points="1732,-248 1880,-248 "/>
<text text-anchor="middle" x="1806" y="-236" font-family="Helvetica,sans-Serif" font-size="10.00"> </text>
<polyline fill="none" stroke="black" points="1732,-229 1880,-229 "/>
<text text-anchor="start" x="1740" y="-217" font-family="Helvetica,sans-Serif" font-size="10.00">+ PushPacket()</text>
<text text-anchor="start" x="1740" y="-206" font-family="Helvetica,sans-Serif" font-size="10.00"># VAudioPort_Output_Chunks</text>
<text text-anchor="start" x="1740" y="-195" font-family="Helvetica,sans-Serif" font-size="10.00">_NeedsBuffer()</text>
<text text-anchor="start" x="1740" y="-184" font-family="Helvetica,sans-Serif" font-size="10.00"># _GetType()</text>
<text text-anchor="start" x="1740" y="-173" font-family="Helvetica,sans-Serif" font-size="10.00"># _Visit()</text>
<text text-anchor="start" x="1740" y="-162" font-family="Helvetica,sans-Serif" font-size="10.00"># _Visit()</text>
<text text-anchor="start" x="1740" y="-151" font-family="Helvetica,sans-Serif" font-size="10.00"># _Visit()</text>
</a>
</g>
</g>
<!-- Node18&#45;&gt;Node19 -->
<g id="edge18" class="edge"><title>Node18&#45;&gt;Node19</title>
<path fill="none" stroke="midnightblue" d="M1855.51,-311.599C1850,-300.504 1844.35,-289.145 1838.94,-278.254"/>
<polygon fill="none" stroke="midnightblue" points="1852.52,-313.444 1860.11,-320.84 1858.79,-310.327 1852.52,-313.444"/>
</g>
<!-- Node21 -->
<g id="node21" class="node"><title>Node21</title>
<g id="a_node21"><a xlink:href="../../d8/db2/classppm__java_1_1typelib_1_1_v_audio_port___output___chunks___no_buffer.html" target="_top" xlink:title="Base class for an output that connects to an unbuffered input. ">
<polygon fill="white" stroke="black" points="1900,-144 1900,-278 2048,-278 2048,-144 1900,-144"/>
<text text-anchor="start" x="1908" y="-266" font-family="Helvetica,sans-Serif" font-size="10.00">VAudioPort_Output_Chunks</text>
<text text-anchor="middle" x="1974" y="-255" font-family="Helvetica,sans-Serif" font-size="10.00">_NoBuffer</text>
<polyline fill="none" stroke="black" points="1900,-248 2048,-248 "/>
<text text-anchor="middle" x="1974" y="-236" font-family="Helvetica,sans-Serif" font-size="10.00"> </text>
<polyline fill="none" stroke="black" points="1900,-229 2048,-229 "/>
<text text-anchor="start" x="1908" y="-217" font-family="Helvetica,sans-Serif" font-size="10.00">+ PushPacket()</text>
<text text-anchor="start" x="1908" y="-206" font-family="Helvetica,sans-Serif" font-size="10.00"># VAudioPort_Output_Chunks</text>
<text text-anchor="start" x="1908" y="-195" font-family="Helvetica,sans-Serif" font-size="10.00">_NoBuffer()</text>
<text text-anchor="start" x="1908" y="-184" font-family="Helvetica,sans-Serif" font-size="10.00"># _GetType()</text>
<text text-anchor="start" x="1908" y="-173" font-family="Helvetica,sans-Serif" font-size="10.00"># _Visit()</text>
<text text-anchor="start" x="1908" y="-162" font-family="Helvetica,sans-Serif" font-size="10.00"># _Visit()</text>
<text text-anchor="start" x="1908" y="-151" font-family="Helvetica,sans-Serif" font-size="10.00"># _Visit()</text>
</a>
</g>
</g>
<!-- Node18&#45;&gt;Node21 -->
<g id="edge20" class="edge"><title>Node18&#45;&gt;Node21</title>
<path fill="none" stroke="midnightblue" d="M1927.9,-311.599C1933.04,-300.504 1938.29,-289.145 1943.33,-278.254"/>
<polygon fill="none" stroke="midnightblue" points="1924.65,-310.295 1923.62,-320.84 1931,-313.235 1924.65,-310.295"/>
</g>
<!-- Node23 -->
<g id="node23" class="node"><title>Node23</title>
<g id="a_node23"><a xlink:href="../../df/d90/classppm__java_1_1typelib_1_1_v_audio_port___output___samples.html" target="_top" xlink:title="Base class for an output that sends single sample values. ">
<polygon fill="white" stroke="black" points="2291.5,-155 2291.5,-267 2450.5,-267 2450.5,-155 2291.5,-155"/>
<text text-anchor="middle" x="2371" y="-255" font-family="Helvetica,sans-Serif" font-size="10.00">VAudioPort_Output_Samples</text>
<polyline fill="none" stroke="black" points="2291.5,-248 2450.5,-248 "/>
<text text-anchor="middle" x="2371" y="-236" font-family="Helvetica,sans-Serif" font-size="10.00"> </text>
<polyline fill="none" stroke="black" points="2291.5,-229 2450.5,-229 "/>
<text text-anchor="start" x="2299.5" y="-217" font-family="Helvetica,sans-Serif" font-size="10.00">+ VAudioPort_Output_Samples()</text>
<text text-anchor="start" x="2299.5" y="-206" font-family="Helvetica,sans-Serif" font-size="10.00">+ PushSample()</text>
<text text-anchor="start" x="2299.5" y="-195" font-family="Helvetica,sans-Serif" font-size="10.00"># _GetType()</text>
<text text-anchor="start" x="2299.5" y="-184" font-family="Helvetica,sans-Serif" font-size="10.00"># _Visit()</text>
<text text-anchor="start" x="2299.5" y="-173" font-family="Helvetica,sans-Serif" font-size="10.00"># _Visit()</text>
<text text-anchor="start" x="2299.5" y="-162" font-family="Helvetica,sans-Serif" font-size="10.00"># _Visit()</text>
</a>
</g>
</g>
<!-- Node18&#45;&gt;Node23 -->
<g id="edge22" class="edge"><title>Node18&#45;&gt;Node23</title>
<path fill="none" stroke="midnightblue" d="M1960.65,-362.231C2047.76,-330.339 2198.91,-275.004 2291.44,-241.129"/>
<polygon fill="none" stroke="midnightblue" points="1959.32,-358.992 1951.13,-365.717 1961.73,-365.565 1959.32,-358.992"/>
</g>
<!-- Node20 -->
<g id="node20" class="node"><title>Node20</title>
<g id="a_node20"><a xlink:href="../../dc/d75/classppm__java_1_1backend_1_1module_1_1jackd_1_1_t_audio_context___endpoint___out.html" target="_top" xlink:title="Audio output port for a TAudioContext_JackD. ">
<polygon fill="white" stroke="black" points="1723.5,-17 1723.5,-85 1884.5,-85 1884.5,-17 1723.5,-17"/>
<text text-anchor="middle" x="1804" y="-73" font-family="Helvetica,sans-Serif" font-size="10.00">TAudioContext_Endpoint_Out</text>
<polyline fill="none" stroke="black" points="1723.5,-66 1884.5,-66 "/>
<text text-anchor="middle" x="1804" y="-54" font-family="Helvetica,sans-Serif" font-size="10.00"> </text>
<polyline fill="none" stroke="black" points="1723.5,-47 1884.5,-47 "/>
<text text-anchor="start" x="1731.5" y="-35" font-family="Helvetica,sans-Serif" font-size="10.00"># TAudioContext_Endpoint_Out()</text>
<text text-anchor="start" x="1731.5" y="-24" font-family="Helvetica,sans-Serif" font-size="10.00"># _Register()</text>
</a>
</g>
</g>
<!-- Node19&#45;&gt;Node20 -->
<g id="edge19" class="edge"><title>Node19&#45;&gt;Node20</title>
<path fill="none" stroke="midnightblue" d="M1805.04,-133.85C1804.82,-116.69 1804.6,-99.3492 1804.42,-85.0739"/>
<polygon fill="none" stroke="midnightblue" points="1801.54,-133.954 1805.16,-143.909 1808.54,-133.866 1801.54,-133.954"/>
</g>
<!-- Node22 -->
<g id="node22" class="node"><title>Node22</title>
<g id="a_node22"><a xlink:href="../../da/ddf/classppm__java_1_1backend_1_1module_1_1pump_1_1_t_node_pump___endpoint___out.html" target="_top" xlink:title="Audio output port for a TNodePump. ">
<polygon fill="white" stroke="black" points="1902.5,-17 1902.5,-85 2053.5,-85 2053.5,-17 1902.5,-17"/>
<text text-anchor="middle" x="1978" y="-73" font-family="Helvetica,sans-Serif" font-size="10.00">TNodePump_Endpoint_Out</text>
<polyline fill="none" stroke="black" points="1902.5,-66 2053.5,-66 "/>
<text text-anchor="middle" x="1978" y="-54" font-family="Helvetica,sans-Serif" font-size="10.00"> </text>
<polyline fill="none" stroke="black" points="1902.5,-47 2053.5,-47 "/>
<text text-anchor="start" x="1910.5" y="-35" font-family="Helvetica,sans-Serif" font-size="10.00">+ TNodePump_Endpoint_Out()</text>
<text text-anchor="start" x="1910.5" y="-24" font-family="Helvetica,sans-Serif" font-size="10.00"># _Register()</text>
</a>
</g>
</g>
<!-- Node21&#45;&gt;Node22 -->
<g id="edge21" class="edge"><title>Node21&#45;&gt;Node22</title>
<path fill="none" stroke="midnightblue" d="M1975.93,-133.85C1976.36,-116.69 1976.8,-99.3492 1977.16,-85.0739"/>
<polygon fill="none" stroke="midnightblue" points="1972.43,-133.824 1975.67,-143.909 1979.43,-134.001 1972.43,-133.824"/>
</g>
<!-- Node24 -->
<g id="node24" class="node"><title>Node24</title>
<g id="a_node24"><a xlink:href="../../d5/d60/classppm__java_1_1backend_1_1module_1_1__deprecated__ppm_1_1_t_node_p_p_m_processor___endpoint___out.html" target="_top" xlink:title="Audio output port for a TNodePPMProcessor. ">
<polygon fill="white" stroke="black" points="2071.5,-17 2071.5,-85 2262.5,-85 2262.5,-17 2071.5,-17"/>
<text text-anchor="middle" x="2167" y="-73" font-family="Helvetica,sans-Serif" font-size="10.00">TNodePPMProcessor_Endpoint_Out</text>
<polyline fill="none" stroke="black" points="2071.5,-66 2262.5,-66 "/>
<text text-anchor="middle" x="2167" y="-54" font-family="Helvetica,sans-Serif" font-size="10.00"> </text>
<polyline fill="none" stroke="black" points="2071.5,-47 2262.5,-47 "/>
<text text-anchor="start" x="2079.5" y="-35" font-family="Helvetica,sans-Serif" font-size="10.00">+ TNodePPMProcessor_Endpoint_Out()</text>
<text text-anchor="start" x="2079.5" y="-24" font-family="Helvetica,sans-Serif" font-size="10.00"># _Register()</text>
</a>
</g>
</g>
<!-- Node23&#45;&gt;Node24 -->
<g id="edge23" class="edge"><title>Node23&#45;&gt;Node24</title>
<path fill="none" stroke="midnightblue" d="M2291.76,-148.629C2263.89,-127.04 2233.62,-103.6 2209.88,-85.2134"/>
<polygon fill="none" stroke="midnightblue" points="2289.89,-151.605 2299.94,-154.961 2294.17,-146.071 2289.89,-151.605"/>
</g>
<!-- Node25 -->
<g id="node25" class="node"><title>Node25</title>
<g id="a_node25"><a xlink:href="../../d3/df9/classppm__java_1_1backend_1_1module_1_1converter__db_1_1_t_node_converter_db___endpoint___out.html" target="_top" xlink:title="Audio output port for a TNodeConverterDb. ">
<polygon fill="white" stroke="black" points="2280.5,-17 2280.5,-85 2461.5,-85 2461.5,-17 2280.5,-17"/>
<text text-anchor="middle" x="2371" y="-73" font-family="Helvetica,sans-Serif" font-size="10.00">TNodeConverterDb_Endpoint_Out</text>
<polyline fill="none" stroke="black" points="2280.5,-66 2461.5,-66 "/>
<text text-anchor="middle" x="2371" y="-54" font-family="Helvetica,sans-Serif" font-size="10.00"> </text>
<polyline fill="none" stroke="black" points="2280.5,-47 2461.5,-47 "/>
<text text-anchor="start" x="2288.5" y="-35" font-family="Helvetica,sans-Serif" font-size="10.00">+ TNodeConverterDb_Endpoint_Out()</text>
<text text-anchor="start" x="2288.5" y="-24" font-family="Helvetica,sans-Serif" font-size="10.00"># _Register()</text>
</a>
</g>
</g>
<!-- Node23&#45;&gt;Node25 -->
<g id="edge24" class="edge"><title>Node23&#45;&gt;Node25</title>
<path fill="none" stroke="midnightblue" d="M2371,-144.547C2371,-124.174 2371,-102.562 2371,-85.3508"/>
<polygon fill="none" stroke="midnightblue" points="2367.5,-144.739 2371,-154.739 2374.5,-144.739 2367.5,-144.739"/>
</g>
<!-- Node26 -->
<g id="node26" class="node"><title>Node26</title>
<g id="a_node26"><a xlink:href="../../d3/dd8/classppm__java_1_1backend_1_1module_1_1integrator_1_1_t_node_integrator___p_p_m_ballistics___endpoint___out.html" target="_top" xlink:title="Audio output port for a TNodeIntegrator_PPMBallistics. ">
<polygon fill="white" stroke="black" points="2479.5,-6 2479.5,-96 2642.5,-96 2642.5,-6 2479.5,-6"/>
<text text-anchor="start" x="2487.5" y="-84" font-family="Helvetica,sans-Serif" font-size="10.00">TNodeIntegrator_PPMBallistics</text>
<text text-anchor="middle" x="2561" y="-73" font-family="Helvetica,sans-Serif" font-size="10.00">_Endpoint_Out</text>
<polyline fill="none" stroke="black" points="2479.5,-66 2642.5,-66 "/>
<text text-anchor="middle" x="2561" y="-54" font-family="Helvetica,sans-Serif" font-size="10.00"> </text>
<polyline fill="none" stroke="black" points="2479.5,-47 2642.5,-47 "/>
<text text-anchor="start" x="2487.5" y="-35" font-family="Helvetica,sans-Serif" font-size="10.00">+ TNodeIntegrator_PPMBallistics</text>
<text text-anchor="start" x="2487.5" y="-24" font-family="Helvetica,sans-Serif" font-size="10.00">_Endpoint_Out()</text>
<text text-anchor="start" x="2487.5" y="-13" font-family="Helvetica,sans-Serif" font-size="10.00"># _Register()</text>
</a>
</g>
</g>
<!-- Node23&#45;&gt;Node26 -->
<g id="edge25" class="edge"><title>Node23&#45;&gt;Node26</title>
<path fill="none" stroke="midnightblue" d="M2445.14,-148.35C2466.08,-130.931 2488.45,-112.328 2507.9,-96.1595"/>
<polygon fill="none" stroke="midnightblue" points="2442.64,-145.876 2437.19,-154.961 2447.11,-151.258 2442.64,-145.876"/>
</g>
<!-- Node27 -->
<g id="node27" class="node"><title>Node27</title>
<g id="a_node27"><a xlink:href="../../da/d77/classppm__java_1_1backend_1_1module_1_1peak__estimator_1_1_t_node_peak_estimator___endpoint___out.html" target="_top" xlink:title="Audio output port for a TNodePeakEstimator. ">
<polygon fill="white" stroke="black" points="2660.5,-6 2660.5,-96 2779.5,-96 2779.5,-6 2660.5,-6"/>
<text text-anchor="start" x="2668.5" y="-84" font-family="Helvetica,sans-Serif" font-size="10.00">TNodePeakEstimator</text>
<text text-anchor="middle" x="2720" y="-73" font-family="Helvetica,sans-Serif" font-size="10.00">_Endpoint_Out</text>
<polyline fill="none" stroke="black" points="2660.5,-66 2779.5,-66 "/>
<text text-anchor="middle" x="2720" y="-54" font-family="Helvetica,sans-Serif" font-size="10.00"> </text>
<polyline fill="none" stroke="black" points="2660.5,-47 2779.5,-47 "/>
<text text-anchor="start" x="2668.5" y="-35" font-family="Helvetica,sans-Serif" font-size="10.00">+ TNodePeakEstimator</text>
<text text-anchor="start" x="2668.5" y="-24" font-family="Helvetica,sans-Serif" font-size="10.00">_Endpoint_Out()</text>
<text text-anchor="start" x="2668.5" y="-13" font-family="Helvetica,sans-Serif" font-size="10.00"># _Register()</text>
</a>
</g>
</g>
<!-- Node23&#45;&gt;Node27 -->
<g id="edge26" class="edge"><title>Node23&#45;&gt;Node27</title>
<path fill="none" stroke="midnightblue" d="M2460.26,-182.194C2516.59,-163.056 2589.98,-135.148 2651,-102 2654.38,-100.164 2657.79,-98.1853 2661.18,-96.1117"/>
<polygon fill="none" stroke="midnightblue" points="2459.02,-178.918 2450.66,-185.427 2461.26,-185.552 2459.02,-178.918"/>
</g>
</g>
</svg>
