<?xml version="1.0" encoding="UTF-8" standalone="no"?>
<!DOCTYPE svg PUBLIC "-//W3C//DTD SVG 1.1//EN"
 "http://www.w3.org/Graphics/SVG/1.1/DTD/svg11.dtd">
<!-- Generated by graphviz version 2.36.0 (20140111.2315)
 -->
<!-- Title: VFrontend Pages: 1 -->
<svg width="601pt" height="894pt"
 viewBox="0.00 0.00 601.00 894.00" xmlns="http://www.w3.org/2000/svg" xmlns:xlink="http://www.w3.org/1999/xlink">
<g id="graph0" class="graph" transform="scale(1 1) rotate(0) translate(4 890)">
<title>VFrontend</title>
<polygon fill="white" stroke="none" points="-4,4 -4,-890 597,-890 597,4 -4,4"/>
<!-- Node1 -->
<g id="node1" class="node"><title>Node1</title>
<polygon fill="#bfbfbf" stroke="black" points="239,-380.5 239,-459.5 339,-459.5 339,-380.5 239,-380.5"/>
<text text-anchor="middle" x="289" y="-447.5" font-family="Helvetica,sans-Serif" font-size="10.00">VFrontend</text>
<polyline fill="none" stroke="black" points="239,-440.5 339,-440.5 "/>
<text text-anchor="middle" x="289" y="-428.5" font-family="Helvetica,sans-Serif" font-size="10.00"> </text>
<polyline fill="none" stroke="black" points="239,-421.5 339,-421.5 "/>
<text text-anchor="start" x="247" y="-409.5" font-family="Helvetica,sans-Serif" font-size="10.00">+ VFrontend()</text>
<text text-anchor="start" x="247" y="-398.5" font-family="Helvetica,sans-Serif" font-size="10.00">+ CreatePort_Out()</text>
<text text-anchor="start" x="247" y="-387.5" font-family="Helvetica,sans-Serif" font-size="10.00"># _OnTerminate()</text>
</g>
<!-- Node5 -->
<g id="node5" class="node"><title>Node5</title>
<g id="a_node5"><a xlink:href="../../db/d79/classppm__java_1_1frontend_1_1console_1_1lineargauge_1_1_t_console___linear_gauge.html" target="_top" xlink:title="A linear gauge on the console. ">
<polygon fill="white" stroke="black" points="0,-0.5 0,-343.5 134,-343.5 134,-0.5 0,-0.5"/>
<text text-anchor="middle" x="67" y="-331.5" font-family="Helvetica,sans-Serif" font-size="10.00">TConsole_LinearGauge</text>
<polyline fill="none" stroke="black" points="0,-324.5 134,-324.5 "/>
<text text-anchor="start" x="8" y="-312.5" font-family="Helvetica,sans-Serif" font-size="10.00">~ gkNumSections</text>
<text text-anchor="start" x="8" y="-301.5" font-family="Helvetica,sans-Serif" font-size="10.00">&#45; fBarLen</text>
<text text-anchor="start" x="8" y="-290.5" font-family="Helvetica,sans-Serif" font-size="10.00">&#45; fEmptyBar</text>
<text text-anchor="start" x="8" y="-279.5" font-family="Helvetica,sans-Serif" font-size="10.00">&#45; fFramebar</text>
<text text-anchor="start" x="8" y="-268.5" font-family="Helvetica,sans-Serif" font-size="10.00">&#45; fMeterL</text>
<text text-anchor="start" x="8" y="-257.5" font-family="Helvetica,sans-Serif" font-size="10.00">&#45; fMeterR</text>
<text text-anchor="start" x="8" y="-246.5" font-family="Helvetica,sans-Serif" font-size="10.00">&#45; fNumBar</text>
<text text-anchor="start" x="8" y="-235.5" font-family="Helvetica,sans-Serif" font-size="10.00">&#45; fNumColsPerSection</text>
<text text-anchor="start" x="8" y="-224.5" font-family="Helvetica,sans-Serif" font-size="10.00">&#45; fRefreshTimer</text>
<text text-anchor="start" x="8" y="-213.5" font-family="Helvetica,sans-Serif" font-size="10.00">&#45; gkAnsiCursorPosBottom</text>
<text text-anchor="start" x="8" y="-202.5" font-family="Helvetica,sans-Serif" font-size="10.00">&#45; gkAnsiCursorPosTop</text>
<text text-anchor="start" x="8" y="-191.5" font-family="Helvetica,sans-Serif" font-size="10.00">&#45; gkAnsiCursorPosMeterL</text>
<text text-anchor="start" x="8" y="-180.5" font-family="Helvetica,sans-Serif" font-size="10.00">&#45; gkAnsiCursorPosMeterR</text>
<text text-anchor="start" x="8" y="-169.5" font-family="Helvetica,sans-Serif" font-size="10.00">&#45; gkAnsiScreenClear</text>
<text text-anchor="start" x="8" y="-158.5" font-family="Helvetica,sans-Serif" font-size="10.00">&#45; gkBarLenMax</text>
<text text-anchor="start" x="8" y="-147.5" font-family="Helvetica,sans-Serif" font-size="10.00">&#45; gkBarLenMin</text>
<text text-anchor="start" x="8" y="-136.5" font-family="Helvetica,sans-Serif" font-size="10.00">&#45; gkRefreshInterval</text>
<text text-anchor="start" x="8" y="-125.5" font-family="Helvetica,sans-Serif" font-size="10.00">&#45; gkTickmarkChar</text>
<polyline fill="none" stroke="black" points="0,-118.5 134,-118.5 "/>
<text text-anchor="start" x="8" y="-106.5" font-family="Helvetica,sans-Serif" font-size="10.00">+ TConsole_LinearGauge()</text>
<text text-anchor="start" x="8" y="-95.5" font-family="Helvetica,sans-Serif" font-size="10.00">+ CreatePort_In()</text>
<text text-anchor="start" x="8" y="-84.5" font-family="Helvetica,sans-Serif" font-size="10.00">+ Start()</text>
<text text-anchor="start" x="8" y="-73.5" font-family="Helvetica,sans-Serif" font-size="10.00">+ Stop()</text>
<text text-anchor="start" x="8" y="-62.5" font-family="Helvetica,sans-Serif" font-size="10.00">+ CreateInstance()</text>
<text text-anchor="start" x="8" y="-51.5" font-family="Helvetica,sans-Serif" font-size="10.00">~ _Receive()</text>
<text text-anchor="start" x="8" y="-40.5" font-family="Helvetica,sans-Serif" font-size="10.00"># _Register()</text>
<text text-anchor="start" x="8" y="-29.5" font-family="Helvetica,sans-Serif" font-size="10.00">&#45; _Init()</text>
<text text-anchor="start" x="8" y="-18.5" font-family="Helvetica,sans-Serif" font-size="10.00">&#45; _RefreshFrame()</text>
<text text-anchor="start" x="8" y="-7.5" font-family="Helvetica,sans-Serif" font-size="10.00">&#45; _RefreshUI()</text>
</a>
</g>
</g>
<!-- Node1&#45;&gt;Node5 -->
<g id="edge4" class="edge"><title>Node1&#45;&gt;Node5</title>
<path fill="none" stroke="midnightblue" d="M229.011,-399.012C200.005,-386.866 166.478,-368.839 143,-344 139.987,-340.813 137.081,-337.486 134.278,-334.043"/>
<polygon fill="none" stroke="midnightblue" points="228.07,-402.407 238.653,-402.907 230.692,-395.916 228.07,-402.407"/>
</g>
<!-- Node6 -->
<g id="node6" class="node"><title>Node6</title>
<g id="a_node6"><a xlink:href="../../dc/de5/classppm__java_1_1frontend_1_1console_1_1text_1_1_t_console___text_out.html" target="_top" xlink:title="A simple text&#45;only frontend. ">
<polygon fill="white" stroke="black" points="152.5,-77.5 152.5,-266.5 271.5,-266.5 271.5,-77.5 152.5,-77.5"/>
<text text-anchor="middle" x="212" y="-254.5" font-family="Helvetica,sans-Serif" font-size="10.00">TConsole_TextOut</text>
<polyline fill="none" stroke="black" points="152.5,-247.5 271.5,-247.5 "/>
<text text-anchor="start" x="160.5" y="-235.5" font-family="Helvetica,sans-Serif" font-size="10.00">&#45; gkRecordTypeInfo</text>
<text text-anchor="start" x="160.5" y="-224.5" font-family="Helvetica,sans-Serif" font-size="10.00">&#45; gkRecordTypeSample</text>
<polyline fill="none" stroke="black" points="152.5,-217.5 271.5,-217.5 "/>
<text text-anchor="start" x="160.5" y="-205.5" font-family="Helvetica,sans-Serif" font-size="10.00">+ CreatePort_In()</text>
<text text-anchor="start" x="160.5" y="-194.5" font-family="Helvetica,sans-Serif" font-size="10.00">+ OnEvent()</text>
<text text-anchor="start" x="160.5" y="-183.5" font-family="Helvetica,sans-Serif" font-size="10.00">+ OnEvent()</text>
<text text-anchor="start" x="160.5" y="-172.5" font-family="Helvetica,sans-Serif" font-size="10.00">+ OnEvent()</text>
<text text-anchor="start" x="160.5" y="-161.5" font-family="Helvetica,sans-Serif" font-size="10.00">+ OnEvent()</text>
<text text-anchor="start" x="160.5" y="-150.5" font-family="Helvetica,sans-Serif" font-size="10.00">+ Start()</text>
<text text-anchor="start" x="160.5" y="-139.5" font-family="Helvetica,sans-Serif" font-size="10.00">+ Stop()</text>
<text text-anchor="start" x="160.5" y="-128.5" font-family="Helvetica,sans-Serif" font-size="10.00">+ CreateInstance()</text>
<text text-anchor="start" x="160.5" y="-117.5" font-family="Helvetica,sans-Serif" font-size="10.00">~ Receive()</text>
<text text-anchor="start" x="160.5" y="-106.5" font-family="Helvetica,sans-Serif" font-size="10.00"># _Register()</text>
<text text-anchor="start" x="160.5" y="-95.5" font-family="Helvetica,sans-Serif" font-size="10.00">&#45; TConsole_TextOut()</text>
<text text-anchor="start" x="160.5" y="-84.5" font-family="Helvetica,sans-Serif" font-size="10.00">&#45; _PushRecord()</text>
</a>
</g>
</g>
<!-- Node1&#45;&gt;Node6 -->
<g id="edge5" class="edge"><title>Node1&#45;&gt;Node6</title>
<path fill="none" stroke="midnightblue" d="M273.858,-370.624C264.589,-341.012 252.417,-302.123 241.323,-266.683"/>
<polygon fill="none" stroke="midnightblue" points="270.557,-371.794 276.884,-380.292 277.237,-369.703 270.557,-371.794"/>
</g>
<!-- Node7 -->
<g id="node7" class="node"><title>Node7</title>
<g id="a_node7"><a xlink:href="../../d2/dd7/classppm__java_1_1frontend_1_1gui_1_1lineargauge_1_1_t_g_u_i_linear_gauge___surrogate.html" target="_top" xlink:title="The UI controller. ">
<polygon fill="white" stroke="black" points="289.5,-72 289.5,-272 444.5,-272 444.5,-72 289.5,-72"/>
<text text-anchor="middle" x="367" y="-260" font-family="Helvetica,sans-Serif" font-size="10.00">TGUILinearGauge_Surrogate</text>
<polyline fill="none" stroke="black" points="289.5,-253 444.5,-253 "/>
<text text-anchor="start" x="297.5" y="-241" font-family="Helvetica,sans-Serif" font-size="10.00">&#45; fGUI</text>
<text text-anchor="start" x="297.5" y="-230" font-family="Helvetica,sans-Serif" font-size="10.00">&#45; fStat</text>
<text text-anchor="start" x="297.5" y="-219" font-family="Helvetica,sans-Serif" font-size="10.00">&#45; gGUI</text>
<text text-anchor="start" x="297.5" y="-208" font-family="Helvetica,sans-Serif" font-size="10.00">&#45; gkLvlClip</text>
<text text-anchor="start" x="297.5" y="-197" font-family="Helvetica,sans-Serif" font-size="10.00">&#45; gkLvlWarn</text>
<polyline fill="none" stroke="black" points="289.5,-190 444.5,-190 "/>
<text text-anchor="start" x="297.5" y="-178" font-family="Helvetica,sans-Serif" font-size="10.00">+ CreatePort_In()</text>
<text text-anchor="start" x="297.5" y="-167" font-family="Helvetica,sans-Serif" font-size="10.00">+ Start()</text>
<text text-anchor="start" x="297.5" y="-156" font-family="Helvetica,sans-Serif" font-size="10.00">+ StatsGet()</text>
<text text-anchor="start" x="297.5" y="-145" font-family="Helvetica,sans-Serif" font-size="10.00">+ Stop()</text>
<text text-anchor="start" x="297.5" y="-134" font-family="Helvetica,sans-Serif" font-size="10.00">+ CreateInstance()</text>
<text text-anchor="start" x="297.5" y="-123" font-family="Helvetica,sans-Serif" font-size="10.00">~ OnSigClip_Click()</text>
<text text-anchor="start" x="297.5" y="-112" font-family="Helvetica,sans-Serif" font-size="10.00">~ OnTerminate()</text>
<text text-anchor="start" x="297.5" y="-101" font-family="Helvetica,sans-Serif" font-size="10.00">~ SetLevel()</text>
<text text-anchor="start" x="297.5" y="-90" font-family="Helvetica,sans-Serif" font-size="10.00"># _Register()</text>
<text text-anchor="start" x="297.5" y="-79" font-family="Helvetica,sans-Serif" font-size="10.00">&#45; TGUILinearGauge_Surrogate()</text>
</a>
</g>
</g>
<!-- Node1&#45;&gt;Node7 -->
<g id="edge6" class="edge"><title>Node1&#45;&gt;Node7</title>
<path fill="none" stroke="midnightblue" d="M304.307,-370.724C313.213,-342.637 324.773,-306.178 335.536,-272.231"/>
<polygon fill="none" stroke="midnightblue" points="300.96,-369.702 301.273,-380.292 307.632,-371.817 300.96,-369.702"/>
</g>
<!-- Node8 -->
<g id="node8" class="node"><title>Node8</title>
<g id="a_node8"><a xlink:href="../../d5/d13/classppm__java_1_1frontend_1_1gui_1_1needle_1_1_t_g_u_i_needle___surrogate.html" target="_top" xlink:title="The UI controller. ">
<polygon fill="white" stroke="black" points="462.5,-77.5 462.5,-266.5 593.5,-266.5 593.5,-77.5 462.5,-77.5"/>
<text text-anchor="middle" x="528" y="-254.5" font-family="Helvetica,sans-Serif" font-size="10.00">TGUINeedle_Surrogate</text>
<polyline fill="none" stroke="black" points="462.5,-247.5 593.5,-247.5 "/>
<text text-anchor="start" x="470.5" y="-235.5" font-family="Helvetica,sans-Serif" font-size="10.00">&#45; fGUI</text>
<text text-anchor="start" x="470.5" y="-224.5" font-family="Helvetica,sans-Serif" font-size="10.00">&#45; fStat</text>
<text text-anchor="start" x="470.5" y="-213.5" font-family="Helvetica,sans-Serif" font-size="10.00">&#45; gGUI</text>
<text text-anchor="start" x="470.5" y="-202.5" font-family="Helvetica,sans-Serif" font-size="10.00">&#45; gkLvlClip</text>
<text text-anchor="start" x="470.5" y="-191.5" font-family="Helvetica,sans-Serif" font-size="10.00">&#45; gkLvlWarn</text>
<polyline fill="none" stroke="black" points="462.5,-184.5 593.5,-184.5 "/>
<text text-anchor="start" x="470.5" y="-172.5" font-family="Helvetica,sans-Serif" font-size="10.00">+ CreatePort_In()</text>
<text text-anchor="start" x="470.5" y="-161.5" font-family="Helvetica,sans-Serif" font-size="10.00">+ Start()</text>
<text text-anchor="start" x="470.5" y="-150.5" font-family="Helvetica,sans-Serif" font-size="10.00">+ StatsGet()</text>
<text text-anchor="start" x="470.5" y="-139.5" font-family="Helvetica,sans-Serif" font-size="10.00">+ Stop()</text>
<text text-anchor="start" x="470.5" y="-128.5" font-family="Helvetica,sans-Serif" font-size="10.00">+ CreateInstance()</text>
<text text-anchor="start" x="470.5" y="-117.5" font-family="Helvetica,sans-Serif" font-size="10.00">~ OnTerminate()</text>
<text text-anchor="start" x="470.5" y="-106.5" font-family="Helvetica,sans-Serif" font-size="10.00">~ SetLevel()</text>
<text text-anchor="start" x="470.5" y="-95.5" font-family="Helvetica,sans-Serif" font-size="10.00"># _Register()</text>
<text text-anchor="start" x="470.5" y="-84.5" font-family="Helvetica,sans-Serif" font-size="10.00">&#45; TGUINeedle_Surrogate()</text>
</a>
</g>
</g>
<!-- Node1&#45;&gt;Node8 -->
<g id="edge7" class="edge"><title>Node1&#45;&gt;Node8</title>
<path fill="none" stroke="midnightblue" d="M348.927,-403.254C383.088,-391.67 424.612,-372.834 453,-344 474.151,-322.516 489.833,-294.075 501.227,-266.565"/>
<polygon fill="none" stroke="midnightblue" points="347.468,-400.048 339.045,-406.475 349.637,-406.703 347.468,-400.048"/>
</g>
<!-- Node2 -->
<g id="node2" class="node"><title>Node2</title>
<g id="a_node2"><a xlink:href="../../d5/d6a/classppm__java_1_1typelib_1_1_v_audio_processor.html" target="_top" xlink:title="Base class for all modules processing audio samples. ">
<polygon fill="white" stroke="black" points="235.5,-497 235.5,-675 342.5,-675 342.5,-497 235.5,-497"/>
<text text-anchor="middle" x="289" y="-663" font-family="Helvetica,sans-Serif" font-size="10.00">VAudioProcessor</text>
<polyline fill="none" stroke="black" points="235.5,-656 342.5,-656 "/>
<text text-anchor="start" x="243.5" y="-644" font-family="Helvetica,sans-Serif" font-size="10.00">&#45; fPortsIn</text>
<text text-anchor="start" x="243.5" y="-633" font-family="Helvetica,sans-Serif" font-size="10.00">&#45; fPortsOut</text>
<polyline fill="none" stroke="black" points="235.5,-626 342.5,-626 "/>
<text text-anchor="start" x="243.5" y="-614" font-family="Helvetica,sans-Serif" font-size="10.00">+ VAudioProcessor()</text>
<text text-anchor="start" x="243.5" y="-603" font-family="Helvetica,sans-Serif" font-size="10.00">+ CreatePort_In()</text>
<text text-anchor="start" x="243.5" y="-592" font-family="Helvetica,sans-Serif" font-size="10.00">+ CreatePort_Out()</text>
<text text-anchor="start" x="243.5" y="-581" font-family="Helvetica,sans-Serif" font-size="10.00">+ GetNumPortsIn()</text>
<text text-anchor="start" x="243.5" y="-570" font-family="Helvetica,sans-Serif" font-size="10.00">+ GetNumPortsOut()</text>
<text text-anchor="start" x="243.5" y="-559" font-family="Helvetica,sans-Serif" font-size="10.00">+ GetPortIn()</text>
<text text-anchor="start" x="243.5" y="-548" font-family="Helvetica,sans-Serif" font-size="10.00">+ GetPortIn()</text>
<text text-anchor="start" x="243.5" y="-537" font-family="Helvetica,sans-Serif" font-size="10.00">+ GetPortOut()</text>
<text text-anchor="start" x="243.5" y="-526" font-family="Helvetica,sans-Serif" font-size="10.00">+ GetPortOut()</text>
<text text-anchor="start" x="243.5" y="-515" font-family="Helvetica,sans-Serif" font-size="10.00"># AddPortIn()</text>
<text text-anchor="start" x="243.5" y="-504" font-family="Helvetica,sans-Serif" font-size="10.00"># AddPortOut()</text>
</a>
</g>
</g>
<!-- Node2&#45;&gt;Node1 -->
<g id="edge1" class="edge"><title>Node2&#45;&gt;Node1</title>
<path fill="none" stroke="midnightblue" d="M289,-486.738C289,-477.207 289,-467.98 289,-459.603"/>
<polygon fill="none" stroke="midnightblue" points="285.5,-486.759 289,-496.759 292.5,-486.759 285.5,-486.759"/>
</g>
<!-- Node3 -->
<g id="node3" class="node"><title>Node3</title>
<g id="a_node3"><a xlink:href="../../d1/db3/classppm__java_1_1typelib_1_1_v_audio_object.html" target="_top" xlink:title="Base class for all browseable audio objects. ">
<polygon fill="white" stroke="black" points="243,-712.5 243,-769.5 335,-769.5 335,-712.5 243,-712.5"/>
<text text-anchor="middle" x="289" y="-757.5" font-family="Helvetica,sans-Serif" font-size="10.00">VAudioObject</text>
<polyline fill="none" stroke="black" points="243,-750.5 335,-750.5 "/>
<text text-anchor="middle" x="289" y="-738.5" font-family="Helvetica,sans-Serif" font-size="10.00"> </text>
<polyline fill="none" stroke="black" points="243,-731.5 335,-731.5 "/>
<text text-anchor="start" x="251" y="-719.5" font-family="Helvetica,sans-Serif" font-size="10.00">+ VAudioObject()</text>
</a>
</g>
</g>
<!-- Node3&#45;&gt;Node2 -->
<g id="edge2" class="edge"><title>Node3&#45;&gt;Node2</title>
<path fill="none" stroke="midnightblue" d="M289,-702.166C289,-693.781 289,-684.554 289,-675.086"/>
<polygon fill="none" stroke="midnightblue" points="285.5,-702.293 289,-712.293 292.5,-702.293 285.5,-702.293"/>
</g>
<!-- Node4 -->
<g id="node4" class="node"><title>Node4</title>
<g id="a_node4"><a xlink:href="../../de/dd1/classppm__java_1_1typelib_1_1_v_browseable.html" target="_top" xlink:title="Base class for all browseable objects. ">
<polygon fill="white" stroke="black" points="244.5,-806.5 244.5,-885.5 333.5,-885.5 333.5,-806.5 244.5,-806.5"/>
<text text-anchor="middle" x="289" y="-873.5" font-family="Helvetica,sans-Serif" font-size="10.00">VBrowseable</text>
<polyline fill="none" stroke="black" points="244.5,-866.5 333.5,-866.5 "/>
<text text-anchor="start" x="252.5" y="-854.5" font-family="Helvetica,sans-Serif" font-size="10.00">&#45; fID</text>
<polyline fill="none" stroke="black" points="244.5,-847.5 333.5,-847.5 "/>
<text text-anchor="start" x="252.5" y="-835.5" font-family="Helvetica,sans-Serif" font-size="10.00">+ VBrowseable()</text>
<text text-anchor="start" x="252.5" y="-824.5" font-family="Helvetica,sans-Serif" font-size="10.00">+ GetID()</text>
<text text-anchor="start" x="252.5" y="-813.5" font-family="Helvetica,sans-Serif" font-size="10.00"># _Register()</text>
</a>
</g>
</g>
<!-- Node4&#45;&gt;Node3 -->
<g id="edge3" class="edge"><title>Node4&#45;&gt;Node3</title>
<path fill="none" stroke="midnightblue" d="M289,-796.163C289,-787.04 289,-777.806 289,-769.61"/>
<polygon fill="none" stroke="midnightblue" points="285.5,-796.354 289,-806.354 292.5,-796.354 285.5,-796.354"/>
</g>
</g>
</svg>
