<?xml version="1.0" encoding="UTF-8" standalone="no"?>
<!DOCTYPE svg PUBLIC "-//W3C//DTD SVG 1.1//EN"
 "http://www.w3.org/Graphics/SVG/1.1/DTD/svg11.dtd">
<!-- Generated by graphviz version 2.36.0 (20140111.2315)
 -->
<!-- Title: TGUINeedle_WndPPM Pages: 1 -->
<svg width="915pt" height="1114pt"
 viewBox="0.00 0.00 915.00 1114.00" xmlns="http://www.w3.org/2000/svg" xmlns:xlink="http://www.w3.org/1999/xlink">
<g id="graph0" class="graph" transform="scale(1 1) rotate(0) translate(4 1110)">
<title>TGUINeedle_WndPPM</title>
<polygon fill="white" stroke="none" points="-4,4 -4,-1110 911,-1110 911,4 -4,4"/>
<!-- Node1 -->
<g id="node1" class="node"><title>Node1</title>
<polygon fill="#bfbfbf" stroke="black" points="170,-464.5 170,-631.5 304,-631.5 304,-464.5 170,-464.5"/>
<text text-anchor="middle" x="237" y="-619.5" font-family="Helvetica,sans-Serif" font-size="10.00">TGUINeedle_WndPPM</text>
<polyline fill="none" stroke="black" points="170,-612.5 304,-612.5 "/>
<text text-anchor="start" x="178" y="-600.5" font-family="Helvetica,sans-Serif" font-size="10.00">&#45; fMeterL</text>
<text text-anchor="start" x="178" y="-589.5" font-family="Helvetica,sans-Serif" font-size="10.00">&#45; fMeterR</text>
<text text-anchor="start" x="178" y="-578.5" font-family="Helvetica,sans-Serif" font-size="10.00">&#45; gkIChanL</text>
<text text-anchor="start" x="178" y="-567.5" font-family="Helvetica,sans-Serif" font-size="10.00">&#45; gkIChanR</text>
<text text-anchor="start" x="178" y="-556.5" font-family="Helvetica,sans-Serif" font-size="10.00">&#45; serialVersionUID</text>
<polyline fill="none" stroke="black" points="170,-549.5 304,-549.5 "/>
<text text-anchor="start" x="178" y="-537.5" font-family="Helvetica,sans-Serif" font-size="10.00">+ TGUINeedle_WndPPM()</text>
<text text-anchor="start" x="178" y="-526.5" font-family="Helvetica,sans-Serif" font-size="10.00">+ SetClipping()</text>
<text text-anchor="start" x="178" y="-515.5" font-family="Helvetica,sans-Serif" font-size="10.00">+ SetLevel()</text>
<text text-anchor="start" x="178" y="-504.5" font-family="Helvetica,sans-Serif" font-size="10.00">+ Terminate()</text>
<text text-anchor="start" x="178" y="-493.5" font-family="Helvetica,sans-Serif" font-size="10.00">~ _SetClipping()</text>
<text text-anchor="start" x="178" y="-482.5" font-family="Helvetica,sans-Serif" font-size="10.00">&#45; _OnWindowClosing()</text>
<text text-anchor="start" x="178" y="-471.5" font-family="Helvetica,sans-Serif" font-size="10.00">&#45; initComponents()</text>
</g>
<!-- Node3 -->
<g id="node3" class="node"><title>Node3</title>
<g id="a_node3"><a xlink:href="../../d2/d93/classppm__java_1_1frontend_1_1gui_1_1needle_1_1_t_g_u_i_needle___timer_clipping.html" target="_top" xlink:title="A monostable timer for a clipping LED on our PPM GUI. ">
<polygon fill="white" stroke="black" points="58,-194.5 58,-405.5 210,-405.5 210,-194.5 58,-194.5"/>
<text text-anchor="middle" x="134" y="-393.5" font-family="Helvetica,sans-Serif" font-size="10.00">TGUINeedle_TimerClipping</text>
<polyline fill="none" stroke="black" points="58,-386.5 210,-386.5 "/>
<text text-anchor="start" x="66" y="-374.5" font-family="Helvetica,sans-Serif" font-size="10.00">&#45; fChannel</text>
<text text-anchor="start" x="66" y="-363.5" font-family="Helvetica,sans-Serif" font-size="10.00">&#45; fState</text>
<text text-anchor="start" x="66" y="-352.5" font-family="Helvetica,sans-Serif" font-size="10.00">&#45; fTLast</text>
<text text-anchor="start" x="66" y="-341.5" font-family="Helvetica,sans-Serif" font-size="10.00">&#45; gkIntervalLoop</text>
<text text-anchor="start" x="66" y="-330.5" font-family="Helvetica,sans-Serif" font-size="10.00">&#45; gkIntervalWait</text>
<text text-anchor="start" x="66" y="-319.5" font-family="Helvetica,sans-Serif" font-size="10.00">&#45; gkStateClear</text>
<text text-anchor="start" x="66" y="-308.5" font-family="Helvetica,sans-Serif" font-size="10.00">&#45; gkStateErr</text>
<text text-anchor="start" x="66" y="-297.5" font-family="Helvetica,sans-Serif" font-size="10.00">&#45; gkStateTerm</text>
<text text-anchor="start" x="66" y="-286.5" font-family="Helvetica,sans-Serif" font-size="10.00">&#45; gkStateWarn</text>
<polyline fill="none" stroke="black" points="58,-279.5 210,-279.5 "/>
<text text-anchor="start" x="66" y="-267.5" font-family="Helvetica,sans-Serif" font-size="10.00">+ TGUINeedle_TimerClipping()</text>
<text text-anchor="start" x="66" y="-256.5" font-family="Helvetica,sans-Serif" font-size="10.00">+ run()</text>
<text text-anchor="start" x="66" y="-245.5" font-family="Helvetica,sans-Serif" font-size="10.00">+ SetClip()</text>
<text text-anchor="start" x="66" y="-234.5" font-family="Helvetica,sans-Serif" font-size="10.00">+ Terminate()</text>
<text text-anchor="start" x="66" y="-223.5" font-family="Helvetica,sans-Serif" font-size="10.00">&#45; _DoTransition()</text>
<text text-anchor="start" x="66" y="-212.5" font-family="Helvetica,sans-Serif" font-size="10.00">&#45; _SetLED()</text>
<text text-anchor="start" x="66" y="-201.5" font-family="Helvetica,sans-Serif" font-size="10.00">&#45; _TryReset()</text>
</a>
</g>
</g>
<!-- Node1&#45;&gt;Node3 -->
<g id="edge5" class="edge"><title>Node1&#45;&gt;Node3</title>
<path fill="none" stroke="#404040" d="M169.939,-478.591C162.544,-468.28 155.923,-457.295 151,-446 147.033,-436.898 143.882,-427.187 141.39,-417.266"/>
<polygon fill="none" stroke="#404040" points="141.388,-417.255 136.17,-412.278 138.758,-405.547 143.976,-410.525 141.388,-417.255"/>
<text text-anchor="middle" x="166.5" y="-432.5" font-family="Helvetica,sans-Serif" font-size="10.00"> &#45;fHost</text>
</g>
<!-- Node6 -->
<g id="node6" class="node"><title>Node6</title>
<g id="a_node6"><a xlink:href="../../d5/d13/classppm__java_1_1frontend_1_1gui_1_1needle_1_1_t_g_u_i_needle___surrogate.html" target="_top" xlink:title="The UI controller. ">
<polygon fill="white" stroke="black" points="323.5,-222 323.5,-378 454.5,-378 454.5,-222 323.5,-222"/>
<text text-anchor="middle" x="389" y="-366" font-family="Helvetica,sans-Serif" font-size="10.00">TGUINeedle_Surrogate</text>
<polyline fill="none" stroke="black" points="323.5,-359 454.5,-359 "/>
<text text-anchor="start" x="331.5" y="-347" font-family="Helvetica,sans-Serif" font-size="10.00">&#45; gkLvlClip</text>
<text text-anchor="start" x="331.5" y="-336" font-family="Helvetica,sans-Serif" font-size="10.00">&#45; gkLvlWarn</text>
<polyline fill="none" stroke="black" points="323.5,-329 454.5,-329 "/>
<text text-anchor="start" x="331.5" y="-317" font-family="Helvetica,sans-Serif" font-size="10.00">+ CreatePort_In()</text>
<text text-anchor="start" x="331.5" y="-306" font-family="Helvetica,sans-Serif" font-size="10.00">+ Start()</text>
<text text-anchor="start" x="331.5" y="-295" font-family="Helvetica,sans-Serif" font-size="10.00">+ StatsGet()</text>
<text text-anchor="start" x="331.5" y="-284" font-family="Helvetica,sans-Serif" font-size="10.00">+ Stop()</text>
<text text-anchor="start" x="331.5" y="-273" font-family="Helvetica,sans-Serif" font-size="10.00">+ CreateInstance()</text>
<text text-anchor="start" x="331.5" y="-262" font-family="Helvetica,sans-Serif" font-size="10.00">~ OnTerminate()</text>
<text text-anchor="start" x="331.5" y="-251" font-family="Helvetica,sans-Serif" font-size="10.00">~ SetLevel()</text>
<text text-anchor="start" x="331.5" y="-240" font-family="Helvetica,sans-Serif" font-size="10.00"># _Register()</text>
<text text-anchor="start" x="331.5" y="-229" font-family="Helvetica,sans-Serif" font-size="10.00">&#45; TGUINeedle_Surrogate()</text>
</a>
</g>
</g>
<!-- Node1&#45;&gt;Node6 -->
<g id="edge21" class="edge"><title>Node1&#45;&gt;Node6</title>
<path fill="none" stroke="#404040" d="M304.169,-473.887C311.257,-464.785 318.041,-455.375 324,-446 335.249,-428.305 345.547,-408.335 354.469,-389.002"/>
<polygon fill="none" stroke="#404040" points="354.484,-388.969 353.306,-381.855 359.42,-378.031 360.598,-385.145 354.484,-388.969"/>
<text text-anchor="middle" x="350" y="-432.5" font-family="Helvetica,sans-Serif" font-size="10.00"> &#45;fGUI</text>
</g>
<!-- Node2 -->
<g id="node2" class="node"><title>Node2</title>
<polygon fill="white" stroke="#bfbfbf" points="254,-757.5 254,-814.5 304,-814.5 304,-757.5 254,-757.5"/>
<text text-anchor="middle" x="279" y="-802.5" font-family="Helvetica,sans-Serif" font-size="10.00">JFrame</text>
<polyline fill="none" stroke="#bfbfbf" points="254,-795.5 304,-795.5 "/>
<text text-anchor="middle" x="279" y="-783.5" font-family="Helvetica,sans-Serif" font-size="10.00"> </text>
<polyline fill="none" stroke="#bfbfbf" points="254,-776.5 304,-776.5 "/>
<text text-anchor="middle" x="279" y="-764.5" font-family="Helvetica,sans-Serif" font-size="10.00"> </text>
</g>
<!-- Node2&#45;&gt;Node1 -->
<g id="edge1" class="edge"><title>Node2&#45;&gt;Node1</title>
<path fill="none" stroke="midnightblue" d="M276.773,-747.144C274.761,-719.946 271.145,-682.499 265,-650 263.867,-644.01 262.552,-637.859 261.12,-631.69"/>
<polygon fill="none" stroke="midnightblue" points="273.301,-747.667 277.491,-757.398 280.284,-747.178 273.301,-747.667"/>
</g>
<!-- Node3&#45;&gt;Node1 -->
<g id="edge2" class="edge"><title>Node3&#45;&gt;Node1</title>
<path fill="none" stroke="#404040" d="M177.822,-405.662C184.435,-421.457 191.222,-437.665 197.731,-453.213"/>
<polygon fill="none" stroke="#404040" points="197.781,-453.332 203.788,-457.322 202.416,-464.401 196.409,-460.412 197.781,-453.332"/>
<text text-anchor="middle" x="212" y="-438" font-family="Helvetica,sans-Serif" font-size="10.00"> &#45;fTimerL</text>
<text text-anchor="middle" x="212" y="-427" font-family="Helvetica,sans-Serif" font-size="10.00">&#45;fTimerR</text>
</g>
<!-- Node4 -->
<g id="node4" class="node"><title>Node4</title>
<polygon fill="white" stroke="#bfbfbf" points="94.5,-519.5 94.5,-576.5 141.5,-576.5 141.5,-519.5 94.5,-519.5"/>
<text text-anchor="middle" x="118" y="-564.5" font-family="Helvetica,sans-Serif" font-size="10.00">Thread</text>
<polyline fill="none" stroke="#bfbfbf" points="94.5,-557.5 141.5,-557.5 "/>
<text text-anchor="middle" x="118" y="-545.5" font-family="Helvetica,sans-Serif" font-size="10.00"> </text>
<polyline fill="none" stroke="#bfbfbf" points="94.5,-538.5 141.5,-538.5 "/>
<text text-anchor="middle" x="118" y="-526.5" font-family="Helvetica,sans-Serif" font-size="10.00"> </text>
</g>
<!-- Node4&#45;&gt;Node3 -->
<g id="edge3" class="edge"><title>Node4&#45;&gt;Node3</title>
<path fill="none" stroke="midnightblue" d="M120.456,-509.231C122.257,-481.546 124.795,-442.529 127.188,-405.741"/>
<polygon fill="none" stroke="midnightblue" points="116.961,-509.053 119.804,-519.259 123.946,-509.507 116.961,-509.053"/>
</g>
<!-- Node5 -->
<g id="node5" class="node"><title>Node5</title>
<polygon fill="white" stroke="#bfbfbf" points="-0.5,-519.5 -0.5,-576.5 76.5,-576.5 76.5,-519.5 -0.5,-519.5"/>
<text text-anchor="middle" x="38" y="-564.5" font-family="Helvetica,sans-Serif" font-size="10.00">AtomicInteger</text>
<polyline fill="none" stroke="#bfbfbf" points="-0.5,-557.5 76.5,-557.5 "/>
<text text-anchor="middle" x="38" y="-545.5" font-family="Helvetica,sans-Serif" font-size="10.00"> </text>
<polyline fill="none" stroke="#bfbfbf" points="-0.5,-538.5 76.5,-538.5 "/>
<text text-anchor="middle" x="38" y="-526.5" font-family="Helvetica,sans-Serif" font-size="10.00"> </text>
</g>
<!-- Node5&#45;&gt;Node3 -->
<g id="edge4" class="edge"><title>Node5&#45;&gt;Node3</title>
<path fill="none" stroke="#404040" d="M45.3608,-519.263C52.327,-494.081 63.5493,-456.088 76,-424 76.9174,-421.636 77.86,-419.253 78.8239,-416.858"/>
<polygon fill="none" stroke="#404040" points="78.9003,-416.673 77.4913,-409.601 83.4774,-405.58 84.8865,-412.652 78.9003,-416.673"/>
<text text-anchor="middle" x="99" y="-432.5" font-family="Helvetica,sans-Serif" font-size="10.00"> &#45;fRequest</text>
</g>
<!-- Node6&#45;&gt;Node1 -->
<g id="edge6" class="edge"><title>Node6&#45;&gt;Node1</title>
<path fill="none" stroke="#404040" d="M323.464,-355.853C303.47,-375.525 283.076,-399.058 269,-424 263.918,-433.005 259.624,-442.835 256,-452.887"/>
<polygon fill="none" stroke="#404040" points="255.991,-452.915 257.883,-459.874 252.187,-464.297 250.295,-457.338 255.991,-452.915"/>
<text text-anchor="middle" x="296.5" y="-432.5" font-family="Helvetica,sans-Serif" font-size="10.00"> &#45;fConnector</text>
</g>
<!-- Node6&#45;&gt;Node6 -->
<g id="edge15" class="edge"><title>Node6&#45;&gt;Node6</title>
<path fill="none" stroke="#404040" d="M454.753,-322.338C465.008,-318.999 472,-311.553 472,-300 472,-293.141 469.535,-287.729 465.386,-283.765"/>
<polygon fill="none" stroke="#404040" points="465.16,-283.635 457.965,-284.118 454.753,-277.662 461.948,-277.179 465.16,-283.635"/>
<text text-anchor="middle" x="487" y="-297.5" font-family="Helvetica,sans-Serif" font-size="10.00"> &#45;gGUI</text>
</g>
<!-- Node15 -->
<g id="node15" class="node"><title>Node15</title>
<g id="a_node15"><a xlink:href="../../dc/d65/classppm__java_1_1frontend_1_1gui_1_1needle_1_1_t_g_u_i_needle___surrogate___stats.html" target="_top" xlink:title="Combined runtime statistics for all channels. ">
<polygon fill="white" stroke="black" points="500,-0.5 500,-145.5 628,-145.5 628,-0.5 500,-0.5"/>
<text text-anchor="start" x="508" y="-133.5" font-family="Helvetica,sans-Serif" font-size="10.00">TGUINeedle_Surrogate</text>
<text text-anchor="middle" x="564" y="-122.5" font-family="Helvetica,sans-Serif" font-size="10.00">_Stats</text>
<polyline fill="none" stroke="black" points="500,-115.5 628,-115.5 "/>
<text text-anchor="start" x="508" y="-103.5" font-family="Helvetica,sans-Serif" font-size="10.00">&#45; fT0</text>
<polyline fill="none" stroke="black" points="500,-96.5 628,-96.5 "/>
<text text-anchor="start" x="508" y="-84.5" font-family="Helvetica,sans-Serif" font-size="10.00">+ TGUINeedle_Surrogate</text>
<text text-anchor="start" x="508" y="-73.5" font-family="Helvetica,sans-Serif" font-size="10.00">_Stats()</text>
<text text-anchor="start" x="508" y="-62.5" font-family="Helvetica,sans-Serif" font-size="10.00">+ GetDumpStr()</text>
<text text-anchor="start" x="508" y="-51.5" font-family="Helvetica,sans-Serif" font-size="10.00">~ AddChannel()</text>
<text text-anchor="start" x="508" y="-40.5" font-family="Helvetica,sans-Serif" font-size="10.00">~ OnCycleTick()</text>
<text text-anchor="start" x="508" y="-29.5" font-family="Helvetica,sans-Serif" font-size="10.00">~ SetCalcSection()</text>
<text text-anchor="start" x="508" y="-18.5" font-family="Helvetica,sans-Serif" font-size="10.00">~ SetDBValue()</text>
<text text-anchor="start" x="508" y="-7.5" font-family="Helvetica,sans-Serif" font-size="10.00">~ SetDisplayValue()</text>
</a>
</g>
</g>
<!-- Node6&#45;&gt;Node15 -->
<g id="edge19" class="edge"><title>Node6&#45;&gt;Node15</title>
<path fill="none" stroke="#404040" d="M448.98,-221.883C465.701,-200.385 483.914,-176.967 500.813,-155.24"/>
<polygon fill="none" stroke="#404040" points="500.853,-155.189 501.379,-147.997 508.22,-145.717 507.694,-152.909 500.853,-155.189"/>
<text text-anchor="middle" x="507.5" y="-167.5" font-family="Helvetica,sans-Serif" font-size="10.00"> &#45;fHost</text>
</g>
<!-- Node7 -->
<g id="node7" class="node"><title>Node7</title>
<g id="a_node7"><a xlink:href="../../da/d04/classppm__java_1_1typelib_1_1_v_frontend.html" target="_top" xlink:title="Base class for a front end. ">
<polygon fill="white" stroke="black" points="434,-508.5 434,-587.5 534,-587.5 534,-508.5 434,-508.5"/>
<text text-anchor="middle" x="484" y="-575.5" font-family="Helvetica,sans-Serif" font-size="10.00">VFrontend</text>
<polyline fill="none" stroke="black" points="434,-568.5 534,-568.5 "/>
<text text-anchor="middle" x="484" y="-556.5" font-family="Helvetica,sans-Serif" font-size="10.00"> </text>
<polyline fill="none" stroke="black" points="434,-549.5 534,-549.5 "/>
<text text-anchor="start" x="442" y="-537.5" font-family="Helvetica,sans-Serif" font-size="10.00">+ VFrontend()</text>
<text text-anchor="start" x="442" y="-526.5" font-family="Helvetica,sans-Serif" font-size="10.00">+ CreatePort_Out()</text>
<text text-anchor="start" x="442" y="-515.5" font-family="Helvetica,sans-Serif" font-size="10.00"># _OnTerminate()</text>
</a>
</g>
</g>
<!-- Node7&#45;&gt;Node6 -->
<g id="edge7" class="edge"><title>Node7&#45;&gt;Node6</title>
<path fill="none" stroke="midnightblue" d="M465.448,-498.96C452.19,-464.63 434.07,-417.707 418.798,-378.162"/>
<polygon fill="none" stroke="midnightblue" points="462.184,-500.224 469.052,-508.292 468.714,-497.702 462.184,-500.224"/>
</g>
<!-- Node8 -->
<g id="node8" class="node"><title>Node8</title>
<g id="a_node8"><a xlink:href="../../d5/d6a/classppm__java_1_1typelib_1_1_v_audio_processor.html" target="_top" xlink:title="Base class for all modules processing audio samples. ">
<polygon fill="white" stroke="black" points="430.5,-702.5 430.5,-869.5 537.5,-869.5 537.5,-702.5 430.5,-702.5"/>
<text text-anchor="middle" x="484" y="-857.5" font-family="Helvetica,sans-Serif" font-size="10.00">VAudioProcessor</text>
<polyline fill="none" stroke="black" points="430.5,-850.5 537.5,-850.5 "/>
<text text-anchor="middle" x="484" y="-838.5" font-family="Helvetica,sans-Serif" font-size="10.00"> </text>
<polyline fill="none" stroke="black" points="430.5,-831.5 537.5,-831.5 "/>
<text text-anchor="start" x="438.5" y="-819.5" font-family="Helvetica,sans-Serif" font-size="10.00">+ VAudioProcessor()</text>
<text text-anchor="start" x="438.5" y="-808.5" font-family="Helvetica,sans-Serif" font-size="10.00">+ CreatePort_In()</text>
<text text-anchor="start" x="438.5" y="-797.5" font-family="Helvetica,sans-Serif" font-size="10.00">+ CreatePort_Out()</text>
<text text-anchor="start" x="438.5" y="-786.5" font-family="Helvetica,sans-Serif" font-size="10.00">+ GetNumPortsIn()</text>
<text text-anchor="start" x="438.5" y="-775.5" font-family="Helvetica,sans-Serif" font-size="10.00">+ GetNumPortsOut()</text>
<text text-anchor="start" x="438.5" y="-764.5" font-family="Helvetica,sans-Serif" font-size="10.00">+ GetPortIn()</text>
<text text-anchor="start" x="438.5" y="-753.5" font-family="Helvetica,sans-Serif" font-size="10.00">+ GetPortIn()</text>
<text text-anchor="start" x="438.5" y="-742.5" font-family="Helvetica,sans-Serif" font-size="10.00">+ GetPortOut()</text>
<text text-anchor="start" x="438.5" y="-731.5" font-family="Helvetica,sans-Serif" font-size="10.00">+ GetPortOut()</text>
<text text-anchor="start" x="438.5" y="-720.5" font-family="Helvetica,sans-Serif" font-size="10.00"># AddPortIn()</text>
<text text-anchor="start" x="438.5" y="-709.5" font-family="Helvetica,sans-Serif" font-size="10.00"># AddPortOut()</text>
</a>
</g>
</g>
<!-- Node8&#45;&gt;Node7 -->
<g id="edge8" class="edge"><title>Node8&#45;&gt;Node7</title>
<path fill="none" stroke="midnightblue" d="M484,-692.269C484,-655.782 484,-615.912 484,-587.517"/>
<polygon fill="none" stroke="midnightblue" points="480.5,-692.459 484,-702.459 487.5,-692.459 480.5,-692.459"/>
</g>
<!-- Node9 -->
<g id="node9" class="node"><title>Node9</title>
<g id="a_node9"><a xlink:href="../../d1/db3/classppm__java_1_1typelib_1_1_v_audio_object.html" target="_top" xlink:title="Base class for all browseable audio objects. ">
<polygon fill="white" stroke="black" points="299,-924.5 299,-981.5 391,-981.5 391,-924.5 299,-924.5"/>
<text text-anchor="middle" x="345" y="-969.5" font-family="Helvetica,sans-Serif" font-size="10.00">VAudioObject</text>
<polyline fill="none" stroke="black" points="299,-962.5 391,-962.5 "/>
<text text-anchor="middle" x="345" y="-950.5" font-family="Helvetica,sans-Serif" font-size="10.00"> </text>
<polyline fill="none" stroke="black" points="299,-943.5 391,-943.5 "/>
<text text-anchor="start" x="307" y="-931.5" font-family="Helvetica,sans-Serif" font-size="10.00">+ VAudioObject()</text>
</a>
</g>
</g>
<!-- Node9&#45;&gt;Node8 -->
<g id="edge9" class="edge"><title>Node9&#45;&gt;Node8</title>
<path fill="none" stroke="midnightblue" d="M374.909,-916.496C391.063,-897.321 411.498,-873.064 430.303,-850.741"/>
<polygon fill="none" stroke="midnightblue" points="372.032,-914.48 368.265,-924.383 377.385,-918.99 372.032,-914.48"/>
</g>
<!-- Node10 -->
<g id="node10" class="node"><title>Node10</title>
<g id="a_node10"><a xlink:href="../../de/dd1/classppm__java_1_1typelib_1_1_v_browseable.html" target="_top" xlink:title="Base class for all browseable objects. ">
<polygon fill="white" stroke="black" points="300.5,-1026.5 300.5,-1105.5 389.5,-1105.5 389.5,-1026.5 300.5,-1026.5"/>
<text text-anchor="middle" x="345" y="-1093.5" font-family="Helvetica,sans-Serif" font-size="10.00">VBrowseable</text>
<polyline fill="none" stroke="black" points="300.5,-1086.5 389.5,-1086.5 "/>
<text text-anchor="start" x="308.5" y="-1074.5" font-family="Helvetica,sans-Serif" font-size="10.00">&#45; fID</text>
<polyline fill="none" stroke="black" points="300.5,-1067.5 389.5,-1067.5 "/>
<text text-anchor="start" x="308.5" y="-1055.5" font-family="Helvetica,sans-Serif" font-size="10.00">+ VBrowseable()</text>
<text text-anchor="start" x="308.5" y="-1044.5" font-family="Helvetica,sans-Serif" font-size="10.00">+ GetID()</text>
<text text-anchor="start" x="308.5" y="-1033.5" font-family="Helvetica,sans-Serif" font-size="10.00"># _Register()</text>
</a>
</g>
</g>
<!-- Node10&#45;&gt;Node9 -->
<g id="edge10" class="edge"><title>Node10&#45;&gt;Node9</title>
<path fill="none" stroke="midnightblue" d="M345,-1016.23C345,-1004.36 345,-992.085 345,-981.601"/>
<polygon fill="none" stroke="midnightblue" points="341.5,-1016.49 345,-1026.49 348.5,-1016.49 341.5,-1016.49"/>
</g>
<!-- Node11 -->
<g id="node11" class="node"><title>Node11</title>
<polygon fill="white" stroke="#bfbfbf" points="409,-919 409,-987 559,-987 559,-919 409,-919"/>
<text text-anchor="start" x="417" y="-975" font-family="Helvetica,sans-Serif" font-size="10.00">TArrayMap&lt; ppm_java.typelib.</text>
<text text-anchor="middle" x="484" y="-964" font-family="Helvetica,sans-Serif" font-size="10.00">VAudioPort_Output &gt;</text>
<polyline fill="none" stroke="#bfbfbf" points="409,-957 559,-957 "/>
<text text-anchor="middle" x="484" y="-945" font-family="Helvetica,sans-Serif" font-size="10.00"> </text>
<polyline fill="none" stroke="#bfbfbf" points="409,-938 559,-938 "/>
<text text-anchor="middle" x="484" y="-926" font-family="Helvetica,sans-Serif" font-size="10.00"> </text>
</g>
<!-- Node11&#45;&gt;Node8 -->
<g id="edge11" class="edge"><title>Node11&#45;&gt;Node8</title>
<path fill="none" stroke="#404040" d="M484,-918.61C484,-907.723 484,-895.043 484,-881.934"/>
<polygon fill="none" stroke="#404040" points="484,-881.813 480,-875.813 484,-869.813 488,-875.813 484,-881.813"/>
<text text-anchor="middle" x="508.5" y="-891.5" font-family="Helvetica,sans-Serif" font-size="10.00"> &#45;fPortsOut</text>
</g>
<!-- Node12 -->
<g id="node12" class="node"><title>Node12</title>
<polygon fill="white" stroke="#bfbfbf" points="577,-919 577,-987 727,-987 727,-919 577,-919"/>
<text text-anchor="start" x="585" y="-975" font-family="Helvetica,sans-Serif" font-size="10.00">TArrayMap&lt; ppm_java.typelib.</text>
<text text-anchor="middle" x="652" y="-964" font-family="Helvetica,sans-Serif" font-size="10.00">VAudioPort_Input &gt;</text>
<polyline fill="none" stroke="#bfbfbf" points="577,-957 727,-957 "/>
<text text-anchor="middle" x="652" y="-945" font-family="Helvetica,sans-Serif" font-size="10.00"> </text>
<polyline fill="none" stroke="#bfbfbf" points="577,-938 727,-938 "/>
<text text-anchor="middle" x="652" y="-926" font-family="Helvetica,sans-Serif" font-size="10.00"> </text>
</g>
<!-- Node12&#45;&gt;Node8 -->
<g id="edge12" class="edge"><title>Node12&#45;&gt;Node8</title>
<path fill="none" stroke="#404040" d="M618.003,-918.61C597.509,-898.482 570.771,-872.221 546.575,-848.457"/>
<polygon fill="none" stroke="#404040" points="546.353,-848.24 539.269,-846.889 537.792,-839.831 544.875,-841.182 546.353,-848.24"/>
<text text-anchor="middle" x="617.5" y="-891.5" font-family="Helvetica,sans-Serif" font-size="10.00"> &#45;fPortsIn</text>
</g>
<!-- Node13 -->
<g id="node13" class="node"><title>Node13</title>
<g id="a_node13"><a xlink:href="../../db/d44/interfaceppm__java_1_1typelib_1_1_i_controllable.html" target="_top" xlink:title="A module or construct which can receive some low level control commands (start/stop etc...">
<polygon fill="white" stroke="black" points="552.5,-514 552.5,-582 623.5,-582 623.5,-514 552.5,-514"/>
<text text-anchor="middle" x="588" y="-570" font-family="Helvetica,sans-Serif" font-size="10.00">IControllable</text>
<polyline fill="none" stroke="black" points="552.5,-563 623.5,-563 "/>
<text text-anchor="middle" x="588" y="-551" font-family="Helvetica,sans-Serif" font-size="10.00"> </text>
<polyline fill="none" stroke="black" points="552.5,-544 623.5,-544 "/>
<text text-anchor="start" x="560.5" y="-532" font-family="Helvetica,sans-Serif" font-size="10.00">+ Start()</text>
<text text-anchor="start" x="560.5" y="-521" font-family="Helvetica,sans-Serif" font-size="10.00">+ Stop()</text>
</a>
</g>
</g>
<!-- Node13&#45;&gt;Node6 -->
<g id="edge13" class="edge"><title>Node13&#45;&gt;Node6</title>
<path fill="none" stroke="midnightblue" d="M567.845,-504.797C560.699,-491.311 552.141,-476.619 543,-464 516.964,-428.058 483.577,-391.803 454.55,-362.642"/>
<polygon fill="none" stroke="midnightblue" points="564.852,-506.628 572.557,-513.9 571.068,-503.41 564.852,-506.628"/>
</g>
<!-- Node14 -->
<g id="node14" class="node"><title>Node14</title>
<g id="a_node14"><a xlink:href="../../dc/dc0/interfaceppm__java_1_1typelib_1_1_i_stat_enabled.html" target="_top" xlink:title="Interface for an object that supports runtime statistics. ">
<polygon fill="white" stroke="black" points="342.5,-519.5 342.5,-576.5 415.5,-576.5 415.5,-519.5 342.5,-519.5"/>
<text text-anchor="middle" x="379" y="-564.5" font-family="Helvetica,sans-Serif" font-size="10.00">IStatEnabled</text>
<polyline fill="none" stroke="black" points="342.5,-557.5 415.5,-557.5 "/>
<text text-anchor="middle" x="379" y="-545.5" font-family="Helvetica,sans-Serif" font-size="10.00"> </text>
<polyline fill="none" stroke="black" points="342.5,-538.5 415.5,-538.5 "/>
<text text-anchor="start" x="350.5" y="-526.5" font-family="Helvetica,sans-Serif" font-size="10.00">+ StatsGet()</text>
</a>
</g>
</g>
<!-- Node14&#45;&gt;Node6 -->
<g id="edge14" class="edge"><title>Node14&#45;&gt;Node6</title>
<path fill="none" stroke="midnightblue" d="M380.542,-509.07C381.955,-474.303 384.091,-421.765 385.863,-378.181"/>
<polygon fill="none" stroke="midnightblue" points="377.037,-509.125 380.128,-519.259 384.031,-509.409 377.037,-509.125"/>
</g>
<!-- Node15&#45;&gt;Node6 -->
<g id="edge16" class="edge"><title>Node15&#45;&gt;Node6</title>
<path fill="none" stroke="#404040" d="M499.948,-115.298C481.823,-129.179 463.19,-145.809 449,-164 438.105,-177.966 428.722,-194.222 420.827,-210.516"/>
<polygon fill="none" stroke="#404040" points="420.653,-210.89 421.754,-218.017 415.6,-221.774 414.498,-214.648 420.653,-210.89"/>
<text text-anchor="middle" x="463" y="-167.5" font-family="Helvetica,sans-Serif" font-size="10.00"> &#45;fStat</text>
</g>
<!-- Node16 -->
<g id="node16" class="node"><title>Node16</title>
<g id="a_node16"><a xlink:href="../../d7/d5a/interfaceppm__java_1_1typelib_1_1_i_stats.html" target="_top" xlink:title="Interface for a statistics record. ">
<polygon fill="white" stroke="black" points="521,-271.5 521,-328.5 607,-328.5 607,-271.5 521,-271.5"/>
<text text-anchor="middle" x="564" y="-316.5" font-family="Helvetica,sans-Serif" font-size="10.00">IStats</text>
<polyline fill="none" stroke="black" points="521,-309.5 607,-309.5 "/>
<text text-anchor="middle" x="564" y="-297.5" font-family="Helvetica,sans-Serif" font-size="10.00"> </text>
<polyline fill="none" stroke="black" points="521,-290.5 607,-290.5 "/>
<text text-anchor="start" x="529" y="-278.5" font-family="Helvetica,sans-Serif" font-size="10.00">+ GetDumpStr()</text>
</a>
</g>
</g>
<!-- Node16&#45;&gt;Node15 -->
<g id="edge17" class="edge"><title>Node16&#45;&gt;Node15</title>
<path fill="none" stroke="midnightblue" d="M564,-261.327C564,-229.887 564,-184.183 564,-145.791"/>
<polygon fill="none" stroke="midnightblue" points="560.5,-261.411 564,-271.411 567.5,-261.411 560.5,-261.411"/>
</g>
<!-- Node17 -->
<g id="node17" class="node"><title>Node17</title>
<polygon fill="white" stroke="#bfbfbf" points="625.5,-266 625.5,-334 820.5,-334 820.5,-266 625.5,-266"/>
<text text-anchor="start" x="633.5" y="-322" font-family="Helvetica,sans-Serif" font-size="10.00">ArrayList&lt; ppm_java.frontend.gui.needle.</text>
<text text-anchor="middle" x="723" y="-311" font-family="Helvetica,sans-Serif" font-size="10.00">TGUINeedle_Surrogate_Stats_Record &gt;</text>
<polyline fill="none" stroke="#bfbfbf" points="625.5,-304 820.5,-304 "/>
<text text-anchor="middle" x="723" y="-292" font-family="Helvetica,sans-Serif" font-size="10.00"> </text>
<polyline fill="none" stroke="#bfbfbf" points="625.5,-285 820.5,-285 "/>
<text text-anchor="middle" x="723" y="-273" font-family="Helvetica,sans-Serif" font-size="10.00"> </text>
</g>
<!-- Node17&#45;&gt;Node15 -->
<g id="edge18" class="edge"><title>Node17&#45;&gt;Node15</title>
<path fill="none" stroke="#404040" d="M699.539,-265.8C679.16,-236.962 648.784,-193.977 621.951,-156.006"/>
<polygon fill="none" stroke="#404040" points="621.777,-155.76 615.048,-153.169 614.852,-145.96 621.581,-148.552 621.777,-155.76"/>
<text text-anchor="middle" x="667.5" y="-167.5" font-family="Helvetica,sans-Serif" font-size="10.00"> &#45;fStatChannels</text>
</g>
<!-- Node18 -->
<g id="node18" class="node"><title>Node18</title>
<polygon fill="white" stroke="#bfbfbf" points="839,-271.5 839,-328.5 907,-328.5 907,-271.5 839,-271.5"/>
<text text-anchor="middle" x="873" y="-316.5" font-family="Helvetica,sans-Serif" font-size="10.00">AtomicLong</text>
<polyline fill="none" stroke="#bfbfbf" points="839,-309.5 907,-309.5 "/>
<text text-anchor="middle" x="873" y="-297.5" font-family="Helvetica,sans-Serif" font-size="10.00"> </text>
<polyline fill="none" stroke="#bfbfbf" points="839,-290.5 907,-290.5 "/>
<text text-anchor="middle" x="873" y="-278.5" font-family="Helvetica,sans-Serif" font-size="10.00"> </text>
</g>
<!-- Node18&#45;&gt;Node15 -->
<g id="edge20" class="edge"><title>Node18&#45;&gt;Node15</title>
<path fill="none" stroke="#404040" d="M867.364,-271.299C861.372,-248.087 849.802,-215.401 829,-194 777.461,-140.976 698.193,-109.352 639.773,-91.9933"/>
<polygon fill="none" stroke="#404040" points="639.543,-91.9271 632.67,-94.1106 628.012,-88.6064 634.884,-86.423 639.543,-91.9271"/>
<text text-anchor="middle" x="833.5" y="-167.5" font-family="Helvetica,sans-Serif" font-size="10.00"> &#45;fTimeCycle</text>
</g>
<!-- Node19 -->
<g id="node19" class="node"><title>Node19</title>
<polygon fill="white" stroke="#bfbfbf" points="167,-757.5 167,-814.5 223,-814.5 223,-757.5 167,-757.5"/>
<text text-anchor="middle" x="195" y="-802.5" font-family="Helvetica,sans-Serif" font-size="10.00">LedColor</text>
<polyline fill="none" stroke="#bfbfbf" points="167,-795.5 223,-795.5 "/>
<text text-anchor="middle" x="195" y="-783.5" font-family="Helvetica,sans-Serif" font-size="10.00"> </text>
<polyline fill="none" stroke="#bfbfbf" points="167,-776.5 223,-776.5 "/>
<text text-anchor="middle" x="195" y="-764.5" font-family="Helvetica,sans-Serif" font-size="10.00"> </text>
</g>
<!-- Node19&#45;&gt;Node1 -->
<g id="edge22" class="edge"><title>Node19&#45;&gt;Node1</title>
<path fill="none" stroke="#404040" d="M190.694,-757.245C187.281,-729.707 184.245,-686.459 192,-650 192.487,-647.712 193.029,-645.412 193.621,-643.108"/>
<polygon fill="none" stroke="#404040" points="193.622,-643.103 191.449,-636.227 196.96,-631.576 199.133,-638.452 193.622,-643.103"/>
<text text-anchor="middle" x="226.5" y="-675.5" font-family="Helvetica,sans-Serif" font-size="10.00"> &#45;gkColorClip</text>
<text text-anchor="middle" x="226.5" y="-664.5" font-family="Helvetica,sans-Serif" font-size="10.00">&#45;gkColorWarn</text>
<text text-anchor="middle" x="226.5" y="-653.5" font-family="Helvetica,sans-Serif" font-size="10.00">&#45;gkColorNormal</text>
</g>
</g>
</svg>
