<?xml version="1.0" encoding="UTF-8" standalone="no"?>
<!DOCTYPE svg PUBLIC "-//W3C//DTD SVG 1.1//EN"
 "http://www.w3.org/Graphics/SVG/1.1/DTD/svg11.dtd">
<!-- Generated by graphviz version 2.36.0 (20140111.2315)
 -->
<!-- Title: TGUILinearGauge_Surrogate Pages: 1 -->
<svg width="966pt" height="1222pt"
 viewBox="0.00 0.00 966.00 1222.00" xmlns="http://www.w3.org/2000/svg" xmlns:xlink="http://www.w3.org/1999/xlink">
<g id="graph0" class="graph" transform="scale(1 1) rotate(0) translate(4 1218)">
<title>TGUILinearGauge_Surrogate</title>
<polygon fill="white" stroke="none" points="-4,4 -4,-1218 962,-1218 962,4 -4,4"/>
<!-- Node1 -->
<g id="node1" class="node"><title>Node1</title>
<polygon fill="#bfbfbf" stroke="black" points="329.5,-486.5 329.5,-653.5 484.5,-653.5 484.5,-486.5 329.5,-486.5"/>
<text text-anchor="middle" x="407" y="-641.5" font-family="Helvetica,sans-Serif" font-size="10.00">TGUILinearGauge_Surrogate</text>
<polyline fill="none" stroke="black" points="329.5,-634.5 484.5,-634.5 "/>
<text text-anchor="start" x="337.5" y="-622.5" font-family="Helvetica,sans-Serif" font-size="10.00">&#45; gkLvlClip</text>
<text text-anchor="start" x="337.5" y="-611.5" font-family="Helvetica,sans-Serif" font-size="10.00">&#45; gkLvlWarn</text>
<polyline fill="none" stroke="black" points="329.5,-604.5 484.5,-604.5 "/>
<text text-anchor="start" x="337.5" y="-592.5" font-family="Helvetica,sans-Serif" font-size="10.00">+ CreatePort_In()</text>
<text text-anchor="start" x="337.5" y="-581.5" font-family="Helvetica,sans-Serif" font-size="10.00">+ Start()</text>
<text text-anchor="start" x="337.5" y="-570.5" font-family="Helvetica,sans-Serif" font-size="10.00">+ StatsGet()</text>
<text text-anchor="start" x="337.5" y="-559.5" font-family="Helvetica,sans-Serif" font-size="10.00">+ Stop()</text>
<text text-anchor="start" x="337.5" y="-548.5" font-family="Helvetica,sans-Serif" font-size="10.00">+ CreateInstance()</text>
<text text-anchor="start" x="337.5" y="-537.5" font-family="Helvetica,sans-Serif" font-size="10.00">~ OnSigClip_Click()</text>
<text text-anchor="start" x="337.5" y="-526.5" font-family="Helvetica,sans-Serif" font-size="10.00">~ OnTerminate()</text>
<text text-anchor="start" x="337.5" y="-515.5" font-family="Helvetica,sans-Serif" font-size="10.00">~ SetLevel()</text>
<text text-anchor="start" x="337.5" y="-504.5" font-family="Helvetica,sans-Serif" font-size="10.00"># _Register()</text>
<text text-anchor="start" x="337.5" y="-493.5" font-family="Helvetica,sans-Serif" font-size="10.00">&#45; TGUILinearGauge_Surrogate()</text>
</g>
<!-- Node1&#45;&gt;Node1 -->
<g id="edge24" class="edge"><title>Node1&#45;&gt;Node1</title>
<path fill="none" stroke="#404040" d="M484.531,-586.967C495.018,-584.122 502,-578.467 502,-570 502,-565.105 499.666,-561.15 495.671,-558.134"/>
<polygon fill="none" stroke="#404040" points="495.442,-558.029 488.321,-559.168 484.531,-553.033 491.652,-551.894 495.442,-558.029"/>
<text text-anchor="middle" x="517" y="-567.5" font-family="Helvetica,sans-Serif" font-size="10.00"> &#45;gGUI</text>
</g>
<!-- Node10 -->
<g id="node10" class="node"><title>Node10</title>
<g id="a_node10"><a xlink:href="../../d1/dd6/classppm__java_1_1frontend_1_1gui_1_1lineargauge_1_1_t_g_u_i_linear_gauge___wnd_p_p_m.html" target="_top" xlink:title="The PPM UI. ">
<polygon fill="white" stroke="black" points="174,-270.5 174,-415.5 332,-415.5 332,-270.5 174,-270.5"/>
<text text-anchor="middle" x="253" y="-403.5" font-family="Helvetica,sans-Serif" font-size="10.00">TGUILinearGauge_WndPPM</text>
<polyline fill="none" stroke="black" points="174,-396.5 332,-396.5 "/>
<text text-anchor="start" x="182" y="-384.5" font-family="Helvetica,sans-Serif" font-size="10.00">&#45; gkIChanL</text>
<text text-anchor="start" x="182" y="-373.5" font-family="Helvetica,sans-Serif" font-size="10.00">&#45; gkIChanR</text>
<text text-anchor="start" x="182" y="-362.5" font-family="Helvetica,sans-Serif" font-size="10.00">&#45; serialVersionUID</text>
<polyline fill="none" stroke="black" points="174,-355.5 332,-355.5 "/>
<text text-anchor="start" x="182" y="-343.5" font-family="Helvetica,sans-Serif" font-size="10.00">+ TGUILinearGauge_WndPPM()</text>
<text text-anchor="start" x="182" y="-332.5" font-family="Helvetica,sans-Serif" font-size="10.00">+ ClippingSet()</text>
<text text-anchor="start" x="182" y="-321.5" font-family="Helvetica,sans-Serif" font-size="10.00">+ SetLevel()</text>
<text text-anchor="start" x="182" y="-310.5" font-family="Helvetica,sans-Serif" font-size="10.00">+ Terminate()</text>
<text text-anchor="start" x="182" y="-299.5" font-family="Helvetica,sans-Serif" font-size="10.00">~ _SetClipping()</text>
<text text-anchor="start" x="182" y="-288.5" font-family="Helvetica,sans-Serif" font-size="10.00">&#45; _OnWindowClose()</text>
<text text-anchor="start" x="182" y="-277.5" font-family="Helvetica,sans-Serif" font-size="10.00">&#45; initComponents()</text>
</a>
</g>
</g>
<!-- Node1&#45;&gt;Node10 -->
<g id="edge11" class="edge"><title>Node1&#45;&gt;Node10</title>
<path fill="none" stroke="#404040" d="M336.341,-486.422C331.703,-480.281 327.209,-474.101 323,-468 313.94,-454.865 304.998,-440.471 296.691,-426.287"/>
<polygon fill="none" stroke="#404040" points="296.468,-425.9 290.005,-422.702 290.472,-415.506 296.935,-418.704 296.468,-425.9"/>
<text text-anchor="middle" x="350.5" y="-448.5" font-family="Helvetica,sans-Serif" font-size="10.00"> &#45;fConnector</text>
</g>
<!-- Node18 -->
<g id="node18" class="node"><title>Node18</title>
<g id="a_node18"><a xlink:href="../../d2/dbc/classppm__java_1_1frontend_1_1gui_1_1lineargauge_1_1_t_g_u_i_linear_gauge___surrogate___stats.html" target="_top" xlink:title="Combined runtime statistics for all channels. ">
<polygon fill="white" stroke="black" points="583,-270.5 583,-415.5 735,-415.5 735,-270.5 583,-270.5"/>
<text text-anchor="start" x="591" y="-403.5" font-family="Helvetica,sans-Serif" font-size="10.00">TGUILinearGauge_Surrogate</text>
<text text-anchor="middle" x="659" y="-392.5" font-family="Helvetica,sans-Serif" font-size="10.00">_Stats</text>
<polyline fill="none" stroke="black" points="583,-385.5 735,-385.5 "/>
<text text-anchor="start" x="591" y="-373.5" font-family="Helvetica,sans-Serif" font-size="10.00">&#45; fT0</text>
<polyline fill="none" stroke="black" points="583,-366.5 735,-366.5 "/>
<text text-anchor="start" x="591" y="-354.5" font-family="Helvetica,sans-Serif" font-size="10.00">+ TGUILinearGauge_Surrogate</text>
<text text-anchor="start" x="591" y="-343.5" font-family="Helvetica,sans-Serif" font-size="10.00">_Stats()</text>
<text text-anchor="start" x="591" y="-332.5" font-family="Helvetica,sans-Serif" font-size="10.00">+ GetDumpStr()</text>
<text text-anchor="start" x="591" y="-321.5" font-family="Helvetica,sans-Serif" font-size="10.00">~ AddChannel()</text>
<text text-anchor="start" x="591" y="-310.5" font-family="Helvetica,sans-Serif" font-size="10.00">~ OnCycleTick()</text>
<text text-anchor="start" x="591" y="-299.5" font-family="Helvetica,sans-Serif" font-size="10.00">~ SetCalcSection()</text>
<text text-anchor="start" x="591" y="-288.5" font-family="Helvetica,sans-Serif" font-size="10.00">~ SetDBValue()</text>
<text text-anchor="start" x="591" y="-277.5" font-family="Helvetica,sans-Serif" font-size="10.00">~ SetDisplayValue()</text>
</a>
</g>
</g>
<!-- Node1&#45;&gt;Node18 -->
<g id="edge21" class="edge"><title>Node1&#45;&gt;Node18</title>
<path fill="none" stroke="#404040" d="M484.758,-523.334C509.335,-507.276 535.842,-488.168 558,-468 572.199,-455.077 586.096,-440.088 598.819,-425.092"/>
<polygon fill="none" stroke="#404040" points="598.901,-424.994 599.667,-417.823 606.581,-415.773 605.814,-422.943 598.901,-424.994"/>
<text text-anchor="middle" x="603.5" y="-448.5" font-family="Helvetica,sans-Serif" font-size="10.00"> &#45;fHost</text>
</g>
<!-- Node2 -->
<g id="node2" class="node"><title>Node2</title>
<g id="a_node2"><a xlink:href="../../da/d04/classppm__java_1_1typelib_1_1_v_frontend.html" target="_top" xlink:title="Base class for a front end. ">
<polygon fill="white" stroke="black" points="253,-692.5 253,-771.5 353,-771.5 353,-692.5 253,-692.5"/>
<text text-anchor="middle" x="303" y="-759.5" font-family="Helvetica,sans-Serif" font-size="10.00">VFrontend</text>
<polyline fill="none" stroke="black" points="253,-752.5 353,-752.5 "/>
<text text-anchor="middle" x="303" y="-740.5" font-family="Helvetica,sans-Serif" font-size="10.00"> </text>
<polyline fill="none" stroke="black" points="253,-733.5 353,-733.5 "/>
<text text-anchor="start" x="261" y="-721.5" font-family="Helvetica,sans-Serif" font-size="10.00">+ VFrontend()</text>
<text text-anchor="start" x="261" y="-710.5" font-family="Helvetica,sans-Serif" font-size="10.00">+ CreatePort_Out()</text>
<text text-anchor="start" x="261" y="-699.5" font-family="Helvetica,sans-Serif" font-size="10.00"># _OnTerminate()</text>
</a>
</g>
</g>
<!-- Node2&#45;&gt;Node1 -->
<g id="edge1" class="edge"><title>Node2&#45;&gt;Node1</title>
<path fill="none" stroke="midnightblue" d="M333.706,-683.76C339.89,-674.245 346.561,-663.983 353.27,-653.662"/>
<polygon fill="none" stroke="midnightblue" points="330.691,-681.977 328.175,-692.268 336.56,-685.791 330.691,-681.977"/>
</g>
<!-- Node3 -->
<g id="node3" class="node"><title>Node3</title>
<g id="a_node3"><a xlink:href="../../d5/d6a/classppm__java_1_1typelib_1_1_v_audio_processor.html" target="_top" xlink:title="Base class for all modules processing audio samples. ">
<polygon fill="white" stroke="black" points="249.5,-810.5 249.5,-977.5 356.5,-977.5 356.5,-810.5 249.5,-810.5"/>
<text text-anchor="middle" x="303" y="-965.5" font-family="Helvetica,sans-Serif" font-size="10.00">VAudioProcessor</text>
<polyline fill="none" stroke="black" points="249.5,-958.5 356.5,-958.5 "/>
<text text-anchor="middle" x="303" y="-946.5" font-family="Helvetica,sans-Serif" font-size="10.00"> </text>
<polyline fill="none" stroke="black" points="249.5,-939.5 356.5,-939.5 "/>
<text text-anchor="start" x="257.5" y="-927.5" font-family="Helvetica,sans-Serif" font-size="10.00">+ VAudioProcessor()</text>
<text text-anchor="start" x="257.5" y="-916.5" font-family="Helvetica,sans-Serif" font-size="10.00">+ CreatePort_In()</text>
<text text-anchor="start" x="257.5" y="-905.5" font-family="Helvetica,sans-Serif" font-size="10.00">+ CreatePort_Out()</text>
<text text-anchor="start" x="257.5" y="-894.5" font-family="Helvetica,sans-Serif" font-size="10.00">+ GetNumPortsIn()</text>
<text text-anchor="start" x="257.5" y="-883.5" font-family="Helvetica,sans-Serif" font-size="10.00">+ GetNumPortsOut()</text>
<text text-anchor="start" x="257.5" y="-872.5" font-family="Helvetica,sans-Serif" font-size="10.00">+ GetPortIn()</text>
<text text-anchor="start" x="257.5" y="-861.5" font-family="Helvetica,sans-Serif" font-size="10.00">+ GetPortIn()</text>
<text text-anchor="start" x="257.5" y="-850.5" font-family="Helvetica,sans-Serif" font-size="10.00">+ GetPortOut()</text>
<text text-anchor="start" x="257.5" y="-839.5" font-family="Helvetica,sans-Serif" font-size="10.00">+ GetPortOut()</text>
<text text-anchor="start" x="257.5" y="-828.5" font-family="Helvetica,sans-Serif" font-size="10.00"># AddPortIn()</text>
<text text-anchor="start" x="257.5" y="-817.5" font-family="Helvetica,sans-Serif" font-size="10.00"># AddPortOut()</text>
</a>
</g>
</g>
<!-- Node3&#45;&gt;Node2 -->
<g id="edge2" class="edge"><title>Node3&#45;&gt;Node2</title>
<path fill="none" stroke="midnightblue" d="M303,-800.166C303,-790.211 303,-780.529 303,-771.757"/>
<polygon fill="none" stroke="midnightblue" points="299.5,-800.188 303,-810.188 306.5,-800.188 299.5,-800.188"/>
</g>
<!-- Node4 -->
<g id="node4" class="node"><title>Node4</title>
<g id="a_node4"><a xlink:href="../../d1/db3/classppm__java_1_1typelib_1_1_v_audio_object.html" target="_top" xlink:title="Base class for all browseable audio objects. ">
<polygon fill="white" stroke="black" points="118,-1032.5 118,-1089.5 210,-1089.5 210,-1032.5 118,-1032.5"/>
<text text-anchor="middle" x="164" y="-1077.5" font-family="Helvetica,sans-Serif" font-size="10.00">VAudioObject</text>
<polyline fill="none" stroke="black" points="118,-1070.5 210,-1070.5 "/>
<text text-anchor="middle" x="164" y="-1058.5" font-family="Helvetica,sans-Serif" font-size="10.00"> </text>
<polyline fill="none" stroke="black" points="118,-1051.5 210,-1051.5 "/>
<text text-anchor="start" x="126" y="-1039.5" font-family="Helvetica,sans-Serif" font-size="10.00">+ VAudioObject()</text>
</a>
</g>
</g>
<!-- Node4&#45;&gt;Node3 -->
<g id="edge3" class="edge"><title>Node4&#45;&gt;Node3</title>
<path fill="none" stroke="midnightblue" d="M193.909,-1024.5C210.063,-1005.32 230.498,-981.064 249.303,-958.741"/>
<polygon fill="none" stroke="midnightblue" points="191.032,-1022.48 187.265,-1032.38 196.385,-1026.99 191.032,-1022.48"/>
</g>
<!-- Node5 -->
<g id="node5" class="node"><title>Node5</title>
<g id="a_node5"><a xlink:href="../../de/dd1/classppm__java_1_1typelib_1_1_v_browseable.html" target="_top" xlink:title="Base class for all browseable objects. ">
<polygon fill="white" stroke="black" points="119.5,-1134.5 119.5,-1213.5 208.5,-1213.5 208.5,-1134.5 119.5,-1134.5"/>
<text text-anchor="middle" x="164" y="-1201.5" font-family="Helvetica,sans-Serif" font-size="10.00">VBrowseable</text>
<polyline fill="none" stroke="black" points="119.5,-1194.5 208.5,-1194.5 "/>
<text text-anchor="start" x="127.5" y="-1182.5" font-family="Helvetica,sans-Serif" font-size="10.00">&#45; fID</text>
<polyline fill="none" stroke="black" points="119.5,-1175.5 208.5,-1175.5 "/>
<text text-anchor="start" x="127.5" y="-1163.5" font-family="Helvetica,sans-Serif" font-size="10.00">+ VBrowseable()</text>
<text text-anchor="start" x="127.5" y="-1152.5" font-family="Helvetica,sans-Serif" font-size="10.00">+ GetID()</text>
<text text-anchor="start" x="127.5" y="-1141.5" font-family="Helvetica,sans-Serif" font-size="10.00"># _Register()</text>
</a>
</g>
</g>
<!-- Node5&#45;&gt;Node4 -->
<g id="edge4" class="edge"><title>Node5&#45;&gt;Node4</title>
<path fill="none" stroke="midnightblue" d="M164,-1124.23C164,-1112.36 164,-1100.08 164,-1089.6"/>
<polygon fill="none" stroke="midnightblue" points="160.5,-1124.49 164,-1134.49 167.5,-1124.49 160.5,-1124.49"/>
</g>
<!-- Node6 -->
<g id="node6" class="node"><title>Node6</title>
<polygon fill="white" stroke="#bfbfbf" points="228,-1027 228,-1095 378,-1095 378,-1027 228,-1027"/>
<text text-anchor="start" x="236" y="-1083" font-family="Helvetica,sans-Serif" font-size="10.00">TArrayMap&lt; ppm_java.typelib.</text>
<text text-anchor="middle" x="303" y="-1072" font-family="Helvetica,sans-Serif" font-size="10.00">VAudioPort_Output &gt;</text>
<polyline fill="none" stroke="#bfbfbf" points="228,-1065 378,-1065 "/>
<text text-anchor="middle" x="303" y="-1053" font-family="Helvetica,sans-Serif" font-size="10.00"> </text>
<polyline fill="none" stroke="#bfbfbf" points="228,-1046 378,-1046 "/>
<text text-anchor="middle" x="303" y="-1034" font-family="Helvetica,sans-Serif" font-size="10.00"> </text>
</g>
<!-- Node6&#45;&gt;Node3 -->
<g id="edge5" class="edge"><title>Node6&#45;&gt;Node3</title>
<path fill="none" stroke="#404040" d="M303,-1026.61C303,-1015.72 303,-1003.04 303,-989.934"/>
<polygon fill="none" stroke="#404040" points="303,-989.813 299,-983.813 303,-977.813 307,-983.813 303,-989.813"/>
<text text-anchor="middle" x="327.5" y="-999.5" font-family="Helvetica,sans-Serif" font-size="10.00"> &#45;fPortsOut</text>
</g>
<!-- Node7 -->
<g id="node7" class="node"><title>Node7</title>
<polygon fill="white" stroke="#bfbfbf" points="396,-1027 396,-1095 546,-1095 546,-1027 396,-1027"/>
<text text-anchor="start" x="404" y="-1083" font-family="Helvetica,sans-Serif" font-size="10.00">TArrayMap&lt; ppm_java.typelib.</text>
<text text-anchor="middle" x="471" y="-1072" font-family="Helvetica,sans-Serif" font-size="10.00">VAudioPort_Input &gt;</text>
<polyline fill="none" stroke="#bfbfbf" points="396,-1065 546,-1065 "/>
<text text-anchor="middle" x="471" y="-1053" font-family="Helvetica,sans-Serif" font-size="10.00"> </text>
<polyline fill="none" stroke="#bfbfbf" points="396,-1046 546,-1046 "/>
<text text-anchor="middle" x="471" y="-1034" font-family="Helvetica,sans-Serif" font-size="10.00"> </text>
</g>
<!-- Node7&#45;&gt;Node3 -->
<g id="edge6" class="edge"><title>Node7&#45;&gt;Node3</title>
<path fill="none" stroke="#404040" d="M437.003,-1026.61C416.509,-1006.48 389.771,-980.221 365.575,-956.457"/>
<polygon fill="none" stroke="#404040" points="365.353,-956.24 358.269,-954.889 356.792,-947.831 363.875,-949.182 365.353,-956.24"/>
<text text-anchor="middle" x="437.5" y="-999.5" font-family="Helvetica,sans-Serif" font-size="10.00"> &#45;fPortsIn</text>
</g>
<!-- Node8 -->
<g id="node8" class="node"><title>Node8</title>
<g id="a_node8"><a xlink:href="../../db/d44/interfaceppm__java_1_1typelib_1_1_i_controllable.html" target="_top" xlink:title="A module or construct which can receive some low level control commands (start/stop etc...">
<polygon fill="white" stroke="black" points="371.5,-698 371.5,-766 442.5,-766 442.5,-698 371.5,-698"/>
<text text-anchor="middle" x="407" y="-754" font-family="Helvetica,sans-Serif" font-size="10.00">IControllable</text>
<polyline fill="none" stroke="black" points="371.5,-747 442.5,-747 "/>
<text text-anchor="middle" x="407" y="-735" font-family="Helvetica,sans-Serif" font-size="10.00"> </text>
<polyline fill="none" stroke="black" points="371.5,-728 442.5,-728 "/>
<text text-anchor="start" x="379.5" y="-716" font-family="Helvetica,sans-Serif" font-size="10.00">+ Start()</text>
<text text-anchor="start" x="379.5" y="-705" font-family="Helvetica,sans-Serif" font-size="10.00">+ Stop()</text>
</a>
</g>
</g>
<!-- Node8&#45;&gt;Node1 -->
<g id="edge7" class="edge"><title>Node8&#45;&gt;Node1</title>
<path fill="none" stroke="midnightblue" d="M407,-687.66C407,-677.069 407,-665.385 407,-653.625"/>
<polygon fill="none" stroke="midnightblue" points="403.5,-687.848 407,-697.848 410.5,-687.848 403.5,-687.848"/>
</g>
<!-- Node9 -->
<g id="node9" class="node"><title>Node9</title>
<g id="a_node9"><a xlink:href="../../dc/dc0/interfaceppm__java_1_1typelib_1_1_i_stat_enabled.html" target="_top" xlink:title="Interface for an object that supports runtime statistics. ">
<polygon fill="white" stroke="black" points="460.5,-703.5 460.5,-760.5 533.5,-760.5 533.5,-703.5 460.5,-703.5"/>
<text text-anchor="middle" x="497" y="-748.5" font-family="Helvetica,sans-Serif" font-size="10.00">IStatEnabled</text>
<polyline fill="none" stroke="black" points="460.5,-741.5 533.5,-741.5 "/>
<text text-anchor="middle" x="497" y="-729.5" font-family="Helvetica,sans-Serif" font-size="10.00"> </text>
<polyline fill="none" stroke="black" points="460.5,-722.5 533.5,-722.5 "/>
<text text-anchor="start" x="468.5" y="-710.5" font-family="Helvetica,sans-Serif" font-size="10.00">+ StatsGet()</text>
</a>
</g>
</g>
<!-- Node9&#45;&gt;Node1 -->
<g id="edge8" class="edge"><title>Node9&#45;&gt;Node1</title>
<path fill="none" stroke="midnightblue" d="M476.469,-694.501C469.547,-682.195 461.516,-667.917 453.423,-653.529"/>
<polygon fill="none" stroke="midnightblue" points="473.575,-696.495 481.528,-703.495 479.676,-693.063 473.575,-696.495"/>
</g>
<!-- Node10&#45;&gt;Node1 -->
<g id="edge9" class="edge"><title>Node10&#45;&gt;Node1</title>
<path fill="none" stroke="#404040" d="M332.287,-384.94C351.2,-398.205 369.502,-414.603 382,-434 389.817,-446.132 395.334,-460.077 399.203,-474.298"/>
<polygon fill="none" stroke="#404040" points="399.277,-474.607 404.568,-479.507 402.08,-486.275 396.789,-481.375 399.277,-474.607"/>
<text text-anchor="middle" x="412" y="-448.5" font-family="Helvetica,sans-Serif" font-size="10.00"> &#45;fGUI</text>
</g>
<!-- Node12 -->
<g id="node12" class="node"><title>Node12</title>
<g id="a_node12"><a xlink:href="../../d4/dcb/classppm__java_1_1frontend_1_1gui_1_1lineargauge_1_1_t_g_u_i_linear_gauge___timer_clipping.html" target="_top" xlink:title="A monostable timer for a clipping LED on our PPM GUI. ">
<polygon fill="white" stroke="black" points="66,-0.5 66,-211.5 242,-211.5 242,-0.5 66,-0.5"/>
<text text-anchor="middle" x="154" y="-199.5" font-family="Helvetica,sans-Serif" font-size="10.00">TGUILinearGauge_TimerClipping</text>
<polyline fill="none" stroke="black" points="66,-192.5 242,-192.5 "/>
<text text-anchor="start" x="74" y="-180.5" font-family="Helvetica,sans-Serif" font-size="10.00">&#45; fChannel</text>
<text text-anchor="start" x="74" y="-169.5" font-family="Helvetica,sans-Serif" font-size="10.00">&#45; fState</text>
<text text-anchor="start" x="74" y="-158.5" font-family="Helvetica,sans-Serif" font-size="10.00">&#45; fTLast</text>
<text text-anchor="start" x="74" y="-147.5" font-family="Helvetica,sans-Serif" font-size="10.00">&#45; gkIntervalLoop</text>
<text text-anchor="start" x="74" y="-136.5" font-family="Helvetica,sans-Serif" font-size="10.00">&#45; gkIntervalWait</text>
<text text-anchor="start" x="74" y="-125.5" font-family="Helvetica,sans-Serif" font-size="10.00">&#45; gkStateClear</text>
<text text-anchor="start" x="74" y="-114.5" font-family="Helvetica,sans-Serif" font-size="10.00">&#45; gkStateErr</text>
<text text-anchor="start" x="74" y="-103.5" font-family="Helvetica,sans-Serif" font-size="10.00">&#45; gkStateTerm</text>
<text text-anchor="start" x="74" y="-92.5" font-family="Helvetica,sans-Serif" font-size="10.00">&#45; gkStateWarn</text>
<polyline fill="none" stroke="black" points="66,-85.5 242,-85.5 "/>
<text text-anchor="start" x="74" y="-73.5" font-family="Helvetica,sans-Serif" font-size="10.00">+ TGUILinearGauge_TimerClipping()</text>
<text text-anchor="start" x="74" y="-62.5" font-family="Helvetica,sans-Serif" font-size="10.00">+ run()</text>
<text text-anchor="start" x="74" y="-51.5" font-family="Helvetica,sans-Serif" font-size="10.00">+ SetClip()</text>
<text text-anchor="start" x="74" y="-40.5" font-family="Helvetica,sans-Serif" font-size="10.00">+ Terminate()</text>
<text text-anchor="start" x="74" y="-29.5" font-family="Helvetica,sans-Serif" font-size="10.00">&#45; _DoTransition()</text>
<text text-anchor="start" x="74" y="-18.5" font-family="Helvetica,sans-Serif" font-size="10.00">&#45; _SetLED()</text>
<text text-anchor="start" x="74" y="-7.5" font-family="Helvetica,sans-Serif" font-size="10.00">&#45; _TryReset()</text>
</a>
</g>
</g>
<!-- Node10&#45;&gt;Node12 -->
<g id="edge15" class="edge"><title>Node10&#45;&gt;Node12</title>
<path fill="none" stroke="#404040" d="M201.356,-270.293C197.943,-264.242 194.769,-258.102 192,-252 187.865,-242.887 184.115,-233.241 180.727,-223.426"/>
<polygon fill="none" stroke="#404040" points="180.669,-223.248 174.993,-218.8 176.916,-211.85 182.591,-216.298 180.669,-223.248"/>
<text text-anchor="middle" x="207.5" y="-238.5" font-family="Helvetica,sans-Serif" font-size="10.00"> &#45;fHost</text>
</g>
<!-- Node11 -->
<g id="node11" class="node"><title>Node11</title>
<polygon fill="white" stroke="#bfbfbf" points="261,-541.5 261,-598.5 311,-598.5 311,-541.5 261,-541.5"/>
<text text-anchor="middle" x="286" y="-586.5" font-family="Helvetica,sans-Serif" font-size="10.00">JFrame</text>
<polyline fill="none" stroke="#bfbfbf" points="261,-579.5 311,-579.5 "/>
<text text-anchor="middle" x="286" y="-567.5" font-family="Helvetica,sans-Serif" font-size="10.00"> </text>
<polyline fill="none" stroke="#bfbfbf" points="261,-560.5 311,-560.5 "/>
<text text-anchor="middle" x="286" y="-548.5" font-family="Helvetica,sans-Serif" font-size="10.00"> </text>
</g>
<!-- Node11&#45;&gt;Node10 -->
<g id="edge10" class="edge"><title>Node11&#45;&gt;Node10</title>
<path fill="none" stroke="midnightblue" d="M283.609,-531.232C281.587,-504.075 278.179,-466.643 273,-434 272.047,-427.993 270.936,-421.786 269.736,-415.571"/>
<polygon fill="none" stroke="midnightblue" points="280.136,-531.743 284.342,-541.468 287.118,-531.243 280.136,-531.743"/>
</g>
<!-- Node12&#45;&gt;Node10 -->
<g id="edge12" class="edge"><title>Node12&#45;&gt;Node10</title>
<path fill="none" stroke="#404040" d="M218.903,-211.596C221.821,-217.733 224.548,-223.894 227,-230 230.649,-239.087 233.854,-248.804 236.652,-258.575"/>
<polygon fill="none" stroke="#404040" points="236.739,-258.897 242.163,-263.648 239.864,-270.483 234.44,-265.732 236.739,-258.897"/>
<text text-anchor="middle" x="255" y="-244" font-family="Helvetica,sans-Serif" font-size="10.00"> &#45;fTimerL</text>
<text text-anchor="middle" x="255" y="-233" font-family="Helvetica,sans-Serif" font-size="10.00">&#45;fTimerR</text>
</g>
<!-- Node13 -->
<g id="node13" class="node"><title>Node13</title>
<polygon fill="white" stroke="#bfbfbf" points="13.5,-314.5 13.5,-371.5 60.5,-371.5 60.5,-314.5 13.5,-314.5"/>
<text text-anchor="middle" x="37" y="-359.5" font-family="Helvetica,sans-Serif" font-size="10.00">Thread</text>
<polyline fill="none" stroke="#bfbfbf" points="13.5,-352.5 60.5,-352.5 "/>
<text text-anchor="middle" x="37" y="-340.5" font-family="Helvetica,sans-Serif" font-size="10.00"> </text>
<polyline fill="none" stroke="#bfbfbf" points="13.5,-333.5 60.5,-333.5 "/>
<text text-anchor="middle" x="37" y="-321.5" font-family="Helvetica,sans-Serif" font-size="10.00"> </text>
</g>
<!-- Node13&#45;&gt;Node12 -->
<g id="edge13" class="edge"><title>Node13&#45;&gt;Node12</title>
<path fill="none" stroke="midnightblue" d="M52.8095,-305.238C57.8386,-293.872 63.5212,-281.358 69,-270 78.1517,-251.028 88.2343,-231.004 98.1595,-211.732"/>
<polygon fill="none" stroke="midnightblue" points="49.5743,-303.9 48.7576,-314.464 55.9834,-306.715 49.5743,-303.9"/>
</g>
<!-- Node14 -->
<g id="node14" class="node"><title>Node14</title>
<polygon fill="white" stroke="#bfbfbf" points="78.5,-314.5 78.5,-371.5 155.5,-371.5 155.5,-314.5 78.5,-314.5"/>
<text text-anchor="middle" x="117" y="-359.5" font-family="Helvetica,sans-Serif" font-size="10.00">AtomicInteger</text>
<polyline fill="none" stroke="#bfbfbf" points="78.5,-352.5 155.5,-352.5 "/>
<text text-anchor="middle" x="117" y="-340.5" font-family="Helvetica,sans-Serif" font-size="10.00"> </text>
<polyline fill="none" stroke="#bfbfbf" points="78.5,-333.5 155.5,-333.5 "/>
<text text-anchor="middle" x="117" y="-321.5" font-family="Helvetica,sans-Serif" font-size="10.00"> </text>
</g>
<!-- Node14&#45;&gt;Node12 -->
<g id="edge14" class="edge"><title>Node14&#45;&gt;Node12</title>
<path fill="none" stroke="#404040" d="M117.373,-314.239C118.005,-291.486 119.668,-258.507 124,-230 124.312,-227.946 124.642,-225.876 124.988,-223.793"/>
<polygon fill="none" stroke="#404040" points="125.027,-223.577 122.143,-216.968 127.135,-211.764 130.019,-218.373 125.027,-223.577"/>
<text text-anchor="middle" x="147" y="-238.5" font-family="Helvetica,sans-Serif" font-size="10.00"> &#45;fRequest</text>
</g>
<!-- Node15 -->
<g id="node15" class="node"><title>Node15</title>
<polygon fill="white" stroke="#bfbfbf" points="0,-541.5 0,-598.5 82,-598.5 82,-541.5 0,-541.5"/>
<text text-anchor="middle" x="41" y="-586.5" font-family="Helvetica,sans-Serif" font-size="10.00">LinearBargraph</text>
<polyline fill="none" stroke="#bfbfbf" points="0,-579.5 82,-579.5 "/>
<text text-anchor="middle" x="41" y="-567.5" font-family="Helvetica,sans-Serif" font-size="10.00"> </text>
<polyline fill="none" stroke="#bfbfbf" points="0,-560.5 82,-560.5 "/>
<text text-anchor="middle" x="41" y="-548.5" font-family="Helvetica,sans-Serif" font-size="10.00"> </text>
</g>
<!-- Node15&#45;&gt;Node10 -->
<g id="edge16" class="edge"><title>Node15&#45;&gt;Node10</title>
<path fill="none" stroke="#404040" d="M41.7628,-541.46C44.1548,-510.75 52.838,-461.758 83,-434 107.698,-411.271 127.021,-428.277 162.785,-415.517"/>
<polygon fill="none" stroke="#404040" points="162.835,-415.497 166.791,-409.468 173.878,-410.802 169.921,-416.83 162.835,-415.497"/>
<text text-anchor="middle" x="104" y="-454" font-family="Helvetica,sans-Serif" font-size="10.00"> &#45;fMeterR</text>
<text text-anchor="middle" x="104" y="-443" font-family="Helvetica,sans-Serif" font-size="10.00">&#45;fMeterL</text>
</g>
<!-- Node16 -->
<g id="node16" class="node"><title>Node16</title>
<polygon fill="white" stroke="#bfbfbf" points="100,-541.5 100,-598.5 156,-598.5 156,-541.5 100,-541.5"/>
<text text-anchor="middle" x="128" y="-586.5" font-family="Helvetica,sans-Serif" font-size="10.00">LedColor</text>
<polyline fill="none" stroke="#bfbfbf" points="100,-579.5 156,-579.5 "/>
<text text-anchor="middle" x="128" y="-567.5" font-family="Helvetica,sans-Serif" font-size="10.00"> </text>
<polyline fill="none" stroke="#bfbfbf" points="100,-560.5 156,-560.5 "/>
<text text-anchor="middle" x="128" y="-548.5" font-family="Helvetica,sans-Serif" font-size="10.00"> </text>
</g>
<!-- Node16&#45;&gt;Node10 -->
<g id="edge17" class="edge"><title>Node16&#45;&gt;Node10</title>
<path fill="none" stroke="#404040" d="M124.19,-541.499C121.579,-512.799 121.402,-467.408 140,-434 146.485,-422.35 153.482,-424.194 164,-416 164.098,-415.924 164.196,-415.847 164.294,-415.771"/>
<polygon fill="none" stroke="#404040" points="164.096,-415.926 166.349,-409.076 173.539,-408.522 171.286,-415.372 164.096,-415.926"/>
<text text-anchor="middle" x="173.5" y="-459.5" font-family="Helvetica,sans-Serif" font-size="10.00"> &#45;kColorNormal</text>
<text text-anchor="middle" x="173.5" y="-448.5" font-family="Helvetica,sans-Serif" font-size="10.00">&#45;kColorWarn</text>
<text text-anchor="middle" x="173.5" y="-437.5" font-family="Helvetica,sans-Serif" font-size="10.00">&#45;kColorClip</text>
</g>
<!-- Node17 -->
<g id="node17" class="node"><title>Node17</title>
<polygon fill="white" stroke="#bfbfbf" points="194.5,-541.5 194.5,-598.5 241.5,-598.5 241.5,-541.5 194.5,-541.5"/>
<text text-anchor="middle" x="218" y="-586.5" font-family="Helvetica,sans-Serif" font-size="10.00">JPanel</text>
<polyline fill="none" stroke="#bfbfbf" points="194.5,-579.5 241.5,-579.5 "/>
<text text-anchor="middle" x="218" y="-567.5" font-family="Helvetica,sans-Serif" font-size="10.00"> </text>
<polyline fill="none" stroke="#bfbfbf" points="194.5,-560.5 241.5,-560.5 "/>
<text text-anchor="middle" x="218" y="-548.5" font-family="Helvetica,sans-Serif" font-size="10.00"> </text>
</g>
<!-- Node17&#45;&gt;Node10 -->
<g id="edge18" class="edge"><title>Node17&#45;&gt;Node10</title>
<path fill="none" stroke="#404040" d="M213.849,-541.277C210.552,-513.763 207.603,-470.534 215,-434 215.441,-431.819 215.937,-429.626 216.481,-427.427"/>
<polygon fill="none" stroke="#404040" points="216.545,-427.199 214.326,-420.338 219.806,-415.651 222.025,-422.512 216.545,-427.199"/>
<text text-anchor="middle" x="242" y="-454" font-family="Helvetica,sans-Serif" font-size="10.00"> &#45;fPnlMeterL</text>
<text text-anchor="middle" x="242" y="-443" font-family="Helvetica,sans-Serif" font-size="10.00">&#45;fPnlMeterR</text>
</g>
<!-- Node18&#45;&gt;Node1 -->
<g id="edge19" class="edge"><title>Node18&#45;&gt;Node1</title>
<path fill="none" stroke="#404040" d="M582.86,-392.926C564.936,-405.57 546.314,-419.676 530,-434 514.863,-447.29 499.663,-462.298 485.365,-477.353"/>
<polygon fill="none" stroke="#404040" points="485.267,-477.458 484.08,-484.57 477.058,-486.21 478.245,-479.098 485.267,-477.458"/>
<text text-anchor="middle" x="544" y="-448.5" font-family="Helvetica,sans-Serif" font-size="10.00"> &#45;fStat</text>
</g>
<!-- Node19 -->
<g id="node19" class="node"><title>Node19</title>
<g id="a_node19"><a xlink:href="../../d7/d5a/interfaceppm__java_1_1typelib_1_1_i_stats.html" target="_top" xlink:title="Interface for a statistics record. ">
<polygon fill="white" stroke="black" points="872,-541.5 872,-598.5 958,-598.5 958,-541.5 872,-541.5"/>
<text text-anchor="middle" x="915" y="-586.5" font-family="Helvetica,sans-Serif" font-size="10.00">IStats</text>
<polyline fill="none" stroke="black" points="872,-579.5 958,-579.5 "/>
<text text-anchor="middle" x="915" y="-567.5" font-family="Helvetica,sans-Serif" font-size="10.00"> </text>
<polyline fill="none" stroke="black" points="872,-560.5 958,-560.5 "/>
<text text-anchor="start" x="880" y="-548.5" font-family="Helvetica,sans-Serif" font-size="10.00">+ GetDumpStr()</text>
</a>
</g>
</g>
<!-- Node19&#45;&gt;Node18 -->
<g id="edge20" class="edge"><title>Node19&#45;&gt;Node18</title>
<path fill="none" stroke="midnightblue" d="M896.747,-532.277C880.491,-502.61 854.305,-461.421 822,-434 796.123,-412.035 764.052,-392.948 735.222,-378.073"/>
<polygon fill="none" stroke="midnightblue" points="893.865,-534.309 901.672,-541.472 900.036,-531.004 893.865,-534.309"/>
</g>
<!-- Node20 -->
<g id="node20" class="node"><title>Node20</title>
<polygon fill="white" stroke="#bfbfbf" points="550.5,-536 550.5,-604 767.5,-604 767.5,-536 550.5,-536"/>
<text text-anchor="start" x="558.5" y="-592" font-family="Helvetica,sans-Serif" font-size="10.00">ArrayList&lt; ppm_java.frontend.gui.lineargauge.</text>
<text text-anchor="middle" x="659" y="-581" font-family="Helvetica,sans-Serif" font-size="10.00">TGUILinearGauge_Surrogate_Stats_Record &gt;</text>
<polyline fill="none" stroke="#bfbfbf" points="550.5,-574 767.5,-574 "/>
<text text-anchor="middle" x="659" y="-562" font-family="Helvetica,sans-Serif" font-size="10.00"> </text>
<polyline fill="none" stroke="#bfbfbf" points="550.5,-555 767.5,-555 "/>
<text text-anchor="middle" x="659" y="-543" font-family="Helvetica,sans-Serif" font-size="10.00"> </text>
</g>
<!-- Node20&#45;&gt;Node18 -->
<g id="edge22" class="edge"><title>Node20&#45;&gt;Node18</title>
<path fill="none" stroke="#404040" d="M659,-535.8C659,-507.575 659,-465.8 659,-428.436"/>
<polygon fill="none" stroke="#404040" points="659,-427.96 655,-421.96 659,-415.96 663,-421.96 659,-427.96"/>
<text text-anchor="middle" x="693.5" y="-448.5" font-family="Helvetica,sans-Serif" font-size="10.00"> &#45;fStatChannels</text>
</g>
<!-- Node21 -->
<g id="node21" class="node"><title>Node21</title>
<polygon fill="white" stroke="#bfbfbf" points="786,-541.5 786,-598.5 854,-598.5 854,-541.5 786,-541.5"/>
<text text-anchor="middle" x="820" y="-586.5" font-family="Helvetica,sans-Serif" font-size="10.00">AtomicLong</text>
<polyline fill="none" stroke="#bfbfbf" points="786,-579.5 854,-579.5 "/>
<text text-anchor="middle" x="820" y="-567.5" font-family="Helvetica,sans-Serif" font-size="10.00"> </text>
<polyline fill="none" stroke="#bfbfbf" points="786,-560.5 854,-560.5 "/>
<text text-anchor="middle" x="820" y="-548.5" font-family="Helvetica,sans-Serif" font-size="10.00"> </text>
</g>
<!-- Node21&#45;&gt;Node18 -->
<g id="edge23" class="edge"><title>Node21&#45;&gt;Node18</title>
<path fill="none" stroke="#404040" d="M807.067,-541.291C798.929,-524.765 787.766,-503.638 776,-486 762.289,-465.448 746.184,-444.352 730.382,-424.918"/>
<polygon fill="none" stroke="#404040" points="730.279,-424.793 723.379,-422.696 722.66,-415.521 729.56,-417.618 730.279,-424.793"/>
<text text-anchor="middle" x="789.5" y="-448.5" font-family="Helvetica,sans-Serif" font-size="10.00"> &#45;fTimeCycle</text>
</g>
</g>
</svg>
