<?xml version="1.0" encoding="UTF-8" standalone="no"?>
<!DOCTYPE svg PUBLIC "-//W3C//DTD SVG 1.1//EN"
 "http://www.w3.org/Graphics/SVG/1.1/DTD/svg11.dtd">
<!-- Generated by graphviz version 2.36.0 (20140111.2315)
 -->
<!-- Title: TNodePump Pages: 1 -->
<svg width="378pt" height="756pt"
 viewBox="0.00 0.00 378.00 756.00" xmlns="http://www.w3.org/2000/svg" xmlns:xlink="http://www.w3.org/1999/xlink">
<g id="graph0" class="graph" transform="scale(1 1) rotate(0) translate(4 752)">
<title>TNodePump</title>
<polygon fill="white" stroke="none" points="-4,4 -4,-752 374,-752 374,4 -4,4"/>
<!-- Node1 -->
<g id="node1" class="node"><title>Node1</title>
<polygon fill="#bfbfbf" stroke="black" points="130,-0.5 130,-321.5 274,-321.5 274,-0.5 130,-0.5"/>
<text text-anchor="middle" x="202" y="-309.5" font-family="Helvetica,sans-Serif" font-size="10.00">TNodePump</text>
<polyline fill="none" stroke="black" points="130,-302.5 274,-302.5 "/>
<text text-anchor="start" x="138" y="-290.5" font-family="Helvetica,sans-Serif" font-size="10.00">&#45; fAudioDriver</text>
<text text-anchor="start" x="138" y="-279.5" font-family="Helvetica,sans-Serif" font-size="10.00">&#45; fEndptIn</text>
<text text-anchor="start" x="138" y="-268.5" font-family="Helvetica,sans-Serif" font-size="10.00">&#45; fEndptOut</text>
<text text-anchor="start" x="138" y="-257.5" font-family="Helvetica,sans-Serif" font-size="10.00">&#45; fHasBeenInitialized</text>
<text text-anchor="start" x="138" y="-246.5" font-family="Helvetica,sans-Serif" font-size="10.00">&#45; fNSamplesPerCycle</text>
<text text-anchor="start" x="138" y="-235.5" font-family="Helvetica,sans-Serif" font-size="10.00">&#45; fPacketLast</text>
<text text-anchor="start" x="138" y="-224.5" font-family="Helvetica,sans-Serif" font-size="10.00">&#45; fSampleRate</text>
<text text-anchor="start" x="138" y="-213.5" font-family="Helvetica,sans-Serif" font-size="10.00">&#45; fStats</text>
<text text-anchor="start" x="138" y="-202.5" font-family="Helvetica,sans-Serif" font-size="10.00">&#45; fTCycleDesired</text>
<text text-anchor="start" x="138" y="-191.5" font-family="Helvetica,sans-Serif" font-size="10.00">&#45; fTDelta</text>
<text text-anchor="start" x="138" y="-180.5" font-family="Helvetica,sans-Serif" font-size="10.00">&#45; fTLast</text>
<polyline fill="none" stroke="black" points="130,-173.5 274,-173.5 "/>
<text text-anchor="start" x="138" y="-161.5" font-family="Helvetica,sans-Serif" font-size="10.00">+ CreatePort_In()</text>
<text text-anchor="start" x="138" y="-150.5" font-family="Helvetica,sans-Serif" font-size="10.00">+ CreatePort_Out()</text>
<text text-anchor="start" x="138" y="-139.5" font-family="Helvetica,sans-Serif" font-size="10.00">+ OnEvent()</text>
<text text-anchor="start" x="138" y="-128.5" font-family="Helvetica,sans-Serif" font-size="10.00">+ OnEvent()</text>
<text text-anchor="start" x="138" y="-117.5" font-family="Helvetica,sans-Serif" font-size="10.00">+ OnEvent()</text>
<text text-anchor="start" x="138" y="-106.5" font-family="Helvetica,sans-Serif" font-size="10.00">+ OnEvent()</text>
<text text-anchor="start" x="138" y="-95.5" font-family="Helvetica,sans-Serif" font-size="10.00">+ StatsGet()</text>
<text text-anchor="start" x="138" y="-84.5" font-family="Helvetica,sans-Serif" font-size="10.00">+ CreateInstance()</text>
<text text-anchor="start" x="138" y="-73.5" font-family="Helvetica,sans-Serif" font-size="10.00"># _Register()</text>
<text text-anchor="start" x="138" y="-62.5" font-family="Helvetica,sans-Serif" font-size="10.00">&#45; TNodePump()</text>
<text text-anchor="start" x="138" y="-51.5" font-family="Helvetica,sans-Serif" font-size="10.00">&#45; _FetchAndSend()</text>
<text text-anchor="start" x="138" y="-40.5" font-family="Helvetica,sans-Serif" font-size="10.00">&#45; _Initialize()</text>
<text text-anchor="start" x="138" y="-29.5" font-family="Helvetica,sans-Serif" font-size="10.00">&#45; _RecomputeRuntimeStats()</text>
<text text-anchor="start" x="138" y="-18.5" font-family="Helvetica,sans-Serif" font-size="10.00">&#45; _Resolve_DataLoss()</text>
<text text-anchor="start" x="138" y="-7.5" font-family="Helvetica,sans-Serif" font-size="10.00">&#45; _SendNextPacket()</text>
</g>
<!-- Node2 -->
<g id="node2" class="node"><title>Node2</title>
<g id="a_node2"><a xlink:href="../../d5/d6a/classppm__java_1_1typelib_1_1_v_audio_processor.html" target="_top" xlink:title="Base class for all modules processing audio samples. ">
<polygon fill="white" stroke="black" points="-0.5,-359 -0.5,-537 106.5,-537 106.5,-359 -0.5,-359"/>
<text text-anchor="middle" x="53" y="-525" font-family="Helvetica,sans-Serif" font-size="10.00">VAudioProcessor</text>
<polyline fill="none" stroke="black" points="-0.5,-518 106.5,-518 "/>
<text text-anchor="start" x="7.5" y="-506" font-family="Helvetica,sans-Serif" font-size="10.00">&#45; fPortsIn</text>
<text text-anchor="start" x="7.5" y="-495" font-family="Helvetica,sans-Serif" font-size="10.00">&#45; fPortsOut</text>
<polyline fill="none" stroke="black" points="-0.5,-488 106.5,-488 "/>
<text text-anchor="start" x="7.5" y="-476" font-family="Helvetica,sans-Serif" font-size="10.00">+ VAudioProcessor()</text>
<text text-anchor="start" x="7.5" y="-465" font-family="Helvetica,sans-Serif" font-size="10.00">+ CreatePort_In()</text>
<text text-anchor="start" x="7.5" y="-454" font-family="Helvetica,sans-Serif" font-size="10.00">+ CreatePort_Out()</text>
<text text-anchor="start" x="7.5" y="-443" font-family="Helvetica,sans-Serif" font-size="10.00">+ GetNumPortsIn()</text>
<text text-anchor="start" x="7.5" y="-432" font-family="Helvetica,sans-Serif" font-size="10.00">+ GetNumPortsOut()</text>
<text text-anchor="start" x="7.5" y="-421" font-family="Helvetica,sans-Serif" font-size="10.00">+ GetPortIn()</text>
<text text-anchor="start" x="7.5" y="-410" font-family="Helvetica,sans-Serif" font-size="10.00">+ GetPortIn()</text>
<text text-anchor="start" x="7.5" y="-399" font-family="Helvetica,sans-Serif" font-size="10.00">+ GetPortOut()</text>
<text text-anchor="start" x="7.5" y="-388" font-family="Helvetica,sans-Serif" font-size="10.00">+ GetPortOut()</text>
<text text-anchor="start" x="7.5" y="-377" font-family="Helvetica,sans-Serif" font-size="10.00"># AddPortIn()</text>
<text text-anchor="start" x="7.5" y="-366" font-family="Helvetica,sans-Serif" font-size="10.00"># AddPortOut()</text>
</a>
</g>
</g>
<!-- Node2&#45;&gt;Node1 -->
<g id="edge1" class="edge"><title>Node2&#45;&gt;Node1</title>
<path fill="none" stroke="midnightblue" d="M103.764,-349.9C112.207,-333.752 121.103,-316.735 129.954,-299.807"/>
<polygon fill="none" stroke="midnightblue" points="100.656,-348.292 99.1241,-358.776 106.859,-351.536 100.656,-348.292"/>
</g>
<!-- Node3 -->
<g id="node3" class="node"><title>Node3</title>
<g id="a_node3"><a xlink:href="../../d1/db3/classppm__java_1_1typelib_1_1_v_audio_object.html" target="_top" xlink:title="Base class for all browseable audio objects. ">
<polygon fill="white" stroke="black" points="7,-574.5 7,-631.5 99,-631.5 99,-574.5 7,-574.5"/>
<text text-anchor="middle" x="53" y="-619.5" font-family="Helvetica,sans-Serif" font-size="10.00">VAudioObject</text>
<polyline fill="none" stroke="black" points="7,-612.5 99,-612.5 "/>
<text text-anchor="middle" x="53" y="-600.5" font-family="Helvetica,sans-Serif" font-size="10.00"> </text>
<polyline fill="none" stroke="black" points="7,-593.5 99,-593.5 "/>
<text text-anchor="start" x="15" y="-581.5" font-family="Helvetica,sans-Serif" font-size="10.00">+ VAudioObject()</text>
</a>
</g>
</g>
<!-- Node3&#45;&gt;Node2 -->
<g id="edge2" class="edge"><title>Node3&#45;&gt;Node2</title>
<path fill="none" stroke="midnightblue" d="M53,-564.166C53,-555.781 53,-546.554 53,-537.086"/>
<polygon fill="none" stroke="midnightblue" points="49.5001,-564.293 53,-574.293 56.5001,-564.293 49.5001,-564.293"/>
</g>
<!-- Node4 -->
<g id="node4" class="node"><title>Node4</title>
<g id="a_node4"><a xlink:href="../../de/dd1/classppm__java_1_1typelib_1_1_v_browseable.html" target="_top" xlink:title="Base class for all browseable objects. ">
<polygon fill="white" stroke="black" points="8.5,-668.5 8.5,-747.5 97.5,-747.5 97.5,-668.5 8.5,-668.5"/>
<text text-anchor="middle" x="53" y="-735.5" font-family="Helvetica,sans-Serif" font-size="10.00">VBrowseable</text>
<polyline fill="none" stroke="black" points="8.5,-728.5 97.5,-728.5 "/>
<text text-anchor="start" x="16.5" y="-716.5" font-family="Helvetica,sans-Serif" font-size="10.00">&#45; fID</text>
<polyline fill="none" stroke="black" points="8.5,-709.5 97.5,-709.5 "/>
<text text-anchor="start" x="16.5" y="-697.5" font-family="Helvetica,sans-Serif" font-size="10.00">+ VBrowseable()</text>
<text text-anchor="start" x="16.5" y="-686.5" font-family="Helvetica,sans-Serif" font-size="10.00">+ GetID()</text>
<text text-anchor="start" x="16.5" y="-675.5" font-family="Helvetica,sans-Serif" font-size="10.00"># _Register()</text>
</a>
</g>
</g>
<!-- Node4&#45;&gt;Node3 -->
<g id="edge3" class="edge"><title>Node4&#45;&gt;Node3</title>
<path fill="none" stroke="midnightblue" d="M53,-658.163C53,-649.04 53,-639.806 53,-631.61"/>
<polygon fill="none" stroke="midnightblue" points="49.5001,-658.354 53,-668.354 56.5001,-658.354 49.5001,-658.354"/>
</g>
<!-- Node5 -->
<g id="node5" class="node"><title>Node5</title>
<g id="a_node5"><a xlink:href="../../df/dbb/interfaceppm__java_1_1typelib_1_1_i_evented.html" target="_top" xlink:title="Base interface for the event system. ">
<polygon fill="white" stroke="black" points="125,-370 125,-526 279,-526 279,-370 125,-370"/>
<text text-anchor="middle" x="202" y="-514" font-family="Helvetica,sans-Serif" font-size="10.00">IEvented</text>
<polyline fill="none" stroke="black" points="125,-507 279,-507 "/>
<text text-anchor="start" x="133" y="-495" font-family="Helvetica,sans-Serif" font-size="10.00">+ gkEventBufferNotifyOverrun</text>
<text text-anchor="start" x="133" y="-484" font-family="Helvetica,sans-Serif" font-size="10.00">+ gkEventBufferNotifyUnderrun</text>
<text text-anchor="start" x="133" y="-473" font-family="Helvetica,sans-Serif" font-size="10.00">+ gkEventStart</text>
<text text-anchor="start" x="133" y="-462" font-family="Helvetica,sans-Serif" font-size="10.00">+ gkEventStop</text>
<text text-anchor="start" x="133" y="-451" font-family="Helvetica,sans-Serif" font-size="10.00">+ gkEventTimerAdjustInterval</text>
<text text-anchor="start" x="133" y="-440" font-family="Helvetica,sans-Serif" font-size="10.00">+ gkEventTimerNotifyInterval</text>
<text text-anchor="start" x="133" y="-429" font-family="Helvetica,sans-Serif" font-size="10.00">+ gkEventTimerTick</text>
<polyline fill="none" stroke="black" points="125,-422 279,-422 "/>
<text text-anchor="start" x="133" y="-410" font-family="Helvetica,sans-Serif" font-size="10.00">+ OnEvent()</text>
<text text-anchor="start" x="133" y="-399" font-family="Helvetica,sans-Serif" font-size="10.00">+ OnEvent()</text>
<text text-anchor="start" x="133" y="-388" font-family="Helvetica,sans-Serif" font-size="10.00">+ OnEvent()</text>
<text text-anchor="start" x="133" y="-377" font-family="Helvetica,sans-Serif" font-size="10.00">+ OnEvent()</text>
</a>
</g>
</g>
<!-- Node5&#45;&gt;Node1 -->
<g id="edge4" class="edge"><title>Node5&#45;&gt;Node1</title>
<path fill="none" stroke="midnightblue" d="M202,-359.751C202,-347.506 202,-334.618 202,-321.535"/>
<polygon fill="none" stroke="midnightblue" points="198.5,-359.875 202,-369.875 205.5,-359.875 198.5,-359.875"/>
</g>
<!-- Node6 -->
<g id="node6" class="node"><title>Node6</title>
<g id="a_node6"><a xlink:href="../../dc/dc0/interfaceppm__java_1_1typelib_1_1_i_stat_enabled.html" target="_top" xlink:title="Interface for an object that supports runtime statistics. ">
<polygon fill="white" stroke="black" points="297.5,-419.5 297.5,-476.5 370.5,-476.5 370.5,-419.5 297.5,-419.5"/>
<text text-anchor="middle" x="334" y="-464.5" font-family="Helvetica,sans-Serif" font-size="10.00">IStatEnabled</text>
<polyline fill="none" stroke="black" points="297.5,-457.5 370.5,-457.5 "/>
<text text-anchor="middle" x="334" y="-445.5" font-family="Helvetica,sans-Serif" font-size="10.00"> </text>
<polyline fill="none" stroke="black" points="297.5,-438.5 370.5,-438.5 "/>
<text text-anchor="start" x="305.5" y="-426.5" font-family="Helvetica,sans-Serif" font-size="10.00">+ StatsGet()</text>
</a>
</g>
</g>
<!-- Node6&#45;&gt;Node1 -->
<g id="edge5" class="edge"><title>Node6&#45;&gt;Node1</title>
<path fill="none" stroke="midnightblue" d="M316.984,-410.261C305.74,-385.984 290.157,-352.338 274.088,-317.645"/>
<polygon fill="none" stroke="midnightblue" points="313.845,-411.811 321.223,-419.414 320.196,-408.869 313.845,-411.811"/>
</g>
</g>
</svg>
