<?xml version="1.0" encoding="UTF-8" standalone="no"?>
<!DOCTYPE svg PUBLIC "-//W3C//DTD SVG 1.1//EN"
 "http://www.w3.org/Graphics/SVG/1.1/DTD/svg11.dtd">
<!-- Generated by graphviz version 2.36.0 (20140111.2315)
 -->
<!-- Title: TTickTimer Pages: 1 -->
<svg width="94pt" height="250pt"
 viewBox="0.00 0.00 94.00 250.00" xmlns="http://www.w3.org/2000/svg" xmlns:xlink="http://www.w3.org/1999/xlink">
<g id="graph0" class="graph" transform="scale(1 1) rotate(0) translate(4 246)">
<title>TTickTimer</title>
<polygon fill="white" stroke="none" points="-4,4 -4,-246 90,-246 90,4 -4,4"/>
<!-- Node1 -->
<g id="node1" class="node"><title>Node1</title>
<polygon fill="#bfbfbf" stroke="black" points="-1,-1 -1,-113 87,-113 87,-1 -1,-1"/>
<text text-anchor="middle" x="43" y="-101" font-family="Helvetica,sans-Serif" font-size="10.00">TTickTimer</text>
<polyline fill="none" stroke="black" points="-1,-94 87,-94 "/>
<text text-anchor="start" x="7" y="-82" font-family="Helvetica,sans-Serif" font-size="10.00">&#45; fExpireTime</text>
<text text-anchor="start" x="7" y="-71" font-family="Helvetica,sans-Serif" font-size="10.00">&#45; fStartTime</text>
<polyline fill="none" stroke="black" points="-1,-64 87,-64 "/>
<text text-anchor="start" x="7" y="-52" font-family="Helvetica,sans-Serif" font-size="10.00">+ TTickTimer()</text>
<text text-anchor="start" x="7" y="-41" font-family="Helvetica,sans-Serif" font-size="10.00">+ HasExpired()</text>
<text text-anchor="start" x="7" y="-30" font-family="Helvetica,sans-Serif" font-size="10.00">+ OnTimerTick()</text>
<text text-anchor="start" x="7" y="-19" font-family="Helvetica,sans-Serif" font-size="10.00">+ Start()</text>
<text text-anchor="start" x="7" y="-8" font-family="Helvetica,sans-Serif" font-size="10.00">+ Reset()</text>
</g>
<!-- Node2 -->
<g id="node2" class="node"><title>Node2</title>
<g id="a_node2"><a xlink:href="../../d7/d3c/enumppm__java_1_1util_1_1timer_1_1_e_timer_state.html" target="_top" xlink:title="Internal state of the TTickTimer. ">
<polygon fill="white" stroke="black" points="7.5,-162.5 7.5,-241.5 78.5,-241.5 78.5,-162.5 7.5,-162.5"/>
<text text-anchor="middle" x="43" y="-229.5" font-family="Helvetica,sans-Serif" font-size="10.00">ETimerState</text>
<polyline fill="none" stroke="black" points="7.5,-222.5 78.5,-222.5 "/>
<text text-anchor="start" x="15.5" y="-210.5" font-family="Helvetica,sans-Serif" font-size="10.00">+ kNull</text>
<text text-anchor="start" x="15.5" y="-199.5" font-family="Helvetica,sans-Serif" font-size="10.00">+ kRunning</text>
<text text-anchor="start" x="15.5" y="-188.5" font-family="Helvetica,sans-Serif" font-size="10.00">+ kExpired</text>
<polyline fill="none" stroke="black" points="7.5,-181.5 78.5,-181.5 "/>
<text text-anchor="middle" x="43" y="-169.5" font-family="Helvetica,sans-Serif" font-size="10.00"> </text>
</a>
</g>
</g>
<!-- Node2&#45;&gt;Node1 -->
<g id="edge1" class="edge"><title>Node2&#45;&gt;Node1</title>
<path fill="none" stroke="#404040" d="M43,-162.302C43,-150.831 43,-137.922 43,-125.196"/>
<polygon fill="none" stroke="#404040" points="43.0001,-125.103 39,-119.103 43,-113.103 47,-119.103 43.0001,-125.103"/>
<text text-anchor="middle" x="59.5" y="-135.5" font-family="Helvetica,sans-Serif" font-size="10.00"> &#45;fState</text>
</g>
</g>
</svg>
