<?xml version="1.0" encoding="UTF-8" standalone="no"?>
<!DOCTYPE svg PUBLIC "-//W3C//DTD SVG 1.1//EN"
 "http://www.w3.org/Graphics/SVG/1.1/DTD/svg11.dtd">
<!-- Generated by graphviz version 2.36.0 (20140111.2315)
 -->
<!-- Title: ReceiveSample Pages: 1 -->
<svg width="276pt" height="87pt"
 viewBox="0.00 0.00 276.00 87.00" xmlns="http://www.w3.org/2000/svg" xmlns:xlink="http://www.w3.org/1999/xlink">
<g id="graph0" class="graph" transform="scale(1 1) rotate(0) translate(4 83)">
<title>ReceiveSample</title>
<polygon fill="white" stroke="none" points="-4,4 -4,-83 272,-83 272,4 -4,4"/>
<!-- Node1 -->
<g id="node1" class="node"><title>Node1</title>
<polygon fill="#bfbfbf" stroke="black" points="0,-29.5 0,-48.5 86,-48.5 86,-29.5 0,-29.5"/>
<text text-anchor="middle" x="43" y="-36.5" font-family="Helvetica,sans-Serif" font-size="10.00">ReceiveSample</text>
</g>
<!-- Node2 -->
<g id="node2" class="node"><title>Node2</title>
<g id="a_node2"><a xlink:href="../../de/dc9/classppm__java_1_1typelib_1_1_v_audio_port.html#a7202e09bbcdbe3055e8dfe5c9bf29ac9" target="_top" xlink:title="ppm_java.typelib.VAudioPort.\l_GetHost">
<polygon fill="white" stroke="black" points="122,-49 122,-79 268,-79 268,-49 122,-49"/>
<text text-anchor="start" x="130" y="-67" font-family="Helvetica,sans-Serif" font-size="10.00">ppm_java.typelib.VAudioPort.</text>
<text text-anchor="middle" x="195" y="-56" font-family="Helvetica,sans-Serif" font-size="10.00">_GetHost</text>
</a>
</g>
</g>
<!-- Node1&#45;&gt;Node2 -->
<g id="edge1" class="edge"><title>Node1&#45;&gt;Node2</title>
<path fill="none" stroke="midnightblue" d="M86.1825,-46.0304C94.2413,-47.3735 102.93,-48.8216 111.753,-50.2922"/>
<polygon fill="midnightblue" stroke="midnightblue" points="111.307,-53.766 121.746,-51.9577 112.458,-46.8612 111.307,-53.766"/>
</g>
<!-- Node3 -->
<g id="node3" class="node"><title>Node3</title>
<g id="a_node3"><a xlink:href="../../d9/d0e/classppm__java_1_1typelib_1_1_v_audio_port___input.html#a42604a393bc100081f8c635e3b16242a" target="_top" xlink:title="ppm_java.typelib.VAudioPort\l_Input.GetPortNum">
<polygon fill="white" stroke="black" points="123.5,-0 123.5,-30 266.5,-30 266.5,-0 123.5,-0"/>
<text text-anchor="start" x="131.5" y="-18" font-family="Helvetica,sans-Serif" font-size="10.00">ppm_java.typelib.VAudioPort</text>
<text text-anchor="middle" x="195" y="-7" font-family="Helvetica,sans-Serif" font-size="10.00">_Input.GetPortNum</text>
</a>
</g>
</g>
<!-- Node1&#45;&gt;Node3 -->
<g id="edge2" class="edge"><title>Node1&#45;&gt;Node3</title>
<path fill="none" stroke="midnightblue" d="M86.1825,-32.2508C94.7097,-30.8864 103.942,-29.4093 113.293,-27.9131"/>
<polygon fill="midnightblue" stroke="midnightblue" points="114.138,-31.3226 123.459,-26.2865 113.032,-24.4105 114.138,-31.3226"/>
</g>
</g>
</svg>
