<?xml version="1.0" encoding="UTF-8" standalone="no"?>
<!DOCTYPE svg PUBLIC "-//W3C//DTD SVG 1.1//EN"
 "http://www.w3.org/Graphics/SVG/1.1/DTD/svg11.dtd">
<!-- Generated by graphviz version 2.36.0 (20140111.2315)
 -->
<!-- Title: TNodeIntegrator_PPMBallistics Pages: 1 -->
<svg width="378pt" height="702pt"
 viewBox="0.00 0.00 378.00 702.00" xmlns="http://www.w3.org/2000/svg" xmlns:xlink="http://www.w3.org/1999/xlink">
<g id="graph0" class="graph" transform="scale(1 1) rotate(0) translate(4 698)">
<title>TNodeIntegrator_PPMBallistics</title>
<polygon fill="white" stroke="none" points="-4,4 -4,-698 374,-698 374,4 -4,4"/>
<!-- Node1 -->
<g id="node1" class="node"><title>Node1</title>
<polygon fill="#bfbfbf" stroke="black" points="78,-1 78,-267 244,-267 244,-1 78,-1"/>
<text text-anchor="middle" x="161" y="-255" font-family="Helvetica,sans-Serif" font-size="10.00">TNodeIntegrator_PPMBallistics</text>
<polyline fill="none" stroke="black" points="78,-248 244,-248 "/>
<text text-anchor="start" x="86" y="-236" font-family="Helvetica,sans-Serif" font-size="10.00">&#45; fHasNotBeenInitialized</text>
<text text-anchor="start" x="86" y="-225" font-family="Helvetica,sans-Serif" font-size="10.00">&#45; fStats</text>
<text text-anchor="start" x="86" y="-214" font-family="Helvetica,sans-Serif" font-size="10.00">&#45; fTLast</text>
<text text-anchor="start" x="86" y="-203" font-family="Helvetica,sans-Serif" font-size="10.00">&#45; fValueDeltaFall</text>
<text text-anchor="start" x="86" y="-192" font-family="Helvetica,sans-Serif" font-size="10.00">&#45; fValueDeltaRise</text>
<text text-anchor="start" x="86" y="-181" font-family="Helvetica,sans-Serif" font-size="10.00">&#45; fVDB</text>
<text text-anchor="start" x="86" y="-170" font-family="Helvetica,sans-Serif" font-size="10.00">&#45; gkIntegrFallRangedB</text>
<text text-anchor="start" x="86" y="-159" font-family="Helvetica,sans-Serif" font-size="10.00">&#45; gkIntegrFallTime</text>
<text text-anchor="start" x="86" y="-148" font-family="Helvetica,sans-Serif" font-size="10.00">&#45; gkIntegrRiseRangedB</text>
<text text-anchor="start" x="86" y="-137" font-family="Helvetica,sans-Serif" font-size="10.00">&#45; gkIntegrRiseTime</text>
<polyline fill="none" stroke="black" points="78,-130 244,-130 "/>
<text text-anchor="start" x="86" y="-118" font-family="Helvetica,sans-Serif" font-size="10.00">+ CreatePort_In()</text>
<text text-anchor="start" x="86" y="-107" font-family="Helvetica,sans-Serif" font-size="10.00">+ CreatePort_Out()</text>
<text text-anchor="start" x="86" y="-96" font-family="Helvetica,sans-Serif" font-size="10.00">+ OnEvent()</text>
<text text-anchor="start" x="86" y="-85" font-family="Helvetica,sans-Serif" font-size="10.00">+ OnEvent()</text>
<text text-anchor="start" x="86" y="-74" font-family="Helvetica,sans-Serif" font-size="10.00">+ OnEvent()</text>
<text text-anchor="start" x="86" y="-63" font-family="Helvetica,sans-Serif" font-size="10.00">+ OnEvent()</text>
<text text-anchor="start" x="86" y="-52" font-family="Helvetica,sans-Serif" font-size="10.00">+ StatsGet()</text>
<text text-anchor="start" x="86" y="-41" font-family="Helvetica,sans-Serif" font-size="10.00">+ CreateInstance()</text>
<text text-anchor="start" x="86" y="-30" font-family="Helvetica,sans-Serif" font-size="10.00">~ SetRef()</text>
<text text-anchor="start" x="86" y="-19" font-family="Helvetica,sans-Serif" font-size="10.00"># _Register()</text>
<text text-anchor="start" x="86" y="-8" font-family="Helvetica,sans-Serif" font-size="10.00">&#45; TNodeIntegrator_PPMBallistics()</text>
</g>
<!-- Node2 -->
<g id="node2" class="node"><title>Node2</title>
<g id="a_node2"><a xlink:href="../../d5/d6a/classppm__java_1_1typelib_1_1_v_audio_processor.html" target="_top" xlink:title="Base class for all modules processing audio samples. ">
<polygon fill="white" stroke="black" points="-0.5,-305 -0.5,-483 106.5,-483 106.5,-305 -0.5,-305"/>
<text text-anchor="middle" x="53" y="-471" font-family="Helvetica,sans-Serif" font-size="10.00">VAudioProcessor</text>
<polyline fill="none" stroke="black" points="-0.5,-464 106.5,-464 "/>
<text text-anchor="start" x="7.5" y="-452" font-family="Helvetica,sans-Serif" font-size="10.00">&#45; fPortsIn</text>
<text text-anchor="start" x="7.5" y="-441" font-family="Helvetica,sans-Serif" font-size="10.00">&#45; fPortsOut</text>
<polyline fill="none" stroke="black" points="-0.5,-434 106.5,-434 "/>
<text text-anchor="start" x="7.5" y="-422" font-family="Helvetica,sans-Serif" font-size="10.00">+ VAudioProcessor()</text>
<text text-anchor="start" x="7.5" y="-411" font-family="Helvetica,sans-Serif" font-size="10.00">+ CreatePort_In()</text>
<text text-anchor="start" x="7.5" y="-400" font-family="Helvetica,sans-Serif" font-size="10.00">+ CreatePort_Out()</text>
<text text-anchor="start" x="7.5" y="-389" font-family="Helvetica,sans-Serif" font-size="10.00">+ GetNumPortsIn()</text>
<text text-anchor="start" x="7.5" y="-378" font-family="Helvetica,sans-Serif" font-size="10.00">+ GetNumPortsOut()</text>
<text text-anchor="start" x="7.5" y="-367" font-family="Helvetica,sans-Serif" font-size="10.00">+ GetPortIn()</text>
<text text-anchor="start" x="7.5" y="-356" font-family="Helvetica,sans-Serif" font-size="10.00">+ GetPortIn()</text>
<text text-anchor="start" x="7.5" y="-345" font-family="Helvetica,sans-Serif" font-size="10.00">+ GetPortOut()</text>
<text text-anchor="start" x="7.5" y="-334" font-family="Helvetica,sans-Serif" font-size="10.00">+ GetPortOut()</text>
<text text-anchor="start" x="7.5" y="-323" font-family="Helvetica,sans-Serif" font-size="10.00"># AddPortIn()</text>
<text text-anchor="start" x="7.5" y="-312" font-family="Helvetica,sans-Serif" font-size="10.00"># AddPortOut()</text>
</a>
</g>
</g>
<!-- Node2&#45;&gt;Node1 -->
<g id="edge1" class="edge"><title>Node2&#45;&gt;Node1</title>
<path fill="none" stroke="midnightblue" d="M93.755,-295.641C97.6811,-286.262 101.707,-276.645 105.742,-267.005"/>
<polygon fill="none" stroke="midnightblue" points="90.4983,-294.357 89.8654,-304.933 96.9554,-297.06 90.4983,-294.357"/>
</g>
<!-- Node3 -->
<g id="node3" class="node"><title>Node3</title>
<g id="a_node3"><a xlink:href="../../d1/db3/classppm__java_1_1typelib_1_1_v_audio_object.html" target="_top" xlink:title="Base class for all browseable audio objects. ">
<polygon fill="white" stroke="black" points="7,-520.5 7,-577.5 99,-577.5 99,-520.5 7,-520.5"/>
<text text-anchor="middle" x="53" y="-565.5" font-family="Helvetica,sans-Serif" font-size="10.00">VAudioObject</text>
<polyline fill="none" stroke="black" points="7,-558.5 99,-558.5 "/>
<text text-anchor="middle" x="53" y="-546.5" font-family="Helvetica,sans-Serif" font-size="10.00"> </text>
<polyline fill="none" stroke="black" points="7,-539.5 99,-539.5 "/>
<text text-anchor="start" x="15" y="-527.5" font-family="Helvetica,sans-Serif" font-size="10.00">+ VAudioObject()</text>
</a>
</g>
</g>
<!-- Node3&#45;&gt;Node2 -->
<g id="edge2" class="edge"><title>Node3&#45;&gt;Node2</title>
<path fill="none" stroke="midnightblue" d="M53,-510.166C53,-501.781 53,-492.554 53,-483.086"/>
<polygon fill="none" stroke="midnightblue" points="49.5001,-510.293 53,-520.293 56.5001,-510.293 49.5001,-510.293"/>
</g>
<!-- Node4 -->
<g id="node4" class="node"><title>Node4</title>
<g id="a_node4"><a xlink:href="../../de/dd1/classppm__java_1_1typelib_1_1_v_browseable.html" target="_top" xlink:title="Base class for all browseable objects. ">
<polygon fill="white" stroke="black" points="8.5,-614.5 8.5,-693.5 97.5,-693.5 97.5,-614.5 8.5,-614.5"/>
<text text-anchor="middle" x="53" y="-681.5" font-family="Helvetica,sans-Serif" font-size="10.00">VBrowseable</text>
<polyline fill="none" stroke="black" points="8.5,-674.5 97.5,-674.5 "/>
<text text-anchor="start" x="16.5" y="-662.5" font-family="Helvetica,sans-Serif" font-size="10.00">&#45; fID</text>
<polyline fill="none" stroke="black" points="8.5,-655.5 97.5,-655.5 "/>
<text text-anchor="start" x="16.5" y="-643.5" font-family="Helvetica,sans-Serif" font-size="10.00">+ VBrowseable()</text>
<text text-anchor="start" x="16.5" y="-632.5" font-family="Helvetica,sans-Serif" font-size="10.00">+ GetID()</text>
<text text-anchor="start" x="16.5" y="-621.5" font-family="Helvetica,sans-Serif" font-size="10.00"># _Register()</text>
</a>
</g>
</g>
<!-- Node4&#45;&gt;Node3 -->
<g id="edge3" class="edge"><title>Node4&#45;&gt;Node3</title>
<path fill="none" stroke="midnightblue" d="M53,-604.163C53,-595.04 53,-585.806 53,-577.61"/>
<polygon fill="none" stroke="midnightblue" points="49.5001,-604.354 53,-614.354 56.5001,-604.354 49.5001,-604.354"/>
</g>
<!-- Node5 -->
<g id="node5" class="node"><title>Node5</title>
<g id="a_node5"><a xlink:href="../../dc/dc0/interfaceppm__java_1_1typelib_1_1_i_stat_enabled.html" target="_top" xlink:title="Interface for an object that supports runtime statistics. ">
<polygon fill="white" stroke="black" points="124.5,-365.5 124.5,-422.5 197.5,-422.5 197.5,-365.5 124.5,-365.5"/>
<text text-anchor="middle" x="161" y="-410.5" font-family="Helvetica,sans-Serif" font-size="10.00">IStatEnabled</text>
<polyline fill="none" stroke="black" points="124.5,-403.5 197.5,-403.5 "/>
<text text-anchor="middle" x="161" y="-391.5" font-family="Helvetica,sans-Serif" font-size="10.00"> </text>
<polyline fill="none" stroke="black" points="124.5,-384.5 197.5,-384.5 "/>
<text text-anchor="start" x="132.5" y="-372.5" font-family="Helvetica,sans-Serif" font-size="10.00">+ StatsGet()</text>
</a>
</g>
</g>
<!-- Node5&#45;&gt;Node1 -->
<g id="edge4" class="edge"><title>Node5&#45;&gt;Node1</title>
<path fill="none" stroke="midnightblue" d="M161,-355.135C161,-331.472 161,-299.448 161,-267.159"/>
<polygon fill="none" stroke="midnightblue" points="157.5,-355.389 161,-365.389 164.5,-355.39 157.5,-355.389"/>
</g>
<!-- Node6 -->
<g id="node6" class="node"><title>Node6</title>
<g id="a_node6"><a xlink:href="../../df/dbb/interfaceppm__java_1_1typelib_1_1_i_evented.html" target="_top" xlink:title="Base interface for the event system. ">
<polygon fill="white" stroke="black" points="216,-316 216,-472 370,-472 370,-316 216,-316"/>
<text text-anchor="middle" x="293" y="-460" font-family="Helvetica,sans-Serif" font-size="10.00">IEvented</text>
<polyline fill="none" stroke="black" points="216,-453 370,-453 "/>
<text text-anchor="start" x="224" y="-441" font-family="Helvetica,sans-Serif" font-size="10.00">+ gkEventBufferNotifyOverrun</text>
<text text-anchor="start" x="224" y="-430" font-family="Helvetica,sans-Serif" font-size="10.00">+ gkEventBufferNotifyUnderrun</text>
<text text-anchor="start" x="224" y="-419" font-family="Helvetica,sans-Serif" font-size="10.00">+ gkEventStart</text>
<text text-anchor="start" x="224" y="-408" font-family="Helvetica,sans-Serif" font-size="10.00">+ gkEventStop</text>
<text text-anchor="start" x="224" y="-397" font-family="Helvetica,sans-Serif" font-size="10.00">+ gkEventTimerAdjustInterval</text>
<text text-anchor="start" x="224" y="-386" font-family="Helvetica,sans-Serif" font-size="10.00">+ gkEventTimerNotifyInterval</text>
<text text-anchor="start" x="224" y="-375" font-family="Helvetica,sans-Serif" font-size="10.00">+ gkEventTimerTick</text>
<polyline fill="none" stroke="black" points="216,-368 370,-368 "/>
<text text-anchor="start" x="224" y="-356" font-family="Helvetica,sans-Serif" font-size="10.00">+ OnEvent()</text>
<text text-anchor="start" x="224" y="-345" font-family="Helvetica,sans-Serif" font-size="10.00">+ OnEvent()</text>
<text text-anchor="start" x="224" y="-334" font-family="Helvetica,sans-Serif" font-size="10.00">+ OnEvent()</text>
<text text-anchor="start" x="224" y="-323" font-family="Helvetica,sans-Serif" font-size="10.00">+ OnEvent()</text>
</a>
</g>
</g>
<!-- Node6&#45;&gt;Node1 -->
<g id="edge5" class="edge"><title>Node6&#45;&gt;Node1</title>
<path fill="none" stroke="midnightblue" d="M248.88,-306.765C242.348,-293.998 235.494,-280.601 228.616,-267.159"/>
<polygon fill="none" stroke="midnightblue" points="245.904,-308.633 253.574,-315.941 252.136,-305.444 245.904,-308.633"/>
</g>
</g>
</svg>
