<?xml version="1.0" encoding="UTF-8" standalone="no"?>
<!DOCTYPE svg PUBLIC "-//W3C//DTD SVG 1.1//EN"
 "http://www.w3.org/Graphics/SVG/1.1/DTD/svg11.dtd">
<!-- Generated by graphviz version 2.36.0 (20140111.2315)
 -->
<!-- Title: VAudioPort_Input_Chunks_Buffered Pages: 1 -->
<svg width="522pt" height="702pt"
 viewBox="0.00 0.00 522.00 702.00" xmlns="http://www.w3.org/2000/svg" xmlns:xlink="http://www.w3.org/1999/xlink">
<g id="graph0" class="graph" transform="scale(1 1) rotate(0) translate(4 698)">
<title>VAudioPort_Input_Chunks_Buffered</title>
<polygon fill="white" stroke="none" points="-4,4 -4,-698 518,-698 518,4 -4,4"/>
<!-- Node1 -->
<g id="node1" class="node"><title>Node1</title>
<polygon fill="#bfbfbf" stroke="black" points="207,-106.5 207,-251.5 347,-251.5 347,-106.5 207,-106.5"/>
<text text-anchor="start" x="215" y="-239.5" font-family="Helvetica,sans-Serif" font-size="10.00">VAudioPort_Input_Chunks</text>
<text text-anchor="middle" x="277" y="-228.5" font-family="Helvetica,sans-Serif" font-size="10.00">_Buffered</text>
<polyline fill="none" stroke="black" points="207,-221.5 347,-221.5 "/>
<text text-anchor="start" x="215" y="-209.5" font-family="Helvetica,sans-Serif" font-size="10.00">&#45; fBuffer</text>
<polyline fill="none" stroke="black" points="207,-202.5 347,-202.5 "/>
<text text-anchor="start" x="215" y="-190.5" font-family="Helvetica,sans-Serif" font-size="10.00">+ FetchPacket()</text>
<text text-anchor="start" x="215" y="-179.5" font-family="Helvetica,sans-Serif" font-size="10.00">+ ReceivePacket()</text>
<text text-anchor="start" x="215" y="-168.5" font-family="Helvetica,sans-Serif" font-size="10.00">+ StatsClear()</text>
<text text-anchor="start" x="215" y="-157.5" font-family="Helvetica,sans-Serif" font-size="10.00">+ StatsGet()</text>
<text text-anchor="start" x="215" y="-146.5" font-family="Helvetica,sans-Serif" font-size="10.00"># VAudioPort_Input_Chunks</text>
<text text-anchor="start" x="215" y="-135.5" font-family="Helvetica,sans-Serif" font-size="10.00">_Buffered()</text>
<text text-anchor="start" x="215" y="-124.5" font-family="Helvetica,sans-Serif" font-size="10.00"># _Accept()</text>
<text text-anchor="start" x="215" y="-113.5" font-family="Helvetica,sans-Serif" font-size="10.00"># _GetType()</text>
</g>
<!-- Node6 -->
<g id="node6" class="node"><title>Node6</title>
<g id="a_node6"><a xlink:href="../../d2/d9c/classppm__java_1_1backend_1_1module_1_1__deprecated__ppm_1_1_t_node_p_p_m_processor___endpoint___in.html" target="_top" xlink:title="Audio input port for a TNodePPMProcessor. ">
<polygon fill="white" stroke="black" points="-0.5,-1 -0.5,-69 182.5,-69 182.5,-1 -0.5,-1"/>
<text text-anchor="middle" x="91" y="-57" font-family="Helvetica,sans-Serif" font-size="10.00">TNodePPMProcessor_Endpoint_In</text>
<polyline fill="none" stroke="black" points="-0.5,-50 182.5,-50 "/>
<text text-anchor="middle" x="91" y="-38" font-family="Helvetica,sans-Serif" font-size="10.00"> </text>
<polyline fill="none" stroke="black" points="-0.5,-31 182.5,-31 "/>
<text text-anchor="start" x="7.5" y="-19" font-family="Helvetica,sans-Serif" font-size="10.00"># TNodePPMProcessor_Endpoint_In()</text>
<text text-anchor="start" x="7.5" y="-8" font-family="Helvetica,sans-Serif" font-size="10.00"># _Register()</text>
</a>
</g>
</g>
<!-- Node1&#45;&gt;Node6 -->
<g id="edge5" class="edge"><title>Node1&#45;&gt;Node6</title>
<path fill="none" stroke="midnightblue" d="M198.867,-118.35C176.77,-101.48 153.524,-83.7331 134.293,-69.0516"/>
<polygon fill="none" stroke="midnightblue" points="196.874,-121.232 206.946,-124.518 201.122,-115.668 196.874,-121.232"/>
</g>
<!-- Node7 -->
<g id="node7" class="node"><title>Node7</title>
<g id="a_node7"><a xlink:href="../../db/d6c/classppm__java_1_1backend_1_1module_1_1jackd_1_1_t_audio_context___endpoint___in.html" target="_top" xlink:title="Audio input port for a TAudioContext_JackD. ">
<polygon fill="white" stroke="black" points="200.5,-1 200.5,-69 353.5,-69 353.5,-1 200.5,-1"/>
<text text-anchor="middle" x="277" y="-57" font-family="Helvetica,sans-Serif" font-size="10.00">TAudioContext_Endpoint_In</text>
<polyline fill="none" stroke="black" points="200.5,-50 353.5,-50 "/>
<text text-anchor="middle" x="277" y="-38" font-family="Helvetica,sans-Serif" font-size="10.00"> </text>
<polyline fill="none" stroke="black" points="200.5,-31 353.5,-31 "/>
<text text-anchor="start" x="208.5" y="-19" font-family="Helvetica,sans-Serif" font-size="10.00"># TAudioContext_Endpoint_In()</text>
<text text-anchor="start" x="208.5" y="-8" font-family="Helvetica,sans-Serif" font-size="10.00"># _Register()</text>
</a>
</g>
</g>
<!-- Node1&#45;&gt;Node7 -->
<g id="edge6" class="edge"><title>Node1&#45;&gt;Node7</title>
<path fill="none" stroke="midnightblue" d="M277,-95.9023C277,-86.5083 277,-77.3801 277,-69.1974"/>
<polygon fill="none" stroke="midnightblue" points="273.5,-96.168 277,-106.168 280.5,-96.168 273.5,-96.168"/>
</g>
<!-- Node8 -->
<g id="node8" class="node"><title>Node8</title>
<g id="a_node8"><a xlink:href="../../d3/d99/classppm__java_1_1backend_1_1module_1_1pump_1_1_t_node_pump___endpoint___in.html" target="_top" xlink:title="Audio input port for a TNodePump. ">
<polygon fill="white" stroke="black" points="371.5,-1 371.5,-69 514.5,-69 514.5,-1 371.5,-1"/>
<text text-anchor="middle" x="443" y="-57" font-family="Helvetica,sans-Serif" font-size="10.00">TNodePump_Endpoint_In</text>
<polyline fill="none" stroke="black" points="371.5,-50 514.5,-50 "/>
<text text-anchor="middle" x="443" y="-38" font-family="Helvetica,sans-Serif" font-size="10.00"> </text>
<polyline fill="none" stroke="black" points="371.5,-31 514.5,-31 "/>
<text text-anchor="start" x="379.5" y="-19" font-family="Helvetica,sans-Serif" font-size="10.00"># TNodePump_Endpoint_In()</text>
<text text-anchor="start" x="379.5" y="-8" font-family="Helvetica,sans-Serif" font-size="10.00"># _Register()</text>
</a>
</g>
</g>
<!-- Node1&#45;&gt;Node8 -->
<g id="edge7" class="edge"><title>Node1&#45;&gt;Node8</title>
<path fill="none" stroke="midnightblue" d="M355.184,-111.119C372.193,-96.5697 389.472,-81.7886 404.152,-69.2311"/>
<polygon fill="none" stroke="midnightblue" points="352.723,-108.619 347.399,-117.779 357.273,-113.938 352.723,-108.619"/>
</g>
<!-- Node2 -->
<g id="node2" class="node"><title>Node2</title>
<g id="a_node2"><a xlink:href="../../d9/d0e/classppm__java_1_1typelib_1_1_v_audio_port___input.html" target="_top" xlink:title="Base class for an input audio port. ">
<polygon fill="white" stroke="black" points="223,-288.5 223,-367.5 331,-367.5 331,-288.5 223,-288.5"/>
<text text-anchor="middle" x="277" y="-355.5" font-family="Helvetica,sans-Serif" font-size="10.00">VAudioPort_Input</text>
<polyline fill="none" stroke="black" points="223,-348.5 331,-348.5 "/>
<text text-anchor="start" x="231" y="-336.5" font-family="Helvetica,sans-Serif" font-size="10.00">&#45; fIPort</text>
<polyline fill="none" stroke="black" points="223,-329.5 331,-329.5 "/>
<text text-anchor="start" x="231" y="-317.5" font-family="Helvetica,sans-Serif" font-size="10.00">+ VAudioPort_Input()</text>
<text text-anchor="start" x="231" y="-306.5" font-family="Helvetica,sans-Serif" font-size="10.00">+ GetPortNum()</text>
<text text-anchor="start" x="231" y="-295.5" font-family="Helvetica,sans-Serif" font-size="10.00"># _Accept()</text>
</a>
</g>
</g>
<!-- Node2&#45;&gt;Node1 -->
<g id="edge1" class="edge"><title>Node2&#45;&gt;Node1</title>
<path fill="none" stroke="midnightblue" d="M277,-278.243C277,-269.699 277,-260.651 277,-251.64"/>
<polygon fill="none" stroke="midnightblue" points="273.5,-278.377 277,-288.377 280.5,-278.378 273.5,-278.377"/>
</g>
<!-- Node3 -->
<g id="node3" class="node"><title>Node3</title>
<g id="a_node3"><a xlink:href="../../de/dc9/classppm__java_1_1typelib_1_1_v_audio_port.html" target="_top" xlink:title="Base class for all audio ports. ">
<polygon fill="white" stroke="black" points="236.5,-404.5 236.5,-483.5 317.5,-483.5 317.5,-404.5 236.5,-404.5"/>
<text text-anchor="middle" x="277" y="-471.5" font-family="Helvetica,sans-Serif" font-size="10.00">VAudioPort</text>
<polyline fill="none" stroke="black" points="236.5,-464.5 317.5,-464.5 "/>
<text text-anchor="start" x="244.5" y="-452.5" font-family="Helvetica,sans-Serif" font-size="10.00">&#45; fHost</text>
<polyline fill="none" stroke="black" points="236.5,-445.5 317.5,-445.5 "/>
<text text-anchor="start" x="244.5" y="-433.5" font-family="Helvetica,sans-Serif" font-size="10.00">+ VAudioPort()</text>
<text text-anchor="start" x="244.5" y="-422.5" font-family="Helvetica,sans-Serif" font-size="10.00"># _GetHost()</text>
<text text-anchor="start" x="244.5" y="-411.5" font-family="Helvetica,sans-Serif" font-size="10.00"># _GetType()</text>
</a>
</g>
</g>
<!-- Node3&#45;&gt;Node2 -->
<g id="edge2" class="edge"><title>Node3&#45;&gt;Node2</title>
<path fill="none" stroke="midnightblue" d="M277,-394.146C277,-385.256 277,-376.096 277,-367.555"/>
<polygon fill="none" stroke="midnightblue" points="273.5,-394.405 277,-404.405 280.5,-394.405 273.5,-394.405"/>
</g>
<!-- Node4 -->
<g id="node4" class="node"><title>Node4</title>
<g id="a_node4"><a xlink:href="../../d1/db3/classppm__java_1_1typelib_1_1_v_audio_object.html" target="_top" xlink:title="Base class for all browseable audio objects. ">
<polygon fill="white" stroke="black" points="231,-520.5 231,-577.5 323,-577.5 323,-520.5 231,-520.5"/>
<text text-anchor="middle" x="277" y="-565.5" font-family="Helvetica,sans-Serif" font-size="10.00">VAudioObject</text>
<polyline fill="none" stroke="black" points="231,-558.5 323,-558.5 "/>
<text text-anchor="middle" x="277" y="-546.5" font-family="Helvetica,sans-Serif" font-size="10.00"> </text>
<polyline fill="none" stroke="black" points="231,-539.5 323,-539.5 "/>
<text text-anchor="start" x="239" y="-527.5" font-family="Helvetica,sans-Serif" font-size="10.00">+ VAudioObject()</text>
</a>
</g>
</g>
<!-- Node4&#45;&gt;Node3 -->
<g id="edge3" class="edge"><title>Node4&#45;&gt;Node3</title>
<path fill="none" stroke="midnightblue" d="M277,-510.156C277,-501.473 277,-492.232 277,-483.52"/>
<polygon fill="none" stroke="midnightblue" points="273.5,-510.398 277,-520.398 280.5,-510.398 273.5,-510.398"/>
</g>
<!-- Node5 -->
<g id="node5" class="node"><title>Node5</title>
<g id="a_node5"><a xlink:href="../../de/dd1/classppm__java_1_1typelib_1_1_v_browseable.html" target="_top" xlink:title="Base class for all browseable objects. ">
<polygon fill="white" stroke="black" points="232.5,-614.5 232.5,-693.5 321.5,-693.5 321.5,-614.5 232.5,-614.5"/>
<text text-anchor="middle" x="277" y="-681.5" font-family="Helvetica,sans-Serif" font-size="10.00">VBrowseable</text>
<polyline fill="none" stroke="black" points="232.5,-674.5 321.5,-674.5 "/>
<text text-anchor="start" x="240.5" y="-662.5" font-family="Helvetica,sans-Serif" font-size="10.00">&#45; fID</text>
<polyline fill="none" stroke="black" points="232.5,-655.5 321.5,-655.5 "/>
<text text-anchor="start" x="240.5" y="-643.5" font-family="Helvetica,sans-Serif" font-size="10.00">+ VBrowseable()</text>
<text text-anchor="start" x="240.5" y="-632.5" font-family="Helvetica,sans-Serif" font-size="10.00">+ GetID()</text>
<text text-anchor="start" x="240.5" y="-621.5" font-family="Helvetica,sans-Serif" font-size="10.00"># _Register()</text>
</a>
</g>
</g>
<!-- Node5&#45;&gt;Node4 -->
<g id="edge4" class="edge"><title>Node5&#45;&gt;Node4</title>
<path fill="none" stroke="midnightblue" d="M277,-604.163C277,-595.04 277,-585.806 277,-577.61"/>
<polygon fill="none" stroke="midnightblue" points="273.5,-604.354 277,-614.354 280.5,-604.354 273.5,-604.354"/>
</g>
</g>
</svg>
