<?xml version="1.0" encoding="UTF-8" standalone="no"?>
<!DOCTYPE svg PUBLIC "-//W3C//DTD SVG 1.1//EN"
 "http://www.w3.org/Graphics/SVG/1.1/DTD/svg11.dtd">
<!-- Generated by graphviz version 2.36.0 (20140111.2315)
 -->
<!-- Title: TGUILinearGauge_WndPPM Pages: 1 -->
<svg width="898pt" height="1092pt"
 viewBox="0.00 0.00 898.00 1092.00" xmlns="http://www.w3.org/2000/svg" xmlns:xlink="http://www.w3.org/1999/xlink">
<g id="graph0" class="graph" transform="scale(1 1) rotate(0) translate(4 1088)">
<title>TGUILinearGauge_WndPPM</title>
<polygon fill="white" stroke="none" points="-4,4 -4,-1088 894,-1088 894,4 -4,4"/>
<!-- Node1 -->
<g id="node1" class="node"><title>Node1</title>
<polygon fill="#bfbfbf" stroke="black" points="572,-464.5 572,-609.5 730,-609.5 730,-464.5 572,-464.5"/>
<text text-anchor="middle" x="651" y="-597.5" font-family="Helvetica,sans-Serif" font-size="10.00">TGUILinearGauge_WndPPM</text>
<polyline fill="none" stroke="black" points="572,-590.5 730,-590.5 "/>
<text text-anchor="start" x="580" y="-578.5" font-family="Helvetica,sans-Serif" font-size="10.00">&#45; gkIChanL</text>
<text text-anchor="start" x="580" y="-567.5" font-family="Helvetica,sans-Serif" font-size="10.00">&#45; gkIChanR</text>
<text text-anchor="start" x="580" y="-556.5" font-family="Helvetica,sans-Serif" font-size="10.00">&#45; serialVersionUID</text>
<polyline fill="none" stroke="black" points="572,-549.5 730,-549.5 "/>
<text text-anchor="start" x="580" y="-537.5" font-family="Helvetica,sans-Serif" font-size="10.00">+ TGUILinearGauge_WndPPM()</text>
<text text-anchor="start" x="580" y="-526.5" font-family="Helvetica,sans-Serif" font-size="10.00">+ ClippingSet()</text>
<text text-anchor="start" x="580" y="-515.5" font-family="Helvetica,sans-Serif" font-size="10.00">+ SetLevel()</text>
<text text-anchor="start" x="580" y="-504.5" font-family="Helvetica,sans-Serif" font-size="10.00">+ Terminate()</text>
<text text-anchor="start" x="580" y="-493.5" font-family="Helvetica,sans-Serif" font-size="10.00">~ _SetClipping()</text>
<text text-anchor="start" x="580" y="-482.5" font-family="Helvetica,sans-Serif" font-size="10.00">&#45; _OnWindowClose()</text>
<text text-anchor="start" x="580" y="-471.5" font-family="Helvetica,sans-Serif" font-size="10.00">&#45; initComponents()</text>
</g>
<!-- Node3 -->
<g id="node3" class="node"><title>Node3</title>
<g id="a_node3"><a xlink:href="../../d2/dd7/classppm__java_1_1frontend_1_1gui_1_1lineargauge_1_1_t_g_u_i_linear_gauge___surrogate.html" target="_top" xlink:title="The UI controller. ">
<polygon fill="white" stroke="black" points="426.5,-216.5 426.5,-383.5 581.5,-383.5 581.5,-216.5 426.5,-216.5"/>
<text text-anchor="middle" x="504" y="-371.5" font-family="Helvetica,sans-Serif" font-size="10.00">TGUILinearGauge_Surrogate</text>
<polyline fill="none" stroke="black" points="426.5,-364.5 581.5,-364.5 "/>
<text text-anchor="start" x="434.5" y="-352.5" font-family="Helvetica,sans-Serif" font-size="10.00">&#45; gkLvlClip</text>
<text text-anchor="start" x="434.5" y="-341.5" font-family="Helvetica,sans-Serif" font-size="10.00">&#45; gkLvlWarn</text>
<polyline fill="none" stroke="black" points="426.5,-334.5 581.5,-334.5 "/>
<text text-anchor="start" x="434.5" y="-322.5" font-family="Helvetica,sans-Serif" font-size="10.00">+ CreatePort_In()</text>
<text text-anchor="start" x="434.5" y="-311.5" font-family="Helvetica,sans-Serif" font-size="10.00">+ Start()</text>
<text text-anchor="start" x="434.5" y="-300.5" font-family="Helvetica,sans-Serif" font-size="10.00">+ StatsGet()</text>
<text text-anchor="start" x="434.5" y="-289.5" font-family="Helvetica,sans-Serif" font-size="10.00">+ Stop()</text>
<text text-anchor="start" x="434.5" y="-278.5" font-family="Helvetica,sans-Serif" font-size="10.00">+ CreateInstance()</text>
<text text-anchor="start" x="434.5" y="-267.5" font-family="Helvetica,sans-Serif" font-size="10.00">~ OnSigClip_Click()</text>
<text text-anchor="start" x="434.5" y="-256.5" font-family="Helvetica,sans-Serif" font-size="10.00">~ OnTerminate()</text>
<text text-anchor="start" x="434.5" y="-245.5" font-family="Helvetica,sans-Serif" font-size="10.00">~ SetLevel()</text>
<text text-anchor="start" x="434.5" y="-234.5" font-family="Helvetica,sans-Serif" font-size="10.00"># _Register()</text>
<text text-anchor="start" x="434.5" y="-223.5" font-family="Helvetica,sans-Serif" font-size="10.00">&#45; TGUILinearGauge_Surrogate()</text>
</a>
</g>
</g>
<!-- Node1&#45;&gt;Node3 -->
<g id="edge11" class="edge"><title>Node1&#45;&gt;Node3</title>
<path fill="none" stroke="#404040" d="M618.326,-464.43C611.397,-450.76 603.804,-436.748 596,-424 589.839,-413.936 583.059,-403.676 576.058,-393.589"/>
<polygon fill="none" stroke="#404040" points="575.912,-393.382 569.186,-390.782 568.999,-383.573 575.725,-386.173 575.912,-393.382"/>
<text text-anchor="middle" x="621" y="-432.5" font-family="Helvetica,sans-Serif" font-size="10.00"> &#45;fGUI</text>
</g>
<!-- Node16 -->
<g id="node16" class="node"><title>Node16</title>
<g id="a_node16"><a xlink:href="../../d4/dcb/classppm__java_1_1frontend_1_1gui_1_1lineargauge_1_1_t_g_u_i_linear_gauge___timer_clipping.html" target="_top" xlink:title="A monostable timer for a clipping LED on our PPM GUI. ">
<polygon fill="white" stroke="black" points="673,-194.5 673,-405.5 849,-405.5 849,-194.5 673,-194.5"/>
<text text-anchor="middle" x="761" y="-393.5" font-family="Helvetica,sans-Serif" font-size="10.00">TGUILinearGauge_TimerClipping</text>
<polyline fill="none" stroke="black" points="673,-386.5 849,-386.5 "/>
<text text-anchor="start" x="681" y="-374.5" font-family="Helvetica,sans-Serif" font-size="10.00">&#45; fChannel</text>
<text text-anchor="start" x="681" y="-363.5" font-family="Helvetica,sans-Serif" font-size="10.00">&#45; fState</text>
<text text-anchor="start" x="681" y="-352.5" font-family="Helvetica,sans-Serif" font-size="10.00">&#45; fTLast</text>
<text text-anchor="start" x="681" y="-341.5" font-family="Helvetica,sans-Serif" font-size="10.00">&#45; gkIntervalLoop</text>
<text text-anchor="start" x="681" y="-330.5" font-family="Helvetica,sans-Serif" font-size="10.00">&#45; gkIntervalWait</text>
<text text-anchor="start" x="681" y="-319.5" font-family="Helvetica,sans-Serif" font-size="10.00">&#45; gkStateClear</text>
<text text-anchor="start" x="681" y="-308.5" font-family="Helvetica,sans-Serif" font-size="10.00">&#45; gkStateErr</text>
<text text-anchor="start" x="681" y="-297.5" font-family="Helvetica,sans-Serif" font-size="10.00">&#45; gkStateTerm</text>
<text text-anchor="start" x="681" y="-286.5" font-family="Helvetica,sans-Serif" font-size="10.00">&#45; gkStateWarn</text>
<polyline fill="none" stroke="black" points="673,-279.5 849,-279.5 "/>
<text text-anchor="start" x="681" y="-267.5" font-family="Helvetica,sans-Serif" font-size="10.00">+ TGUILinearGauge_TimerClipping()</text>
<text text-anchor="start" x="681" y="-256.5" font-family="Helvetica,sans-Serif" font-size="10.00">+ run()</text>
<text text-anchor="start" x="681" y="-245.5" font-family="Helvetica,sans-Serif" font-size="10.00">+ SetClip()</text>
<text text-anchor="start" x="681" y="-234.5" font-family="Helvetica,sans-Serif" font-size="10.00">+ Terminate()</text>
<text text-anchor="start" x="681" y="-223.5" font-family="Helvetica,sans-Serif" font-size="10.00">&#45; _DoTransition()</text>
<text text-anchor="start" x="681" y="-212.5" font-family="Helvetica,sans-Serif" font-size="10.00">&#45; _SetLED()</text>
<text text-anchor="start" x="681" y="-201.5" font-family="Helvetica,sans-Serif" font-size="10.00">&#45; _TryReset()</text>
</a>
</g>
</g>
<!-- Node1&#45;&gt;Node16 -->
<g id="edge21" class="edge"><title>Node1&#45;&gt;Node16</title>
<path fill="none" stroke="#404040" d="M655.694,-464.325C658.126,-450.596 661.719,-436.588 667,-424 668.056,-421.483 669.176,-418.972 670.354,-416.471"/>
<polygon fill="none" stroke="#404040" points="670.448,-416.284 669.586,-409.125 675.864,-405.576 676.725,-412.735 670.448,-416.284"/>
<text text-anchor="middle" x="682.5" y="-432.5" font-family="Helvetica,sans-Serif" font-size="10.00"> &#45;fHost</text>
</g>
<!-- Node2 -->
<g id="node2" class="node"><title>Node2</title>
<polygon fill="white" stroke="#bfbfbf" points="785,-735.5 785,-792.5 835,-792.5 835,-735.5 785,-735.5"/>
<text text-anchor="middle" x="810" y="-780.5" font-family="Helvetica,sans-Serif" font-size="10.00">JFrame</text>
<polyline fill="none" stroke="#bfbfbf" points="785,-773.5 835,-773.5 "/>
<text text-anchor="middle" x="810" y="-761.5" font-family="Helvetica,sans-Serif" font-size="10.00"> </text>
<polyline fill="none" stroke="#bfbfbf" points="785,-754.5 835,-754.5 "/>
<text text-anchor="middle" x="810" y="-742.5" font-family="Helvetica,sans-Serif" font-size="10.00"> </text>
</g>
<!-- Node2&#45;&gt;Node1 -->
<g id="edge1" class="edge"><title>Node2&#45;&gt;Node1</title>
<path fill="none" stroke="midnightblue" d="M813.096,-725.088C813.454,-695.5 809.156,-655.015 787,-628 772.815,-610.704 759.379,-621.172 740,-610 736.729,-608.114 733.452,-606.111 730.19,-604.02"/>
<polygon fill="none" stroke="midnightblue" points="809.586,-725.348 812.778,-735.451 816.583,-725.563 809.586,-725.348"/>
</g>
<!-- Node3&#45;&gt;Node1 -->
<g id="edge2" class="edge"><title>Node3&#45;&gt;Node1</title>
<path fill="none" stroke="#404040" d="M515.584,-383.732C521.064,-405.136 529.131,-427.378 541,-446 541.019,-446.03 549.903,-453.304 562.614,-463.706"/>
<polygon fill="none" stroke="#404040" points="562.676,-463.757 569.853,-464.46 571.963,-471.356 564.787,-470.652 562.676,-463.757"/>
<text text-anchor="middle" x="568.5" y="-432.5" font-family="Helvetica,sans-Serif" font-size="10.00"> &#45;fConnector</text>
</g>
<!-- Node3&#45;&gt;Node3 -->
<g id="edge17" class="edge"><title>Node3&#45;&gt;Node3</title>
<path fill="none" stroke="#404040" d="M581.531,-321.624C592.018,-317.999 599,-310.791 599,-300 599,-293.424 596.407,-288.179 592.009,-284.264"/>
<polygon fill="none" stroke="#404040" points="591.992,-284.255 584.802,-284.802 581.531,-278.376 588.721,-277.828 591.992,-284.255"/>
<text text-anchor="middle" x="614" y="-297.5" font-family="Helvetica,sans-Serif" font-size="10.00"> &#45;gGUI</text>
</g>
<!-- Node12 -->
<g id="node12" class="node"><title>Node12</title>
<g id="a_node12"><a xlink:href="../../d2/dbc/classppm__java_1_1frontend_1_1gui_1_1lineargauge_1_1_t_g_u_i_linear_gauge___surrogate___stats.html" target="_top" xlink:title="Combined runtime statistics for all channels. ">
<polygon fill="white" stroke="black" points="297,-0.5 297,-145.5 449,-145.5 449,-0.5 297,-0.5"/>
<text text-anchor="start" x="305" y="-133.5" font-family="Helvetica,sans-Serif" font-size="10.00">TGUILinearGauge_Surrogate</text>
<text text-anchor="middle" x="373" y="-122.5" font-family="Helvetica,sans-Serif" font-size="10.00">_Stats</text>
<polyline fill="none" stroke="black" points="297,-115.5 449,-115.5 "/>
<text text-anchor="start" x="305" y="-103.5" font-family="Helvetica,sans-Serif" font-size="10.00">&#45; fT0</text>
<polyline fill="none" stroke="black" points="297,-96.5 449,-96.5 "/>
<text text-anchor="start" x="305" y="-84.5" font-family="Helvetica,sans-Serif" font-size="10.00">+ TGUILinearGauge_Surrogate</text>
<text text-anchor="start" x="305" y="-73.5" font-family="Helvetica,sans-Serif" font-size="10.00">_Stats()</text>
<text text-anchor="start" x="305" y="-62.5" font-family="Helvetica,sans-Serif" font-size="10.00">+ GetDumpStr()</text>
<text text-anchor="start" x="305" y="-51.5" font-family="Helvetica,sans-Serif" font-size="10.00">~ AddChannel()</text>
<text text-anchor="start" x="305" y="-40.5" font-family="Helvetica,sans-Serif" font-size="10.00">~ OnCycleTick()</text>
<text text-anchor="start" x="305" y="-29.5" font-family="Helvetica,sans-Serif" font-size="10.00">~ SetCalcSection()</text>
<text text-anchor="start" x="305" y="-18.5" font-family="Helvetica,sans-Serif" font-size="10.00">~ SetDBValue()</text>
<text text-anchor="start" x="305" y="-7.5" font-family="Helvetica,sans-Serif" font-size="10.00">~ SetDisplayValue()</text>
</a>
</g>
</g>
<!-- Node3&#45;&gt;Node12 -->
<g id="edge14" class="edge"><title>Node3&#45;&gt;Node12</title>
<path fill="none" stroke="#404040" d="M490.452,-216.454C485.383,-198.392 478.454,-179.928 469,-164 465.414,-157.959 461.305,-152.071 456.85,-146.386"/>
<polygon fill="none" stroke="#404040" points="456.731,-146.243 449.819,-144.189 449.056,-137.019 455.968,-139.073 456.731,-146.243"/>
<text text-anchor="middle" x="489.5" y="-167.5" font-family="Helvetica,sans-Serif" font-size="10.00"> &#45;fHost</text>
</g>
<!-- Node4 -->
<g id="node4" class="node"><title>Node4</title>
<g id="a_node4"><a xlink:href="../../da/d04/classppm__java_1_1typelib_1_1_v_frontend.html" target="_top" xlink:title="Base class for a front end. ">
<polygon fill="white" stroke="black" points="454,-497.5 454,-576.5 554,-576.5 554,-497.5 454,-497.5"/>
<text text-anchor="middle" x="504" y="-564.5" font-family="Helvetica,sans-Serif" font-size="10.00">VFrontend</text>
<polyline fill="none" stroke="black" points="454,-557.5 554,-557.5 "/>
<text text-anchor="middle" x="504" y="-545.5" font-family="Helvetica,sans-Serif" font-size="10.00"> </text>
<polyline fill="none" stroke="black" points="454,-538.5 554,-538.5 "/>
<text text-anchor="start" x="462" y="-526.5" font-family="Helvetica,sans-Serif" font-size="10.00">+ VFrontend()</text>
<text text-anchor="start" x="462" y="-515.5" font-family="Helvetica,sans-Serif" font-size="10.00">+ CreatePort_Out()</text>
<text text-anchor="start" x="462" y="-504.5" font-family="Helvetica,sans-Serif" font-size="10.00"># _OnTerminate()</text>
</a>
</g>
</g>
<!-- Node4&#45;&gt;Node3 -->
<g id="edge3" class="edge"><title>Node4&#45;&gt;Node3</title>
<path fill="none" stroke="midnightblue" d="M504,-487.309C504,-457.478 504,-418.509 504,-383.927"/>
<polygon fill="none" stroke="midnightblue" points="500.5,-487.458 504,-497.458 507.5,-487.458 500.5,-487.458"/>
</g>
<!-- Node5 -->
<g id="node5" class="node"><title>Node5</title>
<g id="a_node5"><a xlink:href="../../d5/d6a/classppm__java_1_1typelib_1_1_v_audio_processor.html" target="_top" xlink:title="Base class for all modules processing audio samples. ">
<polygon fill="white" stroke="black" points="407.5,-680.5 407.5,-847.5 514.5,-847.5 514.5,-680.5 407.5,-680.5"/>
<text text-anchor="middle" x="461" y="-835.5" font-family="Helvetica,sans-Serif" font-size="10.00">VAudioProcessor</text>
<polyline fill="none" stroke="black" points="407.5,-828.5 514.5,-828.5 "/>
<text text-anchor="middle" x="461" y="-816.5" font-family="Helvetica,sans-Serif" font-size="10.00"> </text>
<polyline fill="none" stroke="black" points="407.5,-809.5 514.5,-809.5 "/>
<text text-anchor="start" x="415.5" y="-797.5" font-family="Helvetica,sans-Serif" font-size="10.00">+ VAudioProcessor()</text>
<text text-anchor="start" x="415.5" y="-786.5" font-family="Helvetica,sans-Serif" font-size="10.00">+ CreatePort_In()</text>
<text text-anchor="start" x="415.5" y="-775.5" font-family="Helvetica,sans-Serif" font-size="10.00">+ CreatePort_Out()</text>
<text text-anchor="start" x="415.5" y="-764.5" font-family="Helvetica,sans-Serif" font-size="10.00">+ GetNumPortsIn()</text>
<text text-anchor="start" x="415.5" y="-753.5" font-family="Helvetica,sans-Serif" font-size="10.00">+ GetNumPortsOut()</text>
<text text-anchor="start" x="415.5" y="-742.5" font-family="Helvetica,sans-Serif" font-size="10.00">+ GetPortIn()</text>
<text text-anchor="start" x="415.5" y="-731.5" font-family="Helvetica,sans-Serif" font-size="10.00">+ GetPortIn()</text>
<text text-anchor="start" x="415.5" y="-720.5" font-family="Helvetica,sans-Serif" font-size="10.00">+ GetPortOut()</text>
<text text-anchor="start" x="415.5" y="-709.5" font-family="Helvetica,sans-Serif" font-size="10.00">+ GetPortOut()</text>
<text text-anchor="start" x="415.5" y="-698.5" font-family="Helvetica,sans-Serif" font-size="10.00"># AddPortIn()</text>
<text text-anchor="start" x="415.5" y="-687.5" font-family="Helvetica,sans-Serif" font-size="10.00"># AddPortOut()</text>
</a>
</g>
</g>
<!-- Node5&#45;&gt;Node4 -->
<g id="edge4" class="edge"><title>Node5&#45;&gt;Node4</title>
<path fill="none" stroke="midnightblue" d="M478.694,-670.413C484.958,-637.641 491.666,-602.54 496.601,-576.717"/>
<polygon fill="none" stroke="midnightblue" points="475.207,-670.017 476.767,-680.496 482.082,-671.331 475.207,-670.017"/>
</g>
<!-- Node6 -->
<g id="node6" class="node"><title>Node6</title>
<g id="a_node6"><a xlink:href="../../d1/db3/classppm__java_1_1typelib_1_1_v_audio_object.html" target="_top" xlink:title="Base class for all browseable audio objects. ">
<polygon fill="white" stroke="black" points="276,-902.5 276,-959.5 368,-959.5 368,-902.5 276,-902.5"/>
<text text-anchor="middle" x="322" y="-947.5" font-family="Helvetica,sans-Serif" font-size="10.00">VAudioObject</text>
<polyline fill="none" stroke="black" points="276,-940.5 368,-940.5 "/>
<text text-anchor="middle" x="322" y="-928.5" font-family="Helvetica,sans-Serif" font-size="10.00"> </text>
<polyline fill="none" stroke="black" points="276,-921.5 368,-921.5 "/>
<text text-anchor="start" x="284" y="-909.5" font-family="Helvetica,sans-Serif" font-size="10.00">+ VAudioObject()</text>
</a>
</g>
</g>
<!-- Node6&#45;&gt;Node5 -->
<g id="edge5" class="edge"><title>Node6&#45;&gt;Node5</title>
<path fill="none" stroke="midnightblue" d="M351.909,-894.496C368.063,-875.321 388.498,-851.064 407.303,-828.741"/>
<polygon fill="none" stroke="midnightblue" points="349.032,-892.48 345.265,-902.383 354.385,-896.99 349.032,-892.48"/>
</g>
<!-- Node7 -->
<g id="node7" class="node"><title>Node7</title>
<g id="a_node7"><a xlink:href="../../de/dd1/classppm__java_1_1typelib_1_1_v_browseable.html" target="_top" xlink:title="Base class for all browseable objects. ">
<polygon fill="white" stroke="black" points="277.5,-1004.5 277.5,-1083.5 366.5,-1083.5 366.5,-1004.5 277.5,-1004.5"/>
<text text-anchor="middle" x="322" y="-1071.5" font-family="Helvetica,sans-Serif" font-size="10.00">VBrowseable</text>
<polyline fill="none" stroke="black" points="277.5,-1064.5 366.5,-1064.5 "/>
<text text-anchor="start" x="285.5" y="-1052.5" font-family="Helvetica,sans-Serif" font-size="10.00">&#45; fID</text>
<polyline fill="none" stroke="black" points="277.5,-1045.5 366.5,-1045.5 "/>
<text text-anchor="start" x="285.5" y="-1033.5" font-family="Helvetica,sans-Serif" font-size="10.00">+ VBrowseable()</text>
<text text-anchor="start" x="285.5" y="-1022.5" font-family="Helvetica,sans-Serif" font-size="10.00">+ GetID()</text>
<text text-anchor="start" x="285.5" y="-1011.5" font-family="Helvetica,sans-Serif" font-size="10.00"># _Register()</text>
</a>
</g>
</g>
<!-- Node7&#45;&gt;Node6 -->
<g id="edge6" class="edge"><title>Node7&#45;&gt;Node6</title>
<path fill="none" stroke="midnightblue" d="M322,-994.227C322,-982.364 322,-970.085 322,-959.601"/>
<polygon fill="none" stroke="midnightblue" points="318.5,-994.489 322,-1004.49 325.5,-994.489 318.5,-994.489"/>
</g>
<!-- Node8 -->
<g id="node8" class="node"><title>Node8</title>
<polygon fill="white" stroke="#bfbfbf" points="386,-897 386,-965 536,-965 536,-897 386,-897"/>
<text text-anchor="start" x="394" y="-953" font-family="Helvetica,sans-Serif" font-size="10.00">TArrayMap&lt; ppm_java.typelib.</text>
<text text-anchor="middle" x="461" y="-942" font-family="Helvetica,sans-Serif" font-size="10.00">VAudioPort_Output &gt;</text>
<polyline fill="none" stroke="#bfbfbf" points="386,-935 536,-935 "/>
<text text-anchor="middle" x="461" y="-923" font-family="Helvetica,sans-Serif" font-size="10.00"> </text>
<polyline fill="none" stroke="#bfbfbf" points="386,-916 536,-916 "/>
<text text-anchor="middle" x="461" y="-904" font-family="Helvetica,sans-Serif" font-size="10.00"> </text>
</g>
<!-- Node8&#45;&gt;Node5 -->
<g id="edge7" class="edge"><title>Node8&#45;&gt;Node5</title>
<path fill="none" stroke="#404040" d="M461,-896.61C461,-885.723 461,-873.043 461,-859.934"/>
<polygon fill="none" stroke="#404040" points="461,-859.813 457,-853.813 461,-847.813 465,-853.813 461,-859.813"/>
<text text-anchor="middle" x="485.5" y="-869.5" font-family="Helvetica,sans-Serif" font-size="10.00"> &#45;fPortsOut</text>
</g>
<!-- Node9 -->
<g id="node9" class="node"><title>Node9</title>
<polygon fill="white" stroke="#bfbfbf" points="554,-897 554,-965 704,-965 704,-897 554,-897"/>
<text text-anchor="start" x="562" y="-953" font-family="Helvetica,sans-Serif" font-size="10.00">TArrayMap&lt; ppm_java.typelib.</text>
<text text-anchor="middle" x="629" y="-942" font-family="Helvetica,sans-Serif" font-size="10.00">VAudioPort_Input &gt;</text>
<polyline fill="none" stroke="#bfbfbf" points="554,-935 704,-935 "/>
<text text-anchor="middle" x="629" y="-923" font-family="Helvetica,sans-Serif" font-size="10.00"> </text>
<polyline fill="none" stroke="#bfbfbf" points="554,-916 704,-916 "/>
<text text-anchor="middle" x="629" y="-904" font-family="Helvetica,sans-Serif" font-size="10.00"> </text>
</g>
<!-- Node9&#45;&gt;Node5 -->
<g id="edge8" class="edge"><title>Node9&#45;&gt;Node5</title>
<path fill="none" stroke="#404040" d="M581.358,-896.907C562.574,-882.836 541.379,-865.62 524,-848 523.603,-847.598 523.206,-847.192 522.81,-846.785"/>
<polygon fill="none" stroke="#404040" points="522.731,-846.7 515.716,-845.032 514.557,-837.915 521.573,-839.583 522.731,-846.7"/>
<text text-anchor="middle" x="576.5" y="-869.5" font-family="Helvetica,sans-Serif" font-size="10.00"> &#45;fPortsIn</text>
</g>
<!-- Node10 -->
<g id="node10" class="node"><title>Node10</title>
<g id="a_node10"><a xlink:href="../../db/d44/interfaceppm__java_1_1typelib_1_1_i_controllable.html" target="_top" xlink:title="A module or construct which can receive some low level control commands (start/stop etc...">
<polygon fill="white" stroke="black" points="273.5,-503 273.5,-571 344.5,-571 344.5,-503 273.5,-503"/>
<text text-anchor="middle" x="309" y="-559" font-family="Helvetica,sans-Serif" font-size="10.00">IControllable</text>
<polyline fill="none" stroke="black" points="273.5,-552 344.5,-552 "/>
<text text-anchor="middle" x="309" y="-540" font-family="Helvetica,sans-Serif" font-size="10.00"> </text>
<polyline fill="none" stroke="black" points="273.5,-533 344.5,-533 "/>
<text text-anchor="start" x="281.5" y="-521" font-family="Helvetica,sans-Serif" font-size="10.00">+ Start()</text>
<text text-anchor="start" x="281.5" y="-510" font-family="Helvetica,sans-Serif" font-size="10.00">+ Stop()</text>
</a>
</g>
</g>
<!-- Node10&#45;&gt;Node3 -->
<g id="edge9" class="edge"><title>Node10&#45;&gt;Node3</title>
<path fill="none" stroke="midnightblue" d="M332.597,-494.024C339.033,-483.826 346.356,-473.212 354,-464 378.304,-434.711 390.799,-433.605 417,-406 423.763,-398.874 430.62,-391.299 437.363,-383.608"/>
<polygon fill="none" stroke="midnightblue" points="329.437,-492.481 327.183,-502.833 335.401,-496.146 329.437,-492.481"/>
</g>
<!-- Node11 -->
<g id="node11" class="node"><title>Node11</title>
<g id="a_node11"><a xlink:href="../../dc/dc0/interfaceppm__java_1_1typelib_1_1_i_stat_enabled.html" target="_top" xlink:title="Interface for an object that supports runtime statistics. ">
<polygon fill="white" stroke="black" points="362.5,-508.5 362.5,-565.5 435.5,-565.5 435.5,-508.5 362.5,-508.5"/>
<text text-anchor="middle" x="399" y="-553.5" font-family="Helvetica,sans-Serif" font-size="10.00">IStatEnabled</text>
<polyline fill="none" stroke="black" points="362.5,-546.5 435.5,-546.5 "/>
<text text-anchor="middle" x="399" y="-534.5" font-family="Helvetica,sans-Serif" font-size="10.00"> </text>
<polyline fill="none" stroke="black" points="362.5,-527.5 435.5,-527.5 "/>
<text text-anchor="start" x="370.5" y="-515.5" font-family="Helvetica,sans-Serif" font-size="10.00">+ StatsGet()</text>
</a>
</g>
</g>
<!-- Node11&#45;&gt;Node3 -->
<g id="edge10" class="edge"><title>Node11&#45;&gt;Node3</title>
<path fill="none" stroke="midnightblue" d="M415.703,-498.616C429.498,-467.743 449.587,-422.783 467.119,-383.544"/>
<polygon fill="none" stroke="midnightblue" points="412.341,-497.562 411.457,-508.12 418.732,-500.417 412.341,-497.562"/>
</g>
<!-- Node12&#45;&gt;Node3 -->
<g id="edge12" class="edge"><title>Node12&#45;&gt;Node3</title>
<path fill="none" stroke="#404040" d="M420.029,-145.906C423.798,-151.991 427.499,-158.08 431,-164 438.89,-177.341 446.964,-191.59 454.73,-205.645"/>
<polygon fill="none" stroke="#404040" points="454.825,-205.818 461.22,-209.152 460.601,-216.337 454.207,-213.003 454.825,-205.818"/>
<text text-anchor="middle" x="451" y="-167.5" font-family="Helvetica,sans-Serif" font-size="10.00"> &#45;fStat</text>
</g>
<!-- Node13 -->
<g id="node13" class="node"><title>Node13</title>
<g id="a_node13"><a xlink:href="../../d7/d5a/interfaceppm__java_1_1typelib_1_1_i_stats.html" target="_top" xlink:title="Interface for a statistics record. ">
<polygon fill="white" stroke="black" points="0,-271.5 0,-328.5 86,-328.5 86,-271.5 0,-271.5"/>
<text text-anchor="middle" x="43" y="-316.5" font-family="Helvetica,sans-Serif" font-size="10.00">IStats</text>
<polyline fill="none" stroke="black" points="0,-309.5 86,-309.5 "/>
<text text-anchor="middle" x="43" y="-297.5" font-family="Helvetica,sans-Serif" font-size="10.00"> </text>
<polyline fill="none" stroke="black" points="0,-290.5 86,-290.5 "/>
<text text-anchor="start" x="8" y="-278.5" font-family="Helvetica,sans-Serif" font-size="10.00">+ GetDumpStr()</text>
</a>
</g>
</g>
<!-- Node13&#45;&gt;Node12 -->
<g id="edge13" class="edge"><title>Node13&#45;&gt;Node12</title>
<path fill="none" stroke="midnightblue" d="M54.1596,-261.736C62.3993,-239.63 75.5913,-212.419 95,-194 151.53,-140.354 235.816,-108.598 296.754,-91.3695"/>
<polygon fill="none" stroke="midnightblue" points="50.8579,-260.574 50.8228,-271.169 57.4573,-262.909 50.8579,-260.574"/>
</g>
<!-- Node14 -->
<g id="node14" class="node"><title>Node14</title>
<polygon fill="white" stroke="#bfbfbf" points="104.5,-266 104.5,-334 321.5,-334 321.5,-266 104.5,-266"/>
<text text-anchor="start" x="112.5" y="-322" font-family="Helvetica,sans-Serif" font-size="10.00">ArrayList&lt; ppm_java.frontend.gui.lineargauge.</text>
<text text-anchor="middle" x="213" y="-311" font-family="Helvetica,sans-Serif" font-size="10.00">TGUILinearGauge_Surrogate_Stats_Record &gt;</text>
<polyline fill="none" stroke="#bfbfbf" points="104.5,-304 321.5,-304 "/>
<text text-anchor="middle" x="213" y="-292" font-family="Helvetica,sans-Serif" font-size="10.00"> </text>
<polyline fill="none" stroke="#bfbfbf" points="104.5,-285 321.5,-285 "/>
<text text-anchor="middle" x="213" y="-273" font-family="Helvetica,sans-Serif" font-size="10.00"> </text>
</g>
<!-- Node14&#45;&gt;Node12 -->
<g id="edge15" class="edge"><title>Node14&#45;&gt;Node12</title>
<path fill="none" stroke="#404040" d="M232.945,-265.874C249.981,-238.127 275.544,-197.757 300,-164 302.047,-161.174 304.152,-158.318 306.297,-155.449"/>
<polygon fill="none" stroke="#404040" points="306.466,-155.227 306.908,-148.029 313.722,-145.669 313.28,-152.866 306.466,-155.227"/>
<text text-anchor="middle" x="334.5" y="-167.5" font-family="Helvetica,sans-Serif" font-size="10.00"> &#45;fStatChannels</text>
</g>
<!-- Node15 -->
<g id="node15" class="node"><title>Node15</title>
<polygon fill="white" stroke="#bfbfbf" points="340,-271.5 340,-328.5 408,-328.5 408,-271.5 340,-271.5"/>
<text text-anchor="middle" x="374" y="-316.5" font-family="Helvetica,sans-Serif" font-size="10.00">AtomicLong</text>
<polyline fill="none" stroke="#bfbfbf" points="340,-309.5 408,-309.5 "/>
<text text-anchor="middle" x="374" y="-297.5" font-family="Helvetica,sans-Serif" font-size="10.00"> </text>
<polyline fill="none" stroke="#bfbfbf" points="340,-290.5 408,-290.5 "/>
<text text-anchor="middle" x="374" y="-278.5" font-family="Helvetica,sans-Serif" font-size="10.00"> </text>
</g>
<!-- Node15&#45;&gt;Node12 -->
<g id="edge16" class="edge"><title>Node15&#45;&gt;Node12</title>
<path fill="none" stroke="#404040" d="M373.877,-271.411C373.752,-243.229 373.551,-198.052 373.373,-158.024"/>
<polygon fill="none" stroke="#404040" points="373.373,-157.791 369.346,-151.808 373.319,-145.791 377.346,-151.773 373.373,-157.791"/>
<text text-anchor="middle" x="401.5" y="-167.5" font-family="Helvetica,sans-Serif" font-size="10.00"> &#45;fTimeCycle</text>
</g>
<!-- Node16&#45;&gt;Node1 -->
<g id="edge18" class="edge"><title>Node16&#45;&gt;Node1</title>
<path fill="none" stroke="#404040" d="M720.216,-405.862C714.369,-419.485 708.219,-433.158 702,-446 700.823,-448.43 699.609,-450.884 698.366,-453.352"/>
<polygon fill="none" stroke="#404040" points="698.257,-453.563 699.06,-460.73 692.753,-464.227 691.951,-457.061 698.257,-453.563"/>
<text text-anchor="middle" x="731" y="-438" font-family="Helvetica,sans-Serif" font-size="10.00"> &#45;fTimerL</text>
<text text-anchor="middle" x="731" y="-427" font-family="Helvetica,sans-Serif" font-size="10.00">&#45;fTimerR</text>
</g>
<!-- Node17 -->
<g id="node17" class="node"><title>Node17</title>
<polygon fill="white" stroke="#bfbfbf" points="843.5,-508.5 843.5,-565.5 890.5,-565.5 890.5,-508.5 843.5,-508.5"/>
<text text-anchor="middle" x="867" y="-553.5" font-family="Helvetica,sans-Serif" font-size="10.00">Thread</text>
<polyline fill="none" stroke="#bfbfbf" points="843.5,-546.5 890.5,-546.5 "/>
<text text-anchor="middle" x="867" y="-534.5" font-family="Helvetica,sans-Serif" font-size="10.00"> </text>
<polyline fill="none" stroke="#bfbfbf" points="843.5,-527.5 890.5,-527.5 "/>
<text text-anchor="middle" x="867" y="-515.5" font-family="Helvetica,sans-Serif" font-size="10.00"> </text>
</g>
<!-- Node17&#45;&gt;Node16 -->
<g id="edge19" class="edge"><title>Node17&#45;&gt;Node16</title>
<path fill="none" stroke="midnightblue" d="M854.793,-498.784C847.216,-476.747 836.874,-448.446 826,-424 823.301,-417.931 820.431,-411.747 817.459,-405.542"/>
<polygon fill="none" stroke="midnightblue" points="851.54,-500.089 858.071,-508.432 858.168,-497.837 851.54,-500.089"/>
</g>
<!-- Node18 -->
<g id="node18" class="node"><title>Node18</title>
<polygon fill="white" stroke="#bfbfbf" points="748.5,-508.5 748.5,-565.5 825.5,-565.5 825.5,-508.5 748.5,-508.5"/>
<text text-anchor="middle" x="787" y="-553.5" font-family="Helvetica,sans-Serif" font-size="10.00">AtomicInteger</text>
<polyline fill="none" stroke="#bfbfbf" points="748.5,-546.5 825.5,-546.5 "/>
<text text-anchor="middle" x="787" y="-534.5" font-family="Helvetica,sans-Serif" font-size="10.00"> </text>
<polyline fill="none" stroke="#bfbfbf" points="748.5,-527.5 825.5,-527.5 "/>
<text text-anchor="middle" x="787" y="-515.5" font-family="Helvetica,sans-Serif" font-size="10.00"> </text>
</g>
<!-- Node18&#45;&gt;Node16 -->
<g id="edge20" class="edge"><title>Node18&#45;&gt;Node16</title>
<path fill="none" stroke="#404040" d="M783.915,-508.12C781.388,-485.281 777.631,-451.32 773.886,-417.472"/>
<polygon fill="none" stroke="#404040" points="773.884,-417.45 769.248,-411.927 772.564,-405.523 777.2,-411.047 773.884,-417.45"/>
<text text-anchor="middle" x="799" y="-432.5" font-family="Helvetica,sans-Serif" font-size="10.00"> &#45;fRequest</text>
</g>
<!-- Node19 -->
<g id="node19" class="node"><title>Node19</title>
<polygon fill="white" stroke="#bfbfbf" points="533,-735.5 533,-792.5 615,-792.5 615,-735.5 533,-735.5"/>
<text text-anchor="middle" x="574" y="-780.5" font-family="Helvetica,sans-Serif" font-size="10.00">LinearBargraph</text>
<polyline fill="none" stroke="#bfbfbf" points="533,-773.5 615,-773.5 "/>
<text text-anchor="middle" x="574" y="-761.5" font-family="Helvetica,sans-Serif" font-size="10.00"> </text>
<polyline fill="none" stroke="#bfbfbf" points="533,-754.5 615,-754.5 "/>
<text text-anchor="middle" x="574" y="-742.5" font-family="Helvetica,sans-Serif" font-size="10.00"> </text>
</g>
<!-- Node19&#45;&gt;Node1 -->
<g id="edge22" class="edge"><title>Node19&#45;&gt;Node1</title>
<path fill="none" stroke="#404040" d="M577.978,-735.249C582.456,-707.526 590.87,-663.973 604,-628 604.862,-625.639 605.773,-623.262 606.726,-620.878"/>
<polygon fill="none" stroke="#404040" points="606.779,-620.753 605.436,-613.668 611.459,-609.703 612.803,-616.788 606.779,-620.753"/>
<text text-anchor="middle" x="625" y="-648" font-family="Helvetica,sans-Serif" font-size="10.00"> &#45;fMeterR</text>
<text text-anchor="middle" x="625" y="-637" font-family="Helvetica,sans-Serif" font-size="10.00">&#45;fMeterL</text>
</g>
<!-- Node20 -->
<g id="node20" class="node"><title>Node20</title>
<polygon fill="white" stroke="#bfbfbf" points="633,-735.5 633,-792.5 689,-792.5 689,-735.5 633,-735.5"/>
<text text-anchor="middle" x="661" y="-780.5" font-family="Helvetica,sans-Serif" font-size="10.00">LedColor</text>
<polyline fill="none" stroke="#bfbfbf" points="633,-773.5 689,-773.5 "/>
<text text-anchor="middle" x="661" y="-761.5" font-family="Helvetica,sans-Serif" font-size="10.00"> </text>
<polyline fill="none" stroke="#bfbfbf" points="633,-754.5 689,-754.5 "/>
<text text-anchor="middle" x="661" y="-742.5" font-family="Helvetica,sans-Serif" font-size="10.00"> </text>
</g>
<!-- Node20&#45;&gt;Node1 -->
<g id="edge23" class="edge"><title>Node20&#45;&gt;Node1</title>
<path fill="none" stroke="#404040" d="M657.911,-735.176C655.811,-714.914 653.203,-686.793 652,-662 651.369,-648.994 650.981,-635.212 650.755,-621.746"/>
<polygon fill="none" stroke="#404040" points="650.752,-621.499 646.672,-615.553 650.591,-609.5 654.671,-615.446 650.752,-621.499"/>
<text text-anchor="middle" x="685.5" y="-653.5" font-family="Helvetica,sans-Serif" font-size="10.00"> &#45;kColorNormal</text>
<text text-anchor="middle" x="685.5" y="-642.5" font-family="Helvetica,sans-Serif" font-size="10.00">&#45;kColorWarn</text>
<text text-anchor="middle" x="685.5" y="-631.5" font-family="Helvetica,sans-Serif" font-size="10.00">&#45;kColorClip</text>
</g>
<!-- Node21 -->
<g id="node21" class="node"><title>Node21</title>
<polygon fill="white" stroke="#bfbfbf" points="717.5,-735.5 717.5,-792.5 764.5,-792.5 764.5,-735.5 717.5,-735.5"/>
<text text-anchor="middle" x="741" y="-780.5" font-family="Helvetica,sans-Serif" font-size="10.00">JPanel</text>
<polyline fill="none" stroke="#bfbfbf" points="717.5,-773.5 764.5,-773.5 "/>
<text text-anchor="middle" x="741" y="-761.5" font-family="Helvetica,sans-Serif" font-size="10.00"> </text>
<polyline fill="none" stroke="#bfbfbf" points="717.5,-754.5 764.5,-754.5 "/>
<text text-anchor="middle" x="741" y="-742.5" font-family="Helvetica,sans-Serif" font-size="10.00"> </text>
</g>
<!-- Node21&#45;&gt;Node1 -->
<g id="edge24" class="edge"><title>Node21&#45;&gt;Node1</title>
<path fill="none" stroke="#404040" d="M740.359,-735.285C738.834,-707.208 733.993,-663.041 719,-628 717.879,-625.379 716.665,-622.766 715.374,-620.167"/>
<polygon fill="none" stroke="#404040" points="715.361,-620.145 708.991,-616.766 709.659,-609.586 716.03,-612.965 715.361,-620.145"/>
<text text-anchor="middle" x="756" y="-648" font-family="Helvetica,sans-Serif" font-size="10.00"> &#45;fPnlMeterL</text>
<text text-anchor="middle" x="756" y="-637" font-family="Helvetica,sans-Serif" font-size="10.00">&#45;fPnlMeterR</text>
</g>
</g>
</svg>
