<?xml version="1.0" encoding="UTF-8" standalone="no"?>
<!DOCTYPE svg PUBLIC "-//W3C//DTD SVG 1.1//EN"
 "http://www.w3.org/Graphics/SVG/1.1/DTD/svg11.dtd">
<!-- Generated by graphviz version 2.36.0 (20140111.2315)
 -->
<!-- Title: IStats Pages: 1 -->
<!--zoomable 358 -->
<svg id="main" version="1.1" xmlns="http://www.w3.org/2000/svg" xmlns:xlink="http://www.w3.org/1999/xlink" xml:space="preserve" onload="init(evt)">
<style type="text/css"><![CDATA[
.edge:hover path { stroke: red; }
.edge:hover polygon { stroke: red; fill: red; }
]]></style>
<script type="text/javascript"><![CDATA[
var edges = document.getElementsByTagName('g');
if (edges && edges.length) {
  for (var i=0;i<edges.length;i++) {
    if (edges[i].id.substr(0,4)=='edge') {
      edges[i].setAttribute('class','edge');
    }
  }
}
]]></script>
        <defs>
                <circle id="rim" cx="0" cy="0" r="7"/>
                <circle id="rim2" cx="0" cy="0" r="3.5"/>
                <g id="zoomPlus">
                        <use xlink:href="#rim" fill="#404040">
                                <set attributeName="fill" to="#808080" begin="zoomplus.mouseover" end="zoomplus.mouseout"/>
                        </use>
                        <path d="M-4,0h8M0,-4v8" fill="none" stroke="white" stroke-width="1.5" pointer-events="none"/>
                </g>
                <g id="zoomMin">
                        <use xlink:href="#rim" fill="#404040">
                                <set attributeName="fill" to="#808080" begin="zoomminus.mouseover" end="zoomminus.mouseout"/>
                        </use>
                        <path d="M-4,0h8" fill="none" stroke="white" stroke-width="1.5" pointer-events="none"/>
                </g>
                <g id="dirArrow">
                        <path fill="none" stroke="white" stroke-width="1.5" d="M0,-3.0v7 M-2.5,-0.5L0,-3.0L2.5,-0.5"/>
                </g>
               <g id="resetDef">
                       <use xlink:href="#rim2" fill="#404040">
                               <set attributeName="fill" to="#808080" begin="reset.mouseover" end="reset.mouseout"/>
                       </use>
               </g>
        </defs>

<script type="text/javascript">
var viewWidth = 1534;
var viewHeight = 358;
var sectionId = 'dynsection-0';
</script>
<script xlink:href="../../svgpan.js"/>
<svg id="graph" class="graph">
<g id="viewport">
<title>IStats</title>
<polygon fill="white" stroke="none" points="-4,4 -4,-354 1530,-354 1530,4 -4,4"/>
<!-- Node1 -->
<g id="node1" class="node"><title>Node1</title>
<polygon fill="#bfbfbf" stroke="black" points="727,-292.5 727,-349.5 813,-349.5 813,-292.5 727,-292.5"/>
<text text-anchor="middle" x="770" y="-337.5" font-family="Helvetica,sans-Serif" font-size="10.00">IStats</text>
<polyline fill="none" stroke="black" points="727,-330.5 813,-330.5 "/>
<text text-anchor="middle" x="770" y="-318.5" font-family="Helvetica,sans-Serif" font-size="10.00"> </text>
<polyline fill="none" stroke="black" points="727,-311.5 813,-311.5 "/>
<text text-anchor="start" x="735" y="-299.5" font-family="Helvetica,sans-Serif" font-size="10.00">+ GetDumpStr()</text>
</g>
<!-- Node2 -->
<g id="node2" class="node"><title>Node2</title>
<g id="a_node2"><a xlink:href="../../d6/d84/classppm__java_1_1__dev_1_1concept_1_1example_1_1stats_1_1_t_stats_of_worker.html" target="_top" xlink:title="{TStatsOfWorker\n|&#45; fCounter\l&#45; fLastRandom\l&#45; fAverage\l|+ TStatsOfWorker()\l+ SetRandom()\l+ GetAverage()\l+ GetDumpStr()\l}">
<polygon fill="white" stroke="black" points="-0.5,-72 -0.5,-184 102.5,-184 102.5,-72 -0.5,-72"/>
<text text-anchor="middle" x="51" y="-172" font-family="Helvetica,sans-Serif" font-size="10.00">TStatsOfWorker</text>
<polyline fill="none" stroke="black" points="-0.5,-165 102.5,-165 "/>
<text text-anchor="start" x="7.5" y="-153" font-family="Helvetica,sans-Serif" font-size="10.00">&#45; fCounter</text>
<text text-anchor="start" x="7.5" y="-142" font-family="Helvetica,sans-Serif" font-size="10.00">&#45; fLastRandom</text>
<text text-anchor="start" x="7.5" y="-131" font-family="Helvetica,sans-Serif" font-size="10.00">&#45; fAverage</text>
<polyline fill="none" stroke="black" points="-0.5,-124 102.5,-124 "/>
<text text-anchor="start" x="7.5" y="-112" font-family="Helvetica,sans-Serif" font-size="10.00">+ TStatsOfWorker()</text>
<text text-anchor="start" x="7.5" y="-101" font-family="Helvetica,sans-Serif" font-size="10.00">+ SetRandom()</text>
<text text-anchor="start" x="7.5" y="-90" font-family="Helvetica,sans-Serif" font-size="10.00">+ GetAverage()</text>
<text text-anchor="start" x="7.5" y="-79" font-family="Helvetica,sans-Serif" font-size="10.00">+ GetDumpStr()</text>
</a>
</g>
</g>
<!-- Node1&#45;&gt;Node2 -->
<g id="edge1" class="edge"><title>Node1&#45;&gt;Node2</title>
<path fill="none" stroke="midnightblue" d="M716.452,-317.814C568.212,-311.344 160.117,-290.558 111,-256 87.0676,-239.162 72.3882,-210.204 63.5457,-184.189"/>
<polygon fill="none" stroke="midnightblue" points="716.526,-321.32 726.668,-318.255 716.828,-314.327 716.526,-321.32"/>
</g>
<!-- Node3 -->
<g id="node3" class="node"><title>Node3</title>
<g id="a_node3"><a xlink:href="../../df/daf/classppm__java_1_1backend_1_1module_1_1__deprecated__ppm_1_1_t_node_p_p_m_processor___stats.html" target="_top" xlink:title="Runtime statistics of a TNodePPMProcessor. ">
<polygon fill="white" stroke="black" points="120.5,-28 120.5,-228 275.5,-228 275.5,-28 120.5,-28"/>
<text text-anchor="middle" x="198" y="-216" font-family="Helvetica,sans-Serif" font-size="10.00">TNodePPMProcessor_Stats</text>
<polyline fill="none" stroke="black" points="120.5,-209 275.5,-209 "/>
<text text-anchor="start" x="128.5" y="-197" font-family="Helvetica,sans-Serif" font-size="10.00">&#45; fHost</text>
<text text-anchor="start" x="128.5" y="-186" font-family="Helvetica,sans-Serif" font-size="10.00">&#45; fLastDBValue</text>
<text text-anchor="start" x="128.5" y="-175" font-family="Helvetica,sans-Serif" font-size="10.00">&#45; fLastPeakProjectedValue</text>
<text text-anchor="start" x="128.5" y="-164" font-family="Helvetica,sans-Serif" font-size="10.00">&#45; fLastPeakValue</text>
<text text-anchor="start" x="128.5" y="-153" font-family="Helvetica,sans-Serif" font-size="10.00">&#45; fNumSamplesPerCycle</text>
<text text-anchor="start" x="128.5" y="-142" font-family="Helvetica,sans-Serif" font-size="10.00">&#45; fSampleRate</text>
<text text-anchor="start" x="128.5" y="-131" font-family="Helvetica,sans-Serif" font-size="10.00">&#45; fTimeCycle</text>
<polyline fill="none" stroke="black" points="120.5,-124 275.5,-124 "/>
<text text-anchor="start" x="128.5" y="-112" font-family="Helvetica,sans-Serif" font-size="10.00">+ TNodePPMProcessor_Stats()</text>
<text text-anchor="start" x="128.5" y="-101" font-family="Helvetica,sans-Serif" font-size="10.00">+ GetDumpStr()</text>
<text text-anchor="start" x="128.5" y="-90" font-family="Helvetica,sans-Serif" font-size="10.00">~ SetCycleTime()</text>
<text text-anchor="start" x="128.5" y="-79" font-family="Helvetica,sans-Serif" font-size="10.00">~ SetDBValue()</text>
<text text-anchor="start" x="128.5" y="-68" font-family="Helvetica,sans-Serif" font-size="10.00">~ SetNumSamplesPerCycle()</text>
<text text-anchor="start" x="128.5" y="-57" font-family="Helvetica,sans-Serif" font-size="10.00">~ SetPeakValue()</text>
<text text-anchor="start" x="128.5" y="-46" font-family="Helvetica,sans-Serif" font-size="10.00">~ SetPeakValueProjected()</text>
<text text-anchor="start" x="128.5" y="-35" font-family="Helvetica,sans-Serif" font-size="10.00">~ SetSampleRate()</text>
</a>
</g>
</g>
<!-- Node1&#45;&gt;Node3 -->
<g id="edge2" class="edge"><title>Node1&#45;&gt;Node3</title>
<path fill="none" stroke="midnightblue" d="M716.467,-318.412C605.643,-314.257 355.46,-300.133 284,-256 272.106,-248.654 261.473,-238.98 252.085,-228.242"/>
<polygon fill="none" stroke="midnightblue" points="716.626,-321.92 726.746,-318.783 716.879,-314.924 716.626,-321.92"/>
</g>
<!-- Node4 -->
<g id="node4" class="node"><title>Node4</title>
<g id="a_node4"><a xlink:href="../../d0/db3/classppm__java_1_1backend_1_1module_1_1converter__db_1_1_t_node_converter_db___stats.html" target="_top" xlink:title="Runtime statistics of a TNodeConverterDb. ">
<polygon fill="white" stroke="black" points="293.5,-72 293.5,-184 438.5,-184 438.5,-72 293.5,-72"/>
<text text-anchor="middle" x="366" y="-172" font-family="Helvetica,sans-Serif" font-size="10.00">TNodeConverterDb_Stats</text>
<polyline fill="none" stroke="black" points="293.5,-165 438.5,-165 "/>
<text text-anchor="start" x="301.5" y="-153" font-family="Helvetica,sans-Serif" font-size="10.00">&#45; fDB</text>
<text text-anchor="start" x="301.5" y="-142" font-family="Helvetica,sans-Serif" font-size="10.00">&#45; fHost</text>
<text text-anchor="start" x="301.5" y="-131" font-family="Helvetica,sans-Serif" font-size="10.00">&#45; fValue</text>
<polyline fill="none" stroke="black" points="293.5,-124 438.5,-124 "/>
<text text-anchor="start" x="301.5" y="-112" font-family="Helvetica,sans-Serif" font-size="10.00">+ TNodeConverterDb_Stats()</text>
<text text-anchor="start" x="301.5" y="-101" font-family="Helvetica,sans-Serif" font-size="10.00">+ GetDumpStr()</text>
<text text-anchor="start" x="301.5" y="-90" font-family="Helvetica,sans-Serif" font-size="10.00">~ SetDB()</text>
<text text-anchor="start" x="301.5" y="-79" font-family="Helvetica,sans-Serif" font-size="10.00">~ SetValue()</text>
</a>
</g>
</g>
<!-- Node1&#45;&gt;Node4 -->
<g id="edge3" class="edge"><title>Node1&#45;&gt;Node4</title>
<path fill="none" stroke="midnightblue" d="M716.45,-314.523C636.355,-305.486 490.142,-285.473 447,-256 421.304,-238.445 401.994,-209.769 388.687,-184.104"/>
<polygon fill="none" stroke="midnightblue" points="716.498,-318.049 726.823,-315.673 717.27,-311.092 716.498,-318.049"/>
</g>
<!-- Node5 -->
<g id="node5" class="node"><title>Node5</title>
<g id="a_node5"><a xlink:href="../../d6/d19/classppm__java_1_1backend_1_1module_1_1integrator_1_1_t_node_integrator___p_p_m_ballistics___stats.html" target="_top" xlink:title="Runtime statistics of a TNodeIntegrator_PPMBallistics. ">
<polygon fill="white" stroke="black" points="456.5,-39 456.5,-217 619.5,-217 619.5,-39 456.5,-39"/>
<text text-anchor="start" x="464.5" y="-205" font-family="Helvetica,sans-Serif" font-size="10.00">TNodeIntegrator_PPMBallistics</text>
<text text-anchor="middle" x="538" y="-194" font-family="Helvetica,sans-Serif" font-size="10.00">_Stats</text>
<polyline fill="none" stroke="black" points="456.5,-187 619.5,-187 "/>
<text text-anchor="start" x="464.5" y="-175" font-family="Helvetica,sans-Serif" font-size="10.00">&#45; fHost</text>
<text text-anchor="start" x="464.5" y="-164" font-family="Helvetica,sans-Serif" font-size="10.00">&#45; fTimeCycle</text>
<text text-anchor="start" x="464.5" y="-153" font-family="Helvetica,sans-Serif" font-size="10.00">&#45; fValueDBActual</text>
<text text-anchor="start" x="464.5" y="-142" font-family="Helvetica,sans-Serif" font-size="10.00">&#45; fValueDBRef</text>
<text text-anchor="start" x="464.5" y="-131" font-family="Helvetica,sans-Serif" font-size="10.00">&#45; fValueErr</text>
<polyline fill="none" stroke="black" points="456.5,-124 619.5,-124 "/>
<text text-anchor="start" x="464.5" y="-112" font-family="Helvetica,sans-Serif" font-size="10.00">+ TNodeIntegrator_PPMBallistics</text>
<text text-anchor="start" x="464.5" y="-101" font-family="Helvetica,sans-Serif" font-size="10.00">_Stats()</text>
<text text-anchor="start" x="464.5" y="-90" font-family="Helvetica,sans-Serif" font-size="10.00">+ GetDumpStr()</text>
<text text-anchor="start" x="464.5" y="-79" font-family="Helvetica,sans-Serif" font-size="10.00">~ SetTimeCycle()</text>
<text text-anchor="start" x="464.5" y="-68" font-family="Helvetica,sans-Serif" font-size="10.00">~ SetValueDBActual()</text>
<text text-anchor="start" x="464.5" y="-57" font-family="Helvetica,sans-Serif" font-size="10.00">~ SetValueDBRef()</text>
<text text-anchor="start" x="464.5" y="-46" font-family="Helvetica,sans-Serif" font-size="10.00">&#45; _RecomputeDiff()</text>
</a>
</g>
</g>
<!-- Node1&#45;&gt;Node5 -->
<g id="edge4" class="edge"><title>Node1&#45;&gt;Node5</title>
<path fill="none" stroke="midnightblue" d="M717.535,-303.95C688.992,-293.445 654.257,-277.62 628,-256 614.544,-244.92 602.156,-231.362 591.151,-217.277"/>
<polygon fill="none" stroke="midnightblue" points="716.362,-307.248 726.957,-307.31 718.713,-300.654 716.362,-307.248"/>
</g>
<!-- Node6 -->
<g id="node6" class="node"><title>Node6</title>
<g id="a_node6"><a xlink:href="../../d3/df6/classppm__java_1_1backend_1_1module_1_1jackd_1_1_t_audio_context___jack_d___stats.html" target="_top" xlink:title="Runtime statistics for a TAudioContext_JackD. ">
<polygon fill="white" stroke="black" points="637.5,-83 637.5,-173 762.5,-173 762.5,-83 637.5,-83"/>
<text text-anchor="start" x="645.5" y="-161" font-family="Helvetica,sans-Serif" font-size="10.00">TAudioContext_JackD</text>
<text text-anchor="middle" x="700" y="-150" font-family="Helvetica,sans-Serif" font-size="10.00">_Stats</text>
<polyline fill="none" stroke="black" points="637.5,-143 762.5,-143 "/>
<text text-anchor="start" x="645.5" y="-131" font-family="Helvetica,sans-Serif" font-size="10.00">&#45; fHost</text>
<polyline fill="none" stroke="black" points="637.5,-124 762.5,-124 "/>
<text text-anchor="start" x="645.5" y="-112" font-family="Helvetica,sans-Serif" font-size="10.00">+ TAudioContext_JackD</text>
<text text-anchor="start" x="645.5" y="-101" font-family="Helvetica,sans-Serif" font-size="10.00">_Stats()</text>
<text text-anchor="start" x="645.5" y="-90" font-family="Helvetica,sans-Serif" font-size="10.00">+ GetDumpStr()</text>
</a>
</g>
</g>
<!-- Node1&#45;&gt;Node6 -->
<g id="edge5" class="edge"><title>Node1&#45;&gt;Node6</title>
<path fill="none" stroke="midnightblue" d="M756.269,-282.535C744.757,-251.124 728.301,-206.22 716.156,-173.083"/>
<polygon fill="none" stroke="midnightblue" points="753.094,-284.042 759.821,-292.227 759.666,-281.633 753.094,-284.042"/>
</g>
<!-- Node7 -->
<g id="node7" class="node"><title>Node7</title>
<g id="a_node7"><a xlink:href="../../d8/ddb/classppm__java_1_1backend_1_1module_1_1peak__estimator_1_1_t_node_peak_estimator___stats.html" target="_top" xlink:title="Runtime statistics for a TNodePeakEstimator. ">
<polygon fill="white" stroke="black" points="780.5,-66.5 780.5,-189.5 899.5,-189.5 899.5,-66.5 780.5,-66.5"/>
<text text-anchor="start" x="788.5" y="-177.5" font-family="Helvetica,sans-Serif" font-size="10.00">TNodePeakEstimator</text>
<text text-anchor="middle" x="840" y="-166.5" font-family="Helvetica,sans-Serif" font-size="10.00">_Stats</text>
<polyline fill="none" stroke="black" points="780.5,-159.5 899.5,-159.5 "/>
<text text-anchor="start" x="788.5" y="-147.5" font-family="Helvetica,sans-Serif" font-size="10.00">&#45; fHost</text>
<text text-anchor="start" x="788.5" y="-136.5" font-family="Helvetica,sans-Serif" font-size="10.00">&#45; fPeakDelta</text>
<text text-anchor="start" x="788.5" y="-125.5" font-family="Helvetica,sans-Serif" font-size="10.00">&#45; fPeakLast</text>
<polyline fill="none" stroke="black" points="780.5,-118.5 899.5,-118.5 "/>
<text text-anchor="start" x="788.5" y="-106.5" font-family="Helvetica,sans-Serif" font-size="10.00">+ TNodePeakEstimator</text>
<text text-anchor="start" x="788.5" y="-95.5" font-family="Helvetica,sans-Serif" font-size="10.00">_Stats()</text>
<text text-anchor="start" x="788.5" y="-84.5" font-family="Helvetica,sans-Serif" font-size="10.00">+ GetDumpStr()</text>
<text text-anchor="start" x="788.5" y="-73.5" font-family="Helvetica,sans-Serif" font-size="10.00">~ SetPeak()</text>
</a>
</g>
</g>
<!-- Node1&#45;&gt;Node7 -->
<g id="edge6" class="edge"><title>Node1&#45;&gt;Node7</title>
<path fill="none" stroke="midnightblue" d="M783.711,-282.587C793.409,-256.128 806.622,-220.075 817.809,-189.549"/>
<polygon fill="none" stroke="midnightblue" points="780.334,-281.633 780.179,-292.227 786.906,-284.042 780.334,-281.633"/>
</g>
<!-- Node8 -->
<g id="node8" class="node"><title>Node8</title>
<g id="a_node8"><a xlink:href="../../d7/dba/classppm__java_1_1backend_1_1module_1_1pump_1_1_t_node_pump___stats.html" target="_top" xlink:title="Runtime statistics for a TNodePump. ">
<polygon fill="white" stroke="black" points="918,-50 918,-206 1064,-206 1064,-50 918,-50"/>
<text text-anchor="middle" x="991" y="-194" font-family="Helvetica,sans-Serif" font-size="10.00">TNodePump_Stats</text>
<polyline fill="none" stroke="black" points="918,-187 1064,-187 "/>
<text text-anchor="start" x="926" y="-175" font-family="Helvetica,sans-Serif" font-size="10.00">&#45; fEndpointIn_Stats</text>
<text text-anchor="start" x="926" y="-164" font-family="Helvetica,sans-Serif" font-size="10.00">&#45; fHost</text>
<text text-anchor="start" x="926" y="-153" font-family="Helvetica,sans-Serif" font-size="10.00">&#45; fNumSamplesPerCycle</text>
<text text-anchor="start" x="926" y="-142" font-family="Helvetica,sans-Serif" font-size="10.00">&#45; fSampleRate</text>
<text text-anchor="start" x="926" y="-131" font-family="Helvetica,sans-Serif" font-size="10.00">&#45; fTimeCycle</text>
<polyline fill="none" stroke="black" points="918,-124 1064,-124 "/>
<text text-anchor="start" x="926" y="-112" font-family="Helvetica,sans-Serif" font-size="10.00">+ TNodePump_Stats()</text>
<text text-anchor="start" x="926" y="-101" font-family="Helvetica,sans-Serif" font-size="10.00">+ GetDumpStr()</text>
<text text-anchor="start" x="926" y="-90" font-family="Helvetica,sans-Serif" font-size="10.00">~ SetCycleTime()</text>
<text text-anchor="start" x="926" y="-79" font-family="Helvetica,sans-Serif" font-size="10.00">~ SetEndpointInStats()</text>
<text text-anchor="start" x="926" y="-68" font-family="Helvetica,sans-Serif" font-size="10.00">~ SetNumSamplesPerCycle()</text>
<text text-anchor="start" x="926" y="-57" font-family="Helvetica,sans-Serif" font-size="10.00">~ SetSampleRate()</text>
</a>
</g>
</g>
<!-- Node1&#45;&gt;Node8 -->
<g id="edge7" class="edge"><title>Node1&#45;&gt;Node8</title>
<path fill="none" stroke="midnightblue" d="M822.549,-303.56C850.137,-293.081 883.253,-277.404 908,-256 924.236,-241.957 938.547,-223.984 950.512,-206.006"/>
<polygon fill="none" stroke="midnightblue" points="821.225,-300.318 813.045,-307.051 823.638,-306.889 821.225,-300.318"/>
</g>
<!-- Node9 -->
<g id="node9" class="node"><title>Node9</title>
<g id="a_node9"><a xlink:href="../../d2/dbc/classppm__java_1_1frontend_1_1gui_1_1lineargauge_1_1_t_g_u_i_linear_gauge___surrogate___stats.html" target="_top" xlink:title="Combined runtime statistics for all channels. ">
<polygon fill="white" stroke="black" points="1082,-39 1082,-217 1234,-217 1234,-39 1082,-39"/>
<text text-anchor="start" x="1090" y="-205" font-family="Helvetica,sans-Serif" font-size="10.00">TGUILinearGauge_Surrogate</text>
<text text-anchor="middle" x="1158" y="-194" font-family="Helvetica,sans-Serif" font-size="10.00">_Stats</text>
<polyline fill="none" stroke="black" points="1082,-187 1234,-187 "/>
<text text-anchor="start" x="1090" y="-175" font-family="Helvetica,sans-Serif" font-size="10.00">&#45; fHost</text>
<text text-anchor="start" x="1090" y="-164" font-family="Helvetica,sans-Serif" font-size="10.00">&#45; fStatChannels</text>
<text text-anchor="start" x="1090" y="-153" font-family="Helvetica,sans-Serif" font-size="10.00">&#45; fT0</text>
<text text-anchor="start" x="1090" y="-142" font-family="Helvetica,sans-Serif" font-size="10.00">&#45; fTimeCycle</text>
<polyline fill="none" stroke="black" points="1082,-135 1234,-135 "/>
<text text-anchor="start" x="1090" y="-123" font-family="Helvetica,sans-Serif" font-size="10.00">+ TGUILinearGauge_Surrogate</text>
<text text-anchor="start" x="1090" y="-112" font-family="Helvetica,sans-Serif" font-size="10.00">_Stats()</text>
<text text-anchor="start" x="1090" y="-101" font-family="Helvetica,sans-Serif" font-size="10.00">+ GetDumpStr()</text>
<text text-anchor="start" x="1090" y="-90" font-family="Helvetica,sans-Serif" font-size="10.00">~ AddChannel()</text>
<text text-anchor="start" x="1090" y="-79" font-family="Helvetica,sans-Serif" font-size="10.00">~ OnCycleTick()</text>
<text text-anchor="start" x="1090" y="-68" font-family="Helvetica,sans-Serif" font-size="10.00">~ SetCalcSection()</text>
<text text-anchor="start" x="1090" y="-57" font-family="Helvetica,sans-Serif" font-size="10.00">~ SetDBValue()</text>
<text text-anchor="start" x="1090" y="-46" font-family="Helvetica,sans-Serif" font-size="10.00">~ SetDisplayValue()</text>
</a>
</g>
</g>
<!-- Node1&#45;&gt;Node9 -->
<g id="edge8" class="edge"><title>Node1&#45;&gt;Node9</title>
<path fill="none" stroke="midnightblue" d="M823.398,-320.535C887.862,-318.689 997.059,-307.351 1073,-256 1088.06,-245.82 1101.14,-231.995 1112.23,-217.204"/>
<polygon fill="none" stroke="midnightblue" points="822.983,-317.043 813.062,-320.761 823.135,-324.042 822.983,-317.043"/>
</g>
<!-- Node10 -->
<g id="node10" class="node"><title>Node10</title>
<g id="a_node10"><a xlink:href="../../dc/d65/classppm__java_1_1frontend_1_1gui_1_1needle_1_1_t_g_u_i_needle___surrogate___stats.html" target="_top" xlink:title="Combined runtime statistics for all channels. ">
<polygon fill="white" stroke="black" points="1252,-39 1252,-217 1380,-217 1380,-39 1252,-39"/>
<text text-anchor="start" x="1260" y="-205" font-family="Helvetica,sans-Serif" font-size="10.00">TGUINeedle_Surrogate</text>
<text text-anchor="middle" x="1316" y="-194" font-family="Helvetica,sans-Serif" font-size="10.00">_Stats</text>
<polyline fill="none" stroke="black" points="1252,-187 1380,-187 "/>
<text text-anchor="start" x="1260" y="-175" font-family="Helvetica,sans-Serif" font-size="10.00">&#45; fHost</text>
<text text-anchor="start" x="1260" y="-164" font-family="Helvetica,sans-Serif" font-size="10.00">&#45; fStatChannels</text>
<text text-anchor="start" x="1260" y="-153" font-family="Helvetica,sans-Serif" font-size="10.00">&#45; fT0</text>
<text text-anchor="start" x="1260" y="-142" font-family="Helvetica,sans-Serif" font-size="10.00">&#45; fTimeCycle</text>
<polyline fill="none" stroke="black" points="1252,-135 1380,-135 "/>
<text text-anchor="start" x="1260" y="-123" font-family="Helvetica,sans-Serif" font-size="10.00">+ TGUINeedle_Surrogate</text>
<text text-anchor="start" x="1260" y="-112" font-family="Helvetica,sans-Serif" font-size="10.00">_Stats()</text>
<text text-anchor="start" x="1260" y="-101" font-family="Helvetica,sans-Serif" font-size="10.00">+ GetDumpStr()</text>
<text text-anchor="start" x="1260" y="-90" font-family="Helvetica,sans-Serif" font-size="10.00">~ AddChannel()</text>
<text text-anchor="start" x="1260" y="-79" font-family="Helvetica,sans-Serif" font-size="10.00">~ OnCycleTick()</text>
<text text-anchor="start" x="1260" y="-68" font-family="Helvetica,sans-Serif" font-size="10.00">~ SetCalcSection()</text>
<text text-anchor="start" x="1260" y="-57" font-family="Helvetica,sans-Serif" font-size="10.00">~ SetDBValue()</text>
<text text-anchor="start" x="1260" y="-46" font-family="Helvetica,sans-Serif" font-size="10.00">~ SetDisplayValue()</text>
</a>
</g>
</g>
<!-- Node1&#45;&gt;Node10 -->
<g id="edge9" class="edge"><title>Node1&#45;&gt;Node10</title>
<path fill="none" stroke="midnightblue" d="M823.165,-318.619C931.926,-314.874 1175.29,-301.511 1243,-256 1257.67,-246.14 1269.75,-232.273 1279.58,-217.302"/>
<polygon fill="none" stroke="midnightblue" points="822.949,-315.124 813.07,-318.952 823.18,-322.12 822.949,-315.124"/>
</g>
<!-- Node11 -->
<g id="node11" class="node"><title>Node11</title>
<g id="a_node11"><a xlink:href="../../d4/dc0/classppm__java_1_1util_1_1storage_1_1atomic_buffer_1_1_t_atomic_buffer___stats.html" target="_top" xlink:title="Runtime statistics of a TAtomicBuffer. ">
<polygon fill="white" stroke="black" points="1398,-0.5 1398,-255.5 1526,-255.5 1526,-0.5 1398,-0.5"/>
<text text-anchor="middle" x="1462" y="-243.5" font-family="Helvetica,sans-Serif" font-size="10.00">TAtomicBuffer_Stats</text>
<polyline fill="none" stroke="black" points="1398,-236.5 1526,-236.5 "/>
<text text-anchor="start" x="1406" y="-224.5" font-family="Helvetica,sans-Serif" font-size="10.00">&#45; fLock</text>
<text text-anchor="start" x="1406" y="-213.5" font-family="Helvetica,sans-Serif" font-size="10.00">&#45; fNumContentions</text>
<text text-anchor="start" x="1406" y="-202.5" font-family="Helvetica,sans-Serif" font-size="10.00">&#45; fNumOverruns</text>
<text text-anchor="start" x="1406" y="-191.5" font-family="Helvetica,sans-Serif" font-size="10.00">&#45; fNumUnderruns</text>
<text text-anchor="start" x="1406" y="-180.5" font-family="Helvetica,sans-Serif" font-size="10.00">&#45; fTot_NumContentions</text>
<text text-anchor="start" x="1406" y="-169.5" font-family="Helvetica,sans-Serif" font-size="10.00">&#45; fTot_NumOverruns</text>
<text text-anchor="start" x="1406" y="-158.5" font-family="Helvetica,sans-Serif" font-size="10.00">&#45; fTot_NumUnderruns</text>
<text text-anchor="start" x="1406" y="-147.5" font-family="Helvetica,sans-Serif" font-size="10.00">&#45; gkLocked</text>
<text text-anchor="start" x="1406" y="-136.5" font-family="Helvetica,sans-Serif" font-size="10.00">&#45; gkUnlocked</text>
<polyline fill="none" stroke="black" points="1398,-129.5 1526,-129.5 "/>
<text text-anchor="start" x="1406" y="-117.5" font-family="Helvetica,sans-Serif" font-size="10.00">+ TAtomicBuffer_Stats()</text>
<text text-anchor="start" x="1406" y="-106.5" font-family="Helvetica,sans-Serif" font-size="10.00">+ Clear()</text>
<text text-anchor="start" x="1406" y="-95.5" font-family="Helvetica,sans-Serif" font-size="10.00">+ GetDumpStr()</text>
<text text-anchor="start" x="1406" y="-84.5" font-family="Helvetica,sans-Serif" font-size="10.00">+ GetRecord()</text>
<text text-anchor="start" x="1406" y="-73.5" font-family="Helvetica,sans-Serif" font-size="10.00">~ IncrementContentions()</text>
<text text-anchor="start" x="1406" y="-62.5" font-family="Helvetica,sans-Serif" font-size="10.00">~ IncrementOverruns()</text>
<text text-anchor="start" x="1406" y="-51.5" font-family="Helvetica,sans-Serif" font-size="10.00">~ IncrementUnderruns()</text>
<text text-anchor="start" x="1406" y="-40.5" font-family="Helvetica,sans-Serif" font-size="10.00">&#45; _Clear()</text>
<text text-anchor="start" x="1406" y="-29.5" font-family="Helvetica,sans-Serif" font-size="10.00">&#45; _Increment()</text>
<text text-anchor="start" x="1406" y="-18.5" font-family="Helvetica,sans-Serif" font-size="10.00">&#45; _Lock()</text>
<text text-anchor="start" x="1406" y="-7.5" font-family="Helvetica,sans-Serif" font-size="10.00">&#45; _Unlock()</text>
</a>
</g>
</g>
<!-- Node1&#45;&gt;Node11 -->
<g id="edge10" class="edge"><title>Node1&#45;&gt;Node11</title>
<path fill="none" stroke="midnightblue" d="M823.425,-320.576C956.041,-321.061 1296.27,-316.237 1389,-256 1392.09,-253.991 1395.07,-251.803 1397.93,-249.461"/>
<polygon fill="none" stroke="midnightblue" points="823.133,-317.075 813.116,-320.526 823.099,-324.075 823.133,-317.075"/>
</g>
</g>
</svg>
        <g id="navigator" transform="translate(0 0)" fill="#404254">
                <rect fill="#f2f5e9" fill-opacity="0.5" stroke="#606060" stroke-width=".5" x="0" y="0" width="60" height="60"/>
                <use id="zoomplus" xlink:href="#zoomPlus" x="17" y="9" onmousedown="handleZoom(evt,'in')"/>
                <use id="zoomminus" xlink:href="#zoomMin" x="42" y="9" onmousedown="handleZoom(evt,'out')"/>
                <use id="reset" xlink:href="#resetDef" x="30" y="36" onmousedown="handleReset()"/>
                <g id="arrowUp" xlink:href="#dirArrow" transform="translate(30 24)" onmousedown="handlePan(0,-1)">
                  <use xlink:href="#rim" fill="#404040">
                        <set attributeName="fill" to="#808080" begin="arrowUp.mouseover" end="arrowUp.mouseout"/>
                  </use>
                  <path fill="none" stroke="white" stroke-width="1.5" d="M0,-3.0v7 M-2.5,-0.5L0,-3.0L2.5,-0.5"/>
                </g>
                <g id="arrowRight" xlink:href="#dirArrow" transform="rotate(90) translate(36 -43)" onmousedown="handlePan(1,0)">
                  <use xlink:href="#rim" fill="#404040">
                        <set attributeName="fill" to="#808080" begin="arrowRight.mouseover" end="arrowRight.mouseout"/>
                  </use>
                  <path fill="none" stroke="white" stroke-width="1.5" d="M0,-3.0v7 M-2.5,-0.5L0,-3.0L2.5,-0.5"/>
                </g>
                <g id="arrowDown" xlink:href="#dirArrow" transform="rotate(180) translate(-30 -48)" onmousedown="handlePan(0,1)">
                  <use xlink:href="#rim" fill="#404040">
                        <set attributeName="fill" to="#808080" begin="arrowDown.mouseover" end="arrowDown.mouseout"/>
                  </use>
                  <path fill="none" stroke="white" stroke-width="1.5" d="M0,-3.0v7 M-2.5,-0.5L0,-3.0L2.5,-0.5"/>
                </g>
                <g id="arrowLeft" xlink:href="#dirArrow" transform="rotate(270) translate(-36 17)" onmousedown="handlePan(-1,0)">
                  <use xlink:href="#rim" fill="#404040">
                        <set attributeName="fill" to="#808080" begin="arrowLeft.mouseover" end="arrowLeft.mouseout"/>
                  </use>
                  <path fill="none" stroke="white" stroke-width="1.5" d="M0,-3.0v7 M-2.5,-0.5L0,-3.0L2.5,-0.5"/>
                </g>
        </g>
        <svg viewBox="0 0 15 15" width="100%" height="30px" preserveAspectRatio="xMaxYMin meet">
         <g id="arrow_out" transform="scale(0.3 0.3)">
          <a xlink:href="interfaceppm__java_1_1typelib_1_1_i_stats__inherit__graph_org.svg" target="_base">
           <rect id="button" ry="5" rx="5" y="6" x="6" height="38" width="38"
                fill="#f2f5e9" fill-opacity="0.5" stroke="#606060" stroke-width="1.0"/>
           <path id="arrow"
             d="M 11.500037,31.436501 C 11.940474,20.09759 22.043105,11.32322 32.158766,21.979434 L 37.068811,17.246167 C 37.068811,17.246167 37.088388,32 37.088388,32 L 22.160133,31.978069 C 22.160133,31.978069 26.997745,27.140456 26.997745,27.140456 C 18.528582,18.264221 13.291696,25.230495 11.500037,31.436501 z"
             style="fill:#404040;"/>
          </a>
         </g>
        </svg>
</svg>
