<?xml version="1.0" encoding="UTF-8" standalone="no"?>
<!DOCTYPE svg PUBLIC "-//W3C//DTD SVG 1.1//EN"
 "http://www.w3.org/Graphics/SVG/1.1/DTD/svg11.dtd">
<!-- Generated by graphviz version 2.36.0 (20140111.2315)
 -->
<!-- Title: IStats Pages: 1 -->
<!--zoomable 326 -->
<svg id="main" version="1.1" xmlns="http://www.w3.org/2000/svg" xmlns:xlink="http://www.w3.org/1999/xlink" xml:space="preserve" onload="init(evt)">
<style type="text/css"><![CDATA[
.edge:hover path { stroke: red; }
.edge:hover polygon { stroke: red; fill: red; }
]]></style>
<script type="text/javascript"><![CDATA[
var edges = document.getElementsByTagName('g');
if (edges && edges.length) {
  for (var i=0;i<edges.length;i++) {
    if (edges[i].id.substr(0,4)=='edge') {
      edges[i].setAttribute('class','edge');
    }
  }
}
]]></script>
        <defs>
                <circle id="rim" cx="0" cy="0" r="7"/>
                <circle id="rim2" cx="0" cy="0" r="3.5"/>
                <g id="zoomPlus">
                        <use xlink:href="#rim" fill="#404040">
                                <set attributeName="fill" to="#808080" begin="zoomplus.mouseover" end="zoomplus.mouseout"/>
                        </use>
                        <path d="M-4,0h8M0,-4v8" fill="none" stroke="white" stroke-width="1.5" pointer-events="none"/>
                </g>
                <g id="zoomMin">
                        <use xlink:href="#rim" fill="#404040">
                                <set attributeName="fill" to="#808080" begin="zoomminus.mouseover" end="zoomminus.mouseout"/>
                        </use>
                        <path d="M-4,0h8" fill="none" stroke="white" stroke-width="1.5" pointer-events="none"/>
                </g>
                <g id="dirArrow">
                        <path fill="none" stroke="white" stroke-width="1.5" d="M0,-3.0v7 M-2.5,-0.5L0,-3.0L2.5,-0.5"/>
                </g>
               <g id="resetDef">
                       <use xlink:href="#rim2" fill="#404040">
                               <set attributeName="fill" to="#808080" begin="reset.mouseover" end="reset.mouseout"/>
                       </use>
               </g>
        </defs>

<script type="text/javascript">
var viewWidth = 1534;
var viewHeight = 326;
var sectionId = 'dynsection-0';
</script>
<script xlink:href="../../svgpan.js"/>
<svg id="graph" class="graph">
<g id="viewport">
<title>IStats</title>
<polygon fill="white" stroke="none" points="-4,4 -4,-322 1530,-322 1530,4 -4,4"/>
<!-- Node1 -->
<g id="node1" class="node"><title>Node1</title>
<polygon fill="#bfbfbf" stroke="black" points="727,-260.5 727,-317.5 813,-317.5 813,-260.5 727,-260.5"/>
<text text-anchor="middle" x="770" y="-305.5" font-family="Helvetica,sans-Serif" font-size="10.00">IStats</text>
<polyline fill="none" stroke="black" points="727,-298.5 813,-298.5 "/>
<text text-anchor="middle" x="770" y="-286.5" font-family="Helvetica,sans-Serif" font-size="10.00"> </text>
<polyline fill="none" stroke="black" points="727,-279.5 813,-279.5 "/>
<text text-anchor="start" x="735" y="-267.5" font-family="Helvetica,sans-Serif" font-size="10.00">+ GetDumpStr()</text>
</g>
<!-- Node2 -->
<g id="node2" class="node"><title>Node2</title>
<g id="a_node2"><a xlink:href="../../d6/d84/classppm__java_1_1__dev_1_1concept_1_1example_1_1stats_1_1_t_stats_of_worker.html" target="_top" xlink:title="{TStatsOfWorker\n|&#45; fCounter\l&#45; fLastRandom\l&#45; fAverage\l|+ TStatsOfWorker()\l+ SetRandom()\l+ GetAverage()\l+ GetDumpStr()\l}">
<polygon fill="white" stroke="black" points="-0.5,-56 -0.5,-168 102.5,-168 102.5,-56 -0.5,-56"/>
<text text-anchor="middle" x="51" y="-156" font-family="Helvetica,sans-Serif" font-size="10.00">TStatsOfWorker</text>
<polyline fill="none" stroke="black" points="-0.5,-149 102.5,-149 "/>
<text text-anchor="start" x="7.5" y="-137" font-family="Helvetica,sans-Serif" font-size="10.00">&#45; fCounter</text>
<text text-anchor="start" x="7.5" y="-126" font-family="Helvetica,sans-Serif" font-size="10.00">&#45; fLastRandom</text>
<text text-anchor="start" x="7.5" y="-115" font-family="Helvetica,sans-Serif" font-size="10.00">&#45; fAverage</text>
<polyline fill="none" stroke="black" points="-0.5,-108 102.5,-108 "/>
<text text-anchor="start" x="7.5" y="-96" font-family="Helvetica,sans-Serif" font-size="10.00">+ TStatsOfWorker()</text>
<text text-anchor="start" x="7.5" y="-85" font-family="Helvetica,sans-Serif" font-size="10.00">+ SetRandom()</text>
<text text-anchor="start" x="7.5" y="-74" font-family="Helvetica,sans-Serif" font-size="10.00">+ GetAverage()</text>
<text text-anchor="start" x="7.5" y="-63" font-family="Helvetica,sans-Serif" font-size="10.00">+ GetDumpStr()</text>
</a>
</g>
</g>
<!-- Node1&#45;&gt;Node2 -->
<g id="edge1" class="edge"><title>Node1&#45;&gt;Node2</title>
<path fill="none" stroke="midnightblue" d="M716.545,-285.678C568.549,-278.851 161.035,-257.214 111,-224 91.2891,-210.916 77.5306,-189.115 68.2102,-168.282"/>
<polygon fill="none" stroke="midnightblue" points="716.594,-289.184 726.744,-286.144 716.914,-282.191 716.594,-289.184"/>
</g>
<!-- Node3 -->
<g id="node3" class="node"><title>Node3</title>
<g id="a_node3"><a xlink:href="../../df/daf/classppm__java_1_1backend_1_1module_1_1__deprecated__ppm_1_1_t_node_p_p_m_processor___stats.html" target="_top" xlink:title="Runtime statistics of a TNodePPMProcessor. ">
<polygon fill="white" stroke="black" points="120.5,-12 120.5,-212 275.5,-212 275.5,-12 120.5,-12"/>
<text text-anchor="middle" x="198" y="-200" font-family="Helvetica,sans-Serif" font-size="10.00">TNodePPMProcessor_Stats</text>
<polyline fill="none" stroke="black" points="120.5,-193 275.5,-193 "/>
<text text-anchor="start" x="128.5" y="-181" font-family="Helvetica,sans-Serif" font-size="10.00">&#45; fHost</text>
<text text-anchor="start" x="128.5" y="-170" font-family="Helvetica,sans-Serif" font-size="10.00">&#45; fLastDBValue</text>
<text text-anchor="start" x="128.5" y="-159" font-family="Helvetica,sans-Serif" font-size="10.00">&#45; fLastPeakProjectedValue</text>
<text text-anchor="start" x="128.5" y="-148" font-family="Helvetica,sans-Serif" font-size="10.00">&#45; fLastPeakValue</text>
<text text-anchor="start" x="128.5" y="-137" font-family="Helvetica,sans-Serif" font-size="10.00">&#45; fNumSamplesPerCycle</text>
<text text-anchor="start" x="128.5" y="-126" font-family="Helvetica,sans-Serif" font-size="10.00">&#45; fSampleRate</text>
<text text-anchor="start" x="128.5" y="-115" font-family="Helvetica,sans-Serif" font-size="10.00">&#45; fTimeCycle</text>
<polyline fill="none" stroke="black" points="120.5,-108 275.5,-108 "/>
<text text-anchor="start" x="128.5" y="-96" font-family="Helvetica,sans-Serif" font-size="10.00">+ TNodePPMProcessor_Stats()</text>
<text text-anchor="start" x="128.5" y="-85" font-family="Helvetica,sans-Serif" font-size="10.00">+ GetDumpStr()</text>
<text text-anchor="start" x="128.5" y="-74" font-family="Helvetica,sans-Serif" font-size="10.00">~ SetCycleTime()</text>
<text text-anchor="start" x="128.5" y="-63" font-family="Helvetica,sans-Serif" font-size="10.00">~ SetDBValue()</text>
<text text-anchor="start" x="128.5" y="-52" font-family="Helvetica,sans-Serif" font-size="10.00">~ SetNumSamplesPerCycle()</text>
<text text-anchor="start" x="128.5" y="-41" font-family="Helvetica,sans-Serif" font-size="10.00">~ SetPeakValue()</text>
<text text-anchor="start" x="128.5" y="-30" font-family="Helvetica,sans-Serif" font-size="10.00">~ SetPeakValueProjected()</text>
<text text-anchor="start" x="128.5" y="-19" font-family="Helvetica,sans-Serif" font-size="10.00">~ SetSampleRate()</text>
</a>
</g>
</g>
<!-- Node1&#45;&gt;Node3 -->
<g id="edge2" class="edge"><title>Node1&#45;&gt;Node3</title>
<path fill="none" stroke="midnightblue" d="M716.683,-286.049C606.273,-281.201 356.834,-265.826 284,-224 278.081,-220.601 272.428,-216.617 267.053,-212.218"/>
<polygon fill="none" stroke="midnightblue" points="716.784,-289.556 726.924,-286.486 717.082,-282.563 716.784,-289.556"/>
</g>
<!-- Node4 -->
<g id="node4" class="node"><title>Node4</title>
<g id="a_node4"><a xlink:href="../../d0/db3/classppm__java_1_1backend_1_1module_1_1converter__db_1_1_t_node_converter_db___stats.html" target="_top" xlink:title="Runtime statistics of a TNodeConverterDb. ">
<polygon fill="white" stroke="black" points="293.5,-56 293.5,-168 438.5,-168 438.5,-56 293.5,-56"/>
<text text-anchor="middle" x="366" y="-156" font-family="Helvetica,sans-Serif" font-size="10.00">TNodeConverterDb_Stats</text>
<polyline fill="none" stroke="black" points="293.5,-149 438.5,-149 "/>
<text text-anchor="start" x="301.5" y="-137" font-family="Helvetica,sans-Serif" font-size="10.00">&#45; fDB</text>
<text text-anchor="start" x="301.5" y="-126" font-family="Helvetica,sans-Serif" font-size="10.00">&#45; fHost</text>
<text text-anchor="start" x="301.5" y="-115" font-family="Helvetica,sans-Serif" font-size="10.00">&#45; fValue</text>
<polyline fill="none" stroke="black" points="293.5,-108 438.5,-108 "/>
<text text-anchor="start" x="301.5" y="-96" font-family="Helvetica,sans-Serif" font-size="10.00">+ TNodeConverterDb_Stats()</text>
<text text-anchor="start" x="301.5" y="-85" font-family="Helvetica,sans-Serif" font-size="10.00">+ GetDumpStr()</text>
<text text-anchor="start" x="301.5" y="-74" font-family="Helvetica,sans-Serif" font-size="10.00">~ SetDB()</text>
<text text-anchor="start" x="301.5" y="-63" font-family="Helvetica,sans-Serif" font-size="10.00">~ SetValue()</text>
</a>
</g>
</g>
<!-- Node1&#45;&gt;Node4 -->
<g id="edge3" class="edge"><title>Node1&#45;&gt;Node4</title>
<path fill="none" stroke="midnightblue" d="M716.357,-282.15C636.489,-272.651 490.986,-252.07 447,-224 425.482,-210.268 407.801,-188.624 394.509,-168.08"/>
<polygon fill="none" stroke="midnightblue" points="716.364,-285.675 726.703,-283.363 717.178,-278.723 716.364,-285.675"/>
</g>
<!-- Node5 -->
<g id="node5" class="node"><title>Node5</title>
<g id="a_node5"><a xlink:href="../../d6/d19/classppm__java_1_1backend_1_1module_1_1integrator_1_1_t_node_integrator___p_p_m_ballistics___stats.html" target="_top" xlink:title="Runtime statistics of a TNodeIntegrator_PPMBallistics. ">
<polygon fill="white" stroke="black" points="456.5,-23 456.5,-201 619.5,-201 619.5,-23 456.5,-23"/>
<text text-anchor="start" x="464.5" y="-189" font-family="Helvetica,sans-Serif" font-size="10.00">TNodeIntegrator_PPMBallistics</text>
<text text-anchor="middle" x="538" y="-178" font-family="Helvetica,sans-Serif" font-size="10.00">_Stats</text>
<polyline fill="none" stroke="black" points="456.5,-171 619.5,-171 "/>
<text text-anchor="start" x="464.5" y="-159" font-family="Helvetica,sans-Serif" font-size="10.00">&#45; fHost</text>
<text text-anchor="start" x="464.5" y="-148" font-family="Helvetica,sans-Serif" font-size="10.00">&#45; fTimeCycle</text>
<text text-anchor="start" x="464.5" y="-137" font-family="Helvetica,sans-Serif" font-size="10.00">&#45; fValueDBActual</text>
<text text-anchor="start" x="464.5" y="-126" font-family="Helvetica,sans-Serif" font-size="10.00">&#45; fValueDBRef</text>
<text text-anchor="start" x="464.5" y="-115" font-family="Helvetica,sans-Serif" font-size="10.00">&#45; fValueErr</text>
<polyline fill="none" stroke="black" points="456.5,-108 619.5,-108 "/>
<text text-anchor="start" x="464.5" y="-96" font-family="Helvetica,sans-Serif" font-size="10.00">+ TNodeIntegrator_PPMBallistics</text>
<text text-anchor="start" x="464.5" y="-85" font-family="Helvetica,sans-Serif" font-size="10.00">_Stats()</text>
<text text-anchor="start" x="464.5" y="-74" font-family="Helvetica,sans-Serif" font-size="10.00">+ GetDumpStr()</text>
<text text-anchor="start" x="464.5" y="-63" font-family="Helvetica,sans-Serif" font-size="10.00">~ SetTimeCycle()</text>
<text text-anchor="start" x="464.5" y="-52" font-family="Helvetica,sans-Serif" font-size="10.00">~ SetValueDBActual()</text>
<text text-anchor="start" x="464.5" y="-41" font-family="Helvetica,sans-Serif" font-size="10.00">~ SetValueDBRef()</text>
<text text-anchor="start" x="464.5" y="-30" font-family="Helvetica,sans-Serif" font-size="10.00">&#45; _RecomputeDiff()</text>
</a>
</g>
</g>
<!-- Node1&#45;&gt;Node5 -->
<g id="edge4" class="edge"><title>Node1&#45;&gt;Node5</title>
<path fill="none" stroke="midnightblue" d="M717.09,-270.911C688.895,-260.206 654.634,-244.521 628,-224 619.156,-217.186 610.641,-209.338 602.611,-201.03"/>
<polygon fill="none" stroke="midnightblue" points="716.194,-274.311 726.788,-274.49 718.618,-267.744 716.194,-274.311"/>
</g>
<!-- Node6 -->
<g id="node6" class="node"><title>Node6</title>
<g id="a_node6"><a xlink:href="../../d3/df6/classppm__java_1_1backend_1_1module_1_1jackd_1_1_t_audio_context___jack_d___stats.html" target="_top" xlink:title="Runtime statistics for a TAudioContext_JackD. ">
<polygon fill="white" stroke="black" points="637.5,-67 637.5,-157 762.5,-157 762.5,-67 637.5,-67"/>
<text text-anchor="start" x="645.5" y="-145" font-family="Helvetica,sans-Serif" font-size="10.00">TAudioContext_JackD</text>
<text text-anchor="middle" x="700" y="-134" font-family="Helvetica,sans-Serif" font-size="10.00">_Stats</text>
<polyline fill="none" stroke="black" points="637.5,-127 762.5,-127 "/>
<text text-anchor="start" x="645.5" y="-115" font-family="Helvetica,sans-Serif" font-size="10.00">&#45; fHost</text>
<polyline fill="none" stroke="black" points="637.5,-108 762.5,-108 "/>
<text text-anchor="start" x="645.5" y="-96" font-family="Helvetica,sans-Serif" font-size="10.00">+ TAudioContext_JackD</text>
<text text-anchor="start" x="645.5" y="-85" font-family="Helvetica,sans-Serif" font-size="10.00">_Stats()</text>
<text text-anchor="start" x="645.5" y="-74" font-family="Helvetica,sans-Serif" font-size="10.00">+ GetDumpStr()</text>
</a>
</g>
</g>
<!-- Node1&#45;&gt;Node6 -->
<g id="edge5" class="edge"><title>Node1&#45;&gt;Node6</title>
<path fill="none" stroke="midnightblue" d="M755.072,-250.681C744.139,-223.347 729.257,-186.143 717.72,-157.3"/>
<polygon fill="none" stroke="midnightblue" points="751.945,-252.286 758.908,-260.271 758.444,-249.686 751.945,-252.286"/>
</g>
<!-- Node7 -->
<g id="node7" class="node"><title>Node7</title>
<g id="a_node7"><a xlink:href="../../d8/ddb/classppm__java_1_1backend_1_1module_1_1peak__estimator_1_1_t_node_peak_estimator___stats.html" target="_top" xlink:title="Runtime statistics for a TNodePeakEstimator. ">
<polygon fill="white" stroke="black" points="780.5,-50.5 780.5,-173.5 899.5,-173.5 899.5,-50.5 780.5,-50.5"/>
<text text-anchor="start" x="788.5" y="-161.5" font-family="Helvetica,sans-Serif" font-size="10.00">TNodePeakEstimator</text>
<text text-anchor="middle" x="840" y="-150.5" font-family="Helvetica,sans-Serif" font-size="10.00">_Stats</text>
<polyline fill="none" stroke="black" points="780.5,-143.5 899.5,-143.5 "/>
<text text-anchor="start" x="788.5" y="-131.5" font-family="Helvetica,sans-Serif" font-size="10.00">&#45; fHost</text>
<text text-anchor="start" x="788.5" y="-120.5" font-family="Helvetica,sans-Serif" font-size="10.00">&#45; fPeakDelta</text>
<text text-anchor="start" x="788.5" y="-109.5" font-family="Helvetica,sans-Serif" font-size="10.00">&#45; fPeakLast</text>
<polyline fill="none" stroke="black" points="780.5,-102.5 899.5,-102.5 "/>
<text text-anchor="start" x="788.5" y="-90.5" font-family="Helvetica,sans-Serif" font-size="10.00">+ TNodePeakEstimator</text>
<text text-anchor="start" x="788.5" y="-79.5" font-family="Helvetica,sans-Serif" font-size="10.00">_Stats()</text>
<text text-anchor="start" x="788.5" y="-68.5" font-family="Helvetica,sans-Serif" font-size="10.00">+ GetDumpStr()</text>
<text text-anchor="start" x="788.5" y="-57.5" font-family="Helvetica,sans-Serif" font-size="10.00">~ SetPeak()</text>
</a>
</g>
</g>
<!-- Node1&#45;&gt;Node7 -->
<g id="edge6" class="edge"><title>Node1&#45;&gt;Node7</title>
<path fill="none" stroke="midnightblue" d="M784.886,-250.785C793.858,-228.356 805.498,-199.254 815.769,-173.578"/>
<polygon fill="none" stroke="midnightblue" points="781.556,-249.686 781.092,-260.271 788.055,-252.286 781.556,-249.686"/>
</g>
<!-- Node8 -->
<g id="node8" class="node"><title>Node8</title>
<g id="a_node8"><a xlink:href="../../d7/dba/classppm__java_1_1backend_1_1module_1_1pump_1_1_t_node_pump___stats.html" target="_top" xlink:title="Runtime statistics for a TNodePump. ">
<polygon fill="white" stroke="black" points="918,-34 918,-190 1064,-190 1064,-34 918,-34"/>
<text text-anchor="middle" x="991" y="-178" font-family="Helvetica,sans-Serif" font-size="10.00">TNodePump_Stats</text>
<polyline fill="none" stroke="black" points="918,-171 1064,-171 "/>
<text text-anchor="start" x="926" y="-159" font-family="Helvetica,sans-Serif" font-size="10.00">&#45; fEndpointIn_Stats</text>
<text text-anchor="start" x="926" y="-148" font-family="Helvetica,sans-Serif" font-size="10.00">&#45; fHost</text>
<text text-anchor="start" x="926" y="-137" font-family="Helvetica,sans-Serif" font-size="10.00">&#45; fNumSamplesPerCycle</text>
<text text-anchor="start" x="926" y="-126" font-family="Helvetica,sans-Serif" font-size="10.00">&#45; fSampleRate</text>
<text text-anchor="start" x="926" y="-115" font-family="Helvetica,sans-Serif" font-size="10.00">&#45; fTimeCycle</text>
<polyline fill="none" stroke="black" points="918,-108 1064,-108 "/>
<text text-anchor="start" x="926" y="-96" font-family="Helvetica,sans-Serif" font-size="10.00">+ TNodePump_Stats()</text>
<text text-anchor="start" x="926" y="-85" font-family="Helvetica,sans-Serif" font-size="10.00">+ GetDumpStr()</text>
<text text-anchor="start" x="926" y="-74" font-family="Helvetica,sans-Serif" font-size="10.00">~ SetCycleTime()</text>
<text text-anchor="start" x="926" y="-63" font-family="Helvetica,sans-Serif" font-size="10.00">~ SetEndpointInStats()</text>
<text text-anchor="start" x="926" y="-52" font-family="Helvetica,sans-Serif" font-size="10.00">~ SetNumSamplesPerCycle()</text>
<text text-anchor="start" x="926" y="-41" font-family="Helvetica,sans-Serif" font-size="10.00">~ SetSampleRate()</text>
</a>
</g>
</g>
<!-- Node1&#45;&gt;Node8 -->
<g id="edge7" class="edge"><title>Node1&#45;&gt;Node8</title>
<path fill="none" stroke="midnightblue" d="M822.614,-270.695C849.93,-260.036 882.773,-244.463 908,-224 919.96,-214.299 931.128,-202.511 941.152,-190.285"/>
<polygon fill="none" stroke="midnightblue" points="821.316,-267.444 813.204,-274.26 823.796,-273.99 821.316,-267.444"/>
</g>
<!-- Node9 -->
<g id="node9" class="node"><title>Node9</title>
<g id="a_node9"><a xlink:href="../../d2/dbc/classppm__java_1_1frontend_1_1gui_1_1lineargauge_1_1_t_g_u_i_linear_gauge___surrogate___stats.html" target="_top" xlink:title="Combined runtime statistics for all channels. ">
<polygon fill="white" stroke="black" points="1082,-23 1082,-201 1234,-201 1234,-23 1082,-23"/>
<text text-anchor="start" x="1090" y="-189" font-family="Helvetica,sans-Serif" font-size="10.00">TGUILinearGauge_Surrogate</text>
<text text-anchor="middle" x="1158" y="-178" font-family="Helvetica,sans-Serif" font-size="10.00">_Stats</text>
<polyline fill="none" stroke="black" points="1082,-171 1234,-171 "/>
<text text-anchor="start" x="1090" y="-159" font-family="Helvetica,sans-Serif" font-size="10.00">&#45; fHost</text>
<text text-anchor="start" x="1090" y="-148" font-family="Helvetica,sans-Serif" font-size="10.00">&#45; fStatChannels</text>
<text text-anchor="start" x="1090" y="-137" font-family="Helvetica,sans-Serif" font-size="10.00">&#45; fT0</text>
<text text-anchor="start" x="1090" y="-126" font-family="Helvetica,sans-Serif" font-size="10.00">&#45; fTimeCycle</text>
<polyline fill="none" stroke="black" points="1082,-119 1234,-119 "/>
<text text-anchor="start" x="1090" y="-107" font-family="Helvetica,sans-Serif" font-size="10.00">+ TGUILinearGauge_Surrogate</text>
<text text-anchor="start" x="1090" y="-96" font-family="Helvetica,sans-Serif" font-size="10.00">_Stats()</text>
<text text-anchor="start" x="1090" y="-85" font-family="Helvetica,sans-Serif" font-size="10.00">+ GetDumpStr()</text>
<text text-anchor="start" x="1090" y="-74" font-family="Helvetica,sans-Serif" font-size="10.00">~ AddChannel()</text>
<text text-anchor="start" x="1090" y="-63" font-family="Helvetica,sans-Serif" font-size="10.00">~ OnCycleTick()</text>
<text text-anchor="start" x="1090" y="-52" font-family="Helvetica,sans-Serif" font-size="10.00">~ SetCalcSection()</text>
<text text-anchor="start" x="1090" y="-41" font-family="Helvetica,sans-Serif" font-size="10.00">~ SetDBValue()</text>
<text text-anchor="start" x="1090" y="-30" font-family="Helvetica,sans-Serif" font-size="10.00">~ SetDisplayValue()</text>
</a>
</g>
</g>
<!-- Node1&#45;&gt;Node9 -->
<g id="edge8" class="edge"><title>Node1&#45;&gt;Node9</title>
<path fill="none" stroke="midnightblue" d="M823.398,-287.695C887.399,-284.989 995.678,-272.771 1073,-224 1082.96,-217.72 1092.19,-209.835 1100.62,-201.179"/>
<polygon fill="none" stroke="midnightblue" points="823.002,-284.207 813.134,-288.063 823.253,-291.202 823.002,-284.207"/>
</g>
<!-- Node10 -->
<g id="node10" class="node"><title>Node10</title>
<g id="a_node10"><a xlink:href="../../dc/d65/classppm__java_1_1frontend_1_1gui_1_1needle_1_1_t_g_u_i_needle___surrogate___stats.html" target="_top" xlink:title="Combined runtime statistics for all channels. ">
<polygon fill="white" stroke="black" points="1252,-23 1252,-201 1380,-201 1380,-23 1252,-23"/>
<text text-anchor="start" x="1260" y="-189" font-family="Helvetica,sans-Serif" font-size="10.00">TGUINeedle_Surrogate</text>
<text text-anchor="middle" x="1316" y="-178" font-family="Helvetica,sans-Serif" font-size="10.00">_Stats</text>
<polyline fill="none" stroke="black" points="1252,-171 1380,-171 "/>
<text text-anchor="start" x="1260" y="-159" font-family="Helvetica,sans-Serif" font-size="10.00">&#45; fHost</text>
<text text-anchor="start" x="1260" y="-148" font-family="Helvetica,sans-Serif" font-size="10.00">&#45; fStatChannels</text>
<text text-anchor="start" x="1260" y="-137" font-family="Helvetica,sans-Serif" font-size="10.00">&#45; fT0</text>
<text text-anchor="start" x="1260" y="-126" font-family="Helvetica,sans-Serif" font-size="10.00">&#45; fTimeCycle</text>
<polyline fill="none" stroke="black" points="1252,-119 1380,-119 "/>
<text text-anchor="start" x="1260" y="-107" font-family="Helvetica,sans-Serif" font-size="10.00">+ TGUINeedle_Surrogate</text>
<text text-anchor="start" x="1260" y="-96" font-family="Helvetica,sans-Serif" font-size="10.00">_Stats()</text>
<text text-anchor="start" x="1260" y="-85" font-family="Helvetica,sans-Serif" font-size="10.00">+ GetDumpStr()</text>
<text text-anchor="start" x="1260" y="-74" font-family="Helvetica,sans-Serif" font-size="10.00">~ AddChannel()</text>
<text text-anchor="start" x="1260" y="-63" font-family="Helvetica,sans-Serif" font-size="10.00">~ OnCycleTick()</text>
<text text-anchor="start" x="1260" y="-52" font-family="Helvetica,sans-Serif" font-size="10.00">~ SetCalcSection()</text>
<text text-anchor="start" x="1260" y="-41" font-family="Helvetica,sans-Serif" font-size="10.00">~ SetDBValue()</text>
<text text-anchor="start" x="1260" y="-30" font-family="Helvetica,sans-Serif" font-size="10.00">~ SetDisplayValue()</text>
</a>
</g>
</g>
<!-- Node1&#45;&gt;Node10 -->
<g id="edge9" class="edge"><title>Node1&#45;&gt;Node10</title>
<path fill="none" stroke="midnightblue" d="M823.351,-286.274C931.906,-281.89 1174.04,-267.404 1243,-224 1252.76,-217.857 1261.49,-209.879 1269.23,-201.018"/>
<polygon fill="none" stroke="midnightblue" points="823.129,-282.78 813.273,-286.668 823.402,-289.775 823.129,-282.78"/>
</g>
<!-- Node11 -->
<g id="node11" class="node"><title>Node11</title>
<g id="a_node11"><a xlink:href="../../d4/dc0/classppm__java_1_1util_1_1storage_1_1atomic_buffer_1_1_t_atomic_buffer___stats.html" target="_top" xlink:title="Runtime statistics of a TAtomicBuffer. ">
<polygon fill="white" stroke="black" points="1398,-1 1398,-223 1526,-223 1526,-1 1398,-1"/>
<text text-anchor="middle" x="1462" y="-211" font-family="Helvetica,sans-Serif" font-size="10.00">TAtomicBuffer_Stats</text>
<polyline fill="none" stroke="black" points="1398,-204 1526,-204 "/>
<text text-anchor="start" x="1406" y="-192" font-family="Helvetica,sans-Serif" font-size="10.00">~ fNumContentions</text>
<text text-anchor="start" x="1406" y="-181" font-family="Helvetica,sans-Serif" font-size="10.00">~ fNumOverruns</text>
<text text-anchor="start" x="1406" y="-170" font-family="Helvetica,sans-Serif" font-size="10.00">&#45; fLock</text>
<text text-anchor="start" x="1406" y="-159" font-family="Helvetica,sans-Serif" font-size="10.00">&#45; fNumUnderruns</text>
<text text-anchor="start" x="1406" y="-148" font-family="Helvetica,sans-Serif" font-size="10.00">&#45; gkLocked</text>
<text text-anchor="start" x="1406" y="-137" font-family="Helvetica,sans-Serif" font-size="10.00">&#45; gkUnlocked</text>
<polyline fill="none" stroke="black" points="1398,-130 1526,-130 "/>
<text text-anchor="start" x="1406" y="-118" font-family="Helvetica,sans-Serif" font-size="10.00">+ TAtomicBuffer_Stats()</text>
<text text-anchor="start" x="1406" y="-107" font-family="Helvetica,sans-Serif" font-size="10.00">+ Clear()</text>
<text text-anchor="start" x="1406" y="-96" font-family="Helvetica,sans-Serif" font-size="10.00">+ GetDumpStr()</text>
<text text-anchor="start" x="1406" y="-85" font-family="Helvetica,sans-Serif" font-size="10.00">+ GetRecord()</text>
<text text-anchor="start" x="1406" y="-74" font-family="Helvetica,sans-Serif" font-size="10.00">~ IncrementContentions()</text>
<text text-anchor="start" x="1406" y="-63" font-family="Helvetica,sans-Serif" font-size="10.00">~ IncrementOverruns()</text>
<text text-anchor="start" x="1406" y="-52" font-family="Helvetica,sans-Serif" font-size="10.00">~ IncrementUnderruns()</text>
<text text-anchor="start" x="1406" y="-41" font-family="Helvetica,sans-Serif" font-size="10.00">&#45; _Clear()</text>
<text text-anchor="start" x="1406" y="-30" font-family="Helvetica,sans-Serif" font-size="10.00">&#45; _Increment()</text>
<text text-anchor="start" x="1406" y="-19" font-family="Helvetica,sans-Serif" font-size="10.00">&#45; _Lock()</text>
<text text-anchor="start" x="1406" y="-8" font-family="Helvetica,sans-Serif" font-size="10.00">&#45; _Unlock()</text>
</a>
</g>
</g>
<!-- Node1&#45;&gt;Node11 -->
<g id="edge10" class="edge"><title>Node1&#45;&gt;Node11</title>
<path fill="none" stroke="midnightblue" d="M823.684,-288.237C956.139,-287.919 1294.61,-281.357 1389,-224 1392.06,-222.143 1395.01,-220.105 1397.86,-217.913"/>
<polygon fill="none" stroke="midnightblue" points="823.381,-284.737 813.385,-288.25 823.39,-291.737 823.381,-284.737"/>
</g>
</g>
</svg>
        <g id="navigator" transform="translate(0 0)" fill="#404254">
                <rect fill="#f2f5e9" fill-opacity="0.5" stroke="#606060" stroke-width=".5" x="0" y="0" width="60" height="60"/>
                <use id="zoomplus" xlink:href="#zoomPlus" x="17" y="9" onmousedown="handleZoom(evt,'in')"/>
                <use id="zoomminus" xlink:href="#zoomMin" x="42" y="9" onmousedown="handleZoom(evt,'out')"/>
                <use id="reset" xlink:href="#resetDef" x="30" y="36" onmousedown="handleReset()"/>
                <g id="arrowUp" xlink:href="#dirArrow" transform="translate(30 24)" onmousedown="handlePan(0,-1)">
                  <use xlink:href="#rim" fill="#404040">
                        <set attributeName="fill" to="#808080" begin="arrowUp.mouseover" end="arrowUp.mouseout"/>
                  </use>
                  <path fill="none" stroke="white" stroke-width="1.5" d="M0,-3.0v7 M-2.5,-0.5L0,-3.0L2.5,-0.5"/>
                </g>
                <g id="arrowRight" xlink:href="#dirArrow" transform="rotate(90) translate(36 -43)" onmousedown="handlePan(1,0)">
                  <use xlink:href="#rim" fill="#404040">
                        <set attributeName="fill" to="#808080" begin="arrowRight.mouseover" end="arrowRight.mouseout"/>
                  </use>
                  <path fill="none" stroke="white" stroke-width="1.5" d="M0,-3.0v7 M-2.5,-0.5L0,-3.0L2.5,-0.5"/>
                </g>
                <g id="arrowDown" xlink:href="#dirArrow" transform="rotate(180) translate(-30 -48)" onmousedown="handlePan(0,1)">
                  <use xlink:href="#rim" fill="#404040">
                        <set attributeName="fill" to="#808080" begin="arrowDown.mouseover" end="arrowDown.mouseout"/>
                  </use>
                  <path fill="none" stroke="white" stroke-width="1.5" d="M0,-3.0v7 M-2.5,-0.5L0,-3.0L2.5,-0.5"/>
                </g>
                <g id="arrowLeft" xlink:href="#dirArrow" transform="rotate(270) translate(-36 17)" onmousedown="handlePan(-1,0)">
                  <use xlink:href="#rim" fill="#404040">
                        <set attributeName="fill" to="#808080" begin="arrowLeft.mouseover" end="arrowLeft.mouseout"/>
                  </use>
                  <path fill="none" stroke="white" stroke-width="1.5" d="M0,-3.0v7 M-2.5,-0.5L0,-3.0L2.5,-0.5"/>
                </g>
        </g>
        <svg viewBox="0 0 15 15" width="100%" height="30px" preserveAspectRatio="xMaxYMin meet">
         <g id="arrow_out" transform="scale(0.3 0.3)">
          <a xlink:href="interfaceppm__java_1_1typelib_1_1_i_stats__inherit__graph_org.svg" target="_base">
           <rect id="button" ry="5" rx="5" y="6" x="6" height="38" width="38"
                fill="#f2f5e9" fill-opacity="0.5" stroke="#606060" stroke-width="1.0"/>
           <path id="arrow"
             d="M 11.500037,31.436501 C 11.940474,20.09759 22.043105,11.32322 32.158766,21.979434 L 37.068811,17.246167 C 37.068811,17.246167 37.088388,32 37.088388,32 L 22.160133,31.978069 C 22.160133,31.978069 26.997745,27.140456 26.997745,27.140456 C 18.528582,18.264221 13.291696,25.230495 11.500037,31.436501 z"
             style="fill:#404040;"/>
          </a>
         </g>
        </svg>
</svg>
