<?xml version="1.0" encoding="UTF-8" standalone="no"?>
<!DOCTYPE svg PUBLIC "-//W3C//DTD SVG 1.1//EN"
 "http://www.w3.org/Graphics/SVG/1.1/DTD/svg11.dtd">
<!-- Generated by graphviz version 2.36.0 (20140111.2315)
 -->
<!-- Title: TGUINeedle_WndPPM Pages: 1 -->
<svg width="142pt" height="336pt"
 viewBox="0.00 0.00 142.00 336.00" xmlns="http://www.w3.org/2000/svg" xmlns:xlink="http://www.w3.org/1999/xlink">
<g id="graph0" class="graph" transform="scale(1 1) rotate(0) translate(4 332)">
<title>TGUINeedle_WndPPM</title>
<polygon fill="white" stroke="none" points="-4,4 -4,-332 138,-332 138,4 -4,4"/>
<!-- Node1 -->
<g id="node1" class="node"><title>Node1</title>
<polygon fill="#bfbfbf" stroke="black" points="0,-0.5 0,-233.5 134,-233.5 134,-0.5 0,-0.5"/>
<text text-anchor="middle" x="67" y="-221.5" font-family="Helvetica,sans-Serif" font-size="10.00">TGUINeedle_WndPPM</text>
<polyline fill="none" stroke="black" points="0,-214.5 134,-214.5 "/>
<text text-anchor="start" x="8" y="-202.5" font-family="Helvetica,sans-Serif" font-size="10.00">&#45; fConnector</text>
<text text-anchor="start" x="8" y="-191.5" font-family="Helvetica,sans-Serif" font-size="10.00">&#45; fMeterL</text>
<text text-anchor="start" x="8" y="-180.5" font-family="Helvetica,sans-Serif" font-size="10.00">&#45; fMeterR</text>
<text text-anchor="start" x="8" y="-169.5" font-family="Helvetica,sans-Serif" font-size="10.00">&#45; fTimerL</text>
<text text-anchor="start" x="8" y="-158.5" font-family="Helvetica,sans-Serif" font-size="10.00">&#45; fTimerR</text>
<text text-anchor="start" x="8" y="-147.5" font-family="Helvetica,sans-Serif" font-size="10.00">&#45; gkColorClip</text>
<text text-anchor="start" x="8" y="-136.5" font-family="Helvetica,sans-Serif" font-size="10.00">&#45; gkColorNormal</text>
<text text-anchor="start" x="8" y="-125.5" font-family="Helvetica,sans-Serif" font-size="10.00">&#45; gkColorWarn</text>
<text text-anchor="start" x="8" y="-114.5" font-family="Helvetica,sans-Serif" font-size="10.00">&#45; gkIChanL</text>
<text text-anchor="start" x="8" y="-103.5" font-family="Helvetica,sans-Serif" font-size="10.00">&#45; gkIChanR</text>
<text text-anchor="start" x="8" y="-92.5" font-family="Helvetica,sans-Serif" font-size="10.00">&#45; serialVersionUID</text>
<polyline fill="none" stroke="black" points="0,-85.5 134,-85.5 "/>
<text text-anchor="start" x="8" y="-73.5" font-family="Helvetica,sans-Serif" font-size="10.00">+ TGUINeedle_WndPPM()</text>
<text text-anchor="start" x="8" y="-62.5" font-family="Helvetica,sans-Serif" font-size="10.00">+ SetClipping()</text>
<text text-anchor="start" x="8" y="-51.5" font-family="Helvetica,sans-Serif" font-size="10.00">+ SetLevel()</text>
<text text-anchor="start" x="8" y="-40.5" font-family="Helvetica,sans-Serif" font-size="10.00">+ Terminate()</text>
<text text-anchor="start" x="8" y="-29.5" font-family="Helvetica,sans-Serif" font-size="10.00">~ _SetClipping()</text>
<text text-anchor="start" x="8" y="-18.5" font-family="Helvetica,sans-Serif" font-size="10.00">&#45; _OnWindowClosing()</text>
<text text-anchor="start" x="8" y="-7.5" font-family="Helvetica,sans-Serif" font-size="10.00">&#45; initComponents()</text>
</g>
<!-- Node2 -->
<g id="node2" class="node"><title>Node2</title>
<polygon fill="white" stroke="#bfbfbf" points="42,-270.5 42,-327.5 92,-327.5 92,-270.5 42,-270.5"/>
<text text-anchor="middle" x="67" y="-315.5" font-family="Helvetica,sans-Serif" font-size="10.00">JFrame</text>
<polyline fill="none" stroke="#bfbfbf" points="42,-308.5 92,-308.5 "/>
<text text-anchor="middle" x="67" y="-296.5" font-family="Helvetica,sans-Serif" font-size="10.00"> </text>
<polyline fill="none" stroke="#bfbfbf" points="42,-289.5 92,-289.5 "/>
<text text-anchor="middle" x="67" y="-277.5" font-family="Helvetica,sans-Serif" font-size="10.00"> </text>
</g>
<!-- Node2&#45;&gt;Node1 -->
<g id="edge1" class="edge"><title>Node2&#45;&gt;Node1</title>
<path fill="none" stroke="midnightblue" d="M67,-260.141C67,-252.029 67,-243.054 67,-233.673"/>
<polygon fill="none" stroke="midnightblue" points="63.5001,-260.269 67,-270.269 70.5001,-260.27 63.5001,-260.269"/>
</g>
</g>
</svg>
