<?xml version="1.0" encoding="UTF-8" standalone="no"?>
<!DOCTYPE svg PUBLIC "-//W3C//DTD SVG 1.1//EN"
 "http://www.w3.org/Graphics/SVG/1.1/DTD/svg11.dtd">
<!-- Generated by graphviz version 2.36.0 (20140111.2315)
 -->
<!-- Title: TAudioContext_JackD Pages: 1 -->
<!--zoomable 910 -->
<svg id="main" version="1.1" xmlns="http://www.w3.org/2000/svg" xmlns:xlink="http://www.w3.org/1999/xlink" xml:space="preserve" onload="init(evt)">
<style type="text/css"><![CDATA[
.edge:hover path { stroke: red; }
.edge:hover polygon { stroke: red; fill: red; }
]]></style>
<script type="text/javascript"><![CDATA[
var edges = document.getElementsByTagName('g');
if (edges && edges.length) {
  for (var i=0;i<edges.length;i++) {
    if (edges[i].id.substr(0,4)=='edge') {
      edges[i].setAttribute('class','edge');
    }
  }
}
]]></script>
        <defs>
                <circle id="rim" cx="0" cy="0" r="7"/>
                <circle id="rim2" cx="0" cy="0" r="3.5"/>
                <g id="zoomPlus">
                        <use xlink:href="#rim" fill="#404040">
                                <set attributeName="fill" to="#808080" begin="zoomplus.mouseover" end="zoomplus.mouseout"/>
                        </use>
                        <path d="M-4,0h8M0,-4v8" fill="none" stroke="white" stroke-width="1.5" pointer-events="none"/>
                </g>
                <g id="zoomMin">
                        <use xlink:href="#rim" fill="#404040">
                                <set attributeName="fill" to="#808080" begin="zoomminus.mouseover" end="zoomminus.mouseout"/>
                        </use>
                        <path d="M-4,0h8" fill="none" stroke="white" stroke-width="1.5" pointer-events="none"/>
                </g>
                <g id="dirArrow">
                        <path fill="none" stroke="white" stroke-width="1.5" d="M0,-3.0v7 M-2.5,-0.5L0,-3.0L2.5,-0.5"/>
                </g>
               <g id="resetDef">
                       <use xlink:href="#rim2" fill="#404040">
                               <set attributeName="fill" to="#808080" begin="reset.mouseover" end="reset.mouseout"/>
                       </use>
               </g>
        </defs>

<script type="text/javascript">
var viewWidth = 549;
var viewHeight = 910;
var sectionId = 'dynsection-1';
</script>
<script xlink:href="../../svgpan.js"/>
<svg id="graph" class="graph">
<g id="viewport">
<title>TAudioContext_JackD</title>
<polygon fill="white" stroke="none" points="-4,4 -4,-906 545,-906 545,4 -4,4"/>
<!-- Node1 -->
<g id="node1" class="node"><title>Node1</title>
<polygon fill="#bfbfbf" stroke="black" points="296,-140.5 296,-351.5 424,-351.5 424,-140.5 296,-140.5"/>
<text text-anchor="middle" x="360" y="-339.5" font-family="Helvetica,sans-Serif" font-size="10.00">TAudioContext_JackD</text>
<polyline fill="none" stroke="black" points="296,-332.5 424,-332.5 "/>
<text text-anchor="start" x="304" y="-320.5" font-family="Helvetica,sans-Serif" font-size="10.00">&#45; fIsWorking</text>
<text text-anchor="start" x="304" y="-309.5" font-family="Helvetica,sans-Serif" font-size="10.00">&#45; fSampleRate</text>
<polyline fill="none" stroke="black" points="296,-302.5 424,-302.5 "/>
<text text-anchor="start" x="304" y="-290.5" font-family="Helvetica,sans-Serif" font-size="10.00">+ CreatePort_Out()</text>
<text text-anchor="start" x="304" y="-279.5" font-family="Helvetica,sans-Serif" font-size="10.00">+ GetSampleRate()</text>
<text text-anchor="start" x="304" y="-268.5" font-family="Helvetica,sans-Serif" font-size="10.00">+ IsWorking()</text>
<text text-anchor="start" x="304" y="-257.5" font-family="Helvetica,sans-Serif" font-size="10.00">+ process()</text>
<text text-anchor="start" x="304" y="-246.5" font-family="Helvetica,sans-Serif" font-size="10.00">+ Start()</text>
<text text-anchor="start" x="304" y="-235.5" font-family="Helvetica,sans-Serif" font-size="10.00">+ StatsGet()</text>
<text text-anchor="start" x="304" y="-224.5" font-family="Helvetica,sans-Serif" font-size="10.00">+ Stop()</text>
<text text-anchor="start" x="304" y="-213.5" font-family="Helvetica,sans-Serif" font-size="10.00">+ CreateInstance()</text>
<text text-anchor="start" x="304" y="-202.5" font-family="Helvetica,sans-Serif" font-size="10.00"># _Register()</text>
<text text-anchor="start" x="304" y="-191.5" font-family="Helvetica,sans-Serif" font-size="10.00">&#45; TAudioContext_JackD()</text>
<text text-anchor="start" x="304" y="-180.5" font-family="Helvetica,sans-Serif" font-size="10.00">&#45; _LoadDriver()</text>
<text text-anchor="start" x="304" y="-169.5" font-family="Helvetica,sans-Serif" font-size="10.00">&#45; _ProcessInputs()</text>
<text text-anchor="start" x="304" y="-158.5" font-family="Helvetica,sans-Serif" font-size="10.00">&#45; _ProcessOutputs()</text>
<text text-anchor="start" x="304" y="-147.5" font-family="Helvetica,sans-Serif" font-size="10.00">&#45; _StopDriver()</text>
</g>
<!-- Node1&#45;&gt;Node1 -->
<g id="edge10" class="edge"><title>Node1&#45;&gt;Node1</title>
<path fill="none" stroke="#404040" d="M424.288,-267.512C434.785,-264.432 442,-257.262 442,-246 442,-239.313 439.457,-234.069 435.193,-230.267"/>
<polygon fill="none" stroke="#404040" points="434.891,-230.107 427.716,-230.832 424.288,-224.488 431.462,-223.763 434.891,-230.107"/>
<text text-anchor="middle" x="465" y="-243.5" font-family="Helvetica,sans-Serif" font-size="10.00"> &#45;gContext</text>
</g>
<!-- Node11 -->
<g id="node11" class="node"><title>Node11</title>
<g id="a_node11"><a xlink:href="../../d3/df6/classppm__java_1_1backend_1_1module_1_1jackd_1_1_t_audio_context___jack_d___stats.html" target="_top" xlink:title="Runtime statistics for a TAudioContext_JackD. ">
<polygon fill="white" stroke="black" points="243.5,-1 243.5,-91 368.5,-91 368.5,-1 243.5,-1"/>
<text text-anchor="start" x="251.5" y="-79" font-family="Helvetica,sans-Serif" font-size="10.00">TAudioContext_JackD</text>
<text text-anchor="middle" x="306" y="-68" font-family="Helvetica,sans-Serif" font-size="10.00">_Stats</text>
<polyline fill="none" stroke="black" points="243.5,-61 368.5,-61 "/>
<text text-anchor="middle" x="306" y="-49" font-family="Helvetica,sans-Serif" font-size="10.00"> </text>
<polyline fill="none" stroke="black" points="243.5,-42 368.5,-42 "/>
<text text-anchor="start" x="251.5" y="-30" font-family="Helvetica,sans-Serif" font-size="10.00">+ TAudioContext_JackD</text>
<text text-anchor="start" x="251.5" y="-19" font-family="Helvetica,sans-Serif" font-size="10.00">_Stats()</text>
<text text-anchor="start" x="251.5" y="-8" font-family="Helvetica,sans-Serif" font-size="10.00">+ GetDumpStr()</text>
</a>
</g>
</g>
<!-- Node1&#45;&gt;Node11 -->
<g id="edge13" class="edge"><title>Node1&#45;&gt;Node11</title>
<path fill="none" stroke="#404040" d="M307.943,-140.366C306.018,-134.238 304.343,-128.091 303,-122 301.684,-116.029 300.951,-109.727 300.631,-103.416"/>
<polygon fill="none" stroke="#404040" points="300.631,-103.353 296.557,-97.4029 300.483,-91.354 304.556,-97.3042 300.631,-103.353"/>
<text text-anchor="middle" x="318.5" y="-113.5" font-family="Helvetica,sans-Serif" font-size="10.00"> &#45;fHost</text>
</g>
<!-- Node2 -->
<g id="node2" class="node"><title>Node2</title>
<g id="a_node2"><a xlink:href="../../dc/d95/classppm__java_1_1typelib_1_1_v_audio_driver.html" target="_top" xlink:title="Base class for all audio drivers. ">
<polygon fill="white" stroke="black" points="139,-391 139,-459 231,-459 231,-391 139,-391"/>
<text text-anchor="middle" x="185" y="-447" font-family="Helvetica,sans-Serif" font-size="10.00">VAudioDriver</text>
<polyline fill="none" stroke="black" points="139,-440 231,-440 "/>
<text text-anchor="middle" x="185" y="-428" font-family="Helvetica,sans-Serif" font-size="10.00"> </text>
<polyline fill="none" stroke="black" points="139,-421 231,-421 "/>
<text text-anchor="start" x="147" y="-409" font-family="Helvetica,sans-Serif" font-size="10.00">+ VAudioDriver()</text>
<text text-anchor="start" x="147" y="-398" font-family="Helvetica,sans-Serif" font-size="10.00">+ CreatePort_In()</text>
</a>
</g>
</g>
<!-- Node2&#45;&gt;Node1 -->
<g id="edge1" class="edge"><title>Node2&#45;&gt;Node1</title>
<path fill="none" stroke="midnightblue" d="M239.552,-387.983C259.288,-374.435 278.748,-360.311 287,-352 289.972,-349.007 292.905,-345.879 295.789,-342.654"/>
<polygon fill="none" stroke="midnightblue" points="237.403,-385.213 231.109,-393.736 241.344,-390.997 237.403,-385.213"/>
</g>
<!-- Node3 -->
<g id="node3" class="node"><title>Node3</title>
<g id="a_node3"><a xlink:href="../../d5/d6a/classppm__java_1_1typelib_1_1_v_audio_processor.html" target="_top" xlink:title="Base class for all modules processing audio samples. ">
<polygon fill="white" stroke="black" points="131.5,-498.5 131.5,-665.5 238.5,-665.5 238.5,-498.5 131.5,-498.5"/>
<text text-anchor="middle" x="185" y="-653.5" font-family="Helvetica,sans-Serif" font-size="10.00">VAudioProcessor</text>
<polyline fill="none" stroke="black" points="131.5,-646.5 238.5,-646.5 "/>
<text text-anchor="middle" x="185" y="-634.5" font-family="Helvetica,sans-Serif" font-size="10.00"> </text>
<polyline fill="none" stroke="black" points="131.5,-627.5 238.5,-627.5 "/>
<text text-anchor="start" x="139.5" y="-615.5" font-family="Helvetica,sans-Serif" font-size="10.00">+ VAudioProcessor()</text>
<text text-anchor="start" x="139.5" y="-604.5" font-family="Helvetica,sans-Serif" font-size="10.00">+ CreatePort_In()</text>
<text text-anchor="start" x="139.5" y="-593.5" font-family="Helvetica,sans-Serif" font-size="10.00">+ CreatePort_Out()</text>
<text text-anchor="start" x="139.5" y="-582.5" font-family="Helvetica,sans-Serif" font-size="10.00">+ GetNumPortsIn()</text>
<text text-anchor="start" x="139.5" y="-571.5" font-family="Helvetica,sans-Serif" font-size="10.00">+ GetNumPortsOut()</text>
<text text-anchor="start" x="139.5" y="-560.5" font-family="Helvetica,sans-Serif" font-size="10.00">+ GetPortIn()</text>
<text text-anchor="start" x="139.5" y="-549.5" font-family="Helvetica,sans-Serif" font-size="10.00">+ GetPortIn()</text>
<text text-anchor="start" x="139.5" y="-538.5" font-family="Helvetica,sans-Serif" font-size="10.00">+ GetPortOut()</text>
<text text-anchor="start" x="139.5" y="-527.5" font-family="Helvetica,sans-Serif" font-size="10.00">+ GetPortOut()</text>
<text text-anchor="start" x="139.5" y="-516.5" font-family="Helvetica,sans-Serif" font-size="10.00"># AddPortIn()</text>
<text text-anchor="start" x="139.5" y="-505.5" font-family="Helvetica,sans-Serif" font-size="10.00"># AddPortOut()</text>
</a>
</g>
</g>
<!-- Node3&#45;&gt;Node2 -->
<g id="edge2" class="edge"><title>Node3&#45;&gt;Node2</title>
<path fill="none" stroke="midnightblue" d="M185,-487.761C185,-477.566 185,-467.751 185,-459.061"/>
<polygon fill="none" stroke="midnightblue" points="181.5,-488.055 185,-498.055 188.5,-488.055 181.5,-488.055"/>
</g>
<!-- Node4 -->
<g id="node4" class="node"><title>Node4</title>
<g id="a_node4"><a xlink:href="../../d1/db3/classppm__java_1_1typelib_1_1_v_audio_object.html" target="_top" xlink:title="Base class for all browseable audio objects. ">
<polygon fill="white" stroke="black" points="0,-720.5 0,-777.5 92,-777.5 92,-720.5 0,-720.5"/>
<text text-anchor="middle" x="46" y="-765.5" font-family="Helvetica,sans-Serif" font-size="10.00">VAudioObject</text>
<polyline fill="none" stroke="black" points="0,-758.5 92,-758.5 "/>
<text text-anchor="middle" x="46" y="-746.5" font-family="Helvetica,sans-Serif" font-size="10.00"> </text>
<polyline fill="none" stroke="black" points="0,-739.5 92,-739.5 "/>
<text text-anchor="start" x="8" y="-727.5" font-family="Helvetica,sans-Serif" font-size="10.00">+ VAudioObject()</text>
</a>
</g>
</g>
<!-- Node4&#45;&gt;Node3 -->
<g id="edge3" class="edge"><title>Node4&#45;&gt;Node3</title>
<path fill="none" stroke="midnightblue" d="M75.9091,-712.496C92.0628,-693.321 112.498,-669.064 131.303,-646.741"/>
<polygon fill="none" stroke="midnightblue" points="73.0315,-710.48 69.2655,-720.383 78.3851,-714.99 73.0315,-710.48"/>
</g>
<!-- Node5 -->
<g id="node5" class="node"><title>Node5</title>
<g id="a_node5"><a xlink:href="../../de/dd1/classppm__java_1_1typelib_1_1_v_browseable.html" target="_top" xlink:title="Base class for all browseable objects. ">
<polygon fill="white" stroke="black" points="1.5,-822.5 1.5,-901.5 90.5,-901.5 90.5,-822.5 1.5,-822.5"/>
<text text-anchor="middle" x="46" y="-889.5" font-family="Helvetica,sans-Serif" font-size="10.00">VBrowseable</text>
<polyline fill="none" stroke="black" points="1.5,-882.5 90.5,-882.5 "/>
<text text-anchor="start" x="9.5" y="-870.5" font-family="Helvetica,sans-Serif" font-size="10.00">&#45; fID</text>
<polyline fill="none" stroke="black" points="1.5,-863.5 90.5,-863.5 "/>
<text text-anchor="start" x="9.5" y="-851.5" font-family="Helvetica,sans-Serif" font-size="10.00">+ VBrowseable()</text>
<text text-anchor="start" x="9.5" y="-840.5" font-family="Helvetica,sans-Serif" font-size="10.00">+ GetID()</text>
<text text-anchor="start" x="9.5" y="-829.5" font-family="Helvetica,sans-Serif" font-size="10.00"># _Register()</text>
</a>
</g>
</g>
<!-- Node5&#45;&gt;Node4 -->
<g id="edge4" class="edge"><title>Node5&#45;&gt;Node4</title>
<path fill="none" stroke="midnightblue" d="M46,-812.227C46,-800.364 46,-788.085 46,-777.601"/>
<polygon fill="none" stroke="midnightblue" points="42.5001,-812.489 46,-822.489 49.5001,-812.489 42.5001,-812.489"/>
</g>
<!-- Node6 -->
<g id="node6" class="node"><title>Node6</title>
<polygon fill="white" stroke="#bfbfbf" points="110,-715 110,-783 260,-783 260,-715 110,-715"/>
<text text-anchor="start" x="118" y="-771" font-family="Helvetica,sans-Serif" font-size="10.00">TArrayMap&lt; ppm_java.typelib.</text>
<text text-anchor="middle" x="185" y="-760" font-family="Helvetica,sans-Serif" font-size="10.00">VAudioPort_Output &gt;</text>
<polyline fill="none" stroke="#bfbfbf" points="110,-753 260,-753 "/>
<text text-anchor="middle" x="185" y="-741" font-family="Helvetica,sans-Serif" font-size="10.00"> </text>
<polyline fill="none" stroke="#bfbfbf" points="110,-734 260,-734 "/>
<text text-anchor="middle" x="185" y="-722" font-family="Helvetica,sans-Serif" font-size="10.00"> </text>
</g>
<!-- Node6&#45;&gt;Node3 -->
<g id="edge5" class="edge"><title>Node6&#45;&gt;Node3</title>
<path fill="none" stroke="#404040" d="M185,-714.61C185,-703.723 185,-691.043 185,-677.934"/>
<polygon fill="none" stroke="#404040" points="185,-677.813 181,-671.813 185,-665.813 189,-671.813 185,-677.813"/>
<text text-anchor="middle" x="209.5" y="-687.5" font-family="Helvetica,sans-Serif" font-size="10.00"> &#45;fPortsOut</text>
</g>
<!-- Node7 -->
<g id="node7" class="node"><title>Node7</title>
<polygon fill="white" stroke="#bfbfbf" points="278,-715 278,-783 428,-783 428,-715 278,-715"/>
<text text-anchor="start" x="286" y="-771" font-family="Helvetica,sans-Serif" font-size="10.00">TArrayMap&lt; ppm_java.typelib.</text>
<text text-anchor="middle" x="353" y="-760" font-family="Helvetica,sans-Serif" font-size="10.00">VAudioPort_Input &gt;</text>
<polyline fill="none" stroke="#bfbfbf" points="278,-753 428,-753 "/>
<text text-anchor="middle" x="353" y="-741" font-family="Helvetica,sans-Serif" font-size="10.00"> </text>
<polyline fill="none" stroke="#bfbfbf" points="278,-734 428,-734 "/>
<text text-anchor="middle" x="353" y="-722" font-family="Helvetica,sans-Serif" font-size="10.00"> </text>
</g>
<!-- Node7&#45;&gt;Node3 -->
<g id="edge6" class="edge"><title>Node7&#45;&gt;Node3</title>
<path fill="none" stroke="#404040" d="M319.003,-714.61C298.509,-694.482 271.771,-668.221 247.575,-644.457"/>
<polygon fill="none" stroke="#404040" points="247.353,-644.24 240.269,-642.889 238.792,-635.831 245.875,-637.182 247.353,-644.24"/>
<text text-anchor="middle" x="319.5" y="-687.5" font-family="Helvetica,sans-Serif" font-size="10.00"> &#45;fPortsIn</text>
</g>
<!-- Node8 -->
<g id="node8" class="node"><title>Node8</title>
<polygon fill="white" stroke="#bfbfbf" points="249,-396.5 249,-453.5 361,-453.5 361,-396.5 249,-396.5"/>
<text text-anchor="middle" x="305" y="-441.5" font-family="Helvetica,sans-Serif" font-size="10.00">JJackAudioProcessor</text>
<polyline fill="none" stroke="#bfbfbf" points="249,-434.5 361,-434.5 "/>
<text text-anchor="middle" x="305" y="-422.5" font-family="Helvetica,sans-Serif" font-size="10.00"> </text>
<polyline fill="none" stroke="#bfbfbf" points="249,-415.5 361,-415.5 "/>
<text text-anchor="middle" x="305" y="-403.5" font-family="Helvetica,sans-Serif" font-size="10.00"> </text>
</g>
<!-- Node8&#45;&gt;Node1 -->
<g id="edge7" class="edge"><title>Node8&#45;&gt;Node1</title>
<path fill="none" stroke="midnightblue" d="M316.588,-386.709C319.869,-376.15 323.61,-364.109 327.49,-351.624"/>
<polygon fill="none" stroke="midnightblue" points="313.219,-385.756 313.594,-396.344 319.904,-387.833 313.219,-385.756"/>
</g>
<!-- Node9 -->
<g id="node9" class="node"><title>Node9</title>
<g id="a_node9"><a xlink:href="../../db/d44/interfaceppm__java_1_1typelib_1_1_i_controllable.html" target="_top" xlink:title="A module or construct which can receive some low level control commands (start/stop etc...">
<polygon fill="white" stroke="black" points="379.5,-391 379.5,-459 450.5,-459 450.5,-391 379.5,-391"/>
<text text-anchor="middle" x="415" y="-447" font-family="Helvetica,sans-Serif" font-size="10.00">IControllable</text>
<polyline fill="none" stroke="black" points="379.5,-440 450.5,-440 "/>
<text text-anchor="middle" x="415" y="-428" font-family="Helvetica,sans-Serif" font-size="10.00"> </text>
<polyline fill="none" stroke="black" points="379.5,-421 450.5,-421 "/>
<text text-anchor="start" x="387.5" y="-409" font-family="Helvetica,sans-Serif" font-size="10.00">+ Start()</text>
<text text-anchor="start" x="387.5" y="-398" font-family="Helvetica,sans-Serif" font-size="10.00">+ Stop()</text>
</a>
</g>
</g>
<!-- Node9&#45;&gt;Node1 -->
<g id="edge8" class="edge"><title>Node9&#45;&gt;Node1</title>
<path fill="none" stroke="midnightblue" d="M401.612,-380.915C398.808,-371.89 395.735,-362 392.569,-351.812"/>
<polygon fill="none" stroke="midnightblue" points="398.345,-382.197 404.655,-390.708 405.03,-380.119 398.345,-382.197"/>
</g>
<!-- Node10 -->
<g id="node10" class="node"><title>Node10</title>
<g id="a_node10"><a xlink:href="../../dc/dc0/interfaceppm__java_1_1typelib_1_1_i_stat_enabled.html" target="_top" xlink:title="Interface for an object that supports runtime statistics. ">
<polygon fill="white" stroke="black" points="468.5,-396.5 468.5,-453.5 541.5,-453.5 541.5,-396.5 468.5,-396.5"/>
<text text-anchor="middle" x="505" y="-441.5" font-family="Helvetica,sans-Serif" font-size="10.00">IStatEnabled</text>
<polyline fill="none" stroke="black" points="468.5,-434.5 541.5,-434.5 "/>
<text text-anchor="middle" x="505" y="-422.5" font-family="Helvetica,sans-Serif" font-size="10.00"> </text>
<polyline fill="none" stroke="black" points="468.5,-415.5 541.5,-415.5 "/>
<text text-anchor="start" x="476.5" y="-403.5" font-family="Helvetica,sans-Serif" font-size="10.00">+ StatsGet()</text>
</a>
</g>
</g>
<!-- Node10&#45;&gt;Node1 -->
<g id="edge9" class="edge"><title>Node10&#45;&gt;Node1</title>
<path fill="none" stroke="midnightblue" d="M475.789,-388.342C460.897,-370.164 442.162,-347.294 424.127,-325.279"/>
<polygon fill="none" stroke="midnightblue" points="473.299,-390.826 482.344,-396.344 478.714,-386.39 473.299,-390.826"/>
</g>
<!-- Node11&#45;&gt;Node1 -->
<g id="edge11" class="edge"><title>Node11&#45;&gt;Node1</title>
<path fill="none" stroke="#404040" d="M330.487,-91.0112C333.33,-97.2594 335.943,-103.703 338,-110 339.932,-115.915 341.7,-122.033 343.315,-128.251"/>
<polygon fill="none" stroke="#404040" points="343.41,-128.643 348.712,-133.531 346.239,-140.305 340.937,-135.417 343.41,-128.643"/>
<text text-anchor="middle" x="358.5" y="-113.5" font-family="Helvetica,sans-Serif" font-size="10.00"> &#45;fStats</text>
</g>
<!-- Node12 -->
<g id="node12" class="node"><title>Node12</title>
<g id="a_node12"><a xlink:href="../../d7/d5a/interfaceppm__java_1_1typelib_1_1_i_stats.html" target="_top" xlink:title="Interface for a statistics record. ">
<polygon fill="white" stroke="black" points="192,-217.5 192,-274.5 278,-274.5 278,-217.5 192,-217.5"/>
<text text-anchor="middle" x="235" y="-262.5" font-family="Helvetica,sans-Serif" font-size="10.00">IStats</text>
<polyline fill="none" stroke="black" points="192,-255.5 278,-255.5 "/>
<text text-anchor="middle" x="235" y="-243.5" font-family="Helvetica,sans-Serif" font-size="10.00"> </text>
<polyline fill="none" stroke="black" points="192,-236.5 278,-236.5 "/>
<text text-anchor="start" x="200" y="-224.5" font-family="Helvetica,sans-Serif" font-size="10.00">+ GetDumpStr()</text>
</a>
</g>
</g>
<!-- Node12&#45;&gt;Node11 -->
<g id="edge12" class="edge"><title>Node12&#45;&gt;Node11</title>
<path fill="none" stroke="midnightblue" d="M248.372,-207.708C260.257,-174.565 277.645,-126.075 290.21,-91.0348"/>
<polygon fill="none" stroke="midnightblue" points="244.953,-206.874 244.872,-217.469 251.542,-209.237 244.953,-206.874"/>
</g>
</g>
</svg>
        <g id="navigator" transform="translate(0 0)" fill="#404254">
                <rect fill="#f2f5e9" fill-opacity="0.5" stroke="#606060" stroke-width=".5" x="0" y="0" width="60" height="60"/>
                <use id="zoomplus" xlink:href="#zoomPlus" x="17" y="9" onmousedown="handleZoom(evt,'in')"/>
                <use id="zoomminus" xlink:href="#zoomMin" x="42" y="9" onmousedown="handleZoom(evt,'out')"/>
                <use id="reset" xlink:href="#resetDef" x="30" y="36" onmousedown="handleReset()"/>
                <g id="arrowUp" xlink:href="#dirArrow" transform="translate(30 24)" onmousedown="handlePan(0,-1)">
                  <use xlink:href="#rim" fill="#404040">
                        <set attributeName="fill" to="#808080" begin="arrowUp.mouseover" end="arrowUp.mouseout"/>
                  </use>
                  <path fill="none" stroke="white" stroke-width="1.5" d="M0,-3.0v7 M-2.5,-0.5L0,-3.0L2.5,-0.5"/>
                </g>
                <g id="arrowRight" xlink:href="#dirArrow" transform="rotate(90) translate(36 -43)" onmousedown="handlePan(1,0)">
                  <use xlink:href="#rim" fill="#404040">
                        <set attributeName="fill" to="#808080" begin="arrowRight.mouseover" end="arrowRight.mouseout"/>
                  </use>
                  <path fill="none" stroke="white" stroke-width="1.5" d="M0,-3.0v7 M-2.5,-0.5L0,-3.0L2.5,-0.5"/>
                </g>
                <g id="arrowDown" xlink:href="#dirArrow" transform="rotate(180) translate(-30 -48)" onmousedown="handlePan(0,1)">
                  <use xlink:href="#rim" fill="#404040">
                        <set attributeName="fill" to="#808080" begin="arrowDown.mouseover" end="arrowDown.mouseout"/>
                  </use>
                  <path fill="none" stroke="white" stroke-width="1.5" d="M0,-3.0v7 M-2.5,-0.5L0,-3.0L2.5,-0.5"/>
                </g>
                <g id="arrowLeft" xlink:href="#dirArrow" transform="rotate(270) translate(-36 17)" onmousedown="handlePan(-1,0)">
                  <use xlink:href="#rim" fill="#404040">
                        <set attributeName="fill" to="#808080" begin="arrowLeft.mouseover" end="arrowLeft.mouseout"/>
                  </use>
                  <path fill="none" stroke="white" stroke-width="1.5" d="M0,-3.0v7 M-2.5,-0.5L0,-3.0L2.5,-0.5"/>
                </g>
        </g>
        <svg viewBox="0 0 15 15" width="100%" height="30px" preserveAspectRatio="xMaxYMin meet">
         <g id="arrow_out" transform="scale(0.3 0.3)">
          <a xlink:href="classppm__java_1_1backend_1_1module_1_1jackd_1_1_t_audio_context___jack_d__coll__graph_org.svg" target="_base">
           <rect id="button" ry="5" rx="5" y="6" x="6" height="38" width="38"
                fill="#f2f5e9" fill-opacity="0.5" stroke="#606060" stroke-width="1.0"/>
           <path id="arrow"
             d="M 11.500037,31.436501 C 11.940474,20.09759 22.043105,11.32322 32.158766,21.979434 L 37.068811,17.246167 C 37.068811,17.246167 37.088388,32 37.088388,32 L 22.160133,31.978069 C 22.160133,31.978069 26.997745,27.140456 26.997745,27.140456 C 18.528582,18.264221 13.291696,25.230495 11.500037,31.436501 z"
             style="fill:#404040;"/>
          </a>
         </g>
        </svg>
</svg>
