<?xml version="1.0" encoding="UTF-8" standalone="no"?>
<!DOCTYPE svg PUBLIC "-//W3C//DTD SVG 1.1//EN"
 "http://www.w3.org/Graphics/SVG/1.1/DTD/svg11.dtd">
<!-- Generated by graphviz version 2.36.0 (20140111.2315)
 -->
<!-- Title: VAudioPort_Output_Chunks_NoBuffer Pages: 1 -->
<svg width="460pt" height="1016pt"
 viewBox="0.00 0.00 460.00 1016.00" xmlns="http://www.w3.org/2000/svg" xmlns:xlink="http://www.w3.org/1999/xlink">
<g id="graph0" class="graph" transform="scale(1 1) rotate(0) translate(4 1012)">
<title>VAudioPort_Output_Chunks_NoBuffer</title>
<polygon fill="white" stroke="none" points="-4,4 -4,-1012 456,-1012 456,4 -4,4"/>
<!-- Node1 -->
<g id="node1" class="node"><title>Node1</title>
<polygon fill="#bfbfbf" stroke="black" points="270,-1 270,-135 418,-135 418,-1 270,-1"/>
<text text-anchor="start" x="278" y="-123" font-family="Helvetica,sans-Serif" font-size="10.00">VAudioPort_Output_Chunks</text>
<text text-anchor="middle" x="344" y="-112" font-family="Helvetica,sans-Serif" font-size="10.00">_NoBuffer</text>
<polyline fill="none" stroke="black" points="270,-105 418,-105 "/>
<text text-anchor="middle" x="344" y="-93" font-family="Helvetica,sans-Serif" font-size="10.00"> </text>
<polyline fill="none" stroke="black" points="270,-86 418,-86 "/>
<text text-anchor="start" x="278" y="-74" font-family="Helvetica,sans-Serif" font-size="10.00">+ PushPacket()</text>
<text text-anchor="start" x="278" y="-63" font-family="Helvetica,sans-Serif" font-size="10.00"># VAudioPort_Output_Chunks</text>
<text text-anchor="start" x="278" y="-52" font-family="Helvetica,sans-Serif" font-size="10.00">_NoBuffer()</text>
<text text-anchor="start" x="278" y="-41" font-family="Helvetica,sans-Serif" font-size="10.00"># _GetType()</text>
<text text-anchor="start" x="278" y="-30" font-family="Helvetica,sans-Serif" font-size="10.00"># _Visit()</text>
<text text-anchor="start" x="278" y="-19" font-family="Helvetica,sans-Serif" font-size="10.00"># _Visit()</text>
<text text-anchor="start" x="278" y="-8" font-family="Helvetica,sans-Serif" font-size="10.00"># _Visit()</text>
</g>
<!-- Node2 -->
<g id="node2" class="node"><title>Node2</title>
<g id="a_node2"><a xlink:href="../../df/d02/classppm__java_1_1typelib_1_1_v_audio_port___output.html" target="_top" xlink:title="Base class for an output audio port. ">
<polygon fill="white" stroke="black" points="286,-175 286,-309 402,-309 402,-175 286,-175"/>
<text text-anchor="middle" x="344" y="-297" font-family="Helvetica,sans-Serif" font-size="10.00">VAudioPort_Output</text>
<polyline fill="none" stroke="black" points="286,-290 402,-290 "/>
<text text-anchor="middle" x="344" y="-278" font-family="Helvetica,sans-Serif" font-size="10.00"> </text>
<polyline fill="none" stroke="black" points="286,-271 402,-271 "/>
<text text-anchor="start" x="294" y="-259" font-family="Helvetica,sans-Serif" font-size="10.00">+ VAudioPort_Output()</text>
<text text-anchor="start" x="294" y="-248" font-family="Helvetica,sans-Serif" font-size="10.00">+ SetTarget()</text>
<text text-anchor="start" x="294" y="-237" font-family="Helvetica,sans-Serif" font-size="10.00"># _GetTarget()</text>
<text text-anchor="start" x="294" y="-226" font-family="Helvetica,sans-Serif" font-size="10.00"># _SetTarget()</text>
<text text-anchor="start" x="294" y="-215" font-family="Helvetica,sans-Serif" font-size="10.00"># _SetTarget_Log()</text>
<text text-anchor="start" x="294" y="-204" font-family="Helvetica,sans-Serif" font-size="10.00"># _Visit()</text>
<text text-anchor="start" x="294" y="-193" font-family="Helvetica,sans-Serif" font-size="10.00"># _Visit()</text>
<text text-anchor="start" x="294" y="-182" font-family="Helvetica,sans-Serif" font-size="10.00"># _Visit()</text>
</a>
</g>
</g>
<!-- Node2&#45;&gt;Node1 -->
<g id="edge1" class="edge"><title>Node2&#45;&gt;Node1</title>
<path fill="none" stroke="midnightblue" d="M344,-164.773C344,-154.884 344,-144.821 344,-135.115"/>
<polygon fill="none" stroke="midnightblue" points="340.5,-164.992 344,-174.992 347.5,-164.992 340.5,-164.992"/>
</g>
<!-- Node3 -->
<g id="node3" class="node"><title>Node3</title>
<g id="a_node3"><a xlink:href="../../de/dc9/classppm__java_1_1typelib_1_1_v_audio_port.html" target="_top" xlink:title="Base class for all audio ports. ">
<polygon fill="white" stroke="black" points="287.5,-476.5 287.5,-555.5 368.5,-555.5 368.5,-476.5 287.5,-476.5"/>
<text text-anchor="middle" x="328" y="-543.5" font-family="Helvetica,sans-Serif" font-size="10.00">VAudioPort</text>
<polyline fill="none" stroke="black" points="287.5,-536.5 368.5,-536.5 "/>
<text text-anchor="middle" x="328" y="-524.5" font-family="Helvetica,sans-Serif" font-size="10.00"> </text>
<polyline fill="none" stroke="black" points="287.5,-517.5 368.5,-517.5 "/>
<text text-anchor="start" x="295.5" y="-505.5" font-family="Helvetica,sans-Serif" font-size="10.00">+ VAudioPort()</text>
<text text-anchor="start" x="295.5" y="-494.5" font-family="Helvetica,sans-Serif" font-size="10.00"># _GetHost()</text>
<text text-anchor="start" x="295.5" y="-483.5" font-family="Helvetica,sans-Serif" font-size="10.00"># _GetType()</text>
</a>
</g>
</g>
<!-- Node3&#45;&gt;Node2 -->
<g id="edge2" class="edge"><title>Node3&#45;&gt;Node2</title>
<path fill="none" stroke="midnightblue" d="M329.756,-466.159C330.974,-435.162 332.776,-394.211 335,-358 335.97,-342.209 337.198,-325.212 338.433,-309.258"/>
<polygon fill="none" stroke="midnightblue" points="326.254,-466.141 329.365,-476.269 333.249,-466.411 326.254,-466.141"/>
</g>
<!-- Node9 -->
<g id="node9" class="node"><title>Node9</title>
<g id="a_node9"><a xlink:href="../../d9/d0e/classppm__java_1_1typelib_1_1_v_audio_port___input.html" target="_top" xlink:title="Base class for an input audio port. ">
<polygon fill="white" stroke="black" points="344,-358.5 344,-437.5 452,-437.5 452,-358.5 344,-358.5"/>
<text text-anchor="middle" x="398" y="-425.5" font-family="Helvetica,sans-Serif" font-size="10.00">VAudioPort_Input</text>
<polyline fill="none" stroke="black" points="344,-418.5 452,-418.5 "/>
<text text-anchor="start" x="352" y="-406.5" font-family="Helvetica,sans-Serif" font-size="10.00">&#45; fIPort</text>
<polyline fill="none" stroke="black" points="344,-399.5 452,-399.5 "/>
<text text-anchor="start" x="352" y="-387.5" font-family="Helvetica,sans-Serif" font-size="10.00">+ VAudioPort_Input()</text>
<text text-anchor="start" x="352" y="-376.5" font-family="Helvetica,sans-Serif" font-size="10.00">+ GetPortNum()</text>
<text text-anchor="start" x="352" y="-365.5" font-family="Helvetica,sans-Serif" font-size="10.00"># _Accept()</text>
</a>
</g>
</g>
<!-- Node3&#45;&gt;Node9 -->
<g id="edge10" class="edge"><title>Node3&#45;&gt;Node9</title>
<path fill="none" stroke="midnightblue" d="M356.496,-467.778C362.498,-457.832 368.764,-447.449 374.554,-437.853"/>
<polygon fill="none" stroke="midnightblue" points="353.479,-466.003 351.309,-476.374 359.472,-469.62 353.479,-466.003"/>
</g>
<!-- Node4 -->
<g id="node4" class="node"><title>Node4</title>
<g id="a_node4"><a xlink:href="../../d1/db3/classppm__java_1_1typelib_1_1_v_audio_object.html" target="_top" xlink:title="Base class for all browseable audio objects. ">
<polygon fill="white" stroke="black" points="336,-826.5 336,-883.5 428,-883.5 428,-826.5 336,-826.5"/>
<text text-anchor="middle" x="382" y="-871.5" font-family="Helvetica,sans-Serif" font-size="10.00">VAudioObject</text>
<polyline fill="none" stroke="black" points="336,-864.5 428,-864.5 "/>
<text text-anchor="middle" x="382" y="-852.5" font-family="Helvetica,sans-Serif" font-size="10.00"> </text>
<polyline fill="none" stroke="black" points="336,-845.5 428,-845.5 "/>
<text text-anchor="start" x="344" y="-833.5" font-family="Helvetica,sans-Serif" font-size="10.00">+ VAudioObject()</text>
</a>
</g>
</g>
<!-- Node4&#45;&gt;Node3 -->
<g id="edge3" class="edge"><title>Node4&#45;&gt;Node3</title>
<path fill="none" stroke="midnightblue" d="M376.253,-816.036C368.049,-762.163 352.377,-660.464 338,-574 337.011,-568.053 335.937,-561.763 334.871,-555.617"/>
<polygon fill="none" stroke="midnightblue" points="372.828,-816.794 377.792,-826.154 379.749,-815.742 372.828,-816.794"/>
</g>
<!-- Node6 -->
<g id="node6" class="node"><title>Node6</title>
<g id="a_node6"><a xlink:href="../../d5/d6a/classppm__java_1_1typelib_1_1_v_audio_processor.html" target="_top" xlink:title="Base class for all modules processing audio samples. ">
<polygon fill="white" stroke="black" points="203.5,-604.5 203.5,-771.5 310.5,-771.5 310.5,-604.5 203.5,-604.5"/>
<text text-anchor="middle" x="257" y="-759.5" font-family="Helvetica,sans-Serif" font-size="10.00">VAudioProcessor</text>
<polyline fill="none" stroke="black" points="203.5,-752.5 310.5,-752.5 "/>
<text text-anchor="middle" x="257" y="-740.5" font-family="Helvetica,sans-Serif" font-size="10.00"> </text>
<polyline fill="none" stroke="black" points="203.5,-733.5 310.5,-733.5 "/>
<text text-anchor="start" x="211.5" y="-721.5" font-family="Helvetica,sans-Serif" font-size="10.00">+ VAudioProcessor()</text>
<text text-anchor="start" x="211.5" y="-710.5" font-family="Helvetica,sans-Serif" font-size="10.00">+ CreatePort_In()</text>
<text text-anchor="start" x="211.5" y="-699.5" font-family="Helvetica,sans-Serif" font-size="10.00">+ CreatePort_Out()</text>
<text text-anchor="start" x="211.5" y="-688.5" font-family="Helvetica,sans-Serif" font-size="10.00">+ GetNumPortsIn()</text>
<text text-anchor="start" x="211.5" y="-677.5" font-family="Helvetica,sans-Serif" font-size="10.00">+ GetNumPortsOut()</text>
<text text-anchor="start" x="211.5" y="-666.5" font-family="Helvetica,sans-Serif" font-size="10.00">+ GetPortIn()</text>
<text text-anchor="start" x="211.5" y="-655.5" font-family="Helvetica,sans-Serif" font-size="10.00">+ GetPortIn()</text>
<text text-anchor="start" x="211.5" y="-644.5" font-family="Helvetica,sans-Serif" font-size="10.00">+ GetPortOut()</text>
<text text-anchor="start" x="211.5" y="-633.5" font-family="Helvetica,sans-Serif" font-size="10.00">+ GetPortOut()</text>
<text text-anchor="start" x="211.5" y="-622.5" font-family="Helvetica,sans-Serif" font-size="10.00"># AddPortIn()</text>
<text text-anchor="start" x="211.5" y="-611.5" font-family="Helvetica,sans-Serif" font-size="10.00"># AddPortOut()</text>
</a>
</g>
</g>
<!-- Node4&#45;&gt;Node6 -->
<g id="edge6" class="edge"><title>Node4&#45;&gt;Node6</title>
<path fill="none" stroke="midnightblue" d="M354.965,-818.313C341.978,-801.172 325.939,-780 310.625,-759.786"/>
<polygon fill="none" stroke="midnightblue" points="352.249,-820.525 361.078,-826.383 357.829,-816.298 352.249,-820.525"/>
</g>
<!-- Node5 -->
<g id="node5" class="node"><title>Node5</title>
<g id="a_node5"><a xlink:href="../../de/dd1/classppm__java_1_1typelib_1_1_v_browseable.html" target="_top" xlink:title="Base class for all browseable objects. ">
<polygon fill="white" stroke="black" points="337.5,-928.5 337.5,-1007.5 426.5,-1007.5 426.5,-928.5 337.5,-928.5"/>
<text text-anchor="middle" x="382" y="-995.5" font-family="Helvetica,sans-Serif" font-size="10.00">VBrowseable</text>
<polyline fill="none" stroke="black" points="337.5,-988.5 426.5,-988.5 "/>
<text text-anchor="start" x="345.5" y="-976.5" font-family="Helvetica,sans-Serif" font-size="10.00">&#45; fID</text>
<polyline fill="none" stroke="black" points="337.5,-969.5 426.5,-969.5 "/>
<text text-anchor="start" x="345.5" y="-957.5" font-family="Helvetica,sans-Serif" font-size="10.00">+ VBrowseable()</text>
<text text-anchor="start" x="345.5" y="-946.5" font-family="Helvetica,sans-Serif" font-size="10.00">+ GetID()</text>
<text text-anchor="start" x="345.5" y="-935.5" font-family="Helvetica,sans-Serif" font-size="10.00"># _Register()</text>
</a>
</g>
</g>
<!-- Node5&#45;&gt;Node4 -->
<g id="edge4" class="edge"><title>Node5&#45;&gt;Node4</title>
<path fill="none" stroke="midnightblue" d="M382,-918.227C382,-906.364 382,-894.085 382,-883.601"/>
<polygon fill="none" stroke="midnightblue" points="378.5,-918.489 382,-928.489 385.5,-918.489 378.5,-918.489"/>
</g>
<!-- Node6&#45;&gt;Node3 -->
<g id="edge5" class="edge"><title>Node6&#45;&gt;Node3</title>
<path fill="none" stroke="#404040" d="M291.46,-604.49C296.813,-591.674 302.197,-578.782 307.126,-566.981"/>
<polygon fill="none" stroke="#404040" points="307.259,-566.66 305.881,-559.582 311.884,-555.587 313.263,-562.665 307.259,-566.66"/>
<text text-anchor="middle" x="318.5" y="-577.5" font-family="Helvetica,sans-Serif" font-size="10.00"> &#45;fHost</text>
</g>
<!-- Node7 -->
<g id="node7" class="node"><title>Node7</title>
<polygon fill="white" stroke="#bfbfbf" points="0,-821 0,-889 150,-889 150,-821 0,-821"/>
<text text-anchor="start" x="8" y="-877" font-family="Helvetica,sans-Serif" font-size="10.00">TArrayMap&lt; ppm_java.typelib.</text>
<text text-anchor="middle" x="75" y="-866" font-family="Helvetica,sans-Serif" font-size="10.00">VAudioPort_Output &gt;</text>
<polyline fill="none" stroke="#bfbfbf" points="0,-859 150,-859 "/>
<text text-anchor="middle" x="75" y="-847" font-family="Helvetica,sans-Serif" font-size="10.00"> </text>
<polyline fill="none" stroke="#bfbfbf" points="0,-840 150,-840 "/>
<text text-anchor="middle" x="75" y="-828" font-family="Helvetica,sans-Serif" font-size="10.00"> </text>
</g>
<!-- Node7&#45;&gt;Node6 -->
<g id="edge7" class="edge"><title>Node7&#45;&gt;Node6</title>
<path fill="none" stroke="#404040" d="M111.83,-820.61C135.44,-799.205 166.699,-770.866 194.162,-745.969"/>
<polygon fill="none" stroke="#404040" points="194.423,-745.732 196.181,-738.739 203.313,-737.672 201.555,-744.666 194.423,-745.732"/>
<text text-anchor="middle" x="169.5" y="-793.5" font-family="Helvetica,sans-Serif" font-size="10.00"> &#45;fPortsOut</text>
</g>
<!-- Node8 -->
<g id="node8" class="node"><title>Node8</title>
<polygon fill="white" stroke="#bfbfbf" points="168,-821 168,-889 318,-889 318,-821 168,-821"/>
<text text-anchor="start" x="176" y="-877" font-family="Helvetica,sans-Serif" font-size="10.00">TArrayMap&lt; ppm_java.typelib.</text>
<text text-anchor="middle" x="243" y="-866" font-family="Helvetica,sans-Serif" font-size="10.00">VAudioPort_Input &gt;</text>
<polyline fill="none" stroke="#bfbfbf" points="168,-859 318,-859 "/>
<text text-anchor="middle" x="243" y="-847" font-family="Helvetica,sans-Serif" font-size="10.00"> </text>
<polyline fill="none" stroke="#bfbfbf" points="168,-840 318,-840 "/>
<text text-anchor="middle" x="243" y="-828" font-family="Helvetica,sans-Serif" font-size="10.00"> </text>
</g>
<!-- Node8&#45;&gt;Node6 -->
<g id="edge8" class="edge"><title>Node8&#45;&gt;Node6</title>
<path fill="none" stroke="#404040" d="M245.833,-820.61C246.757,-809.723 247.833,-797.043 248.945,-783.934"/>
<polygon fill="none" stroke="#404040" points="248.959,-783.77 245.48,-777.454 249.973,-771.813 253.452,-778.13 248.959,-783.77"/>
<text text-anchor="middle" x="268.5" y="-793.5" font-family="Helvetica,sans-Serif" font-size="10.00"> &#45;fPortsIn</text>
</g>
<!-- Node9&#45;&gt;Node2 -->
<g id="edge9" class="edge"><title>Node9&#45;&gt;Node2</title>
<path fill="none" stroke="#404040" d="M384.374,-358.139C380.338,-346.63 375.769,-333.6 371.193,-320.549"/>
<polygon fill="none" stroke="#404040" points="371.153,-320.437 365.393,-316.098 367.182,-309.113 372.942,-313.451 371.153,-320.437"/>
<text text-anchor="middle" x="395.5" y="-331.5" font-family="Helvetica,sans-Serif" font-size="10.00"> &#45;fTarget</text>
</g>
</g>
</svg>
