<?xml version="1.0" encoding="UTF-8" standalone="no"?>
<!DOCTYPE svg PUBLIC "-//W3C//DTD SVG 1.1//EN"
 "http://www.w3.org/Graphics/SVG/1.1/DTD/svg11.dtd">
<!-- Generated by graphviz version 2.36.0 (20140111.2315)
 -->
<!-- Title: TAudioContext_Endpoint_In Pages: 1 -->
<svg width="160pt" height="702pt"
 viewBox="0.00 0.00 160.00 702.00" xmlns="http://www.w3.org/2000/svg" xmlns:xlink="http://www.w3.org/1999/xlink">
<g id="graph0" class="graph" transform="scale(1 1) rotate(0) translate(4 698)">
<title>TAudioContext_Endpoint_In</title>
<polygon fill="white" stroke="none" points="-4,4 -4,-698 156,-698 156,4 -4,4"/>
<!-- Node1 -->
<g id="node1" class="node"><title>Node1</title>
<polygon fill="#bfbfbf" stroke="black" points="-0.5,-1 -0.5,-69 152.5,-69 152.5,-1 -0.5,-1"/>
<text text-anchor="middle" x="76" y="-57" font-family="Helvetica,sans-Serif" font-size="10.00">TAudioContext_Endpoint_In</text>
<polyline fill="none" stroke="black" points="-0.5,-50 152.5,-50 "/>
<text text-anchor="middle" x="76" y="-38" font-family="Helvetica,sans-Serif" font-size="10.00"> </text>
<polyline fill="none" stroke="black" points="-0.5,-31 152.5,-31 "/>
<text text-anchor="start" x="7.5" y="-19" font-family="Helvetica,sans-Serif" font-size="10.00"># TAudioContext_Endpoint_In()</text>
<text text-anchor="start" x="7.5" y="-8" font-family="Helvetica,sans-Serif" font-size="10.00"># _Register()</text>
</g>
<!-- Node2 -->
<g id="node2" class="node"><title>Node2</title>
<g id="a_node2"><a xlink:href="../../db/d16/classppm__java_1_1typelib_1_1_v_audio_port___input___chunks___buffered.html" target="_top" xlink:title="Base class for an input port that receives sample chunks. ">
<polygon fill="white" stroke="black" points="6,-106.5 6,-251.5 146,-251.5 146,-106.5 6,-106.5"/>
<text text-anchor="start" x="14" y="-239.5" font-family="Helvetica,sans-Serif" font-size="10.00">VAudioPort_Input_Chunks</text>
<text text-anchor="middle" x="76" y="-228.5" font-family="Helvetica,sans-Serif" font-size="10.00">_Buffered</text>
<polyline fill="none" stroke="black" points="6,-221.5 146,-221.5 "/>
<text text-anchor="start" x="14" y="-209.5" font-family="Helvetica,sans-Serif" font-size="10.00">&#45; fBuffer</text>
<polyline fill="none" stroke="black" points="6,-202.5 146,-202.5 "/>
<text text-anchor="start" x="14" y="-190.5" font-family="Helvetica,sans-Serif" font-size="10.00">+ FetchPacket()</text>
<text text-anchor="start" x="14" y="-179.5" font-family="Helvetica,sans-Serif" font-size="10.00">+ ReceivePacket()</text>
<text text-anchor="start" x="14" y="-168.5" font-family="Helvetica,sans-Serif" font-size="10.00">+ StatsClear()</text>
<text text-anchor="start" x="14" y="-157.5" font-family="Helvetica,sans-Serif" font-size="10.00">+ StatsGet()</text>
<text text-anchor="start" x="14" y="-146.5" font-family="Helvetica,sans-Serif" font-size="10.00"># VAudioPort_Input_Chunks</text>
<text text-anchor="start" x="14" y="-135.5" font-family="Helvetica,sans-Serif" font-size="10.00">_Buffered()</text>
<text text-anchor="start" x="14" y="-124.5" font-family="Helvetica,sans-Serif" font-size="10.00"># _Accept()</text>
<text text-anchor="start" x="14" y="-113.5" font-family="Helvetica,sans-Serif" font-size="10.00"># _GetType()</text>
</a>
</g>
</g>
<!-- Node2&#45;&gt;Node1 -->
<g id="edge1" class="edge"><title>Node2&#45;&gt;Node1</title>
<path fill="none" stroke="midnightblue" d="M76,-95.9023C76,-86.5083 76,-77.3801 76,-69.1974"/>
<polygon fill="none" stroke="midnightblue" points="72.5001,-96.168 76,-106.168 79.5001,-96.168 72.5001,-96.168"/>
</g>
<!-- Node3 -->
<g id="node3" class="node"><title>Node3</title>
<g id="a_node3"><a xlink:href="../../d9/d0e/classppm__java_1_1typelib_1_1_v_audio_port___input.html" target="_top" xlink:title="Base class for an input audio port. ">
<polygon fill="white" stroke="black" points="22,-288.5 22,-367.5 130,-367.5 130,-288.5 22,-288.5"/>
<text text-anchor="middle" x="76" y="-355.5" font-family="Helvetica,sans-Serif" font-size="10.00">VAudioPort_Input</text>
<polyline fill="none" stroke="black" points="22,-348.5 130,-348.5 "/>
<text text-anchor="start" x="30" y="-336.5" font-family="Helvetica,sans-Serif" font-size="10.00">&#45; fIPort</text>
<polyline fill="none" stroke="black" points="22,-329.5 130,-329.5 "/>
<text text-anchor="start" x="30" y="-317.5" font-family="Helvetica,sans-Serif" font-size="10.00">+ VAudioPort_Input()</text>
<text text-anchor="start" x="30" y="-306.5" font-family="Helvetica,sans-Serif" font-size="10.00">+ GetPortNum()</text>
<text text-anchor="start" x="30" y="-295.5" font-family="Helvetica,sans-Serif" font-size="10.00"># _Accept()</text>
</a>
</g>
</g>
<!-- Node3&#45;&gt;Node2 -->
<g id="edge2" class="edge"><title>Node3&#45;&gt;Node2</title>
<path fill="none" stroke="midnightblue" d="M76,-278.243C76,-269.699 76,-260.651 76,-251.64"/>
<polygon fill="none" stroke="midnightblue" points="72.5001,-278.377 76,-288.377 79.5001,-278.378 72.5001,-278.377"/>
</g>
<!-- Node4 -->
<g id="node4" class="node"><title>Node4</title>
<g id="a_node4"><a xlink:href="../../de/dc9/classppm__java_1_1typelib_1_1_v_audio_port.html" target="_top" xlink:title="Base class for all audio ports. ">
<polygon fill="white" stroke="black" points="35.5,-404.5 35.5,-483.5 116.5,-483.5 116.5,-404.5 35.5,-404.5"/>
<text text-anchor="middle" x="76" y="-471.5" font-family="Helvetica,sans-Serif" font-size="10.00">VAudioPort</text>
<polyline fill="none" stroke="black" points="35.5,-464.5 116.5,-464.5 "/>
<text text-anchor="start" x="43.5" y="-452.5" font-family="Helvetica,sans-Serif" font-size="10.00">&#45; fHost</text>
<polyline fill="none" stroke="black" points="35.5,-445.5 116.5,-445.5 "/>
<text text-anchor="start" x="43.5" y="-433.5" font-family="Helvetica,sans-Serif" font-size="10.00">+ VAudioPort()</text>
<text text-anchor="start" x="43.5" y="-422.5" font-family="Helvetica,sans-Serif" font-size="10.00"># _GetHost()</text>
<text text-anchor="start" x="43.5" y="-411.5" font-family="Helvetica,sans-Serif" font-size="10.00"># _GetType()</text>
</a>
</g>
</g>
<!-- Node4&#45;&gt;Node3 -->
<g id="edge3" class="edge"><title>Node4&#45;&gt;Node3</title>
<path fill="none" stroke="midnightblue" d="M76,-394.146C76,-385.256 76,-376.096 76,-367.555"/>
<polygon fill="none" stroke="midnightblue" points="72.5001,-394.405 76,-404.405 79.5001,-394.405 72.5001,-394.405"/>
</g>
<!-- Node5 -->
<g id="node5" class="node"><title>Node5</title>
<g id="a_node5"><a xlink:href="../../d1/db3/classppm__java_1_1typelib_1_1_v_audio_object.html" target="_top" xlink:title="Base class for all browseable audio objects. ">
<polygon fill="white" stroke="black" points="30,-520.5 30,-577.5 122,-577.5 122,-520.5 30,-520.5"/>
<text text-anchor="middle" x="76" y="-565.5" font-family="Helvetica,sans-Serif" font-size="10.00">VAudioObject</text>
<polyline fill="none" stroke="black" points="30,-558.5 122,-558.5 "/>
<text text-anchor="middle" x="76" y="-546.5" font-family="Helvetica,sans-Serif" font-size="10.00"> </text>
<polyline fill="none" stroke="black" points="30,-539.5 122,-539.5 "/>
<text text-anchor="start" x="38" y="-527.5" font-family="Helvetica,sans-Serif" font-size="10.00">+ VAudioObject()</text>
</a>
</g>
</g>
<!-- Node5&#45;&gt;Node4 -->
<g id="edge4" class="edge"><title>Node5&#45;&gt;Node4</title>
<path fill="none" stroke="midnightblue" d="M76,-510.156C76,-501.473 76,-492.232 76,-483.52"/>
<polygon fill="none" stroke="midnightblue" points="72.5001,-510.398 76,-520.398 79.5001,-510.398 72.5001,-510.398"/>
</g>
<!-- Node6 -->
<g id="node6" class="node"><title>Node6</title>
<g id="a_node6"><a xlink:href="../../de/dd1/classppm__java_1_1typelib_1_1_v_browseable.html" target="_top" xlink:title="Base class for all browseable objects. ">
<polygon fill="white" stroke="black" points="31.5,-614.5 31.5,-693.5 120.5,-693.5 120.5,-614.5 31.5,-614.5"/>
<text text-anchor="middle" x="76" y="-681.5" font-family="Helvetica,sans-Serif" font-size="10.00">VBrowseable</text>
<polyline fill="none" stroke="black" points="31.5,-674.5 120.5,-674.5 "/>
<text text-anchor="start" x="39.5" y="-662.5" font-family="Helvetica,sans-Serif" font-size="10.00">&#45; fID</text>
<polyline fill="none" stroke="black" points="31.5,-655.5 120.5,-655.5 "/>
<text text-anchor="start" x="39.5" y="-643.5" font-family="Helvetica,sans-Serif" font-size="10.00">+ VBrowseable()</text>
<text text-anchor="start" x="39.5" y="-632.5" font-family="Helvetica,sans-Serif" font-size="10.00">+ GetID()</text>
<text text-anchor="start" x="39.5" y="-621.5" font-family="Helvetica,sans-Serif" font-size="10.00"># _Register()</text>
</a>
</g>
</g>
<!-- Node6&#45;&gt;Node5 -->
<g id="edge5" class="edge"><title>Node6&#45;&gt;Node5</title>
<path fill="none" stroke="midnightblue" d="M76,-604.163C76,-595.04 76,-585.806 76,-577.61"/>
<polygon fill="none" stroke="midnightblue" points="72.5001,-604.354 76,-614.354 79.5001,-604.354 72.5001,-604.354"/>
</g>
</g>
</svg>
