<?xml version="1.0" encoding="UTF-8" standalone="no"?>
<!DOCTYPE svg PUBLIC "-//W3C//DTD SVG 1.1//EN"
 "http://www.w3.org/Graphics/SVG/1.1/DTD/svg11.dtd">
<!-- Generated by graphviz version 2.36.0 (20140111.2315)
 -->
<!-- Title: GetDumpStr Pages: 1 -->
<svg width="452pt" height="87pt"
 viewBox="0.00 0.00 452.00 87.00" xmlns="http://www.w3.org/2000/svg" xmlns:xlink="http://www.w3.org/1999/xlink">
<g id="graph0" class="graph" transform="scale(1 1) rotate(0) translate(4 83)">
<title>GetDumpStr</title>
<polygon fill="white" stroke="none" points="-4,4 -4,-83 448,-83 448,4 -4,4"/>
<!-- Node1 -->
<g id="node1" class="node"><title>Node1</title>
<polygon fill="#bfbfbf" stroke="black" points="0.5,-29.5 0.5,-48.5 71.5,-48.5 71.5,-29.5 0.5,-29.5"/>
<text text-anchor="middle" x="36" y="-36.5" font-family="Helvetica,sans-Serif" font-size="10.00">GetDumpStr</text>
</g>
<!-- Node2 -->
<g id="node2" class="node"><title>Node2</title>
<g id="a_node2"><a xlink:href="../../d2/df7/classppm__java_1_1util_1_1storage_1_1_t_atomic_double.html#a9cbaa667c3cedd75b2da76e7cc50f567" target="_top" xlink:title="ppm_java.util.storage.TAtomic\lDouble.Get">
<polygon fill="white" stroke="black" points="108.5,-24 108.5,-54 257.5,-54 257.5,-24 108.5,-24"/>
<text text-anchor="start" x="116.5" y="-42" font-family="Helvetica,sans-Serif" font-size="10.00">ppm_java.util.storage.TAtomic</text>
<text text-anchor="middle" x="183" y="-31" font-family="Helvetica,sans-Serif" font-size="10.00">Double.Get</text>
</a>
</g>
</g>
<!-- Node1&#45;&gt;Node2 -->
<g id="edge1" class="edge"><title>Node1&#45;&gt;Node2</title>
<path fill="none" stroke="midnightblue" d="M71.7311,-39C79.8528,-39 88.8519,-39 98.105,-39"/>
<polygon fill="midnightblue" stroke="midnightblue" points="98.2157,-42.5001 108.216,-39 98.2157,-35.5001 98.2157,-42.5001"/>
</g>
<!-- Node3 -->
<g id="node3" class="node"><title>Node3</title>
<g id="a_node3"><a xlink:href="../../d2/df7/classppm__java_1_1util_1_1storage_1_1_t_atomic_double.html#a60fe7aa6d1a53dab132be5ecc82d668e" target="_top" xlink:title="Definitely acquire the lock on the critical section (spin lock, as it&#39;s merry&#45;go&#45;round until lock has...">
<polygon fill="white" stroke="black" points="294.5,-49 294.5,-79 443.5,-79 443.5,-49 294.5,-49"/>
<text text-anchor="start" x="302.5" y="-67" font-family="Helvetica,sans-Serif" font-size="10.00">ppm_java.util.storage.TAtomic</text>
<text text-anchor="middle" x="369" y="-56" font-family="Helvetica,sans-Serif" font-size="10.00">Double._Lock</text>
</a>
</g>
</g>
<!-- Node2&#45;&gt;Node3 -->
<g id="edge2" class="edge"><title>Node2&#45;&gt;Node3</title>
<path fill="none" stroke="midnightblue" d="M257.515,-48.9884C266.315,-50.1841 275.351,-51.4118 284.281,-52.6252"/>
<polygon fill="midnightblue" stroke="midnightblue" points="283.921,-56.1083 294.302,-53.9866 284.864,-49.1721 283.921,-56.1083"/>
</g>
<!-- Node4 -->
<g id="node4" class="node"><title>Node4</title>
<g id="a_node4"><a xlink:href="../../d2/df7/classppm__java_1_1util_1_1storage_1_1_t_atomic_double.html#a4e9f36f97f1d8af33e8f50dce5153568" target="_top" xlink:title="Definitely release the lock on the critical section (spin lock, as it&#39;s merry&#45;go&#45;round until lock has...">
<polygon fill="white" stroke="black" points="294.5,-0 294.5,-30 443.5,-30 443.5,-0 294.5,-0"/>
<text text-anchor="start" x="302.5" y="-18" font-family="Helvetica,sans-Serif" font-size="10.00">ppm_java.util.storage.TAtomic</text>
<text text-anchor="middle" x="369" y="-7" font-family="Helvetica,sans-Serif" font-size="10.00">Double._Unlock</text>
</a>
</g>
</g>
<!-- Node2&#45;&gt;Node4 -->
<g id="edge3" class="edge"><title>Node2&#45;&gt;Node4</title>
<path fill="none" stroke="midnightblue" d="M257.515,-29.4111C266.315,-28.2632 275.351,-27.0847 284.281,-25.9198"/>
<polygon fill="midnightblue" stroke="midnightblue" points="284.838,-29.3769 294.302,-24.6128 283.933,-22.4357 284.838,-29.3769"/>
</g>
</g>
</svg>
