<?xml version="1.0" encoding="UTF-8" standalone="no"?>
<!DOCTYPE svg PUBLIC "-//W3C//DTD SVG 1.1//EN"
 "http://www.w3.org/Graphics/SVG/1.1/DTD/svg11.dtd">
<!-- Generated by graphviz version 2.36.0 (20140111.2315)
 -->
<!-- Title: Set Pages: 1 -->
<svg width="254pt" height="142pt"
 viewBox="0.00 0.00 254.00 142.00" xmlns="http://www.w3.org/2000/svg" xmlns:xlink="http://www.w3.org/1999/xlink">
<g id="graph0" class="graph" transform="scale(1 1) rotate(0) translate(4 138)">
<title>Set</title>
<polygon fill="white" stroke="none" points="-4,4 -4,-138 250,-138 250,4 -4,4"/>
<!-- Node1 -->
<g id="node1" class="node"><title>Node1</title>
<polygon fill="#bfbfbf" stroke="black" points="0,-57.5 0,-76.5 32,-76.5 32,-57.5 0,-57.5"/>
<text text-anchor="middle" x="16" y="-64.5" font-family="Helvetica,sans-Serif" font-size="10.00">Set</text>
</g>
<!-- Node2 -->
<g id="node2" class="node"><title>Node2</title>
<g id="a_node2"><a xlink:href="../../da/d4d/classppm__java_1_1util_1_1storage_1_1atomic_buffer_1_1_t_atomic_buffer.html#ae60ae6a71a8344f29d5f0fb9411c66be" target="_top" xlink:title="Store (a copy of the) new sample chunk, whether the consumer collected or not. ">
<polygon fill="white" stroke="black" points="68,-114.5 68,-133.5 126,-133.5 126,-114.5 68,-114.5"/>
<text text-anchor="middle" x="97" y="-121.5" font-family="Helvetica,sans-Serif" font-size="10.00">_DataSet</text>
</a>
</g>
</g>
<!-- Node1&#45;&gt;Node2 -->
<g id="edge1" class="edge"><title>Node1&#45;&gt;Node2</title>
<path fill="none" stroke="midnightblue" d="M29.4619,-76.5256C39.7185,-84.3071 54.6835,-95.5278 68,-105 69.6516,-106.175 71.3665,-107.378 73.0977,-108.581"/>
<polygon fill="midnightblue" stroke="midnightblue" points="71.4441,-111.69 81.6719,-114.455 75.4004,-105.916 71.4441,-111.69"/>
</g>
<!-- Node4 -->
<g id="node4" class="node"><title>Node4</title>
<g id="a_node4"><a xlink:href="../../da/d4d/classppm__java_1_1util_1_1storage_1_1atomic_buffer_1_1_t_atomic_buffer.html#a60fe7aa6d1a53dab132be5ecc82d668e" target="_top" xlink:title="Definitely acquire the lock on the critical section (spin lock, as it&#39;s merry&#45;go&#45;round until lock has...">
<polygon fill="white" stroke="black" points="75.5,-76.5 75.5,-95.5 118.5,-95.5 118.5,-76.5 75.5,-76.5"/>
<text text-anchor="middle" x="97" y="-83.5" font-family="Helvetica,sans-Serif" font-size="10.00">_Lock</text>
</a>
</g>
</g>
<!-- Node1&#45;&gt;Node4 -->
<g id="edge3" class="edge"><title>Node1&#45;&gt;Node4</title>
<path fill="none" stroke="midnightblue" d="M32.232,-70.6634C41.6379,-72.9256 54.0413,-75.9087 65.4069,-78.6422"/>
<polygon fill="midnightblue" stroke="midnightblue" points="64.8958,-82.119 75.437,-81.0545 66.5327,-75.3131 64.8958,-82.119"/>
</g>
<!-- Node5 -->
<g id="node5" class="node"><title>Node5</title>
<g id="a_node5"><a xlink:href="../../da/d4d/classppm__java_1_1util_1_1storage_1_1atomic_buffer_1_1_t_atomic_buffer.html#a1dd55dd250854d9c48b81bda879e3d16" target="_top" xlink:title="Tentatively try to lock the critical section. ">
<polygon fill="white" stroke="black" points="68.5,-38.5 68.5,-57.5 125.5,-57.5 125.5,-38.5 68.5,-38.5"/>
<text text-anchor="middle" x="97" y="-45.5" font-family="Helvetica,sans-Serif" font-size="10.00">_TryLock</text>
</a>
</g>
</g>
<!-- Node1&#45;&gt;Node5 -->
<g id="edge4" class="edge"><title>Node1&#45;&gt;Node5</title>
<path fill="none" stroke="midnightblue" d="M32.232,-63.3366C39.7394,-61.531 49.1563,-59.2662 58.4309,-57.0356"/>
<polygon fill="midnightblue" stroke="midnightblue" points="59.4376,-60.3934 68.3419,-54.6519 57.8007,-53.5874 59.4376,-60.3934"/>
</g>
<!-- Node6 -->
<g id="node6" class="node"><title>Node6</title>
<g id="a_node6"><a xlink:href="../../da/d4d/classppm__java_1_1util_1_1storage_1_1atomic_buffer_1_1_t_atomic_buffer.html#a4e9f36f97f1d8af33e8f50dce5153568" target="_top" xlink:title="Definitely unlock the critical section (spin lock, as it&#39;s merry&#45;go&#45;round until lock has been release...">
<polygon fill="white" stroke="black" points="70.5,-0.5 70.5,-19.5 123.5,-19.5 123.5,-0.5 70.5,-0.5"/>
<text text-anchor="middle" x="97" y="-7.5" font-family="Helvetica,sans-Serif" font-size="10.00">_Unlock</text>
</a>
</g>
</g>
<!-- Node1&#45;&gt;Node6 -->
<g id="edge5" class="edge"><title>Node1&#45;&gt;Node6</title>
<path fill="none" stroke="midnightblue" d="M29.4619,-57.4744C39.7185,-49.6929 54.6835,-38.4722 68,-29 69.6516,-27.8252 71.3665,-26.622 73.0977,-25.4194"/>
<polygon fill="midnightblue" stroke="midnightblue" points="75.4004,-28.0845 81.6719,-19.5451 71.4441,-22.3097 75.4004,-28.0845"/>
</g>
<!-- Node3 -->
<g id="node3" class="node"><title>Node3</title>
<g id="a_node3"><a xlink:href="../../da/d4d/classppm__java_1_1util_1_1storage_1_1atomic_buffer_1_1_t_atomic_buffer.html#a09e17a8ac5f90d1659762c06a3798c64" target="_top" xlink:title="Creates a deep copy of the passed float buffer (for copy&#45;on&#45;write semantics). ">
<polygon fill="white" stroke="black" points="162,-114.5 162,-133.5 246,-133.5 246,-114.5 162,-114.5"/>
<text text-anchor="middle" x="204" y="-121.5" font-family="Helvetica,sans-Serif" font-size="10.00">_GetDeepCopy</text>
</a>
</g>
</g>
<!-- Node2&#45;&gt;Node3 -->
<g id="edge2" class="edge"><title>Node2&#45;&gt;Node3</title>
<path fill="none" stroke="midnightblue" d="M126.138,-124C133.997,-124 142.792,-124 151.548,-124"/>
<polygon fill="midnightblue" stroke="midnightblue" points="151.751,-127.5 161.751,-124 151.751,-120.5 151.751,-127.5"/>
</g>
</g>
</svg>
