<?xml version="1.0" encoding="UTF-8" standalone="no"?>
<!DOCTYPE svg PUBLIC "-//W3C//DTD SVG 1.1//EN"
 "http://www.w3.org/Graphics/SVG/1.1/DTD/svg11.dtd">
<!-- Generated by graphviz version 2.36.0 (20140111.2315)
 -->
<!-- Title: Get Pages: 1 -->
<svg width="256pt" height="142pt"
 viewBox="0.00 0.00 256.00 142.00" xmlns="http://www.w3.org/2000/svg" xmlns:xlink="http://www.w3.org/1999/xlink">
<g id="graph0" class="graph" transform="scale(1 1) rotate(0) translate(4 138)">
<title>Get</title>
<polygon fill="white" stroke="none" points="-4,4 -4,-138 252,-138 252,4 -4,4"/>
<!-- Node1 -->
<g id="node1" class="node"><title>Node1</title>
<polygon fill="#bfbfbf" stroke="black" points="0,-57.5 0,-76.5 32,-76.5 32,-57.5 0,-57.5"/>
<text text-anchor="middle" x="16" y="-64.5" font-family="Helvetica,sans-Serif" font-size="10.00">Get</text>
</g>
<!-- Node2 -->
<g id="node2" class="node"><title>Node2</title>
<g id="a_node2"><a xlink:href="../../da/d4d/classppm__java_1_1util_1_1storage_1_1atomic_buffer_1_1_t_atomic_buffer.html#ac00f83154af73418afa968577fcd2aa8" target="_top" xlink:title="An internal work method: Retrieves (a deep copy of) the newest sample chunk, or empty chunk...">
<polygon fill="white" stroke="black" points="68.5,-114.5 68.5,-133.5 127.5,-133.5 127.5,-114.5 68.5,-114.5"/>
<text text-anchor="middle" x="98" y="-121.5" font-family="Helvetica,sans-Serif" font-size="10.00">_DataGet</text>
</a>
</g>
</g>
<!-- Node1&#45;&gt;Node2 -->
<g id="edge1" class="edge"><title>Node1&#45;&gt;Node2</title>
<path fill="none" stroke="midnightblue" d="M29.4212,-76.5833C39.6542,-84.3984 54.6072,-95.6359 68,-105 69.6649,-106.164 71.3948,-107.351 73.1437,-108.536"/>
<polygon fill="midnightblue" stroke="midnightblue" points="71.5669,-111.69 81.8329,-114.309 75.4409,-105.86 71.5669,-111.69"/>
</g>
<!-- Node4 -->
<g id="node4" class="node"><title>Node4</title>
<g id="a_node4"><a xlink:href="../../da/d4d/classppm__java_1_1util_1_1storage_1_1atomic_buffer_1_1_t_atomic_buffer.html#a60fe7aa6d1a53dab132be5ecc82d668e" target="_top" xlink:title="Definitely acquire the lock on the critical section (spin lock, as it&#39;s merry&#45;go&#45;round until lock has...">
<polygon fill="white" stroke="black" points="76.5,-76.5 76.5,-95.5 119.5,-95.5 119.5,-76.5 76.5,-76.5"/>
<text text-anchor="middle" x="98" y="-83.5" font-family="Helvetica,sans-Serif" font-size="10.00">_Lock</text>
</a>
</g>
</g>
<!-- Node1&#45;&gt;Node4 -->
<g id="edge3" class="edge"><title>Node1&#45;&gt;Node4</title>
<path fill="none" stroke="midnightblue" d="M32.0474,-70.5738C41.7094,-72.8685 54.6054,-75.9313 66.3592,-78.7228"/>
<polygon fill="midnightblue" stroke="midnightblue" points="65.7461,-82.1745 76.2842,-81.08 67.3636,-75.3639 65.7461,-82.1745"/>
</g>
<!-- Node5 -->
<g id="node5" class="node"><title>Node5</title>
<g id="a_node5"><a xlink:href="../../da/d4d/classppm__java_1_1util_1_1storage_1_1atomic_buffer_1_1_t_atomic_buffer.html#a1dd55dd250854d9c48b81bda879e3d16" target="_top" xlink:title="Tentatively try to lock the critical section. ">
<polygon fill="white" stroke="black" points="69.5,-38.5 69.5,-57.5 126.5,-57.5 126.5,-38.5 69.5,-38.5"/>
<text text-anchor="middle" x="98" y="-45.5" font-family="Helvetica,sans-Serif" font-size="10.00">_TryLock</text>
</a>
</g>
</g>
<!-- Node1&#45;&gt;Node5 -->
<g id="edge4" class="edge"><title>Node1&#45;&gt;Node5</title>
<path fill="none" stroke="midnightblue" d="M32.0474,-63.4262C39.8409,-61.5753 49.7386,-59.2246 59.4437,-56.9196"/>
<polygon fill="midnightblue" stroke="midnightblue" points="60.4709,-60.2731 69.3915,-54.557 58.8534,-53.4625 60.4709,-60.2731"/>
</g>
<!-- Node6 -->
<g id="node6" class="node"><title>Node6</title>
<g id="a_node6"><a xlink:href="../../da/d4d/classppm__java_1_1util_1_1storage_1_1atomic_buffer_1_1_t_atomic_buffer.html#a4e9f36f97f1d8af33e8f50dce5153568" target="_top" xlink:title="Definitely unlock the critical section (spin lock, as it&#39;s merry&#45;go&#45;round until lock has been release...">
<polygon fill="white" stroke="black" points="71.5,-0.5 71.5,-19.5 124.5,-19.5 124.5,-0.5 71.5,-0.5"/>
<text text-anchor="middle" x="98" y="-7.5" font-family="Helvetica,sans-Serif" font-size="10.00">_Unlock</text>
</a>
</g>
</g>
<!-- Node1&#45;&gt;Node6 -->
<g id="edge5" class="edge"><title>Node1&#45;&gt;Node6</title>
<path fill="none" stroke="midnightblue" d="M29.4212,-57.4167C39.6542,-49.6016 54.6072,-38.3641 68,-29 69.6649,-27.836 71.3948,-26.6486 73.1437,-25.4643"/>
<polygon fill="midnightblue" stroke="midnightblue" points="75.4409,-28.1401 81.8329,-19.6906 71.5669,-22.3099 75.4409,-28.1401"/>
</g>
<!-- Node3 -->
<g id="node3" class="node"><title>Node3</title>
<g id="a_node3"><a xlink:href="../../da/d4d/classppm__java_1_1util_1_1storage_1_1atomic_buffer_1_1_t_atomic_buffer.html#a09e17a8ac5f90d1659762c06a3798c64" target="_top" xlink:title="Creates a deep copy of the passed float buffer (for copy&#45;on&#45;write semantics). ">
<polygon fill="white" stroke="black" points="164,-114.5 164,-133.5 248,-133.5 248,-114.5 164,-114.5"/>
<text text-anchor="middle" x="206" y="-121.5" font-family="Helvetica,sans-Serif" font-size="10.00">_GetDeepCopy</text>
</a>
</g>
</g>
<!-- Node2&#45;&gt;Node3 -->
<g id="edge2" class="edge"><title>Node2&#45;&gt;Node3</title>
<path fill="none" stroke="midnightblue" d="M127.685,-124C135.793,-124 144.87,-124 153.874,-124"/>
<polygon fill="midnightblue" stroke="midnightblue" points="153.955,-127.5 163.955,-124 153.955,-120.5 153.955,-127.5"/>
</g>
</g>
</svg>
