<?xml version="1.0" encoding="UTF-8" standalone="no"?>
<!DOCTYPE svg PUBLIC "-//W3C//DTD SVG 1.1//EN"
 "http://www.w3.org/Graphics/SVG/1.1/DTD/svg11.dtd">
<!-- Generated by graphviz version 2.36.0 (20140111.2315)
 -->
<!-- Title: _Lock Pages: 1 -->
<svg width="120pt" height="66pt"
 viewBox="0.00 0.00 120.00 66.00" xmlns="http://www.w3.org/2000/svg" xmlns:xlink="http://www.w3.org/1999/xlink">
<g id="graph0" class="graph" transform="scale(1 1) rotate(0) translate(4 62)">
<title>_Lock</title>
<polygon fill="white" stroke="none" points="-4,4 -4,-62 116,-62 116,4 -4,4"/>
<!-- Node1 -->
<g id="node1" class="node"><title>Node1</title>
<polygon fill="#bfbfbf" stroke="black" points="0.5,-19.5 0.5,-38.5 43.5,-38.5 43.5,-19.5 0.5,-19.5"/>
<text text-anchor="middle" x="22" y="-26.5" font-family="Helvetica,sans-Serif" font-size="10.00">_Lock</text>
</g>
<!-- Node2 -->
<g id="node2" class="node"><title>Node2</title>
<g id="a_node2"><a xlink:href="../../da/d4d/classppm__java_1_1util_1_1storage_1_1atomic_buffer_1_1_t_atomic_buffer.html#a5304a4896e4657eea0f3c7f9332bf3fd" target="_top" xlink:title="Returns the newest sample data. ">
<polygon fill="white" stroke="black" points="80,-38.5 80,-57.5 112,-57.5 112,-38.5 80,-38.5"/>
<text text-anchor="middle" x="96" y="-45.5" font-family="Helvetica,sans-Serif" font-size="10.00">Get</text>
</a>
</g>
</g>
<!-- Node1&#45;&gt;Node2 -->
<g id="edge1" class="edge"><title>Node1&#45;&gt;Node2</title>
<path fill="none" stroke="midnightblue" d="M53.6685,-37.0931C62.6672,-39.4677 72.1203,-41.9623 79.7114,-43.9655"/>
<polygon fill="midnightblue" stroke="midnightblue" points="54.3875,-33.6631 43.8254,-34.4956 52.6013,-40.4314 54.3875,-33.6631"/>
</g>
<!-- Node3 -->
<g id="node3" class="node"><title>Node3</title>
<g id="a_node3"><a xlink:href="../../da/d4d/classppm__java_1_1util_1_1storage_1_1atomic_buffer_1_1_t_atomic_buffer.html#a3dec543f05539426fd9350f02b3a56d7" target="_top" xlink:title="Sets the new sample chunk. ">
<polygon fill="white" stroke="black" points="80,-0.5 80,-19.5 112,-19.5 112,-0.5 80,-0.5"/>
<text text-anchor="middle" x="96" y="-7.5" font-family="Helvetica,sans-Serif" font-size="10.00">Set</text>
</a>
</g>
</g>
<!-- Node1&#45;&gt;Node3 -->
<g id="edge2" class="edge"><title>Node1&#45;&gt;Node3</title>
<path fill="none" stroke="midnightblue" d="M53.6685,-20.9069C62.6672,-18.5323 72.1203,-16.0377 79.7114,-14.0345"/>
<polygon fill="midnightblue" stroke="midnightblue" points="52.6013,-17.5686 43.8254,-23.5044 54.3875,-24.3369 52.6013,-17.5686"/>
</g>
</g>
</svg>
