<?xml version="1.0" encoding="UTF-8" standalone="no"?>
<!DOCTYPE svg PUBLIC "-//W3C//DTD SVG 1.1//EN"
 "http://www.w3.org/Graphics/SVG/1.1/DTD/svg11.dtd">
<!-- Generated by graphviz version 2.36.0 (20140111.2315)
 -->
<!-- Title: _Unlock Pages: 1 -->
<svg width="130pt" height="66pt"
 viewBox="0.00 0.00 130.00 66.00" xmlns="http://www.w3.org/2000/svg" xmlns:xlink="http://www.w3.org/1999/xlink">
<g id="graph0" class="graph" transform="scale(1 1) rotate(0) translate(4 62)">
<title>_Unlock</title>
<polygon fill="white" stroke="none" points="-4,4 -4,-62 126,-62 126,4 -4,4"/>
<!-- Node1 -->
<g id="node1" class="node"><title>Node1</title>
<polygon fill="#bfbfbf" stroke="black" points="0.5,-19.5 0.5,-38.5 53.5,-38.5 53.5,-19.5 0.5,-19.5"/>
<text text-anchor="middle" x="27" y="-26.5" font-family="Helvetica,sans-Serif" font-size="10.00">_Unlock</text>
</g>
<!-- Node2 -->
<g id="node2" class="node"><title>Node2</title>
<g id="a_node2"><a xlink:href="../../da/d4d/classppm__java_1_1util_1_1storage_1_1atomic_buffer_1_1_t_atomic_buffer.html#a5304a4896e4657eea0f3c7f9332bf3fd" target="_top" xlink:title="Returns the newest sample data. ">
<polygon fill="white" stroke="black" points="90,-38.5 90,-57.5 122,-57.5 122,-38.5 90,-38.5"/>
<text text-anchor="middle" x="106" y="-45.5" font-family="Helvetica,sans-Serif" font-size="10.00">Get</text>
</a>
</g>
</g>
<!-- Node1&#45;&gt;Node2 -->
<g id="edge1" class="edge"><title>Node1&#45;&gt;Node2</title>
<path fill="none" stroke="midnightblue" d="M63.4146,-37.7387C72.5999,-40.0052 82.0209,-42.3298 89.5683,-44.1922"/>
<polygon fill="midnightblue" stroke="midnightblue" points="64.1872,-34.3244 53.6399,-35.3267 62.5102,-41.1206 64.1872,-34.3244"/>
</g>
<!-- Node3 -->
<g id="node3" class="node"><title>Node3</title>
<g id="a_node3"><a xlink:href="../../da/d4d/classppm__java_1_1util_1_1storage_1_1atomic_buffer_1_1_t_atomic_buffer.html#a3dec543f05539426fd9350f02b3a56d7" target="_top" xlink:title="Sets the new sample chunk. ">
<polygon fill="white" stroke="black" points="90,-0.5 90,-19.5 122,-19.5 122,-0.5 90,-0.5"/>
<text text-anchor="middle" x="106" y="-7.5" font-family="Helvetica,sans-Serif" font-size="10.00">Set</text>
</a>
</g>
</g>
<!-- Node1&#45;&gt;Node3 -->
<g id="edge2" class="edge"><title>Node1&#45;&gt;Node3</title>
<path fill="none" stroke="midnightblue" d="M63.4146,-20.2613C72.5999,-17.9948 82.0209,-15.6702 89.5683,-13.8078"/>
<polygon fill="midnightblue" stroke="midnightblue" points="62.5102,-16.8794 53.6399,-22.6733 64.1872,-23.6756 62.5102,-16.8794"/>
</g>
</g>
</svg>
