<?xml version="1.0" encoding="UTF-8" standalone="no"?>
<!DOCTYPE svg PUBLIC "-//W3C//DTD SVG 1.1//EN"
 "http://www.w3.org/Graphics/SVG/1.1/DTD/svg11.dtd">
<!-- Generated by graphviz version 2.36.0 (20140111.2315)
 -->
<!-- Title: _GetDeepCopy Pages: 1 -->
<svg width="256pt" height="66pt"
 viewBox="0.00 0.00 256.00 66.00" xmlns="http://www.w3.org/2000/svg" xmlns:xlink="http://www.w3.org/1999/xlink">
<g id="graph0" class="graph" transform="scale(1 1) rotate(0) translate(4 62)">
<title>_GetDeepCopy</title>
<polygon fill="white" stroke="none" points="-4,4 -4,-62 252,-62 252,4 -4,4"/>
<!-- Node1 -->
<g id="node1" class="node"><title>Node1</title>
<polygon fill="#bfbfbf" stroke="black" points="0,-19.5 0,-38.5 84,-38.5 84,-19.5 0,-19.5"/>
<text text-anchor="middle" x="42" y="-26.5" font-family="Helvetica,sans-Serif" font-size="10.00">_GetDeepCopy</text>
</g>
<!-- Node2 -->
<g id="node2" class="node"><title>Node2</title>
<g id="a_node2"><a xlink:href="../../da/d4d/classppm__java_1_1util_1_1storage_1_1atomic_buffer_1_1_t_atomic_buffer.html#ac00f83154af73418afa968577fcd2aa8" target="_top" xlink:title="An internal work method: Retrieves (a deep copy of) the newest sample chunk, or empty chunk...">
<polygon fill="white" stroke="black" points="120.5,-38.5 120.5,-57.5 179.5,-57.5 179.5,-38.5 120.5,-38.5"/>
<text text-anchor="middle" x="150" y="-45.5" font-family="Helvetica,sans-Serif" font-size="10.00">_DataGet</text>
</a>
</g>
</g>
<!-- Node1&#45;&gt;Node2 -->
<g id="edge1" class="edge"><title>Node1&#45;&gt;Node2</title>
<path fill="none" stroke="midnightblue" d="M94.3415,-38.2027C103.321,-39.8122 112.363,-41.433 120.437,-42.8802"/>
<polygon fill="midnightblue" stroke="midnightblue" points="94.7466,-34.7196 84.2859,-36.4003 93.5115,-41.6098 94.7466,-34.7196"/>
</g>
<!-- Node4 -->
<g id="node4" class="node"><title>Node4</title>
<g id="a_node4"><a xlink:href="../../da/d4d/classppm__java_1_1util_1_1storage_1_1atomic_buffer_1_1_t_atomic_buffer.html#ae60ae6a71a8344f29d5f0fb9411c66be" target="_top" xlink:title="Store (a copy of the) new sample chunk, whether the consumer collected or not. ">
<polygon fill="white" stroke="black" points="121,-0.5 121,-19.5 179,-19.5 179,-0.5 121,-0.5"/>
<text text-anchor="middle" x="150" y="-7.5" font-family="Helvetica,sans-Serif" font-size="10.00">_DataSet</text>
</a>
</g>
</g>
<!-- Node1&#45;&gt;Node4 -->
<g id="edge3" class="edge"><title>Node1&#45;&gt;Node4</title>
<path fill="none" stroke="midnightblue" d="M94.1466,-19.8322C103.308,-18.19 112.544,-16.5345 120.757,-15.0624"/>
<polygon fill="midnightblue" stroke="midnightblue" points="93.5115,-16.3902 84.2859,-21.5997 94.7466,-23.2804 93.5115,-16.3902"/>
</g>
<!-- Node3 -->
<g id="node3" class="node"><title>Node3</title>
<g id="a_node3"><a xlink:href="../../da/d4d/classppm__java_1_1util_1_1storage_1_1atomic_buffer_1_1_t_atomic_buffer.html#a5304a4896e4657eea0f3c7f9332bf3fd" target="_top" xlink:title="Returns the newest sample data. ">
<polygon fill="white" stroke="black" points="216,-38.5 216,-57.5 248,-57.5 248,-38.5 216,-38.5"/>
<text text-anchor="middle" x="232" y="-45.5" font-family="Helvetica,sans-Serif" font-size="10.00">Get</text>
</a>
</g>
</g>
<!-- Node2&#45;&gt;Node3 -->
<g id="edge2" class="edge"><title>Node2&#45;&gt;Node3</title>
<path fill="none" stroke="midnightblue" d="M190.1,-48C199.265,-48 208.493,-48 215.859,-48"/>
<polygon fill="midnightblue" stroke="midnightblue" points="189.882,-44.5001 179.882,-48 189.882,-51.5001 189.882,-44.5001"/>
</g>
<!-- Node5 -->
<g id="node5" class="node"><title>Node5</title>
<g id="a_node5"><a xlink:href="../../da/d4d/classppm__java_1_1util_1_1storage_1_1atomic_buffer_1_1_t_atomic_buffer.html#a3dec543f05539426fd9350f02b3a56d7" target="_top" xlink:title="Sets the new sample chunk. ">
<polygon fill="white" stroke="black" points="216,-0.5 216,-19.5 248,-19.5 248,-0.5 216,-0.5"/>
<text text-anchor="middle" x="232" y="-7.5" font-family="Helvetica,sans-Serif" font-size="10.00">Set</text>
</a>
</g>
</g>
<!-- Node4&#45;&gt;Node5 -->
<g id="edge4" class="edge"><title>Node4&#45;&gt;Node5</title>
<path fill="none" stroke="midnightblue" d="M189.7,-10C198.923,-10 208.238,-10 215.682,-10"/>
<polygon fill="midnightblue" stroke="midnightblue" points="189.43,-6.5001 179.43,-10 189.43,-13.5001 189.43,-6.5001"/>
</g>
</g>
</svg>
