<?xml version="1.0" encoding="UTF-8" standalone="no"?>
<!DOCTYPE svg PUBLIC "-//W3C//DTD SVG 1.1//EN"
 "http://www.w3.org/Graphics/SVG/1.1/DTD/svg11.dtd">
<!-- Generated by graphviz version 2.36.0 (20140111.2315)
 -->
<!-- Title: _TryLock Pages: 1 -->
<svg width="134pt" height="66pt"
 viewBox="0.00 0.00 134.00 66.00" xmlns="http://www.w3.org/2000/svg" xmlns:xlink="http://www.w3.org/1999/xlink">
<g id="graph0" class="graph" transform="scale(1 1) rotate(0) translate(4 62)">
<title>_TryLock</title>
<polygon fill="white" stroke="none" points="-4,4 -4,-62 130,-62 130,4 -4,4"/>
<!-- Node1 -->
<g id="node1" class="node"><title>Node1</title>
<polygon fill="#bfbfbf" stroke="black" points="0.5,-19.5 0.5,-38.5 57.5,-38.5 57.5,-19.5 0.5,-19.5"/>
<text text-anchor="middle" x="29" y="-26.5" font-family="Helvetica,sans-Serif" font-size="10.00">_TryLock</text>
</g>
<!-- Node2 -->
<g id="node2" class="node"><title>Node2</title>
<g id="a_node2"><a xlink:href="../../da/d4d/classppm__java_1_1util_1_1storage_1_1atomic_buffer_1_1_t_atomic_buffer.html#a5304a4896e4657eea0f3c7f9332bf3fd" target="_top" xlink:title="Returns the newest sample data. ">
<polygon fill="white" stroke="black" points="94,-38.5 94,-57.5 126,-57.5 126,-38.5 94,-38.5"/>
<text text-anchor="middle" x="110" y="-45.5" font-family="Helvetica,sans-Serif" font-size="10.00">Get</text>
</a>
</g>
</g>
<!-- Node1&#45;&gt;Node2 -->
<g id="edge1" class="edge"><title>Node1&#45;&gt;Node2</title>
<path fill="none" stroke="midnightblue" d="M67.5249,-38.025C76.7849,-40.2521 86.19,-42.514 93.6978,-44.3197"/>
<polygon fill="midnightblue" stroke="midnightblue" points="68.1716,-34.5808 57.6304,-35.6453 66.5347,-41.3867 68.1716,-34.5808"/>
</g>
<!-- Node3 -->
<g id="node3" class="node"><title>Node3</title>
<g id="a_node3"><a xlink:href="../../da/d4d/classppm__java_1_1util_1_1storage_1_1atomic_buffer_1_1_t_atomic_buffer.html#a3dec543f05539426fd9350f02b3a56d7" target="_top" xlink:title="Sets the new sample chunk. ">
<polygon fill="white" stroke="black" points="94,-0.5 94,-19.5 126,-19.5 126,-0.5 94,-0.5"/>
<text text-anchor="middle" x="110" y="-7.5" font-family="Helvetica,sans-Serif" font-size="10.00">Set</text>
</a>
</g>
</g>
<!-- Node1&#45;&gt;Node3 -->
<g id="edge2" class="edge"><title>Node1&#45;&gt;Node3</title>
<path fill="none" stroke="midnightblue" d="M67.5249,-19.975C76.7849,-17.7479 86.19,-15.486 93.6978,-13.6803"/>
<polygon fill="midnightblue" stroke="midnightblue" points="66.5347,-16.6133 57.6304,-22.3547 68.1716,-23.4192 66.5347,-16.6133"/>
</g>
</g>
</svg>
