<?xml version="1.0" encoding="UTF-8" standalone="no"?>
<!DOCTYPE svg PUBLIC "-//W3C//DTD SVG 1.1//EN"
 "http://www.w3.org/Graphics/SVG/1.1/DTD/svg11.dtd">
<!-- Generated by graphviz version 2.36.0 (20140111.2315)
 -->
<!-- Title: TGUINeedle_Endpoint_In Pages: 1 -->
<svg width="160pt" height="658pt"
 viewBox="0.00 0.00 160.00 658.00" xmlns="http://www.w3.org/2000/svg" xmlns:xlink="http://www.w3.org/1999/xlink">
<g id="graph0" class="graph" transform="scale(1 1) rotate(0) translate(4 654)">
<title>TGUINeedle_Endpoint_In</title>
<polygon fill="white" stroke="none" points="-4,4 -4,-654 156,-654 156,4 -4,4"/>
<!-- Node1 -->
<g id="node1" class="node"><title>Node1</title>
<polygon fill="#bfbfbf" stroke="black" points="4.5,-0.5 4.5,-79.5 147.5,-79.5 147.5,-0.5 4.5,-0.5"/>
<text text-anchor="middle" x="76" y="-67.5" font-family="Helvetica,sans-Serif" font-size="10.00">TGUINeedle_Endpoint_In</text>
<polyline fill="none" stroke="black" points="4.5,-60.5 147.5,-60.5 "/>
<text text-anchor="middle" x="76" y="-48.5" font-family="Helvetica,sans-Serif" font-size="10.00"> </text>
<polyline fill="none" stroke="black" points="4.5,-41.5 147.5,-41.5 "/>
<text text-anchor="start" x="12.5" y="-29.5" font-family="Helvetica,sans-Serif" font-size="10.00">+ TGUINeedle_Endpoint_In()</text>
<text text-anchor="start" x="12.5" y="-18.5" font-family="Helvetica,sans-Serif" font-size="10.00">+ ReceiveSample()</text>
<text text-anchor="start" x="12.5" y="-7.5" font-family="Helvetica,sans-Serif" font-size="10.00"># _Register()</text>
</g>
<!-- Node2 -->
<g id="node2" class="node"><title>Node2</title>
<g id="a_node2"><a xlink:href="../../d2/de4/classppm__java_1_1typelib_1_1_v_audio_port___input___samples.html" target="_top" xlink:title="Base class for an input that receives single sample values. ">
<polygon fill="white" stroke="black" points="0,-117 0,-207 152,-207 152,-117 0,-117"/>
<text text-anchor="middle" x="76" y="-195" font-family="Helvetica,sans-Serif" font-size="10.00">VAudioPort_Input_Samples</text>
<polyline fill="none" stroke="black" points="0,-188 152,-188 "/>
<text text-anchor="middle" x="76" y="-176" font-family="Helvetica,sans-Serif" font-size="10.00"> </text>
<polyline fill="none" stroke="black" points="0,-169 152,-169 "/>
<text text-anchor="start" x="8" y="-157" font-family="Helvetica,sans-Serif" font-size="10.00">+ VAudioPort_Input_Samples()</text>
<text text-anchor="start" x="8" y="-146" font-family="Helvetica,sans-Serif" font-size="10.00">+ ReceiveSample()</text>
<text text-anchor="start" x="8" y="-135" font-family="Helvetica,sans-Serif" font-size="10.00"># _Accept()</text>
<text text-anchor="start" x="8" y="-124" font-family="Helvetica,sans-Serif" font-size="10.00"># _GetType()</text>
</a>
</g>
</g>
<!-- Node2&#45;&gt;Node1 -->
<g id="edge1" class="edge"><title>Node2&#45;&gt;Node1</title>
<path fill="none" stroke="midnightblue" d="M76,-106.844C76,-97.7422 76,-88.4594 76,-79.844"/>
<polygon fill="none" stroke="midnightblue" points="72.5001,-106.998 76,-116.998 79.5001,-106.998 72.5001,-106.998"/>
</g>
<!-- Node3 -->
<g id="node3" class="node"><title>Node3</title>
<g id="a_node3"><a xlink:href="../../d9/d0e/classppm__java_1_1typelib_1_1_v_audio_port___input.html" target="_top" xlink:title="Base class for an input audio port. ">
<polygon fill="white" stroke="black" points="22,-244.5 22,-323.5 130,-323.5 130,-244.5 22,-244.5"/>
<text text-anchor="middle" x="76" y="-311.5" font-family="Helvetica,sans-Serif" font-size="10.00">VAudioPort_Input</text>
<polyline fill="none" stroke="black" points="22,-304.5 130,-304.5 "/>
<text text-anchor="start" x="30" y="-292.5" font-family="Helvetica,sans-Serif" font-size="10.00">&#45; fIPort</text>
<polyline fill="none" stroke="black" points="22,-285.5 130,-285.5 "/>
<text text-anchor="start" x="30" y="-273.5" font-family="Helvetica,sans-Serif" font-size="10.00">+ VAudioPort_Input()</text>
<text text-anchor="start" x="30" y="-262.5" font-family="Helvetica,sans-Serif" font-size="10.00">+ GetPortNum()</text>
<text text-anchor="start" x="30" y="-251.5" font-family="Helvetica,sans-Serif" font-size="10.00"># _Accept()</text>
</a>
</g>
</g>
<!-- Node3&#45;&gt;Node2 -->
<g id="edge2" class="edge"><title>Node3&#45;&gt;Node2</title>
<path fill="none" stroke="midnightblue" d="M76,-234.176C76,-225.318 76,-216.123 76,-207.401"/>
<polygon fill="none" stroke="midnightblue" points="72.5001,-234.371 76,-244.371 79.5001,-234.371 72.5001,-234.371"/>
</g>
<!-- Node4 -->
<g id="node4" class="node"><title>Node4</title>
<g id="a_node4"><a xlink:href="../../de/dc9/classppm__java_1_1typelib_1_1_v_audio_port.html" target="_top" xlink:title="Base class for all audio ports. ">
<polygon fill="white" stroke="black" points="35.5,-360.5 35.5,-439.5 116.5,-439.5 116.5,-360.5 35.5,-360.5"/>
<text text-anchor="middle" x="76" y="-427.5" font-family="Helvetica,sans-Serif" font-size="10.00">VAudioPort</text>
<polyline fill="none" stroke="black" points="35.5,-420.5 116.5,-420.5 "/>
<text text-anchor="start" x="43.5" y="-408.5" font-family="Helvetica,sans-Serif" font-size="10.00">&#45; fHost</text>
<polyline fill="none" stroke="black" points="35.5,-401.5 116.5,-401.5 "/>
<text text-anchor="start" x="43.5" y="-389.5" font-family="Helvetica,sans-Serif" font-size="10.00">+ VAudioPort()</text>
<text text-anchor="start" x="43.5" y="-378.5" font-family="Helvetica,sans-Serif" font-size="10.00"># _GetHost()</text>
<text text-anchor="start" x="43.5" y="-367.5" font-family="Helvetica,sans-Serif" font-size="10.00"># _GetType()</text>
</a>
</g>
</g>
<!-- Node4&#45;&gt;Node3 -->
<g id="edge3" class="edge"><title>Node4&#45;&gt;Node3</title>
<path fill="none" stroke="midnightblue" d="M76,-350.146C76,-341.256 76,-332.096 76,-323.555"/>
<polygon fill="none" stroke="midnightblue" points="72.5001,-350.405 76,-360.405 79.5001,-350.405 72.5001,-350.405"/>
</g>
<!-- Node5 -->
<g id="node5" class="node"><title>Node5</title>
<g id="a_node5"><a xlink:href="../../d1/db3/classppm__java_1_1typelib_1_1_v_audio_object.html" target="_top" xlink:title="Base class for all browseable audio objects. ">
<polygon fill="white" stroke="black" points="30,-476.5 30,-533.5 122,-533.5 122,-476.5 30,-476.5"/>
<text text-anchor="middle" x="76" y="-521.5" font-family="Helvetica,sans-Serif" font-size="10.00">VAudioObject</text>
<polyline fill="none" stroke="black" points="30,-514.5 122,-514.5 "/>
<text text-anchor="middle" x="76" y="-502.5" font-family="Helvetica,sans-Serif" font-size="10.00"> </text>
<polyline fill="none" stroke="black" points="30,-495.5 122,-495.5 "/>
<text text-anchor="start" x="38" y="-483.5" font-family="Helvetica,sans-Serif" font-size="10.00">+ VAudioObject()</text>
</a>
</g>
</g>
<!-- Node5&#45;&gt;Node4 -->
<g id="edge4" class="edge"><title>Node5&#45;&gt;Node4</title>
<path fill="none" stroke="midnightblue" d="M76,-466.156C76,-457.473 76,-448.232 76,-439.52"/>
<polygon fill="none" stroke="midnightblue" points="72.5001,-466.398 76,-476.398 79.5001,-466.398 72.5001,-466.398"/>
</g>
<!-- Node6 -->
<g id="node6" class="node"><title>Node6</title>
<g id="a_node6"><a xlink:href="../../de/dd1/classppm__java_1_1typelib_1_1_v_browseable.html" target="_top" xlink:title="Base class for all browseable objects. ">
<polygon fill="white" stroke="black" points="31.5,-570.5 31.5,-649.5 120.5,-649.5 120.5,-570.5 31.5,-570.5"/>
<text text-anchor="middle" x="76" y="-637.5" font-family="Helvetica,sans-Serif" font-size="10.00">VBrowseable</text>
<polyline fill="none" stroke="black" points="31.5,-630.5 120.5,-630.5 "/>
<text text-anchor="start" x="39.5" y="-618.5" font-family="Helvetica,sans-Serif" font-size="10.00">&#45; fID</text>
<polyline fill="none" stroke="black" points="31.5,-611.5 120.5,-611.5 "/>
<text text-anchor="start" x="39.5" y="-599.5" font-family="Helvetica,sans-Serif" font-size="10.00">+ VBrowseable()</text>
<text text-anchor="start" x="39.5" y="-588.5" font-family="Helvetica,sans-Serif" font-size="10.00">+ GetID()</text>
<text text-anchor="start" x="39.5" y="-577.5" font-family="Helvetica,sans-Serif" font-size="10.00"># _Register()</text>
</a>
</g>
</g>
<!-- Node6&#45;&gt;Node5 -->
<g id="edge5" class="edge"><title>Node6&#45;&gt;Node5</title>
<path fill="none" stroke="midnightblue" d="M76,-560.163C76,-551.04 76,-541.806 76,-533.61"/>
<polygon fill="none" stroke="midnightblue" points="72.5001,-560.354 76,-570.354 79.5001,-560.354 72.5001,-560.354"/>
</g>
</g>
</svg>
