<?xml version="1.0" encoding="UTF-8" standalone="no"?>
<!DOCTYPE svg PUBLIC "-//W3C//DTD SVG 1.1//EN"
 "http://www.w3.org/Graphics/SVG/1.1/DTD/svg11.dtd">
<!-- Generated by graphviz version 2.36.0 (20140111.2315)
 -->
<!-- Title: TConsole_TextOut_Endpoint_In Pages: 1 -->
<svg width="178pt" height="658pt"
 viewBox="0.00 0.00 178.00 658.00" xmlns="http://www.w3.org/2000/svg" xmlns:xlink="http://www.w3.org/1999/xlink">
<g id="graph0" class="graph" transform="scale(1 1) rotate(0) translate(4 654)">
<title>TConsole_TextOut_Endpoint_In</title>
<polygon fill="white" stroke="none" points="-4,4 -4,-654 174,-654 174,4 -4,4"/>
<!-- Node1 -->
<g id="node1" class="node"><title>Node1</title>
<polygon fill="#bfbfbf" stroke="black" points="-0.5,-0.5 -0.5,-79.5 170.5,-79.5 170.5,-0.5 -0.5,-0.5"/>
<text text-anchor="middle" x="85" y="-67.5" font-family="Helvetica,sans-Serif" font-size="10.00">TConsole_TextOut_Endpoint_In</text>
<polyline fill="none" stroke="black" points="-0.5,-60.5 170.5,-60.5 "/>
<text text-anchor="middle" x="85" y="-48.5" font-family="Helvetica,sans-Serif" font-size="10.00"> </text>
<polyline fill="none" stroke="black" points="-0.5,-41.5 170.5,-41.5 "/>
<text text-anchor="start" x="7.5" y="-29.5" font-family="Helvetica,sans-Serif" font-size="10.00">+ TConsole_TextOut_Endpoint_In()</text>
<text text-anchor="start" x="7.5" y="-18.5" font-family="Helvetica,sans-Serif" font-size="10.00">+ ReceiveSample()</text>
<text text-anchor="start" x="7.5" y="-7.5" font-family="Helvetica,sans-Serif" font-size="10.00"># _Register()</text>
</g>
<!-- Node2 -->
<g id="node2" class="node"><title>Node2</title>
<g id="a_node2"><a xlink:href="../../d2/de4/classppm__java_1_1typelib_1_1_v_audio_port___input___samples.html" target="_top" xlink:title="Base class for an input that receives single sample values. ">
<polygon fill="white" stroke="black" points="9,-117 9,-207 161,-207 161,-117 9,-117"/>
<text text-anchor="middle" x="85" y="-195" font-family="Helvetica,sans-Serif" font-size="10.00">VAudioPort_Input_Samples</text>
<polyline fill="none" stroke="black" points="9,-188 161,-188 "/>
<text text-anchor="middle" x="85" y="-176" font-family="Helvetica,sans-Serif" font-size="10.00"> </text>
<polyline fill="none" stroke="black" points="9,-169 161,-169 "/>
<text text-anchor="start" x="17" y="-157" font-family="Helvetica,sans-Serif" font-size="10.00">+ VAudioPort_Input_Samples()</text>
<text text-anchor="start" x="17" y="-146" font-family="Helvetica,sans-Serif" font-size="10.00">+ ReceiveSample()</text>
<text text-anchor="start" x="17" y="-135" font-family="Helvetica,sans-Serif" font-size="10.00"># _Accept()</text>
<text text-anchor="start" x="17" y="-124" font-family="Helvetica,sans-Serif" font-size="10.00"># _GetType()</text>
</a>
</g>
</g>
<!-- Node2&#45;&gt;Node1 -->
<g id="edge1" class="edge"><title>Node2&#45;&gt;Node1</title>
<path fill="none" stroke="midnightblue" d="M85,-106.844C85,-97.7422 85,-88.4594 85,-79.844"/>
<polygon fill="none" stroke="midnightblue" points="81.5001,-106.998 85,-116.998 88.5001,-106.998 81.5001,-106.998"/>
</g>
<!-- Node3 -->
<g id="node3" class="node"><title>Node3</title>
<g id="a_node3"><a xlink:href="../../d9/d0e/classppm__java_1_1typelib_1_1_v_audio_port___input.html" target="_top" xlink:title="Base class for an input audio port. ">
<polygon fill="white" stroke="black" points="31,-244.5 31,-323.5 139,-323.5 139,-244.5 31,-244.5"/>
<text text-anchor="middle" x="85" y="-311.5" font-family="Helvetica,sans-Serif" font-size="10.00">VAudioPort_Input</text>
<polyline fill="none" stroke="black" points="31,-304.5 139,-304.5 "/>
<text text-anchor="start" x="39" y="-292.5" font-family="Helvetica,sans-Serif" font-size="10.00">&#45; fIPort</text>
<polyline fill="none" stroke="black" points="31,-285.5 139,-285.5 "/>
<text text-anchor="start" x="39" y="-273.5" font-family="Helvetica,sans-Serif" font-size="10.00">+ VAudioPort_Input()</text>
<text text-anchor="start" x="39" y="-262.5" font-family="Helvetica,sans-Serif" font-size="10.00">+ GetPortNum()</text>
<text text-anchor="start" x="39" y="-251.5" font-family="Helvetica,sans-Serif" font-size="10.00"># _Accept()</text>
</a>
</g>
</g>
<!-- Node3&#45;&gt;Node2 -->
<g id="edge2" class="edge"><title>Node3&#45;&gt;Node2</title>
<path fill="none" stroke="midnightblue" d="M85,-234.176C85,-225.318 85,-216.123 85,-207.401"/>
<polygon fill="none" stroke="midnightblue" points="81.5001,-234.371 85,-244.371 88.5001,-234.371 81.5001,-234.371"/>
</g>
<!-- Node4 -->
<g id="node4" class="node"><title>Node4</title>
<g id="a_node4"><a xlink:href="../../de/dc9/classppm__java_1_1typelib_1_1_v_audio_port.html" target="_top" xlink:title="Base class for all audio ports. ">
<polygon fill="white" stroke="black" points="44.5,-360.5 44.5,-439.5 125.5,-439.5 125.5,-360.5 44.5,-360.5"/>
<text text-anchor="middle" x="85" y="-427.5" font-family="Helvetica,sans-Serif" font-size="10.00">VAudioPort</text>
<polyline fill="none" stroke="black" points="44.5,-420.5 125.5,-420.5 "/>
<text text-anchor="start" x="52.5" y="-408.5" font-family="Helvetica,sans-Serif" font-size="10.00">&#45; fHost</text>
<polyline fill="none" stroke="black" points="44.5,-401.5 125.5,-401.5 "/>
<text text-anchor="start" x="52.5" y="-389.5" font-family="Helvetica,sans-Serif" font-size="10.00">+ VAudioPort()</text>
<text text-anchor="start" x="52.5" y="-378.5" font-family="Helvetica,sans-Serif" font-size="10.00"># _GetHost()</text>
<text text-anchor="start" x="52.5" y="-367.5" font-family="Helvetica,sans-Serif" font-size="10.00"># _GetType()</text>
</a>
</g>
</g>
<!-- Node4&#45;&gt;Node3 -->
<g id="edge3" class="edge"><title>Node4&#45;&gt;Node3</title>
<path fill="none" stroke="midnightblue" d="M85,-350.146C85,-341.256 85,-332.096 85,-323.555"/>
<polygon fill="none" stroke="midnightblue" points="81.5001,-350.405 85,-360.405 88.5001,-350.405 81.5001,-350.405"/>
</g>
<!-- Node5 -->
<g id="node5" class="node"><title>Node5</title>
<g id="a_node5"><a xlink:href="../../d1/db3/classppm__java_1_1typelib_1_1_v_audio_object.html" target="_top" xlink:title="Base class for all browseable audio objects. ">
<polygon fill="white" stroke="black" points="39,-476.5 39,-533.5 131,-533.5 131,-476.5 39,-476.5"/>
<text text-anchor="middle" x="85" y="-521.5" font-family="Helvetica,sans-Serif" font-size="10.00">VAudioObject</text>
<polyline fill="none" stroke="black" points="39,-514.5 131,-514.5 "/>
<text text-anchor="middle" x="85" y="-502.5" font-family="Helvetica,sans-Serif" font-size="10.00"> </text>
<polyline fill="none" stroke="black" points="39,-495.5 131,-495.5 "/>
<text text-anchor="start" x="47" y="-483.5" font-family="Helvetica,sans-Serif" font-size="10.00">+ VAudioObject()</text>
</a>
</g>
</g>
<!-- Node5&#45;&gt;Node4 -->
<g id="edge4" class="edge"><title>Node5&#45;&gt;Node4</title>
<path fill="none" stroke="midnightblue" d="M85,-466.156C85,-457.473 85,-448.232 85,-439.52"/>
<polygon fill="none" stroke="midnightblue" points="81.5001,-466.398 85,-476.398 88.5001,-466.398 81.5001,-466.398"/>
</g>
<!-- Node6 -->
<g id="node6" class="node"><title>Node6</title>
<g id="a_node6"><a xlink:href="../../de/dd1/classppm__java_1_1typelib_1_1_v_browseable.html" target="_top" xlink:title="Base class for all browseable objects. ">
<polygon fill="white" stroke="black" points="40.5,-570.5 40.5,-649.5 129.5,-649.5 129.5,-570.5 40.5,-570.5"/>
<text text-anchor="middle" x="85" y="-637.5" font-family="Helvetica,sans-Serif" font-size="10.00">VBrowseable</text>
<polyline fill="none" stroke="black" points="40.5,-630.5 129.5,-630.5 "/>
<text text-anchor="start" x="48.5" y="-618.5" font-family="Helvetica,sans-Serif" font-size="10.00">&#45; fID</text>
<polyline fill="none" stroke="black" points="40.5,-611.5 129.5,-611.5 "/>
<text text-anchor="start" x="48.5" y="-599.5" font-family="Helvetica,sans-Serif" font-size="10.00">+ VBrowseable()</text>
<text text-anchor="start" x="48.5" y="-588.5" font-family="Helvetica,sans-Serif" font-size="10.00">+ GetID()</text>
<text text-anchor="start" x="48.5" y="-577.5" font-family="Helvetica,sans-Serif" font-size="10.00"># _Register()</text>
</a>
</g>
</g>
<!-- Node6&#45;&gt;Node5 -->
<g id="edge5" class="edge"><title>Node6&#45;&gt;Node5</title>
<path fill="none" stroke="midnightblue" d="M85,-560.163C85,-551.04 85,-541.806 85,-533.61"/>
<polygon fill="none" stroke="midnightblue" points="81.5001,-560.354 85,-570.354 88.5001,-560.354 81.5001,-560.354"/>
</g>
</g>
</svg>
